M48
; DRILL file {KiCad (5.1.10)-1} date 10/13/21 01:32:29
; FORMAT={-:-/ absolute / metric / decimal}
; #@! TF.CreationDate,2021-10-13T01:32:29-04:00
; #@! TF.GenerationSoftware,Kicad,Pcbnew,(5.1.10)-1
; #@! TF.FileFunction,Plated,1,2,PTH
FMAT,2
METRIC
T1C0.400
T2C1.000
T3C1.100
%
G90
G05
T1
X12.167Y50.571
X13.081Y35.433
X23.597Y32.258
X34.442Y52.019
X34.696Y32.512
X45.009Y52.73
X47.244Y46.711
X54.331Y53.162
X56.49Y44.272
X69.367Y44.12
T2
X5.537Y31.318
X5.537Y28.778
X5.537Y26.238
X5.537Y23.698
X5.563Y43.815
X5.563Y41.275
X5.563Y38.735
X5.563Y36.195
X5.588Y56.032
X5.588Y53.492
X5.588Y50.952
X5.588Y48.412
X20.295Y60.554
X69.469Y38.506
X74.778Y43.764
X74.778Y41.224
X74.778Y38.684
X74.778Y36.144
X74.803Y55.982
X74.803Y53.442
X74.803Y50.902
X74.803Y48.362
X74.803Y31.344
X74.803Y28.804
X74.803Y26.264
X74.803Y23.724
T3
X20.244Y35.535
X20.269Y48.057
X20.422Y23.012
X31.242Y60.554
X31.242Y35.535
X31.242Y23.038
X31.267Y48.057
X42.266Y48.031
X42.266Y35.585
X42.266Y10.566
X42.393Y60.477
X42.52Y23.012
X53.238Y60.579
X53.238Y10.541
X53.259Y48.031
X53.264Y35.535
X53.264Y23.038
X64.237Y48.031
X64.237Y35.522
X64.262Y60.554
X64.262Y23.063
X64.262Y10.541
T0
M30
