G04 #@! TF.GenerationSoftware,KiCad,Pcbnew,5.1.12-84ad8e8a86~92~ubuntu20.04.1*
G04 #@! TF.CreationDate,2022-01-11T01:44:11-05:00*
G04 #@! TF.ProjectId,stencil,7374656e-6369-46c2-9e6b-696361645f70,rev?*
G04 #@! TF.SameCoordinates,Original*
G04 #@! TF.FileFunction,Paste,Top*
G04 #@! TF.FilePolarity,Positive*
%FSLAX46Y46*%
G04 Gerber Fmt 4.6, Leading zero omitted, Abs format (unit mm)*
G04 Created by KiCad (PCBNEW 5.1.12-84ad8e8a86~92~ubuntu20.04.1) date 2022-01-11 01:44:11*
%MOMM*%
%LPD*%
G01*
G04 APERTURE LIST*
%ADD10C,1.050000*%
%ADD11C,1.000000*%
%ADD12C,0.500000*%
%ADD13R,1.500000X2.000000*%
%ADD14R,3.800000X2.000000*%
%ADD15R,0.700000X0.700000*%
%ADD16R,1.500000X0.900000*%
%ADD17R,1.524000X0.762000*%
G04 APERTURE END LIST*
D10*
X-7729358Y-37770062D02*
G75*
G03*
X-7729358Y-37770062I-525000J0D01*
G01*
X109770642Y-37770062D02*
G75*
G03*
X109770642Y-37770062I-525000J0D01*
G01*
X109770642Y79729938D02*
G75*
G03*
X109770642Y79729938I-525000J0D01*
G01*
X-7729358Y79729938D02*
G75*
G03*
X-7729358Y79729938I-525000J0D01*
G01*
D11*
X109745642Y-8395062D02*
G75*
G03*
X109745642Y-8395062I-500000J0D01*
G01*
X-7754358Y-8395062D02*
G75*
G03*
X-7754358Y-8395062I-500000J0D01*
G01*
X109745642Y20979938D02*
G75*
G03*
X109745642Y20979938I-500000J0D01*
G01*
X-7754358Y20979938D02*
G75*
G03*
X-7754358Y20979938I-500000J0D01*
G01*
X109745642Y50354938D02*
G75*
G03*
X109745642Y50354938I-500000J0D01*
G01*
X-7754358Y50354938D02*
G75*
G03*
X-7754358Y50354938I-500000J0D01*
G01*
X80370642Y-37770062D02*
G75*
G03*
X80370642Y-37770062I-500000J0D01*
G01*
X80370642Y79729938D02*
G75*
G03*
X80370642Y79729938I-500000J0D01*
G01*
X50995642Y-37770062D02*
G75*
G03*
X50995642Y-37770062I-500000J0D01*
G01*
X50995642Y79729938D02*
G75*
G03*
X50995642Y79729938I-500000J0D01*
G01*
X21620642Y-37770062D02*
G75*
G03*
X21620642Y-37770062I-500000J0D01*
G01*
X21620642Y79729938D02*
G75*
G03*
X21620642Y79729938I-500000J0D01*
G01*
D12*
X111995642Y-29120062D02*
G75*
G02*
X112495642Y-29620062I0J-500000D01*
G01*
X112495642Y-29620062D02*
X112495642Y-40020062D01*
X-11004358Y-29120062D02*
G75*
G03*
X-11504358Y-29620062I0J-500000D01*
G01*
X-11504358Y-29620062D02*
X-11504358Y-40020062D01*
X111995642Y-28120062D02*
G75*
G03*
X112495642Y-27620062I0J500000D01*
G01*
X111995642Y-16720062D02*
G75*
G02*
X112495642Y-17220062I0J-500000D01*
G01*
X112495642Y-17220062D02*
X112495642Y-27620062D01*
X-11004358Y-28120062D02*
G75*
G02*
X-11504358Y-27620062I0J500000D01*
G01*
X-11004358Y-16720062D02*
G75*
G03*
X-11504358Y-17220062I0J-500000D01*
G01*
X-11504358Y-17220062D02*
X-11504358Y-27620062D01*
X111995642Y-15720062D02*
G75*
G03*
X112495642Y-15220062I0J500000D01*
G01*
X111995642Y-4320062D02*
G75*
G02*
X112495642Y-4820062I0J-500000D01*
G01*
X112495642Y-4820062D02*
X112495642Y-15220062D01*
X-11004358Y-15720062D02*
G75*
G02*
X-11504358Y-15220062I0J500000D01*
G01*
X-11004358Y-4320062D02*
G75*
G03*
X-11504358Y-4820062I0J-500000D01*
G01*
X-11504358Y-4820062D02*
X-11504358Y-15220062D01*
X111995642Y-3320062D02*
G75*
G03*
X112495642Y-2820062I0J500000D01*
G01*
X111995642Y8079938D02*
G75*
G02*
X112495642Y7579938I0J-500000D01*
G01*
X112495642Y7579938D02*
X112495642Y-2820062D01*
X-11004358Y-3320062D02*
G75*
G02*
X-11504358Y-2820062I0J500000D01*
G01*
X-11004358Y8079938D02*
G75*
G03*
X-11504358Y7579938I0J-500000D01*
G01*
X-11504358Y7579938D02*
X-11504358Y-2820062D01*
X111995642Y9079938D02*
G75*
G03*
X112495642Y9579938I0J500000D01*
G01*
X111995642Y20479938D02*
G75*
G02*
X112495642Y19979938I0J-500000D01*
G01*
X112495642Y19979938D02*
X112495642Y9579938D01*
X-11004358Y9079938D02*
G75*
G02*
X-11504358Y9579938I0J500000D01*
G01*
X-11004358Y20479938D02*
G75*
G03*
X-11504358Y19979938I0J-500000D01*
G01*
X-11504358Y19979938D02*
X-11504358Y9579938D01*
X111995642Y21479938D02*
G75*
G03*
X112495642Y21979938I0J500000D01*
G01*
X111995642Y32879938D02*
G75*
G02*
X112495642Y32379938I0J-500000D01*
G01*
X112495642Y32379938D02*
X112495642Y21979938D01*
X-11004358Y21479938D02*
G75*
G02*
X-11504358Y21979938I0J500000D01*
G01*
X-11004358Y32879938D02*
G75*
G03*
X-11504358Y32379938I0J-500000D01*
G01*
X-11504358Y32379938D02*
X-11504358Y21979938D01*
X111995642Y33879938D02*
G75*
G03*
X112495642Y34379938I0J500000D01*
G01*
X111995642Y45279938D02*
G75*
G02*
X112495642Y44779938I0J-500000D01*
G01*
X112495642Y44779938D02*
X112495642Y34379938D01*
X-11004358Y33879938D02*
G75*
G02*
X-11504358Y34379938I0J500000D01*
G01*
X-11004358Y45279938D02*
G75*
G03*
X-11504358Y44779938I0J-500000D01*
G01*
X-11504358Y44779938D02*
X-11504358Y34379938D01*
X111995642Y46279938D02*
G75*
G03*
X112495642Y46779938I0J500000D01*
G01*
X111995642Y57679938D02*
G75*
G02*
X112495642Y57179938I0J-500000D01*
G01*
X112495642Y57179938D02*
X112495642Y46779938D01*
X-11004358Y46279938D02*
G75*
G02*
X-11504358Y46779938I0J500000D01*
G01*
X-11004358Y57679938D02*
G75*
G03*
X-11504358Y57179938I0J-500000D01*
G01*
X-11504358Y57179938D02*
X-11504358Y46779938D01*
X111995642Y58679938D02*
G75*
G03*
X112495642Y59179938I0J500000D01*
G01*
X111995642Y70079938D02*
G75*
G02*
X112495642Y69579938I0J-500000D01*
G01*
X112495642Y69579938D02*
X112495642Y59179938D01*
X-11004358Y58679938D02*
G75*
G02*
X-11504358Y59179938I0J500000D01*
G01*
X-11004358Y70079938D02*
G75*
G03*
X-11504358Y69579938I0J-500000D01*
G01*
X-11504358Y69579938D02*
X-11504358Y59179938D01*
X111995642Y71079938D02*
G75*
G03*
X112495642Y71579938I0J500000D01*
G01*
X112495642Y81979938D02*
X112495642Y71579938D01*
X-11004358Y71079938D02*
G75*
G02*
X-11504358Y71579938I0J500000D01*
G01*
X-11504358Y81979938D02*
X-11504358Y71579938D01*
X100595642Y-40520062D02*
G75*
G03*
X101095642Y-41020062I500000J0D01*
G01*
X101095642Y-41020062D02*
X111495642Y-41020062D01*
X100595642Y82479938D02*
G75*
G02*
X101095642Y82979938I500000J0D01*
G01*
X101095642Y82979938D02*
X111495642Y82979938D01*
X99595642Y-40520062D02*
G75*
G02*
X99095642Y-41020062I-500000J0D01*
G01*
X88195642Y-40520062D02*
G75*
G03*
X88695642Y-41020062I500000J0D01*
G01*
X88695642Y-41020062D02*
X99095642Y-41020062D01*
X99595642Y82479938D02*
G75*
G03*
X99095642Y82979938I-500000J0D01*
G01*
X88195642Y82479938D02*
G75*
G02*
X88695642Y82979938I500000J0D01*
G01*
X88695642Y82979938D02*
X99095642Y82979938D01*
X87195642Y-40520062D02*
G75*
G02*
X86695642Y-41020062I-500000J0D01*
G01*
X75795642Y-40520062D02*
G75*
G03*
X76295642Y-41020062I500000J0D01*
G01*
X76295642Y-41020062D02*
X86695642Y-41020062D01*
X87195642Y82479938D02*
G75*
G03*
X86695642Y82979938I-500000J0D01*
G01*
X75795642Y82479938D02*
G75*
G02*
X76295642Y82979938I500000J0D01*
G01*
X76295642Y82979938D02*
X86695642Y82979938D01*
X74795642Y-40520062D02*
G75*
G02*
X74295642Y-41020062I-500000J0D01*
G01*
X63395642Y-40520062D02*
G75*
G03*
X63895642Y-41020062I500000J0D01*
G01*
X63895642Y-41020062D02*
X74295642Y-41020062D01*
X74795642Y82479938D02*
G75*
G03*
X74295642Y82979938I-500000J0D01*
G01*
X63395642Y82479938D02*
G75*
G02*
X63895642Y82979938I500000J0D01*
G01*
X63895642Y82979938D02*
X74295642Y82979938D01*
X62395642Y-40520062D02*
G75*
G02*
X61895642Y-41020062I-500000J0D01*
G01*
X50995642Y-40520062D02*
G75*
G03*
X51495642Y-41020062I500000J0D01*
G01*
X51495642Y-41020062D02*
X61895642Y-41020062D01*
X62395642Y82479938D02*
G75*
G03*
X61895642Y82979938I-500000J0D01*
G01*
X50995642Y82479938D02*
G75*
G02*
X51495642Y82979938I500000J0D01*
G01*
X51495642Y82979938D02*
X61895642Y82979938D01*
X49995642Y-40520062D02*
G75*
G02*
X49495642Y-41020062I-500000J0D01*
G01*
X38595642Y-40520062D02*
G75*
G03*
X39095642Y-41020062I500000J0D01*
G01*
X39095642Y-41020062D02*
X49495642Y-41020062D01*
X49995642Y82479938D02*
G75*
G03*
X49495642Y82979938I-500000J0D01*
G01*
X38595642Y82479938D02*
G75*
G02*
X39095642Y82979938I500000J0D01*
G01*
X39095642Y82979938D02*
X49495642Y82979938D01*
X37595642Y-40520062D02*
G75*
G02*
X37095642Y-41020062I-500000J0D01*
G01*
X26195642Y-40520062D02*
G75*
G03*
X26695642Y-41020062I500000J0D01*
G01*
X26695642Y-41020062D02*
X37095642Y-41020062D01*
X37595642Y82479938D02*
G75*
G03*
X37095642Y82979938I-500000J0D01*
G01*
X26195642Y82479938D02*
G75*
G02*
X26695642Y82979938I500000J0D01*
G01*
X26695642Y82979938D02*
X37095642Y82979938D01*
X25195642Y-40520062D02*
G75*
G02*
X24695642Y-41020062I-500000J0D01*
G01*
X13795642Y-40520062D02*
G75*
G03*
X14295642Y-41020062I500000J0D01*
G01*
X14295642Y-41020062D02*
X24695642Y-41020062D01*
X25195642Y82479938D02*
G75*
G03*
X24695642Y82979938I-500000J0D01*
G01*
X13795642Y82479938D02*
G75*
G02*
X14295642Y82979938I500000J0D01*
G01*
X14295642Y82979938D02*
X24695642Y82979938D01*
X12795642Y-40520062D02*
G75*
G02*
X12295642Y-41020062I-500000J0D01*
G01*
X1395642Y-40520062D02*
G75*
G03*
X1895642Y-41020062I500000J0D01*
G01*
X1895642Y-41020062D02*
X12295642Y-41020062D01*
X12795642Y82479938D02*
G75*
G03*
X12295642Y82979938I-500000J0D01*
G01*
X1395642Y82479938D02*
G75*
G02*
X1895642Y82979938I500000J0D01*
G01*
X1895642Y82979938D02*
X12295642Y82979938D01*
X395642Y-40520062D02*
G75*
G02*
X-104358Y-41020062I-500000J0D01*
G01*
X-10504358Y-41020062D02*
X-104358Y-41020062D01*
X395642Y82479938D02*
G75*
G03*
X-104358Y82979938I-500000J0D01*
G01*
X-10504358Y82979938D02*
X-104358Y82979938D01*
X-10504358Y-41020062D02*
G75*
G02*
X-11504358Y-40020062I0J1000000D01*
G01*
X112495642Y-40020062D02*
G75*
G02*
X111495642Y-41020062I-1000000J0D01*
G01*
X111495642Y82979938D02*
G75*
G02*
X112495642Y81979938I0J-1000000D01*
G01*
X-11504358Y81979938D02*
G75*
G02*
X-10504358Y82979938I1000000J0D01*
G01*
G04 #@! TO.C,R14*
G36*
G01*
X71578000Y-170001D02*
X71578000Y730001D01*
G75*
G02*
X71827999Y980000I249999J0D01*
G01*
X72528001Y980000D01*
G75*
G02*
X72778000Y730001I0J-249999D01*
G01*
X72778000Y-170001D01*
G75*
G02*
X72528001Y-420000I-249999J0D01*
G01*
X71827999Y-420000D01*
G75*
G02*
X71578000Y-170001I0J249999D01*
G01*
G37*
G36*
G01*
X69578000Y-170001D02*
X69578000Y730001D01*
G75*
G02*
X69827999Y980000I249999J0D01*
G01*
X70528001Y980000D01*
G75*
G02*
X70778000Y730001I0J-249999D01*
G01*
X70778000Y-170001D01*
G75*
G02*
X70528001Y-420000I-249999J0D01*
G01*
X69827999Y-420000D01*
G75*
G02*
X69578000Y-170001I0J249999D01*
G01*
G37*
G04 #@! TD*
G04 #@! TO.C,C8*
G36*
G01*
X51928000Y7805000D02*
X51928000Y8755000D01*
G75*
G02*
X52178000Y9005000I250000J0D01*
G01*
X52853000Y9005000D01*
G75*
G02*
X53103000Y8755000I0J-250000D01*
G01*
X53103000Y7805000D01*
G75*
G02*
X52853000Y7555000I-250000J0D01*
G01*
X52178000Y7555000D01*
G75*
G02*
X51928000Y7805000I0J250000D01*
G01*
G37*
G36*
G01*
X49853000Y7805000D02*
X49853000Y8755000D01*
G75*
G02*
X50103000Y9005000I250000J0D01*
G01*
X50778000Y9005000D01*
G75*
G02*
X51028000Y8755000I0J-250000D01*
G01*
X51028000Y7805000D01*
G75*
G02*
X50778000Y7555000I-250000J0D01*
G01*
X50103000Y7555000D01*
G75*
G02*
X49853000Y7805000I0J250000D01*
G01*
G37*
G04 #@! TD*
D13*
G04 #@! TO.C,U4*
X52278000Y13780000D03*
X56878000Y13780000D03*
X54578000Y13780000D03*
D14*
X54578000Y20080000D03*
G04 #@! TD*
G04 #@! TO.C,R13*
G36*
G01*
X43828001Y-2020000D02*
X42927999Y-2020000D01*
G75*
G02*
X42678000Y-1770001I0J249999D01*
G01*
X42678000Y-1069999D01*
G75*
G02*
X42927999Y-820000I249999J0D01*
G01*
X43828001Y-820000D01*
G75*
G02*
X44078000Y-1069999I0J-249999D01*
G01*
X44078000Y-1770001D01*
G75*
G02*
X43828001Y-2020000I-249999J0D01*
G01*
G37*
G36*
G01*
X43828001Y-4020000D02*
X42927999Y-4020000D01*
G75*
G02*
X42678000Y-3770001I0J249999D01*
G01*
X42678000Y-3069999D01*
G75*
G02*
X42927999Y-2820000I249999J0D01*
G01*
X43828001Y-2820000D01*
G75*
G02*
X44078000Y-3069999I0J-249999D01*
G01*
X44078000Y-3770001D01*
G75*
G02*
X43828001Y-4020000I-249999J0D01*
G01*
G37*
G04 #@! TD*
G04 #@! TO.C,D5*
G36*
G01*
X42927999Y-8545000D02*
X43828001Y-8545000D01*
G75*
G02*
X44078000Y-8794999I0J-249999D01*
G01*
X44078000Y-9445001D01*
G75*
G02*
X43828001Y-9695000I-249999J0D01*
G01*
X42927999Y-9695000D01*
G75*
G02*
X42678000Y-9445001I0J249999D01*
G01*
X42678000Y-8794999D01*
G75*
G02*
X42927999Y-8545000I249999J0D01*
G01*
G37*
G36*
G01*
X42927999Y-6495000D02*
X43828001Y-6495000D01*
G75*
G02*
X44078000Y-6744999I0J-249999D01*
G01*
X44078000Y-7395001D01*
G75*
G02*
X43828001Y-7645000I-249999J0D01*
G01*
X42927999Y-7645000D01*
G75*
G02*
X42678000Y-7395001I0J249999D01*
G01*
X42678000Y-6744999D01*
G75*
G02*
X42927999Y-6495000I249999J0D01*
G01*
G37*
G04 #@! TD*
G04 #@! TO.C,R12*
G36*
G01*
X63127999Y12380000D02*
X64028001Y12380000D01*
G75*
G02*
X64278000Y12130001I0J-249999D01*
G01*
X64278000Y11429999D01*
G75*
G02*
X64028001Y11180000I-249999J0D01*
G01*
X63127999Y11180000D01*
G75*
G02*
X62878000Y11429999I0J249999D01*
G01*
X62878000Y12130001D01*
G75*
G02*
X63127999Y12380000I249999J0D01*
G01*
G37*
G36*
G01*
X63127999Y14380000D02*
X64028001Y14380000D01*
G75*
G02*
X64278000Y14130001I0J-249999D01*
G01*
X64278000Y13429999D01*
G75*
G02*
X64028001Y13180000I-249999J0D01*
G01*
X63127999Y13180000D01*
G75*
G02*
X62878000Y13429999I0J249999D01*
G01*
X62878000Y14130001D01*
G75*
G02*
X63127999Y14380000I249999J0D01*
G01*
G37*
G04 #@! TD*
G04 #@! TO.C,D4*
G36*
G01*
X60627999Y10355000D02*
X61528001Y10355000D01*
G75*
G02*
X61778000Y10105001I0J-249999D01*
G01*
X61778000Y9454999D01*
G75*
G02*
X61528001Y9205000I-249999J0D01*
G01*
X60627999Y9205000D01*
G75*
G02*
X60378000Y9454999I0J249999D01*
G01*
X60378000Y10105001D01*
G75*
G02*
X60627999Y10355000I249999J0D01*
G01*
G37*
G36*
G01*
X60627999Y12405000D02*
X61528001Y12405000D01*
G75*
G02*
X61778000Y12155001I0J-249999D01*
G01*
X61778000Y11504999D01*
G75*
G02*
X61528001Y11255000I-249999J0D01*
G01*
X60627999Y11255000D01*
G75*
G02*
X60378000Y11504999I0J249999D01*
G01*
X60378000Y12155001D01*
G75*
G02*
X60627999Y12405000I249999J0D01*
G01*
G37*
G04 #@! TD*
D15*
G04 #@! TO.C,U5*
X59568000Y-3620000D03*
X59568000Y-2520000D03*
X59568000Y-1420000D03*
X58518000Y-1420000D03*
X57368000Y-1420000D03*
X57368000Y-2520000D03*
X57368000Y-3620000D03*
X58518000Y-3620000D03*
X58518000Y-2520000D03*
D16*
X50678000Y-8720000D03*
X50678000Y-7220000D03*
X50678000Y-5720000D03*
X50678000Y-4220000D03*
X50678000Y-2720000D03*
X50678000Y-1220000D03*
X50678000Y280000D03*
X50678000Y1780000D03*
X50678000Y3280000D03*
X68178000Y-8720000D03*
X68178000Y-7220000D03*
X68178000Y-5720000D03*
X68178000Y-4220000D03*
X68178000Y-2720000D03*
X68178000Y-1220000D03*
X68178000Y280000D03*
X68178000Y1780000D03*
X68178000Y3280000D03*
G04 #@! TD*
D17*
G04 #@! TO.C,S1*
X48972000Y6675000D03*
X43384000Y6675000D03*
X48972000Y10485000D03*
X43384000Y10485000D03*
G04 #@! TD*
G04 #@! TO.C,R11*
G36*
G01*
X71578000Y-2470001D02*
X71578000Y-1569999D01*
G75*
G02*
X71827999Y-1320000I249999J0D01*
G01*
X72528001Y-1320000D01*
G75*
G02*
X72778000Y-1569999I0J-249999D01*
G01*
X72778000Y-2470001D01*
G75*
G02*
X72528001Y-2720000I-249999J0D01*
G01*
X71827999Y-2720000D01*
G75*
G02*
X71578000Y-2470001I0J249999D01*
G01*
G37*
G36*
G01*
X69578000Y-2470001D02*
X69578000Y-1569999D01*
G75*
G02*
X69827999Y-1320000I249999J0D01*
G01*
X70528001Y-1320000D01*
G75*
G02*
X70778000Y-1569999I0J-249999D01*
G01*
X70778000Y-2470001D01*
G75*
G02*
X70528001Y-2720000I-249999J0D01*
G01*
X69827999Y-2720000D01*
G75*
G02*
X69578000Y-2470001I0J249999D01*
G01*
G37*
G04 #@! TD*
G04 #@! TO.C,C7*
G36*
G01*
X73665500Y4205000D02*
X73665500Y5155000D01*
G75*
G02*
X73915500Y5405000I250000J0D01*
G01*
X74590500Y5405000D01*
G75*
G02*
X74840500Y5155000I0J-250000D01*
G01*
X74840500Y4205000D01*
G75*
G02*
X74590500Y3955000I-250000J0D01*
G01*
X73915500Y3955000D01*
G75*
G02*
X73665500Y4205000I0J250000D01*
G01*
G37*
G36*
G01*
X71590500Y4205000D02*
X71590500Y5155000D01*
G75*
G02*
X71840500Y5405000I250000J0D01*
G01*
X72515500Y5405000D01*
G75*
G02*
X72765500Y5155000I0J-250000D01*
G01*
X72765500Y4205000D01*
G75*
G02*
X72515500Y3955000I-250000J0D01*
G01*
X71840500Y3955000D01*
G75*
G02*
X71590500Y4205000I0J250000D01*
G01*
G37*
G04 #@! TD*
G04 #@! TO.C,C6*
G36*
G01*
X71590500Y1905000D02*
X71590500Y2855000D01*
G75*
G02*
X71840500Y3105000I250000J0D01*
G01*
X72515500Y3105000D01*
G75*
G02*
X72765500Y2855000I0J-250000D01*
G01*
X72765500Y1905000D01*
G75*
G02*
X72515500Y1655000I-250000J0D01*
G01*
X71840500Y1655000D01*
G75*
G02*
X71590500Y1905000I0J250000D01*
G01*
G37*
G36*
G01*
X73665500Y1905000D02*
X73665500Y2855000D01*
G75*
G02*
X73915500Y3105000I250000J0D01*
G01*
X74590500Y3105000D01*
G75*
G02*
X74840500Y2855000I0J-250000D01*
G01*
X74840500Y1905000D01*
G75*
G02*
X74590500Y1655000I-250000J0D01*
G01*
X73915500Y1655000D01*
G75*
G02*
X73665500Y1905000I0J250000D01*
G01*
G37*
G04 #@! TD*
G04 #@! TO.C,C4*
G36*
G01*
X58453000Y13305000D02*
X58453000Y14255000D01*
G75*
G02*
X58703000Y14505000I250000J0D01*
G01*
X59378000Y14505000D01*
G75*
G02*
X59628000Y14255000I0J-250000D01*
G01*
X59628000Y13305000D01*
G75*
G02*
X59378000Y13055000I-250000J0D01*
G01*
X58703000Y13055000D01*
G75*
G02*
X58453000Y13305000I0J250000D01*
G01*
G37*
G36*
G01*
X60528000Y13305000D02*
X60528000Y14255000D01*
G75*
G02*
X60778000Y14505000I250000J0D01*
G01*
X61453000Y14505000D01*
G75*
G02*
X61703000Y14255000I0J-250000D01*
G01*
X61703000Y13305000D01*
G75*
G02*
X61453000Y13055000I-250000J0D01*
G01*
X60778000Y13055000D01*
G75*
G02*
X60528000Y13305000I0J250000D01*
G01*
G37*
G04 #@! TD*
G04 #@! TO.C,R10*
G36*
G01*
X86327999Y39780000D02*
X87228001Y39780000D01*
G75*
G02*
X87478000Y39530001I0J-249999D01*
G01*
X87478000Y38829999D01*
G75*
G02*
X87228001Y38580000I-249999J0D01*
G01*
X86327999Y38580000D01*
G75*
G02*
X86078000Y38829999I0J249999D01*
G01*
X86078000Y39530001D01*
G75*
G02*
X86327999Y39780000I249999J0D01*
G01*
G37*
G36*
G01*
X86327999Y41780000D02*
X87228001Y41780000D01*
G75*
G02*
X87478000Y41530001I0J-249999D01*
G01*
X87478000Y40829999D01*
G75*
G02*
X87228001Y40580000I-249999J0D01*
G01*
X86327999Y40580000D01*
G75*
G02*
X86078000Y40829999I0J249999D01*
G01*
X86078000Y41530001D01*
G75*
G02*
X86327999Y41780000I249999J0D01*
G01*
G37*
G04 #@! TD*
G04 #@! TO.C,D2*
G36*
G01*
X83627999Y39755000D02*
X84528001Y39755000D01*
G75*
G02*
X84778000Y39505001I0J-249999D01*
G01*
X84778000Y38854999D01*
G75*
G02*
X84528001Y38605000I-249999J0D01*
G01*
X83627999Y38605000D01*
G75*
G02*
X83378000Y38854999I0J249999D01*
G01*
X83378000Y39505001D01*
G75*
G02*
X83627999Y39755000I249999J0D01*
G01*
G37*
G36*
G01*
X83627999Y41805000D02*
X84528001Y41805000D01*
G75*
G02*
X84778000Y41555001I0J-249999D01*
G01*
X84778000Y40904999D01*
G75*
G02*
X84528001Y40655000I-249999J0D01*
G01*
X83627999Y40655000D01*
G75*
G02*
X83378000Y40904999I0J249999D01*
G01*
X83378000Y41555001D01*
G75*
G02*
X83627999Y41805000I249999J0D01*
G01*
G37*
G04 #@! TD*
G04 #@! TO.C,R8*
G36*
G01*
X62327999Y43380000D02*
X63228001Y43380000D01*
G75*
G02*
X63478000Y43130001I0J-249999D01*
G01*
X63478000Y42429999D01*
G75*
G02*
X63228001Y42180000I-249999J0D01*
G01*
X62327999Y42180000D01*
G75*
G02*
X62078000Y42429999I0J249999D01*
G01*
X62078000Y43130001D01*
G75*
G02*
X62327999Y43380000I249999J0D01*
G01*
G37*
G36*
G01*
X62327999Y41380000D02*
X63228001Y41380000D01*
G75*
G02*
X63478000Y41130001I0J-249999D01*
G01*
X63478000Y40429999D01*
G75*
G02*
X63228001Y40180000I-249999J0D01*
G01*
X62327999Y40180000D01*
G75*
G02*
X62078000Y40429999I0J249999D01*
G01*
X62078000Y41130001D01*
G75*
G02*
X62327999Y41380000I249999J0D01*
G01*
G37*
G04 #@! TD*
G04 #@! TO.C,R7*
G36*
G01*
X42927999Y43080000D02*
X43828001Y43080000D01*
G75*
G02*
X44078000Y42830001I0J-249999D01*
G01*
X44078000Y42129999D01*
G75*
G02*
X43828001Y41880000I-249999J0D01*
G01*
X42927999Y41880000D01*
G75*
G02*
X42678000Y42129999I0J249999D01*
G01*
X42678000Y42830001D01*
G75*
G02*
X42927999Y43080000I249999J0D01*
G01*
G37*
G36*
G01*
X42927999Y45080000D02*
X43828001Y45080000D01*
G75*
G02*
X44078000Y44830001I0J-249999D01*
G01*
X44078000Y44129999D01*
G75*
G02*
X43828001Y43880000I-249999J0D01*
G01*
X42927999Y43880000D01*
G75*
G02*
X42678000Y44129999I0J249999D01*
G01*
X42678000Y44830001D01*
G75*
G02*
X42927999Y45080000I249999J0D01*
G01*
G37*
G04 #@! TD*
G04 #@! TO.C,R4*
G36*
G01*
X78327999Y42180000D02*
X79228001Y42180000D01*
G75*
G02*
X79478000Y41930001I0J-249999D01*
G01*
X79478000Y41229999D01*
G75*
G02*
X79228001Y40980000I-249999J0D01*
G01*
X78327999Y40980000D01*
G75*
G02*
X78078000Y41229999I0J249999D01*
G01*
X78078000Y41930001D01*
G75*
G02*
X78327999Y42180000I249999J0D01*
G01*
G37*
G36*
G01*
X78327999Y44180000D02*
X79228001Y44180000D01*
G75*
G02*
X79478000Y43930001I0J-249999D01*
G01*
X79478000Y43229999D01*
G75*
G02*
X79228001Y42980000I-249999J0D01*
G01*
X78327999Y42980000D01*
G75*
G02*
X78078000Y43229999I0J249999D01*
G01*
X78078000Y43930001D01*
G75*
G02*
X78327999Y44180000I249999J0D01*
G01*
G37*
G04 #@! TD*
G04 #@! TO.C,R3*
G36*
G01*
X75827999Y42180000D02*
X76728001Y42180000D01*
G75*
G02*
X76978000Y41930001I0J-249999D01*
G01*
X76978000Y41229999D01*
G75*
G02*
X76728001Y40980000I-249999J0D01*
G01*
X75827999Y40980000D01*
G75*
G02*
X75578000Y41229999I0J249999D01*
G01*
X75578000Y41930001D01*
G75*
G02*
X75827999Y42180000I249999J0D01*
G01*
G37*
G36*
G01*
X75827999Y44180000D02*
X76728001Y44180000D01*
G75*
G02*
X76978000Y43930001I0J-249999D01*
G01*
X76978000Y43229999D01*
G75*
G02*
X76728001Y42980000I-249999J0D01*
G01*
X75827999Y42980000D01*
G75*
G02*
X75578000Y43229999I0J249999D01*
G01*
X75578000Y43930001D01*
G75*
G02*
X75827999Y44180000I249999J0D01*
G01*
G37*
G04 #@! TD*
G04 #@! TO.C,R2*
G36*
G01*
X73227999Y44180000D02*
X74128001Y44180000D01*
G75*
G02*
X74378000Y43930001I0J-249999D01*
G01*
X74378000Y43229999D01*
G75*
G02*
X74128001Y42980000I-249999J0D01*
G01*
X73227999Y42980000D01*
G75*
G02*
X72978000Y43229999I0J249999D01*
G01*
X72978000Y43930001D01*
G75*
G02*
X73227999Y44180000I249999J0D01*
G01*
G37*
G36*
G01*
X73227999Y42180000D02*
X74128001Y42180000D01*
G75*
G02*
X74378000Y41930001I0J-249999D01*
G01*
X74378000Y41229999D01*
G75*
G02*
X74128001Y40980000I-249999J0D01*
G01*
X73227999Y40980000D01*
G75*
G02*
X72978000Y41229999I0J249999D01*
G01*
X72978000Y41930001D01*
G75*
G02*
X73227999Y42180000I249999J0D01*
G01*
G37*
G04 #@! TD*
G04 #@! TO.C,C2*
G36*
G01*
X60953000Y40155000D02*
X60003000Y40155000D01*
G75*
G02*
X59753000Y40405000I0J250000D01*
G01*
X59753000Y41080000D01*
G75*
G02*
X60003000Y41330000I250000J0D01*
G01*
X60953000Y41330000D01*
G75*
G02*
X61203000Y41080000I0J-250000D01*
G01*
X61203000Y40405000D01*
G75*
G02*
X60953000Y40155000I-250000J0D01*
G01*
G37*
G36*
G01*
X60953000Y42230000D02*
X60003000Y42230000D01*
G75*
G02*
X59753000Y42480000I0J250000D01*
G01*
X59753000Y43155000D01*
G75*
G02*
X60003000Y43405000I250000J0D01*
G01*
X60953000Y43405000D01*
G75*
G02*
X61203000Y43155000I0J-250000D01*
G01*
X61203000Y42480000D01*
G75*
G02*
X60953000Y42230000I-250000J0D01*
G01*
G37*
G04 #@! TD*
G04 #@! TO.C,C1*
G36*
G01*
X80928000Y28705000D02*
X80928000Y29655000D01*
G75*
G02*
X81178000Y29905000I250000J0D01*
G01*
X81853000Y29905000D01*
G75*
G02*
X82103000Y29655000I0J-250000D01*
G01*
X82103000Y28705000D01*
G75*
G02*
X81853000Y28455000I-250000J0D01*
G01*
X81178000Y28455000D01*
G75*
G02*
X80928000Y28705000I0J250000D01*
G01*
G37*
G36*
G01*
X78853000Y28705000D02*
X78853000Y29655000D01*
G75*
G02*
X79103000Y29905000I250000J0D01*
G01*
X79778000Y29905000D01*
G75*
G02*
X80028000Y29655000I0J-250000D01*
G01*
X80028000Y28705000D01*
G75*
G02*
X79778000Y28455000I-250000J0D01*
G01*
X79103000Y28455000D01*
G75*
G02*
X78853000Y28705000I0J250000D01*
G01*
G37*
G04 #@! TD*
G04 #@! TO.C,C3*
G36*
G01*
X70403000Y-5770000D02*
X71353000Y-5770000D01*
G75*
G02*
X71603000Y-6020000I0J-250000D01*
G01*
X71603000Y-6695000D01*
G75*
G02*
X71353000Y-6945000I-250000J0D01*
G01*
X70403000Y-6945000D01*
G75*
G02*
X70153000Y-6695000I0J250000D01*
G01*
X70153000Y-6020000D01*
G75*
G02*
X70403000Y-5770000I250000J0D01*
G01*
G37*
G36*
G01*
X70403000Y-3695000D02*
X71353000Y-3695000D01*
G75*
G02*
X71603000Y-3945000I0J-250000D01*
G01*
X71603000Y-4620000D01*
G75*
G02*
X71353000Y-4870000I-250000J0D01*
G01*
X70403000Y-4870000D01*
G75*
G02*
X70153000Y-4620000I0J250000D01*
G01*
X70153000Y-3945000D01*
G75*
G02*
X70403000Y-3695000I250000J0D01*
G01*
G37*
G04 #@! TD*
G04 #@! TO.C,C5*
G36*
G01*
X56203000Y9530000D02*
X57153000Y9530000D01*
G75*
G02*
X57403000Y9280000I0J-250000D01*
G01*
X57403000Y8605000D01*
G75*
G02*
X57153000Y8355000I-250000J0D01*
G01*
X56203000Y8355000D01*
G75*
G02*
X55953000Y8605000I0J250000D01*
G01*
X55953000Y9280000D01*
G75*
G02*
X56203000Y9530000I250000J0D01*
G01*
G37*
G36*
G01*
X56203000Y11605000D02*
X57153000Y11605000D01*
G75*
G02*
X57403000Y11355000I0J-250000D01*
G01*
X57403000Y10680000D01*
G75*
G02*
X57153000Y10430000I-250000J0D01*
G01*
X56203000Y10430000D01*
G75*
G02*
X55953000Y10680000I0J250000D01*
G01*
X55953000Y11355000D01*
G75*
G02*
X56203000Y11605000I250000J0D01*
G01*
G37*
G04 #@! TD*
M02*
