G04 #@! TF.GenerationSoftware,KiCad,Pcbnew,5.1.12-84ad8e8a86~92~ubuntu20.04.1*
G04 #@! TF.CreationDate,2021-12-09T02:09:56-05:00*
G04 #@! TF.ProjectId,stencil,7374656e-6369-46c2-9e6b-696361645f70,rev?*
G04 #@! TF.SameCoordinates,Original*
G04 #@! TF.FileFunction,Paste,Top*
G04 #@! TF.FilePolarity,Positive*
%FSLAX46Y46*%
G04 Gerber Fmt 4.6, Leading zero omitted, Abs format (unit mm)*
G04 Created by KiCad (PCBNEW 5.1.12-84ad8e8a86~92~ubuntu20.04.1) date 2021-12-09 02:09:56*
%MOMM*%
%LPD*%
G01*
G04 APERTURE LIST*
%ADD10C,1.050000*%
%ADD11C,1.000000*%
%ADD12C,0.500000*%
%ADD13R,0.700000X0.700000*%
%ADD14R,1.500000X0.900000*%
%ADD15R,0.800000X0.900000*%
%ADD16R,1.524000X0.762000*%
G04 APERTURE END LIST*
D10*
X-7729358Y-37770062D02*
G75*
G03*
X-7729358Y-37770062I-525000J0D01*
G01*
X109770642Y-37770062D02*
G75*
G03*
X109770642Y-37770062I-525000J0D01*
G01*
X109770642Y79729938D02*
G75*
G03*
X109770642Y79729938I-525000J0D01*
G01*
X-7729358Y79729938D02*
G75*
G03*
X-7729358Y79729938I-525000J0D01*
G01*
D11*
X109745642Y-8395062D02*
G75*
G03*
X109745642Y-8395062I-500000J0D01*
G01*
X-7754358Y-8395062D02*
G75*
G03*
X-7754358Y-8395062I-500000J0D01*
G01*
X109745642Y20979938D02*
G75*
G03*
X109745642Y20979938I-500000J0D01*
G01*
X-7754358Y20979938D02*
G75*
G03*
X-7754358Y20979938I-500000J0D01*
G01*
X109745642Y50354938D02*
G75*
G03*
X109745642Y50354938I-500000J0D01*
G01*
X-7754358Y50354938D02*
G75*
G03*
X-7754358Y50354938I-500000J0D01*
G01*
X80370642Y-37770062D02*
G75*
G03*
X80370642Y-37770062I-500000J0D01*
G01*
X80370642Y79729938D02*
G75*
G03*
X80370642Y79729938I-500000J0D01*
G01*
X50995642Y-37770062D02*
G75*
G03*
X50995642Y-37770062I-500000J0D01*
G01*
X50995642Y79729938D02*
G75*
G03*
X50995642Y79729938I-500000J0D01*
G01*
X21620642Y-37770062D02*
G75*
G03*
X21620642Y-37770062I-500000J0D01*
G01*
X21620642Y79729938D02*
G75*
G03*
X21620642Y79729938I-500000J0D01*
G01*
D12*
X111995642Y-29120062D02*
G75*
G02*
X112495642Y-29620062I0J-500000D01*
G01*
X112495642Y-29620062D02*
X112495642Y-40020062D01*
X-11004358Y-29120062D02*
G75*
G03*
X-11504358Y-29620062I0J-500000D01*
G01*
X-11504358Y-29620062D02*
X-11504358Y-40020062D01*
X111995642Y-28120062D02*
G75*
G03*
X112495642Y-27620062I0J500000D01*
G01*
X111995642Y-16720062D02*
G75*
G02*
X112495642Y-17220062I0J-500000D01*
G01*
X112495642Y-17220062D02*
X112495642Y-27620062D01*
X-11004358Y-28120062D02*
G75*
G02*
X-11504358Y-27620062I0J500000D01*
G01*
X-11004358Y-16720062D02*
G75*
G03*
X-11504358Y-17220062I0J-500000D01*
G01*
X-11504358Y-17220062D02*
X-11504358Y-27620062D01*
X111995642Y-15720062D02*
G75*
G03*
X112495642Y-15220062I0J500000D01*
G01*
X111995642Y-4320062D02*
G75*
G02*
X112495642Y-4820062I0J-500000D01*
G01*
X112495642Y-4820062D02*
X112495642Y-15220062D01*
X-11004358Y-15720062D02*
G75*
G02*
X-11504358Y-15220062I0J500000D01*
G01*
X-11004358Y-4320062D02*
G75*
G03*
X-11504358Y-4820062I0J-500000D01*
G01*
X-11504358Y-4820062D02*
X-11504358Y-15220062D01*
X111995642Y-3320062D02*
G75*
G03*
X112495642Y-2820062I0J500000D01*
G01*
X111995642Y8079938D02*
G75*
G02*
X112495642Y7579938I0J-500000D01*
G01*
X112495642Y7579938D02*
X112495642Y-2820062D01*
X-11004358Y-3320062D02*
G75*
G02*
X-11504358Y-2820062I0J500000D01*
G01*
X-11004358Y8079938D02*
G75*
G03*
X-11504358Y7579938I0J-500000D01*
G01*
X-11504358Y7579938D02*
X-11504358Y-2820062D01*
X111995642Y9079938D02*
G75*
G03*
X112495642Y9579938I0J500000D01*
G01*
X111995642Y20479938D02*
G75*
G02*
X112495642Y19979938I0J-500000D01*
G01*
X112495642Y19979938D02*
X112495642Y9579938D01*
X-11004358Y9079938D02*
G75*
G02*
X-11504358Y9579938I0J500000D01*
G01*
X-11004358Y20479938D02*
G75*
G03*
X-11504358Y19979938I0J-500000D01*
G01*
X-11504358Y19979938D02*
X-11504358Y9579938D01*
X111995642Y21479938D02*
G75*
G03*
X112495642Y21979938I0J500000D01*
G01*
X111995642Y32879938D02*
G75*
G02*
X112495642Y32379938I0J-500000D01*
G01*
X112495642Y32379938D02*
X112495642Y21979938D01*
X-11004358Y21479938D02*
G75*
G02*
X-11504358Y21979938I0J500000D01*
G01*
X-11004358Y32879938D02*
G75*
G03*
X-11504358Y32379938I0J-500000D01*
G01*
X-11504358Y32379938D02*
X-11504358Y21979938D01*
X111995642Y33879938D02*
G75*
G03*
X112495642Y34379938I0J500000D01*
G01*
X111995642Y45279938D02*
G75*
G02*
X112495642Y44779938I0J-500000D01*
G01*
X112495642Y44779938D02*
X112495642Y34379938D01*
X-11004358Y33879938D02*
G75*
G02*
X-11504358Y34379938I0J500000D01*
G01*
X-11004358Y45279938D02*
G75*
G03*
X-11504358Y44779938I0J-500000D01*
G01*
X-11504358Y44779938D02*
X-11504358Y34379938D01*
X111995642Y46279938D02*
G75*
G03*
X112495642Y46779938I0J500000D01*
G01*
X111995642Y57679938D02*
G75*
G02*
X112495642Y57179938I0J-500000D01*
G01*
X112495642Y57179938D02*
X112495642Y46779938D01*
X-11004358Y46279938D02*
G75*
G02*
X-11504358Y46779938I0J500000D01*
G01*
X-11004358Y57679938D02*
G75*
G03*
X-11504358Y57179938I0J-500000D01*
G01*
X-11504358Y57179938D02*
X-11504358Y46779938D01*
X111995642Y58679938D02*
G75*
G03*
X112495642Y59179938I0J500000D01*
G01*
X111995642Y70079938D02*
G75*
G02*
X112495642Y69579938I0J-500000D01*
G01*
X112495642Y69579938D02*
X112495642Y59179938D01*
X-11004358Y58679938D02*
G75*
G02*
X-11504358Y59179938I0J500000D01*
G01*
X-11004358Y70079938D02*
G75*
G03*
X-11504358Y69579938I0J-500000D01*
G01*
X-11504358Y69579938D02*
X-11504358Y59179938D01*
X111995642Y71079938D02*
G75*
G03*
X112495642Y71579938I0J500000D01*
G01*
X112495642Y81979938D02*
X112495642Y71579938D01*
X-11004358Y71079938D02*
G75*
G02*
X-11504358Y71579938I0J500000D01*
G01*
X-11504358Y81979938D02*
X-11504358Y71579938D01*
X100595642Y-40520062D02*
G75*
G03*
X101095642Y-41020062I500000J0D01*
G01*
X101095642Y-41020062D02*
X111495642Y-41020062D01*
X100595642Y82479938D02*
G75*
G02*
X101095642Y82979938I500000J0D01*
G01*
X101095642Y82979938D02*
X111495642Y82979938D01*
X99595642Y-40520062D02*
G75*
G02*
X99095642Y-41020062I-500000J0D01*
G01*
X88195642Y-40520062D02*
G75*
G03*
X88695642Y-41020062I500000J0D01*
G01*
X88695642Y-41020062D02*
X99095642Y-41020062D01*
X99595642Y82479938D02*
G75*
G03*
X99095642Y82979938I-500000J0D01*
G01*
X88195642Y82479938D02*
G75*
G02*
X88695642Y82979938I500000J0D01*
G01*
X88695642Y82979938D02*
X99095642Y82979938D01*
X87195642Y-40520062D02*
G75*
G02*
X86695642Y-41020062I-500000J0D01*
G01*
X75795642Y-40520062D02*
G75*
G03*
X76295642Y-41020062I500000J0D01*
G01*
X76295642Y-41020062D02*
X86695642Y-41020062D01*
X87195642Y82479938D02*
G75*
G03*
X86695642Y82979938I-500000J0D01*
G01*
X75795642Y82479938D02*
G75*
G02*
X76295642Y82979938I500000J0D01*
G01*
X76295642Y82979938D02*
X86695642Y82979938D01*
X74795642Y-40520062D02*
G75*
G02*
X74295642Y-41020062I-500000J0D01*
G01*
X63395642Y-40520062D02*
G75*
G03*
X63895642Y-41020062I500000J0D01*
G01*
X63895642Y-41020062D02*
X74295642Y-41020062D01*
X74795642Y82479938D02*
G75*
G03*
X74295642Y82979938I-500000J0D01*
G01*
X63395642Y82479938D02*
G75*
G02*
X63895642Y82979938I500000J0D01*
G01*
X63895642Y82979938D02*
X74295642Y82979938D01*
X62395642Y-40520062D02*
G75*
G02*
X61895642Y-41020062I-500000J0D01*
G01*
X50995642Y-40520062D02*
G75*
G03*
X51495642Y-41020062I500000J0D01*
G01*
X51495642Y-41020062D02*
X61895642Y-41020062D01*
X62395642Y82479938D02*
G75*
G03*
X61895642Y82979938I-500000J0D01*
G01*
X50995642Y82479938D02*
G75*
G02*
X51495642Y82979938I500000J0D01*
G01*
X51495642Y82979938D02*
X61895642Y82979938D01*
X49995642Y-40520062D02*
G75*
G02*
X49495642Y-41020062I-500000J0D01*
G01*
X38595642Y-40520062D02*
G75*
G03*
X39095642Y-41020062I500000J0D01*
G01*
X39095642Y-41020062D02*
X49495642Y-41020062D01*
X49995642Y82479938D02*
G75*
G03*
X49495642Y82979938I-500000J0D01*
G01*
X38595642Y82479938D02*
G75*
G02*
X39095642Y82979938I500000J0D01*
G01*
X39095642Y82979938D02*
X49495642Y82979938D01*
X37595642Y-40520062D02*
G75*
G02*
X37095642Y-41020062I-500000J0D01*
G01*
X26195642Y-40520062D02*
G75*
G03*
X26695642Y-41020062I500000J0D01*
G01*
X26695642Y-41020062D02*
X37095642Y-41020062D01*
X37595642Y82479938D02*
G75*
G03*
X37095642Y82979938I-500000J0D01*
G01*
X26195642Y82479938D02*
G75*
G02*
X26695642Y82979938I500000J0D01*
G01*
X26695642Y82979938D02*
X37095642Y82979938D01*
X25195642Y-40520062D02*
G75*
G02*
X24695642Y-41020062I-500000J0D01*
G01*
X13795642Y-40520062D02*
G75*
G03*
X14295642Y-41020062I500000J0D01*
G01*
X14295642Y-41020062D02*
X24695642Y-41020062D01*
X25195642Y82479938D02*
G75*
G03*
X24695642Y82979938I-500000J0D01*
G01*
X13795642Y82479938D02*
G75*
G02*
X14295642Y82979938I500000J0D01*
G01*
X14295642Y82979938D02*
X24695642Y82979938D01*
X12795642Y-40520062D02*
G75*
G02*
X12295642Y-41020062I-500000J0D01*
G01*
X1395642Y-40520062D02*
G75*
G03*
X1895642Y-41020062I500000J0D01*
G01*
X1895642Y-41020062D02*
X12295642Y-41020062D01*
X12795642Y82479938D02*
G75*
G03*
X12295642Y82979938I-500000J0D01*
G01*
X1395642Y82479938D02*
G75*
G02*
X1895642Y82979938I500000J0D01*
G01*
X1895642Y82979938D02*
X12295642Y82979938D01*
X395642Y-40520062D02*
G75*
G02*
X-104358Y-41020062I-500000J0D01*
G01*
X-10504358Y-41020062D02*
X-104358Y-41020062D01*
X395642Y82479938D02*
G75*
G03*
X-104358Y82979938I-500000J0D01*
G01*
X-10504358Y82979938D02*
X-104358Y82979938D01*
X-10504358Y-41020062D02*
G75*
G02*
X-11504358Y-40020062I0J1000000D01*
G01*
X112495642Y-40020062D02*
G75*
G02*
X111495642Y-41020062I-1000000J0D01*
G01*
X111495642Y82979938D02*
G75*
G02*
X112495642Y81979938I0J-1000000D01*
G01*
X-11504358Y81979938D02*
G75*
G02*
X-10504358Y82979938I1000000J0D01*
G01*
G04 #@! TO.C,R13*
G36*
G01*
X69527999Y5880000D02*
X70428001Y5880000D01*
G75*
G02*
X70678000Y5630001I0J-249999D01*
G01*
X70678000Y4929999D01*
G75*
G02*
X70428001Y4680000I-249999J0D01*
G01*
X69527999Y4680000D01*
G75*
G02*
X69278000Y4929999I0J249999D01*
G01*
X69278000Y5630001D01*
G75*
G02*
X69527999Y5880000I249999J0D01*
G01*
G37*
G36*
G01*
X69527999Y7880000D02*
X70428001Y7880000D01*
G75*
G02*
X70678000Y7630001I0J-249999D01*
G01*
X70678000Y6929999D01*
G75*
G02*
X70428001Y6680000I-249999J0D01*
G01*
X69527999Y6680000D01*
G75*
G02*
X69278000Y6929999I0J249999D01*
G01*
X69278000Y7630001D01*
G75*
G02*
X69527999Y7880000I249999J0D01*
G01*
G37*
G04 #@! TD*
G04 #@! TO.C,D5*
G36*
G01*
X67127999Y5830000D02*
X68028001Y5830000D01*
G75*
G02*
X68278000Y5580001I0J-249999D01*
G01*
X68278000Y4929999D01*
G75*
G02*
X68028001Y4680000I-249999J0D01*
G01*
X67127999Y4680000D01*
G75*
G02*
X66878000Y4929999I0J249999D01*
G01*
X66878000Y5580001D01*
G75*
G02*
X67127999Y5830000I249999J0D01*
G01*
G37*
G36*
G01*
X67127999Y7880000D02*
X68028001Y7880000D01*
G75*
G02*
X68278000Y7630001I0J-249999D01*
G01*
X68278000Y6979999D01*
G75*
G02*
X68028001Y6730000I-249999J0D01*
G01*
X67127999Y6730000D01*
G75*
G02*
X66878000Y6979999I0J249999D01*
G01*
X66878000Y7630001D01*
G75*
G02*
X67127999Y7880000I249999J0D01*
G01*
G37*
G04 #@! TD*
G04 #@! TO.C,R12*
G36*
G01*
X64928001Y14780000D02*
X64027999Y14780000D01*
G75*
G02*
X63778000Y15029999I0J249999D01*
G01*
X63778000Y15730001D01*
G75*
G02*
X64027999Y15980000I249999J0D01*
G01*
X64928001Y15980000D01*
G75*
G02*
X65178000Y15730001I0J-249999D01*
G01*
X65178000Y15029999D01*
G75*
G02*
X64928001Y14780000I-249999J0D01*
G01*
G37*
G36*
G01*
X64928001Y12780000D02*
X64027999Y12780000D01*
G75*
G02*
X63778000Y13029999I0J249999D01*
G01*
X63778000Y13730001D01*
G75*
G02*
X64027999Y13980000I249999J0D01*
G01*
X64928001Y13980000D01*
G75*
G02*
X65178000Y13730001I0J-249999D01*
G01*
X65178000Y13029999D01*
G75*
G02*
X64928001Y12780000I-249999J0D01*
G01*
G37*
G04 #@! TD*
G04 #@! TO.C,D4*
G36*
G01*
X66527999Y13905000D02*
X67428001Y13905000D01*
G75*
G02*
X67678000Y13655001I0J-249999D01*
G01*
X67678000Y13004999D01*
G75*
G02*
X67428001Y12755000I-249999J0D01*
G01*
X66527999Y12755000D01*
G75*
G02*
X66278000Y13004999I0J249999D01*
G01*
X66278000Y13655001D01*
G75*
G02*
X66527999Y13905000I249999J0D01*
G01*
G37*
G36*
G01*
X66527999Y15955000D02*
X67428001Y15955000D01*
G75*
G02*
X67678000Y15705001I0J-249999D01*
G01*
X67678000Y15054999D01*
G75*
G02*
X67428001Y14805000I-249999J0D01*
G01*
X66527999Y14805000D01*
G75*
G02*
X66278000Y15054999I0J249999D01*
G01*
X66278000Y15705001D01*
G75*
G02*
X66527999Y15955000I249999J0D01*
G01*
G37*
G04 #@! TD*
D13*
G04 #@! TO.C,U5*
X60018000Y-3620000D03*
X60018000Y-2520000D03*
X60018000Y-1420000D03*
X58968000Y-1420000D03*
X57818000Y-1420000D03*
X57818000Y-2520000D03*
X57818000Y-3620000D03*
X58968000Y-3620000D03*
X58968000Y-2520000D03*
D14*
X51128000Y-8720000D03*
X51128000Y-7220000D03*
X51128000Y-5720000D03*
X51128000Y-4220000D03*
X51128000Y-2720000D03*
X51128000Y-1220000D03*
X51128000Y280000D03*
X51128000Y1780000D03*
X51128000Y3280000D03*
X68628000Y-8720000D03*
X68628000Y-7220000D03*
X68628000Y-5720000D03*
X68628000Y-4220000D03*
X68628000Y-2720000D03*
X68628000Y-1220000D03*
X68628000Y280000D03*
X68628000Y1780000D03*
X68628000Y3280000D03*
G04 #@! TD*
D15*
G04 #@! TO.C,U4*
X54378000Y14880000D03*
X55328000Y12880000D03*
X53428000Y12880000D03*
G04 #@! TD*
D16*
G04 #@! TO.C,S1*
X48972000Y6675000D03*
X43384000Y6675000D03*
X48972000Y10485000D03*
X43384000Y10485000D03*
G04 #@! TD*
G04 #@! TO.C,R11*
G36*
G01*
X50378000Y12429999D02*
X50378000Y13330001D01*
G75*
G02*
X50627999Y13580000I249999J0D01*
G01*
X51328001Y13580000D01*
G75*
G02*
X51578000Y13330001I0J-249999D01*
G01*
X51578000Y12429999D01*
G75*
G02*
X51328001Y12180000I-249999J0D01*
G01*
X50627999Y12180000D01*
G75*
G02*
X50378000Y12429999I0J249999D01*
G01*
G37*
G36*
G01*
X48378000Y12429999D02*
X48378000Y13330001D01*
G75*
G02*
X48627999Y13580000I249999J0D01*
G01*
X49328001Y13580000D01*
G75*
G02*
X49578000Y13330001I0J-249999D01*
G01*
X49578000Y12429999D01*
G75*
G02*
X49328001Y12180000I-249999J0D01*
G01*
X48627999Y12180000D01*
G75*
G02*
X48378000Y12429999I0J249999D01*
G01*
G37*
G04 #@! TD*
G04 #@! TO.C,C7*
G36*
G01*
X73165500Y1005000D02*
X73165500Y1955000D01*
G75*
G02*
X73415500Y2205000I250000J0D01*
G01*
X74090500Y2205000D01*
G75*
G02*
X74340500Y1955000I0J-250000D01*
G01*
X74340500Y1005000D01*
G75*
G02*
X74090500Y755000I-250000J0D01*
G01*
X73415500Y755000D01*
G75*
G02*
X73165500Y1005000I0J250000D01*
G01*
G37*
G36*
G01*
X71090500Y1005000D02*
X71090500Y1955000D01*
G75*
G02*
X71340500Y2205000I250000J0D01*
G01*
X72015500Y2205000D01*
G75*
G02*
X72265500Y1955000I0J-250000D01*
G01*
X72265500Y1005000D01*
G75*
G02*
X72015500Y755000I-250000J0D01*
G01*
X71340500Y755000D01*
G75*
G02*
X71090500Y1005000I0J250000D01*
G01*
G37*
G04 #@! TD*
G04 #@! TO.C,C6*
G36*
G01*
X71090500Y-995000D02*
X71090500Y-45000D01*
G75*
G02*
X71340500Y205000I250000J0D01*
G01*
X72015500Y205000D01*
G75*
G02*
X72265500Y-45000I0J-250000D01*
G01*
X72265500Y-995000D01*
G75*
G02*
X72015500Y-1245000I-250000J0D01*
G01*
X71340500Y-1245000D01*
G75*
G02*
X71090500Y-995000I0J250000D01*
G01*
G37*
G36*
G01*
X73165500Y-995000D02*
X73165500Y-45000D01*
G75*
G02*
X73415500Y205000I250000J0D01*
G01*
X74090500Y205000D01*
G75*
G02*
X74340500Y-45000I0J-250000D01*
G01*
X74340500Y-995000D01*
G75*
G02*
X74090500Y-1245000I-250000J0D01*
G01*
X73415500Y-1245000D01*
G75*
G02*
X73165500Y-995000I0J250000D01*
G01*
G37*
G04 #@! TD*
G04 #@! TO.C,C4*
G36*
G01*
X56715500Y15305000D02*
X56715500Y16255000D01*
G75*
G02*
X56965500Y16505000I250000J0D01*
G01*
X57640500Y16505000D01*
G75*
G02*
X57890500Y16255000I0J-250000D01*
G01*
X57890500Y15305000D01*
G75*
G02*
X57640500Y15055000I-250000J0D01*
G01*
X56965500Y15055000D01*
G75*
G02*
X56715500Y15305000I0J250000D01*
G01*
G37*
G36*
G01*
X58790500Y15305000D02*
X58790500Y16255000D01*
G75*
G02*
X59040500Y16505000I250000J0D01*
G01*
X59715500Y16505000D01*
G75*
G02*
X59965500Y16255000I0J-250000D01*
G01*
X59965500Y15305000D01*
G75*
G02*
X59715500Y15055000I-250000J0D01*
G01*
X59040500Y15055000D01*
G75*
G02*
X58790500Y15305000I0J250000D01*
G01*
G37*
G04 #@! TD*
G04 #@! TO.C,R10*
G36*
G01*
X86327999Y39780000D02*
X87228001Y39780000D01*
G75*
G02*
X87478000Y39530001I0J-249999D01*
G01*
X87478000Y38829999D01*
G75*
G02*
X87228001Y38580000I-249999J0D01*
G01*
X86327999Y38580000D01*
G75*
G02*
X86078000Y38829999I0J249999D01*
G01*
X86078000Y39530001D01*
G75*
G02*
X86327999Y39780000I249999J0D01*
G01*
G37*
G36*
G01*
X86327999Y41780000D02*
X87228001Y41780000D01*
G75*
G02*
X87478000Y41530001I0J-249999D01*
G01*
X87478000Y40829999D01*
G75*
G02*
X87228001Y40580000I-249999J0D01*
G01*
X86327999Y40580000D01*
G75*
G02*
X86078000Y40829999I0J249999D01*
G01*
X86078000Y41530001D01*
G75*
G02*
X86327999Y41780000I249999J0D01*
G01*
G37*
G04 #@! TD*
G04 #@! TO.C,D2*
G36*
G01*
X83627999Y39755000D02*
X84528001Y39755000D01*
G75*
G02*
X84778000Y39505001I0J-249999D01*
G01*
X84778000Y38854999D01*
G75*
G02*
X84528001Y38605000I-249999J0D01*
G01*
X83627999Y38605000D01*
G75*
G02*
X83378000Y38854999I0J249999D01*
G01*
X83378000Y39505001D01*
G75*
G02*
X83627999Y39755000I249999J0D01*
G01*
G37*
G36*
G01*
X83627999Y41805000D02*
X84528001Y41805000D01*
G75*
G02*
X84778000Y41555001I0J-249999D01*
G01*
X84778000Y40904999D01*
G75*
G02*
X84528001Y40655000I-249999J0D01*
G01*
X83627999Y40655000D01*
G75*
G02*
X83378000Y40904999I0J249999D01*
G01*
X83378000Y41555001D01*
G75*
G02*
X83627999Y41805000I249999J0D01*
G01*
G37*
G04 #@! TD*
G04 #@! TO.C,R8*
G36*
G01*
X62327999Y43380000D02*
X63228001Y43380000D01*
G75*
G02*
X63478000Y43130001I0J-249999D01*
G01*
X63478000Y42429999D01*
G75*
G02*
X63228001Y42180000I-249999J0D01*
G01*
X62327999Y42180000D01*
G75*
G02*
X62078000Y42429999I0J249999D01*
G01*
X62078000Y43130001D01*
G75*
G02*
X62327999Y43380000I249999J0D01*
G01*
G37*
G36*
G01*
X62327999Y41380000D02*
X63228001Y41380000D01*
G75*
G02*
X63478000Y41130001I0J-249999D01*
G01*
X63478000Y40429999D01*
G75*
G02*
X63228001Y40180000I-249999J0D01*
G01*
X62327999Y40180000D01*
G75*
G02*
X62078000Y40429999I0J249999D01*
G01*
X62078000Y41130001D01*
G75*
G02*
X62327999Y41380000I249999J0D01*
G01*
G37*
G04 #@! TD*
G04 #@! TO.C,R7*
G36*
G01*
X42927999Y43080000D02*
X43828001Y43080000D01*
G75*
G02*
X44078000Y42830001I0J-249999D01*
G01*
X44078000Y42129999D01*
G75*
G02*
X43828001Y41880000I-249999J0D01*
G01*
X42927999Y41880000D01*
G75*
G02*
X42678000Y42129999I0J249999D01*
G01*
X42678000Y42830001D01*
G75*
G02*
X42927999Y43080000I249999J0D01*
G01*
G37*
G36*
G01*
X42927999Y45080000D02*
X43828001Y45080000D01*
G75*
G02*
X44078000Y44830001I0J-249999D01*
G01*
X44078000Y44129999D01*
G75*
G02*
X43828001Y43880000I-249999J0D01*
G01*
X42927999Y43880000D01*
G75*
G02*
X42678000Y44129999I0J249999D01*
G01*
X42678000Y44830001D01*
G75*
G02*
X42927999Y45080000I249999J0D01*
G01*
G37*
G04 #@! TD*
G04 #@! TO.C,R4*
G36*
G01*
X78327999Y42180000D02*
X79228001Y42180000D01*
G75*
G02*
X79478000Y41930001I0J-249999D01*
G01*
X79478000Y41229999D01*
G75*
G02*
X79228001Y40980000I-249999J0D01*
G01*
X78327999Y40980000D01*
G75*
G02*
X78078000Y41229999I0J249999D01*
G01*
X78078000Y41930001D01*
G75*
G02*
X78327999Y42180000I249999J0D01*
G01*
G37*
G36*
G01*
X78327999Y44180000D02*
X79228001Y44180000D01*
G75*
G02*
X79478000Y43930001I0J-249999D01*
G01*
X79478000Y43229999D01*
G75*
G02*
X79228001Y42980000I-249999J0D01*
G01*
X78327999Y42980000D01*
G75*
G02*
X78078000Y43229999I0J249999D01*
G01*
X78078000Y43930001D01*
G75*
G02*
X78327999Y44180000I249999J0D01*
G01*
G37*
G04 #@! TD*
G04 #@! TO.C,R3*
G36*
G01*
X75827999Y42180000D02*
X76728001Y42180000D01*
G75*
G02*
X76978000Y41930001I0J-249999D01*
G01*
X76978000Y41229999D01*
G75*
G02*
X76728001Y40980000I-249999J0D01*
G01*
X75827999Y40980000D01*
G75*
G02*
X75578000Y41229999I0J249999D01*
G01*
X75578000Y41930001D01*
G75*
G02*
X75827999Y42180000I249999J0D01*
G01*
G37*
G36*
G01*
X75827999Y44180000D02*
X76728001Y44180000D01*
G75*
G02*
X76978000Y43930001I0J-249999D01*
G01*
X76978000Y43229999D01*
G75*
G02*
X76728001Y42980000I-249999J0D01*
G01*
X75827999Y42980000D01*
G75*
G02*
X75578000Y43229999I0J249999D01*
G01*
X75578000Y43930001D01*
G75*
G02*
X75827999Y44180000I249999J0D01*
G01*
G37*
G04 #@! TD*
G04 #@! TO.C,R2*
G36*
G01*
X73227999Y44180000D02*
X74128001Y44180000D01*
G75*
G02*
X74378000Y43930001I0J-249999D01*
G01*
X74378000Y43229999D01*
G75*
G02*
X74128001Y42980000I-249999J0D01*
G01*
X73227999Y42980000D01*
G75*
G02*
X72978000Y43229999I0J249999D01*
G01*
X72978000Y43930001D01*
G75*
G02*
X73227999Y44180000I249999J0D01*
G01*
G37*
G36*
G01*
X73227999Y42180000D02*
X74128001Y42180000D01*
G75*
G02*
X74378000Y41930001I0J-249999D01*
G01*
X74378000Y41229999D01*
G75*
G02*
X74128001Y40980000I-249999J0D01*
G01*
X73227999Y40980000D01*
G75*
G02*
X72978000Y41229999I0J249999D01*
G01*
X72978000Y41930001D01*
G75*
G02*
X73227999Y42180000I249999J0D01*
G01*
G37*
G04 #@! TD*
G04 #@! TO.C,C2*
G36*
G01*
X60953000Y40155000D02*
X60003000Y40155000D01*
G75*
G02*
X59753000Y40405000I0J250000D01*
G01*
X59753000Y41080000D01*
G75*
G02*
X60003000Y41330000I250000J0D01*
G01*
X60953000Y41330000D01*
G75*
G02*
X61203000Y41080000I0J-250000D01*
G01*
X61203000Y40405000D01*
G75*
G02*
X60953000Y40155000I-250000J0D01*
G01*
G37*
G36*
G01*
X60953000Y42230000D02*
X60003000Y42230000D01*
G75*
G02*
X59753000Y42480000I0J250000D01*
G01*
X59753000Y43155000D01*
G75*
G02*
X60003000Y43405000I250000J0D01*
G01*
X60953000Y43405000D01*
G75*
G02*
X61203000Y43155000I0J-250000D01*
G01*
X61203000Y42480000D01*
G75*
G02*
X60953000Y42230000I-250000J0D01*
G01*
G37*
G04 #@! TD*
G04 #@! TO.C,C1*
G36*
G01*
X80928000Y28705000D02*
X80928000Y29655000D01*
G75*
G02*
X81178000Y29905000I250000J0D01*
G01*
X81853000Y29905000D01*
G75*
G02*
X82103000Y29655000I0J-250000D01*
G01*
X82103000Y28705000D01*
G75*
G02*
X81853000Y28455000I-250000J0D01*
G01*
X81178000Y28455000D01*
G75*
G02*
X80928000Y28705000I0J250000D01*
G01*
G37*
G36*
G01*
X78853000Y28705000D02*
X78853000Y29655000D01*
G75*
G02*
X79103000Y29905000I250000J0D01*
G01*
X79778000Y29905000D01*
G75*
G02*
X80028000Y29655000I0J-250000D01*
G01*
X80028000Y28705000D01*
G75*
G02*
X79778000Y28455000I-250000J0D01*
G01*
X79103000Y28455000D01*
G75*
G02*
X78853000Y28705000I0J250000D01*
G01*
G37*
G04 #@! TD*
G04 #@! TO.C,C3*
G36*
G01*
X52490500Y9605000D02*
X52490500Y10555000D01*
G75*
G02*
X52740500Y10805000I250000J0D01*
G01*
X53415500Y10805000D01*
G75*
G02*
X53665500Y10555000I0J-250000D01*
G01*
X53665500Y9605000D01*
G75*
G02*
X53415500Y9355000I-250000J0D01*
G01*
X52740500Y9355000D01*
G75*
G02*
X52490500Y9605000I0J250000D01*
G01*
G37*
G36*
G01*
X50415500Y9605000D02*
X50415500Y10555000D01*
G75*
G02*
X50665500Y10805000I250000J0D01*
G01*
X51340500Y10805000D01*
G75*
G02*
X51590500Y10555000I0J-250000D01*
G01*
X51590500Y9605000D01*
G75*
G02*
X51340500Y9355000I-250000J0D01*
G01*
X50665500Y9355000D01*
G75*
G02*
X50415500Y9605000I0J250000D01*
G01*
G37*
G04 #@! TD*
G04 #@! TO.C,C5*
G36*
G01*
X58665500Y12005000D02*
X58665500Y12955000D01*
G75*
G02*
X58915500Y13205000I250000J0D01*
G01*
X59590500Y13205000D01*
G75*
G02*
X59840500Y12955000I0J-250000D01*
G01*
X59840500Y12005000D01*
G75*
G02*
X59590500Y11755000I-250000J0D01*
G01*
X58915500Y11755000D01*
G75*
G02*
X58665500Y12005000I0J250000D01*
G01*
G37*
G36*
G01*
X56590500Y12005000D02*
X56590500Y12955000D01*
G75*
G02*
X56840500Y13205000I250000J0D01*
G01*
X57515500Y13205000D01*
G75*
G02*
X57765500Y12955000I0J-250000D01*
G01*
X57765500Y12005000D01*
G75*
G02*
X57515500Y11755000I-250000J0D01*
G01*
X56840500Y11755000D01*
G75*
G02*
X56590500Y12005000I0J250000D01*
G01*
G37*
G04 #@! TD*
M02*
