%TF.GenerationSoftware,KiCad,Pcbnew,(6.0.2)*%
%TF.CreationDate,2022-02-23T01:13:46-05:00*%
%TF.ProjectId,top,746f702e-6b69-4636-9164-5f7063625858,rev?*%
%TF.SameCoordinates,Original*%
%TF.FileFunction,Legend,Top*%
%TF.FilePolarity,Positive*%
%FSLAX46Y46*%
G04 Gerber Fmt 4.6, Leading zero omitted, Abs format (unit mm)*
G04 Created by KiCad (PCBNEW (6.0.2)) date 2022-02-23 01:13:46*
%MOMM*%
%LPD*%
G01*
G04 APERTURE LIST*
%ADD10C,0.200000*%
%ADD11C,0.150000*%
%ADD12C,0.010000*%
%ADD13C,0.120000*%
G04 APERTURE END LIST*
D10*
X126063114Y-73939285D02*
X126063114Y-75289285D01*
X125548828Y-75289285D01*
X125420257Y-75225000D01*
X125355971Y-75160714D01*
X125291685Y-75032142D01*
X125291685Y-74839285D01*
X125355971Y-74710714D01*
X125420257Y-74646428D01*
X125548828Y-74582142D01*
X126063114Y-74582142D01*
X124455971Y-75289285D02*
X124198828Y-75289285D01*
X124070257Y-75225000D01*
X123941685Y-75096428D01*
X123877400Y-74839285D01*
X123877400Y-74389285D01*
X123941685Y-74132142D01*
X124070257Y-74003571D01*
X124198828Y-73939285D01*
X124455971Y-73939285D01*
X124584542Y-74003571D01*
X124713114Y-74132142D01*
X124777400Y-74389285D01*
X124777400Y-74839285D01*
X124713114Y-75096428D01*
X124584542Y-75225000D01*
X124455971Y-75289285D01*
X123298828Y-73939285D02*
X123298828Y-75289285D01*
X122848828Y-74325000D01*
X122398828Y-75289285D01*
X122398828Y-73939285D01*
X121820257Y-74325000D02*
X121177400Y-74325000D01*
X121948828Y-73939285D02*
X121498828Y-75289285D01*
X121048828Y-73939285D01*
D11*
X125076209Y-73302619D02*
X124742876Y-72302619D01*
X124409542Y-73302619D01*
X124171447Y-73302619D02*
X123552400Y-73302619D01*
X123885733Y-72921666D01*
X123742876Y-72921666D01*
X123647638Y-72874047D01*
X123600019Y-72826428D01*
X123552400Y-72731190D01*
X123552400Y-72493095D01*
X123600019Y-72397857D01*
X123647638Y-72350238D01*
X123742876Y-72302619D01*
X124028590Y-72302619D01*
X124123828Y-72350238D01*
X124171447Y-72397857D01*
X123123828Y-72397857D02*
X123076209Y-72350238D01*
X123123828Y-72302619D01*
X123171447Y-72350238D01*
X123123828Y-72397857D01*
X123123828Y-72302619D01*
X122695257Y-73207380D02*
X122647638Y-73255000D01*
X122552400Y-73302619D01*
X122314304Y-73302619D01*
X122219066Y-73255000D01*
X122171447Y-73207380D01*
X122123828Y-73112142D01*
X122123828Y-73016904D01*
X122171447Y-72874047D01*
X122742876Y-72302619D01*
X122123828Y-72302619D01*
D10*
X131027400Y-81139285D02*
X131027400Y-82489285D01*
X131027400Y-81846428D02*
X130255971Y-81846428D01*
X130255971Y-81139285D02*
X130255971Y-82489285D01*
X129034542Y-81139285D02*
X129034542Y-81846428D01*
X129098828Y-81975000D01*
X129227400Y-82039285D01*
X129484542Y-82039285D01*
X129613114Y-81975000D01*
X129034542Y-81203571D02*
X129163114Y-81139285D01*
X129484542Y-81139285D01*
X129613114Y-81203571D01*
X129677400Y-81332142D01*
X129677400Y-81460714D01*
X129613114Y-81589285D01*
X129484542Y-81653571D01*
X129163114Y-81653571D01*
X129034542Y-81717857D01*
X128391685Y-82039285D02*
X128391685Y-81139285D01*
X128391685Y-81910714D02*
X128327400Y-81975000D01*
X128198828Y-82039285D01*
X128005971Y-82039285D01*
X127877400Y-81975000D01*
X127813114Y-81846428D01*
X127813114Y-81139285D01*
X127298828Y-82039285D02*
X126591685Y-82039285D01*
X127298828Y-81139285D01*
X126591685Y-81139285D01*
X125241685Y-82489285D02*
X124470257Y-82489285D01*
X124855971Y-81139285D02*
X124855971Y-82489285D01*
X123505971Y-81203571D02*
X123634542Y-81139285D01*
X123891685Y-81139285D01*
X124020257Y-81203571D01*
X124084542Y-81332142D01*
X124084542Y-81846428D01*
X124020257Y-81975000D01*
X123891685Y-82039285D01*
X123634542Y-82039285D01*
X123505971Y-81975000D01*
X123441685Y-81846428D01*
X123441685Y-81717857D01*
X124084542Y-81589285D01*
X122284542Y-81203571D02*
X122413114Y-81139285D01*
X122670257Y-81139285D01*
X122798828Y-81203571D01*
X122863114Y-81267857D01*
X122927400Y-81396428D01*
X122927400Y-81782142D01*
X122863114Y-81910714D01*
X122798828Y-81975000D01*
X122670257Y-82039285D01*
X122413114Y-82039285D01*
X122284542Y-81975000D01*
X121705971Y-81139285D02*
X121705971Y-82489285D01*
X121127400Y-81139285D02*
X121127400Y-81846428D01*
X121191685Y-81975000D01*
X121320257Y-82039285D01*
X121513114Y-82039285D01*
X121641685Y-81975000D01*
X121705971Y-81910714D01*
X119455971Y-81139285D02*
X119455971Y-82489285D01*
X118813114Y-82039285D02*
X118813114Y-81139285D01*
X118813114Y-81910714D02*
X118748828Y-81975000D01*
X118620257Y-82039285D01*
X118427400Y-82039285D01*
X118298828Y-81975000D01*
X118234542Y-81846428D01*
X118234542Y-81139285D01*
X117013114Y-81203571D02*
X117141685Y-81139285D01*
X117398828Y-81139285D01*
X117527400Y-81203571D01*
X117591685Y-81267857D01*
X117655971Y-81396428D01*
X117655971Y-81782142D01*
X117591685Y-81910714D01*
X117527400Y-81975000D01*
X117398828Y-82039285D01*
X117141685Y-82039285D01*
X117013114Y-81975000D01*
D12*
%TO.C,G\u002A\u002A\u002A*%
X124676405Y-76006834D02*
X124641733Y-75953917D01*
X124641733Y-75953917D02*
X123905926Y-75953917D01*
X123905926Y-75953917D02*
X123707422Y-75953729D01*
X123707422Y-75953729D02*
X123547064Y-75953041D01*
X123547064Y-75953041D02*
X123420667Y-75951671D01*
X123420667Y-75951671D02*
X123324045Y-75949433D01*
X123324045Y-75949433D02*
X123253013Y-75946145D01*
X123253013Y-75946145D02*
X123203385Y-75941623D01*
X123203385Y-75941623D02*
X123170975Y-75935683D01*
X123170975Y-75935683D02*
X123151597Y-75928141D01*
X123151597Y-75928141D02*
X123142296Y-75920393D01*
X123142296Y-75920393D02*
X123125908Y-75879694D01*
X123125908Y-75879694D02*
X123136712Y-75851601D01*
X123136712Y-75851601D02*
X123146087Y-75842145D01*
X123146087Y-75842145D02*
X123163871Y-75834445D01*
X123163871Y-75834445D02*
X123194241Y-75828279D01*
X123194241Y-75828279D02*
X123241377Y-75823422D01*
X123241377Y-75823422D02*
X123309457Y-75819652D01*
X123309457Y-75819652D02*
X123402660Y-75816745D01*
X123402660Y-75816745D02*
X123525163Y-75814478D01*
X123525163Y-75814478D02*
X123681146Y-75812627D01*
X123681146Y-75812627D02*
X123874787Y-75810969D01*
X123874787Y-75810969D02*
X123900518Y-75810774D01*
X123900518Y-75810774D02*
X124642085Y-75805214D01*
X124642085Y-75805214D02*
X124676581Y-75752566D01*
X124676581Y-75752566D02*
X124711078Y-75699917D01*
X124711078Y-75699917D02*
X126084959Y-75699917D01*
X126084959Y-75699917D02*
X126119632Y-75752834D01*
X126119632Y-75752834D02*
X126154304Y-75805750D01*
X126154304Y-75805750D02*
X126891191Y-75805750D01*
X126891191Y-75805750D02*
X127090351Y-75805949D01*
X127090351Y-75805949D02*
X127251377Y-75806666D01*
X127251377Y-75806666D02*
X127378469Y-75808082D01*
X127378469Y-75808082D02*
X127475825Y-75810379D01*
X127475825Y-75810379D02*
X127547644Y-75813737D01*
X127547644Y-75813737D02*
X127598126Y-75818337D01*
X127598126Y-75818337D02*
X127631467Y-75824362D01*
X127631467Y-75824362D02*
X127651868Y-75831991D01*
X127651868Y-75831991D02*
X127661298Y-75838970D01*
X127661298Y-75838970D02*
X127682941Y-75877318D01*
X127682941Y-75877318D02*
X127672648Y-75913054D01*
X127672648Y-75913054D02*
X127665208Y-75923895D01*
X127665208Y-75923895D02*
X127652870Y-75932630D01*
X127652870Y-75932630D02*
X127631389Y-75939486D01*
X127631389Y-75939486D02*
X127596522Y-75944689D01*
X127596522Y-75944689D02*
X127544023Y-75948467D01*
X127544023Y-75948467D02*
X127469647Y-75951046D01*
X127469647Y-75951046D02*
X127369150Y-75952653D01*
X127369150Y-75952653D02*
X127238288Y-75953516D01*
X127238288Y-75953516D02*
X127072815Y-75953861D01*
X127072815Y-75953861D02*
X126908445Y-75953917D01*
X126908445Y-75953917D02*
X126166111Y-75953917D01*
X126166111Y-75953917D02*
X126124487Y-76006834D01*
X126124487Y-76006834D02*
X126082863Y-76059750D01*
X126082863Y-76059750D02*
X124711078Y-76059750D01*
X124711078Y-76059750D02*
X124676405Y-76006834D01*
X124676405Y-76006834D02*
X124676405Y-76006834D01*
G36*
X126119632Y-75752834D02*
G01*
X126154304Y-75805750D01*
X126891191Y-75805750D01*
X127090351Y-75805949D01*
X127251377Y-75806666D01*
X127378469Y-75808082D01*
X127475825Y-75810379D01*
X127547644Y-75813737D01*
X127598126Y-75818337D01*
X127631467Y-75824362D01*
X127651868Y-75831991D01*
X127661298Y-75838970D01*
X127682941Y-75877318D01*
X127672648Y-75913054D01*
X127665208Y-75923895D01*
X127652870Y-75932630D01*
X127631389Y-75939486D01*
X127596522Y-75944689D01*
X127544023Y-75948467D01*
X127469647Y-75951046D01*
X127369150Y-75952653D01*
X127238288Y-75953516D01*
X127072815Y-75953861D01*
X126908445Y-75953917D01*
X126166111Y-75953917D01*
X126124487Y-76006834D01*
X126082863Y-76059750D01*
X124711078Y-76059750D01*
X124676405Y-76006834D01*
X124641733Y-75953917D01*
X123905926Y-75953917D01*
X123707422Y-75953729D01*
X123547064Y-75953041D01*
X123420667Y-75951671D01*
X123324045Y-75949433D01*
X123253013Y-75946145D01*
X123203385Y-75941623D01*
X123170975Y-75935683D01*
X123151597Y-75928141D01*
X123142296Y-75920393D01*
X123125908Y-75879694D01*
X123136712Y-75851601D01*
X123146087Y-75842145D01*
X123163871Y-75834445D01*
X123194241Y-75828279D01*
X123241377Y-75823422D01*
X123309457Y-75819652D01*
X123402660Y-75816745D01*
X123525163Y-75814478D01*
X123681146Y-75812627D01*
X123874787Y-75810969D01*
X123900518Y-75810774D01*
X124642085Y-75805214D01*
X124676581Y-75752566D01*
X124711078Y-75699917D01*
X126084959Y-75699917D01*
X126119632Y-75752834D01*
G37*
X126119632Y-75752834D02*
X126154304Y-75805750D01*
X126891191Y-75805750D01*
X127090351Y-75805949D01*
X127251377Y-75806666D01*
X127378469Y-75808082D01*
X127475825Y-75810379D01*
X127547644Y-75813737D01*
X127598126Y-75818337D01*
X127631467Y-75824362D01*
X127651868Y-75831991D01*
X127661298Y-75838970D01*
X127682941Y-75877318D01*
X127672648Y-75913054D01*
X127665208Y-75923895D01*
X127652870Y-75932630D01*
X127631389Y-75939486D01*
X127596522Y-75944689D01*
X127544023Y-75948467D01*
X127469647Y-75951046D01*
X127369150Y-75952653D01*
X127238288Y-75953516D01*
X127072815Y-75953861D01*
X126908445Y-75953917D01*
X126166111Y-75953917D01*
X126124487Y-76006834D01*
X126082863Y-76059750D01*
X124711078Y-76059750D01*
X124676405Y-76006834D01*
X124641733Y-75953917D01*
X123905926Y-75953917D01*
X123707422Y-75953729D01*
X123547064Y-75953041D01*
X123420667Y-75951671D01*
X123324045Y-75949433D01*
X123253013Y-75946145D01*
X123203385Y-75941623D01*
X123170975Y-75935683D01*
X123151597Y-75928141D01*
X123142296Y-75920393D01*
X123125908Y-75879694D01*
X123136712Y-75851601D01*
X123146087Y-75842145D01*
X123163871Y-75834445D01*
X123194241Y-75828279D01*
X123241377Y-75823422D01*
X123309457Y-75819652D01*
X123402660Y-75816745D01*
X123525163Y-75814478D01*
X123681146Y-75812627D01*
X123874787Y-75810969D01*
X123900518Y-75810774D01*
X124642085Y-75805214D01*
X124676581Y-75752566D01*
X124711078Y-75699917D01*
X126084959Y-75699917D01*
X126119632Y-75752834D01*
X120287841Y-76008508D02*
X120246672Y-75937815D01*
X120246672Y-75937815D02*
X120239111Y-75858595D01*
X120239111Y-75858595D02*
X120264733Y-75784556D01*
X120264733Y-75784556D02*
X120295915Y-75748270D01*
X120295915Y-75748270D02*
X120312425Y-75734781D01*
X120312425Y-75734781D02*
X120330281Y-75724068D01*
X120330281Y-75724068D02*
X120354227Y-75715810D01*
X120354227Y-75715810D02*
X120389011Y-75709688D01*
X120389011Y-75709688D02*
X120439377Y-75705383D01*
X120439377Y-75705383D02*
X120510073Y-75702575D01*
X120510073Y-75702575D02*
X120605843Y-75700944D01*
X120605843Y-75700944D02*
X120731434Y-75700170D01*
X120731434Y-75700170D02*
X120891592Y-75699934D01*
X120891592Y-75699934D02*
X121013708Y-75699917D01*
X121013708Y-75699917D02*
X121198769Y-75700024D01*
X121198769Y-75700024D02*
X121346182Y-75700533D01*
X121346182Y-75700533D02*
X121460630Y-75701730D01*
X121460630Y-75701730D02*
X121546800Y-75703897D01*
X121546800Y-75703897D02*
X121609374Y-75707320D01*
X121609374Y-75707320D02*
X121653038Y-75712282D01*
X121653038Y-75712282D02*
X121682477Y-75719068D01*
X121682477Y-75719068D02*
X121702374Y-75727961D01*
X121702374Y-75727961D02*
X121717414Y-75739245D01*
X121717414Y-75739245D02*
X121721354Y-75742836D01*
X121721354Y-75742836D02*
X121760484Y-75793099D01*
X121760484Y-75793099D02*
X121780660Y-75838497D01*
X121780660Y-75838497D02*
X121781037Y-75903562D01*
X121781037Y-75903562D02*
X121758627Y-75972553D01*
X121758627Y-75972553D02*
X121720830Y-76026343D01*
X121720830Y-76026343D02*
X121702924Y-76039393D01*
X121702924Y-76039393D02*
X121671905Y-76044803D01*
X121671905Y-76044803D02*
X121603135Y-76049580D01*
X121603135Y-76049580D02*
X121501191Y-76053593D01*
X121501191Y-76053593D02*
X121370652Y-76056709D01*
X121370652Y-76056709D02*
X121216095Y-76058794D01*
X121216095Y-76058794D02*
X121042100Y-76059717D01*
X121042100Y-76059717D02*
X121000433Y-76059750D01*
X121000433Y-76059750D02*
X120335981Y-76059750D01*
X120335981Y-76059750D02*
X120287841Y-76008508D01*
X120287841Y-76008508D02*
X120287841Y-76008508D01*
G36*
X121198769Y-75700024D02*
G01*
X121346182Y-75700533D01*
X121460630Y-75701730D01*
X121546800Y-75703897D01*
X121609374Y-75707320D01*
X121653038Y-75712282D01*
X121682477Y-75719068D01*
X121702374Y-75727961D01*
X121717414Y-75739245D01*
X121721354Y-75742836D01*
X121760484Y-75793099D01*
X121780660Y-75838497D01*
X121781037Y-75903562D01*
X121758627Y-75972553D01*
X121720830Y-76026343D01*
X121702924Y-76039393D01*
X121671905Y-76044803D01*
X121603135Y-76049580D01*
X121501191Y-76053593D01*
X121370652Y-76056709D01*
X121216095Y-76058794D01*
X121042100Y-76059717D01*
X121000433Y-76059750D01*
X120335981Y-76059750D01*
X120287841Y-76008508D01*
X120246672Y-75937815D01*
X120239111Y-75858595D01*
X120264733Y-75784556D01*
X120295915Y-75748270D01*
X120312425Y-75734781D01*
X120330281Y-75724068D01*
X120354227Y-75715810D01*
X120389011Y-75709688D01*
X120439377Y-75705383D01*
X120510073Y-75702575D01*
X120605843Y-75700944D01*
X120731434Y-75700170D01*
X120891592Y-75699934D01*
X121013708Y-75699917D01*
X121198769Y-75700024D01*
G37*
X121198769Y-75700024D02*
X121346182Y-75700533D01*
X121460630Y-75701730D01*
X121546800Y-75703897D01*
X121609374Y-75707320D01*
X121653038Y-75712282D01*
X121682477Y-75719068D01*
X121702374Y-75727961D01*
X121717414Y-75739245D01*
X121721354Y-75742836D01*
X121760484Y-75793099D01*
X121780660Y-75838497D01*
X121781037Y-75903562D01*
X121758627Y-75972553D01*
X121720830Y-76026343D01*
X121702924Y-76039393D01*
X121671905Y-76044803D01*
X121603135Y-76049580D01*
X121501191Y-76053593D01*
X121370652Y-76056709D01*
X121216095Y-76058794D01*
X121042100Y-76059717D01*
X121000433Y-76059750D01*
X120335981Y-76059750D01*
X120287841Y-76008508D01*
X120246672Y-75937815D01*
X120239111Y-75858595D01*
X120264733Y-75784556D01*
X120295915Y-75748270D01*
X120312425Y-75734781D01*
X120330281Y-75724068D01*
X120354227Y-75715810D01*
X120389011Y-75709688D01*
X120439377Y-75705383D01*
X120510073Y-75702575D01*
X120605843Y-75700944D01*
X120731434Y-75700170D01*
X120891592Y-75699934D01*
X121013708Y-75699917D01*
X121198769Y-75700024D01*
X125246713Y-76503827D02*
X125095782Y-76502629D01*
X125095782Y-76502629D02*
X124963009Y-76500763D01*
X124963009Y-76500763D02*
X124853860Y-76498335D01*
X124853860Y-76498335D02*
X124773802Y-76495452D01*
X124773802Y-76495452D02*
X124728303Y-76492222D01*
X124728303Y-76492222D02*
X124720795Y-76490780D01*
X124720795Y-76490780D02*
X124686400Y-76461639D01*
X124686400Y-76461639D02*
X124666671Y-76427280D01*
X124666671Y-76427280D02*
X124647650Y-76377250D01*
X124647650Y-76377250D02*
X123896958Y-76377250D01*
X123896958Y-76377250D02*
X123677873Y-76376647D01*
X123677873Y-76376647D02*
X123493602Y-76374863D01*
X123493602Y-76374863D02*
X123345609Y-76371940D01*
X123345609Y-76371940D02*
X123235360Y-76367919D01*
X123235360Y-76367919D02*
X123164316Y-76362840D01*
X123164316Y-76362840D02*
X123133944Y-76356745D01*
X123133944Y-76356745D02*
X123133068Y-76355894D01*
X123133068Y-76355894D02*
X123128014Y-76319943D01*
X123128014Y-76319943D02*
X123133245Y-76292394D01*
X123133245Y-76292394D02*
X123138075Y-76281218D01*
X123138075Y-76281218D02*
X123147531Y-76272215D01*
X123147531Y-76272215D02*
X123165816Y-76265149D01*
X123165816Y-76265149D02*
X123197132Y-76259788D01*
X123197132Y-76259788D02*
X123245681Y-76255894D01*
X123245681Y-76255894D02*
X123315667Y-76253236D01*
X123315667Y-76253236D02*
X123411290Y-76251576D01*
X123411290Y-76251576D02*
X123536754Y-76250682D01*
X123536754Y-76250682D02*
X123696260Y-76250318D01*
X123696260Y-76250318D02*
X123888119Y-76250250D01*
X123888119Y-76250250D02*
X124629617Y-76250250D01*
X124629617Y-76250250D02*
X124748253Y-76123250D01*
X124748253Y-76123250D02*
X126047784Y-76123250D01*
X126047784Y-76123250D02*
X126166420Y-76250250D01*
X126166420Y-76250250D02*
X126908599Y-76250250D01*
X126908599Y-76250250D02*
X127106222Y-76250380D01*
X127106222Y-76250380D02*
X127265711Y-76250905D01*
X127265711Y-76250905D02*
X127391265Y-76252030D01*
X127391265Y-76252030D02*
X127487084Y-76253958D01*
X127487084Y-76253958D02*
X127557367Y-76256895D01*
X127557367Y-76256895D02*
X127606312Y-76261045D01*
X127606312Y-76261045D02*
X127638120Y-76266611D01*
X127638120Y-76266611D02*
X127656990Y-76273799D01*
X127656990Y-76273799D02*
X127667120Y-76282813D01*
X127667120Y-76282813D02*
X127669830Y-76287292D01*
X127669830Y-76287292D02*
X127680680Y-76310242D01*
X127680680Y-76310242D02*
X127684787Y-76328914D01*
X127684787Y-76328914D02*
X127678424Y-76343750D01*
X127678424Y-76343750D02*
X127657864Y-76355190D01*
X127657864Y-76355190D02*
X127619379Y-76363676D01*
X127619379Y-76363676D02*
X127559244Y-76369649D01*
X127559244Y-76369649D02*
X127473730Y-76373550D01*
X127473730Y-76373550D02*
X127359112Y-76375819D01*
X127359112Y-76375819D02*
X127211661Y-76376898D01*
X127211661Y-76376898D02*
X127027652Y-76377228D01*
X127027652Y-76377228D02*
X126909671Y-76377250D01*
X126909671Y-76377250D02*
X126687649Y-76377835D01*
X126687649Y-76377835D02*
X126502338Y-76379567D01*
X126502338Y-76379567D02*
X126354827Y-76382417D01*
X126354827Y-76382417D02*
X126246203Y-76386354D01*
X126246203Y-76386354D02*
X126177554Y-76391349D01*
X126177554Y-76391349D02*
X126149966Y-76397370D01*
X126149966Y-76397370D02*
X126149435Y-76398417D01*
X126149435Y-76398417D02*
X126135773Y-76427618D01*
X126135773Y-76427618D02*
X126107102Y-76461917D01*
X126107102Y-76461917D02*
X126093472Y-76473811D01*
X126093472Y-76473811D02*
X126075899Y-76483244D01*
X126075899Y-76483244D02*
X126049696Y-76490499D01*
X126049696Y-76490499D02*
X126010177Y-76495861D01*
X126010177Y-76495861D02*
X125952657Y-76499615D01*
X125952657Y-76499615D02*
X125872449Y-76502046D01*
X125872449Y-76502046D02*
X125764866Y-76503439D01*
X125764866Y-76503439D02*
X125625224Y-76504078D01*
X125625224Y-76504078D02*
X125448835Y-76504248D01*
X125448835Y-76504248D02*
X125410333Y-76504250D01*
X125410333Y-76504250D02*
X125246713Y-76503827D01*
X125246713Y-76503827D02*
X125246713Y-76503827D01*
G36*
X126166420Y-76250250D02*
G01*
X126908599Y-76250250D01*
X127106222Y-76250380D01*
X127265711Y-76250905D01*
X127391265Y-76252030D01*
X127487084Y-76253958D01*
X127557367Y-76256895D01*
X127606312Y-76261045D01*
X127638120Y-76266611D01*
X127656990Y-76273799D01*
X127667120Y-76282813D01*
X127669830Y-76287292D01*
X127680680Y-76310242D01*
X127684787Y-76328914D01*
X127678424Y-76343750D01*
X127657864Y-76355190D01*
X127619379Y-76363676D01*
X127559244Y-76369649D01*
X127473730Y-76373550D01*
X127359112Y-76375819D01*
X127211661Y-76376898D01*
X127027652Y-76377228D01*
X126909671Y-76377250D01*
X126687649Y-76377835D01*
X126502338Y-76379567D01*
X126354827Y-76382417D01*
X126246203Y-76386354D01*
X126177554Y-76391349D01*
X126149966Y-76397370D01*
X126149435Y-76398417D01*
X126135773Y-76427618D01*
X126107102Y-76461917D01*
X126093472Y-76473811D01*
X126075899Y-76483244D01*
X126049696Y-76490499D01*
X126010177Y-76495861D01*
X125952657Y-76499615D01*
X125872449Y-76502046D01*
X125764866Y-76503439D01*
X125625224Y-76504078D01*
X125448835Y-76504248D01*
X125410333Y-76504250D01*
X125246713Y-76503827D01*
X125095782Y-76502629D01*
X124963009Y-76500763D01*
X124853860Y-76498335D01*
X124773802Y-76495452D01*
X124728303Y-76492222D01*
X124720795Y-76490780D01*
X124686400Y-76461639D01*
X124666671Y-76427280D01*
X124647650Y-76377250D01*
X123896958Y-76377250D01*
X123677873Y-76376647D01*
X123493602Y-76374863D01*
X123345609Y-76371940D01*
X123235360Y-76367919D01*
X123164316Y-76362840D01*
X123133944Y-76356745D01*
X123133068Y-76355894D01*
X123128014Y-76319943D01*
X123133245Y-76292394D01*
X123138075Y-76281218D01*
X123147531Y-76272215D01*
X123165816Y-76265149D01*
X123197132Y-76259788D01*
X123245681Y-76255894D01*
X123315667Y-76253236D01*
X123411290Y-76251576D01*
X123536754Y-76250682D01*
X123696260Y-76250318D01*
X123888119Y-76250250D01*
X124629617Y-76250250D01*
X124748253Y-76123250D01*
X126047784Y-76123250D01*
X126166420Y-76250250D01*
G37*
X126166420Y-76250250D02*
X126908599Y-76250250D01*
X127106222Y-76250380D01*
X127265711Y-76250905D01*
X127391265Y-76252030D01*
X127487084Y-76253958D01*
X127557367Y-76256895D01*
X127606312Y-76261045D01*
X127638120Y-76266611D01*
X127656990Y-76273799D01*
X127667120Y-76282813D01*
X127669830Y-76287292D01*
X127680680Y-76310242D01*
X127684787Y-76328914D01*
X127678424Y-76343750D01*
X127657864Y-76355190D01*
X127619379Y-76363676D01*
X127559244Y-76369649D01*
X127473730Y-76373550D01*
X127359112Y-76375819D01*
X127211661Y-76376898D01*
X127027652Y-76377228D01*
X126909671Y-76377250D01*
X126687649Y-76377835D01*
X126502338Y-76379567D01*
X126354827Y-76382417D01*
X126246203Y-76386354D01*
X126177554Y-76391349D01*
X126149966Y-76397370D01*
X126149435Y-76398417D01*
X126135773Y-76427618D01*
X126107102Y-76461917D01*
X126093472Y-76473811D01*
X126075899Y-76483244D01*
X126049696Y-76490499D01*
X126010177Y-76495861D01*
X125952657Y-76499615D01*
X125872449Y-76502046D01*
X125764866Y-76503439D01*
X125625224Y-76504078D01*
X125448835Y-76504248D01*
X125410333Y-76504250D01*
X125246713Y-76503827D01*
X125095782Y-76502629D01*
X124963009Y-76500763D01*
X124853860Y-76498335D01*
X124773802Y-76495452D01*
X124728303Y-76492222D01*
X124720795Y-76490780D01*
X124686400Y-76461639D01*
X124666671Y-76427280D01*
X124647650Y-76377250D01*
X123896958Y-76377250D01*
X123677873Y-76376647D01*
X123493602Y-76374863D01*
X123345609Y-76371940D01*
X123235360Y-76367919D01*
X123164316Y-76362840D01*
X123133944Y-76356745D01*
X123133068Y-76355894D01*
X123128014Y-76319943D01*
X123133245Y-76292394D01*
X123138075Y-76281218D01*
X123147531Y-76272215D01*
X123165816Y-76265149D01*
X123197132Y-76259788D01*
X123245681Y-76255894D01*
X123315667Y-76253236D01*
X123411290Y-76251576D01*
X123536754Y-76250682D01*
X123696260Y-76250318D01*
X123888119Y-76250250D01*
X124629617Y-76250250D01*
X124748253Y-76123250D01*
X126047784Y-76123250D01*
X126166420Y-76250250D01*
X120822931Y-76503955D02*
X120671496Y-76502934D01*
X120671496Y-76502934D02*
X120553544Y-76500989D01*
X120553544Y-76500989D02*
X120464651Y-76497922D01*
X120464651Y-76497922D02*
X120400394Y-76493533D01*
X120400394Y-76493533D02*
X120356349Y-76487622D01*
X120356349Y-76487622D02*
X120328092Y-76479991D01*
X120328092Y-76479991D02*
X120314331Y-76472831D01*
X120314331Y-76472831D02*
X120263420Y-76414742D01*
X120263420Y-76414742D02*
X120241063Y-76340592D01*
X120241063Y-76340592D02*
X120246705Y-76263189D01*
X120246705Y-76263189D02*
X120279789Y-76195345D01*
X120279789Y-76195345D02*
X120328087Y-76155267D01*
X120328087Y-76155267D02*
X120367992Y-76145732D01*
X120367992Y-76145732D02*
X120443447Y-76137701D01*
X120443447Y-76137701D02*
X120547697Y-76131198D01*
X120547697Y-76131198D02*
X120673985Y-76126248D01*
X120673985Y-76126248D02*
X120815555Y-76122873D01*
X120815555Y-76122873D02*
X120965650Y-76121099D01*
X120965650Y-76121099D02*
X121117513Y-76120949D01*
X121117513Y-76120949D02*
X121264389Y-76122448D01*
X121264389Y-76122448D02*
X121399520Y-76125619D01*
X121399520Y-76125619D02*
X121516150Y-76130487D01*
X121516150Y-76130487D02*
X121607524Y-76137076D01*
X121607524Y-76137076D02*
X121666883Y-76145409D01*
X121666883Y-76145409D02*
X121682851Y-76150438D01*
X121682851Y-76150438D02*
X121748831Y-76204235D01*
X121748831Y-76204235D02*
X121781476Y-76275486D01*
X121781476Y-76275486D02*
X121779181Y-76353616D01*
X121779181Y-76353616D02*
X121740337Y-76428051D01*
X121740337Y-76428051D02*
X121727230Y-76442379D01*
X121727230Y-76442379D02*
X121665358Y-76504250D01*
X121665358Y-76504250D02*
X121012273Y-76504250D01*
X121012273Y-76504250D02*
X120822931Y-76503955D01*
X120822931Y-76503955D02*
X120822931Y-76503955D01*
G36*
X121264389Y-76122448D02*
G01*
X121399520Y-76125619D01*
X121516150Y-76130487D01*
X121607524Y-76137076D01*
X121666883Y-76145409D01*
X121682851Y-76150438D01*
X121748831Y-76204235D01*
X121781476Y-76275486D01*
X121779181Y-76353616D01*
X121740337Y-76428051D01*
X121727230Y-76442379D01*
X121665358Y-76504250D01*
X121012273Y-76504250D01*
X120822931Y-76503955D01*
X120671496Y-76502934D01*
X120553544Y-76500989D01*
X120464651Y-76497922D01*
X120400394Y-76493533D01*
X120356349Y-76487622D01*
X120328092Y-76479991D01*
X120314331Y-76472831D01*
X120263420Y-76414742D01*
X120241063Y-76340592D01*
X120246705Y-76263189D01*
X120279789Y-76195345D01*
X120328087Y-76155267D01*
X120367992Y-76145732D01*
X120443447Y-76137701D01*
X120547697Y-76131198D01*
X120673985Y-76126248D01*
X120815555Y-76122873D01*
X120965650Y-76121099D01*
X121117513Y-76120949D01*
X121264389Y-76122448D01*
G37*
X121264389Y-76122448D02*
X121399520Y-76125619D01*
X121516150Y-76130487D01*
X121607524Y-76137076D01*
X121666883Y-76145409D01*
X121682851Y-76150438D01*
X121748831Y-76204235D01*
X121781476Y-76275486D01*
X121779181Y-76353616D01*
X121740337Y-76428051D01*
X121727230Y-76442379D01*
X121665358Y-76504250D01*
X121012273Y-76504250D01*
X120822931Y-76503955D01*
X120671496Y-76502934D01*
X120553544Y-76500989D01*
X120464651Y-76497922D01*
X120400394Y-76493533D01*
X120356349Y-76487622D01*
X120328092Y-76479991D01*
X120314331Y-76472831D01*
X120263420Y-76414742D01*
X120241063Y-76340592D01*
X120246705Y-76263189D01*
X120279789Y-76195345D01*
X120328087Y-76155267D01*
X120367992Y-76145732D01*
X120443447Y-76137701D01*
X120547697Y-76131198D01*
X120673985Y-76126248D01*
X120815555Y-76122873D01*
X120965650Y-76121099D01*
X121117513Y-76120949D01*
X121264389Y-76122448D01*
X124629617Y-76821750D02*
X123888119Y-76821750D01*
X123888119Y-76821750D02*
X123691459Y-76821678D01*
X123691459Y-76821678D02*
X123532929Y-76821303D01*
X123532929Y-76821303D02*
X123408329Y-76820391D01*
X123408329Y-76820391D02*
X123313454Y-76818708D01*
X123313454Y-76818708D02*
X123244104Y-76816018D01*
X123244104Y-76816018D02*
X123196076Y-76812089D01*
X123196076Y-76812089D02*
X123165168Y-76806684D01*
X123165168Y-76806684D02*
X123147178Y-76799569D01*
X123147178Y-76799569D02*
X123137902Y-76790510D01*
X123137902Y-76790510D02*
X123133245Y-76779607D01*
X123133245Y-76779607D02*
X123127968Y-76735573D01*
X123127968Y-76735573D02*
X123133068Y-76716107D01*
X123133068Y-76716107D02*
X123158136Y-76709883D01*
X123158136Y-76709883D02*
X123224059Y-76704671D01*
X123224059Y-76704671D02*
X123329374Y-76700512D01*
X123329374Y-76700512D02*
X123472613Y-76697446D01*
X123472613Y-76697446D02*
X123652311Y-76695515D01*
X123652311Y-76695515D02*
X123867002Y-76694760D01*
X123867002Y-76694760D02*
X123896434Y-76694750D01*
X123896434Y-76694750D02*
X124116725Y-76694159D01*
X124116725Y-76694159D02*
X124300368Y-76692404D01*
X124300368Y-76692404D02*
X124446255Y-76689518D01*
X124446255Y-76689518D02*
X124553278Y-76685531D01*
X124553278Y-76685531D02*
X124620328Y-76680475D01*
X124620328Y-76680475D02*
X124646299Y-76674382D01*
X124646299Y-76674382D02*
X124646602Y-76673584D01*
X124646602Y-76673584D02*
X124660264Y-76644383D01*
X124660264Y-76644383D02*
X124688935Y-76610084D01*
X124688935Y-76610084D02*
X124702438Y-76598289D01*
X124702438Y-76598289D02*
X124719846Y-76588913D01*
X124719846Y-76588913D02*
X124745796Y-76581680D01*
X124745796Y-76581680D02*
X124784925Y-76576311D01*
X124784925Y-76576311D02*
X124841871Y-76572531D01*
X124841871Y-76572531D02*
X124921271Y-76570062D01*
X124921271Y-76570062D02*
X125027762Y-76568628D01*
X125027762Y-76568628D02*
X125165981Y-76567952D01*
X125165981Y-76567952D02*
X125340566Y-76567757D01*
X125340566Y-76567757D02*
X125398018Y-76567750D01*
X125398018Y-76567750D02*
X125583892Y-76567859D01*
X125583892Y-76567859D02*
X125732070Y-76568369D01*
X125732070Y-76568369D02*
X125847189Y-76569557D01*
X125847189Y-76569557D02*
X125933887Y-76571701D01*
X125933887Y-76571701D02*
X125996800Y-76575076D01*
X125996800Y-76575076D02*
X126040567Y-76579961D01*
X126040567Y-76579961D02*
X126069823Y-76586631D01*
X126069823Y-76586631D02*
X126089207Y-76595364D01*
X126089207Y-76595364D02*
X126103356Y-76606436D01*
X126103356Y-76606436D02*
X126107102Y-76610084D01*
X126107102Y-76610084D02*
X126138179Y-76647992D01*
X126138179Y-76647992D02*
X126149435Y-76673584D01*
X126149435Y-76673584D02*
X126170415Y-76679767D01*
X126170415Y-76679767D02*
X126232627Y-76684928D01*
X126232627Y-76684928D02*
X126334985Y-76689035D01*
X126334985Y-76689035D02*
X126476398Y-76692059D01*
X126476398Y-76692059D02*
X126655780Y-76693970D01*
X126655780Y-76693970D02*
X126872041Y-76694736D01*
X126872041Y-76694736D02*
X126909171Y-76694750D01*
X126909171Y-76694750D02*
X127110008Y-76694904D01*
X127110008Y-76694904D02*
X127272581Y-76695486D01*
X127272581Y-76695486D02*
X127400961Y-76696678D01*
X127400961Y-76696678D02*
X127499214Y-76698660D01*
X127499214Y-76698660D02*
X127571412Y-76701614D01*
X127571412Y-76701614D02*
X127621622Y-76705721D01*
X127621622Y-76705721D02*
X127653915Y-76711163D01*
X127653915Y-76711163D02*
X127672358Y-76718121D01*
X127672358Y-76718121D02*
X127681021Y-76726776D01*
X127681021Y-76726776D02*
X127682119Y-76729183D01*
X127682119Y-76729183D02*
X127689539Y-76752656D01*
X127689539Y-76752656D02*
X127689513Y-76771790D01*
X127689513Y-76771790D02*
X127678302Y-76787027D01*
X127678302Y-76787027D02*
X127652166Y-76798809D01*
X127652166Y-76798809D02*
X127607366Y-76807580D01*
X127607366Y-76807580D02*
X127540162Y-76813781D01*
X127540162Y-76813781D02*
X127446816Y-76817855D01*
X127446816Y-76817855D02*
X127323588Y-76820243D01*
X127323588Y-76820243D02*
X127166738Y-76821390D01*
X127166738Y-76821390D02*
X126972528Y-76821736D01*
X126972528Y-76821736D02*
X126899686Y-76821750D01*
X126899686Y-76821750D02*
X126702242Y-76821810D01*
X126702242Y-76821810D02*
X126542942Y-76822149D01*
X126542942Y-76822149D02*
X126417597Y-76823008D01*
X126417597Y-76823008D02*
X126322016Y-76824624D01*
X126322016Y-76824624D02*
X126252011Y-76827240D01*
X126252011Y-76827240D02*
X126203392Y-76831093D01*
X126203392Y-76831093D02*
X126171969Y-76836424D01*
X126171969Y-76836424D02*
X126153554Y-76843472D01*
X126153554Y-76843472D02*
X126143957Y-76852477D01*
X126143957Y-76852477D02*
X126138988Y-76863679D01*
X126138988Y-76863679D02*
X126138467Y-76865296D01*
X126138467Y-76865296D02*
X126109052Y-76905806D01*
X126109052Y-76905806D02*
X126072163Y-76928796D01*
X126072163Y-76928796D02*
X126038230Y-76933837D01*
X126038230Y-76933837D02*
X125967719Y-76938410D01*
X125967719Y-76938410D02*
X125866388Y-76942348D01*
X125866388Y-76942348D02*
X125739989Y-76945485D01*
X125739989Y-76945485D02*
X125594279Y-76947653D01*
X125594279Y-76947653D02*
X125435014Y-76948687D01*
X125435014Y-76948687D02*
X125383966Y-76948750D01*
X125383966Y-76948750D02*
X124748253Y-76948750D01*
X124748253Y-76948750D02*
X124629617Y-76821750D01*
X124629617Y-76821750D02*
X124629617Y-76821750D01*
G36*
X125583892Y-76567859D02*
G01*
X125732070Y-76568369D01*
X125847189Y-76569557D01*
X125933887Y-76571701D01*
X125996800Y-76575076D01*
X126040567Y-76579961D01*
X126069823Y-76586631D01*
X126089207Y-76595364D01*
X126103356Y-76606436D01*
X126107102Y-76610084D01*
X126138179Y-76647992D01*
X126149435Y-76673584D01*
X126170415Y-76679767D01*
X126232627Y-76684928D01*
X126334985Y-76689035D01*
X126476398Y-76692059D01*
X126655780Y-76693970D01*
X126872041Y-76694736D01*
X126909171Y-76694750D01*
X127110008Y-76694904D01*
X127272581Y-76695486D01*
X127400961Y-76696678D01*
X127499214Y-76698660D01*
X127571412Y-76701614D01*
X127621622Y-76705721D01*
X127653915Y-76711163D01*
X127672358Y-76718121D01*
X127681021Y-76726776D01*
X127682119Y-76729183D01*
X127689539Y-76752656D01*
X127689513Y-76771790D01*
X127678302Y-76787027D01*
X127652166Y-76798809D01*
X127607366Y-76807580D01*
X127540162Y-76813781D01*
X127446816Y-76817855D01*
X127323588Y-76820243D01*
X127166738Y-76821390D01*
X126972528Y-76821736D01*
X126899686Y-76821750D01*
X126702242Y-76821810D01*
X126542942Y-76822149D01*
X126417597Y-76823008D01*
X126322016Y-76824624D01*
X126252011Y-76827240D01*
X126203392Y-76831093D01*
X126171969Y-76836424D01*
X126153554Y-76843472D01*
X126143957Y-76852477D01*
X126138988Y-76863679D01*
X126138467Y-76865296D01*
X126109052Y-76905806D01*
X126072163Y-76928796D01*
X126038230Y-76933837D01*
X125967719Y-76938410D01*
X125866388Y-76942348D01*
X125739989Y-76945485D01*
X125594279Y-76947653D01*
X125435014Y-76948687D01*
X125383966Y-76948750D01*
X124748253Y-76948750D01*
X124629617Y-76821750D01*
X123888119Y-76821750D01*
X123691459Y-76821678D01*
X123532929Y-76821303D01*
X123408329Y-76820391D01*
X123313454Y-76818708D01*
X123244104Y-76816018D01*
X123196076Y-76812089D01*
X123165168Y-76806684D01*
X123147178Y-76799569D01*
X123137902Y-76790510D01*
X123133245Y-76779607D01*
X123127968Y-76735573D01*
X123133068Y-76716107D01*
X123158136Y-76709883D01*
X123224059Y-76704671D01*
X123329374Y-76700512D01*
X123472613Y-76697446D01*
X123652311Y-76695515D01*
X123867002Y-76694760D01*
X123896434Y-76694750D01*
X124116725Y-76694159D01*
X124300368Y-76692404D01*
X124446255Y-76689518D01*
X124553278Y-76685531D01*
X124620328Y-76680475D01*
X124646299Y-76674382D01*
X124646602Y-76673584D01*
X124660264Y-76644383D01*
X124688935Y-76610084D01*
X124702438Y-76598289D01*
X124719846Y-76588913D01*
X124745796Y-76581680D01*
X124784925Y-76576311D01*
X124841871Y-76572531D01*
X124921271Y-76570062D01*
X125027762Y-76568628D01*
X125165981Y-76567952D01*
X125340566Y-76567757D01*
X125398018Y-76567750D01*
X125583892Y-76567859D01*
G37*
X125583892Y-76567859D02*
X125732070Y-76568369D01*
X125847189Y-76569557D01*
X125933887Y-76571701D01*
X125996800Y-76575076D01*
X126040567Y-76579961D01*
X126069823Y-76586631D01*
X126089207Y-76595364D01*
X126103356Y-76606436D01*
X126107102Y-76610084D01*
X126138179Y-76647992D01*
X126149435Y-76673584D01*
X126170415Y-76679767D01*
X126232627Y-76684928D01*
X126334985Y-76689035D01*
X126476398Y-76692059D01*
X126655780Y-76693970D01*
X126872041Y-76694736D01*
X126909171Y-76694750D01*
X127110008Y-76694904D01*
X127272581Y-76695486D01*
X127400961Y-76696678D01*
X127499214Y-76698660D01*
X127571412Y-76701614D01*
X127621622Y-76705721D01*
X127653915Y-76711163D01*
X127672358Y-76718121D01*
X127681021Y-76726776D01*
X127682119Y-76729183D01*
X127689539Y-76752656D01*
X127689513Y-76771790D01*
X127678302Y-76787027D01*
X127652166Y-76798809D01*
X127607366Y-76807580D01*
X127540162Y-76813781D01*
X127446816Y-76817855D01*
X127323588Y-76820243D01*
X127166738Y-76821390D01*
X126972528Y-76821736D01*
X126899686Y-76821750D01*
X126702242Y-76821810D01*
X126542942Y-76822149D01*
X126417597Y-76823008D01*
X126322016Y-76824624D01*
X126252011Y-76827240D01*
X126203392Y-76831093D01*
X126171969Y-76836424D01*
X126153554Y-76843472D01*
X126143957Y-76852477D01*
X126138988Y-76863679D01*
X126138467Y-76865296D01*
X126109052Y-76905806D01*
X126072163Y-76928796D01*
X126038230Y-76933837D01*
X125967719Y-76938410D01*
X125866388Y-76942348D01*
X125739989Y-76945485D01*
X125594279Y-76947653D01*
X125435014Y-76948687D01*
X125383966Y-76948750D01*
X124748253Y-76948750D01*
X124629617Y-76821750D01*
X123888119Y-76821750D01*
X123691459Y-76821678D01*
X123532929Y-76821303D01*
X123408329Y-76820391D01*
X123313454Y-76818708D01*
X123244104Y-76816018D01*
X123196076Y-76812089D01*
X123165168Y-76806684D01*
X123147178Y-76799569D01*
X123137902Y-76790510D01*
X123133245Y-76779607D01*
X123127968Y-76735573D01*
X123133068Y-76716107D01*
X123158136Y-76709883D01*
X123224059Y-76704671D01*
X123329374Y-76700512D01*
X123472613Y-76697446D01*
X123652311Y-76695515D01*
X123867002Y-76694760D01*
X123896434Y-76694750D01*
X124116725Y-76694159D01*
X124300368Y-76692404D01*
X124446255Y-76689518D01*
X124553278Y-76685531D01*
X124620328Y-76680475D01*
X124646299Y-76674382D01*
X124646602Y-76673584D01*
X124660264Y-76644383D01*
X124688935Y-76610084D01*
X124702438Y-76598289D01*
X124719846Y-76588913D01*
X124745796Y-76581680D01*
X124784925Y-76576311D01*
X124841871Y-76572531D01*
X124921271Y-76570062D01*
X125027762Y-76568628D01*
X125165981Y-76567952D01*
X125340566Y-76567757D01*
X125398018Y-76567750D01*
X125583892Y-76567859D01*
X120584527Y-76945561D02*
X120496021Y-76943392D01*
X120496021Y-76943392D02*
X120430919Y-76939636D01*
X120430919Y-76939636D02*
X120384490Y-76934115D01*
X120384490Y-76934115D02*
X120352005Y-76926650D01*
X120352005Y-76926650D02*
X120329780Y-76917610D01*
X120329780Y-76917610D02*
X120272344Y-76865976D01*
X120272344Y-76865976D02*
X120242233Y-76791827D01*
X120242233Y-76791827D02*
X120244091Y-76708392D01*
X120244091Y-76708392D02*
X120249580Y-76689128D01*
X120249580Y-76689128D02*
X120261638Y-76656547D01*
X120261638Y-76656547D02*
X120276278Y-76630389D01*
X120276278Y-76630389D02*
X120297929Y-76609949D01*
X120297929Y-76609949D02*
X120331022Y-76594522D01*
X120331022Y-76594522D02*
X120379987Y-76583402D01*
X120379987Y-76583402D02*
X120449252Y-76575886D01*
X120449252Y-76575886D02*
X120543248Y-76571268D01*
X120543248Y-76571268D02*
X120666405Y-76568842D01*
X120666405Y-76568842D02*
X120823151Y-76567905D01*
X120823151Y-76567905D02*
X121012273Y-76567750D01*
X121012273Y-76567750D02*
X121665358Y-76567750D01*
X121665358Y-76567750D02*
X121729840Y-76632232D01*
X121729840Y-76632232D02*
X121771112Y-76680001D01*
X121771112Y-76680001D02*
X121785684Y-76722463D01*
X121785684Y-76722463D02*
X121781806Y-76773842D01*
X121781806Y-76773842D02*
X121761260Y-76838744D01*
X121761260Y-76838744D02*
X121728318Y-76891857D01*
X121728318Y-76891857D02*
X121725720Y-76894568D01*
X121725720Y-76894568D02*
X121711714Y-76906917D01*
X121711714Y-76906917D02*
X121693955Y-76916754D01*
X121693955Y-76916754D02*
X121667709Y-76924422D01*
X121667709Y-76924422D02*
X121628237Y-76930262D01*
X121628237Y-76930262D02*
X121570804Y-76934619D01*
X121570804Y-76934619D02*
X121490672Y-76937833D01*
X121490672Y-76937833D02*
X121383105Y-76940250D01*
X121383105Y-76940250D02*
X121243366Y-76942209D01*
X121243366Y-76942209D02*
X121066717Y-76944056D01*
X121066717Y-76944056D02*
X121037768Y-76944334D01*
X121037768Y-76944334D02*
X120850670Y-76945854D01*
X120850670Y-76945854D02*
X120701167Y-76946323D01*
X120701167Y-76946323D02*
X120584527Y-76945561D01*
X120584527Y-76945561D02*
X120584527Y-76945561D01*
G36*
X121729840Y-76632232D02*
G01*
X121771112Y-76680001D01*
X121785684Y-76722463D01*
X121781806Y-76773842D01*
X121761260Y-76838744D01*
X121728318Y-76891857D01*
X121725720Y-76894568D01*
X121711714Y-76906917D01*
X121693955Y-76916754D01*
X121667709Y-76924422D01*
X121628237Y-76930262D01*
X121570804Y-76934619D01*
X121490672Y-76937833D01*
X121383105Y-76940250D01*
X121243366Y-76942209D01*
X121066717Y-76944056D01*
X121037768Y-76944334D01*
X120850670Y-76945854D01*
X120701167Y-76946323D01*
X120584527Y-76945561D01*
X120496021Y-76943392D01*
X120430919Y-76939636D01*
X120384490Y-76934115D01*
X120352005Y-76926650D01*
X120329780Y-76917610D01*
X120272344Y-76865976D01*
X120242233Y-76791827D01*
X120244091Y-76708392D01*
X120249580Y-76689128D01*
X120261638Y-76656547D01*
X120276278Y-76630389D01*
X120297929Y-76609949D01*
X120331022Y-76594522D01*
X120379987Y-76583402D01*
X120449252Y-76575886D01*
X120543248Y-76571268D01*
X120666405Y-76568842D01*
X120823151Y-76567905D01*
X121012273Y-76567750D01*
X121665358Y-76567750D01*
X121729840Y-76632232D01*
G37*
X121729840Y-76632232D02*
X121771112Y-76680001D01*
X121785684Y-76722463D01*
X121781806Y-76773842D01*
X121761260Y-76838744D01*
X121728318Y-76891857D01*
X121725720Y-76894568D01*
X121711714Y-76906917D01*
X121693955Y-76916754D01*
X121667709Y-76924422D01*
X121628237Y-76930262D01*
X121570804Y-76934619D01*
X121490672Y-76937833D01*
X121383105Y-76940250D01*
X121243366Y-76942209D01*
X121066717Y-76944056D01*
X121037768Y-76944334D01*
X120850670Y-76945854D01*
X120701167Y-76946323D01*
X120584527Y-76945561D01*
X120496021Y-76943392D01*
X120430919Y-76939636D01*
X120384490Y-76934115D01*
X120352005Y-76926650D01*
X120329780Y-76917610D01*
X120272344Y-76865976D01*
X120242233Y-76791827D01*
X120244091Y-76708392D01*
X120249580Y-76689128D01*
X120261638Y-76656547D01*
X120276278Y-76630389D01*
X120297929Y-76609949D01*
X120331022Y-76594522D01*
X120379987Y-76583402D01*
X120449252Y-76575886D01*
X120543248Y-76571268D01*
X120666405Y-76568842D01*
X120823151Y-76567905D01*
X121012273Y-76567750D01*
X121665358Y-76567750D01*
X121729840Y-76632232D01*
X124676405Y-77319167D02*
X124641733Y-77266250D01*
X124641733Y-77266250D02*
X123905926Y-77266250D01*
X123905926Y-77266250D02*
X123707422Y-77266062D01*
X123707422Y-77266062D02*
X123547064Y-77265375D01*
X123547064Y-77265375D02*
X123420667Y-77264004D01*
X123420667Y-77264004D02*
X123324045Y-77261766D01*
X123324045Y-77261766D02*
X123253013Y-77258479D01*
X123253013Y-77258479D02*
X123203385Y-77253956D01*
X123203385Y-77253956D02*
X123170975Y-77248016D01*
X123170975Y-77248016D02*
X123151597Y-77240474D01*
X123151597Y-77240474D02*
X123142296Y-77232726D01*
X123142296Y-77232726D02*
X123125908Y-77192027D01*
X123125908Y-77192027D02*
X123136712Y-77163935D01*
X123136712Y-77163935D02*
X123146087Y-77154478D01*
X123146087Y-77154478D02*
X123163871Y-77146779D01*
X123163871Y-77146779D02*
X123194241Y-77140612D01*
X123194241Y-77140612D02*
X123241377Y-77135756D01*
X123241377Y-77135756D02*
X123309457Y-77131985D01*
X123309457Y-77131985D02*
X123402660Y-77129078D01*
X123402660Y-77129078D02*
X123525163Y-77126811D01*
X123525163Y-77126811D02*
X123681146Y-77124960D01*
X123681146Y-77124960D02*
X123874787Y-77123302D01*
X123874787Y-77123302D02*
X123900518Y-77123107D01*
X123900518Y-77123107D02*
X124642085Y-77117547D01*
X124642085Y-77117547D02*
X124676581Y-77064899D01*
X124676581Y-77064899D02*
X124711078Y-77012250D01*
X124711078Y-77012250D02*
X126084959Y-77012250D01*
X126084959Y-77012250D02*
X126119632Y-77065167D01*
X126119632Y-77065167D02*
X126154304Y-77118084D01*
X126154304Y-77118084D02*
X126902541Y-77118084D01*
X126902541Y-77118084D02*
X127100395Y-77118173D01*
X127100395Y-77118173D02*
X127260143Y-77118589D01*
X127260143Y-77118589D02*
X127386011Y-77119558D01*
X127386011Y-77119558D02*
X127482227Y-77121302D01*
X127482227Y-77121302D02*
X127553017Y-77124047D01*
X127553017Y-77124047D02*
X127602609Y-77128017D01*
X127602609Y-77128017D02*
X127635230Y-77133435D01*
X127635230Y-77133435D02*
X127655105Y-77140527D01*
X127655105Y-77140527D02*
X127666464Y-77149516D01*
X127666464Y-77149516D02*
X127672648Y-77158947D01*
X127672648Y-77158947D02*
X127681884Y-77201579D01*
X127681884Y-77201579D02*
X127661298Y-77233031D01*
X127661298Y-77233031D02*
X127647921Y-77242000D01*
X127647921Y-77242000D02*
X127624793Y-77249227D01*
X127624793Y-77249227D02*
X127587715Y-77254893D01*
X127587715Y-77254893D02*
X127532488Y-77259178D01*
X127532488Y-77259178D02*
X127454913Y-77262264D01*
X127454913Y-77262264D02*
X127350793Y-77264333D01*
X127350793Y-77264333D02*
X127215927Y-77265564D01*
X127215927Y-77265564D02*
X127046118Y-77266140D01*
X127046118Y-77266140D02*
X126891191Y-77266250D01*
X126891191Y-77266250D02*
X126154304Y-77266250D01*
X126154304Y-77266250D02*
X126119632Y-77319167D01*
X126119632Y-77319167D02*
X126084959Y-77372084D01*
X126084959Y-77372084D02*
X124711078Y-77372084D01*
X124711078Y-77372084D02*
X124676405Y-77319167D01*
X124676405Y-77319167D02*
X124676405Y-77319167D01*
G36*
X126119632Y-77065167D02*
G01*
X126154304Y-77118084D01*
X126902541Y-77118084D01*
X127100395Y-77118173D01*
X127260143Y-77118589D01*
X127386011Y-77119558D01*
X127482227Y-77121302D01*
X127553017Y-77124047D01*
X127602609Y-77128017D01*
X127635230Y-77133435D01*
X127655105Y-77140527D01*
X127666464Y-77149516D01*
X127672648Y-77158947D01*
X127681884Y-77201579D01*
X127661298Y-77233031D01*
X127647921Y-77242000D01*
X127624793Y-77249227D01*
X127587715Y-77254893D01*
X127532488Y-77259178D01*
X127454913Y-77262264D01*
X127350793Y-77264333D01*
X127215927Y-77265564D01*
X127046118Y-77266140D01*
X126891191Y-77266250D01*
X126154304Y-77266250D01*
X126119632Y-77319167D01*
X126084959Y-77372084D01*
X124711078Y-77372084D01*
X124676405Y-77319167D01*
X124641733Y-77266250D01*
X123905926Y-77266250D01*
X123707422Y-77266062D01*
X123547064Y-77265375D01*
X123420667Y-77264004D01*
X123324045Y-77261766D01*
X123253013Y-77258479D01*
X123203385Y-77253956D01*
X123170975Y-77248016D01*
X123151597Y-77240474D01*
X123142296Y-77232726D01*
X123125908Y-77192027D01*
X123136712Y-77163935D01*
X123146087Y-77154478D01*
X123163871Y-77146779D01*
X123194241Y-77140612D01*
X123241377Y-77135756D01*
X123309457Y-77131985D01*
X123402660Y-77129078D01*
X123525163Y-77126811D01*
X123681146Y-77124960D01*
X123874787Y-77123302D01*
X123900518Y-77123107D01*
X124642085Y-77117547D01*
X124676581Y-77064899D01*
X124711078Y-77012250D01*
X126084959Y-77012250D01*
X126119632Y-77065167D01*
G37*
X126119632Y-77065167D02*
X126154304Y-77118084D01*
X126902541Y-77118084D01*
X127100395Y-77118173D01*
X127260143Y-77118589D01*
X127386011Y-77119558D01*
X127482227Y-77121302D01*
X127553017Y-77124047D01*
X127602609Y-77128017D01*
X127635230Y-77133435D01*
X127655105Y-77140527D01*
X127666464Y-77149516D01*
X127672648Y-77158947D01*
X127681884Y-77201579D01*
X127661298Y-77233031D01*
X127647921Y-77242000D01*
X127624793Y-77249227D01*
X127587715Y-77254893D01*
X127532488Y-77259178D01*
X127454913Y-77262264D01*
X127350793Y-77264333D01*
X127215927Y-77265564D01*
X127046118Y-77266140D01*
X126891191Y-77266250D01*
X126154304Y-77266250D01*
X126119632Y-77319167D01*
X126084959Y-77372084D01*
X124711078Y-77372084D01*
X124676405Y-77319167D01*
X124641733Y-77266250D01*
X123905926Y-77266250D01*
X123707422Y-77266062D01*
X123547064Y-77265375D01*
X123420667Y-77264004D01*
X123324045Y-77261766D01*
X123253013Y-77258479D01*
X123203385Y-77253956D01*
X123170975Y-77248016D01*
X123151597Y-77240474D01*
X123142296Y-77232726D01*
X123125908Y-77192027D01*
X123136712Y-77163935D01*
X123146087Y-77154478D01*
X123163871Y-77146779D01*
X123194241Y-77140612D01*
X123241377Y-77135756D01*
X123309457Y-77131985D01*
X123402660Y-77129078D01*
X123525163Y-77126811D01*
X123681146Y-77124960D01*
X123874787Y-77123302D01*
X123900518Y-77123107D01*
X124642085Y-77117547D01*
X124676581Y-77064899D01*
X124711078Y-77012250D01*
X126084959Y-77012250D01*
X126119632Y-77065167D01*
X120829076Y-77372023D02*
X120682033Y-77371629D01*
X120682033Y-77371629D02*
X120567830Y-77370580D01*
X120567830Y-77370580D02*
X120481724Y-77368558D01*
X120481724Y-77368558D02*
X120418967Y-77365243D01*
X120418967Y-77365243D02*
X120374814Y-77360314D01*
X120374814Y-77360314D02*
X120344518Y-77353453D01*
X120344518Y-77353453D02*
X120323335Y-77344340D01*
X120323335Y-77344340D02*
X120306518Y-77332655D01*
X120306518Y-77332655D02*
X120295915Y-77323731D01*
X120295915Y-77323731D02*
X120250557Y-77259398D01*
X120250557Y-77259398D02*
X120238126Y-77181648D01*
X120238126Y-77181648D02*
X120259047Y-77104187D01*
X120259047Y-77104187D02*
X120287841Y-77063493D01*
X120287841Y-77063493D02*
X120335981Y-77012250D01*
X120335981Y-77012250D02*
X121004333Y-77012894D01*
X121004333Y-77012894D02*
X121177921Y-77013682D01*
X121177921Y-77013682D02*
X121335011Y-77015603D01*
X121335011Y-77015603D02*
X121470759Y-77018516D01*
X121470759Y-77018516D02*
X121580324Y-77022277D01*
X121580324Y-77022277D02*
X121658861Y-77026745D01*
X121658861Y-77026745D02*
X121701529Y-77031777D01*
X121701529Y-77031777D02*
X121706951Y-77033559D01*
X121706951Y-77033559D02*
X121746732Y-77076580D01*
X121746732Y-77076580D02*
X121774797Y-77142012D01*
X121774797Y-77142012D02*
X121783890Y-77210170D01*
X121783890Y-77210170D02*
X121780660Y-77233504D01*
X121780660Y-77233504D02*
X121754975Y-77287788D01*
X121754975Y-77287788D02*
X121721354Y-77329165D01*
X121721354Y-77329165D02*
X121706831Y-77341163D01*
X121706831Y-77341163D02*
X121688750Y-77350691D01*
X121688750Y-77350691D02*
X121662427Y-77358032D01*
X121662427Y-77358032D02*
X121623177Y-77363471D01*
X121623177Y-77363471D02*
X121566315Y-77367292D01*
X121566315Y-77367292D02*
X121487158Y-77369780D01*
X121487158Y-77369780D02*
X121381020Y-77371217D01*
X121381020Y-77371217D02*
X121243217Y-77371888D01*
X121243217Y-77371888D02*
X121069065Y-77372078D01*
X121069065Y-77372078D02*
X121013708Y-77372084D01*
X121013708Y-77372084D02*
X120829076Y-77372023D01*
X120829076Y-77372023D02*
X120829076Y-77372023D01*
G36*
X121004333Y-77012894D02*
G01*
X121177921Y-77013682D01*
X121335011Y-77015603D01*
X121470759Y-77018516D01*
X121580324Y-77022277D01*
X121658861Y-77026745D01*
X121701529Y-77031777D01*
X121706951Y-77033559D01*
X121746732Y-77076580D01*
X121774797Y-77142012D01*
X121783890Y-77210170D01*
X121780660Y-77233504D01*
X121754975Y-77287788D01*
X121721354Y-77329165D01*
X121706831Y-77341163D01*
X121688750Y-77350691D01*
X121662427Y-77358032D01*
X121623177Y-77363471D01*
X121566315Y-77367292D01*
X121487158Y-77369780D01*
X121381020Y-77371217D01*
X121243217Y-77371888D01*
X121069065Y-77372078D01*
X121013708Y-77372084D01*
X120829076Y-77372023D01*
X120682033Y-77371629D01*
X120567830Y-77370580D01*
X120481724Y-77368558D01*
X120418967Y-77365243D01*
X120374814Y-77360314D01*
X120344518Y-77353453D01*
X120323335Y-77344340D01*
X120306518Y-77332655D01*
X120295915Y-77323731D01*
X120250557Y-77259398D01*
X120238126Y-77181648D01*
X120259047Y-77104187D01*
X120287841Y-77063493D01*
X120335981Y-77012250D01*
X121004333Y-77012894D01*
G37*
X121004333Y-77012894D02*
X121177921Y-77013682D01*
X121335011Y-77015603D01*
X121470759Y-77018516D01*
X121580324Y-77022277D01*
X121658861Y-77026745D01*
X121701529Y-77031777D01*
X121706951Y-77033559D01*
X121746732Y-77076580D01*
X121774797Y-77142012D01*
X121783890Y-77210170D01*
X121780660Y-77233504D01*
X121754975Y-77287788D01*
X121721354Y-77329165D01*
X121706831Y-77341163D01*
X121688750Y-77350691D01*
X121662427Y-77358032D01*
X121623177Y-77363471D01*
X121566315Y-77367292D01*
X121487158Y-77369780D01*
X121381020Y-77371217D01*
X121243217Y-77371888D01*
X121069065Y-77372078D01*
X121013708Y-77372084D01*
X120829076Y-77372023D01*
X120682033Y-77371629D01*
X120567830Y-77370580D01*
X120481724Y-77368558D01*
X120418967Y-77365243D01*
X120374814Y-77360314D01*
X120344518Y-77353453D01*
X120323335Y-77344340D01*
X120306518Y-77332655D01*
X120295915Y-77323731D01*
X120250557Y-77259398D01*
X120238126Y-77181648D01*
X120259047Y-77104187D01*
X120287841Y-77063493D01*
X120335981Y-77012250D01*
X121004333Y-77012894D01*
X120853748Y-77815883D02*
X120695516Y-77813877D01*
X120695516Y-77813877D02*
X120560221Y-77810714D01*
X120560221Y-77810714D02*
X120452673Y-77806540D01*
X120452673Y-77806540D02*
X120377684Y-77801500D01*
X120377684Y-77801500D02*
X120340063Y-77795743D01*
X120340063Y-77795743D02*
X120339539Y-77795552D01*
X120339539Y-77795552D02*
X120289625Y-77758206D01*
X120289625Y-77758206D02*
X120253211Y-77700302D01*
X120253211Y-77700302D02*
X120234384Y-77643818D01*
X120234384Y-77643818D02*
X120236743Y-77597591D01*
X120236743Y-77597591D02*
X120253211Y-77551866D01*
X120253211Y-77551866D02*
X120292353Y-77490952D01*
X120292353Y-77490952D02*
X120339539Y-77456616D01*
X120339539Y-77456616D02*
X120375910Y-77450838D01*
X120375910Y-77450838D02*
X120449799Y-77445774D01*
X120449799Y-77445774D02*
X120556398Y-77441570D01*
X120556398Y-77441570D02*
X120690895Y-77438373D01*
X120690895Y-77438373D02*
X120848480Y-77436329D01*
X120848480Y-77436329D02*
X121024344Y-77435585D01*
X121024344Y-77435585D02*
X121030108Y-77435584D01*
X121030108Y-77435584D02*
X121665358Y-77435584D01*
X121665358Y-77435584D02*
X121727230Y-77497456D01*
X121727230Y-77497456D02*
X121777358Y-77567964D01*
X121777358Y-77567964D02*
X121789102Y-77626084D01*
X121789102Y-77626084D02*
X121770212Y-77699058D01*
X121770212Y-77699058D02*
X121727230Y-77754712D01*
X121727230Y-77754712D02*
X121665358Y-77816584D01*
X121665358Y-77816584D02*
X121030108Y-77816584D01*
X121030108Y-77816584D02*
X120853748Y-77815883D01*
X120853748Y-77815883D02*
X120853748Y-77815883D01*
G36*
X121727230Y-77497456D02*
G01*
X121777358Y-77567964D01*
X121789102Y-77626084D01*
X121770212Y-77699058D01*
X121727230Y-77754712D01*
X121665358Y-77816584D01*
X121030108Y-77816584D01*
X120853748Y-77815883D01*
X120695516Y-77813877D01*
X120560221Y-77810714D01*
X120452673Y-77806540D01*
X120377684Y-77801500D01*
X120340063Y-77795743D01*
X120339539Y-77795552D01*
X120289625Y-77758206D01*
X120253211Y-77700302D01*
X120234384Y-77643818D01*
X120236743Y-77597591D01*
X120253211Y-77551866D01*
X120292353Y-77490952D01*
X120339539Y-77456616D01*
X120375910Y-77450838D01*
X120449799Y-77445774D01*
X120556398Y-77441570D01*
X120690895Y-77438373D01*
X120848480Y-77436329D01*
X121024344Y-77435585D01*
X121030108Y-77435584D01*
X121665358Y-77435584D01*
X121727230Y-77497456D01*
G37*
X121727230Y-77497456D02*
X121777358Y-77567964D01*
X121789102Y-77626084D01*
X121770212Y-77699058D01*
X121727230Y-77754712D01*
X121665358Y-77816584D01*
X121030108Y-77816584D01*
X120853748Y-77815883D01*
X120695516Y-77813877D01*
X120560221Y-77810714D01*
X120452673Y-77806540D01*
X120377684Y-77801500D01*
X120340063Y-77795743D01*
X120339539Y-77795552D01*
X120289625Y-77758206D01*
X120253211Y-77700302D01*
X120234384Y-77643818D01*
X120236743Y-77597591D01*
X120253211Y-77551866D01*
X120292353Y-77490952D01*
X120339539Y-77456616D01*
X120375910Y-77450838D01*
X120449799Y-77445774D01*
X120556398Y-77441570D01*
X120690895Y-77438373D01*
X120848480Y-77436329D01*
X121024344Y-77435585D01*
X121030108Y-77435584D01*
X121665358Y-77435584D01*
X121727230Y-77497456D01*
X126461440Y-77686314D02*
X126192246Y-77686007D01*
X126192246Y-77686007D02*
X125886288Y-77685464D01*
X125886288Y-77685464D02*
X125541222Y-77684715D01*
X125541222Y-77684715D02*
X125401009Y-77684387D01*
X125401009Y-77684387D02*
X123133185Y-77679000D01*
X123133185Y-77679000D02*
X123133185Y-77573167D01*
X123133185Y-77573167D02*
X125390056Y-77567780D01*
X125390056Y-77567780D02*
X125755354Y-77566977D01*
X125755354Y-77566977D02*
X126080546Y-77566428D01*
X126080546Y-77566428D02*
X126367861Y-77566156D01*
X126367861Y-77566156D02*
X126619525Y-77566183D01*
X126619525Y-77566183D02*
X126837765Y-77566533D01*
X126837765Y-77566533D02*
X127024810Y-77567229D01*
X127024810Y-77567229D02*
X127182885Y-77568295D01*
X127182885Y-77568295D02*
X127314220Y-77569754D01*
X127314220Y-77569754D02*
X127421041Y-77571628D01*
X127421041Y-77571628D02*
X127505575Y-77573942D01*
X127505575Y-77573942D02*
X127570049Y-77576717D01*
X127570049Y-77576717D02*
X127616692Y-77579979D01*
X127616692Y-77579979D02*
X127647731Y-77583749D01*
X127647731Y-77583749D02*
X127665392Y-77588051D01*
X127665392Y-77588051D02*
X127671129Y-77591556D01*
X127671129Y-77591556D02*
X127685447Y-77634290D01*
X127685447Y-77634290D02*
X127682083Y-77655246D01*
X127682083Y-77655246D02*
X127677493Y-77660726D01*
X127677493Y-77660726D02*
X127666614Y-77665582D01*
X127666614Y-77665582D02*
X127647103Y-77669843D01*
X127647103Y-77669843D02*
X127616614Y-77673538D01*
X127616614Y-77673538D02*
X127572804Y-77676699D01*
X127572804Y-77676699D02*
X127513328Y-77679354D01*
X127513328Y-77679354D02*
X127435842Y-77681534D01*
X127435842Y-77681534D02*
X127338002Y-77683269D01*
X127338002Y-77683269D02*
X127217464Y-77684589D01*
X127217464Y-77684589D02*
X127071883Y-77685524D01*
X127071883Y-77685524D02*
X126898914Y-77686103D01*
X126898914Y-77686103D02*
X126696215Y-77686356D01*
X126696215Y-77686356D02*
X126461440Y-77686314D01*
X126461440Y-77686314D02*
X126461440Y-77686314D01*
G36*
X126619525Y-77566183D02*
G01*
X126837765Y-77566533D01*
X127024810Y-77567229D01*
X127182885Y-77568295D01*
X127314220Y-77569754D01*
X127421041Y-77571628D01*
X127505575Y-77573942D01*
X127570049Y-77576717D01*
X127616692Y-77579979D01*
X127647731Y-77583749D01*
X127665392Y-77588051D01*
X127671129Y-77591556D01*
X127685447Y-77634290D01*
X127682083Y-77655246D01*
X127677493Y-77660726D01*
X127666614Y-77665582D01*
X127647103Y-77669843D01*
X127616614Y-77673538D01*
X127572804Y-77676699D01*
X127513328Y-77679354D01*
X127435842Y-77681534D01*
X127338002Y-77683269D01*
X127217464Y-77684589D01*
X127071883Y-77685524D01*
X126898914Y-77686103D01*
X126696215Y-77686356D01*
X126461440Y-77686314D01*
X126192246Y-77686007D01*
X125886288Y-77685464D01*
X125541222Y-77684715D01*
X125401009Y-77684387D01*
X123133185Y-77679000D01*
X123133185Y-77573167D01*
X125390056Y-77567780D01*
X125755354Y-77566977D01*
X126080546Y-77566428D01*
X126367861Y-77566156D01*
X126619525Y-77566183D01*
G37*
X126619525Y-77566183D02*
X126837765Y-77566533D01*
X127024810Y-77567229D01*
X127182885Y-77568295D01*
X127314220Y-77569754D01*
X127421041Y-77571628D01*
X127505575Y-77573942D01*
X127570049Y-77576717D01*
X127616692Y-77579979D01*
X127647731Y-77583749D01*
X127665392Y-77588051D01*
X127671129Y-77591556D01*
X127685447Y-77634290D01*
X127682083Y-77655246D01*
X127677493Y-77660726D01*
X127666614Y-77665582D01*
X127647103Y-77669843D01*
X127616614Y-77673538D01*
X127572804Y-77676699D01*
X127513328Y-77679354D01*
X127435842Y-77681534D01*
X127338002Y-77683269D01*
X127217464Y-77684589D01*
X127071883Y-77685524D01*
X126898914Y-77686103D01*
X126696215Y-77686356D01*
X126461440Y-77686314D01*
X126192246Y-77686007D01*
X125886288Y-77685464D01*
X125541222Y-77684715D01*
X125401009Y-77684387D01*
X123133185Y-77679000D01*
X123133185Y-77573167D01*
X125390056Y-77567780D01*
X125755354Y-77566977D01*
X126080546Y-77566428D01*
X126367861Y-77566156D01*
X126619525Y-77566183D01*
X120287841Y-78188675D02*
X120246672Y-78117982D01*
X120246672Y-78117982D02*
X120239111Y-78038762D01*
X120239111Y-78038762D02*
X120264733Y-77964722D01*
X120264733Y-77964722D02*
X120295915Y-77928437D01*
X120295915Y-77928437D02*
X120312425Y-77914948D01*
X120312425Y-77914948D02*
X120330281Y-77904234D01*
X120330281Y-77904234D02*
X120354227Y-77895977D01*
X120354227Y-77895977D02*
X120389011Y-77889855D01*
X120389011Y-77889855D02*
X120439377Y-77885550D01*
X120439377Y-77885550D02*
X120510073Y-77882742D01*
X120510073Y-77882742D02*
X120605843Y-77881111D01*
X120605843Y-77881111D02*
X120731434Y-77880337D01*
X120731434Y-77880337D02*
X120891592Y-77880101D01*
X120891592Y-77880101D02*
X121013708Y-77880084D01*
X121013708Y-77880084D02*
X121198769Y-77880191D01*
X121198769Y-77880191D02*
X121346182Y-77880700D01*
X121346182Y-77880700D02*
X121460630Y-77881897D01*
X121460630Y-77881897D02*
X121546800Y-77884064D01*
X121546800Y-77884064D02*
X121609374Y-77887487D01*
X121609374Y-77887487D02*
X121653038Y-77892449D01*
X121653038Y-77892449D02*
X121682477Y-77899234D01*
X121682477Y-77899234D02*
X121702374Y-77908127D01*
X121702374Y-77908127D02*
X121717414Y-77919412D01*
X121717414Y-77919412D02*
X121721354Y-77923003D01*
X121721354Y-77923003D02*
X121760484Y-77973265D01*
X121760484Y-77973265D02*
X121780660Y-78018664D01*
X121780660Y-78018664D02*
X121781037Y-78083729D01*
X121781037Y-78083729D02*
X121758627Y-78152720D01*
X121758627Y-78152720D02*
X121720830Y-78206510D01*
X121720830Y-78206510D02*
X121702924Y-78219559D01*
X121702924Y-78219559D02*
X121671905Y-78224969D01*
X121671905Y-78224969D02*
X121603135Y-78229747D01*
X121603135Y-78229747D02*
X121501191Y-78233760D01*
X121501191Y-78233760D02*
X121370652Y-78236875D01*
X121370652Y-78236875D02*
X121216095Y-78238961D01*
X121216095Y-78238961D02*
X121042100Y-78239883D01*
X121042100Y-78239883D02*
X121000433Y-78239917D01*
X121000433Y-78239917D02*
X120335981Y-78239917D01*
X120335981Y-78239917D02*
X120287841Y-78188675D01*
X120287841Y-78188675D02*
X120287841Y-78188675D01*
G36*
X121198769Y-77880191D02*
G01*
X121346182Y-77880700D01*
X121460630Y-77881897D01*
X121546800Y-77884064D01*
X121609374Y-77887487D01*
X121653038Y-77892449D01*
X121682477Y-77899234D01*
X121702374Y-77908127D01*
X121717414Y-77919412D01*
X121721354Y-77923003D01*
X121760484Y-77973265D01*
X121780660Y-78018664D01*
X121781037Y-78083729D01*
X121758627Y-78152720D01*
X121720830Y-78206510D01*
X121702924Y-78219559D01*
X121671905Y-78224969D01*
X121603135Y-78229747D01*
X121501191Y-78233760D01*
X121370652Y-78236875D01*
X121216095Y-78238961D01*
X121042100Y-78239883D01*
X121000433Y-78239917D01*
X120335981Y-78239917D01*
X120287841Y-78188675D01*
X120246672Y-78117982D01*
X120239111Y-78038762D01*
X120264733Y-77964722D01*
X120295915Y-77928437D01*
X120312425Y-77914948D01*
X120330281Y-77904234D01*
X120354227Y-77895977D01*
X120389011Y-77889855D01*
X120439377Y-77885550D01*
X120510073Y-77882742D01*
X120605843Y-77881111D01*
X120731434Y-77880337D01*
X120891592Y-77880101D01*
X121013708Y-77880084D01*
X121198769Y-77880191D01*
G37*
X121198769Y-77880191D02*
X121346182Y-77880700D01*
X121460630Y-77881897D01*
X121546800Y-77884064D01*
X121609374Y-77887487D01*
X121653038Y-77892449D01*
X121682477Y-77899234D01*
X121702374Y-77908127D01*
X121717414Y-77919412D01*
X121721354Y-77923003D01*
X121760484Y-77973265D01*
X121780660Y-78018664D01*
X121781037Y-78083729D01*
X121758627Y-78152720D01*
X121720830Y-78206510D01*
X121702924Y-78219559D01*
X121671905Y-78224969D01*
X121603135Y-78229747D01*
X121501191Y-78233760D01*
X121370652Y-78236875D01*
X121216095Y-78238961D01*
X121042100Y-78239883D01*
X121000433Y-78239917D01*
X120335981Y-78239917D01*
X120287841Y-78188675D01*
X120246672Y-78117982D01*
X120239111Y-78038762D01*
X120264733Y-77964722D01*
X120295915Y-77928437D01*
X120312425Y-77914948D01*
X120330281Y-77904234D01*
X120354227Y-77895977D01*
X120389011Y-77889855D01*
X120439377Y-77885550D01*
X120510073Y-77882742D01*
X120605843Y-77881111D01*
X120731434Y-77880337D01*
X120891592Y-77880101D01*
X121013708Y-77880084D01*
X121198769Y-77880191D01*
X126481679Y-78131070D02*
X126219603Y-78130683D01*
X126219603Y-78130683D02*
X125921152Y-78130086D01*
X125921152Y-78130086D02*
X125583930Y-78129315D01*
X125583930Y-78129315D02*
X125404820Y-78128888D01*
X125404820Y-78128888D02*
X125047389Y-78128005D01*
X125047389Y-78128005D02*
X124729901Y-78127141D01*
X124729901Y-78127141D02*
X124449966Y-78126249D01*
X124449966Y-78126249D02*
X124205194Y-78125283D01*
X124205194Y-78125283D02*
X123993194Y-78124197D01*
X123993194Y-78124197D02*
X123811577Y-78122946D01*
X123811577Y-78122946D02*
X123657951Y-78121483D01*
X123657951Y-78121483D02*
X123529928Y-78119762D01*
X123529928Y-78119762D02*
X123425116Y-78117738D01*
X123425116Y-78117738D02*
X123341125Y-78115363D01*
X123341125Y-78115363D02*
X123275566Y-78112594D01*
X123275566Y-78112594D02*
X123226047Y-78109382D01*
X123226047Y-78109382D02*
X123190180Y-78105683D01*
X123190180Y-78105683D02*
X123165572Y-78101450D01*
X123165572Y-78101450D02*
X123149836Y-78096638D01*
X123149836Y-78096638D02*
X123140579Y-78091200D01*
X123140579Y-78091200D02*
X123135491Y-78085219D01*
X123135491Y-78085219D02*
X123124566Y-78050047D01*
X123124566Y-78050047D02*
X123148380Y-78020023D01*
X123148380Y-78020023D02*
X123153106Y-78016427D01*
X123153106Y-78016427D02*
X123164467Y-78011466D01*
X123164467Y-78011466D02*
X123185955Y-78007059D01*
X123185955Y-78007059D02*
X123219884Y-78003174D01*
X123219884Y-78003174D02*
X123268566Y-77999779D01*
X123268566Y-77999779D02*
X123334313Y-77996845D01*
X123334313Y-77996845D02*
X123419438Y-77994339D01*
X123419438Y-77994339D02*
X123526253Y-77992231D01*
X123526253Y-77992231D02*
X123657070Y-77990489D01*
X123657070Y-77990489D02*
X123814202Y-77989081D01*
X123814202Y-77989081D02*
X123999962Y-77987977D01*
X123999962Y-77987977D02*
X124216662Y-77987145D01*
X124216662Y-77987145D02*
X124466614Y-77986555D01*
X124466614Y-77986555D02*
X124752130Y-77986174D01*
X124752130Y-77986174D02*
X125075524Y-77985972D01*
X125075524Y-77985972D02*
X125411136Y-77985917D01*
X125411136Y-77985917D02*
X125768501Y-77985965D01*
X125768501Y-77985965D02*
X126085906Y-77986131D01*
X126085906Y-77986131D02*
X126365724Y-77986451D01*
X126365724Y-77986451D02*
X126610327Y-77986960D01*
X126610327Y-77986960D02*
X126822088Y-77987692D01*
X126822088Y-77987692D02*
X127003380Y-77988684D01*
X127003380Y-77988684D02*
X127156576Y-77989969D01*
X127156576Y-77989969D02*
X127284049Y-77991583D01*
X127284049Y-77991583D02*
X127388172Y-77993561D01*
X127388172Y-77993561D02*
X127471317Y-77995938D01*
X127471317Y-77995938D02*
X127535857Y-77998749D01*
X127535857Y-77998749D02*
X127584165Y-78002028D01*
X127584165Y-78002028D02*
X127618615Y-78005812D01*
X127618615Y-78005812D02*
X127641578Y-78010135D01*
X127641578Y-78010135D02*
X127655429Y-78015032D01*
X127655429Y-78015032D02*
X127661298Y-78019137D01*
X127661298Y-78019137D02*
X127682944Y-78057436D01*
X127682944Y-78057436D02*
X127672597Y-78093317D01*
X127672597Y-78093317D02*
X127668287Y-78099825D01*
X127668287Y-78099825D02*
X127661133Y-78105597D01*
X127661133Y-78105597D02*
X127648741Y-78110669D01*
X127648741Y-78110669D02*
X127628716Y-78115080D01*
X127628716Y-78115080D02*
X127598662Y-78118867D01*
X127598662Y-78118867D02*
X127556184Y-78122068D01*
X127556184Y-78122068D02*
X127498887Y-78124720D01*
X127498887Y-78124720D02*
X127424375Y-78126860D01*
X127424375Y-78126860D02*
X127330255Y-78128527D01*
X127330255Y-78128527D02*
X127214129Y-78129758D01*
X127214129Y-78129758D02*
X127073604Y-78130590D01*
X127073604Y-78130590D02*
X126906284Y-78131061D01*
X126906284Y-78131061D02*
X126709774Y-78131208D01*
X126709774Y-78131208D02*
X126481679Y-78131070D01*
X126481679Y-78131070D02*
X126481679Y-78131070D01*
G36*
X125768501Y-77985965D02*
G01*
X126085906Y-77986131D01*
X126365724Y-77986451D01*
X126610327Y-77986960D01*
X126822088Y-77987692D01*
X127003380Y-77988684D01*
X127156576Y-77989969D01*
X127284049Y-77991583D01*
X127388172Y-77993561D01*
X127471317Y-77995938D01*
X127535857Y-77998749D01*
X127584165Y-78002028D01*
X127618615Y-78005812D01*
X127641578Y-78010135D01*
X127655429Y-78015032D01*
X127661298Y-78019137D01*
X127682944Y-78057436D01*
X127672597Y-78093317D01*
X127668287Y-78099825D01*
X127661133Y-78105597D01*
X127648741Y-78110669D01*
X127628716Y-78115080D01*
X127598662Y-78118867D01*
X127556184Y-78122068D01*
X127498887Y-78124720D01*
X127424375Y-78126860D01*
X127330255Y-78128527D01*
X127214129Y-78129758D01*
X127073604Y-78130590D01*
X126906284Y-78131061D01*
X126709774Y-78131208D01*
X126481679Y-78131070D01*
X126219603Y-78130683D01*
X125921152Y-78130086D01*
X125583930Y-78129315D01*
X125404820Y-78128888D01*
X125047389Y-78128005D01*
X124729901Y-78127141D01*
X124449966Y-78126249D01*
X124205194Y-78125283D01*
X123993194Y-78124197D01*
X123811577Y-78122946D01*
X123657951Y-78121483D01*
X123529928Y-78119762D01*
X123425116Y-78117738D01*
X123341125Y-78115363D01*
X123275566Y-78112594D01*
X123226047Y-78109382D01*
X123190180Y-78105683D01*
X123165572Y-78101450D01*
X123149836Y-78096638D01*
X123140579Y-78091200D01*
X123135491Y-78085219D01*
X123124566Y-78050047D01*
X123148380Y-78020023D01*
X123153106Y-78016427D01*
X123164467Y-78011466D01*
X123185955Y-78007059D01*
X123219884Y-78003174D01*
X123268566Y-77999779D01*
X123334313Y-77996845D01*
X123419438Y-77994339D01*
X123526253Y-77992231D01*
X123657070Y-77990489D01*
X123814202Y-77989081D01*
X123999962Y-77987977D01*
X124216662Y-77987145D01*
X124466614Y-77986555D01*
X124752130Y-77986174D01*
X125075524Y-77985972D01*
X125411136Y-77985917D01*
X125768501Y-77985965D01*
G37*
X125768501Y-77985965D02*
X126085906Y-77986131D01*
X126365724Y-77986451D01*
X126610327Y-77986960D01*
X126822088Y-77987692D01*
X127003380Y-77988684D01*
X127156576Y-77989969D01*
X127284049Y-77991583D01*
X127388172Y-77993561D01*
X127471317Y-77995938D01*
X127535857Y-77998749D01*
X127584165Y-78002028D01*
X127618615Y-78005812D01*
X127641578Y-78010135D01*
X127655429Y-78015032D01*
X127661298Y-78019137D01*
X127682944Y-78057436D01*
X127672597Y-78093317D01*
X127668287Y-78099825D01*
X127661133Y-78105597D01*
X127648741Y-78110669D01*
X127628716Y-78115080D01*
X127598662Y-78118867D01*
X127556184Y-78122068D01*
X127498887Y-78124720D01*
X127424375Y-78126860D01*
X127330255Y-78128527D01*
X127214129Y-78129758D01*
X127073604Y-78130590D01*
X126906284Y-78131061D01*
X126709774Y-78131208D01*
X126481679Y-78131070D01*
X126219603Y-78130683D01*
X125921152Y-78130086D01*
X125583930Y-78129315D01*
X125404820Y-78128888D01*
X125047389Y-78128005D01*
X124729901Y-78127141D01*
X124449966Y-78126249D01*
X124205194Y-78125283D01*
X123993194Y-78124197D01*
X123811577Y-78122946D01*
X123657951Y-78121483D01*
X123529928Y-78119762D01*
X123425116Y-78117738D01*
X123341125Y-78115363D01*
X123275566Y-78112594D01*
X123226047Y-78109382D01*
X123190180Y-78105683D01*
X123165572Y-78101450D01*
X123149836Y-78096638D01*
X123140579Y-78091200D01*
X123135491Y-78085219D01*
X123124566Y-78050047D01*
X123148380Y-78020023D01*
X123153106Y-78016427D01*
X123164467Y-78011466D01*
X123185955Y-78007059D01*
X123219884Y-78003174D01*
X123268566Y-77999779D01*
X123334313Y-77996845D01*
X123419438Y-77994339D01*
X123526253Y-77992231D01*
X123657070Y-77990489D01*
X123814202Y-77989081D01*
X123999962Y-77987977D01*
X124216662Y-77987145D01*
X124466614Y-77986555D01*
X124752130Y-77986174D01*
X125075524Y-77985972D01*
X125411136Y-77985917D01*
X125768501Y-77985965D01*
X120824831Y-78684349D02*
X120678488Y-78683933D01*
X120678488Y-78683933D02*
X120564951Y-78682850D01*
X120564951Y-78682850D02*
X120479458Y-78680782D01*
X120479458Y-78680782D02*
X120417244Y-78677410D01*
X120417244Y-78677410D02*
X120373547Y-78672415D01*
X120373547Y-78672415D02*
X120343602Y-78665478D01*
X120343602Y-78665478D02*
X120322647Y-78656282D01*
X120322647Y-78656282D02*
X120305918Y-78644507D01*
X120305918Y-78644507D02*
X120296765Y-78636792D01*
X120296765Y-78636792D02*
X120250496Y-78572736D01*
X120250496Y-78572736D02*
X120236275Y-78497051D01*
X120236275Y-78497051D02*
X120252310Y-78422165D01*
X120252310Y-78422165D02*
X120296809Y-78360503D01*
X120296809Y-78360503D02*
X120340545Y-78333235D01*
X120340545Y-78333235D02*
X120386349Y-78323219D01*
X120386349Y-78323219D02*
X120466735Y-78315096D01*
X120466735Y-78315096D02*
X120574920Y-78308846D01*
X120574920Y-78308846D02*
X120704121Y-78304449D01*
X120704121Y-78304449D02*
X120847556Y-78301884D01*
X120847556Y-78301884D02*
X120998441Y-78301133D01*
X120998441Y-78301133D02*
X121149993Y-78302174D01*
X121149993Y-78302174D02*
X121295429Y-78304989D01*
X121295429Y-78304989D02*
X121427966Y-78309557D01*
X121427966Y-78309557D02*
X121540822Y-78315857D01*
X121540822Y-78315857D02*
X121627212Y-78323871D01*
X121627212Y-78323871D02*
X121680355Y-78333579D01*
X121680355Y-78333579D02*
X121689535Y-78337202D01*
X121689535Y-78337202D02*
X121754454Y-78392825D01*
X121754454Y-78392825D02*
X121784354Y-78464268D01*
X121784354Y-78464268D02*
X121777946Y-78541766D01*
X121777946Y-78541766D02*
X121733940Y-78615554D01*
X121733940Y-78615554D02*
X121727230Y-78622545D01*
X121727230Y-78622545D02*
X121665358Y-78684417D01*
X121665358Y-78684417D02*
X121008744Y-78684417D01*
X121008744Y-78684417D02*
X120824831Y-78684349D01*
X120824831Y-78684349D02*
X120824831Y-78684349D01*
G36*
X121149993Y-78302174D02*
G01*
X121295429Y-78304989D01*
X121427966Y-78309557D01*
X121540822Y-78315857D01*
X121627212Y-78323871D01*
X121680355Y-78333579D01*
X121689535Y-78337202D01*
X121754454Y-78392825D01*
X121784354Y-78464268D01*
X121777946Y-78541766D01*
X121733940Y-78615554D01*
X121727230Y-78622545D01*
X121665358Y-78684417D01*
X121008744Y-78684417D01*
X120824831Y-78684349D01*
X120678488Y-78683933D01*
X120564951Y-78682850D01*
X120479458Y-78680782D01*
X120417244Y-78677410D01*
X120373547Y-78672415D01*
X120343602Y-78665478D01*
X120322647Y-78656282D01*
X120305918Y-78644507D01*
X120296765Y-78636792D01*
X120250496Y-78572736D01*
X120236275Y-78497051D01*
X120252310Y-78422165D01*
X120296809Y-78360503D01*
X120340545Y-78333235D01*
X120386349Y-78323219D01*
X120466735Y-78315096D01*
X120574920Y-78308846D01*
X120704121Y-78304449D01*
X120847556Y-78301884D01*
X120998441Y-78301133D01*
X121149993Y-78302174D01*
G37*
X121149993Y-78302174D02*
X121295429Y-78304989D01*
X121427966Y-78309557D01*
X121540822Y-78315857D01*
X121627212Y-78323871D01*
X121680355Y-78333579D01*
X121689535Y-78337202D01*
X121754454Y-78392825D01*
X121784354Y-78464268D01*
X121777946Y-78541766D01*
X121733940Y-78615554D01*
X121727230Y-78622545D01*
X121665358Y-78684417D01*
X121008744Y-78684417D01*
X120824831Y-78684349D01*
X120678488Y-78683933D01*
X120564951Y-78682850D01*
X120479458Y-78680782D01*
X120417244Y-78677410D01*
X120373547Y-78672415D01*
X120343602Y-78665478D01*
X120322647Y-78656282D01*
X120305918Y-78644507D01*
X120296765Y-78636792D01*
X120250496Y-78572736D01*
X120236275Y-78497051D01*
X120252310Y-78422165D01*
X120296809Y-78360503D01*
X120340545Y-78333235D01*
X120386349Y-78323219D01*
X120466735Y-78315096D01*
X120574920Y-78308846D01*
X120704121Y-78304449D01*
X120847556Y-78301884D01*
X120998441Y-78301133D01*
X121149993Y-78302174D01*
X125050566Y-78578519D02*
X124730018Y-78578305D01*
X124730018Y-78578305D02*
X124447177Y-78577910D01*
X124447177Y-78577910D02*
X124199733Y-78577303D01*
X124199733Y-78577303D02*
X123985372Y-78576453D01*
X123985372Y-78576453D02*
X123801782Y-78575328D01*
X123801782Y-78575328D02*
X123646650Y-78573897D01*
X123646650Y-78573897D02*
X123517665Y-78572129D01*
X123517665Y-78572129D02*
X123412513Y-78569992D01*
X123412513Y-78569992D02*
X123328882Y-78567456D01*
X123328882Y-78567456D02*
X123264460Y-78564490D01*
X123264460Y-78564490D02*
X123216934Y-78561061D01*
X123216934Y-78561061D02*
X123183992Y-78557138D01*
X123183992Y-78557138D02*
X123163322Y-78552691D01*
X123163322Y-78552691D02*
X123153106Y-78548074D01*
X123153106Y-78548074D02*
X123125360Y-78517556D01*
X123125360Y-78517556D02*
X123132834Y-78483766D01*
X123132834Y-78483766D02*
X123135491Y-78479282D01*
X123135491Y-78479282D02*
X123140716Y-78473186D01*
X123140716Y-78473186D02*
X123150078Y-78467761D01*
X123150078Y-78467761D02*
X123165969Y-78462961D01*
X123165969Y-78462961D02*
X123190777Y-78458739D01*
X123190777Y-78458739D02*
X123226894Y-78455050D01*
X123226894Y-78455050D02*
X123276709Y-78451848D01*
X123276709Y-78451848D02*
X123342613Y-78449086D01*
X123342613Y-78449086D02*
X123426996Y-78446720D01*
X123426996Y-78446720D02*
X123532248Y-78444702D01*
X123532248Y-78444702D02*
X123660759Y-78442987D01*
X123660759Y-78442987D02*
X123814920Y-78441528D01*
X123814920Y-78441528D02*
X123997121Y-78440281D01*
X123997121Y-78440281D02*
X124209751Y-78439198D01*
X124209751Y-78439198D02*
X124455202Y-78438234D01*
X124455202Y-78438234D02*
X124735863Y-78437343D01*
X124735863Y-78437343D02*
X125054125Y-78436478D01*
X125054125Y-78436478D02*
X125404820Y-78435613D01*
X125404820Y-78435613D02*
X125761804Y-78434771D01*
X125761804Y-78434771D02*
X126078851Y-78434085D01*
X126078851Y-78434085D02*
X126358354Y-78433591D01*
X126358354Y-78433591D02*
X126602710Y-78433327D01*
X126602710Y-78433327D02*
X126814313Y-78433330D01*
X126814313Y-78433330D02*
X126995559Y-78433639D01*
X126995559Y-78433639D02*
X127148843Y-78434290D01*
X127148843Y-78434290D02*
X127276560Y-78435322D01*
X127276560Y-78435322D02*
X127381105Y-78436772D01*
X127381105Y-78436772D02*
X127464874Y-78438676D01*
X127464874Y-78438676D02*
X127530261Y-78441074D01*
X127530261Y-78441074D02*
X127579661Y-78444003D01*
X127579661Y-78444003D02*
X127615471Y-78447499D01*
X127615471Y-78447499D02*
X127640084Y-78451602D01*
X127640084Y-78451602D02*
X127655897Y-78456347D01*
X127655897Y-78456347D02*
X127665304Y-78461774D01*
X127665304Y-78461774D02*
X127670701Y-78467918D01*
X127670701Y-78467918D02*
X127672597Y-78471184D01*
X127672597Y-78471184D02*
X127681914Y-78513829D01*
X127681914Y-78513829D02*
X127661298Y-78545364D01*
X127661298Y-78545364D02*
X127652763Y-78550718D01*
X127652763Y-78550718D02*
X127636909Y-78555472D01*
X127636909Y-78555472D02*
X127611364Y-78559660D01*
X127611364Y-78559660D02*
X127573753Y-78563318D01*
X127573753Y-78563318D02*
X127521705Y-78566480D01*
X127521705Y-78566480D02*
X127452847Y-78569182D01*
X127452847Y-78569182D02*
X127364805Y-78571458D01*
X127364805Y-78571458D02*
X127255207Y-78573344D01*
X127255207Y-78573344D02*
X127121681Y-78574874D01*
X127121681Y-78574874D02*
X126961852Y-78576085D01*
X126961852Y-78576085D02*
X126773348Y-78577010D01*
X126773348Y-78577010D02*
X126553797Y-78577684D01*
X126553797Y-78577684D02*
X126300826Y-78578144D01*
X126300826Y-78578144D02*
X126012061Y-78578423D01*
X126012061Y-78578423D02*
X125685130Y-78578557D01*
X125685130Y-78578557D02*
X125411136Y-78578584D01*
X125411136Y-78578584D02*
X125050566Y-78578519D01*
X125050566Y-78578519D02*
X125050566Y-78578519D01*
G36*
X126814313Y-78433330D02*
G01*
X126995559Y-78433639D01*
X127148843Y-78434290D01*
X127276560Y-78435322D01*
X127381105Y-78436772D01*
X127464874Y-78438676D01*
X127530261Y-78441074D01*
X127579661Y-78444003D01*
X127615471Y-78447499D01*
X127640084Y-78451602D01*
X127655897Y-78456347D01*
X127665304Y-78461774D01*
X127670701Y-78467918D01*
X127672597Y-78471184D01*
X127681914Y-78513829D01*
X127661298Y-78545364D01*
X127652763Y-78550718D01*
X127636909Y-78555472D01*
X127611364Y-78559660D01*
X127573753Y-78563318D01*
X127521705Y-78566480D01*
X127452847Y-78569182D01*
X127364805Y-78571458D01*
X127255207Y-78573344D01*
X127121681Y-78574874D01*
X126961852Y-78576085D01*
X126773348Y-78577010D01*
X126553797Y-78577684D01*
X126300826Y-78578144D01*
X126012061Y-78578423D01*
X125685130Y-78578557D01*
X125411136Y-78578584D01*
X125050566Y-78578519D01*
X124730018Y-78578305D01*
X124447177Y-78577910D01*
X124199733Y-78577303D01*
X123985372Y-78576453D01*
X123801782Y-78575328D01*
X123646650Y-78573897D01*
X123517665Y-78572129D01*
X123412513Y-78569992D01*
X123328882Y-78567456D01*
X123264460Y-78564490D01*
X123216934Y-78561061D01*
X123183992Y-78557138D01*
X123163322Y-78552691D01*
X123153106Y-78548074D01*
X123125360Y-78517556D01*
X123132834Y-78483766D01*
X123135491Y-78479282D01*
X123140716Y-78473186D01*
X123150078Y-78467761D01*
X123165969Y-78462961D01*
X123190777Y-78458739D01*
X123226894Y-78455050D01*
X123276709Y-78451848D01*
X123342613Y-78449086D01*
X123426996Y-78446720D01*
X123532248Y-78444702D01*
X123660759Y-78442987D01*
X123814920Y-78441528D01*
X123997121Y-78440281D01*
X124209751Y-78439198D01*
X124455202Y-78438234D01*
X124735863Y-78437343D01*
X125054125Y-78436478D01*
X125404820Y-78435613D01*
X125761804Y-78434771D01*
X126078851Y-78434085D01*
X126358354Y-78433591D01*
X126602710Y-78433327D01*
X126814313Y-78433330D01*
G37*
X126814313Y-78433330D02*
X126995559Y-78433639D01*
X127148843Y-78434290D01*
X127276560Y-78435322D01*
X127381105Y-78436772D01*
X127464874Y-78438676D01*
X127530261Y-78441074D01*
X127579661Y-78444003D01*
X127615471Y-78447499D01*
X127640084Y-78451602D01*
X127655897Y-78456347D01*
X127665304Y-78461774D01*
X127670701Y-78467918D01*
X127672597Y-78471184D01*
X127681914Y-78513829D01*
X127661298Y-78545364D01*
X127652763Y-78550718D01*
X127636909Y-78555472D01*
X127611364Y-78559660D01*
X127573753Y-78563318D01*
X127521705Y-78566480D01*
X127452847Y-78569182D01*
X127364805Y-78571458D01*
X127255207Y-78573344D01*
X127121681Y-78574874D01*
X126961852Y-78576085D01*
X126773348Y-78577010D01*
X126553797Y-78577684D01*
X126300826Y-78578144D01*
X126012061Y-78578423D01*
X125685130Y-78578557D01*
X125411136Y-78578584D01*
X125050566Y-78578519D01*
X124730018Y-78578305D01*
X124447177Y-78577910D01*
X124199733Y-78577303D01*
X123985372Y-78576453D01*
X123801782Y-78575328D01*
X123646650Y-78573897D01*
X123517665Y-78572129D01*
X123412513Y-78569992D01*
X123328882Y-78567456D01*
X123264460Y-78564490D01*
X123216934Y-78561061D01*
X123183992Y-78557138D01*
X123163322Y-78552691D01*
X123153106Y-78548074D01*
X123125360Y-78517556D01*
X123132834Y-78483766D01*
X123135491Y-78479282D01*
X123140716Y-78473186D01*
X123150078Y-78467761D01*
X123165969Y-78462961D01*
X123190777Y-78458739D01*
X123226894Y-78455050D01*
X123276709Y-78451848D01*
X123342613Y-78449086D01*
X123426996Y-78446720D01*
X123532248Y-78444702D01*
X123660759Y-78442987D01*
X123814920Y-78441528D01*
X123997121Y-78440281D01*
X124209751Y-78439198D01*
X124455202Y-78438234D01*
X124735863Y-78437343D01*
X125054125Y-78436478D01*
X125404820Y-78435613D01*
X125761804Y-78434771D01*
X126078851Y-78434085D01*
X126358354Y-78433591D01*
X126602710Y-78433327D01*
X126814313Y-78433330D01*
X120584527Y-79125728D02*
X120496021Y-79123559D01*
X120496021Y-79123559D02*
X120430919Y-79119803D01*
X120430919Y-79119803D02*
X120384490Y-79114281D01*
X120384490Y-79114281D02*
X120352005Y-79106816D01*
X120352005Y-79106816D02*
X120329780Y-79097776D01*
X120329780Y-79097776D02*
X120272344Y-79046143D01*
X120272344Y-79046143D02*
X120242233Y-78971994D01*
X120242233Y-78971994D02*
X120244091Y-78888559D01*
X120244091Y-78888559D02*
X120249580Y-78869295D01*
X120249580Y-78869295D02*
X120261638Y-78836714D01*
X120261638Y-78836714D02*
X120276278Y-78810556D01*
X120276278Y-78810556D02*
X120297929Y-78790116D01*
X120297929Y-78790116D02*
X120331022Y-78774688D01*
X120331022Y-78774688D02*
X120379987Y-78763569D01*
X120379987Y-78763569D02*
X120449252Y-78756053D01*
X120449252Y-78756053D02*
X120543248Y-78751434D01*
X120543248Y-78751434D02*
X120666405Y-78749009D01*
X120666405Y-78749009D02*
X120823151Y-78748071D01*
X120823151Y-78748071D02*
X121012273Y-78747917D01*
X121012273Y-78747917D02*
X121665358Y-78747917D01*
X121665358Y-78747917D02*
X121729840Y-78812399D01*
X121729840Y-78812399D02*
X121771112Y-78860168D01*
X121771112Y-78860168D02*
X121785684Y-78902630D01*
X121785684Y-78902630D02*
X121781806Y-78954009D01*
X121781806Y-78954009D02*
X121761260Y-79018910D01*
X121761260Y-79018910D02*
X121728318Y-79072023D01*
X121728318Y-79072023D02*
X121725720Y-79074735D01*
X121725720Y-79074735D02*
X121711714Y-79087084D01*
X121711714Y-79087084D02*
X121693955Y-79096921D01*
X121693955Y-79096921D02*
X121667709Y-79104588D01*
X121667709Y-79104588D02*
X121628237Y-79110429D01*
X121628237Y-79110429D02*
X121570804Y-79114785D01*
X121570804Y-79114785D02*
X121490672Y-79118000D01*
X121490672Y-79118000D02*
X121383105Y-79120416D01*
X121383105Y-79120416D02*
X121243366Y-79122376D01*
X121243366Y-79122376D02*
X121066717Y-79124223D01*
X121066717Y-79124223D02*
X121037768Y-79124501D01*
X121037768Y-79124501D02*
X120850670Y-79126021D01*
X120850670Y-79126021D02*
X120701167Y-79126489D01*
X120701167Y-79126489D02*
X120584527Y-79125728D01*
X120584527Y-79125728D02*
X120584527Y-79125728D01*
G36*
X121729840Y-78812399D02*
G01*
X121771112Y-78860168D01*
X121785684Y-78902630D01*
X121781806Y-78954009D01*
X121761260Y-79018910D01*
X121728318Y-79072023D01*
X121725720Y-79074735D01*
X121711714Y-79087084D01*
X121693955Y-79096921D01*
X121667709Y-79104588D01*
X121628237Y-79110429D01*
X121570804Y-79114785D01*
X121490672Y-79118000D01*
X121383105Y-79120416D01*
X121243366Y-79122376D01*
X121066717Y-79124223D01*
X121037768Y-79124501D01*
X120850670Y-79126021D01*
X120701167Y-79126489D01*
X120584527Y-79125728D01*
X120496021Y-79123559D01*
X120430919Y-79119803D01*
X120384490Y-79114281D01*
X120352005Y-79106816D01*
X120329780Y-79097776D01*
X120272344Y-79046143D01*
X120242233Y-78971994D01*
X120244091Y-78888559D01*
X120249580Y-78869295D01*
X120261638Y-78836714D01*
X120276278Y-78810556D01*
X120297929Y-78790116D01*
X120331022Y-78774688D01*
X120379987Y-78763569D01*
X120449252Y-78756053D01*
X120543248Y-78751434D01*
X120666405Y-78749009D01*
X120823151Y-78748071D01*
X121012273Y-78747917D01*
X121665358Y-78747917D01*
X121729840Y-78812399D01*
G37*
X121729840Y-78812399D02*
X121771112Y-78860168D01*
X121785684Y-78902630D01*
X121781806Y-78954009D01*
X121761260Y-79018910D01*
X121728318Y-79072023D01*
X121725720Y-79074735D01*
X121711714Y-79087084D01*
X121693955Y-79096921D01*
X121667709Y-79104588D01*
X121628237Y-79110429D01*
X121570804Y-79114785D01*
X121490672Y-79118000D01*
X121383105Y-79120416D01*
X121243366Y-79122376D01*
X121066717Y-79124223D01*
X121037768Y-79124501D01*
X120850670Y-79126021D01*
X120701167Y-79126489D01*
X120584527Y-79125728D01*
X120496021Y-79123559D01*
X120430919Y-79119803D01*
X120384490Y-79114281D01*
X120352005Y-79106816D01*
X120329780Y-79097776D01*
X120272344Y-79046143D01*
X120242233Y-78971994D01*
X120244091Y-78888559D01*
X120249580Y-78869295D01*
X120261638Y-78836714D01*
X120276278Y-78810556D01*
X120297929Y-78790116D01*
X120331022Y-78774688D01*
X120379987Y-78763569D01*
X120449252Y-78756053D01*
X120543248Y-78751434D01*
X120666405Y-78749009D01*
X120823151Y-78748071D01*
X121012273Y-78747917D01*
X121665358Y-78747917D01*
X121729840Y-78812399D01*
X125216773Y-79128803D02*
X125071516Y-79128266D01*
X125071516Y-79128266D02*
X124959162Y-79127017D01*
X124959162Y-79127017D02*
X124874994Y-79124768D01*
X124874994Y-79124768D02*
X124814297Y-79121227D01*
X124814297Y-79121227D02*
X124772355Y-79116107D01*
X124772355Y-79116107D02*
X124744454Y-79109116D01*
X124744454Y-79109116D02*
X124725876Y-79099967D01*
X124725876Y-79099967D02*
X124711907Y-79088368D01*
X124711907Y-79088368D02*
X124710102Y-79086584D01*
X124710102Y-79086584D02*
X124679025Y-79048676D01*
X124679025Y-79048676D02*
X124667768Y-79023084D01*
X124667768Y-79023084D02*
X124646789Y-79016903D01*
X124646789Y-79016903D02*
X124584574Y-79011745D01*
X124584574Y-79011745D02*
X124482211Y-79007638D01*
X124482211Y-79007638D02*
X124340787Y-79004613D01*
X124340787Y-79004613D02*
X124161388Y-79002701D01*
X124161388Y-79002701D02*
X123945101Y-79001932D01*
X123945101Y-79001932D02*
X123907195Y-79001917D01*
X123907195Y-79001917D02*
X123707775Y-79001847D01*
X123707775Y-79001847D02*
X123546541Y-79001488D01*
X123546541Y-79001488D02*
X123419345Y-79000612D01*
X123419345Y-79000612D02*
X123322041Y-78998995D01*
X123322041Y-78998995D02*
X123250479Y-78996410D01*
X123250479Y-78996410D02*
X123200514Y-78992631D01*
X123200514Y-78992631D02*
X123167997Y-78987433D01*
X123167997Y-78987433D02*
X123148781Y-78980591D01*
X123148781Y-78980591D02*
X123138719Y-78971877D01*
X123138719Y-78971877D02*
X123133663Y-78961066D01*
X123133663Y-78961066D02*
X123133245Y-78959773D01*
X123133245Y-78959773D02*
X123127968Y-78915740D01*
X123127968Y-78915740D02*
X123133068Y-78896273D01*
X123133068Y-78896273D02*
X123158121Y-78890076D01*
X123158121Y-78890076D02*
X123224057Y-78884881D01*
X123224057Y-78884881D02*
X123329435Y-78880730D01*
X123329435Y-78880730D02*
X123472815Y-78877661D01*
X123472815Y-78877661D02*
X123652757Y-78875715D01*
X123652757Y-78875715D02*
X123867821Y-78874932D01*
X123867821Y-78874932D02*
X123904549Y-78874917D01*
X123904549Y-78874917D02*
X124103904Y-78874820D01*
X124103904Y-78874820D02*
X124265050Y-78874389D01*
X124265050Y-78874389D02*
X124392111Y-78873415D01*
X124392111Y-78873415D02*
X124489210Y-78871686D01*
X124489210Y-78871686D02*
X124560472Y-78868995D01*
X124560472Y-78868995D02*
X124610021Y-78865130D01*
X124610021Y-78865130D02*
X124641981Y-78859881D01*
X124641981Y-78859881D02*
X124660476Y-78853040D01*
X124660476Y-78853040D02*
X124669629Y-78844396D01*
X124669629Y-78844396D02*
X124673057Y-78835812D01*
X124673057Y-78835812D02*
X124703622Y-78801771D01*
X124703622Y-78801771D02*
X124765484Y-78783128D01*
X124765484Y-78783128D02*
X124807396Y-78779789D01*
X124807396Y-78779789D02*
X124884258Y-78777078D01*
X124884258Y-78777078D02*
X124989164Y-78774993D01*
X124989164Y-78774993D02*
X125115210Y-78773526D01*
X125115210Y-78773526D02*
X125255488Y-78772673D01*
X125255488Y-78772673D02*
X125403093Y-78772428D01*
X125403093Y-78772428D02*
X125551119Y-78772786D01*
X125551119Y-78772786D02*
X125692660Y-78773742D01*
X125692660Y-78773742D02*
X125820811Y-78775290D01*
X125820811Y-78775290D02*
X125928664Y-78777426D01*
X125928664Y-78777426D02*
X126009315Y-78780142D01*
X126009315Y-78780142D02*
X126055858Y-78783436D01*
X126055858Y-78783436D02*
X126060283Y-78784127D01*
X126060283Y-78784127D02*
X126110194Y-78808657D01*
X126110194Y-78808657D02*
X126134166Y-78834162D01*
X126134166Y-78834162D02*
X126142557Y-78844897D01*
X126142557Y-78844897D02*
X126155754Y-78853564D01*
X126155754Y-78853564D02*
X126177986Y-78860383D01*
X126177986Y-78860383D02*
X126213480Y-78865574D01*
X126213480Y-78865574D02*
X126266463Y-78869359D01*
X126266463Y-78869359D02*
X126341164Y-78871958D01*
X126341164Y-78871958D02*
X126441810Y-78873592D01*
X126441810Y-78873592D02*
X126572629Y-78874483D01*
X126572629Y-78874483D02*
X126737848Y-78874851D01*
X126737848Y-78874851D02*
X126914262Y-78874917D01*
X126914262Y-78874917D02*
X127114366Y-78875072D01*
X127114366Y-78875072D02*
X127276221Y-78875660D01*
X127276221Y-78875660D02*
X127403909Y-78876862D01*
X127403909Y-78876862D02*
X127501513Y-78878863D01*
X127501513Y-78878863D02*
X127573117Y-78881846D01*
X127573117Y-78881846D02*
X127622803Y-78885993D01*
X127622803Y-78885993D02*
X127654654Y-78891488D01*
X127654654Y-78891488D02*
X127672754Y-78898514D01*
X127672754Y-78898514D02*
X127681185Y-78907254D01*
X127681185Y-78907254D02*
X127682119Y-78909350D01*
X127682119Y-78909350D02*
X127689556Y-78932965D01*
X127689556Y-78932965D02*
X127689434Y-78952186D01*
X127689434Y-78952186D02*
X127677992Y-78967464D01*
X127677992Y-78967464D02*
X127651470Y-78979250D01*
X127651470Y-78979250D02*
X127606108Y-78987996D01*
X127606108Y-78987996D02*
X127538144Y-78994153D01*
X127538144Y-78994153D02*
X127443818Y-78998172D01*
X127443818Y-78998172D02*
X127319369Y-79000503D01*
X127319369Y-79000503D02*
X127161037Y-79001599D01*
X127161037Y-79001599D02*
X126965061Y-79001909D01*
X126965061Y-79001909D02*
X126910472Y-79001917D01*
X126910472Y-79001917D02*
X126173858Y-79001917D01*
X126173858Y-79001917D02*
X126046858Y-79128917D01*
X126046858Y-79128917D02*
X125399647Y-79128917D01*
X125399647Y-79128917D02*
X125216773Y-79128803D01*
X125216773Y-79128803D02*
X125216773Y-79128803D01*
G36*
X125551119Y-78772786D02*
G01*
X125692660Y-78773742D01*
X125820811Y-78775290D01*
X125928664Y-78777426D01*
X126009315Y-78780142D01*
X126055858Y-78783436D01*
X126060283Y-78784127D01*
X126110194Y-78808657D01*
X126134166Y-78834162D01*
X126142557Y-78844897D01*
X126155754Y-78853564D01*
X126177986Y-78860383D01*
X126213480Y-78865574D01*
X126266463Y-78869359D01*
X126341164Y-78871958D01*
X126441810Y-78873592D01*
X126572629Y-78874483D01*
X126737848Y-78874851D01*
X126914262Y-78874917D01*
X127114366Y-78875072D01*
X127276221Y-78875660D01*
X127403909Y-78876862D01*
X127501513Y-78878863D01*
X127573117Y-78881846D01*
X127622803Y-78885993D01*
X127654654Y-78891488D01*
X127672754Y-78898514D01*
X127681185Y-78907254D01*
X127682119Y-78909350D01*
X127689556Y-78932965D01*
X127689434Y-78952186D01*
X127677992Y-78967464D01*
X127651470Y-78979250D01*
X127606108Y-78987996D01*
X127538144Y-78994153D01*
X127443818Y-78998172D01*
X127319369Y-79000503D01*
X127161037Y-79001599D01*
X126965061Y-79001909D01*
X126910472Y-79001917D01*
X126173858Y-79001917D01*
X126046858Y-79128917D01*
X125399647Y-79128917D01*
X125216773Y-79128803D01*
X125071516Y-79128266D01*
X124959162Y-79127017D01*
X124874994Y-79124768D01*
X124814297Y-79121227D01*
X124772355Y-79116107D01*
X124744454Y-79109116D01*
X124725876Y-79099967D01*
X124711907Y-79088368D01*
X124710102Y-79086584D01*
X124679025Y-79048676D01*
X124667768Y-79023084D01*
X124646789Y-79016903D01*
X124584574Y-79011745D01*
X124482211Y-79007638D01*
X124340787Y-79004613D01*
X124161388Y-79002701D01*
X123945101Y-79001932D01*
X123907195Y-79001917D01*
X123707775Y-79001847D01*
X123546541Y-79001488D01*
X123419345Y-79000612D01*
X123322041Y-78998995D01*
X123250479Y-78996410D01*
X123200514Y-78992631D01*
X123167997Y-78987433D01*
X123148781Y-78980591D01*
X123138719Y-78971877D01*
X123133663Y-78961066D01*
X123133245Y-78959773D01*
X123127968Y-78915740D01*
X123133068Y-78896273D01*
X123158121Y-78890076D01*
X123224057Y-78884881D01*
X123329435Y-78880730D01*
X123472815Y-78877661D01*
X123652757Y-78875715D01*
X123867821Y-78874932D01*
X123904549Y-78874917D01*
X124103904Y-78874820D01*
X124265050Y-78874389D01*
X124392111Y-78873415D01*
X124489210Y-78871686D01*
X124560472Y-78868995D01*
X124610021Y-78865130D01*
X124641981Y-78859881D01*
X124660476Y-78853040D01*
X124669629Y-78844396D01*
X124673057Y-78835812D01*
X124703622Y-78801771D01*
X124765484Y-78783128D01*
X124807396Y-78779789D01*
X124884258Y-78777078D01*
X124989164Y-78774993D01*
X125115210Y-78773526D01*
X125255488Y-78772673D01*
X125403093Y-78772428D01*
X125551119Y-78772786D01*
G37*
X125551119Y-78772786D02*
X125692660Y-78773742D01*
X125820811Y-78775290D01*
X125928664Y-78777426D01*
X126009315Y-78780142D01*
X126055858Y-78783436D01*
X126060283Y-78784127D01*
X126110194Y-78808657D01*
X126134166Y-78834162D01*
X126142557Y-78844897D01*
X126155754Y-78853564D01*
X126177986Y-78860383D01*
X126213480Y-78865574D01*
X126266463Y-78869359D01*
X126341164Y-78871958D01*
X126441810Y-78873592D01*
X126572629Y-78874483D01*
X126737848Y-78874851D01*
X126914262Y-78874917D01*
X127114366Y-78875072D01*
X127276221Y-78875660D01*
X127403909Y-78876862D01*
X127501513Y-78878863D01*
X127573117Y-78881846D01*
X127622803Y-78885993D01*
X127654654Y-78891488D01*
X127672754Y-78898514D01*
X127681185Y-78907254D01*
X127682119Y-78909350D01*
X127689556Y-78932965D01*
X127689434Y-78952186D01*
X127677992Y-78967464D01*
X127651470Y-78979250D01*
X127606108Y-78987996D01*
X127538144Y-78994153D01*
X127443818Y-78998172D01*
X127319369Y-79000503D01*
X127161037Y-79001599D01*
X126965061Y-79001909D01*
X126910472Y-79001917D01*
X126173858Y-79001917D01*
X126046858Y-79128917D01*
X125399647Y-79128917D01*
X125216773Y-79128803D01*
X125071516Y-79128266D01*
X124959162Y-79127017D01*
X124874994Y-79124768D01*
X124814297Y-79121227D01*
X124772355Y-79116107D01*
X124744454Y-79109116D01*
X124725876Y-79099967D01*
X124711907Y-79088368D01*
X124710102Y-79086584D01*
X124679025Y-79048676D01*
X124667768Y-79023084D01*
X124646789Y-79016903D01*
X124584574Y-79011745D01*
X124482211Y-79007638D01*
X124340787Y-79004613D01*
X124161388Y-79002701D01*
X123945101Y-79001932D01*
X123907195Y-79001917D01*
X123707775Y-79001847D01*
X123546541Y-79001488D01*
X123419345Y-79000612D01*
X123322041Y-78998995D01*
X123250479Y-78996410D01*
X123200514Y-78992631D01*
X123167997Y-78987433D01*
X123148781Y-78980591D01*
X123138719Y-78971877D01*
X123133663Y-78961066D01*
X123133245Y-78959773D01*
X123127968Y-78915740D01*
X123133068Y-78896273D01*
X123158121Y-78890076D01*
X123224057Y-78884881D01*
X123329435Y-78880730D01*
X123472815Y-78877661D01*
X123652757Y-78875715D01*
X123867821Y-78874932D01*
X123904549Y-78874917D01*
X124103904Y-78874820D01*
X124265050Y-78874389D01*
X124392111Y-78873415D01*
X124489210Y-78871686D01*
X124560472Y-78868995D01*
X124610021Y-78865130D01*
X124641981Y-78859881D01*
X124660476Y-78853040D01*
X124669629Y-78844396D01*
X124673057Y-78835812D01*
X124703622Y-78801771D01*
X124765484Y-78783128D01*
X124807396Y-78779789D01*
X124884258Y-78777078D01*
X124989164Y-78774993D01*
X125115210Y-78773526D01*
X125255488Y-78772673D01*
X125403093Y-78772428D01*
X125551119Y-78772786D01*
X124692717Y-79499334D02*
X124651093Y-79446417D01*
X124651093Y-79446417D02*
X123160444Y-79446417D01*
X123160444Y-79446417D02*
X123118820Y-79499334D01*
X123118820Y-79499334D02*
X123077196Y-79552250D01*
X123077196Y-79552250D02*
X121019028Y-79552250D01*
X121019028Y-79552250D02*
X120662495Y-79552142D01*
X120662495Y-79552142D02*
X120346202Y-79551798D01*
X120346202Y-79551798D02*
X120068055Y-79551193D01*
X120068055Y-79551193D02*
X119825961Y-79550300D01*
X119825961Y-79550300D02*
X119617826Y-79549092D01*
X119617826Y-79549092D02*
X119441557Y-79547544D01*
X119441557Y-79547544D02*
X119295060Y-79545628D01*
X119295060Y-79545628D02*
X119176243Y-79543319D01*
X119176243Y-79543319D02*
X119083011Y-79540589D01*
X119083011Y-79540589D02*
X119013272Y-79537413D01*
X119013272Y-79537413D02*
X118964932Y-79533763D01*
X118964932Y-79533763D02*
X118935897Y-79529614D01*
X118935897Y-79529614D02*
X118924987Y-79525792D01*
X118924987Y-79525792D02*
X118884616Y-79472504D01*
X118884616Y-79472504D02*
X118866200Y-79398681D01*
X118866200Y-79398681D02*
X118869758Y-79319777D01*
X118869758Y-79319777D02*
X118895306Y-79251248D01*
X118895306Y-79251248D02*
X118924642Y-79218900D01*
X118924642Y-79218900D02*
X118939342Y-79214315D01*
X118939342Y-79214315D02*
X118971560Y-79210252D01*
X118971560Y-79210252D02*
X119023393Y-79206685D01*
X119023393Y-79206685D02*
X119096939Y-79203586D01*
X119096939Y-79203586D02*
X119194294Y-79200930D01*
X119194294Y-79200930D02*
X119317553Y-79198689D01*
X119317553Y-79198689D02*
X119468815Y-79196838D01*
X119468815Y-79196838D02*
X119650175Y-79195349D01*
X119650175Y-79195349D02*
X119863731Y-79194197D01*
X119863731Y-79194197D02*
X120111579Y-79193354D01*
X120111579Y-79193354D02*
X120395815Y-79192795D01*
X120395815Y-79192795D02*
X120718536Y-79192492D01*
X120718536Y-79192492D02*
X121019052Y-79192417D01*
X121019052Y-79192417D02*
X121362697Y-79192469D01*
X121362697Y-79192469D02*
X121666475Y-79192651D01*
X121666475Y-79192651D02*
X121932850Y-79193002D01*
X121932850Y-79193002D02*
X122164288Y-79193561D01*
X122164288Y-79193561D02*
X122363255Y-79194368D01*
X122363255Y-79194368D02*
X122532217Y-79195462D01*
X122532217Y-79195462D02*
X122673638Y-79196881D01*
X122673638Y-79196881D02*
X122789984Y-79198666D01*
X122789984Y-79198666D02*
X122883722Y-79200855D01*
X122883722Y-79200855D02*
X122957315Y-79203488D01*
X122957315Y-79203488D02*
X123013231Y-79206603D01*
X123013231Y-79206603D02*
X123053933Y-79210241D01*
X123053933Y-79210241D02*
X123081889Y-79214440D01*
X123081889Y-79214440D02*
X123099563Y-79219239D01*
X123099563Y-79219239D02*
X123109421Y-79224678D01*
X123109421Y-79224678D02*
X123110507Y-79225679D01*
X123110507Y-79225679D02*
X123137224Y-79260378D01*
X123137224Y-79260378D02*
X123143768Y-79278596D01*
X123143768Y-79278596D02*
X123164378Y-79283653D01*
X123164378Y-79283653D02*
X123223986Y-79288099D01*
X123223986Y-79288099D02*
X123319259Y-79291848D01*
X123319259Y-79291848D02*
X123446866Y-79294815D01*
X123446866Y-79294815D02*
X123603474Y-79296914D01*
X123603474Y-79296914D02*
X123785752Y-79298058D01*
X123785752Y-79298058D02*
X123905768Y-79298250D01*
X123905768Y-79298250D02*
X124101818Y-79297719D01*
X124101818Y-79297719D02*
X124274193Y-79296181D01*
X124274193Y-79296181D02*
X124419561Y-79293724D01*
X124419561Y-79293724D02*
X124534590Y-79290433D01*
X124534590Y-79290433D02*
X124615948Y-79286393D01*
X124615948Y-79286393D02*
X124660303Y-79281691D01*
X124660303Y-79281691D02*
X124667768Y-79278596D01*
X124667768Y-79278596D02*
X124681277Y-79249300D01*
X124681277Y-79249300D02*
X124701030Y-79225679D01*
X124701030Y-79225679D02*
X124714936Y-79216330D01*
X124714936Y-79216330D02*
X124738853Y-79208877D01*
X124738853Y-79208877D02*
X124777178Y-79203116D01*
X124777178Y-79203116D02*
X124834311Y-79198838D01*
X124834311Y-79198838D02*
X124914650Y-79195839D01*
X124914650Y-79195839D02*
X125022594Y-79193910D01*
X125022594Y-79193910D02*
X125162541Y-79192847D01*
X125162541Y-79192847D02*
X125338890Y-79192442D01*
X125338890Y-79192442D02*
X125409626Y-79192417D01*
X125409626Y-79192417D02*
X126084959Y-79192417D01*
X126084959Y-79192417D02*
X126119632Y-79245334D01*
X126119632Y-79245334D02*
X126154304Y-79298250D01*
X126154304Y-79298250D02*
X126902541Y-79298250D01*
X126902541Y-79298250D02*
X127100395Y-79298339D01*
X127100395Y-79298339D02*
X127260143Y-79298756D01*
X127260143Y-79298756D02*
X127386011Y-79299724D01*
X127386011Y-79299724D02*
X127482227Y-79301469D01*
X127482227Y-79301469D02*
X127553017Y-79304214D01*
X127553017Y-79304214D02*
X127602609Y-79308183D01*
X127602609Y-79308183D02*
X127635230Y-79313602D01*
X127635230Y-79313602D02*
X127655105Y-79320693D01*
X127655105Y-79320693D02*
X127666464Y-79329683D01*
X127666464Y-79329683D02*
X127672648Y-79339114D01*
X127672648Y-79339114D02*
X127681884Y-79381746D01*
X127681884Y-79381746D02*
X127661298Y-79413197D01*
X127661298Y-79413197D02*
X127647921Y-79422167D01*
X127647921Y-79422167D02*
X127624793Y-79429394D01*
X127624793Y-79429394D02*
X127587715Y-79435059D01*
X127587715Y-79435059D02*
X127532488Y-79439345D01*
X127532488Y-79439345D02*
X127454913Y-79442431D01*
X127454913Y-79442431D02*
X127350793Y-79444499D01*
X127350793Y-79444499D02*
X127215927Y-79445731D01*
X127215927Y-79445731D02*
X127046118Y-79446307D01*
X127046118Y-79446307D02*
X126891191Y-79446417D01*
X126891191Y-79446417D02*
X126154304Y-79446417D01*
X126154304Y-79446417D02*
X126119632Y-79499334D01*
X126119632Y-79499334D02*
X126084959Y-79552250D01*
X126084959Y-79552250D02*
X124734341Y-79552250D01*
X124734341Y-79552250D02*
X124692717Y-79499334D01*
X124692717Y-79499334D02*
X124692717Y-79499334D01*
G36*
X126119632Y-79245334D02*
G01*
X126154304Y-79298250D01*
X126902541Y-79298250D01*
X127100395Y-79298339D01*
X127260143Y-79298756D01*
X127386011Y-79299724D01*
X127482227Y-79301469D01*
X127553017Y-79304214D01*
X127602609Y-79308183D01*
X127635230Y-79313602D01*
X127655105Y-79320693D01*
X127666464Y-79329683D01*
X127672648Y-79339114D01*
X127681884Y-79381746D01*
X127661298Y-79413197D01*
X127647921Y-79422167D01*
X127624793Y-79429394D01*
X127587715Y-79435059D01*
X127532488Y-79439345D01*
X127454913Y-79442431D01*
X127350793Y-79444499D01*
X127215927Y-79445731D01*
X127046118Y-79446307D01*
X126891191Y-79446417D01*
X126154304Y-79446417D01*
X126119632Y-79499334D01*
X126084959Y-79552250D01*
X124734341Y-79552250D01*
X124692717Y-79499334D01*
X124651093Y-79446417D01*
X123160444Y-79446417D01*
X123118820Y-79499334D01*
X123077196Y-79552250D01*
X121019028Y-79552250D01*
X120662495Y-79552142D01*
X120346202Y-79551798D01*
X120068055Y-79551193D01*
X119825961Y-79550300D01*
X119617826Y-79549092D01*
X119441557Y-79547544D01*
X119295060Y-79545628D01*
X119176243Y-79543319D01*
X119083011Y-79540589D01*
X119013272Y-79537413D01*
X118964932Y-79533763D01*
X118935897Y-79529614D01*
X118924987Y-79525792D01*
X118884616Y-79472504D01*
X118866200Y-79398681D01*
X118869758Y-79319777D01*
X118895306Y-79251248D01*
X118924642Y-79218900D01*
X118939342Y-79214315D01*
X118971560Y-79210252D01*
X119023393Y-79206685D01*
X119096939Y-79203586D01*
X119194294Y-79200930D01*
X119317553Y-79198689D01*
X119468815Y-79196838D01*
X119650175Y-79195349D01*
X119863731Y-79194197D01*
X120111579Y-79193354D01*
X120395815Y-79192795D01*
X120718536Y-79192492D01*
X121019052Y-79192417D01*
X121362697Y-79192469D01*
X121666475Y-79192651D01*
X121932850Y-79193002D01*
X122164288Y-79193561D01*
X122363255Y-79194368D01*
X122532217Y-79195462D01*
X122673638Y-79196881D01*
X122789984Y-79198666D01*
X122883722Y-79200855D01*
X122957315Y-79203488D01*
X123013231Y-79206603D01*
X123053933Y-79210241D01*
X123081889Y-79214440D01*
X123099563Y-79219239D01*
X123109421Y-79224678D01*
X123110507Y-79225679D01*
X123137224Y-79260378D01*
X123143768Y-79278596D01*
X123164378Y-79283653D01*
X123223986Y-79288099D01*
X123319259Y-79291848D01*
X123446866Y-79294815D01*
X123603474Y-79296914D01*
X123785752Y-79298058D01*
X123905768Y-79298250D01*
X124101818Y-79297719D01*
X124274193Y-79296181D01*
X124419561Y-79293724D01*
X124534590Y-79290433D01*
X124615948Y-79286393D01*
X124660303Y-79281691D01*
X124667768Y-79278596D01*
X124681277Y-79249300D01*
X124701030Y-79225679D01*
X124714936Y-79216330D01*
X124738853Y-79208877D01*
X124777178Y-79203116D01*
X124834311Y-79198838D01*
X124914650Y-79195839D01*
X125022594Y-79193910D01*
X125162541Y-79192847D01*
X125338890Y-79192442D01*
X125409626Y-79192417D01*
X126084959Y-79192417D01*
X126119632Y-79245334D01*
G37*
X126119632Y-79245334D02*
X126154304Y-79298250D01*
X126902541Y-79298250D01*
X127100395Y-79298339D01*
X127260143Y-79298756D01*
X127386011Y-79299724D01*
X127482227Y-79301469D01*
X127553017Y-79304214D01*
X127602609Y-79308183D01*
X127635230Y-79313602D01*
X127655105Y-79320693D01*
X127666464Y-79329683D01*
X127672648Y-79339114D01*
X127681884Y-79381746D01*
X127661298Y-79413197D01*
X127647921Y-79422167D01*
X127624793Y-79429394D01*
X127587715Y-79435059D01*
X127532488Y-79439345D01*
X127454913Y-79442431D01*
X127350793Y-79444499D01*
X127215927Y-79445731D01*
X127046118Y-79446307D01*
X126891191Y-79446417D01*
X126154304Y-79446417D01*
X126119632Y-79499334D01*
X126084959Y-79552250D01*
X124734341Y-79552250D01*
X124692717Y-79499334D01*
X124651093Y-79446417D01*
X123160444Y-79446417D01*
X123118820Y-79499334D01*
X123077196Y-79552250D01*
X121019028Y-79552250D01*
X120662495Y-79552142D01*
X120346202Y-79551798D01*
X120068055Y-79551193D01*
X119825961Y-79550300D01*
X119617826Y-79549092D01*
X119441557Y-79547544D01*
X119295060Y-79545628D01*
X119176243Y-79543319D01*
X119083011Y-79540589D01*
X119013272Y-79537413D01*
X118964932Y-79533763D01*
X118935897Y-79529614D01*
X118924987Y-79525792D01*
X118884616Y-79472504D01*
X118866200Y-79398681D01*
X118869758Y-79319777D01*
X118895306Y-79251248D01*
X118924642Y-79218900D01*
X118939342Y-79214315D01*
X118971560Y-79210252D01*
X119023393Y-79206685D01*
X119096939Y-79203586D01*
X119194294Y-79200930D01*
X119317553Y-79198689D01*
X119468815Y-79196838D01*
X119650175Y-79195349D01*
X119863731Y-79194197D01*
X120111579Y-79193354D01*
X120395815Y-79192795D01*
X120718536Y-79192492D01*
X121019052Y-79192417D01*
X121362697Y-79192469D01*
X121666475Y-79192651D01*
X121932850Y-79193002D01*
X122164288Y-79193561D01*
X122363255Y-79194368D01*
X122532217Y-79195462D01*
X122673638Y-79196881D01*
X122789984Y-79198666D01*
X122883722Y-79200855D01*
X122957315Y-79203488D01*
X123013231Y-79206603D01*
X123053933Y-79210241D01*
X123081889Y-79214440D01*
X123099563Y-79219239D01*
X123109421Y-79224678D01*
X123110507Y-79225679D01*
X123137224Y-79260378D01*
X123143768Y-79278596D01*
X123164378Y-79283653D01*
X123223986Y-79288099D01*
X123319259Y-79291848D01*
X123446866Y-79294815D01*
X123603474Y-79296914D01*
X123785752Y-79298058D01*
X123905768Y-79298250D01*
X124101818Y-79297719D01*
X124274193Y-79296181D01*
X124419561Y-79293724D01*
X124534590Y-79290433D01*
X124615948Y-79286393D01*
X124660303Y-79281691D01*
X124667768Y-79278596D01*
X124681277Y-79249300D01*
X124701030Y-79225679D01*
X124714936Y-79216330D01*
X124738853Y-79208877D01*
X124777178Y-79203116D01*
X124834311Y-79198838D01*
X124914650Y-79195839D01*
X125022594Y-79193910D01*
X125162541Y-79192847D01*
X125338890Y-79192442D01*
X125409626Y-79192417D01*
X126084959Y-79192417D01*
X126119632Y-79245334D01*
X118919312Y-79947735D02*
X118872999Y-79882608D01*
X118872999Y-79882608D02*
X118858246Y-79803606D01*
X118858246Y-79803606D02*
X118875055Y-79725073D01*
X118875055Y-79725073D02*
X118919312Y-79664766D01*
X118919312Y-79664766D02*
X118976296Y-79615750D01*
X118976296Y-79615750D02*
X121012989Y-79615750D01*
X121012989Y-79615750D02*
X121355345Y-79615807D01*
X121355345Y-79615807D02*
X121657858Y-79616001D01*
X121657858Y-79616001D02*
X121923014Y-79616373D01*
X121923014Y-79616373D02*
X122153305Y-79616961D01*
X122153305Y-79616961D02*
X122351218Y-79617807D01*
X122351218Y-79617807D02*
X122519243Y-79618947D01*
X122519243Y-79618947D02*
X122659868Y-79620423D01*
X122659868Y-79620423D02*
X122775582Y-79622273D01*
X122775582Y-79622273D02*
X122868876Y-79624537D01*
X122868876Y-79624537D02*
X122942236Y-79627254D01*
X122942236Y-79627254D02*
X122998153Y-79630464D01*
X122998153Y-79630464D02*
X123039115Y-79634205D01*
X123039115Y-79634205D02*
X123067612Y-79638518D01*
X123067612Y-79638518D02*
X123086132Y-79643441D01*
X123086132Y-79643441D02*
X123096725Y-79648701D01*
X123096725Y-79648701D02*
X123131919Y-79683683D01*
X123131919Y-79683683D02*
X123143768Y-79712201D01*
X123143768Y-79712201D02*
X123148819Y-79720331D01*
X123148819Y-79720331D02*
X123166530Y-79726917D01*
X123166530Y-79726917D02*
X123200738Y-79732115D01*
X123200738Y-79732115D02*
X123255282Y-79736077D01*
X123255282Y-79736077D02*
X123334001Y-79738957D01*
X123334001Y-79738957D02*
X123440731Y-79740909D01*
X123440731Y-79740909D02*
X123579312Y-79742088D01*
X123579312Y-79742088D02*
X123753580Y-79742646D01*
X123753580Y-79742646D02*
X123905768Y-79742750D01*
X123905768Y-79742750D02*
X124128093Y-79742168D01*
X124128093Y-79742168D02*
X124313695Y-79740439D01*
X124313695Y-79740439D02*
X124461489Y-79737596D01*
X124461489Y-79737596D02*
X124570393Y-79733667D01*
X124570393Y-79733667D02*
X124639322Y-79728683D01*
X124639322Y-79728683D02*
X124667191Y-79722673D01*
X124667191Y-79722673D02*
X124667768Y-79721584D01*
X124667768Y-79721584D02*
X124681431Y-79692383D01*
X124681431Y-79692383D02*
X124710102Y-79658084D01*
X124710102Y-79658084D02*
X124723714Y-79646204D01*
X124723714Y-79646204D02*
X124741263Y-79636779D01*
X124741263Y-79636779D02*
X124767430Y-79629527D01*
X124767430Y-79629527D02*
X124806893Y-79624164D01*
X124806893Y-79624164D02*
X124864332Y-79620406D01*
X124864332Y-79620406D02*
X124944425Y-79617970D01*
X124944425Y-79617970D02*
X125051852Y-79616571D01*
X125051852Y-79616571D02*
X125191292Y-79615927D01*
X125191292Y-79615927D02*
X125367424Y-79615754D01*
X125367424Y-79615754D02*
X125408602Y-79615750D01*
X125408602Y-79615750D02*
X125592856Y-79615862D01*
X125592856Y-79615862D02*
X125739456Y-79616386D01*
X125739456Y-79616386D02*
X125853081Y-79617607D01*
X125853081Y-79617607D02*
X125938411Y-79619807D01*
X125938411Y-79619807D02*
X126000125Y-79623270D01*
X126000125Y-79623270D02*
X126042901Y-79628280D01*
X126042901Y-79628280D02*
X126071419Y-79635121D01*
X126071419Y-79635121D02*
X126090358Y-79644075D01*
X126090358Y-79644075D02*
X126104397Y-79655427D01*
X126104397Y-79655427D02*
X126107102Y-79658084D01*
X126107102Y-79658084D02*
X126138179Y-79695992D01*
X126138179Y-79695992D02*
X126149435Y-79721584D01*
X126149435Y-79721584D02*
X126170411Y-79727804D01*
X126170411Y-79727804D02*
X126232597Y-79732989D01*
X126232597Y-79732989D02*
X126334882Y-79737106D01*
X126334882Y-79737106D02*
X126476155Y-79740125D01*
X126476155Y-79740125D02*
X126655306Y-79742015D01*
X126655306Y-79742015D02*
X126871223Y-79742743D01*
X126871223Y-79742743D02*
X126898260Y-79742750D01*
X126898260Y-79742750D02*
X127105803Y-79742929D01*
X127105803Y-79742929D02*
X127274750Y-79743760D01*
X127274750Y-79743760D02*
X127408837Y-79745683D01*
X127408837Y-79745683D02*
X127511801Y-79749141D01*
X127511801Y-79749141D02*
X127587378Y-79754574D01*
X127587378Y-79754574D02*
X127639306Y-79762424D01*
X127639306Y-79762424D02*
X127671320Y-79773132D01*
X127671320Y-79773132D02*
X127687157Y-79787139D01*
X127687157Y-79787139D02*
X127690554Y-79804887D01*
X127690554Y-79804887D02*
X127685247Y-79826817D01*
X127685247Y-79826817D02*
X127682119Y-79835318D01*
X127682119Y-79835318D02*
X127675236Y-79844417D01*
X127675236Y-79844417D02*
X127659573Y-79851775D01*
X127659573Y-79851775D02*
X127631061Y-79857573D01*
X127631061Y-79857573D02*
X127585630Y-79861992D01*
X127585630Y-79861992D02*
X127519212Y-79865212D01*
X127519212Y-79865212D02*
X127427738Y-79867417D01*
X127427738Y-79867417D02*
X127307137Y-79868786D01*
X127307137Y-79868786D02*
X127153343Y-79869500D01*
X127153343Y-79869500D02*
X126962284Y-79869743D01*
X126962284Y-79869743D02*
X126909171Y-79869750D01*
X126909171Y-79869750D02*
X126687234Y-79870335D01*
X126687234Y-79870335D02*
X126502006Y-79872068D01*
X126502006Y-79872068D02*
X126354576Y-79874920D01*
X126354576Y-79874920D02*
X126246031Y-79878860D01*
X126246031Y-79878860D02*
X126177461Y-79883858D01*
X126177461Y-79883858D02*
X126149953Y-79889883D01*
X126149953Y-79889883D02*
X126149435Y-79890917D01*
X126149435Y-79890917D02*
X126135773Y-79920118D01*
X126135773Y-79920118D02*
X126107102Y-79954417D01*
X126107102Y-79954417D02*
X126093490Y-79966297D01*
X126093490Y-79966297D02*
X126075940Y-79975722D01*
X126075940Y-79975722D02*
X126049773Y-79982974D01*
X126049773Y-79982974D02*
X126010310Y-79988337D01*
X126010310Y-79988337D02*
X125952872Y-79992095D01*
X125952872Y-79992095D02*
X125872779Y-79994531D01*
X125872779Y-79994531D02*
X125765352Y-79995930D01*
X125765352Y-79995930D02*
X125625912Y-79996574D01*
X125625912Y-79996574D02*
X125449780Y-79996747D01*
X125449780Y-79996747D02*
X125408602Y-79996750D01*
X125408602Y-79996750D02*
X125224348Y-79996639D01*
X125224348Y-79996639D02*
X125077748Y-79996115D01*
X125077748Y-79996115D02*
X124964122Y-79994894D01*
X124964122Y-79994894D02*
X124878792Y-79992694D01*
X124878792Y-79992694D02*
X124817079Y-79989231D01*
X124817079Y-79989231D02*
X124774303Y-79984221D01*
X124774303Y-79984221D02*
X124745785Y-79977380D01*
X124745785Y-79977380D02*
X124726846Y-79968426D01*
X124726846Y-79968426D02*
X124712807Y-79957074D01*
X124712807Y-79957074D02*
X124710102Y-79954417D01*
X124710102Y-79954417D02*
X124679025Y-79916509D01*
X124679025Y-79916509D02*
X124667768Y-79890917D01*
X124667768Y-79890917D02*
X124646788Y-79884741D01*
X124646788Y-79884741D02*
X124584570Y-79879586D01*
X124584570Y-79879586D02*
X124482198Y-79875480D01*
X124482198Y-79875480D02*
X124340756Y-79872455D01*
X124340756Y-79872455D02*
X124161327Y-79870541D01*
X124161327Y-79870541D02*
X123944996Y-79869767D01*
X123944996Y-79869767D02*
X123905768Y-79869750D01*
X123905768Y-79869750D02*
X123702982Y-79869953D01*
X123702982Y-79869953D02*
X123538690Y-79870663D01*
X123538690Y-79870663D02*
X123409053Y-79872034D01*
X123409053Y-79872034D02*
X123310234Y-79874221D01*
X123310234Y-79874221D02*
X123238395Y-79877377D01*
X123238395Y-79877377D02*
X123189698Y-79881656D01*
X123189698Y-79881656D02*
X123160304Y-79887212D01*
X123160304Y-79887212D02*
X123146376Y-79894199D01*
X123146376Y-79894199D02*
X123143768Y-79900300D01*
X123143768Y-79900300D02*
X123127858Y-79934299D01*
X123127858Y-79934299D02*
X123096725Y-79963800D01*
X123096725Y-79963800D02*
X123085358Y-79969338D01*
X123085358Y-79969338D02*
X123066371Y-79974227D01*
X123066371Y-79974227D02*
X123037274Y-79978509D01*
X123037274Y-79978509D02*
X122995580Y-79982221D01*
X122995580Y-79982221D02*
X122938799Y-79985403D01*
X122938799Y-79985403D02*
X122864441Y-79988095D01*
X122864441Y-79988095D02*
X122770019Y-79990336D01*
X122770019Y-79990336D02*
X122653044Y-79992165D01*
X122653044Y-79992165D02*
X122511025Y-79993622D01*
X122511025Y-79993622D02*
X122341475Y-79994746D01*
X122341475Y-79994746D02*
X122141904Y-79995577D01*
X122141904Y-79995577D02*
X121909823Y-79996153D01*
X121909823Y-79996153D02*
X121642744Y-79996515D01*
X121642744Y-79996515D02*
X121338177Y-79996701D01*
X121338177Y-79996701D02*
X121012989Y-79996750D01*
X121012989Y-79996750D02*
X118976296Y-79996750D01*
X118976296Y-79996750D02*
X118919312Y-79947735D01*
X118919312Y-79947735D02*
X118919312Y-79947735D01*
G36*
X121355345Y-79615807D02*
G01*
X121657858Y-79616001D01*
X121923014Y-79616373D01*
X122153305Y-79616961D01*
X122351218Y-79617807D01*
X122519243Y-79618947D01*
X122659868Y-79620423D01*
X122775582Y-79622273D01*
X122868876Y-79624537D01*
X122942236Y-79627254D01*
X122998153Y-79630464D01*
X123039115Y-79634205D01*
X123067612Y-79638518D01*
X123086132Y-79643441D01*
X123096725Y-79648701D01*
X123131919Y-79683683D01*
X123143768Y-79712201D01*
X123148819Y-79720331D01*
X123166530Y-79726917D01*
X123200738Y-79732115D01*
X123255282Y-79736077D01*
X123334001Y-79738957D01*
X123440731Y-79740909D01*
X123579312Y-79742088D01*
X123753580Y-79742646D01*
X123905768Y-79742750D01*
X124128093Y-79742168D01*
X124313695Y-79740439D01*
X124461489Y-79737596D01*
X124570393Y-79733667D01*
X124639322Y-79728683D01*
X124667191Y-79722673D01*
X124667768Y-79721584D01*
X124681431Y-79692383D01*
X124710102Y-79658084D01*
X124723714Y-79646204D01*
X124741263Y-79636779D01*
X124767430Y-79629527D01*
X124806893Y-79624164D01*
X124864332Y-79620406D01*
X124944425Y-79617970D01*
X125051852Y-79616571D01*
X125191292Y-79615927D01*
X125367424Y-79615754D01*
X125408602Y-79615750D01*
X125592856Y-79615862D01*
X125739456Y-79616386D01*
X125853081Y-79617607D01*
X125938411Y-79619807D01*
X126000125Y-79623270D01*
X126042901Y-79628280D01*
X126071419Y-79635121D01*
X126090358Y-79644075D01*
X126104397Y-79655427D01*
X126107102Y-79658084D01*
X126138179Y-79695992D01*
X126149435Y-79721584D01*
X126170411Y-79727804D01*
X126232597Y-79732989D01*
X126334882Y-79737106D01*
X126476155Y-79740125D01*
X126655306Y-79742015D01*
X126871223Y-79742743D01*
X126898260Y-79742750D01*
X127105803Y-79742929D01*
X127274750Y-79743760D01*
X127408837Y-79745683D01*
X127511801Y-79749141D01*
X127587378Y-79754574D01*
X127639306Y-79762424D01*
X127671320Y-79773132D01*
X127687157Y-79787139D01*
X127690554Y-79804887D01*
X127685247Y-79826817D01*
X127682119Y-79835318D01*
X127675236Y-79844417D01*
X127659573Y-79851775D01*
X127631061Y-79857573D01*
X127585630Y-79861992D01*
X127519212Y-79865212D01*
X127427738Y-79867417D01*
X127307137Y-79868786D01*
X127153343Y-79869500D01*
X126962284Y-79869743D01*
X126909171Y-79869750D01*
X126687234Y-79870335D01*
X126502006Y-79872068D01*
X126354576Y-79874920D01*
X126246031Y-79878860D01*
X126177461Y-79883858D01*
X126149953Y-79889883D01*
X126149435Y-79890917D01*
X126135773Y-79920118D01*
X126107102Y-79954417D01*
X126093490Y-79966297D01*
X126075940Y-79975722D01*
X126049773Y-79982974D01*
X126010310Y-79988337D01*
X125952872Y-79992095D01*
X125872779Y-79994531D01*
X125765352Y-79995930D01*
X125625912Y-79996574D01*
X125449780Y-79996747D01*
X125408602Y-79996750D01*
X125224348Y-79996639D01*
X125077748Y-79996115D01*
X124964122Y-79994894D01*
X124878792Y-79992694D01*
X124817079Y-79989231D01*
X124774303Y-79984221D01*
X124745785Y-79977380D01*
X124726846Y-79968426D01*
X124712807Y-79957074D01*
X124710102Y-79954417D01*
X124679025Y-79916509D01*
X124667768Y-79890917D01*
X124646788Y-79884741D01*
X124584570Y-79879586D01*
X124482198Y-79875480D01*
X124340756Y-79872455D01*
X124161327Y-79870541D01*
X123944996Y-79869767D01*
X123905768Y-79869750D01*
X123702982Y-79869953D01*
X123538690Y-79870663D01*
X123409053Y-79872034D01*
X123310234Y-79874221D01*
X123238395Y-79877377D01*
X123189698Y-79881656D01*
X123160304Y-79887212D01*
X123146376Y-79894199D01*
X123143768Y-79900300D01*
X123127858Y-79934299D01*
X123096725Y-79963800D01*
X123085358Y-79969338D01*
X123066371Y-79974227D01*
X123037274Y-79978509D01*
X122995580Y-79982221D01*
X122938799Y-79985403D01*
X122864441Y-79988095D01*
X122770019Y-79990336D01*
X122653044Y-79992165D01*
X122511025Y-79993622D01*
X122341475Y-79994746D01*
X122141904Y-79995577D01*
X121909823Y-79996153D01*
X121642744Y-79996515D01*
X121338177Y-79996701D01*
X121012989Y-79996750D01*
X118976296Y-79996750D01*
X118919312Y-79947735D01*
X118872999Y-79882608D01*
X118858246Y-79803606D01*
X118875055Y-79725073D01*
X118919312Y-79664766D01*
X118976296Y-79615750D01*
X121012989Y-79615750D01*
X121355345Y-79615807D01*
G37*
X121355345Y-79615807D02*
X121657858Y-79616001D01*
X121923014Y-79616373D01*
X122153305Y-79616961D01*
X122351218Y-79617807D01*
X122519243Y-79618947D01*
X122659868Y-79620423D01*
X122775582Y-79622273D01*
X122868876Y-79624537D01*
X122942236Y-79627254D01*
X122998153Y-79630464D01*
X123039115Y-79634205D01*
X123067612Y-79638518D01*
X123086132Y-79643441D01*
X123096725Y-79648701D01*
X123131919Y-79683683D01*
X123143768Y-79712201D01*
X123148819Y-79720331D01*
X123166530Y-79726917D01*
X123200738Y-79732115D01*
X123255282Y-79736077D01*
X123334001Y-79738957D01*
X123440731Y-79740909D01*
X123579312Y-79742088D01*
X123753580Y-79742646D01*
X123905768Y-79742750D01*
X124128093Y-79742168D01*
X124313695Y-79740439D01*
X124461489Y-79737596D01*
X124570393Y-79733667D01*
X124639322Y-79728683D01*
X124667191Y-79722673D01*
X124667768Y-79721584D01*
X124681431Y-79692383D01*
X124710102Y-79658084D01*
X124723714Y-79646204D01*
X124741263Y-79636779D01*
X124767430Y-79629527D01*
X124806893Y-79624164D01*
X124864332Y-79620406D01*
X124944425Y-79617970D01*
X125051852Y-79616571D01*
X125191292Y-79615927D01*
X125367424Y-79615754D01*
X125408602Y-79615750D01*
X125592856Y-79615862D01*
X125739456Y-79616386D01*
X125853081Y-79617607D01*
X125938411Y-79619807D01*
X126000125Y-79623270D01*
X126042901Y-79628280D01*
X126071419Y-79635121D01*
X126090358Y-79644075D01*
X126104397Y-79655427D01*
X126107102Y-79658084D01*
X126138179Y-79695992D01*
X126149435Y-79721584D01*
X126170411Y-79727804D01*
X126232597Y-79732989D01*
X126334882Y-79737106D01*
X126476155Y-79740125D01*
X126655306Y-79742015D01*
X126871223Y-79742743D01*
X126898260Y-79742750D01*
X127105803Y-79742929D01*
X127274750Y-79743760D01*
X127408837Y-79745683D01*
X127511801Y-79749141D01*
X127587378Y-79754574D01*
X127639306Y-79762424D01*
X127671320Y-79773132D01*
X127687157Y-79787139D01*
X127690554Y-79804887D01*
X127685247Y-79826817D01*
X127682119Y-79835318D01*
X127675236Y-79844417D01*
X127659573Y-79851775D01*
X127631061Y-79857573D01*
X127585630Y-79861992D01*
X127519212Y-79865212D01*
X127427738Y-79867417D01*
X127307137Y-79868786D01*
X127153343Y-79869500D01*
X126962284Y-79869743D01*
X126909171Y-79869750D01*
X126687234Y-79870335D01*
X126502006Y-79872068D01*
X126354576Y-79874920D01*
X126246031Y-79878860D01*
X126177461Y-79883858D01*
X126149953Y-79889883D01*
X126149435Y-79890917D01*
X126135773Y-79920118D01*
X126107102Y-79954417D01*
X126093490Y-79966297D01*
X126075940Y-79975722D01*
X126049773Y-79982974D01*
X126010310Y-79988337D01*
X125952872Y-79992095D01*
X125872779Y-79994531D01*
X125765352Y-79995930D01*
X125625912Y-79996574D01*
X125449780Y-79996747D01*
X125408602Y-79996750D01*
X125224348Y-79996639D01*
X125077748Y-79996115D01*
X124964122Y-79994894D01*
X124878792Y-79992694D01*
X124817079Y-79989231D01*
X124774303Y-79984221D01*
X124745785Y-79977380D01*
X124726846Y-79968426D01*
X124712807Y-79957074D01*
X124710102Y-79954417D01*
X124679025Y-79916509D01*
X124667768Y-79890917D01*
X124646788Y-79884741D01*
X124584570Y-79879586D01*
X124482198Y-79875480D01*
X124340756Y-79872455D01*
X124161327Y-79870541D01*
X123944996Y-79869767D01*
X123905768Y-79869750D01*
X123702982Y-79869953D01*
X123538690Y-79870663D01*
X123409053Y-79872034D01*
X123310234Y-79874221D01*
X123238395Y-79877377D01*
X123189698Y-79881656D01*
X123160304Y-79887212D01*
X123146376Y-79894199D01*
X123143768Y-79900300D01*
X123127858Y-79934299D01*
X123096725Y-79963800D01*
X123085358Y-79969338D01*
X123066371Y-79974227D01*
X123037274Y-79978509D01*
X122995580Y-79982221D01*
X122938799Y-79985403D01*
X122864441Y-79988095D01*
X122770019Y-79990336D01*
X122653044Y-79992165D01*
X122511025Y-79993622D01*
X122341475Y-79994746D01*
X122141904Y-79995577D01*
X121909823Y-79996153D01*
X121642744Y-79996515D01*
X121338177Y-79996701D01*
X121012989Y-79996750D01*
X118976296Y-79996750D01*
X118919312Y-79947735D01*
X118872999Y-79882608D01*
X118858246Y-79803606D01*
X118875055Y-79725073D01*
X118919312Y-79664766D01*
X118976296Y-79615750D01*
X121012989Y-79615750D01*
X121355345Y-79615807D01*
X125219573Y-80419859D02*
X125067454Y-80419049D01*
X125067454Y-80419049D02*
X124948869Y-80417445D01*
X124948869Y-80417445D02*
X124859420Y-80414841D01*
X124859420Y-80414841D02*
X124794708Y-80411032D01*
X124794708Y-80411032D02*
X124750335Y-80405811D01*
X124750335Y-80405811D02*
X124721902Y-80398970D01*
X124721902Y-80398970D02*
X124705010Y-80390305D01*
X124705010Y-80390305D02*
X124701030Y-80386822D01*
X124701030Y-80386822D02*
X124674313Y-80352123D01*
X124674313Y-80352123D02*
X124667768Y-80333905D01*
X124667768Y-80333905D02*
X124647161Y-80328834D01*
X124647161Y-80328834D02*
X124587572Y-80324377D01*
X124587572Y-80324377D02*
X124492348Y-80320621D01*
X124492348Y-80320621D02*
X124364838Y-80317654D01*
X124364838Y-80317654D02*
X124208388Y-80315561D01*
X124208388Y-80315561D02*
X124026347Y-80314431D01*
X124026347Y-80314431D02*
X123910860Y-80314250D01*
X123910860Y-80314250D02*
X123711857Y-80314327D01*
X123711857Y-80314327D02*
X123550956Y-80314708D01*
X123550956Y-80314708D02*
X123423928Y-80315623D01*
X123423928Y-80315623D02*
X123326540Y-80317301D01*
X123326540Y-80317301D02*
X123254564Y-80319969D01*
X123254564Y-80319969D02*
X123203767Y-80323857D01*
X123203767Y-80323857D02*
X123169920Y-80329193D01*
X123169920Y-80329193D02*
X123148792Y-80336206D01*
X123148792Y-80336206D02*
X123136152Y-80345124D01*
X123136152Y-80345124D02*
X123127769Y-80356176D01*
X123127769Y-80356176D02*
X123127514Y-80356584D01*
X123127514Y-80356584D02*
X123122497Y-80363574D01*
X123122497Y-80363574D02*
X123115038Y-80369749D01*
X123115038Y-80369749D02*
X123102635Y-80375160D01*
X123102635Y-80375160D02*
X123082785Y-80379856D01*
X123082785Y-80379856D02*
X123052984Y-80383889D01*
X123052984Y-80383889D02*
X123010730Y-80387309D01*
X123010730Y-80387309D02*
X122953521Y-80390166D01*
X122953521Y-80390166D02*
X122878852Y-80392511D01*
X122878852Y-80392511D02*
X122784222Y-80394395D01*
X122784222Y-80394395D02*
X122667128Y-80395868D01*
X122667128Y-80395868D02*
X122525066Y-80396981D01*
X122525066Y-80396981D02*
X122355534Y-80397783D01*
X122355534Y-80397783D02*
X122156029Y-80398327D01*
X122156029Y-80398327D02*
X121924049Y-80398661D01*
X121924049Y-80398661D02*
X121657089Y-80398837D01*
X121657089Y-80398837D02*
X121352648Y-80398906D01*
X121352648Y-80398906D02*
X121030612Y-80398917D01*
X121030612Y-80398917D02*
X118960148Y-80398917D01*
X118960148Y-80398917D02*
X118914125Y-80349928D01*
X118914125Y-80349928D02*
X118876421Y-80283467D01*
X118876421Y-80283467D02*
X118868281Y-80206491D01*
X118868281Y-80206491D02*
X118889686Y-80134978D01*
X118889686Y-80134978D02*
X118914426Y-80103408D01*
X118914426Y-80103408D02*
X118922679Y-80096262D01*
X118922679Y-80096262D02*
X118932851Y-80089952D01*
X118932851Y-80089952D02*
X118947477Y-80084425D01*
X118947477Y-80084425D02*
X118969092Y-80079631D01*
X118969092Y-80079631D02*
X119000230Y-80075516D01*
X119000230Y-80075516D02*
X119043428Y-80072029D01*
X119043428Y-80072029D02*
X119101218Y-80069118D01*
X119101218Y-80069118D02*
X119176137Y-80066731D01*
X119176137Y-80066731D02*
X119270719Y-80064816D01*
X119270719Y-80064816D02*
X119387499Y-80063322D01*
X119387499Y-80063322D02*
X119529011Y-80062195D01*
X119529011Y-80062195D02*
X119697790Y-80061384D01*
X119697790Y-80061384D02*
X119896372Y-80060837D01*
X119896372Y-80060837D02*
X120127290Y-80060502D01*
X120127290Y-80060502D02*
X120393081Y-80060327D01*
X120393081Y-80060327D02*
X120696278Y-80060261D01*
X120696278Y-80060261D02*
X121018973Y-80060250D01*
X121018973Y-80060250D02*
X123077196Y-80060250D01*
X123077196Y-80060250D02*
X123160444Y-80166084D01*
X123160444Y-80166084D02*
X124651093Y-80166084D01*
X124651093Y-80166084D02*
X124734341Y-80060250D01*
X124734341Y-80060250D02*
X126084959Y-80060250D01*
X126084959Y-80060250D02*
X126119632Y-80113167D01*
X126119632Y-80113167D02*
X126154304Y-80166084D01*
X126154304Y-80166084D02*
X126891191Y-80166084D01*
X126891191Y-80166084D02*
X127090351Y-80166283D01*
X127090351Y-80166283D02*
X127251377Y-80166999D01*
X127251377Y-80166999D02*
X127378469Y-80168416D01*
X127378469Y-80168416D02*
X127475825Y-80170712D01*
X127475825Y-80170712D02*
X127547644Y-80174070D01*
X127547644Y-80174070D02*
X127598126Y-80178671D01*
X127598126Y-80178671D02*
X127631467Y-80184695D01*
X127631467Y-80184695D02*
X127651868Y-80192324D01*
X127651868Y-80192324D02*
X127661298Y-80199304D01*
X127661298Y-80199304D02*
X127682941Y-80237652D01*
X127682941Y-80237652D02*
X127672648Y-80273387D01*
X127672648Y-80273387D02*
X127665237Y-80284190D01*
X127665237Y-80284190D02*
X127652948Y-80292902D01*
X127652948Y-80292902D02*
X127631553Y-80299748D01*
X127631553Y-80299748D02*
X127596826Y-80304951D01*
X127596826Y-80304951D02*
X127544540Y-80308737D01*
X127544540Y-80308737D02*
X127470468Y-80311329D01*
X127470468Y-80311329D02*
X127370383Y-80312953D01*
X127370383Y-80312953D02*
X127240058Y-80313831D01*
X127240058Y-80313831D02*
X127075266Y-80314188D01*
X127075266Y-80314188D02*
X126902541Y-80314250D01*
X126902541Y-80314250D02*
X126154304Y-80314250D01*
X126154304Y-80314250D02*
X126119632Y-80367167D01*
X126119632Y-80367167D02*
X126084959Y-80420084D01*
X126084959Y-80420084D02*
X125409626Y-80420084D01*
X125409626Y-80420084D02*
X125219573Y-80419859D01*
X125219573Y-80419859D02*
X125219573Y-80419859D01*
G36*
X123160444Y-80166084D02*
G01*
X124651093Y-80166084D01*
X124734341Y-80060250D01*
X126084959Y-80060250D01*
X126119632Y-80113167D01*
X126154304Y-80166084D01*
X126891191Y-80166084D01*
X127090351Y-80166283D01*
X127251377Y-80166999D01*
X127378469Y-80168416D01*
X127475825Y-80170712D01*
X127547644Y-80174070D01*
X127598126Y-80178671D01*
X127631467Y-80184695D01*
X127651868Y-80192324D01*
X127661298Y-80199304D01*
X127682941Y-80237652D01*
X127672648Y-80273387D01*
X127665237Y-80284190D01*
X127652948Y-80292902D01*
X127631553Y-80299748D01*
X127596826Y-80304951D01*
X127544540Y-80308737D01*
X127470468Y-80311329D01*
X127370383Y-80312953D01*
X127240058Y-80313831D01*
X127075266Y-80314188D01*
X126902541Y-80314250D01*
X126154304Y-80314250D01*
X126119632Y-80367167D01*
X126084959Y-80420084D01*
X125409626Y-80420084D01*
X125219573Y-80419859D01*
X125067454Y-80419049D01*
X124948869Y-80417445D01*
X124859420Y-80414841D01*
X124794708Y-80411032D01*
X124750335Y-80405811D01*
X124721902Y-80398970D01*
X124705010Y-80390305D01*
X124701030Y-80386822D01*
X124674313Y-80352123D01*
X124667768Y-80333905D01*
X124647161Y-80328834D01*
X124587572Y-80324377D01*
X124492348Y-80320621D01*
X124364838Y-80317654D01*
X124208388Y-80315561D01*
X124026347Y-80314431D01*
X123910860Y-80314250D01*
X123711857Y-80314327D01*
X123550956Y-80314708D01*
X123423928Y-80315623D01*
X123326540Y-80317301D01*
X123254564Y-80319969D01*
X123203767Y-80323857D01*
X123169920Y-80329193D01*
X123148792Y-80336206D01*
X123136152Y-80345124D01*
X123127769Y-80356176D01*
X123127514Y-80356584D01*
X123122497Y-80363574D01*
X123115038Y-80369749D01*
X123102635Y-80375160D01*
X123082785Y-80379856D01*
X123052984Y-80383889D01*
X123010730Y-80387309D01*
X122953521Y-80390166D01*
X122878852Y-80392511D01*
X122784222Y-80394395D01*
X122667128Y-80395868D01*
X122525066Y-80396981D01*
X122355534Y-80397783D01*
X122156029Y-80398327D01*
X121924049Y-80398661D01*
X121657089Y-80398837D01*
X121352648Y-80398906D01*
X121030612Y-80398917D01*
X118960148Y-80398917D01*
X118914125Y-80349928D01*
X118876421Y-80283467D01*
X118868281Y-80206491D01*
X118889686Y-80134978D01*
X118914426Y-80103408D01*
X118922679Y-80096262D01*
X118932851Y-80089952D01*
X118947477Y-80084425D01*
X118969092Y-80079631D01*
X119000230Y-80075516D01*
X119043428Y-80072029D01*
X119101218Y-80069118D01*
X119176137Y-80066731D01*
X119270719Y-80064816D01*
X119387499Y-80063322D01*
X119529011Y-80062195D01*
X119697790Y-80061384D01*
X119896372Y-80060837D01*
X120127290Y-80060502D01*
X120393081Y-80060327D01*
X120696278Y-80060261D01*
X121018973Y-80060250D01*
X123077196Y-80060250D01*
X123160444Y-80166084D01*
G37*
X123160444Y-80166084D02*
X124651093Y-80166084D01*
X124734341Y-80060250D01*
X126084959Y-80060250D01*
X126119632Y-80113167D01*
X126154304Y-80166084D01*
X126891191Y-80166084D01*
X127090351Y-80166283D01*
X127251377Y-80166999D01*
X127378469Y-80168416D01*
X127475825Y-80170712D01*
X127547644Y-80174070D01*
X127598126Y-80178671D01*
X127631467Y-80184695D01*
X127651868Y-80192324D01*
X127661298Y-80199304D01*
X127682941Y-80237652D01*
X127672648Y-80273387D01*
X127665237Y-80284190D01*
X127652948Y-80292902D01*
X127631553Y-80299748D01*
X127596826Y-80304951D01*
X127544540Y-80308737D01*
X127470468Y-80311329D01*
X127370383Y-80312953D01*
X127240058Y-80313831D01*
X127075266Y-80314188D01*
X126902541Y-80314250D01*
X126154304Y-80314250D01*
X126119632Y-80367167D01*
X126084959Y-80420084D01*
X125409626Y-80420084D01*
X125219573Y-80419859D01*
X125067454Y-80419049D01*
X124948869Y-80417445D01*
X124859420Y-80414841D01*
X124794708Y-80411032D01*
X124750335Y-80405811D01*
X124721902Y-80398970D01*
X124705010Y-80390305D01*
X124701030Y-80386822D01*
X124674313Y-80352123D01*
X124667768Y-80333905D01*
X124647161Y-80328834D01*
X124587572Y-80324377D01*
X124492348Y-80320621D01*
X124364838Y-80317654D01*
X124208388Y-80315561D01*
X124026347Y-80314431D01*
X123910860Y-80314250D01*
X123711857Y-80314327D01*
X123550956Y-80314708D01*
X123423928Y-80315623D01*
X123326540Y-80317301D01*
X123254564Y-80319969D01*
X123203767Y-80323857D01*
X123169920Y-80329193D01*
X123148792Y-80336206D01*
X123136152Y-80345124D01*
X123127769Y-80356176D01*
X123127514Y-80356584D01*
X123122497Y-80363574D01*
X123115038Y-80369749D01*
X123102635Y-80375160D01*
X123082785Y-80379856D01*
X123052984Y-80383889D01*
X123010730Y-80387309D01*
X122953521Y-80390166D01*
X122878852Y-80392511D01*
X122784222Y-80394395D01*
X122667128Y-80395868D01*
X122525066Y-80396981D01*
X122355534Y-80397783D01*
X122156029Y-80398327D01*
X121924049Y-80398661D01*
X121657089Y-80398837D01*
X121352648Y-80398906D01*
X121030612Y-80398917D01*
X118960148Y-80398917D01*
X118914125Y-80349928D01*
X118876421Y-80283467D01*
X118868281Y-80206491D01*
X118889686Y-80134978D01*
X118914426Y-80103408D01*
X118922679Y-80096262D01*
X118932851Y-80089952D01*
X118947477Y-80084425D01*
X118969092Y-80079631D01*
X119000230Y-80075516D01*
X119043428Y-80072029D01*
X119101218Y-80069118D01*
X119176137Y-80066731D01*
X119270719Y-80064816D01*
X119387499Y-80063322D01*
X119529011Y-80062195D01*
X119697790Y-80061384D01*
X119896372Y-80060837D01*
X120127290Y-80060502D01*
X120393081Y-80060327D01*
X120696278Y-80060261D01*
X121018973Y-80060250D01*
X123077196Y-80060250D01*
X123160444Y-80166084D01*
D13*
%TO.C,J16*%
X163237740Y-73734000D02*
G75*
G03*
X163237740Y-73734000I-1251000J0D01*
G01*
%TO.C,J29*%
X115640940Y-89777600D02*
X115640940Y-91107600D01*
X112980940Y-92377600D02*
X115640940Y-92377600D01*
X114310940Y-89777600D02*
X115640940Y-89777600D01*
X115640940Y-92377600D02*
X115640940Y-100057600D01*
X112980940Y-92377600D02*
X112980940Y-100057600D01*
X112980940Y-100057600D02*
X115640940Y-100057600D01*
%TO.C,J12*%
X174235940Y-86281600D02*
G75*
G03*
X174235940Y-86281600I-1251000J0D01*
G01*
%TO.C,J23*%
X130243140Y-98778400D02*
G75*
G03*
X130243140Y-98778400I-1251000J0D01*
G01*
%TO.C,J18*%
X130293940Y-73759400D02*
G75*
G03*
X130293940Y-73759400I-1251000J0D01*
G01*
%TO.C,J17*%
X174261340Y-73759400D02*
G75*
G03*
X174261340Y-73759400I-1251000J0D01*
G01*
%TO.C,J27*%
X184881340Y-89777600D02*
X184881340Y-91107600D01*
X184881340Y-92377600D02*
X184881340Y-100057600D01*
X182221340Y-92377600D02*
X182221340Y-100057600D01*
X183551340Y-89777600D02*
X184881340Y-89777600D01*
X182221340Y-100057600D02*
X184881340Y-100057600D01*
X182221340Y-92377600D02*
X184881340Y-92377600D01*
%TO.C,J32*%
X114336340Y-76950600D02*
X115666340Y-76950600D01*
X115666340Y-76950600D02*
X115666340Y-78280600D01*
X115666340Y-79550600D02*
X115666340Y-87230600D01*
X113006340Y-79550600D02*
X115666340Y-79550600D01*
X113006340Y-87230600D02*
X115666340Y-87230600D01*
X113006340Y-79550600D02*
X113006340Y-87230600D01*
%TO.C,J5*%
X163263140Y-111275200D02*
G75*
G03*
X163263140Y-111275200I-1251000J0D01*
G01*
%TO.C,J7*%
X152391940Y-73835600D02*
G75*
G03*
X152391940Y-73835600I-1251000J0D01*
G01*
%TO.C,J30*%
X182221340Y-87281400D02*
X184881340Y-87281400D01*
X183551340Y-77001400D02*
X184881340Y-77001400D01*
X182221340Y-79601400D02*
X182221340Y-87281400D01*
X182221340Y-79601400D02*
X184881340Y-79601400D01*
X184881340Y-79601400D02*
X184881340Y-87281400D01*
X184881340Y-77001400D02*
X184881340Y-78331400D01*
%TO.C,J9*%
X163263140Y-98778400D02*
G75*
G03*
X163263140Y-98778400I-1251000J0D01*
G01*
%TO.C,J8*%
X174235940Y-98791100D02*
G75*
G03*
X174235940Y-98791100I-1251000J0D01*
G01*
%TO.C,J25*%
X141241340Y-73759400D02*
G75*
G03*
X141241340Y-73759400I-1251000J0D01*
G01*
%TO.C,J20*%
X163237740Y-123772000D02*
G75*
G03*
X163237740Y-123772000I-1251000J0D01*
G01*
%TO.C,J26*%
X183551340Y-101639400D02*
X184881340Y-101639400D01*
X182221340Y-111919400D02*
X184881340Y-111919400D01*
X184881340Y-104239400D02*
X184881340Y-111919400D01*
X182221340Y-104239400D02*
X184881340Y-104239400D01*
X184881340Y-101639400D02*
X184881340Y-102969400D01*
X182221340Y-104239400D02*
X182221340Y-111919400D01*
%TO.C,J21*%
X152264940Y-123746600D02*
G75*
G03*
X152264940Y-123746600I-1251000J0D01*
G01*
%TO.C,J33*%
X112955540Y-104264800D02*
X115615540Y-104264800D01*
X112955540Y-104264800D02*
X112955540Y-111944800D01*
X115615540Y-101664800D02*
X115615540Y-102994800D01*
X115615540Y-104264800D02*
X115615540Y-111944800D01*
X114285540Y-101664800D02*
X115615540Y-101664800D01*
X112955540Y-111944800D02*
X115615540Y-111944800D01*
%TO.C,J10*%
X152264940Y-98727600D02*
G75*
G03*
X152264940Y-98727600I-1251000J0D01*
G01*
%TO.C,J11*%
X141241340Y-98778400D02*
G75*
G03*
X141241340Y-98778400I-1251000J0D01*
G01*
%TO.C,J28*%
X152264940Y-86281600D02*
G75*
G03*
X152264940Y-86281600I-1251000J0D01*
G01*
%TO.C,J15*%
X130203400Y-111300600D02*
G75*
G03*
X130203400Y-111300600I-1251000J0D01*
G01*
%TO.C,J22*%
X141241340Y-111275200D02*
G75*
G03*
X141241340Y-111275200I-1251000J0D01*
G01*
%TO.C,J14*%
X141266740Y-86256200D02*
G75*
G03*
X141266740Y-86256200I-1251000J0D01*
G01*
%TO.C,J13*%
X163258060Y-86281600D02*
G75*
G03*
X163258060Y-86281600I-1251000J0D01*
G01*
%TO.C,J19*%
X174261340Y-123772000D02*
G75*
G03*
X174261340Y-123772000I-1251000J0D01*
G01*
%TO.C,J24*%
X130268540Y-86256200D02*
G75*
G03*
X130268540Y-86256200I-1251000J0D01*
G01*
%TO.C,J6*%
X174261340Y-111249800D02*
G75*
G03*
X174261340Y-111249800I-1251000J0D01*
G01*
%TO.C,J4*%
X152303400Y-111300600D02*
G75*
G03*
X152303400Y-111300600I-1251000J0D01*
G01*
%TD*%
M02*
