%TF.GenerationSoftware,KiCad,Pcbnew,(6.0.2)*%
%TF.CreationDate,2022-03-04T10:55:19-05:00*%
%TF.ProjectId,top,746f702e-6b69-4636-9164-5f7063625858,rev?*%
%TF.SameCoordinates,Original*%
%TF.FileFunction,Legend,Top*%
%TF.FilePolarity,Positive*%
%FSLAX46Y46*%
G04 Gerber Fmt 4.6, Leading zero omitted, Abs format (unit mm)*
G04 Created by KiCad (PCBNEW (6.0.2)) date 2022-03-04 10:55:19*
%MOMM*%
%LPD*%
G01*
G04 APERTURE LIST*
%ADD10C,0.200000*%
%ADD11C,0.150000*%
%ADD12C,0.120000*%
%ADD13C,0.010000*%
G04 APERTURE END LIST*
D10*
X126063114Y-73939285D02*
X126063114Y-75289285D01*
X125548828Y-75289285D01*
X125420257Y-75225000D01*
X125355971Y-75160714D01*
X125291685Y-75032142D01*
X125291685Y-74839285D01*
X125355971Y-74710714D01*
X125420257Y-74646428D01*
X125548828Y-74582142D01*
X126063114Y-74582142D01*
X124455971Y-75289285D02*
X124198828Y-75289285D01*
X124070257Y-75225000D01*
X123941685Y-75096428D01*
X123877400Y-74839285D01*
X123877400Y-74389285D01*
X123941685Y-74132142D01*
X124070257Y-74003571D01*
X124198828Y-73939285D01*
X124455971Y-73939285D01*
X124584542Y-74003571D01*
X124713114Y-74132142D01*
X124777400Y-74389285D01*
X124777400Y-74839285D01*
X124713114Y-75096428D01*
X124584542Y-75225000D01*
X124455971Y-75289285D01*
X123298828Y-73939285D02*
X123298828Y-75289285D01*
X122848828Y-74325000D01*
X122398828Y-75289285D01*
X122398828Y-73939285D01*
X121820257Y-74325000D02*
X121177400Y-74325000D01*
X121948828Y-73939285D02*
X121498828Y-75289285D01*
X121048828Y-73939285D01*
D11*
X125076209Y-73302619D02*
X124742876Y-72302619D01*
X124409542Y-73302619D01*
X124171447Y-73302619D02*
X123552400Y-73302619D01*
X123885733Y-72921666D01*
X123742876Y-72921666D01*
X123647638Y-72874047D01*
X123600019Y-72826428D01*
X123552400Y-72731190D01*
X123552400Y-72493095D01*
X123600019Y-72397857D01*
X123647638Y-72350238D01*
X123742876Y-72302619D01*
X124028590Y-72302619D01*
X124123828Y-72350238D01*
X124171447Y-72397857D01*
X123123828Y-72397857D02*
X123076209Y-72350238D01*
X123123828Y-72302619D01*
X123171447Y-72350238D01*
X123123828Y-72397857D01*
X123123828Y-72302619D01*
X122742876Y-73302619D02*
X122123828Y-73302619D01*
X122457161Y-72921666D01*
X122314304Y-72921666D01*
X122219066Y-72874047D01*
X122171447Y-72826428D01*
X122123828Y-72731190D01*
X122123828Y-72493095D01*
X122171447Y-72397857D01*
X122219066Y-72350238D01*
X122314304Y-72302619D01*
X122600019Y-72302619D01*
X122695257Y-72350238D01*
X122742876Y-72397857D01*
D10*
X131027400Y-81139285D02*
X131027400Y-82489285D01*
X131027400Y-81846428D02*
X130255971Y-81846428D01*
X130255971Y-81139285D02*
X130255971Y-82489285D01*
X129034542Y-81139285D02*
X129034542Y-81846428D01*
X129098828Y-81975000D01*
X129227400Y-82039285D01*
X129484542Y-82039285D01*
X129613114Y-81975000D01*
X129034542Y-81203571D02*
X129163114Y-81139285D01*
X129484542Y-81139285D01*
X129613114Y-81203571D01*
X129677400Y-81332142D01*
X129677400Y-81460714D01*
X129613114Y-81589285D01*
X129484542Y-81653571D01*
X129163114Y-81653571D01*
X129034542Y-81717857D01*
X128391685Y-82039285D02*
X128391685Y-81139285D01*
X128391685Y-81910714D02*
X128327400Y-81975000D01*
X128198828Y-82039285D01*
X128005971Y-82039285D01*
X127877400Y-81975000D01*
X127813114Y-81846428D01*
X127813114Y-81139285D01*
X127298828Y-82039285D02*
X126591685Y-82039285D01*
X127298828Y-81139285D01*
X126591685Y-81139285D01*
X125241685Y-82489285D02*
X124470257Y-82489285D01*
X124855971Y-81139285D02*
X124855971Y-82489285D01*
X123505971Y-81203571D02*
X123634542Y-81139285D01*
X123891685Y-81139285D01*
X124020257Y-81203571D01*
X124084542Y-81332142D01*
X124084542Y-81846428D01*
X124020257Y-81975000D01*
X123891685Y-82039285D01*
X123634542Y-82039285D01*
X123505971Y-81975000D01*
X123441685Y-81846428D01*
X123441685Y-81717857D01*
X124084542Y-81589285D01*
X122284542Y-81203571D02*
X122413114Y-81139285D01*
X122670257Y-81139285D01*
X122798828Y-81203571D01*
X122863114Y-81267857D01*
X122927400Y-81396428D01*
X122927400Y-81782142D01*
X122863114Y-81910714D01*
X122798828Y-81975000D01*
X122670257Y-82039285D01*
X122413114Y-82039285D01*
X122284542Y-81975000D01*
X121705971Y-81139285D02*
X121705971Y-82489285D01*
X121127400Y-81139285D02*
X121127400Y-81846428D01*
X121191685Y-81975000D01*
X121320257Y-82039285D01*
X121513114Y-82039285D01*
X121641685Y-81975000D01*
X121705971Y-81910714D01*
X119455971Y-81139285D02*
X119455971Y-82489285D01*
X118813114Y-82039285D02*
X118813114Y-81139285D01*
X118813114Y-81910714D02*
X118748828Y-81975000D01*
X118620257Y-82039285D01*
X118427400Y-82039285D01*
X118298828Y-81975000D01*
X118234542Y-81846428D01*
X118234542Y-81139285D01*
X117013114Y-81203571D02*
X117141685Y-81139285D01*
X117398828Y-81139285D01*
X117527400Y-81203571D01*
X117591685Y-81267857D01*
X117655971Y-81396428D01*
X117655971Y-81782142D01*
X117591685Y-81910714D01*
X117527400Y-81975000D01*
X117398828Y-82039285D01*
X117141685Y-82039285D01*
X117013114Y-81975000D01*
D11*
%TO.C,J29*%
X182742876Y-75422380D02*
X182742876Y-76136666D01*
X182695257Y-76279523D01*
X182600019Y-76374761D01*
X182457161Y-76422380D01*
X182361923Y-76422380D01*
X183171447Y-75517619D02*
X183219066Y-75470000D01*
X183314304Y-75422380D01*
X183552400Y-75422380D01*
X183647638Y-75470000D01*
X183695257Y-75517619D01*
X183742876Y-75612857D01*
X183742876Y-75708095D01*
X183695257Y-75850952D01*
X183123828Y-76422380D01*
X183742876Y-76422380D01*
X184219066Y-76422380D02*
X184409542Y-76422380D01*
X184504780Y-76374761D01*
X184552400Y-76327142D01*
X184647638Y-76184285D01*
X184695257Y-75993809D01*
X184695257Y-75612857D01*
X184647638Y-75517619D01*
X184600019Y-75470000D01*
X184504780Y-75422380D01*
X184314304Y-75422380D01*
X184219066Y-75470000D01*
X184171447Y-75517619D01*
X184123828Y-75612857D01*
X184123828Y-75850952D01*
X184171447Y-75946190D01*
X184219066Y-75993809D01*
X184314304Y-76041428D01*
X184504780Y-76041428D01*
X184600019Y-75993809D01*
X184647638Y-75946190D01*
X184695257Y-75850952D01*
%TO.C,J30*%
X113542876Y-75422380D02*
X113542876Y-76136666D01*
X113495257Y-76279523D01*
X113400019Y-76374761D01*
X113257161Y-76422380D01*
X113161923Y-76422380D01*
X113923828Y-75422380D02*
X114542876Y-75422380D01*
X114209542Y-75803333D01*
X114352400Y-75803333D01*
X114447638Y-75850952D01*
X114495257Y-75898571D01*
X114542876Y-75993809D01*
X114542876Y-76231904D01*
X114495257Y-76327142D01*
X114447638Y-76374761D01*
X114352400Y-76422380D01*
X114066685Y-76422380D01*
X113971447Y-76374761D01*
X113923828Y-76327142D01*
X115161923Y-75422380D02*
X115257161Y-75422380D01*
X115352400Y-75470000D01*
X115400019Y-75517619D01*
X115447638Y-75612857D01*
X115495257Y-75803333D01*
X115495257Y-76041428D01*
X115447638Y-76231904D01*
X115400019Y-76327142D01*
X115352400Y-76374761D01*
X115257161Y-76422380D01*
X115161923Y-76422380D01*
X115066685Y-76374761D01*
X115019066Y-76327142D01*
X114971447Y-76231904D01*
X114923828Y-76041428D01*
X114923828Y-75803333D01*
X114971447Y-75612857D01*
X115019066Y-75517619D01*
X115066685Y-75470000D01*
X115161923Y-75422380D01*
D12*
%TO.C,J18*%
X130293940Y-73759400D02*
G75*
G03*
X130293940Y-73759400I-1251000J0D01*
G01*
%TO.C,J6*%
X174261340Y-111249800D02*
G75*
G03*
X174261340Y-111249800I-1251000J0D01*
G01*
%TO.C,J25*%
X141241340Y-73759400D02*
G75*
G03*
X141241340Y-73759400I-1251000J0D01*
G01*
%TO.C,J15*%
X130203400Y-111300600D02*
G75*
G03*
X130203400Y-111300600I-1251000J0D01*
G01*
%TO.C,J14*%
X141266740Y-86256200D02*
G75*
G03*
X141266740Y-86256200I-1251000J0D01*
G01*
%TO.C,J29*%
X182222400Y-78300000D02*
X182222400Y-76970000D01*
X184882400Y-79570000D02*
X184882400Y-112650000D01*
X182222400Y-79570000D02*
X184882400Y-79570000D01*
X182222400Y-76970000D02*
X183552400Y-76970000D01*
X182222400Y-79570000D02*
X182222400Y-112650000D01*
X182222400Y-112650000D02*
X184882400Y-112650000D01*
%TO.C,J23*%
X130243140Y-98778400D02*
G75*
G03*
X130243140Y-98778400I-1251000J0D01*
G01*
%TO.C,J12*%
X174235940Y-86281600D02*
G75*
G03*
X174235940Y-86281600I-1251000J0D01*
G01*
%TO.C,J28*%
X152264940Y-86281600D02*
G75*
G03*
X152264940Y-86281600I-1251000J0D01*
G01*
%TO.C,J24*%
X130268540Y-86256200D02*
G75*
G03*
X130268540Y-86256200I-1251000J0D01*
G01*
%TO.C,J17*%
X174261340Y-73759400D02*
G75*
G03*
X174261340Y-73759400I-1251000J0D01*
G01*
%TO.C,J21*%
X152264940Y-123746600D02*
G75*
G03*
X152264940Y-123746600I-1251000J0D01*
G01*
%TO.C,J13*%
X163258060Y-86281600D02*
G75*
G03*
X163258060Y-86281600I-1251000J0D01*
G01*
%TO.C,J8*%
X174235940Y-98791100D02*
G75*
G03*
X174235940Y-98791100I-1251000J0D01*
G01*
%TO.C,J4*%
X152303400Y-111300600D02*
G75*
G03*
X152303400Y-111300600I-1251000J0D01*
G01*
D13*
%TO.C,G\u002A\u002A\u002A*%
X120862527Y-79183311D02*
X120774021Y-79181142D01*
X120774021Y-79181142D02*
X120708919Y-79177386D01*
X120708919Y-79177386D02*
X120662490Y-79171864D01*
X120662490Y-79171864D02*
X120630005Y-79164399D01*
X120630005Y-79164399D02*
X120607780Y-79155359D01*
X120607780Y-79155359D02*
X120550344Y-79103726D01*
X120550344Y-79103726D02*
X120520233Y-79029577D01*
X120520233Y-79029577D02*
X120522091Y-78946142D01*
X120522091Y-78946142D02*
X120527580Y-78926878D01*
X120527580Y-78926878D02*
X120539638Y-78894297D01*
X120539638Y-78894297D02*
X120554278Y-78868139D01*
X120554278Y-78868139D02*
X120575929Y-78847699D01*
X120575929Y-78847699D02*
X120609022Y-78832271D01*
X120609022Y-78832271D02*
X120657987Y-78821152D01*
X120657987Y-78821152D02*
X120727252Y-78813636D01*
X120727252Y-78813636D02*
X120821248Y-78809017D01*
X120821248Y-78809017D02*
X120944405Y-78806592D01*
X120944405Y-78806592D02*
X121101151Y-78805654D01*
X121101151Y-78805654D02*
X121290273Y-78805500D01*
X121290273Y-78805500D02*
X121943358Y-78805500D01*
X121943358Y-78805500D02*
X122007840Y-78869982D01*
X122007840Y-78869982D02*
X122049112Y-78917751D01*
X122049112Y-78917751D02*
X122063684Y-78960213D01*
X122063684Y-78960213D02*
X122059806Y-79011592D01*
X122059806Y-79011592D02*
X122039260Y-79076493D01*
X122039260Y-79076493D02*
X122006318Y-79129606D01*
X122006318Y-79129606D02*
X122003720Y-79132318D01*
X122003720Y-79132318D02*
X121989714Y-79144667D01*
X121989714Y-79144667D02*
X121971955Y-79154504D01*
X121971955Y-79154504D02*
X121945709Y-79162171D01*
X121945709Y-79162171D02*
X121906237Y-79168012D01*
X121906237Y-79168012D02*
X121848804Y-79172368D01*
X121848804Y-79172368D02*
X121768672Y-79175583D01*
X121768672Y-79175583D02*
X121661105Y-79177999D01*
X121661105Y-79177999D02*
X121521366Y-79179959D01*
X121521366Y-79179959D02*
X121344717Y-79181806D01*
X121344717Y-79181806D02*
X121315768Y-79182084D01*
X121315768Y-79182084D02*
X121128670Y-79183604D01*
X121128670Y-79183604D02*
X120979167Y-79184072D01*
X120979167Y-79184072D02*
X120862527Y-79183311D01*
X120862527Y-79183311D02*
X120862527Y-79183311D01*
G36*
X122007840Y-78869982D02*
G01*
X122049112Y-78917751D01*
X122063684Y-78960213D01*
X122059806Y-79011592D01*
X122039260Y-79076493D01*
X122006318Y-79129606D01*
X122003720Y-79132318D01*
X121989714Y-79144667D01*
X121971955Y-79154504D01*
X121945709Y-79162171D01*
X121906237Y-79168012D01*
X121848804Y-79172368D01*
X121768672Y-79175583D01*
X121661105Y-79177999D01*
X121521366Y-79179959D01*
X121344717Y-79181806D01*
X121315768Y-79182084D01*
X121128670Y-79183604D01*
X120979167Y-79184072D01*
X120862527Y-79183311D01*
X120774021Y-79181142D01*
X120708919Y-79177386D01*
X120662490Y-79171864D01*
X120630005Y-79164399D01*
X120607780Y-79155359D01*
X120550344Y-79103726D01*
X120520233Y-79029577D01*
X120522091Y-78946142D01*
X120527580Y-78926878D01*
X120539638Y-78894297D01*
X120554278Y-78868139D01*
X120575929Y-78847699D01*
X120609022Y-78832271D01*
X120657987Y-78821152D01*
X120727252Y-78813636D01*
X120821248Y-78809017D01*
X120944405Y-78806592D01*
X121101151Y-78805654D01*
X121290273Y-78805500D01*
X121943358Y-78805500D01*
X122007840Y-78869982D01*
G37*
X122007840Y-78869982D02*
X122049112Y-78917751D01*
X122063684Y-78960213D01*
X122059806Y-79011592D01*
X122039260Y-79076493D01*
X122006318Y-79129606D01*
X122003720Y-79132318D01*
X121989714Y-79144667D01*
X121971955Y-79154504D01*
X121945709Y-79162171D01*
X121906237Y-79168012D01*
X121848804Y-79172368D01*
X121768672Y-79175583D01*
X121661105Y-79177999D01*
X121521366Y-79179959D01*
X121344717Y-79181806D01*
X121315768Y-79182084D01*
X121128670Y-79183604D01*
X120979167Y-79184072D01*
X120862527Y-79183311D01*
X120774021Y-79181142D01*
X120708919Y-79177386D01*
X120662490Y-79171864D01*
X120630005Y-79164399D01*
X120607780Y-79155359D01*
X120550344Y-79103726D01*
X120520233Y-79029577D01*
X120522091Y-78946142D01*
X120527580Y-78926878D01*
X120539638Y-78894297D01*
X120554278Y-78868139D01*
X120575929Y-78847699D01*
X120609022Y-78832271D01*
X120657987Y-78821152D01*
X120727252Y-78813636D01*
X120821248Y-78809017D01*
X120944405Y-78806592D01*
X121101151Y-78805654D01*
X121290273Y-78805500D01*
X121943358Y-78805500D01*
X122007840Y-78869982D01*
X121100931Y-76561538D02*
X120949496Y-76560517D01*
X120949496Y-76560517D02*
X120831544Y-76558572D01*
X120831544Y-76558572D02*
X120742651Y-76555505D01*
X120742651Y-76555505D02*
X120678394Y-76551116D01*
X120678394Y-76551116D02*
X120634349Y-76545205D01*
X120634349Y-76545205D02*
X120606092Y-76537574D01*
X120606092Y-76537574D02*
X120592331Y-76530414D01*
X120592331Y-76530414D02*
X120541420Y-76472325D01*
X120541420Y-76472325D02*
X120519063Y-76398175D01*
X120519063Y-76398175D02*
X120524705Y-76320772D01*
X120524705Y-76320772D02*
X120557789Y-76252928D01*
X120557789Y-76252928D02*
X120606087Y-76212850D01*
X120606087Y-76212850D02*
X120645992Y-76203315D01*
X120645992Y-76203315D02*
X120721447Y-76195284D01*
X120721447Y-76195284D02*
X120825697Y-76188781D01*
X120825697Y-76188781D02*
X120951985Y-76183831D01*
X120951985Y-76183831D02*
X121093555Y-76180456D01*
X121093555Y-76180456D02*
X121243650Y-76178682D01*
X121243650Y-76178682D02*
X121395513Y-76178532D01*
X121395513Y-76178532D02*
X121542389Y-76180031D01*
X121542389Y-76180031D02*
X121677520Y-76183202D01*
X121677520Y-76183202D02*
X121794150Y-76188070D01*
X121794150Y-76188070D02*
X121885524Y-76194659D01*
X121885524Y-76194659D02*
X121944883Y-76202992D01*
X121944883Y-76202992D02*
X121960851Y-76208021D01*
X121960851Y-76208021D02*
X122026831Y-76261818D01*
X122026831Y-76261818D02*
X122059476Y-76333069D01*
X122059476Y-76333069D02*
X122057181Y-76411199D01*
X122057181Y-76411199D02*
X122018337Y-76485634D01*
X122018337Y-76485634D02*
X122005230Y-76499962D01*
X122005230Y-76499962D02*
X121943358Y-76561833D01*
X121943358Y-76561833D02*
X121290273Y-76561833D01*
X121290273Y-76561833D02*
X121100931Y-76561538D01*
X121100931Y-76561538D02*
X121100931Y-76561538D01*
G36*
X121542389Y-76180031D02*
G01*
X121677520Y-76183202D01*
X121794150Y-76188070D01*
X121885524Y-76194659D01*
X121944883Y-76202992D01*
X121960851Y-76208021D01*
X122026831Y-76261818D01*
X122059476Y-76333069D01*
X122057181Y-76411199D01*
X122018337Y-76485634D01*
X122005230Y-76499962D01*
X121943358Y-76561833D01*
X121290273Y-76561833D01*
X121100931Y-76561538D01*
X120949496Y-76560517D01*
X120831544Y-76558572D01*
X120742651Y-76555505D01*
X120678394Y-76551116D01*
X120634349Y-76545205D01*
X120606092Y-76537574D01*
X120592331Y-76530414D01*
X120541420Y-76472325D01*
X120519063Y-76398175D01*
X120524705Y-76320772D01*
X120557789Y-76252928D01*
X120606087Y-76212850D01*
X120645992Y-76203315D01*
X120721447Y-76195284D01*
X120825697Y-76188781D01*
X120951985Y-76183831D01*
X121093555Y-76180456D01*
X121243650Y-76178682D01*
X121395513Y-76178532D01*
X121542389Y-76180031D01*
G37*
X121542389Y-76180031D02*
X121677520Y-76183202D01*
X121794150Y-76188070D01*
X121885524Y-76194659D01*
X121944883Y-76202992D01*
X121960851Y-76208021D01*
X122026831Y-76261818D01*
X122059476Y-76333069D01*
X122057181Y-76411199D01*
X122018337Y-76485634D01*
X122005230Y-76499962D01*
X121943358Y-76561833D01*
X121290273Y-76561833D01*
X121100931Y-76561538D01*
X120949496Y-76560517D01*
X120831544Y-76558572D01*
X120742651Y-76555505D01*
X120678394Y-76551116D01*
X120634349Y-76545205D01*
X120606092Y-76537574D01*
X120592331Y-76530414D01*
X120541420Y-76472325D01*
X120519063Y-76398175D01*
X120524705Y-76320772D01*
X120557789Y-76252928D01*
X120606087Y-76212850D01*
X120645992Y-76203315D01*
X120721447Y-76195284D01*
X120825697Y-76188781D01*
X120951985Y-76183831D01*
X121093555Y-76180456D01*
X121243650Y-76178682D01*
X121395513Y-76178532D01*
X121542389Y-76180031D01*
X120565841Y-78246258D02*
X120524672Y-78175565D01*
X120524672Y-78175565D02*
X120517111Y-78096345D01*
X120517111Y-78096345D02*
X120542733Y-78022305D01*
X120542733Y-78022305D02*
X120573915Y-77986020D01*
X120573915Y-77986020D02*
X120590425Y-77972531D01*
X120590425Y-77972531D02*
X120608281Y-77961817D01*
X120608281Y-77961817D02*
X120632227Y-77953560D01*
X120632227Y-77953560D02*
X120667011Y-77947438D01*
X120667011Y-77947438D02*
X120717377Y-77943133D01*
X120717377Y-77943133D02*
X120788073Y-77940325D01*
X120788073Y-77940325D02*
X120883843Y-77938694D01*
X120883843Y-77938694D02*
X121009434Y-77937920D01*
X121009434Y-77937920D02*
X121169592Y-77937684D01*
X121169592Y-77937684D02*
X121291708Y-77937667D01*
X121291708Y-77937667D02*
X121476769Y-77937774D01*
X121476769Y-77937774D02*
X121624182Y-77938283D01*
X121624182Y-77938283D02*
X121738630Y-77939480D01*
X121738630Y-77939480D02*
X121824800Y-77941647D01*
X121824800Y-77941647D02*
X121887374Y-77945070D01*
X121887374Y-77945070D02*
X121931038Y-77950032D01*
X121931038Y-77950032D02*
X121960477Y-77956817D01*
X121960477Y-77956817D02*
X121980374Y-77965710D01*
X121980374Y-77965710D02*
X121995414Y-77976995D01*
X121995414Y-77976995D02*
X121999354Y-77980586D01*
X121999354Y-77980586D02*
X122038484Y-78030848D01*
X122038484Y-78030848D02*
X122058660Y-78076247D01*
X122058660Y-78076247D02*
X122059037Y-78141312D01*
X122059037Y-78141312D02*
X122036627Y-78210303D01*
X122036627Y-78210303D02*
X121998830Y-78264093D01*
X121998830Y-78264093D02*
X121980924Y-78277142D01*
X121980924Y-78277142D02*
X121949905Y-78282552D01*
X121949905Y-78282552D02*
X121881135Y-78287330D01*
X121881135Y-78287330D02*
X121779191Y-78291343D01*
X121779191Y-78291343D02*
X121648652Y-78294458D01*
X121648652Y-78294458D02*
X121494095Y-78296544D01*
X121494095Y-78296544D02*
X121320100Y-78297466D01*
X121320100Y-78297466D02*
X121278433Y-78297500D01*
X121278433Y-78297500D02*
X120613981Y-78297500D01*
X120613981Y-78297500D02*
X120565841Y-78246258D01*
X120565841Y-78246258D02*
X120565841Y-78246258D01*
G36*
X121476769Y-77937774D02*
G01*
X121624182Y-77938283D01*
X121738630Y-77939480D01*
X121824800Y-77941647D01*
X121887374Y-77945070D01*
X121931038Y-77950032D01*
X121960477Y-77956817D01*
X121980374Y-77965710D01*
X121995414Y-77976995D01*
X121999354Y-77980586D01*
X122038484Y-78030848D01*
X122058660Y-78076247D01*
X122059037Y-78141312D01*
X122036627Y-78210303D01*
X121998830Y-78264093D01*
X121980924Y-78277142D01*
X121949905Y-78282552D01*
X121881135Y-78287330D01*
X121779191Y-78291343D01*
X121648652Y-78294458D01*
X121494095Y-78296544D01*
X121320100Y-78297466D01*
X121278433Y-78297500D01*
X120613981Y-78297500D01*
X120565841Y-78246258D01*
X120524672Y-78175565D01*
X120517111Y-78096345D01*
X120542733Y-78022305D01*
X120573915Y-77986020D01*
X120590425Y-77972531D01*
X120608281Y-77961817D01*
X120632227Y-77953560D01*
X120667011Y-77947438D01*
X120717377Y-77943133D01*
X120788073Y-77940325D01*
X120883843Y-77938694D01*
X121009434Y-77937920D01*
X121169592Y-77937684D01*
X121291708Y-77937667D01*
X121476769Y-77937774D01*
G37*
X121476769Y-77937774D02*
X121624182Y-77938283D01*
X121738630Y-77939480D01*
X121824800Y-77941647D01*
X121887374Y-77945070D01*
X121931038Y-77950032D01*
X121960477Y-77956817D01*
X121980374Y-77965710D01*
X121995414Y-77976995D01*
X121999354Y-77980586D01*
X122038484Y-78030848D01*
X122058660Y-78076247D01*
X122059037Y-78141312D01*
X122036627Y-78210303D01*
X121998830Y-78264093D01*
X121980924Y-78277142D01*
X121949905Y-78282552D01*
X121881135Y-78287330D01*
X121779191Y-78291343D01*
X121648652Y-78294458D01*
X121494095Y-78296544D01*
X121320100Y-78297466D01*
X121278433Y-78297500D01*
X120613981Y-78297500D01*
X120565841Y-78246258D01*
X120524672Y-78175565D01*
X120517111Y-78096345D01*
X120542733Y-78022305D01*
X120573915Y-77986020D01*
X120590425Y-77972531D01*
X120608281Y-77961817D01*
X120632227Y-77953560D01*
X120667011Y-77947438D01*
X120717377Y-77943133D01*
X120788073Y-77940325D01*
X120883843Y-77938694D01*
X121009434Y-77937920D01*
X121169592Y-77937684D01*
X121291708Y-77937667D01*
X121476769Y-77937774D01*
X120565841Y-76066091D02*
X120524672Y-75995398D01*
X120524672Y-75995398D02*
X120517111Y-75916178D01*
X120517111Y-75916178D02*
X120542733Y-75842139D01*
X120542733Y-75842139D02*
X120573915Y-75805853D01*
X120573915Y-75805853D02*
X120590425Y-75792364D01*
X120590425Y-75792364D02*
X120608281Y-75781651D01*
X120608281Y-75781651D02*
X120632227Y-75773393D01*
X120632227Y-75773393D02*
X120667011Y-75767271D01*
X120667011Y-75767271D02*
X120717377Y-75762966D01*
X120717377Y-75762966D02*
X120788073Y-75760158D01*
X120788073Y-75760158D02*
X120883843Y-75758527D01*
X120883843Y-75758527D02*
X121009434Y-75757753D01*
X121009434Y-75757753D02*
X121169592Y-75757517D01*
X121169592Y-75757517D02*
X121291708Y-75757500D01*
X121291708Y-75757500D02*
X121476769Y-75757607D01*
X121476769Y-75757607D02*
X121624182Y-75758116D01*
X121624182Y-75758116D02*
X121738630Y-75759313D01*
X121738630Y-75759313D02*
X121824800Y-75761480D01*
X121824800Y-75761480D02*
X121887374Y-75764903D01*
X121887374Y-75764903D02*
X121931038Y-75769865D01*
X121931038Y-75769865D02*
X121960477Y-75776651D01*
X121960477Y-75776651D02*
X121980374Y-75785544D01*
X121980374Y-75785544D02*
X121995414Y-75796828D01*
X121995414Y-75796828D02*
X121999354Y-75800419D01*
X121999354Y-75800419D02*
X122038484Y-75850682D01*
X122038484Y-75850682D02*
X122058660Y-75896080D01*
X122058660Y-75896080D02*
X122059037Y-75961145D01*
X122059037Y-75961145D02*
X122036627Y-76030136D01*
X122036627Y-76030136D02*
X121998830Y-76083926D01*
X121998830Y-76083926D02*
X121980924Y-76096976D01*
X121980924Y-76096976D02*
X121949905Y-76102386D01*
X121949905Y-76102386D02*
X121881135Y-76107163D01*
X121881135Y-76107163D02*
X121779191Y-76111176D01*
X121779191Y-76111176D02*
X121648652Y-76114292D01*
X121648652Y-76114292D02*
X121494095Y-76116377D01*
X121494095Y-76116377D02*
X121320100Y-76117300D01*
X121320100Y-76117300D02*
X121278433Y-76117333D01*
X121278433Y-76117333D02*
X120613981Y-76117333D01*
X120613981Y-76117333D02*
X120565841Y-76066091D01*
X120565841Y-76066091D02*
X120565841Y-76066091D01*
G36*
X121476769Y-75757607D02*
G01*
X121624182Y-75758116D01*
X121738630Y-75759313D01*
X121824800Y-75761480D01*
X121887374Y-75764903D01*
X121931038Y-75769865D01*
X121960477Y-75776651D01*
X121980374Y-75785544D01*
X121995414Y-75796828D01*
X121999354Y-75800419D01*
X122038484Y-75850682D01*
X122058660Y-75896080D01*
X122059037Y-75961145D01*
X122036627Y-76030136D01*
X121998830Y-76083926D01*
X121980924Y-76096976D01*
X121949905Y-76102386D01*
X121881135Y-76107163D01*
X121779191Y-76111176D01*
X121648652Y-76114292D01*
X121494095Y-76116377D01*
X121320100Y-76117300D01*
X121278433Y-76117333D01*
X120613981Y-76117333D01*
X120565841Y-76066091D01*
X120524672Y-75995398D01*
X120517111Y-75916178D01*
X120542733Y-75842139D01*
X120573915Y-75805853D01*
X120590425Y-75792364D01*
X120608281Y-75781651D01*
X120632227Y-75773393D01*
X120667011Y-75767271D01*
X120717377Y-75762966D01*
X120788073Y-75760158D01*
X120883843Y-75758527D01*
X121009434Y-75757753D01*
X121169592Y-75757517D01*
X121291708Y-75757500D01*
X121476769Y-75757607D01*
G37*
X121476769Y-75757607D02*
X121624182Y-75758116D01*
X121738630Y-75759313D01*
X121824800Y-75761480D01*
X121887374Y-75764903D01*
X121931038Y-75769865D01*
X121960477Y-75776651D01*
X121980374Y-75785544D01*
X121995414Y-75796828D01*
X121999354Y-75800419D01*
X122038484Y-75850682D01*
X122058660Y-75896080D01*
X122059037Y-75961145D01*
X122036627Y-76030136D01*
X121998830Y-76083926D01*
X121980924Y-76096976D01*
X121949905Y-76102386D01*
X121881135Y-76107163D01*
X121779191Y-76111176D01*
X121648652Y-76114292D01*
X121494095Y-76116377D01*
X121320100Y-76117300D01*
X121278433Y-76117333D01*
X120613981Y-76117333D01*
X120565841Y-76066091D01*
X120524672Y-75995398D01*
X120517111Y-75916178D01*
X120542733Y-75842139D01*
X120573915Y-75805853D01*
X120590425Y-75792364D01*
X120608281Y-75781651D01*
X120632227Y-75773393D01*
X120667011Y-75767271D01*
X120717377Y-75762966D01*
X120788073Y-75760158D01*
X120883843Y-75758527D01*
X121009434Y-75757753D01*
X121169592Y-75757517D01*
X121291708Y-75757500D01*
X121476769Y-75757607D01*
X125524713Y-76561410D02*
X125373782Y-76560212D01*
X125373782Y-76560212D02*
X125241009Y-76558346D01*
X125241009Y-76558346D02*
X125131860Y-76555918D01*
X125131860Y-76555918D02*
X125051802Y-76553035D01*
X125051802Y-76553035D02*
X125006303Y-76549805D01*
X125006303Y-76549805D02*
X124998795Y-76548363D01*
X124998795Y-76548363D02*
X124964400Y-76519222D01*
X124964400Y-76519222D02*
X124944671Y-76484863D01*
X124944671Y-76484863D02*
X124925650Y-76434833D01*
X124925650Y-76434833D02*
X124174958Y-76434833D01*
X124174958Y-76434833D02*
X123955873Y-76434230D01*
X123955873Y-76434230D02*
X123771602Y-76432446D01*
X123771602Y-76432446D02*
X123623609Y-76429523D01*
X123623609Y-76429523D02*
X123513360Y-76425502D01*
X123513360Y-76425502D02*
X123442316Y-76420423D01*
X123442316Y-76420423D02*
X123411944Y-76414328D01*
X123411944Y-76414328D02*
X123411068Y-76413477D01*
X123411068Y-76413477D02*
X123406014Y-76377526D01*
X123406014Y-76377526D02*
X123411245Y-76349977D01*
X123411245Y-76349977D02*
X123416075Y-76338801D01*
X123416075Y-76338801D02*
X123425531Y-76329798D01*
X123425531Y-76329798D02*
X123443816Y-76322732D01*
X123443816Y-76322732D02*
X123475132Y-76317371D01*
X123475132Y-76317371D02*
X123523681Y-76313477D01*
X123523681Y-76313477D02*
X123593667Y-76310819D01*
X123593667Y-76310819D02*
X123689290Y-76309159D01*
X123689290Y-76309159D02*
X123814754Y-76308265D01*
X123814754Y-76308265D02*
X123974260Y-76307901D01*
X123974260Y-76307901D02*
X124166119Y-76307833D01*
X124166119Y-76307833D02*
X124907617Y-76307833D01*
X124907617Y-76307833D02*
X125026253Y-76180833D01*
X125026253Y-76180833D02*
X126325784Y-76180833D01*
X126325784Y-76180833D02*
X126444420Y-76307833D01*
X126444420Y-76307833D02*
X127186599Y-76307833D01*
X127186599Y-76307833D02*
X127384222Y-76307963D01*
X127384222Y-76307963D02*
X127543711Y-76308488D01*
X127543711Y-76308488D02*
X127669265Y-76309613D01*
X127669265Y-76309613D02*
X127765084Y-76311541D01*
X127765084Y-76311541D02*
X127835367Y-76314478D01*
X127835367Y-76314478D02*
X127884312Y-76318628D01*
X127884312Y-76318628D02*
X127916120Y-76324194D01*
X127916120Y-76324194D02*
X127934990Y-76331382D01*
X127934990Y-76331382D02*
X127945120Y-76340396D01*
X127945120Y-76340396D02*
X127947830Y-76344875D01*
X127947830Y-76344875D02*
X127958680Y-76367825D01*
X127958680Y-76367825D02*
X127962787Y-76386497D01*
X127962787Y-76386497D02*
X127956424Y-76401333D01*
X127956424Y-76401333D02*
X127935864Y-76412773D01*
X127935864Y-76412773D02*
X127897379Y-76421259D01*
X127897379Y-76421259D02*
X127837244Y-76427232D01*
X127837244Y-76427232D02*
X127751730Y-76431133D01*
X127751730Y-76431133D02*
X127637112Y-76433402D01*
X127637112Y-76433402D02*
X127489661Y-76434481D01*
X127489661Y-76434481D02*
X127305652Y-76434811D01*
X127305652Y-76434811D02*
X127187671Y-76434833D01*
X127187671Y-76434833D02*
X126965649Y-76435418D01*
X126965649Y-76435418D02*
X126780338Y-76437150D01*
X126780338Y-76437150D02*
X126632827Y-76440000D01*
X126632827Y-76440000D02*
X126524203Y-76443937D01*
X126524203Y-76443937D02*
X126455554Y-76448932D01*
X126455554Y-76448932D02*
X126427966Y-76454953D01*
X126427966Y-76454953D02*
X126427435Y-76456000D01*
X126427435Y-76456000D02*
X126413773Y-76485201D01*
X126413773Y-76485201D02*
X126385102Y-76519500D01*
X126385102Y-76519500D02*
X126371472Y-76531394D01*
X126371472Y-76531394D02*
X126353899Y-76540827D01*
X126353899Y-76540827D02*
X126327696Y-76548082D01*
X126327696Y-76548082D02*
X126288177Y-76553444D01*
X126288177Y-76553444D02*
X126230657Y-76557198D01*
X126230657Y-76557198D02*
X126150449Y-76559629D01*
X126150449Y-76559629D02*
X126042866Y-76561022D01*
X126042866Y-76561022D02*
X125903224Y-76561661D01*
X125903224Y-76561661D02*
X125726835Y-76561831D01*
X125726835Y-76561831D02*
X125688333Y-76561833D01*
X125688333Y-76561833D02*
X125524713Y-76561410D01*
X125524713Y-76561410D02*
X125524713Y-76561410D01*
G36*
X126444420Y-76307833D02*
G01*
X127186599Y-76307833D01*
X127384222Y-76307963D01*
X127543711Y-76308488D01*
X127669265Y-76309613D01*
X127765084Y-76311541D01*
X127835367Y-76314478D01*
X127884312Y-76318628D01*
X127916120Y-76324194D01*
X127934990Y-76331382D01*
X127945120Y-76340396D01*
X127947830Y-76344875D01*
X127958680Y-76367825D01*
X127962787Y-76386497D01*
X127956424Y-76401333D01*
X127935864Y-76412773D01*
X127897379Y-76421259D01*
X127837244Y-76427232D01*
X127751730Y-76431133D01*
X127637112Y-76433402D01*
X127489661Y-76434481D01*
X127305652Y-76434811D01*
X127187671Y-76434833D01*
X126965649Y-76435418D01*
X126780338Y-76437150D01*
X126632827Y-76440000D01*
X126524203Y-76443937D01*
X126455554Y-76448932D01*
X126427966Y-76454953D01*
X126427435Y-76456000D01*
X126413773Y-76485201D01*
X126385102Y-76519500D01*
X126371472Y-76531394D01*
X126353899Y-76540827D01*
X126327696Y-76548082D01*
X126288177Y-76553444D01*
X126230657Y-76557198D01*
X126150449Y-76559629D01*
X126042866Y-76561022D01*
X125903224Y-76561661D01*
X125726835Y-76561831D01*
X125688333Y-76561833D01*
X125524713Y-76561410D01*
X125373782Y-76560212D01*
X125241009Y-76558346D01*
X125131860Y-76555918D01*
X125051802Y-76553035D01*
X125006303Y-76549805D01*
X124998795Y-76548363D01*
X124964400Y-76519222D01*
X124944671Y-76484863D01*
X124925650Y-76434833D01*
X124174958Y-76434833D01*
X123955873Y-76434230D01*
X123771602Y-76432446D01*
X123623609Y-76429523D01*
X123513360Y-76425502D01*
X123442316Y-76420423D01*
X123411944Y-76414328D01*
X123411068Y-76413477D01*
X123406014Y-76377526D01*
X123411245Y-76349977D01*
X123416075Y-76338801D01*
X123425531Y-76329798D01*
X123443816Y-76322732D01*
X123475132Y-76317371D01*
X123523681Y-76313477D01*
X123593667Y-76310819D01*
X123689290Y-76309159D01*
X123814754Y-76308265D01*
X123974260Y-76307901D01*
X124166119Y-76307833D01*
X124907617Y-76307833D01*
X125026253Y-76180833D01*
X126325784Y-76180833D01*
X126444420Y-76307833D01*
G37*
X126444420Y-76307833D02*
X127186599Y-76307833D01*
X127384222Y-76307963D01*
X127543711Y-76308488D01*
X127669265Y-76309613D01*
X127765084Y-76311541D01*
X127835367Y-76314478D01*
X127884312Y-76318628D01*
X127916120Y-76324194D01*
X127934990Y-76331382D01*
X127945120Y-76340396D01*
X127947830Y-76344875D01*
X127958680Y-76367825D01*
X127962787Y-76386497D01*
X127956424Y-76401333D01*
X127935864Y-76412773D01*
X127897379Y-76421259D01*
X127837244Y-76427232D01*
X127751730Y-76431133D01*
X127637112Y-76433402D01*
X127489661Y-76434481D01*
X127305652Y-76434811D01*
X127187671Y-76434833D01*
X126965649Y-76435418D01*
X126780338Y-76437150D01*
X126632827Y-76440000D01*
X126524203Y-76443937D01*
X126455554Y-76448932D01*
X126427966Y-76454953D01*
X126427435Y-76456000D01*
X126413773Y-76485201D01*
X126385102Y-76519500D01*
X126371472Y-76531394D01*
X126353899Y-76540827D01*
X126327696Y-76548082D01*
X126288177Y-76553444D01*
X126230657Y-76557198D01*
X126150449Y-76559629D01*
X126042866Y-76561022D01*
X125903224Y-76561661D01*
X125726835Y-76561831D01*
X125688333Y-76561833D01*
X125524713Y-76561410D01*
X125373782Y-76560212D01*
X125241009Y-76558346D01*
X125131860Y-76555918D01*
X125051802Y-76553035D01*
X125006303Y-76549805D01*
X124998795Y-76548363D01*
X124964400Y-76519222D01*
X124944671Y-76484863D01*
X124925650Y-76434833D01*
X124174958Y-76434833D01*
X123955873Y-76434230D01*
X123771602Y-76432446D01*
X123623609Y-76429523D01*
X123513360Y-76425502D01*
X123442316Y-76420423D01*
X123411944Y-76414328D01*
X123411068Y-76413477D01*
X123406014Y-76377526D01*
X123411245Y-76349977D01*
X123416075Y-76338801D01*
X123425531Y-76329798D01*
X123443816Y-76322732D01*
X123475132Y-76317371D01*
X123523681Y-76313477D01*
X123593667Y-76310819D01*
X123689290Y-76309159D01*
X123814754Y-76308265D01*
X123974260Y-76307901D01*
X124166119Y-76307833D01*
X124907617Y-76307833D01*
X125026253Y-76180833D01*
X126325784Y-76180833D01*
X126444420Y-76307833D01*
X124954405Y-76064417D02*
X124919733Y-76011500D01*
X124919733Y-76011500D02*
X124183926Y-76011500D01*
X124183926Y-76011500D02*
X123985422Y-76011312D01*
X123985422Y-76011312D02*
X123825064Y-76010624D01*
X123825064Y-76010624D02*
X123698667Y-76009254D01*
X123698667Y-76009254D02*
X123602045Y-76007016D01*
X123602045Y-76007016D02*
X123531013Y-76003728D01*
X123531013Y-76003728D02*
X123481385Y-75999206D01*
X123481385Y-75999206D02*
X123448975Y-75993266D01*
X123448975Y-75993266D02*
X123429597Y-75985724D01*
X123429597Y-75985724D02*
X123420296Y-75977976D01*
X123420296Y-75977976D02*
X123403908Y-75937277D01*
X123403908Y-75937277D02*
X123414712Y-75909184D01*
X123414712Y-75909184D02*
X123424087Y-75899728D01*
X123424087Y-75899728D02*
X123441871Y-75892028D01*
X123441871Y-75892028D02*
X123472241Y-75885862D01*
X123472241Y-75885862D02*
X123519377Y-75881005D01*
X123519377Y-75881005D02*
X123587457Y-75877235D01*
X123587457Y-75877235D02*
X123680660Y-75874328D01*
X123680660Y-75874328D02*
X123803163Y-75872061D01*
X123803163Y-75872061D02*
X123959146Y-75870210D01*
X123959146Y-75870210D02*
X124152787Y-75868552D01*
X124152787Y-75868552D02*
X124178518Y-75868357D01*
X124178518Y-75868357D02*
X124920085Y-75862797D01*
X124920085Y-75862797D02*
X124954581Y-75810149D01*
X124954581Y-75810149D02*
X124989078Y-75757500D01*
X124989078Y-75757500D02*
X126362959Y-75757500D01*
X126362959Y-75757500D02*
X126397632Y-75810417D01*
X126397632Y-75810417D02*
X126432304Y-75863333D01*
X126432304Y-75863333D02*
X127169191Y-75863333D01*
X127169191Y-75863333D02*
X127368351Y-75863532D01*
X127368351Y-75863532D02*
X127529377Y-75864249D01*
X127529377Y-75864249D02*
X127656469Y-75865665D01*
X127656469Y-75865665D02*
X127753825Y-75867962D01*
X127753825Y-75867962D02*
X127825644Y-75871320D01*
X127825644Y-75871320D02*
X127876126Y-75875920D01*
X127876126Y-75875920D02*
X127909467Y-75881945D01*
X127909467Y-75881945D02*
X127929868Y-75889574D01*
X127929868Y-75889574D02*
X127939298Y-75896553D01*
X127939298Y-75896553D02*
X127960941Y-75934901D01*
X127960941Y-75934901D02*
X127950648Y-75970637D01*
X127950648Y-75970637D02*
X127943208Y-75981478D01*
X127943208Y-75981478D02*
X127930870Y-75990213D01*
X127930870Y-75990213D02*
X127909389Y-75997069D01*
X127909389Y-75997069D02*
X127874522Y-76002272D01*
X127874522Y-76002272D02*
X127822023Y-76006050D01*
X127822023Y-76006050D02*
X127747647Y-76008629D01*
X127747647Y-76008629D02*
X127647150Y-76010236D01*
X127647150Y-76010236D02*
X127516288Y-76011099D01*
X127516288Y-76011099D02*
X127350815Y-76011444D01*
X127350815Y-76011444D02*
X127186445Y-76011500D01*
X127186445Y-76011500D02*
X126444111Y-76011500D01*
X126444111Y-76011500D02*
X126402487Y-76064417D01*
X126402487Y-76064417D02*
X126360863Y-76117333D01*
X126360863Y-76117333D02*
X124989078Y-76117333D01*
X124989078Y-76117333D02*
X124954405Y-76064417D01*
X124954405Y-76064417D02*
X124954405Y-76064417D01*
G36*
X126397632Y-75810417D02*
G01*
X126432304Y-75863333D01*
X127169191Y-75863333D01*
X127368351Y-75863532D01*
X127529377Y-75864249D01*
X127656469Y-75865665D01*
X127753825Y-75867962D01*
X127825644Y-75871320D01*
X127876126Y-75875920D01*
X127909467Y-75881945D01*
X127929868Y-75889574D01*
X127939298Y-75896553D01*
X127960941Y-75934901D01*
X127950648Y-75970637D01*
X127943208Y-75981478D01*
X127930870Y-75990213D01*
X127909389Y-75997069D01*
X127874522Y-76002272D01*
X127822023Y-76006050D01*
X127747647Y-76008629D01*
X127647150Y-76010236D01*
X127516288Y-76011099D01*
X127350815Y-76011444D01*
X127186445Y-76011500D01*
X126444111Y-76011500D01*
X126402487Y-76064417D01*
X126360863Y-76117333D01*
X124989078Y-76117333D01*
X124954405Y-76064417D01*
X124919733Y-76011500D01*
X124183926Y-76011500D01*
X123985422Y-76011312D01*
X123825064Y-76010624D01*
X123698667Y-76009254D01*
X123602045Y-76007016D01*
X123531013Y-76003728D01*
X123481385Y-75999206D01*
X123448975Y-75993266D01*
X123429597Y-75985724D01*
X123420296Y-75977976D01*
X123403908Y-75937277D01*
X123414712Y-75909184D01*
X123424087Y-75899728D01*
X123441871Y-75892028D01*
X123472241Y-75885862D01*
X123519377Y-75881005D01*
X123587457Y-75877235D01*
X123680660Y-75874328D01*
X123803163Y-75872061D01*
X123959146Y-75870210D01*
X124152787Y-75868552D01*
X124178518Y-75868357D01*
X124920085Y-75862797D01*
X124954581Y-75810149D01*
X124989078Y-75757500D01*
X126362959Y-75757500D01*
X126397632Y-75810417D01*
G37*
X126397632Y-75810417D02*
X126432304Y-75863333D01*
X127169191Y-75863333D01*
X127368351Y-75863532D01*
X127529377Y-75864249D01*
X127656469Y-75865665D01*
X127753825Y-75867962D01*
X127825644Y-75871320D01*
X127876126Y-75875920D01*
X127909467Y-75881945D01*
X127929868Y-75889574D01*
X127939298Y-75896553D01*
X127960941Y-75934901D01*
X127950648Y-75970637D01*
X127943208Y-75981478D01*
X127930870Y-75990213D01*
X127909389Y-75997069D01*
X127874522Y-76002272D01*
X127822023Y-76006050D01*
X127747647Y-76008629D01*
X127647150Y-76010236D01*
X127516288Y-76011099D01*
X127350815Y-76011444D01*
X127186445Y-76011500D01*
X126444111Y-76011500D01*
X126402487Y-76064417D01*
X126360863Y-76117333D01*
X124989078Y-76117333D01*
X124954405Y-76064417D01*
X124919733Y-76011500D01*
X124183926Y-76011500D01*
X123985422Y-76011312D01*
X123825064Y-76010624D01*
X123698667Y-76009254D01*
X123602045Y-76007016D01*
X123531013Y-76003728D01*
X123481385Y-75999206D01*
X123448975Y-75993266D01*
X123429597Y-75985724D01*
X123420296Y-75977976D01*
X123403908Y-75937277D01*
X123414712Y-75909184D01*
X123424087Y-75899728D01*
X123441871Y-75892028D01*
X123472241Y-75885862D01*
X123519377Y-75881005D01*
X123587457Y-75877235D01*
X123680660Y-75874328D01*
X123803163Y-75872061D01*
X123959146Y-75870210D01*
X124152787Y-75868552D01*
X124178518Y-75868357D01*
X124920085Y-75862797D01*
X124954581Y-75810149D01*
X124989078Y-75757500D01*
X126362959Y-75757500D01*
X126397632Y-75810417D01*
X121102831Y-78741932D02*
X120956488Y-78741516D01*
X120956488Y-78741516D02*
X120842951Y-78740433D01*
X120842951Y-78740433D02*
X120757458Y-78738365D01*
X120757458Y-78738365D02*
X120695244Y-78734993D01*
X120695244Y-78734993D02*
X120651547Y-78729998D01*
X120651547Y-78729998D02*
X120621602Y-78723061D01*
X120621602Y-78723061D02*
X120600647Y-78713865D01*
X120600647Y-78713865D02*
X120583918Y-78702090D01*
X120583918Y-78702090D02*
X120574765Y-78694375D01*
X120574765Y-78694375D02*
X120528496Y-78630319D01*
X120528496Y-78630319D02*
X120514275Y-78554634D01*
X120514275Y-78554634D02*
X120530310Y-78479748D01*
X120530310Y-78479748D02*
X120574809Y-78418086D01*
X120574809Y-78418086D02*
X120618545Y-78390818D01*
X120618545Y-78390818D02*
X120664349Y-78380802D01*
X120664349Y-78380802D02*
X120744735Y-78372679D01*
X120744735Y-78372679D02*
X120852920Y-78366429D01*
X120852920Y-78366429D02*
X120982121Y-78362032D01*
X120982121Y-78362032D02*
X121125556Y-78359467D01*
X121125556Y-78359467D02*
X121276441Y-78358716D01*
X121276441Y-78358716D02*
X121427993Y-78359757D01*
X121427993Y-78359757D02*
X121573429Y-78362572D01*
X121573429Y-78362572D02*
X121705966Y-78367140D01*
X121705966Y-78367140D02*
X121818822Y-78373440D01*
X121818822Y-78373440D02*
X121905212Y-78381454D01*
X121905212Y-78381454D02*
X121958355Y-78391162D01*
X121958355Y-78391162D02*
X121967535Y-78394785D01*
X121967535Y-78394785D02*
X122032454Y-78450408D01*
X122032454Y-78450408D02*
X122062354Y-78521851D01*
X122062354Y-78521851D02*
X122055946Y-78599349D01*
X122055946Y-78599349D02*
X122011940Y-78673137D01*
X122011940Y-78673137D02*
X122005230Y-78680128D01*
X122005230Y-78680128D02*
X121943358Y-78742000D01*
X121943358Y-78742000D02*
X121286744Y-78742000D01*
X121286744Y-78742000D02*
X121102831Y-78741932D01*
X121102831Y-78741932D02*
X121102831Y-78741932D01*
G36*
X121427993Y-78359757D02*
G01*
X121573429Y-78362572D01*
X121705966Y-78367140D01*
X121818822Y-78373440D01*
X121905212Y-78381454D01*
X121958355Y-78391162D01*
X121967535Y-78394785D01*
X122032454Y-78450408D01*
X122062354Y-78521851D01*
X122055946Y-78599349D01*
X122011940Y-78673137D01*
X122005230Y-78680128D01*
X121943358Y-78742000D01*
X121286744Y-78742000D01*
X121102831Y-78741932D01*
X120956488Y-78741516D01*
X120842951Y-78740433D01*
X120757458Y-78738365D01*
X120695244Y-78734993D01*
X120651547Y-78729998D01*
X120621602Y-78723061D01*
X120600647Y-78713865D01*
X120583918Y-78702090D01*
X120574765Y-78694375D01*
X120528496Y-78630319D01*
X120514275Y-78554634D01*
X120530310Y-78479748D01*
X120574809Y-78418086D01*
X120618545Y-78390818D01*
X120664349Y-78380802D01*
X120744735Y-78372679D01*
X120852920Y-78366429D01*
X120982121Y-78362032D01*
X121125556Y-78359467D01*
X121276441Y-78358716D01*
X121427993Y-78359757D01*
G37*
X121427993Y-78359757D02*
X121573429Y-78362572D01*
X121705966Y-78367140D01*
X121818822Y-78373440D01*
X121905212Y-78381454D01*
X121958355Y-78391162D01*
X121967535Y-78394785D01*
X122032454Y-78450408D01*
X122062354Y-78521851D01*
X122055946Y-78599349D01*
X122011940Y-78673137D01*
X122005230Y-78680128D01*
X121943358Y-78742000D01*
X121286744Y-78742000D01*
X121102831Y-78741932D01*
X120956488Y-78741516D01*
X120842951Y-78740433D01*
X120757458Y-78738365D01*
X120695244Y-78734993D01*
X120651547Y-78729998D01*
X120621602Y-78723061D01*
X120600647Y-78713865D01*
X120583918Y-78702090D01*
X120574765Y-78694375D01*
X120528496Y-78630319D01*
X120514275Y-78554634D01*
X120530310Y-78479748D01*
X120574809Y-78418086D01*
X120618545Y-78390818D01*
X120664349Y-78380802D01*
X120744735Y-78372679D01*
X120852920Y-78366429D01*
X120982121Y-78362032D01*
X121125556Y-78359467D01*
X121276441Y-78358716D01*
X121427993Y-78359757D01*
X125494773Y-79186386D02*
X125349516Y-79185849D01*
X125349516Y-79185849D02*
X125237162Y-79184600D01*
X125237162Y-79184600D02*
X125152994Y-79182351D01*
X125152994Y-79182351D02*
X125092297Y-79178810D01*
X125092297Y-79178810D02*
X125050355Y-79173690D01*
X125050355Y-79173690D02*
X125022454Y-79166699D01*
X125022454Y-79166699D02*
X125003876Y-79157550D01*
X125003876Y-79157550D02*
X124989907Y-79145951D01*
X124989907Y-79145951D02*
X124988102Y-79144167D01*
X124988102Y-79144167D02*
X124957025Y-79106259D01*
X124957025Y-79106259D02*
X124945768Y-79080667D01*
X124945768Y-79080667D02*
X124924789Y-79074486D01*
X124924789Y-79074486D02*
X124862574Y-79069328D01*
X124862574Y-79069328D02*
X124760211Y-79065221D01*
X124760211Y-79065221D02*
X124618787Y-79062196D01*
X124618787Y-79062196D02*
X124439388Y-79060284D01*
X124439388Y-79060284D02*
X124223101Y-79059515D01*
X124223101Y-79059515D02*
X124185195Y-79059500D01*
X124185195Y-79059500D02*
X123985775Y-79059430D01*
X123985775Y-79059430D02*
X123824541Y-79059071D01*
X123824541Y-79059071D02*
X123697345Y-79058195D01*
X123697345Y-79058195D02*
X123600041Y-79056578D01*
X123600041Y-79056578D02*
X123528479Y-79053993D01*
X123528479Y-79053993D02*
X123478514Y-79050214D01*
X123478514Y-79050214D02*
X123445997Y-79045016D01*
X123445997Y-79045016D02*
X123426781Y-79038174D01*
X123426781Y-79038174D02*
X123416719Y-79029460D01*
X123416719Y-79029460D02*
X123411663Y-79018649D01*
X123411663Y-79018649D02*
X123411245Y-79017356D01*
X123411245Y-79017356D02*
X123405968Y-78973323D01*
X123405968Y-78973323D02*
X123411068Y-78953856D01*
X123411068Y-78953856D02*
X123436121Y-78947659D01*
X123436121Y-78947659D02*
X123502057Y-78942464D01*
X123502057Y-78942464D02*
X123607435Y-78938313D01*
X123607435Y-78938313D02*
X123750815Y-78935244D01*
X123750815Y-78935244D02*
X123930757Y-78933298D01*
X123930757Y-78933298D02*
X124145821Y-78932515D01*
X124145821Y-78932515D02*
X124182549Y-78932500D01*
X124182549Y-78932500D02*
X124381904Y-78932403D01*
X124381904Y-78932403D02*
X124543050Y-78931972D01*
X124543050Y-78931972D02*
X124670111Y-78930998D01*
X124670111Y-78930998D02*
X124767210Y-78929269D01*
X124767210Y-78929269D02*
X124838472Y-78926578D01*
X124838472Y-78926578D02*
X124888021Y-78922713D01*
X124888021Y-78922713D02*
X124919981Y-78917464D01*
X124919981Y-78917464D02*
X124938476Y-78910623D01*
X124938476Y-78910623D02*
X124947629Y-78901979D01*
X124947629Y-78901979D02*
X124951057Y-78893395D01*
X124951057Y-78893395D02*
X124981622Y-78859354D01*
X124981622Y-78859354D02*
X125043484Y-78840711D01*
X125043484Y-78840711D02*
X125085396Y-78837372D01*
X125085396Y-78837372D02*
X125162258Y-78834661D01*
X125162258Y-78834661D02*
X125267164Y-78832576D01*
X125267164Y-78832576D02*
X125393210Y-78831109D01*
X125393210Y-78831109D02*
X125533488Y-78830256D01*
X125533488Y-78830256D02*
X125681093Y-78830011D01*
X125681093Y-78830011D02*
X125829119Y-78830369D01*
X125829119Y-78830369D02*
X125970660Y-78831325D01*
X125970660Y-78831325D02*
X126098811Y-78832873D01*
X126098811Y-78832873D02*
X126206664Y-78835009D01*
X126206664Y-78835009D02*
X126287315Y-78837725D01*
X126287315Y-78837725D02*
X126333858Y-78841019D01*
X126333858Y-78841019D02*
X126338283Y-78841710D01*
X126338283Y-78841710D02*
X126388194Y-78866240D01*
X126388194Y-78866240D02*
X126412166Y-78891745D01*
X126412166Y-78891745D02*
X126420557Y-78902480D01*
X126420557Y-78902480D02*
X126433754Y-78911147D01*
X126433754Y-78911147D02*
X126455986Y-78917966D01*
X126455986Y-78917966D02*
X126491480Y-78923157D01*
X126491480Y-78923157D02*
X126544463Y-78926942D01*
X126544463Y-78926942D02*
X126619164Y-78929541D01*
X126619164Y-78929541D02*
X126719810Y-78931175D01*
X126719810Y-78931175D02*
X126850629Y-78932066D01*
X126850629Y-78932066D02*
X127015848Y-78932434D01*
X127015848Y-78932434D02*
X127192262Y-78932500D01*
X127192262Y-78932500D02*
X127392366Y-78932655D01*
X127392366Y-78932655D02*
X127554221Y-78933243D01*
X127554221Y-78933243D02*
X127681909Y-78934445D01*
X127681909Y-78934445D02*
X127779513Y-78936446D01*
X127779513Y-78936446D02*
X127851117Y-78939429D01*
X127851117Y-78939429D02*
X127900803Y-78943576D01*
X127900803Y-78943576D02*
X127932654Y-78949071D01*
X127932654Y-78949071D02*
X127950754Y-78956097D01*
X127950754Y-78956097D02*
X127959185Y-78964837D01*
X127959185Y-78964837D02*
X127960119Y-78966933D01*
X127960119Y-78966933D02*
X127967556Y-78990548D01*
X127967556Y-78990548D02*
X127967434Y-79009769D01*
X127967434Y-79009769D02*
X127955992Y-79025047D01*
X127955992Y-79025047D02*
X127929470Y-79036833D01*
X127929470Y-79036833D02*
X127884108Y-79045579D01*
X127884108Y-79045579D02*
X127816144Y-79051736D01*
X127816144Y-79051736D02*
X127721818Y-79055755D01*
X127721818Y-79055755D02*
X127597369Y-79058086D01*
X127597369Y-79058086D02*
X127439037Y-79059182D01*
X127439037Y-79059182D02*
X127243061Y-79059492D01*
X127243061Y-79059492D02*
X127188472Y-79059500D01*
X127188472Y-79059500D02*
X126451858Y-79059500D01*
X126451858Y-79059500D02*
X126324858Y-79186500D01*
X126324858Y-79186500D02*
X125677647Y-79186500D01*
X125677647Y-79186500D02*
X125494773Y-79186386D01*
X125494773Y-79186386D02*
X125494773Y-79186386D01*
G36*
X125829119Y-78830369D02*
G01*
X125970660Y-78831325D01*
X126098811Y-78832873D01*
X126206664Y-78835009D01*
X126287315Y-78837725D01*
X126333858Y-78841019D01*
X126338283Y-78841710D01*
X126388194Y-78866240D01*
X126412166Y-78891745D01*
X126420557Y-78902480D01*
X126433754Y-78911147D01*
X126455986Y-78917966D01*
X126491480Y-78923157D01*
X126544463Y-78926942D01*
X126619164Y-78929541D01*
X126719810Y-78931175D01*
X126850629Y-78932066D01*
X127015848Y-78932434D01*
X127192262Y-78932500D01*
X127392366Y-78932655D01*
X127554221Y-78933243D01*
X127681909Y-78934445D01*
X127779513Y-78936446D01*
X127851117Y-78939429D01*
X127900803Y-78943576D01*
X127932654Y-78949071D01*
X127950754Y-78956097D01*
X127959185Y-78964837D01*
X127960119Y-78966933D01*
X127967556Y-78990548D01*
X127967434Y-79009769D01*
X127955992Y-79025047D01*
X127929470Y-79036833D01*
X127884108Y-79045579D01*
X127816144Y-79051736D01*
X127721818Y-79055755D01*
X127597369Y-79058086D01*
X127439037Y-79059182D01*
X127243061Y-79059492D01*
X127188472Y-79059500D01*
X126451858Y-79059500D01*
X126324858Y-79186500D01*
X125677647Y-79186500D01*
X125494773Y-79186386D01*
X125349516Y-79185849D01*
X125237162Y-79184600D01*
X125152994Y-79182351D01*
X125092297Y-79178810D01*
X125050355Y-79173690D01*
X125022454Y-79166699D01*
X125003876Y-79157550D01*
X124989907Y-79145951D01*
X124988102Y-79144167D01*
X124957025Y-79106259D01*
X124945768Y-79080667D01*
X124924789Y-79074486D01*
X124862574Y-79069328D01*
X124760211Y-79065221D01*
X124618787Y-79062196D01*
X124439388Y-79060284D01*
X124223101Y-79059515D01*
X124185195Y-79059500D01*
X123985775Y-79059430D01*
X123824541Y-79059071D01*
X123697345Y-79058195D01*
X123600041Y-79056578D01*
X123528479Y-79053993D01*
X123478514Y-79050214D01*
X123445997Y-79045016D01*
X123426781Y-79038174D01*
X123416719Y-79029460D01*
X123411663Y-79018649D01*
X123411245Y-79017356D01*
X123405968Y-78973323D01*
X123411068Y-78953856D01*
X123436121Y-78947659D01*
X123502057Y-78942464D01*
X123607435Y-78938313D01*
X123750815Y-78935244D01*
X123930757Y-78933298D01*
X124145821Y-78932515D01*
X124182549Y-78932500D01*
X124381904Y-78932403D01*
X124543050Y-78931972D01*
X124670111Y-78930998D01*
X124767210Y-78929269D01*
X124838472Y-78926578D01*
X124888021Y-78922713D01*
X124919981Y-78917464D01*
X124938476Y-78910623D01*
X124947629Y-78901979D01*
X124951057Y-78893395D01*
X124981622Y-78859354D01*
X125043484Y-78840711D01*
X125085396Y-78837372D01*
X125162258Y-78834661D01*
X125267164Y-78832576D01*
X125393210Y-78831109D01*
X125533488Y-78830256D01*
X125681093Y-78830011D01*
X125829119Y-78830369D01*
G37*
X125829119Y-78830369D02*
X125970660Y-78831325D01*
X126098811Y-78832873D01*
X126206664Y-78835009D01*
X126287315Y-78837725D01*
X126333858Y-78841019D01*
X126338283Y-78841710D01*
X126388194Y-78866240D01*
X126412166Y-78891745D01*
X126420557Y-78902480D01*
X126433754Y-78911147D01*
X126455986Y-78917966D01*
X126491480Y-78923157D01*
X126544463Y-78926942D01*
X126619164Y-78929541D01*
X126719810Y-78931175D01*
X126850629Y-78932066D01*
X127015848Y-78932434D01*
X127192262Y-78932500D01*
X127392366Y-78932655D01*
X127554221Y-78933243D01*
X127681909Y-78934445D01*
X127779513Y-78936446D01*
X127851117Y-78939429D01*
X127900803Y-78943576D01*
X127932654Y-78949071D01*
X127950754Y-78956097D01*
X127959185Y-78964837D01*
X127960119Y-78966933D01*
X127967556Y-78990548D01*
X127967434Y-79009769D01*
X127955992Y-79025047D01*
X127929470Y-79036833D01*
X127884108Y-79045579D01*
X127816144Y-79051736D01*
X127721818Y-79055755D01*
X127597369Y-79058086D01*
X127439037Y-79059182D01*
X127243061Y-79059492D01*
X127188472Y-79059500D01*
X126451858Y-79059500D01*
X126324858Y-79186500D01*
X125677647Y-79186500D01*
X125494773Y-79186386D01*
X125349516Y-79185849D01*
X125237162Y-79184600D01*
X125152994Y-79182351D01*
X125092297Y-79178810D01*
X125050355Y-79173690D01*
X125022454Y-79166699D01*
X125003876Y-79157550D01*
X124989907Y-79145951D01*
X124988102Y-79144167D01*
X124957025Y-79106259D01*
X124945768Y-79080667D01*
X124924789Y-79074486D01*
X124862574Y-79069328D01*
X124760211Y-79065221D01*
X124618787Y-79062196D01*
X124439388Y-79060284D01*
X124223101Y-79059515D01*
X124185195Y-79059500D01*
X123985775Y-79059430D01*
X123824541Y-79059071D01*
X123697345Y-79058195D01*
X123600041Y-79056578D01*
X123528479Y-79053993D01*
X123478514Y-79050214D01*
X123445997Y-79045016D01*
X123426781Y-79038174D01*
X123416719Y-79029460D01*
X123411663Y-79018649D01*
X123411245Y-79017356D01*
X123405968Y-78973323D01*
X123411068Y-78953856D01*
X123436121Y-78947659D01*
X123502057Y-78942464D01*
X123607435Y-78938313D01*
X123750815Y-78935244D01*
X123930757Y-78933298D01*
X124145821Y-78932515D01*
X124182549Y-78932500D01*
X124381904Y-78932403D01*
X124543050Y-78931972D01*
X124670111Y-78930998D01*
X124767210Y-78929269D01*
X124838472Y-78926578D01*
X124888021Y-78922713D01*
X124919981Y-78917464D01*
X124938476Y-78910623D01*
X124947629Y-78901979D01*
X124951057Y-78893395D01*
X124981622Y-78859354D01*
X125043484Y-78840711D01*
X125085396Y-78837372D01*
X125162258Y-78834661D01*
X125267164Y-78832576D01*
X125393210Y-78831109D01*
X125533488Y-78830256D01*
X125681093Y-78830011D01*
X125829119Y-78830369D01*
X121131748Y-77873466D02*
X120973516Y-77871460D01*
X120973516Y-77871460D02*
X120838221Y-77868297D01*
X120838221Y-77868297D02*
X120730673Y-77864123D01*
X120730673Y-77864123D02*
X120655684Y-77859083D01*
X120655684Y-77859083D02*
X120618063Y-77853326D01*
X120618063Y-77853326D02*
X120617539Y-77853135D01*
X120617539Y-77853135D02*
X120567625Y-77815789D01*
X120567625Y-77815789D02*
X120531211Y-77757885D01*
X120531211Y-77757885D02*
X120512384Y-77701401D01*
X120512384Y-77701401D02*
X120514743Y-77655174D01*
X120514743Y-77655174D02*
X120531211Y-77609449D01*
X120531211Y-77609449D02*
X120570353Y-77548535D01*
X120570353Y-77548535D02*
X120617539Y-77514199D01*
X120617539Y-77514199D02*
X120653910Y-77508421D01*
X120653910Y-77508421D02*
X120727799Y-77503357D01*
X120727799Y-77503357D02*
X120834398Y-77499153D01*
X120834398Y-77499153D02*
X120968895Y-77495956D01*
X120968895Y-77495956D02*
X121126480Y-77493912D01*
X121126480Y-77493912D02*
X121302344Y-77493168D01*
X121302344Y-77493168D02*
X121308108Y-77493167D01*
X121308108Y-77493167D02*
X121943358Y-77493167D01*
X121943358Y-77493167D02*
X122005230Y-77555039D01*
X122005230Y-77555039D02*
X122055358Y-77625547D01*
X122055358Y-77625547D02*
X122067102Y-77683667D01*
X122067102Y-77683667D02*
X122048212Y-77756641D01*
X122048212Y-77756641D02*
X122005230Y-77812295D01*
X122005230Y-77812295D02*
X121943358Y-77874167D01*
X121943358Y-77874167D02*
X121308108Y-77874167D01*
X121308108Y-77874167D02*
X121131748Y-77873466D01*
X121131748Y-77873466D02*
X121131748Y-77873466D01*
G36*
X122005230Y-77555039D02*
G01*
X122055358Y-77625547D01*
X122067102Y-77683667D01*
X122048212Y-77756641D01*
X122005230Y-77812295D01*
X121943358Y-77874167D01*
X121308108Y-77874167D01*
X121131748Y-77873466D01*
X120973516Y-77871460D01*
X120838221Y-77868297D01*
X120730673Y-77864123D01*
X120655684Y-77859083D01*
X120618063Y-77853326D01*
X120617539Y-77853135D01*
X120567625Y-77815789D01*
X120531211Y-77757885D01*
X120512384Y-77701401D01*
X120514743Y-77655174D01*
X120531211Y-77609449D01*
X120570353Y-77548535D01*
X120617539Y-77514199D01*
X120653910Y-77508421D01*
X120727799Y-77503357D01*
X120834398Y-77499153D01*
X120968895Y-77495956D01*
X121126480Y-77493912D01*
X121302344Y-77493168D01*
X121308108Y-77493167D01*
X121943358Y-77493167D01*
X122005230Y-77555039D01*
G37*
X122005230Y-77555039D02*
X122055358Y-77625547D01*
X122067102Y-77683667D01*
X122048212Y-77756641D01*
X122005230Y-77812295D01*
X121943358Y-77874167D01*
X121308108Y-77874167D01*
X121131748Y-77873466D01*
X120973516Y-77871460D01*
X120838221Y-77868297D01*
X120730673Y-77864123D01*
X120655684Y-77859083D01*
X120618063Y-77853326D01*
X120617539Y-77853135D01*
X120567625Y-77815789D01*
X120531211Y-77757885D01*
X120512384Y-77701401D01*
X120514743Y-77655174D01*
X120531211Y-77609449D01*
X120570353Y-77548535D01*
X120617539Y-77514199D01*
X120653910Y-77508421D01*
X120727799Y-77503357D01*
X120834398Y-77499153D01*
X120968895Y-77495956D01*
X121126480Y-77493912D01*
X121302344Y-77493168D01*
X121308108Y-77493167D01*
X121943358Y-77493167D01*
X122005230Y-77555039D01*
X124907617Y-76879333D02*
X124166119Y-76879333D01*
X124166119Y-76879333D02*
X123969459Y-76879261D01*
X123969459Y-76879261D02*
X123810929Y-76878886D01*
X123810929Y-76878886D02*
X123686329Y-76877974D01*
X123686329Y-76877974D02*
X123591454Y-76876291D01*
X123591454Y-76876291D02*
X123522104Y-76873601D01*
X123522104Y-76873601D02*
X123474076Y-76869672D01*
X123474076Y-76869672D02*
X123443168Y-76864267D01*
X123443168Y-76864267D02*
X123425178Y-76857152D01*
X123425178Y-76857152D02*
X123415902Y-76848093D01*
X123415902Y-76848093D02*
X123411245Y-76837190D01*
X123411245Y-76837190D02*
X123405968Y-76793156D01*
X123405968Y-76793156D02*
X123411068Y-76773690D01*
X123411068Y-76773690D02*
X123436136Y-76767466D01*
X123436136Y-76767466D02*
X123502059Y-76762254D01*
X123502059Y-76762254D02*
X123607374Y-76758095D01*
X123607374Y-76758095D02*
X123750613Y-76755029D01*
X123750613Y-76755029D02*
X123930311Y-76753098D01*
X123930311Y-76753098D02*
X124145002Y-76752343D01*
X124145002Y-76752343D02*
X124174434Y-76752333D01*
X124174434Y-76752333D02*
X124394725Y-76751742D01*
X124394725Y-76751742D02*
X124578368Y-76749987D01*
X124578368Y-76749987D02*
X124724255Y-76747101D01*
X124724255Y-76747101D02*
X124831278Y-76743114D01*
X124831278Y-76743114D02*
X124898328Y-76738058D01*
X124898328Y-76738058D02*
X124924299Y-76731965D01*
X124924299Y-76731965D02*
X124924602Y-76731167D01*
X124924602Y-76731167D02*
X124938264Y-76701966D01*
X124938264Y-76701966D02*
X124966935Y-76667667D01*
X124966935Y-76667667D02*
X124980438Y-76655872D01*
X124980438Y-76655872D02*
X124997846Y-76646496D01*
X124997846Y-76646496D02*
X125023796Y-76639263D01*
X125023796Y-76639263D02*
X125062925Y-76633894D01*
X125062925Y-76633894D02*
X125119871Y-76630114D01*
X125119871Y-76630114D02*
X125199271Y-76627645D01*
X125199271Y-76627645D02*
X125305762Y-76626211D01*
X125305762Y-76626211D02*
X125443981Y-76625535D01*
X125443981Y-76625535D02*
X125618566Y-76625340D01*
X125618566Y-76625340D02*
X125676018Y-76625333D01*
X125676018Y-76625333D02*
X125861892Y-76625442D01*
X125861892Y-76625442D02*
X126010070Y-76625952D01*
X126010070Y-76625952D02*
X126125189Y-76627140D01*
X126125189Y-76627140D02*
X126211887Y-76629284D01*
X126211887Y-76629284D02*
X126274800Y-76632659D01*
X126274800Y-76632659D02*
X126318567Y-76637544D01*
X126318567Y-76637544D02*
X126347823Y-76644214D01*
X126347823Y-76644214D02*
X126367207Y-76652947D01*
X126367207Y-76652947D02*
X126381356Y-76664019D01*
X126381356Y-76664019D02*
X126385102Y-76667667D01*
X126385102Y-76667667D02*
X126416179Y-76705575D01*
X126416179Y-76705575D02*
X126427435Y-76731167D01*
X126427435Y-76731167D02*
X126448415Y-76737350D01*
X126448415Y-76737350D02*
X126510627Y-76742511D01*
X126510627Y-76742511D02*
X126612985Y-76746618D01*
X126612985Y-76746618D02*
X126754398Y-76749642D01*
X126754398Y-76749642D02*
X126933780Y-76751553D01*
X126933780Y-76751553D02*
X127150041Y-76752319D01*
X127150041Y-76752319D02*
X127187171Y-76752333D01*
X127187171Y-76752333D02*
X127388008Y-76752487D01*
X127388008Y-76752487D02*
X127550581Y-76753069D01*
X127550581Y-76753069D02*
X127678961Y-76754261D01*
X127678961Y-76754261D02*
X127777214Y-76756243D01*
X127777214Y-76756243D02*
X127849412Y-76759197D01*
X127849412Y-76759197D02*
X127899622Y-76763304D01*
X127899622Y-76763304D02*
X127931915Y-76768746D01*
X127931915Y-76768746D02*
X127950358Y-76775704D01*
X127950358Y-76775704D02*
X127959021Y-76784359D01*
X127959021Y-76784359D02*
X127960119Y-76786766D01*
X127960119Y-76786766D02*
X127967539Y-76810239D01*
X127967539Y-76810239D02*
X127967513Y-76829373D01*
X127967513Y-76829373D02*
X127956302Y-76844610D01*
X127956302Y-76844610D02*
X127930166Y-76856392D01*
X127930166Y-76856392D02*
X127885366Y-76865163D01*
X127885366Y-76865163D02*
X127818162Y-76871364D01*
X127818162Y-76871364D02*
X127724816Y-76875438D01*
X127724816Y-76875438D02*
X127601588Y-76877826D01*
X127601588Y-76877826D02*
X127444738Y-76878973D01*
X127444738Y-76878973D02*
X127250528Y-76879319D01*
X127250528Y-76879319D02*
X127177686Y-76879333D01*
X127177686Y-76879333D02*
X126980242Y-76879393D01*
X126980242Y-76879393D02*
X126820942Y-76879732D01*
X126820942Y-76879732D02*
X126695597Y-76880591D01*
X126695597Y-76880591D02*
X126600016Y-76882207D01*
X126600016Y-76882207D02*
X126530011Y-76884823D01*
X126530011Y-76884823D02*
X126481392Y-76888676D01*
X126481392Y-76888676D02*
X126449969Y-76894007D01*
X126449969Y-76894007D02*
X126431554Y-76901055D01*
X126431554Y-76901055D02*
X126421957Y-76910060D01*
X126421957Y-76910060D02*
X126416988Y-76921262D01*
X126416988Y-76921262D02*
X126416467Y-76922879D01*
X126416467Y-76922879D02*
X126387052Y-76963389D01*
X126387052Y-76963389D02*
X126350163Y-76986379D01*
X126350163Y-76986379D02*
X126316230Y-76991420D01*
X126316230Y-76991420D02*
X126245719Y-76995993D01*
X126245719Y-76995993D02*
X126144388Y-76999931D01*
X126144388Y-76999931D02*
X126017989Y-77003068D01*
X126017989Y-77003068D02*
X125872279Y-77005236D01*
X125872279Y-77005236D02*
X125713014Y-77006270D01*
X125713014Y-77006270D02*
X125661966Y-77006333D01*
X125661966Y-77006333D02*
X125026253Y-77006333D01*
X125026253Y-77006333D02*
X124907617Y-76879333D01*
X124907617Y-76879333D02*
X124907617Y-76879333D01*
G36*
X125861892Y-76625442D02*
G01*
X126010070Y-76625952D01*
X126125189Y-76627140D01*
X126211887Y-76629284D01*
X126274800Y-76632659D01*
X126318567Y-76637544D01*
X126347823Y-76644214D01*
X126367207Y-76652947D01*
X126381356Y-76664019D01*
X126385102Y-76667667D01*
X126416179Y-76705575D01*
X126427435Y-76731167D01*
X126448415Y-76737350D01*
X126510627Y-76742511D01*
X126612985Y-76746618D01*
X126754398Y-76749642D01*
X126933780Y-76751553D01*
X127150041Y-76752319D01*
X127187171Y-76752333D01*
X127388008Y-76752487D01*
X127550581Y-76753069D01*
X127678961Y-76754261D01*
X127777214Y-76756243D01*
X127849412Y-76759197D01*
X127899622Y-76763304D01*
X127931915Y-76768746D01*
X127950358Y-76775704D01*
X127959021Y-76784359D01*
X127960119Y-76786766D01*
X127967539Y-76810239D01*
X127967513Y-76829373D01*
X127956302Y-76844610D01*
X127930166Y-76856392D01*
X127885366Y-76865163D01*
X127818162Y-76871364D01*
X127724816Y-76875438D01*
X127601588Y-76877826D01*
X127444738Y-76878973D01*
X127250528Y-76879319D01*
X127177686Y-76879333D01*
X126980242Y-76879393D01*
X126820942Y-76879732D01*
X126695597Y-76880591D01*
X126600016Y-76882207D01*
X126530011Y-76884823D01*
X126481392Y-76888676D01*
X126449969Y-76894007D01*
X126431554Y-76901055D01*
X126421957Y-76910060D01*
X126416988Y-76921262D01*
X126416467Y-76922879D01*
X126387052Y-76963389D01*
X126350163Y-76986379D01*
X126316230Y-76991420D01*
X126245719Y-76995993D01*
X126144388Y-76999931D01*
X126017989Y-77003068D01*
X125872279Y-77005236D01*
X125713014Y-77006270D01*
X125661966Y-77006333D01*
X125026253Y-77006333D01*
X124907617Y-76879333D01*
X124166119Y-76879333D01*
X123969459Y-76879261D01*
X123810929Y-76878886D01*
X123686329Y-76877974D01*
X123591454Y-76876291D01*
X123522104Y-76873601D01*
X123474076Y-76869672D01*
X123443168Y-76864267D01*
X123425178Y-76857152D01*
X123415902Y-76848093D01*
X123411245Y-76837190D01*
X123405968Y-76793156D01*
X123411068Y-76773690D01*
X123436136Y-76767466D01*
X123502059Y-76762254D01*
X123607374Y-76758095D01*
X123750613Y-76755029D01*
X123930311Y-76753098D01*
X124145002Y-76752343D01*
X124174434Y-76752333D01*
X124394725Y-76751742D01*
X124578368Y-76749987D01*
X124724255Y-76747101D01*
X124831278Y-76743114D01*
X124898328Y-76738058D01*
X124924299Y-76731965D01*
X124924602Y-76731167D01*
X124938264Y-76701966D01*
X124966935Y-76667667D01*
X124980438Y-76655872D01*
X124997846Y-76646496D01*
X125023796Y-76639263D01*
X125062925Y-76633894D01*
X125119871Y-76630114D01*
X125199271Y-76627645D01*
X125305762Y-76626211D01*
X125443981Y-76625535D01*
X125618566Y-76625340D01*
X125676018Y-76625333D01*
X125861892Y-76625442D01*
G37*
X125861892Y-76625442D02*
X126010070Y-76625952D01*
X126125189Y-76627140D01*
X126211887Y-76629284D01*
X126274800Y-76632659D01*
X126318567Y-76637544D01*
X126347823Y-76644214D01*
X126367207Y-76652947D01*
X126381356Y-76664019D01*
X126385102Y-76667667D01*
X126416179Y-76705575D01*
X126427435Y-76731167D01*
X126448415Y-76737350D01*
X126510627Y-76742511D01*
X126612985Y-76746618D01*
X126754398Y-76749642D01*
X126933780Y-76751553D01*
X127150041Y-76752319D01*
X127187171Y-76752333D01*
X127388008Y-76752487D01*
X127550581Y-76753069D01*
X127678961Y-76754261D01*
X127777214Y-76756243D01*
X127849412Y-76759197D01*
X127899622Y-76763304D01*
X127931915Y-76768746D01*
X127950358Y-76775704D01*
X127959021Y-76784359D01*
X127960119Y-76786766D01*
X127967539Y-76810239D01*
X127967513Y-76829373D01*
X127956302Y-76844610D01*
X127930166Y-76856392D01*
X127885366Y-76865163D01*
X127818162Y-76871364D01*
X127724816Y-76875438D01*
X127601588Y-76877826D01*
X127444738Y-76878973D01*
X127250528Y-76879319D01*
X127177686Y-76879333D01*
X126980242Y-76879393D01*
X126820942Y-76879732D01*
X126695597Y-76880591D01*
X126600016Y-76882207D01*
X126530011Y-76884823D01*
X126481392Y-76888676D01*
X126449969Y-76894007D01*
X126431554Y-76901055D01*
X126421957Y-76910060D01*
X126416988Y-76921262D01*
X126416467Y-76922879D01*
X126387052Y-76963389D01*
X126350163Y-76986379D01*
X126316230Y-76991420D01*
X126245719Y-76995993D01*
X126144388Y-76999931D01*
X126017989Y-77003068D01*
X125872279Y-77005236D01*
X125713014Y-77006270D01*
X125661966Y-77006333D01*
X125026253Y-77006333D01*
X124907617Y-76879333D01*
X124166119Y-76879333D01*
X123969459Y-76879261D01*
X123810929Y-76878886D01*
X123686329Y-76877974D01*
X123591454Y-76876291D01*
X123522104Y-76873601D01*
X123474076Y-76869672D01*
X123443168Y-76864267D01*
X123425178Y-76857152D01*
X123415902Y-76848093D01*
X123411245Y-76837190D01*
X123405968Y-76793156D01*
X123411068Y-76773690D01*
X123436136Y-76767466D01*
X123502059Y-76762254D01*
X123607374Y-76758095D01*
X123750613Y-76755029D01*
X123930311Y-76753098D01*
X124145002Y-76752343D01*
X124174434Y-76752333D01*
X124394725Y-76751742D01*
X124578368Y-76749987D01*
X124724255Y-76747101D01*
X124831278Y-76743114D01*
X124898328Y-76738058D01*
X124924299Y-76731965D01*
X124924602Y-76731167D01*
X124938264Y-76701966D01*
X124966935Y-76667667D01*
X124980438Y-76655872D01*
X124997846Y-76646496D01*
X125023796Y-76639263D01*
X125062925Y-76633894D01*
X125119871Y-76630114D01*
X125199271Y-76627645D01*
X125305762Y-76626211D01*
X125443981Y-76625535D01*
X125618566Y-76625340D01*
X125676018Y-76625333D01*
X125861892Y-76625442D01*
X124954405Y-77376750D02*
X124919733Y-77323833D01*
X124919733Y-77323833D02*
X124183926Y-77323833D01*
X124183926Y-77323833D02*
X123985422Y-77323645D01*
X123985422Y-77323645D02*
X123825064Y-77322958D01*
X123825064Y-77322958D02*
X123698667Y-77321587D01*
X123698667Y-77321587D02*
X123602045Y-77319349D01*
X123602045Y-77319349D02*
X123531013Y-77316062D01*
X123531013Y-77316062D02*
X123481385Y-77311539D01*
X123481385Y-77311539D02*
X123448975Y-77305599D01*
X123448975Y-77305599D02*
X123429597Y-77298057D01*
X123429597Y-77298057D02*
X123420296Y-77290309D01*
X123420296Y-77290309D02*
X123403908Y-77249610D01*
X123403908Y-77249610D02*
X123414712Y-77221518D01*
X123414712Y-77221518D02*
X123424087Y-77212061D01*
X123424087Y-77212061D02*
X123441871Y-77204362D01*
X123441871Y-77204362D02*
X123472241Y-77198195D01*
X123472241Y-77198195D02*
X123519377Y-77193339D01*
X123519377Y-77193339D02*
X123587457Y-77189568D01*
X123587457Y-77189568D02*
X123680660Y-77186661D01*
X123680660Y-77186661D02*
X123803163Y-77184394D01*
X123803163Y-77184394D02*
X123959146Y-77182543D01*
X123959146Y-77182543D02*
X124152787Y-77180885D01*
X124152787Y-77180885D02*
X124178518Y-77180690D01*
X124178518Y-77180690D02*
X124920085Y-77175130D01*
X124920085Y-77175130D02*
X124954581Y-77122482D01*
X124954581Y-77122482D02*
X124989078Y-77069833D01*
X124989078Y-77069833D02*
X126362959Y-77069833D01*
X126362959Y-77069833D02*
X126397632Y-77122750D01*
X126397632Y-77122750D02*
X126432304Y-77175667D01*
X126432304Y-77175667D02*
X127180541Y-77175667D01*
X127180541Y-77175667D02*
X127378395Y-77175756D01*
X127378395Y-77175756D02*
X127538143Y-77176172D01*
X127538143Y-77176172D02*
X127664011Y-77177141D01*
X127664011Y-77177141D02*
X127760227Y-77178885D01*
X127760227Y-77178885D02*
X127831017Y-77181630D01*
X127831017Y-77181630D02*
X127880609Y-77185600D01*
X127880609Y-77185600D02*
X127913230Y-77191018D01*
X127913230Y-77191018D02*
X127933105Y-77198110D01*
X127933105Y-77198110D02*
X127944464Y-77207099D01*
X127944464Y-77207099D02*
X127950648Y-77216530D01*
X127950648Y-77216530D02*
X127959884Y-77259162D01*
X127959884Y-77259162D02*
X127939298Y-77290614D01*
X127939298Y-77290614D02*
X127925921Y-77299583D01*
X127925921Y-77299583D02*
X127902793Y-77306810D01*
X127902793Y-77306810D02*
X127865715Y-77312476D01*
X127865715Y-77312476D02*
X127810488Y-77316761D01*
X127810488Y-77316761D02*
X127732913Y-77319847D01*
X127732913Y-77319847D02*
X127628793Y-77321916D01*
X127628793Y-77321916D02*
X127493927Y-77323147D01*
X127493927Y-77323147D02*
X127324118Y-77323723D01*
X127324118Y-77323723D02*
X127169191Y-77323833D01*
X127169191Y-77323833D02*
X126432304Y-77323833D01*
X126432304Y-77323833D02*
X126397632Y-77376750D01*
X126397632Y-77376750D02*
X126362959Y-77429667D01*
X126362959Y-77429667D02*
X124989078Y-77429667D01*
X124989078Y-77429667D02*
X124954405Y-77376750D01*
X124954405Y-77376750D02*
X124954405Y-77376750D01*
G36*
X126397632Y-77122750D02*
G01*
X126432304Y-77175667D01*
X127180541Y-77175667D01*
X127378395Y-77175756D01*
X127538143Y-77176172D01*
X127664011Y-77177141D01*
X127760227Y-77178885D01*
X127831017Y-77181630D01*
X127880609Y-77185600D01*
X127913230Y-77191018D01*
X127933105Y-77198110D01*
X127944464Y-77207099D01*
X127950648Y-77216530D01*
X127959884Y-77259162D01*
X127939298Y-77290614D01*
X127925921Y-77299583D01*
X127902793Y-77306810D01*
X127865715Y-77312476D01*
X127810488Y-77316761D01*
X127732913Y-77319847D01*
X127628793Y-77321916D01*
X127493927Y-77323147D01*
X127324118Y-77323723D01*
X127169191Y-77323833D01*
X126432304Y-77323833D01*
X126397632Y-77376750D01*
X126362959Y-77429667D01*
X124989078Y-77429667D01*
X124954405Y-77376750D01*
X124919733Y-77323833D01*
X124183926Y-77323833D01*
X123985422Y-77323645D01*
X123825064Y-77322958D01*
X123698667Y-77321587D01*
X123602045Y-77319349D01*
X123531013Y-77316062D01*
X123481385Y-77311539D01*
X123448975Y-77305599D01*
X123429597Y-77298057D01*
X123420296Y-77290309D01*
X123403908Y-77249610D01*
X123414712Y-77221518D01*
X123424087Y-77212061D01*
X123441871Y-77204362D01*
X123472241Y-77198195D01*
X123519377Y-77193339D01*
X123587457Y-77189568D01*
X123680660Y-77186661D01*
X123803163Y-77184394D01*
X123959146Y-77182543D01*
X124152787Y-77180885D01*
X124178518Y-77180690D01*
X124920085Y-77175130D01*
X124954581Y-77122482D01*
X124989078Y-77069833D01*
X126362959Y-77069833D01*
X126397632Y-77122750D01*
G37*
X126397632Y-77122750D02*
X126432304Y-77175667D01*
X127180541Y-77175667D01*
X127378395Y-77175756D01*
X127538143Y-77176172D01*
X127664011Y-77177141D01*
X127760227Y-77178885D01*
X127831017Y-77181630D01*
X127880609Y-77185600D01*
X127913230Y-77191018D01*
X127933105Y-77198110D01*
X127944464Y-77207099D01*
X127950648Y-77216530D01*
X127959884Y-77259162D01*
X127939298Y-77290614D01*
X127925921Y-77299583D01*
X127902793Y-77306810D01*
X127865715Y-77312476D01*
X127810488Y-77316761D01*
X127732913Y-77319847D01*
X127628793Y-77321916D01*
X127493927Y-77323147D01*
X127324118Y-77323723D01*
X127169191Y-77323833D01*
X126432304Y-77323833D01*
X126397632Y-77376750D01*
X126362959Y-77429667D01*
X124989078Y-77429667D01*
X124954405Y-77376750D01*
X124919733Y-77323833D01*
X124183926Y-77323833D01*
X123985422Y-77323645D01*
X123825064Y-77322958D01*
X123698667Y-77321587D01*
X123602045Y-77319349D01*
X123531013Y-77316062D01*
X123481385Y-77311539D01*
X123448975Y-77305599D01*
X123429597Y-77298057D01*
X123420296Y-77290309D01*
X123403908Y-77249610D01*
X123414712Y-77221518D01*
X123424087Y-77212061D01*
X123441871Y-77204362D01*
X123472241Y-77198195D01*
X123519377Y-77193339D01*
X123587457Y-77189568D01*
X123680660Y-77186661D01*
X123803163Y-77184394D01*
X123959146Y-77182543D01*
X124152787Y-77180885D01*
X124178518Y-77180690D01*
X124920085Y-77175130D01*
X124954581Y-77122482D01*
X124989078Y-77069833D01*
X126362959Y-77069833D01*
X126397632Y-77122750D01*
X125328566Y-78636102D02*
X125008018Y-78635888D01*
X125008018Y-78635888D02*
X124725177Y-78635493D01*
X124725177Y-78635493D02*
X124477733Y-78634886D01*
X124477733Y-78634886D02*
X124263372Y-78634036D01*
X124263372Y-78634036D02*
X124079782Y-78632911D01*
X124079782Y-78632911D02*
X123924650Y-78631480D01*
X123924650Y-78631480D02*
X123795665Y-78629712D01*
X123795665Y-78629712D02*
X123690513Y-78627575D01*
X123690513Y-78627575D02*
X123606882Y-78625039D01*
X123606882Y-78625039D02*
X123542460Y-78622073D01*
X123542460Y-78622073D02*
X123494934Y-78618644D01*
X123494934Y-78618644D02*
X123461992Y-78614721D01*
X123461992Y-78614721D02*
X123441322Y-78610274D01*
X123441322Y-78610274D02*
X123431106Y-78605657D01*
X123431106Y-78605657D02*
X123403360Y-78575139D01*
X123403360Y-78575139D02*
X123410834Y-78541349D01*
X123410834Y-78541349D02*
X123413491Y-78536865D01*
X123413491Y-78536865D02*
X123418716Y-78530769D01*
X123418716Y-78530769D02*
X123428078Y-78525344D01*
X123428078Y-78525344D02*
X123443969Y-78520544D01*
X123443969Y-78520544D02*
X123468777Y-78516322D01*
X123468777Y-78516322D02*
X123504894Y-78512633D01*
X123504894Y-78512633D02*
X123554709Y-78509431D01*
X123554709Y-78509431D02*
X123620613Y-78506669D01*
X123620613Y-78506669D02*
X123704996Y-78504303D01*
X123704996Y-78504303D02*
X123810248Y-78502285D01*
X123810248Y-78502285D02*
X123938759Y-78500570D01*
X123938759Y-78500570D02*
X124092920Y-78499111D01*
X124092920Y-78499111D02*
X124275121Y-78497864D01*
X124275121Y-78497864D02*
X124487751Y-78496781D01*
X124487751Y-78496781D02*
X124733202Y-78495817D01*
X124733202Y-78495817D02*
X125013863Y-78494926D01*
X125013863Y-78494926D02*
X125332125Y-78494061D01*
X125332125Y-78494061D02*
X125682820Y-78493196D01*
X125682820Y-78493196D02*
X126039804Y-78492354D01*
X126039804Y-78492354D02*
X126356851Y-78491668D01*
X126356851Y-78491668D02*
X126636354Y-78491174D01*
X126636354Y-78491174D02*
X126880710Y-78490910D01*
X126880710Y-78490910D02*
X127092313Y-78490913D01*
X127092313Y-78490913D02*
X127273559Y-78491222D01*
X127273559Y-78491222D02*
X127426843Y-78491873D01*
X127426843Y-78491873D02*
X127554560Y-78492905D01*
X127554560Y-78492905D02*
X127659105Y-78494355D01*
X127659105Y-78494355D02*
X127742874Y-78496259D01*
X127742874Y-78496259D02*
X127808261Y-78498657D01*
X127808261Y-78498657D02*
X127857661Y-78501586D01*
X127857661Y-78501586D02*
X127893471Y-78505082D01*
X127893471Y-78505082D02*
X127918084Y-78509185D01*
X127918084Y-78509185D02*
X127933897Y-78513930D01*
X127933897Y-78513930D02*
X127943304Y-78519357D01*
X127943304Y-78519357D02*
X127948701Y-78525501D01*
X127948701Y-78525501D02*
X127950597Y-78528767D01*
X127950597Y-78528767D02*
X127959914Y-78571412D01*
X127959914Y-78571412D02*
X127939298Y-78602947D01*
X127939298Y-78602947D02*
X127930763Y-78608301D01*
X127930763Y-78608301D02*
X127914909Y-78613055D01*
X127914909Y-78613055D02*
X127889364Y-78617243D01*
X127889364Y-78617243D02*
X127851753Y-78620901D01*
X127851753Y-78620901D02*
X127799705Y-78624063D01*
X127799705Y-78624063D02*
X127730847Y-78626765D01*
X127730847Y-78626765D02*
X127642805Y-78629041D01*
X127642805Y-78629041D02*
X127533207Y-78630927D01*
X127533207Y-78630927D02*
X127399681Y-78632457D01*
X127399681Y-78632457D02*
X127239852Y-78633668D01*
X127239852Y-78633668D02*
X127051348Y-78634593D01*
X127051348Y-78634593D02*
X126831797Y-78635267D01*
X126831797Y-78635267D02*
X126578826Y-78635727D01*
X126578826Y-78635727D02*
X126290061Y-78636006D01*
X126290061Y-78636006D02*
X125963130Y-78636140D01*
X125963130Y-78636140D02*
X125689136Y-78636167D01*
X125689136Y-78636167D02*
X125328566Y-78636102D01*
X125328566Y-78636102D02*
X125328566Y-78636102D01*
G36*
X127092313Y-78490913D02*
G01*
X127273559Y-78491222D01*
X127426843Y-78491873D01*
X127554560Y-78492905D01*
X127659105Y-78494355D01*
X127742874Y-78496259D01*
X127808261Y-78498657D01*
X127857661Y-78501586D01*
X127893471Y-78505082D01*
X127918084Y-78509185D01*
X127933897Y-78513930D01*
X127943304Y-78519357D01*
X127948701Y-78525501D01*
X127950597Y-78528767D01*
X127959914Y-78571412D01*
X127939298Y-78602947D01*
X127930763Y-78608301D01*
X127914909Y-78613055D01*
X127889364Y-78617243D01*
X127851753Y-78620901D01*
X127799705Y-78624063D01*
X127730847Y-78626765D01*
X127642805Y-78629041D01*
X127533207Y-78630927D01*
X127399681Y-78632457D01*
X127239852Y-78633668D01*
X127051348Y-78634593D01*
X126831797Y-78635267D01*
X126578826Y-78635727D01*
X126290061Y-78636006D01*
X125963130Y-78636140D01*
X125689136Y-78636167D01*
X125328566Y-78636102D01*
X125008018Y-78635888D01*
X124725177Y-78635493D01*
X124477733Y-78634886D01*
X124263372Y-78634036D01*
X124079782Y-78632911D01*
X123924650Y-78631480D01*
X123795665Y-78629712D01*
X123690513Y-78627575D01*
X123606882Y-78625039D01*
X123542460Y-78622073D01*
X123494934Y-78618644D01*
X123461992Y-78614721D01*
X123441322Y-78610274D01*
X123431106Y-78605657D01*
X123403360Y-78575139D01*
X123410834Y-78541349D01*
X123413491Y-78536865D01*
X123418716Y-78530769D01*
X123428078Y-78525344D01*
X123443969Y-78520544D01*
X123468777Y-78516322D01*
X123504894Y-78512633D01*
X123554709Y-78509431D01*
X123620613Y-78506669D01*
X123704996Y-78504303D01*
X123810248Y-78502285D01*
X123938759Y-78500570D01*
X124092920Y-78499111D01*
X124275121Y-78497864D01*
X124487751Y-78496781D01*
X124733202Y-78495817D01*
X125013863Y-78494926D01*
X125332125Y-78494061D01*
X125682820Y-78493196D01*
X126039804Y-78492354D01*
X126356851Y-78491668D01*
X126636354Y-78491174D01*
X126880710Y-78490910D01*
X127092313Y-78490913D01*
G37*
X127092313Y-78490913D02*
X127273559Y-78491222D01*
X127426843Y-78491873D01*
X127554560Y-78492905D01*
X127659105Y-78494355D01*
X127742874Y-78496259D01*
X127808261Y-78498657D01*
X127857661Y-78501586D01*
X127893471Y-78505082D01*
X127918084Y-78509185D01*
X127933897Y-78513930D01*
X127943304Y-78519357D01*
X127948701Y-78525501D01*
X127950597Y-78528767D01*
X127959914Y-78571412D01*
X127939298Y-78602947D01*
X127930763Y-78608301D01*
X127914909Y-78613055D01*
X127889364Y-78617243D01*
X127851753Y-78620901D01*
X127799705Y-78624063D01*
X127730847Y-78626765D01*
X127642805Y-78629041D01*
X127533207Y-78630927D01*
X127399681Y-78632457D01*
X127239852Y-78633668D01*
X127051348Y-78634593D01*
X126831797Y-78635267D01*
X126578826Y-78635727D01*
X126290061Y-78636006D01*
X125963130Y-78636140D01*
X125689136Y-78636167D01*
X125328566Y-78636102D01*
X125008018Y-78635888D01*
X124725177Y-78635493D01*
X124477733Y-78634886D01*
X124263372Y-78634036D01*
X124079782Y-78632911D01*
X123924650Y-78631480D01*
X123795665Y-78629712D01*
X123690513Y-78627575D01*
X123606882Y-78625039D01*
X123542460Y-78622073D01*
X123494934Y-78618644D01*
X123461992Y-78614721D01*
X123441322Y-78610274D01*
X123431106Y-78605657D01*
X123403360Y-78575139D01*
X123410834Y-78541349D01*
X123413491Y-78536865D01*
X123418716Y-78530769D01*
X123428078Y-78525344D01*
X123443969Y-78520544D01*
X123468777Y-78516322D01*
X123504894Y-78512633D01*
X123554709Y-78509431D01*
X123620613Y-78506669D01*
X123704996Y-78504303D01*
X123810248Y-78502285D01*
X123938759Y-78500570D01*
X124092920Y-78499111D01*
X124275121Y-78497864D01*
X124487751Y-78496781D01*
X124733202Y-78495817D01*
X125013863Y-78494926D01*
X125332125Y-78494061D01*
X125682820Y-78493196D01*
X126039804Y-78492354D01*
X126356851Y-78491668D01*
X126636354Y-78491174D01*
X126880710Y-78490910D01*
X127092313Y-78490913D01*
X120862527Y-77003144D02*
X120774021Y-77000975D01*
X120774021Y-77000975D02*
X120708919Y-76997219D01*
X120708919Y-76997219D02*
X120662490Y-76991698D01*
X120662490Y-76991698D02*
X120630005Y-76984233D01*
X120630005Y-76984233D02*
X120607780Y-76975193D01*
X120607780Y-76975193D02*
X120550344Y-76923559D01*
X120550344Y-76923559D02*
X120520233Y-76849410D01*
X120520233Y-76849410D02*
X120522091Y-76765975D01*
X120522091Y-76765975D02*
X120527580Y-76746711D01*
X120527580Y-76746711D02*
X120539638Y-76714130D01*
X120539638Y-76714130D02*
X120554278Y-76687972D01*
X120554278Y-76687972D02*
X120575929Y-76667532D01*
X120575929Y-76667532D02*
X120609022Y-76652105D01*
X120609022Y-76652105D02*
X120657987Y-76640985D01*
X120657987Y-76640985D02*
X120727252Y-76633469D01*
X120727252Y-76633469D02*
X120821248Y-76628851D01*
X120821248Y-76628851D02*
X120944405Y-76626425D01*
X120944405Y-76626425D02*
X121101151Y-76625488D01*
X121101151Y-76625488D02*
X121290273Y-76625333D01*
X121290273Y-76625333D02*
X121943358Y-76625333D01*
X121943358Y-76625333D02*
X122007840Y-76689815D01*
X122007840Y-76689815D02*
X122049112Y-76737584D01*
X122049112Y-76737584D02*
X122063684Y-76780046D01*
X122063684Y-76780046D02*
X122059806Y-76831425D01*
X122059806Y-76831425D02*
X122039260Y-76896327D01*
X122039260Y-76896327D02*
X122006318Y-76949440D01*
X122006318Y-76949440D02*
X122003720Y-76952151D01*
X122003720Y-76952151D02*
X121989714Y-76964500D01*
X121989714Y-76964500D02*
X121971955Y-76974337D01*
X121971955Y-76974337D02*
X121945709Y-76982005D01*
X121945709Y-76982005D02*
X121906237Y-76987845D01*
X121906237Y-76987845D02*
X121848804Y-76992202D01*
X121848804Y-76992202D02*
X121768672Y-76995416D01*
X121768672Y-76995416D02*
X121661105Y-76997833D01*
X121661105Y-76997833D02*
X121521366Y-76999792D01*
X121521366Y-76999792D02*
X121344717Y-77001639D01*
X121344717Y-77001639D02*
X121315768Y-77001917D01*
X121315768Y-77001917D02*
X121128670Y-77003437D01*
X121128670Y-77003437D02*
X120979167Y-77003906D01*
X120979167Y-77003906D02*
X120862527Y-77003144D01*
X120862527Y-77003144D02*
X120862527Y-77003144D01*
G36*
X122007840Y-76689815D02*
G01*
X122049112Y-76737584D01*
X122063684Y-76780046D01*
X122059806Y-76831425D01*
X122039260Y-76896327D01*
X122006318Y-76949440D01*
X122003720Y-76952151D01*
X121989714Y-76964500D01*
X121971955Y-76974337D01*
X121945709Y-76982005D01*
X121906237Y-76987845D01*
X121848804Y-76992202D01*
X121768672Y-76995416D01*
X121661105Y-76997833D01*
X121521366Y-76999792D01*
X121344717Y-77001639D01*
X121315768Y-77001917D01*
X121128670Y-77003437D01*
X120979167Y-77003906D01*
X120862527Y-77003144D01*
X120774021Y-77000975D01*
X120708919Y-76997219D01*
X120662490Y-76991698D01*
X120630005Y-76984233D01*
X120607780Y-76975193D01*
X120550344Y-76923559D01*
X120520233Y-76849410D01*
X120522091Y-76765975D01*
X120527580Y-76746711D01*
X120539638Y-76714130D01*
X120554278Y-76687972D01*
X120575929Y-76667532D01*
X120609022Y-76652105D01*
X120657987Y-76640985D01*
X120727252Y-76633469D01*
X120821248Y-76628851D01*
X120944405Y-76626425D01*
X121101151Y-76625488D01*
X121290273Y-76625333D01*
X121943358Y-76625333D01*
X122007840Y-76689815D01*
G37*
X122007840Y-76689815D02*
X122049112Y-76737584D01*
X122063684Y-76780046D01*
X122059806Y-76831425D01*
X122039260Y-76896327D01*
X122006318Y-76949440D01*
X122003720Y-76952151D01*
X121989714Y-76964500D01*
X121971955Y-76974337D01*
X121945709Y-76982005D01*
X121906237Y-76987845D01*
X121848804Y-76992202D01*
X121768672Y-76995416D01*
X121661105Y-76997833D01*
X121521366Y-76999792D01*
X121344717Y-77001639D01*
X121315768Y-77001917D01*
X121128670Y-77003437D01*
X120979167Y-77003906D01*
X120862527Y-77003144D01*
X120774021Y-77000975D01*
X120708919Y-76997219D01*
X120662490Y-76991698D01*
X120630005Y-76984233D01*
X120607780Y-76975193D01*
X120550344Y-76923559D01*
X120520233Y-76849410D01*
X120522091Y-76765975D01*
X120527580Y-76746711D01*
X120539638Y-76714130D01*
X120554278Y-76687972D01*
X120575929Y-76667532D01*
X120609022Y-76652105D01*
X120657987Y-76640985D01*
X120727252Y-76633469D01*
X120821248Y-76628851D01*
X120944405Y-76626425D01*
X121101151Y-76625488D01*
X121290273Y-76625333D01*
X121943358Y-76625333D01*
X122007840Y-76689815D01*
X125497573Y-80477442D02*
X125345454Y-80476632D01*
X125345454Y-80476632D02*
X125226869Y-80475028D01*
X125226869Y-80475028D02*
X125137420Y-80472424D01*
X125137420Y-80472424D02*
X125072708Y-80468615D01*
X125072708Y-80468615D02*
X125028335Y-80463394D01*
X125028335Y-80463394D02*
X124999902Y-80456553D01*
X124999902Y-80456553D02*
X124983010Y-80447888D01*
X124983010Y-80447888D02*
X124979030Y-80444405D01*
X124979030Y-80444405D02*
X124952313Y-80409706D01*
X124952313Y-80409706D02*
X124945768Y-80391488D01*
X124945768Y-80391488D02*
X124925161Y-80386417D01*
X124925161Y-80386417D02*
X124865572Y-80381960D01*
X124865572Y-80381960D02*
X124770348Y-80378204D01*
X124770348Y-80378204D02*
X124642838Y-80375237D01*
X124642838Y-80375237D02*
X124486388Y-80373144D01*
X124486388Y-80373144D02*
X124304347Y-80372014D01*
X124304347Y-80372014D02*
X124188860Y-80371833D01*
X124188860Y-80371833D02*
X123989857Y-80371910D01*
X123989857Y-80371910D02*
X123828956Y-80372291D01*
X123828956Y-80372291D02*
X123701928Y-80373206D01*
X123701928Y-80373206D02*
X123604540Y-80374884D01*
X123604540Y-80374884D02*
X123532564Y-80377552D01*
X123532564Y-80377552D02*
X123481767Y-80381440D01*
X123481767Y-80381440D02*
X123447920Y-80386776D01*
X123447920Y-80386776D02*
X123426792Y-80393789D01*
X123426792Y-80393789D02*
X123414152Y-80402707D01*
X123414152Y-80402707D02*
X123405769Y-80413759D01*
X123405769Y-80413759D02*
X123405514Y-80414167D01*
X123405514Y-80414167D02*
X123400497Y-80421157D01*
X123400497Y-80421157D02*
X123393038Y-80427332D01*
X123393038Y-80427332D02*
X123380635Y-80432743D01*
X123380635Y-80432743D02*
X123360785Y-80437439D01*
X123360785Y-80437439D02*
X123330984Y-80441472D01*
X123330984Y-80441472D02*
X123288730Y-80444892D01*
X123288730Y-80444892D02*
X123231521Y-80447749D01*
X123231521Y-80447749D02*
X123156852Y-80450094D01*
X123156852Y-80450094D02*
X123062222Y-80451978D01*
X123062222Y-80451978D02*
X122945128Y-80453451D01*
X122945128Y-80453451D02*
X122803066Y-80454564D01*
X122803066Y-80454564D02*
X122633534Y-80455366D01*
X122633534Y-80455366D02*
X122434029Y-80455910D01*
X122434029Y-80455910D02*
X122202049Y-80456244D01*
X122202049Y-80456244D02*
X121935089Y-80456420D01*
X121935089Y-80456420D02*
X121630648Y-80456489D01*
X121630648Y-80456489D02*
X121308612Y-80456500D01*
X121308612Y-80456500D02*
X119238148Y-80456500D01*
X119238148Y-80456500D02*
X119192125Y-80407511D01*
X119192125Y-80407511D02*
X119154421Y-80341050D01*
X119154421Y-80341050D02*
X119146281Y-80264074D01*
X119146281Y-80264074D02*
X119167686Y-80192561D01*
X119167686Y-80192561D02*
X119192426Y-80160991D01*
X119192426Y-80160991D02*
X119200679Y-80153845D01*
X119200679Y-80153845D02*
X119210851Y-80147535D01*
X119210851Y-80147535D02*
X119225477Y-80142008D01*
X119225477Y-80142008D02*
X119247092Y-80137214D01*
X119247092Y-80137214D02*
X119278230Y-80133099D01*
X119278230Y-80133099D02*
X119321428Y-80129612D01*
X119321428Y-80129612D02*
X119379218Y-80126701D01*
X119379218Y-80126701D02*
X119454137Y-80124314D01*
X119454137Y-80124314D02*
X119548719Y-80122399D01*
X119548719Y-80122399D02*
X119665499Y-80120905D01*
X119665499Y-80120905D02*
X119807011Y-80119778D01*
X119807011Y-80119778D02*
X119975790Y-80118967D01*
X119975790Y-80118967D02*
X120174372Y-80118420D01*
X120174372Y-80118420D02*
X120405290Y-80118085D01*
X120405290Y-80118085D02*
X120671081Y-80117910D01*
X120671081Y-80117910D02*
X120974278Y-80117844D01*
X120974278Y-80117844D02*
X121296973Y-80117833D01*
X121296973Y-80117833D02*
X123355196Y-80117833D01*
X123355196Y-80117833D02*
X123438444Y-80223667D01*
X123438444Y-80223667D02*
X124929093Y-80223667D01*
X124929093Y-80223667D02*
X125012341Y-80117833D01*
X125012341Y-80117833D02*
X126362959Y-80117833D01*
X126362959Y-80117833D02*
X126397632Y-80170750D01*
X126397632Y-80170750D02*
X126432304Y-80223667D01*
X126432304Y-80223667D02*
X127169191Y-80223667D01*
X127169191Y-80223667D02*
X127368351Y-80223866D01*
X127368351Y-80223866D02*
X127529377Y-80224582D01*
X127529377Y-80224582D02*
X127656469Y-80225999D01*
X127656469Y-80225999D02*
X127753825Y-80228295D01*
X127753825Y-80228295D02*
X127825644Y-80231653D01*
X127825644Y-80231653D02*
X127876126Y-80236254D01*
X127876126Y-80236254D02*
X127909467Y-80242278D01*
X127909467Y-80242278D02*
X127929868Y-80249907D01*
X127929868Y-80249907D02*
X127939298Y-80256887D01*
X127939298Y-80256887D02*
X127960941Y-80295235D01*
X127960941Y-80295235D02*
X127950648Y-80330970D01*
X127950648Y-80330970D02*
X127943237Y-80341773D01*
X127943237Y-80341773D02*
X127930948Y-80350485D01*
X127930948Y-80350485D02*
X127909553Y-80357331D01*
X127909553Y-80357331D02*
X127874826Y-80362534D01*
X127874826Y-80362534D02*
X127822540Y-80366320D01*
X127822540Y-80366320D02*
X127748468Y-80368912D01*
X127748468Y-80368912D02*
X127648383Y-80370536D01*
X127648383Y-80370536D02*
X127518058Y-80371414D01*
X127518058Y-80371414D02*
X127353266Y-80371771D01*
X127353266Y-80371771D02*
X127180541Y-80371833D01*
X127180541Y-80371833D02*
X126432304Y-80371833D01*
X126432304Y-80371833D02*
X126397632Y-80424750D01*
X126397632Y-80424750D02*
X126362959Y-80477667D01*
X126362959Y-80477667D02*
X125687626Y-80477667D01*
X125687626Y-80477667D02*
X125497573Y-80477442D01*
X125497573Y-80477442D02*
X125497573Y-80477442D01*
G36*
X123438444Y-80223667D02*
G01*
X124929093Y-80223667D01*
X125012341Y-80117833D01*
X126362959Y-80117833D01*
X126397632Y-80170750D01*
X126432304Y-80223667D01*
X127169191Y-80223667D01*
X127368351Y-80223866D01*
X127529377Y-80224582D01*
X127656469Y-80225999D01*
X127753825Y-80228295D01*
X127825644Y-80231653D01*
X127876126Y-80236254D01*
X127909467Y-80242278D01*
X127929868Y-80249907D01*
X127939298Y-80256887D01*
X127960941Y-80295235D01*
X127950648Y-80330970D01*
X127943237Y-80341773D01*
X127930948Y-80350485D01*
X127909553Y-80357331D01*
X127874826Y-80362534D01*
X127822540Y-80366320D01*
X127748468Y-80368912D01*
X127648383Y-80370536D01*
X127518058Y-80371414D01*
X127353266Y-80371771D01*
X127180541Y-80371833D01*
X126432304Y-80371833D01*
X126397632Y-80424750D01*
X126362959Y-80477667D01*
X125687626Y-80477667D01*
X125497573Y-80477442D01*
X125345454Y-80476632D01*
X125226869Y-80475028D01*
X125137420Y-80472424D01*
X125072708Y-80468615D01*
X125028335Y-80463394D01*
X124999902Y-80456553D01*
X124983010Y-80447888D01*
X124979030Y-80444405D01*
X124952313Y-80409706D01*
X124945768Y-80391488D01*
X124925161Y-80386417D01*
X124865572Y-80381960D01*
X124770348Y-80378204D01*
X124642838Y-80375237D01*
X124486388Y-80373144D01*
X124304347Y-80372014D01*
X124188860Y-80371833D01*
X123989857Y-80371910D01*
X123828956Y-80372291D01*
X123701928Y-80373206D01*
X123604540Y-80374884D01*
X123532564Y-80377552D01*
X123481767Y-80381440D01*
X123447920Y-80386776D01*
X123426792Y-80393789D01*
X123414152Y-80402707D01*
X123405769Y-80413759D01*
X123405514Y-80414167D01*
X123400497Y-80421157D01*
X123393038Y-80427332D01*
X123380635Y-80432743D01*
X123360785Y-80437439D01*
X123330984Y-80441472D01*
X123288730Y-80444892D01*
X123231521Y-80447749D01*
X123156852Y-80450094D01*
X123062222Y-80451978D01*
X122945128Y-80453451D01*
X122803066Y-80454564D01*
X122633534Y-80455366D01*
X122434029Y-80455910D01*
X122202049Y-80456244D01*
X121935089Y-80456420D01*
X121630648Y-80456489D01*
X121308612Y-80456500D01*
X119238148Y-80456500D01*
X119192125Y-80407511D01*
X119154421Y-80341050D01*
X119146281Y-80264074D01*
X119167686Y-80192561D01*
X119192426Y-80160991D01*
X119200679Y-80153845D01*
X119210851Y-80147535D01*
X119225477Y-80142008D01*
X119247092Y-80137214D01*
X119278230Y-80133099D01*
X119321428Y-80129612D01*
X119379218Y-80126701D01*
X119454137Y-80124314D01*
X119548719Y-80122399D01*
X119665499Y-80120905D01*
X119807011Y-80119778D01*
X119975790Y-80118967D01*
X120174372Y-80118420D01*
X120405290Y-80118085D01*
X120671081Y-80117910D01*
X120974278Y-80117844D01*
X121296973Y-80117833D01*
X123355196Y-80117833D01*
X123438444Y-80223667D01*
G37*
X123438444Y-80223667D02*
X124929093Y-80223667D01*
X125012341Y-80117833D01*
X126362959Y-80117833D01*
X126397632Y-80170750D01*
X126432304Y-80223667D01*
X127169191Y-80223667D01*
X127368351Y-80223866D01*
X127529377Y-80224582D01*
X127656469Y-80225999D01*
X127753825Y-80228295D01*
X127825644Y-80231653D01*
X127876126Y-80236254D01*
X127909467Y-80242278D01*
X127929868Y-80249907D01*
X127939298Y-80256887D01*
X127960941Y-80295235D01*
X127950648Y-80330970D01*
X127943237Y-80341773D01*
X127930948Y-80350485D01*
X127909553Y-80357331D01*
X127874826Y-80362534D01*
X127822540Y-80366320D01*
X127748468Y-80368912D01*
X127648383Y-80370536D01*
X127518058Y-80371414D01*
X127353266Y-80371771D01*
X127180541Y-80371833D01*
X126432304Y-80371833D01*
X126397632Y-80424750D01*
X126362959Y-80477667D01*
X125687626Y-80477667D01*
X125497573Y-80477442D01*
X125345454Y-80476632D01*
X125226869Y-80475028D01*
X125137420Y-80472424D01*
X125072708Y-80468615D01*
X125028335Y-80463394D01*
X124999902Y-80456553D01*
X124983010Y-80447888D01*
X124979030Y-80444405D01*
X124952313Y-80409706D01*
X124945768Y-80391488D01*
X124925161Y-80386417D01*
X124865572Y-80381960D01*
X124770348Y-80378204D01*
X124642838Y-80375237D01*
X124486388Y-80373144D01*
X124304347Y-80372014D01*
X124188860Y-80371833D01*
X123989857Y-80371910D01*
X123828956Y-80372291D01*
X123701928Y-80373206D01*
X123604540Y-80374884D01*
X123532564Y-80377552D01*
X123481767Y-80381440D01*
X123447920Y-80386776D01*
X123426792Y-80393789D01*
X123414152Y-80402707D01*
X123405769Y-80413759D01*
X123405514Y-80414167D01*
X123400497Y-80421157D01*
X123393038Y-80427332D01*
X123380635Y-80432743D01*
X123360785Y-80437439D01*
X123330984Y-80441472D01*
X123288730Y-80444892D01*
X123231521Y-80447749D01*
X123156852Y-80450094D01*
X123062222Y-80451978D01*
X122945128Y-80453451D01*
X122803066Y-80454564D01*
X122633534Y-80455366D01*
X122434029Y-80455910D01*
X122202049Y-80456244D01*
X121935089Y-80456420D01*
X121630648Y-80456489D01*
X121308612Y-80456500D01*
X119238148Y-80456500D01*
X119192125Y-80407511D01*
X119154421Y-80341050D01*
X119146281Y-80264074D01*
X119167686Y-80192561D01*
X119192426Y-80160991D01*
X119200679Y-80153845D01*
X119210851Y-80147535D01*
X119225477Y-80142008D01*
X119247092Y-80137214D01*
X119278230Y-80133099D01*
X119321428Y-80129612D01*
X119379218Y-80126701D01*
X119454137Y-80124314D01*
X119548719Y-80122399D01*
X119665499Y-80120905D01*
X119807011Y-80119778D01*
X119975790Y-80118967D01*
X120174372Y-80118420D01*
X120405290Y-80118085D01*
X120671081Y-80117910D01*
X120974278Y-80117844D01*
X121296973Y-80117833D01*
X123355196Y-80117833D01*
X123438444Y-80223667D01*
X126739440Y-77743897D02*
X126470246Y-77743590D01*
X126470246Y-77743590D02*
X126164288Y-77743047D01*
X126164288Y-77743047D02*
X125819222Y-77742298D01*
X125819222Y-77742298D02*
X125679009Y-77741970D01*
X125679009Y-77741970D02*
X123411185Y-77736583D01*
X123411185Y-77736583D02*
X123411185Y-77630750D01*
X123411185Y-77630750D02*
X125668056Y-77625363D01*
X125668056Y-77625363D02*
X126033354Y-77624560D01*
X126033354Y-77624560D02*
X126358546Y-77624011D01*
X126358546Y-77624011D02*
X126645861Y-77623739D01*
X126645861Y-77623739D02*
X126897525Y-77623766D01*
X126897525Y-77623766D02*
X127115765Y-77624116D01*
X127115765Y-77624116D02*
X127302810Y-77624812D01*
X127302810Y-77624812D02*
X127460885Y-77625878D01*
X127460885Y-77625878D02*
X127592220Y-77627337D01*
X127592220Y-77627337D02*
X127699041Y-77629211D01*
X127699041Y-77629211D02*
X127783575Y-77631525D01*
X127783575Y-77631525D02*
X127848049Y-77634300D01*
X127848049Y-77634300D02*
X127894692Y-77637562D01*
X127894692Y-77637562D02*
X127925731Y-77641332D01*
X127925731Y-77641332D02*
X127943392Y-77645634D01*
X127943392Y-77645634D02*
X127949129Y-77649139D01*
X127949129Y-77649139D02*
X127963447Y-77691873D01*
X127963447Y-77691873D02*
X127960083Y-77712829D01*
X127960083Y-77712829D02*
X127955493Y-77718309D01*
X127955493Y-77718309D02*
X127944614Y-77723165D01*
X127944614Y-77723165D02*
X127925103Y-77727426D01*
X127925103Y-77727426D02*
X127894614Y-77731121D01*
X127894614Y-77731121D02*
X127850804Y-77734282D01*
X127850804Y-77734282D02*
X127791328Y-77736937D01*
X127791328Y-77736937D02*
X127713842Y-77739117D01*
X127713842Y-77739117D02*
X127616002Y-77740852D01*
X127616002Y-77740852D02*
X127495464Y-77742172D01*
X127495464Y-77742172D02*
X127349883Y-77743107D01*
X127349883Y-77743107D02*
X127176914Y-77743686D01*
X127176914Y-77743686D02*
X126974215Y-77743939D01*
X126974215Y-77743939D02*
X126739440Y-77743897D01*
X126739440Y-77743897D02*
X126739440Y-77743897D01*
G36*
X126897525Y-77623766D02*
G01*
X127115765Y-77624116D01*
X127302810Y-77624812D01*
X127460885Y-77625878D01*
X127592220Y-77627337D01*
X127699041Y-77629211D01*
X127783575Y-77631525D01*
X127848049Y-77634300D01*
X127894692Y-77637562D01*
X127925731Y-77641332D01*
X127943392Y-77645634D01*
X127949129Y-77649139D01*
X127963447Y-77691873D01*
X127960083Y-77712829D01*
X127955493Y-77718309D01*
X127944614Y-77723165D01*
X127925103Y-77727426D01*
X127894614Y-77731121D01*
X127850804Y-77734282D01*
X127791328Y-77736937D01*
X127713842Y-77739117D01*
X127616002Y-77740852D01*
X127495464Y-77742172D01*
X127349883Y-77743107D01*
X127176914Y-77743686D01*
X126974215Y-77743939D01*
X126739440Y-77743897D01*
X126470246Y-77743590D01*
X126164288Y-77743047D01*
X125819222Y-77742298D01*
X125679009Y-77741970D01*
X123411185Y-77736583D01*
X123411185Y-77630750D01*
X125668056Y-77625363D01*
X126033354Y-77624560D01*
X126358546Y-77624011D01*
X126645861Y-77623739D01*
X126897525Y-77623766D01*
G37*
X126897525Y-77623766D02*
X127115765Y-77624116D01*
X127302810Y-77624812D01*
X127460885Y-77625878D01*
X127592220Y-77627337D01*
X127699041Y-77629211D01*
X127783575Y-77631525D01*
X127848049Y-77634300D01*
X127894692Y-77637562D01*
X127925731Y-77641332D01*
X127943392Y-77645634D01*
X127949129Y-77649139D01*
X127963447Y-77691873D01*
X127960083Y-77712829D01*
X127955493Y-77718309D01*
X127944614Y-77723165D01*
X127925103Y-77727426D01*
X127894614Y-77731121D01*
X127850804Y-77734282D01*
X127791328Y-77736937D01*
X127713842Y-77739117D01*
X127616002Y-77740852D01*
X127495464Y-77742172D01*
X127349883Y-77743107D01*
X127176914Y-77743686D01*
X126974215Y-77743939D01*
X126739440Y-77743897D01*
X126470246Y-77743590D01*
X126164288Y-77743047D01*
X125819222Y-77742298D01*
X125679009Y-77741970D01*
X123411185Y-77736583D01*
X123411185Y-77630750D01*
X125668056Y-77625363D01*
X126033354Y-77624560D01*
X126358546Y-77624011D01*
X126645861Y-77623739D01*
X126897525Y-77623766D01*
X124970717Y-79556917D02*
X124929093Y-79504000D01*
X124929093Y-79504000D02*
X123438444Y-79504000D01*
X123438444Y-79504000D02*
X123396820Y-79556917D01*
X123396820Y-79556917D02*
X123355196Y-79609833D01*
X123355196Y-79609833D02*
X121297028Y-79609833D01*
X121297028Y-79609833D02*
X120940495Y-79609725D01*
X120940495Y-79609725D02*
X120624202Y-79609381D01*
X120624202Y-79609381D02*
X120346055Y-79608776D01*
X120346055Y-79608776D02*
X120103961Y-79607883D01*
X120103961Y-79607883D02*
X119895826Y-79606675D01*
X119895826Y-79606675D02*
X119719557Y-79605127D01*
X119719557Y-79605127D02*
X119573060Y-79603211D01*
X119573060Y-79603211D02*
X119454243Y-79600902D01*
X119454243Y-79600902D02*
X119361011Y-79598172D01*
X119361011Y-79598172D02*
X119291272Y-79594996D01*
X119291272Y-79594996D02*
X119242932Y-79591346D01*
X119242932Y-79591346D02*
X119213897Y-79587197D01*
X119213897Y-79587197D02*
X119202987Y-79583375D01*
X119202987Y-79583375D02*
X119162616Y-79530087D01*
X119162616Y-79530087D02*
X119144200Y-79456264D01*
X119144200Y-79456264D02*
X119147758Y-79377360D01*
X119147758Y-79377360D02*
X119173306Y-79308831D01*
X119173306Y-79308831D02*
X119202642Y-79276483D01*
X119202642Y-79276483D02*
X119217342Y-79271898D01*
X119217342Y-79271898D02*
X119249560Y-79267835D01*
X119249560Y-79267835D02*
X119301393Y-79264268D01*
X119301393Y-79264268D02*
X119374939Y-79261169D01*
X119374939Y-79261169D02*
X119472294Y-79258513D01*
X119472294Y-79258513D02*
X119595553Y-79256272D01*
X119595553Y-79256272D02*
X119746815Y-79254421D01*
X119746815Y-79254421D02*
X119928175Y-79252932D01*
X119928175Y-79252932D02*
X120141731Y-79251780D01*
X120141731Y-79251780D02*
X120389579Y-79250937D01*
X120389579Y-79250937D02*
X120673815Y-79250378D01*
X120673815Y-79250378D02*
X120996536Y-79250075D01*
X120996536Y-79250075D02*
X121297052Y-79250000D01*
X121297052Y-79250000D02*
X121640697Y-79250052D01*
X121640697Y-79250052D02*
X121944475Y-79250234D01*
X121944475Y-79250234D02*
X122210850Y-79250585D01*
X122210850Y-79250585D02*
X122442288Y-79251144D01*
X122442288Y-79251144D02*
X122641255Y-79251951D01*
X122641255Y-79251951D02*
X122810217Y-79253045D01*
X122810217Y-79253045D02*
X122951638Y-79254464D01*
X122951638Y-79254464D02*
X123067984Y-79256249D01*
X123067984Y-79256249D02*
X123161722Y-79258438D01*
X123161722Y-79258438D02*
X123235315Y-79261071D01*
X123235315Y-79261071D02*
X123291231Y-79264186D01*
X123291231Y-79264186D02*
X123331933Y-79267824D01*
X123331933Y-79267824D02*
X123359889Y-79272023D01*
X123359889Y-79272023D02*
X123377563Y-79276822D01*
X123377563Y-79276822D02*
X123387421Y-79282261D01*
X123387421Y-79282261D02*
X123388507Y-79283262D01*
X123388507Y-79283262D02*
X123415224Y-79317961D01*
X123415224Y-79317961D02*
X123421768Y-79336179D01*
X123421768Y-79336179D02*
X123442378Y-79341236D01*
X123442378Y-79341236D02*
X123501986Y-79345682D01*
X123501986Y-79345682D02*
X123597259Y-79349431D01*
X123597259Y-79349431D02*
X123724866Y-79352398D01*
X123724866Y-79352398D02*
X123881474Y-79354497D01*
X123881474Y-79354497D02*
X124063752Y-79355641D01*
X124063752Y-79355641D02*
X124183768Y-79355833D01*
X124183768Y-79355833D02*
X124379818Y-79355302D01*
X124379818Y-79355302D02*
X124552193Y-79353764D01*
X124552193Y-79353764D02*
X124697561Y-79351307D01*
X124697561Y-79351307D02*
X124812590Y-79348016D01*
X124812590Y-79348016D02*
X124893948Y-79343976D01*
X124893948Y-79343976D02*
X124938303Y-79339274D01*
X124938303Y-79339274D02*
X124945768Y-79336179D01*
X124945768Y-79336179D02*
X124959277Y-79306883D01*
X124959277Y-79306883D02*
X124979030Y-79283262D01*
X124979030Y-79283262D02*
X124992936Y-79273913D01*
X124992936Y-79273913D02*
X125016853Y-79266460D01*
X125016853Y-79266460D02*
X125055178Y-79260699D01*
X125055178Y-79260699D02*
X125112311Y-79256421D01*
X125112311Y-79256421D02*
X125192650Y-79253422D01*
X125192650Y-79253422D02*
X125300594Y-79251493D01*
X125300594Y-79251493D02*
X125440541Y-79250430D01*
X125440541Y-79250430D02*
X125616890Y-79250025D01*
X125616890Y-79250025D02*
X125687626Y-79250000D01*
X125687626Y-79250000D02*
X126362959Y-79250000D01*
X126362959Y-79250000D02*
X126397632Y-79302917D01*
X126397632Y-79302917D02*
X126432304Y-79355833D01*
X126432304Y-79355833D02*
X127180541Y-79355833D01*
X127180541Y-79355833D02*
X127378395Y-79355922D01*
X127378395Y-79355922D02*
X127538143Y-79356339D01*
X127538143Y-79356339D02*
X127664011Y-79357307D01*
X127664011Y-79357307D02*
X127760227Y-79359052D01*
X127760227Y-79359052D02*
X127831017Y-79361797D01*
X127831017Y-79361797D02*
X127880609Y-79365766D01*
X127880609Y-79365766D02*
X127913230Y-79371185D01*
X127913230Y-79371185D02*
X127933105Y-79378276D01*
X127933105Y-79378276D02*
X127944464Y-79387266D01*
X127944464Y-79387266D02*
X127950648Y-79396697D01*
X127950648Y-79396697D02*
X127959884Y-79439329D01*
X127959884Y-79439329D02*
X127939298Y-79470780D01*
X127939298Y-79470780D02*
X127925921Y-79479750D01*
X127925921Y-79479750D02*
X127902793Y-79486977D01*
X127902793Y-79486977D02*
X127865715Y-79492642D01*
X127865715Y-79492642D02*
X127810488Y-79496928D01*
X127810488Y-79496928D02*
X127732913Y-79500014D01*
X127732913Y-79500014D02*
X127628793Y-79502082D01*
X127628793Y-79502082D02*
X127493927Y-79503314D01*
X127493927Y-79503314D02*
X127324118Y-79503890D01*
X127324118Y-79503890D02*
X127169191Y-79504000D01*
X127169191Y-79504000D02*
X126432304Y-79504000D01*
X126432304Y-79504000D02*
X126397632Y-79556917D01*
X126397632Y-79556917D02*
X126362959Y-79609833D01*
X126362959Y-79609833D02*
X125012341Y-79609833D01*
X125012341Y-79609833D02*
X124970717Y-79556917D01*
X124970717Y-79556917D02*
X124970717Y-79556917D01*
G36*
X126397632Y-79302917D02*
G01*
X126432304Y-79355833D01*
X127180541Y-79355833D01*
X127378395Y-79355922D01*
X127538143Y-79356339D01*
X127664011Y-79357307D01*
X127760227Y-79359052D01*
X127831017Y-79361797D01*
X127880609Y-79365766D01*
X127913230Y-79371185D01*
X127933105Y-79378276D01*
X127944464Y-79387266D01*
X127950648Y-79396697D01*
X127959884Y-79439329D01*
X127939298Y-79470780D01*
X127925921Y-79479750D01*
X127902793Y-79486977D01*
X127865715Y-79492642D01*
X127810488Y-79496928D01*
X127732913Y-79500014D01*
X127628793Y-79502082D01*
X127493927Y-79503314D01*
X127324118Y-79503890D01*
X127169191Y-79504000D01*
X126432304Y-79504000D01*
X126397632Y-79556917D01*
X126362959Y-79609833D01*
X125012341Y-79609833D01*
X124970717Y-79556917D01*
X124929093Y-79504000D01*
X123438444Y-79504000D01*
X123396820Y-79556917D01*
X123355196Y-79609833D01*
X121297028Y-79609833D01*
X120940495Y-79609725D01*
X120624202Y-79609381D01*
X120346055Y-79608776D01*
X120103961Y-79607883D01*
X119895826Y-79606675D01*
X119719557Y-79605127D01*
X119573060Y-79603211D01*
X119454243Y-79600902D01*
X119361011Y-79598172D01*
X119291272Y-79594996D01*
X119242932Y-79591346D01*
X119213897Y-79587197D01*
X119202987Y-79583375D01*
X119162616Y-79530087D01*
X119144200Y-79456264D01*
X119147758Y-79377360D01*
X119173306Y-79308831D01*
X119202642Y-79276483D01*
X119217342Y-79271898D01*
X119249560Y-79267835D01*
X119301393Y-79264268D01*
X119374939Y-79261169D01*
X119472294Y-79258513D01*
X119595553Y-79256272D01*
X119746815Y-79254421D01*
X119928175Y-79252932D01*
X120141731Y-79251780D01*
X120389579Y-79250937D01*
X120673815Y-79250378D01*
X120996536Y-79250075D01*
X121297052Y-79250000D01*
X121640697Y-79250052D01*
X121944475Y-79250234D01*
X122210850Y-79250585D01*
X122442288Y-79251144D01*
X122641255Y-79251951D01*
X122810217Y-79253045D01*
X122951638Y-79254464D01*
X123067984Y-79256249D01*
X123161722Y-79258438D01*
X123235315Y-79261071D01*
X123291231Y-79264186D01*
X123331933Y-79267824D01*
X123359889Y-79272023D01*
X123377563Y-79276822D01*
X123387421Y-79282261D01*
X123388507Y-79283262D01*
X123415224Y-79317961D01*
X123421768Y-79336179D01*
X123442378Y-79341236D01*
X123501986Y-79345682D01*
X123597259Y-79349431D01*
X123724866Y-79352398D01*
X123881474Y-79354497D01*
X124063752Y-79355641D01*
X124183768Y-79355833D01*
X124379818Y-79355302D01*
X124552193Y-79353764D01*
X124697561Y-79351307D01*
X124812590Y-79348016D01*
X124893948Y-79343976D01*
X124938303Y-79339274D01*
X124945768Y-79336179D01*
X124959277Y-79306883D01*
X124979030Y-79283262D01*
X124992936Y-79273913D01*
X125016853Y-79266460D01*
X125055178Y-79260699D01*
X125112311Y-79256421D01*
X125192650Y-79253422D01*
X125300594Y-79251493D01*
X125440541Y-79250430D01*
X125616890Y-79250025D01*
X125687626Y-79250000D01*
X126362959Y-79250000D01*
X126397632Y-79302917D01*
G37*
X126397632Y-79302917D02*
X126432304Y-79355833D01*
X127180541Y-79355833D01*
X127378395Y-79355922D01*
X127538143Y-79356339D01*
X127664011Y-79357307D01*
X127760227Y-79359052D01*
X127831017Y-79361797D01*
X127880609Y-79365766D01*
X127913230Y-79371185D01*
X127933105Y-79378276D01*
X127944464Y-79387266D01*
X127950648Y-79396697D01*
X127959884Y-79439329D01*
X127939298Y-79470780D01*
X127925921Y-79479750D01*
X127902793Y-79486977D01*
X127865715Y-79492642D01*
X127810488Y-79496928D01*
X127732913Y-79500014D01*
X127628793Y-79502082D01*
X127493927Y-79503314D01*
X127324118Y-79503890D01*
X127169191Y-79504000D01*
X126432304Y-79504000D01*
X126397632Y-79556917D01*
X126362959Y-79609833D01*
X125012341Y-79609833D01*
X124970717Y-79556917D01*
X124929093Y-79504000D01*
X123438444Y-79504000D01*
X123396820Y-79556917D01*
X123355196Y-79609833D01*
X121297028Y-79609833D01*
X120940495Y-79609725D01*
X120624202Y-79609381D01*
X120346055Y-79608776D01*
X120103961Y-79607883D01*
X119895826Y-79606675D01*
X119719557Y-79605127D01*
X119573060Y-79603211D01*
X119454243Y-79600902D01*
X119361011Y-79598172D01*
X119291272Y-79594996D01*
X119242932Y-79591346D01*
X119213897Y-79587197D01*
X119202987Y-79583375D01*
X119162616Y-79530087D01*
X119144200Y-79456264D01*
X119147758Y-79377360D01*
X119173306Y-79308831D01*
X119202642Y-79276483D01*
X119217342Y-79271898D01*
X119249560Y-79267835D01*
X119301393Y-79264268D01*
X119374939Y-79261169D01*
X119472294Y-79258513D01*
X119595553Y-79256272D01*
X119746815Y-79254421D01*
X119928175Y-79252932D01*
X120141731Y-79251780D01*
X120389579Y-79250937D01*
X120673815Y-79250378D01*
X120996536Y-79250075D01*
X121297052Y-79250000D01*
X121640697Y-79250052D01*
X121944475Y-79250234D01*
X122210850Y-79250585D01*
X122442288Y-79251144D01*
X122641255Y-79251951D01*
X122810217Y-79253045D01*
X122951638Y-79254464D01*
X123067984Y-79256249D01*
X123161722Y-79258438D01*
X123235315Y-79261071D01*
X123291231Y-79264186D01*
X123331933Y-79267824D01*
X123359889Y-79272023D01*
X123377563Y-79276822D01*
X123387421Y-79282261D01*
X123388507Y-79283262D01*
X123415224Y-79317961D01*
X123421768Y-79336179D01*
X123442378Y-79341236D01*
X123501986Y-79345682D01*
X123597259Y-79349431D01*
X123724866Y-79352398D01*
X123881474Y-79354497D01*
X124063752Y-79355641D01*
X124183768Y-79355833D01*
X124379818Y-79355302D01*
X124552193Y-79353764D01*
X124697561Y-79351307D01*
X124812590Y-79348016D01*
X124893948Y-79343976D01*
X124938303Y-79339274D01*
X124945768Y-79336179D01*
X124959277Y-79306883D01*
X124979030Y-79283262D01*
X124992936Y-79273913D01*
X125016853Y-79266460D01*
X125055178Y-79260699D01*
X125112311Y-79256421D01*
X125192650Y-79253422D01*
X125300594Y-79251493D01*
X125440541Y-79250430D01*
X125616890Y-79250025D01*
X125687626Y-79250000D01*
X126362959Y-79250000D01*
X126397632Y-79302917D01*
X121107076Y-77429606D02*
X120960033Y-77429212D01*
X120960033Y-77429212D02*
X120845830Y-77428163D01*
X120845830Y-77428163D02*
X120759724Y-77426141D01*
X120759724Y-77426141D02*
X120696967Y-77422826D01*
X120696967Y-77422826D02*
X120652814Y-77417897D01*
X120652814Y-77417897D02*
X120622518Y-77411036D01*
X120622518Y-77411036D02*
X120601335Y-77401923D01*
X120601335Y-77401923D02*
X120584518Y-77390238D01*
X120584518Y-77390238D02*
X120573915Y-77381314D01*
X120573915Y-77381314D02*
X120528557Y-77316981D01*
X120528557Y-77316981D02*
X120516126Y-77239231D01*
X120516126Y-77239231D02*
X120537047Y-77161770D01*
X120537047Y-77161770D02*
X120565841Y-77121076D01*
X120565841Y-77121076D02*
X120613981Y-77069833D01*
X120613981Y-77069833D02*
X121282333Y-77070477D01*
X121282333Y-77070477D02*
X121455921Y-77071265D01*
X121455921Y-77071265D02*
X121613011Y-77073186D01*
X121613011Y-77073186D02*
X121748759Y-77076099D01*
X121748759Y-77076099D02*
X121858324Y-77079860D01*
X121858324Y-77079860D02*
X121936861Y-77084328D01*
X121936861Y-77084328D02*
X121979529Y-77089360D01*
X121979529Y-77089360D02*
X121984951Y-77091142D01*
X121984951Y-77091142D02*
X122024732Y-77134163D01*
X122024732Y-77134163D02*
X122052797Y-77199595D01*
X122052797Y-77199595D02*
X122061890Y-77267753D01*
X122061890Y-77267753D02*
X122058660Y-77291087D01*
X122058660Y-77291087D02*
X122032975Y-77345371D01*
X122032975Y-77345371D02*
X121999354Y-77386748D01*
X121999354Y-77386748D02*
X121984831Y-77398746D01*
X121984831Y-77398746D02*
X121966750Y-77408274D01*
X121966750Y-77408274D02*
X121940427Y-77415615D01*
X121940427Y-77415615D02*
X121901177Y-77421054D01*
X121901177Y-77421054D02*
X121844315Y-77424875D01*
X121844315Y-77424875D02*
X121765158Y-77427363D01*
X121765158Y-77427363D02*
X121659020Y-77428800D01*
X121659020Y-77428800D02*
X121521217Y-77429471D01*
X121521217Y-77429471D02*
X121347065Y-77429661D01*
X121347065Y-77429661D02*
X121291708Y-77429667D01*
X121291708Y-77429667D02*
X121107076Y-77429606D01*
X121107076Y-77429606D02*
X121107076Y-77429606D01*
G36*
X121282333Y-77070477D02*
G01*
X121455921Y-77071265D01*
X121613011Y-77073186D01*
X121748759Y-77076099D01*
X121858324Y-77079860D01*
X121936861Y-77084328D01*
X121979529Y-77089360D01*
X121984951Y-77091142D01*
X122024732Y-77134163D01*
X122052797Y-77199595D01*
X122061890Y-77267753D01*
X122058660Y-77291087D01*
X122032975Y-77345371D01*
X121999354Y-77386748D01*
X121984831Y-77398746D01*
X121966750Y-77408274D01*
X121940427Y-77415615D01*
X121901177Y-77421054D01*
X121844315Y-77424875D01*
X121765158Y-77427363D01*
X121659020Y-77428800D01*
X121521217Y-77429471D01*
X121347065Y-77429661D01*
X121291708Y-77429667D01*
X121107076Y-77429606D01*
X120960033Y-77429212D01*
X120845830Y-77428163D01*
X120759724Y-77426141D01*
X120696967Y-77422826D01*
X120652814Y-77417897D01*
X120622518Y-77411036D01*
X120601335Y-77401923D01*
X120584518Y-77390238D01*
X120573915Y-77381314D01*
X120528557Y-77316981D01*
X120516126Y-77239231D01*
X120537047Y-77161770D01*
X120565841Y-77121076D01*
X120613981Y-77069833D01*
X121282333Y-77070477D01*
G37*
X121282333Y-77070477D02*
X121455921Y-77071265D01*
X121613011Y-77073186D01*
X121748759Y-77076099D01*
X121858324Y-77079860D01*
X121936861Y-77084328D01*
X121979529Y-77089360D01*
X121984951Y-77091142D01*
X122024732Y-77134163D01*
X122052797Y-77199595D01*
X122061890Y-77267753D01*
X122058660Y-77291087D01*
X122032975Y-77345371D01*
X121999354Y-77386748D01*
X121984831Y-77398746D01*
X121966750Y-77408274D01*
X121940427Y-77415615D01*
X121901177Y-77421054D01*
X121844315Y-77424875D01*
X121765158Y-77427363D01*
X121659020Y-77428800D01*
X121521217Y-77429471D01*
X121347065Y-77429661D01*
X121291708Y-77429667D01*
X121107076Y-77429606D01*
X120960033Y-77429212D01*
X120845830Y-77428163D01*
X120759724Y-77426141D01*
X120696967Y-77422826D01*
X120652814Y-77417897D01*
X120622518Y-77411036D01*
X120601335Y-77401923D01*
X120584518Y-77390238D01*
X120573915Y-77381314D01*
X120528557Y-77316981D01*
X120516126Y-77239231D01*
X120537047Y-77161770D01*
X120565841Y-77121076D01*
X120613981Y-77069833D01*
X121282333Y-77070477D01*
X126759679Y-78188653D02*
X126497603Y-78188266D01*
X126497603Y-78188266D02*
X126199152Y-78187669D01*
X126199152Y-78187669D02*
X125861930Y-78186898D01*
X125861930Y-78186898D02*
X125682820Y-78186471D01*
X125682820Y-78186471D02*
X125325389Y-78185588D01*
X125325389Y-78185588D02*
X125007901Y-78184724D01*
X125007901Y-78184724D02*
X124727966Y-78183832D01*
X124727966Y-78183832D02*
X124483194Y-78182866D01*
X124483194Y-78182866D02*
X124271194Y-78181780D01*
X124271194Y-78181780D02*
X124089577Y-78180529D01*
X124089577Y-78180529D02*
X123935951Y-78179066D01*
X123935951Y-78179066D02*
X123807928Y-78177345D01*
X123807928Y-78177345D02*
X123703116Y-78175321D01*
X123703116Y-78175321D02*
X123619125Y-78172946D01*
X123619125Y-78172946D02*
X123553566Y-78170177D01*
X123553566Y-78170177D02*
X123504047Y-78166965D01*
X123504047Y-78166965D02*
X123468180Y-78163266D01*
X123468180Y-78163266D02*
X123443572Y-78159033D01*
X123443572Y-78159033D02*
X123427836Y-78154221D01*
X123427836Y-78154221D02*
X123418579Y-78148783D01*
X123418579Y-78148783D02*
X123413491Y-78142802D01*
X123413491Y-78142802D02*
X123402566Y-78107630D01*
X123402566Y-78107630D02*
X123426380Y-78077606D01*
X123426380Y-78077606D02*
X123431106Y-78074010D01*
X123431106Y-78074010D02*
X123442467Y-78069049D01*
X123442467Y-78069049D02*
X123463955Y-78064642D01*
X123463955Y-78064642D02*
X123497884Y-78060757D01*
X123497884Y-78060757D02*
X123546566Y-78057362D01*
X123546566Y-78057362D02*
X123612313Y-78054428D01*
X123612313Y-78054428D02*
X123697438Y-78051922D01*
X123697438Y-78051922D02*
X123804253Y-78049814D01*
X123804253Y-78049814D02*
X123935070Y-78048072D01*
X123935070Y-78048072D02*
X124092202Y-78046664D01*
X124092202Y-78046664D02*
X124277962Y-78045560D01*
X124277962Y-78045560D02*
X124494662Y-78044728D01*
X124494662Y-78044728D02*
X124744614Y-78044138D01*
X124744614Y-78044138D02*
X125030130Y-78043757D01*
X125030130Y-78043757D02*
X125353524Y-78043555D01*
X125353524Y-78043555D02*
X125689136Y-78043500D01*
X125689136Y-78043500D02*
X126046501Y-78043548D01*
X126046501Y-78043548D02*
X126363906Y-78043714D01*
X126363906Y-78043714D02*
X126643724Y-78044034D01*
X126643724Y-78044034D02*
X126888327Y-78044543D01*
X126888327Y-78044543D02*
X127100088Y-78045275D01*
X127100088Y-78045275D02*
X127281380Y-78046267D01*
X127281380Y-78046267D02*
X127434576Y-78047552D01*
X127434576Y-78047552D02*
X127562049Y-78049166D01*
X127562049Y-78049166D02*
X127666172Y-78051144D01*
X127666172Y-78051144D02*
X127749317Y-78053521D01*
X127749317Y-78053521D02*
X127813857Y-78056332D01*
X127813857Y-78056332D02*
X127862165Y-78059611D01*
X127862165Y-78059611D02*
X127896615Y-78063395D01*
X127896615Y-78063395D02*
X127919578Y-78067718D01*
X127919578Y-78067718D02*
X127933429Y-78072615D01*
X127933429Y-78072615D02*
X127939298Y-78076720D01*
X127939298Y-78076720D02*
X127960944Y-78115019D01*
X127960944Y-78115019D02*
X127950597Y-78150900D01*
X127950597Y-78150900D02*
X127946287Y-78157408D01*
X127946287Y-78157408D02*
X127939133Y-78163180D01*
X127939133Y-78163180D02*
X127926741Y-78168252D01*
X127926741Y-78168252D02*
X127906716Y-78172663D01*
X127906716Y-78172663D02*
X127876662Y-78176450D01*
X127876662Y-78176450D02*
X127834184Y-78179651D01*
X127834184Y-78179651D02*
X127776887Y-78182303D01*
X127776887Y-78182303D02*
X127702375Y-78184443D01*
X127702375Y-78184443D02*
X127608255Y-78186110D01*
X127608255Y-78186110D02*
X127492129Y-78187341D01*
X127492129Y-78187341D02*
X127351604Y-78188173D01*
X127351604Y-78188173D02*
X127184284Y-78188644D01*
X127184284Y-78188644D02*
X126987774Y-78188791D01*
X126987774Y-78188791D02*
X126759679Y-78188653D01*
X126759679Y-78188653D02*
X126759679Y-78188653D01*
G36*
X126046501Y-78043548D02*
G01*
X126363906Y-78043714D01*
X126643724Y-78044034D01*
X126888327Y-78044543D01*
X127100088Y-78045275D01*
X127281380Y-78046267D01*
X127434576Y-78047552D01*
X127562049Y-78049166D01*
X127666172Y-78051144D01*
X127749317Y-78053521D01*
X127813857Y-78056332D01*
X127862165Y-78059611D01*
X127896615Y-78063395D01*
X127919578Y-78067718D01*
X127933429Y-78072615D01*
X127939298Y-78076720D01*
X127960944Y-78115019D01*
X127950597Y-78150900D01*
X127946287Y-78157408D01*
X127939133Y-78163180D01*
X127926741Y-78168252D01*
X127906716Y-78172663D01*
X127876662Y-78176450D01*
X127834184Y-78179651D01*
X127776887Y-78182303D01*
X127702375Y-78184443D01*
X127608255Y-78186110D01*
X127492129Y-78187341D01*
X127351604Y-78188173D01*
X127184284Y-78188644D01*
X126987774Y-78188791D01*
X126759679Y-78188653D01*
X126497603Y-78188266D01*
X126199152Y-78187669D01*
X125861930Y-78186898D01*
X125682820Y-78186471D01*
X125325389Y-78185588D01*
X125007901Y-78184724D01*
X124727966Y-78183832D01*
X124483194Y-78182866D01*
X124271194Y-78181780D01*
X124089577Y-78180529D01*
X123935951Y-78179066D01*
X123807928Y-78177345D01*
X123703116Y-78175321D01*
X123619125Y-78172946D01*
X123553566Y-78170177D01*
X123504047Y-78166965D01*
X123468180Y-78163266D01*
X123443572Y-78159033D01*
X123427836Y-78154221D01*
X123418579Y-78148783D01*
X123413491Y-78142802D01*
X123402566Y-78107630D01*
X123426380Y-78077606D01*
X123431106Y-78074010D01*
X123442467Y-78069049D01*
X123463955Y-78064642D01*
X123497884Y-78060757D01*
X123546566Y-78057362D01*
X123612313Y-78054428D01*
X123697438Y-78051922D01*
X123804253Y-78049814D01*
X123935070Y-78048072D01*
X124092202Y-78046664D01*
X124277962Y-78045560D01*
X124494662Y-78044728D01*
X124744614Y-78044138D01*
X125030130Y-78043757D01*
X125353524Y-78043555D01*
X125689136Y-78043500D01*
X126046501Y-78043548D01*
G37*
X126046501Y-78043548D02*
X126363906Y-78043714D01*
X126643724Y-78044034D01*
X126888327Y-78044543D01*
X127100088Y-78045275D01*
X127281380Y-78046267D01*
X127434576Y-78047552D01*
X127562049Y-78049166D01*
X127666172Y-78051144D01*
X127749317Y-78053521D01*
X127813857Y-78056332D01*
X127862165Y-78059611D01*
X127896615Y-78063395D01*
X127919578Y-78067718D01*
X127933429Y-78072615D01*
X127939298Y-78076720D01*
X127960944Y-78115019D01*
X127950597Y-78150900D01*
X127946287Y-78157408D01*
X127939133Y-78163180D01*
X127926741Y-78168252D01*
X127906716Y-78172663D01*
X127876662Y-78176450D01*
X127834184Y-78179651D01*
X127776887Y-78182303D01*
X127702375Y-78184443D01*
X127608255Y-78186110D01*
X127492129Y-78187341D01*
X127351604Y-78188173D01*
X127184284Y-78188644D01*
X126987774Y-78188791D01*
X126759679Y-78188653D01*
X126497603Y-78188266D01*
X126199152Y-78187669D01*
X125861930Y-78186898D01*
X125682820Y-78186471D01*
X125325389Y-78185588D01*
X125007901Y-78184724D01*
X124727966Y-78183832D01*
X124483194Y-78182866D01*
X124271194Y-78181780D01*
X124089577Y-78180529D01*
X123935951Y-78179066D01*
X123807928Y-78177345D01*
X123703116Y-78175321D01*
X123619125Y-78172946D01*
X123553566Y-78170177D01*
X123504047Y-78166965D01*
X123468180Y-78163266D01*
X123443572Y-78159033D01*
X123427836Y-78154221D01*
X123418579Y-78148783D01*
X123413491Y-78142802D01*
X123402566Y-78107630D01*
X123426380Y-78077606D01*
X123431106Y-78074010D01*
X123442467Y-78069049D01*
X123463955Y-78064642D01*
X123497884Y-78060757D01*
X123546566Y-78057362D01*
X123612313Y-78054428D01*
X123697438Y-78051922D01*
X123804253Y-78049814D01*
X123935070Y-78048072D01*
X124092202Y-78046664D01*
X124277962Y-78045560D01*
X124494662Y-78044728D01*
X124744614Y-78044138D01*
X125030130Y-78043757D01*
X125353524Y-78043555D01*
X125689136Y-78043500D01*
X126046501Y-78043548D01*
X119197312Y-80005318D02*
X119150999Y-79940191D01*
X119150999Y-79940191D02*
X119136246Y-79861189D01*
X119136246Y-79861189D02*
X119153055Y-79782656D01*
X119153055Y-79782656D02*
X119197312Y-79722349D01*
X119197312Y-79722349D02*
X119254296Y-79673333D01*
X119254296Y-79673333D02*
X121290989Y-79673333D01*
X121290989Y-79673333D02*
X121633345Y-79673390D01*
X121633345Y-79673390D02*
X121935858Y-79673584D01*
X121935858Y-79673584D02*
X122201014Y-79673956D01*
X122201014Y-79673956D02*
X122431305Y-79674544D01*
X122431305Y-79674544D02*
X122629218Y-79675390D01*
X122629218Y-79675390D02*
X122797243Y-79676530D01*
X122797243Y-79676530D02*
X122937868Y-79678006D01*
X122937868Y-79678006D02*
X123053582Y-79679856D01*
X123053582Y-79679856D02*
X123146876Y-79682120D01*
X123146876Y-79682120D02*
X123220236Y-79684837D01*
X123220236Y-79684837D02*
X123276153Y-79688047D01*
X123276153Y-79688047D02*
X123317115Y-79691788D01*
X123317115Y-79691788D02*
X123345612Y-79696101D01*
X123345612Y-79696101D02*
X123364132Y-79701024D01*
X123364132Y-79701024D02*
X123374725Y-79706284D01*
X123374725Y-79706284D02*
X123409919Y-79741266D01*
X123409919Y-79741266D02*
X123421768Y-79769784D01*
X123421768Y-79769784D02*
X123426819Y-79777914D01*
X123426819Y-79777914D02*
X123444530Y-79784500D01*
X123444530Y-79784500D02*
X123478738Y-79789698D01*
X123478738Y-79789698D02*
X123533282Y-79793660D01*
X123533282Y-79793660D02*
X123612001Y-79796540D01*
X123612001Y-79796540D02*
X123718731Y-79798492D01*
X123718731Y-79798492D02*
X123857312Y-79799671D01*
X123857312Y-79799671D02*
X124031580Y-79800229D01*
X124031580Y-79800229D02*
X124183768Y-79800333D01*
X124183768Y-79800333D02*
X124406093Y-79799751D01*
X124406093Y-79799751D02*
X124591695Y-79798022D01*
X124591695Y-79798022D02*
X124739489Y-79795179D01*
X124739489Y-79795179D02*
X124848393Y-79791250D01*
X124848393Y-79791250D02*
X124917322Y-79786266D01*
X124917322Y-79786266D02*
X124945191Y-79780256D01*
X124945191Y-79780256D02*
X124945768Y-79779167D01*
X124945768Y-79779167D02*
X124959431Y-79749966D01*
X124959431Y-79749966D02*
X124988102Y-79715667D01*
X124988102Y-79715667D02*
X125001714Y-79703787D01*
X125001714Y-79703787D02*
X125019263Y-79694362D01*
X125019263Y-79694362D02*
X125045430Y-79687110D01*
X125045430Y-79687110D02*
X125084893Y-79681747D01*
X125084893Y-79681747D02*
X125142332Y-79677989D01*
X125142332Y-79677989D02*
X125222425Y-79675553D01*
X125222425Y-79675553D02*
X125329852Y-79674154D01*
X125329852Y-79674154D02*
X125469292Y-79673510D01*
X125469292Y-79673510D02*
X125645424Y-79673337D01*
X125645424Y-79673337D02*
X125686602Y-79673333D01*
X125686602Y-79673333D02*
X125870856Y-79673445D01*
X125870856Y-79673445D02*
X126017456Y-79673969D01*
X126017456Y-79673969D02*
X126131081Y-79675190D01*
X126131081Y-79675190D02*
X126216411Y-79677390D01*
X126216411Y-79677390D02*
X126278125Y-79680853D01*
X126278125Y-79680853D02*
X126320901Y-79685863D01*
X126320901Y-79685863D02*
X126349419Y-79692704D01*
X126349419Y-79692704D02*
X126368358Y-79701658D01*
X126368358Y-79701658D02*
X126382397Y-79713010D01*
X126382397Y-79713010D02*
X126385102Y-79715667D01*
X126385102Y-79715667D02*
X126416179Y-79753575D01*
X126416179Y-79753575D02*
X126427435Y-79779167D01*
X126427435Y-79779167D02*
X126448411Y-79785387D01*
X126448411Y-79785387D02*
X126510597Y-79790572D01*
X126510597Y-79790572D02*
X126612882Y-79794689D01*
X126612882Y-79794689D02*
X126754155Y-79797708D01*
X126754155Y-79797708D02*
X126933306Y-79799598D01*
X126933306Y-79799598D02*
X127149223Y-79800326D01*
X127149223Y-79800326D02*
X127176260Y-79800333D01*
X127176260Y-79800333D02*
X127383803Y-79800512D01*
X127383803Y-79800512D02*
X127552750Y-79801343D01*
X127552750Y-79801343D02*
X127686837Y-79803266D01*
X127686837Y-79803266D02*
X127789801Y-79806724D01*
X127789801Y-79806724D02*
X127865378Y-79812157D01*
X127865378Y-79812157D02*
X127917306Y-79820007D01*
X127917306Y-79820007D02*
X127949320Y-79830715D01*
X127949320Y-79830715D02*
X127965157Y-79844722D01*
X127965157Y-79844722D02*
X127968554Y-79862470D01*
X127968554Y-79862470D02*
X127963247Y-79884400D01*
X127963247Y-79884400D02*
X127960119Y-79892901D01*
X127960119Y-79892901D02*
X127953236Y-79902000D01*
X127953236Y-79902000D02*
X127937573Y-79909358D01*
X127937573Y-79909358D02*
X127909061Y-79915156D01*
X127909061Y-79915156D02*
X127863630Y-79919575D01*
X127863630Y-79919575D02*
X127797212Y-79922795D01*
X127797212Y-79922795D02*
X127705738Y-79925000D01*
X127705738Y-79925000D02*
X127585137Y-79926369D01*
X127585137Y-79926369D02*
X127431343Y-79927083D01*
X127431343Y-79927083D02*
X127240284Y-79927326D01*
X127240284Y-79927326D02*
X127187171Y-79927333D01*
X127187171Y-79927333D02*
X126965234Y-79927918D01*
X126965234Y-79927918D02*
X126780006Y-79929651D01*
X126780006Y-79929651D02*
X126632576Y-79932503D01*
X126632576Y-79932503D02*
X126524031Y-79936443D01*
X126524031Y-79936443D02*
X126455461Y-79941441D01*
X126455461Y-79941441D02*
X126427953Y-79947466D01*
X126427953Y-79947466D02*
X126427435Y-79948500D01*
X126427435Y-79948500D02*
X126413773Y-79977701D01*
X126413773Y-79977701D02*
X126385102Y-80012000D01*
X126385102Y-80012000D02*
X126371490Y-80023880D01*
X126371490Y-80023880D02*
X126353940Y-80033305D01*
X126353940Y-80033305D02*
X126327773Y-80040557D01*
X126327773Y-80040557D02*
X126288310Y-80045920D01*
X126288310Y-80045920D02*
X126230872Y-80049678D01*
X126230872Y-80049678D02*
X126150779Y-80052114D01*
X126150779Y-80052114D02*
X126043352Y-80053513D01*
X126043352Y-80053513D02*
X125903912Y-80054157D01*
X125903912Y-80054157D02*
X125727780Y-80054330D01*
X125727780Y-80054330D02*
X125686602Y-80054333D01*
X125686602Y-80054333D02*
X125502348Y-80054222D01*
X125502348Y-80054222D02*
X125355748Y-80053698D01*
X125355748Y-80053698D02*
X125242122Y-80052477D01*
X125242122Y-80052477D02*
X125156792Y-80050277D01*
X125156792Y-80050277D02*
X125095079Y-80046814D01*
X125095079Y-80046814D02*
X125052303Y-80041804D01*
X125052303Y-80041804D02*
X125023785Y-80034963D01*
X125023785Y-80034963D02*
X125004846Y-80026009D01*
X125004846Y-80026009D02*
X124990807Y-80014657D01*
X124990807Y-80014657D02*
X124988102Y-80012000D01*
X124988102Y-80012000D02*
X124957025Y-79974092D01*
X124957025Y-79974092D02*
X124945768Y-79948500D01*
X124945768Y-79948500D02*
X124924788Y-79942324D01*
X124924788Y-79942324D02*
X124862570Y-79937169D01*
X124862570Y-79937169D02*
X124760198Y-79933063D01*
X124760198Y-79933063D02*
X124618756Y-79930038D01*
X124618756Y-79930038D02*
X124439327Y-79928124D01*
X124439327Y-79928124D02*
X124222996Y-79927350D01*
X124222996Y-79927350D02*
X124183768Y-79927333D01*
X124183768Y-79927333D02*
X123980982Y-79927536D01*
X123980982Y-79927536D02*
X123816690Y-79928246D01*
X123816690Y-79928246D02*
X123687053Y-79929617D01*
X123687053Y-79929617D02*
X123588234Y-79931804D01*
X123588234Y-79931804D02*
X123516395Y-79934960D01*
X123516395Y-79934960D02*
X123467698Y-79939239D01*
X123467698Y-79939239D02*
X123438304Y-79944795D01*
X123438304Y-79944795D02*
X123424376Y-79951782D01*
X123424376Y-79951782D02*
X123421768Y-79957883D01*
X123421768Y-79957883D02*
X123405858Y-79991882D01*
X123405858Y-79991882D02*
X123374725Y-80021383D01*
X123374725Y-80021383D02*
X123363358Y-80026921D01*
X123363358Y-80026921D02*
X123344371Y-80031810D01*
X123344371Y-80031810D02*
X123315274Y-80036092D01*
X123315274Y-80036092D02*
X123273580Y-80039804D01*
X123273580Y-80039804D02*
X123216799Y-80042986D01*
X123216799Y-80042986D02*
X123142441Y-80045678D01*
X123142441Y-80045678D02*
X123048019Y-80047919D01*
X123048019Y-80047919D02*
X122931044Y-80049748D01*
X122931044Y-80049748D02*
X122789025Y-80051205D01*
X122789025Y-80051205D02*
X122619475Y-80052329D01*
X122619475Y-80052329D02*
X122419904Y-80053160D01*
X122419904Y-80053160D02*
X122187823Y-80053736D01*
X122187823Y-80053736D02*
X121920744Y-80054098D01*
X121920744Y-80054098D02*
X121616177Y-80054284D01*
X121616177Y-80054284D02*
X121290989Y-80054333D01*
X121290989Y-80054333D02*
X119254296Y-80054333D01*
X119254296Y-80054333D02*
X119197312Y-80005318D01*
X119197312Y-80005318D02*
X119197312Y-80005318D01*
G36*
X121633345Y-79673390D02*
G01*
X121935858Y-79673584D01*
X122201014Y-79673956D01*
X122431305Y-79674544D01*
X122629218Y-79675390D01*
X122797243Y-79676530D01*
X122937868Y-79678006D01*
X123053582Y-79679856D01*
X123146876Y-79682120D01*
X123220236Y-79684837D01*
X123276153Y-79688047D01*
X123317115Y-79691788D01*
X123345612Y-79696101D01*
X123364132Y-79701024D01*
X123374725Y-79706284D01*
X123409919Y-79741266D01*
X123421768Y-79769784D01*
X123426819Y-79777914D01*
X123444530Y-79784500D01*
X123478738Y-79789698D01*
X123533282Y-79793660D01*
X123612001Y-79796540D01*
X123718731Y-79798492D01*
X123857312Y-79799671D01*
X124031580Y-79800229D01*
X124183768Y-79800333D01*
X124406093Y-79799751D01*
X124591695Y-79798022D01*
X124739489Y-79795179D01*
X124848393Y-79791250D01*
X124917322Y-79786266D01*
X124945191Y-79780256D01*
X124945768Y-79779167D01*
X124959431Y-79749966D01*
X124988102Y-79715667D01*
X125001714Y-79703787D01*
X125019263Y-79694362D01*
X125045430Y-79687110D01*
X125084893Y-79681747D01*
X125142332Y-79677989D01*
X125222425Y-79675553D01*
X125329852Y-79674154D01*
X125469292Y-79673510D01*
X125645424Y-79673337D01*
X125686602Y-79673333D01*
X125870856Y-79673445D01*
X126017456Y-79673969D01*
X126131081Y-79675190D01*
X126216411Y-79677390D01*
X126278125Y-79680853D01*
X126320901Y-79685863D01*
X126349419Y-79692704D01*
X126368358Y-79701658D01*
X126382397Y-79713010D01*
X126385102Y-79715667D01*
X126416179Y-79753575D01*
X126427435Y-79779167D01*
X126448411Y-79785387D01*
X126510597Y-79790572D01*
X126612882Y-79794689D01*
X126754155Y-79797708D01*
X126933306Y-79799598D01*
X127149223Y-79800326D01*
X127176260Y-79800333D01*
X127383803Y-79800512D01*
X127552750Y-79801343D01*
X127686837Y-79803266D01*
X127789801Y-79806724D01*
X127865378Y-79812157D01*
X127917306Y-79820007D01*
X127949320Y-79830715D01*
X127965157Y-79844722D01*
X127968554Y-79862470D01*
X127963247Y-79884400D01*
X127960119Y-79892901D01*
X127953236Y-79902000D01*
X127937573Y-79909358D01*
X127909061Y-79915156D01*
X127863630Y-79919575D01*
X127797212Y-79922795D01*
X127705738Y-79925000D01*
X127585137Y-79926369D01*
X127431343Y-79927083D01*
X127240284Y-79927326D01*
X127187171Y-79927333D01*
X126965234Y-79927918D01*
X126780006Y-79929651D01*
X126632576Y-79932503D01*
X126524031Y-79936443D01*
X126455461Y-79941441D01*
X126427953Y-79947466D01*
X126427435Y-79948500D01*
X126413773Y-79977701D01*
X126385102Y-80012000D01*
X126371490Y-80023880D01*
X126353940Y-80033305D01*
X126327773Y-80040557D01*
X126288310Y-80045920D01*
X126230872Y-80049678D01*
X126150779Y-80052114D01*
X126043352Y-80053513D01*
X125903912Y-80054157D01*
X125727780Y-80054330D01*
X125686602Y-80054333D01*
X125502348Y-80054222D01*
X125355748Y-80053698D01*
X125242122Y-80052477D01*
X125156792Y-80050277D01*
X125095079Y-80046814D01*
X125052303Y-80041804D01*
X125023785Y-80034963D01*
X125004846Y-80026009D01*
X124990807Y-80014657D01*
X124988102Y-80012000D01*
X124957025Y-79974092D01*
X124945768Y-79948500D01*
X124924788Y-79942324D01*
X124862570Y-79937169D01*
X124760198Y-79933063D01*
X124618756Y-79930038D01*
X124439327Y-79928124D01*
X124222996Y-79927350D01*
X124183768Y-79927333D01*
X123980982Y-79927536D01*
X123816690Y-79928246D01*
X123687053Y-79929617D01*
X123588234Y-79931804D01*
X123516395Y-79934960D01*
X123467698Y-79939239D01*
X123438304Y-79944795D01*
X123424376Y-79951782D01*
X123421768Y-79957883D01*
X123405858Y-79991882D01*
X123374725Y-80021383D01*
X123363358Y-80026921D01*
X123344371Y-80031810D01*
X123315274Y-80036092D01*
X123273580Y-80039804D01*
X123216799Y-80042986D01*
X123142441Y-80045678D01*
X123048019Y-80047919D01*
X122931044Y-80049748D01*
X122789025Y-80051205D01*
X122619475Y-80052329D01*
X122419904Y-80053160D01*
X122187823Y-80053736D01*
X121920744Y-80054098D01*
X121616177Y-80054284D01*
X121290989Y-80054333D01*
X119254296Y-80054333D01*
X119197312Y-80005318D01*
X119150999Y-79940191D01*
X119136246Y-79861189D01*
X119153055Y-79782656D01*
X119197312Y-79722349D01*
X119254296Y-79673333D01*
X121290989Y-79673333D01*
X121633345Y-79673390D01*
G37*
X121633345Y-79673390D02*
X121935858Y-79673584D01*
X122201014Y-79673956D01*
X122431305Y-79674544D01*
X122629218Y-79675390D01*
X122797243Y-79676530D01*
X122937868Y-79678006D01*
X123053582Y-79679856D01*
X123146876Y-79682120D01*
X123220236Y-79684837D01*
X123276153Y-79688047D01*
X123317115Y-79691788D01*
X123345612Y-79696101D01*
X123364132Y-79701024D01*
X123374725Y-79706284D01*
X123409919Y-79741266D01*
X123421768Y-79769784D01*
X123426819Y-79777914D01*
X123444530Y-79784500D01*
X123478738Y-79789698D01*
X123533282Y-79793660D01*
X123612001Y-79796540D01*
X123718731Y-79798492D01*
X123857312Y-79799671D01*
X124031580Y-79800229D01*
X124183768Y-79800333D01*
X124406093Y-79799751D01*
X124591695Y-79798022D01*
X124739489Y-79795179D01*
X124848393Y-79791250D01*
X124917322Y-79786266D01*
X124945191Y-79780256D01*
X124945768Y-79779167D01*
X124959431Y-79749966D01*
X124988102Y-79715667D01*
X125001714Y-79703787D01*
X125019263Y-79694362D01*
X125045430Y-79687110D01*
X125084893Y-79681747D01*
X125142332Y-79677989D01*
X125222425Y-79675553D01*
X125329852Y-79674154D01*
X125469292Y-79673510D01*
X125645424Y-79673337D01*
X125686602Y-79673333D01*
X125870856Y-79673445D01*
X126017456Y-79673969D01*
X126131081Y-79675190D01*
X126216411Y-79677390D01*
X126278125Y-79680853D01*
X126320901Y-79685863D01*
X126349419Y-79692704D01*
X126368358Y-79701658D01*
X126382397Y-79713010D01*
X126385102Y-79715667D01*
X126416179Y-79753575D01*
X126427435Y-79779167D01*
X126448411Y-79785387D01*
X126510597Y-79790572D01*
X126612882Y-79794689D01*
X126754155Y-79797708D01*
X126933306Y-79799598D01*
X127149223Y-79800326D01*
X127176260Y-79800333D01*
X127383803Y-79800512D01*
X127552750Y-79801343D01*
X127686837Y-79803266D01*
X127789801Y-79806724D01*
X127865378Y-79812157D01*
X127917306Y-79820007D01*
X127949320Y-79830715D01*
X127965157Y-79844722D01*
X127968554Y-79862470D01*
X127963247Y-79884400D01*
X127960119Y-79892901D01*
X127953236Y-79902000D01*
X127937573Y-79909358D01*
X127909061Y-79915156D01*
X127863630Y-79919575D01*
X127797212Y-79922795D01*
X127705738Y-79925000D01*
X127585137Y-79926369D01*
X127431343Y-79927083D01*
X127240284Y-79927326D01*
X127187171Y-79927333D01*
X126965234Y-79927918D01*
X126780006Y-79929651D01*
X126632576Y-79932503D01*
X126524031Y-79936443D01*
X126455461Y-79941441D01*
X126427953Y-79947466D01*
X126427435Y-79948500D01*
X126413773Y-79977701D01*
X126385102Y-80012000D01*
X126371490Y-80023880D01*
X126353940Y-80033305D01*
X126327773Y-80040557D01*
X126288310Y-80045920D01*
X126230872Y-80049678D01*
X126150779Y-80052114D01*
X126043352Y-80053513D01*
X125903912Y-80054157D01*
X125727780Y-80054330D01*
X125686602Y-80054333D01*
X125502348Y-80054222D01*
X125355748Y-80053698D01*
X125242122Y-80052477D01*
X125156792Y-80050277D01*
X125095079Y-80046814D01*
X125052303Y-80041804D01*
X125023785Y-80034963D01*
X125004846Y-80026009D01*
X124990807Y-80014657D01*
X124988102Y-80012000D01*
X124957025Y-79974092D01*
X124945768Y-79948500D01*
X124924788Y-79942324D01*
X124862570Y-79937169D01*
X124760198Y-79933063D01*
X124618756Y-79930038D01*
X124439327Y-79928124D01*
X124222996Y-79927350D01*
X124183768Y-79927333D01*
X123980982Y-79927536D01*
X123816690Y-79928246D01*
X123687053Y-79929617D01*
X123588234Y-79931804D01*
X123516395Y-79934960D01*
X123467698Y-79939239D01*
X123438304Y-79944795D01*
X123424376Y-79951782D01*
X123421768Y-79957883D01*
X123405858Y-79991882D01*
X123374725Y-80021383D01*
X123363358Y-80026921D01*
X123344371Y-80031810D01*
X123315274Y-80036092D01*
X123273580Y-80039804D01*
X123216799Y-80042986D01*
X123142441Y-80045678D01*
X123048019Y-80047919D01*
X122931044Y-80049748D01*
X122789025Y-80051205D01*
X122619475Y-80052329D01*
X122419904Y-80053160D01*
X122187823Y-80053736D01*
X121920744Y-80054098D01*
X121616177Y-80054284D01*
X121290989Y-80054333D01*
X119254296Y-80054333D01*
X119197312Y-80005318D01*
X119150999Y-79940191D01*
X119136246Y-79861189D01*
X119153055Y-79782656D01*
X119197312Y-79722349D01*
X119254296Y-79673333D01*
X121290989Y-79673333D01*
X121633345Y-79673390D01*
D12*
%TO.C,J30*%
X113022400Y-79570000D02*
X115682400Y-79570000D01*
X113022400Y-112650000D02*
X115682400Y-112650000D01*
X113022400Y-79570000D02*
X113022400Y-112650000D01*
X113022400Y-76970000D02*
X114352400Y-76970000D01*
X115682400Y-79570000D02*
X115682400Y-112650000D01*
X113022400Y-78300000D02*
X113022400Y-76970000D01*
%TO.C,J16*%
X163237740Y-73734000D02*
G75*
G03*
X163237740Y-73734000I-1251000J0D01*
G01*
%TO.C,J9*%
X163263140Y-98778400D02*
G75*
G03*
X163263140Y-98778400I-1251000J0D01*
G01*
%TO.C,J20*%
X163237740Y-123772000D02*
G75*
G03*
X163237740Y-123772000I-1251000J0D01*
G01*
%TO.C,J5*%
X163263140Y-111275200D02*
G75*
G03*
X163263140Y-111275200I-1251000J0D01*
G01*
%TO.C,J10*%
X152264940Y-98727600D02*
G75*
G03*
X152264940Y-98727600I-1251000J0D01*
G01*
%TO.C,J7*%
X152391940Y-73835600D02*
G75*
G03*
X152391940Y-73835600I-1251000J0D01*
G01*
%TO.C,J19*%
X174261340Y-123772000D02*
G75*
G03*
X174261340Y-123772000I-1251000J0D01*
G01*
%TO.C,J11*%
X141241340Y-98778400D02*
G75*
G03*
X141241340Y-98778400I-1251000J0D01*
G01*
%TO.C,J22*%
X141241340Y-111275200D02*
G75*
G03*
X141241340Y-111275200I-1251000J0D01*
G01*
%TD*%
M02*
