%TF.GenerationSoftware,KiCad,Pcbnew,(5.1.10)-1*%
%TF.CreationDate,2022-01-16T13:18:33-05:00*%
%TF.ProjectId,top,746f702e-6b69-4636-9164-5f7063625858,rev?*%
%TF.SameCoordinates,Original*%
%TF.FileFunction,Profile,NP*%
%FSLAX46Y46*%
G04 Gerber Fmt 4.6, Leading zero omitted, Abs format (unit mm)*
G04 Created by KiCad (PCBNEW (5.1.10)-1) date 2022-01-16 13:18:33*
%MOMM*%
%LPD*%
G01*
G04 APERTURE LIST*
%TA.AperFunction,Profile*%
%ADD10C,0.100000*%
%TD*%
G04 APERTURE END LIST*
D10*
X136610000Y-119810000D02*
X138790000Y-119810000D01*
X136570000Y-119800000D02*
X136610000Y-119810000D01*
X136530000Y-119790000D02*
X136570000Y-119800000D01*
X136490000Y-119780000D02*
X136530000Y-119790000D01*
X136450000Y-119760000D02*
X136490000Y-119780000D01*
X136410000Y-119740000D02*
X136450000Y-119760000D01*
X136370000Y-119720000D02*
X136410000Y-119740000D01*
X136360000Y-119700000D02*
X136370000Y-119720000D01*
X136340000Y-119690000D02*
X136360000Y-119700000D01*
X136310000Y-119660000D02*
X136340000Y-119690000D01*
X136280000Y-119620000D02*
X136310000Y-119660000D01*
X136260000Y-119590000D02*
X136280000Y-119620000D01*
X136240000Y-119550000D02*
X136260000Y-119590000D01*
X136230000Y-119530000D02*
X136240000Y-119550000D01*
X136220000Y-119490000D02*
X136230000Y-119530000D01*
X136210000Y-119440000D02*
X136220000Y-119490000D01*
X136210000Y-119400000D02*
X136210000Y-119440000D01*
X136210000Y-119380000D02*
X136210000Y-119400000D01*
X136210000Y-118720000D02*
X136210000Y-119380000D01*
X136210000Y-118670000D02*
X136210000Y-118720000D01*
X136220000Y-118630000D02*
X136210000Y-118670000D01*
X136230000Y-118590000D02*
X136220000Y-118630000D01*
X136250000Y-118550000D02*
X136230000Y-118590000D01*
X136270000Y-118510000D02*
X136250000Y-118550000D01*
X136300000Y-118480000D02*
X136270000Y-118510000D01*
X136310000Y-118460000D02*
X136300000Y-118480000D01*
X136330000Y-118440000D02*
X136310000Y-118460000D01*
X136360000Y-118410000D02*
X136330000Y-118440000D01*
X136380000Y-118400000D02*
X136360000Y-118410000D01*
X136410000Y-118380000D02*
X136380000Y-118400000D01*
X136430000Y-118370000D02*
X136410000Y-118380000D01*
X136470000Y-118350000D02*
X136430000Y-118370000D01*
X136510000Y-118330000D02*
X136470000Y-118350000D01*
X136530000Y-118330000D02*
X136510000Y-118330000D01*
X136570000Y-118320000D02*
X136530000Y-118330000D01*
X136620000Y-118310000D02*
X136570000Y-118320000D01*
X136640000Y-118310000D02*
X136620000Y-118310000D01*
X138800000Y-118310000D02*
X136640000Y-118310000D01*
X138840000Y-118320000D02*
X138800000Y-118310000D01*
X138880000Y-118330000D02*
X138840000Y-118320000D01*
X138920000Y-118340000D02*
X138880000Y-118330000D01*
X138960000Y-118360000D02*
X138920000Y-118340000D01*
X139000000Y-118380000D02*
X138960000Y-118360000D01*
X139040000Y-118400000D02*
X139000000Y-118380000D01*
X139050000Y-118420000D02*
X139040000Y-118400000D01*
X139080000Y-118450000D02*
X139050000Y-118420000D01*
X139110000Y-118480000D02*
X139080000Y-118450000D01*
X139140000Y-118520000D02*
X139110000Y-118480000D01*
X139160000Y-118550000D02*
X139140000Y-118520000D01*
X139180000Y-118590000D02*
X139160000Y-118550000D01*
X139190000Y-118630000D02*
X139180000Y-118590000D01*
X139190000Y-118660000D02*
X139190000Y-118630000D01*
X139200000Y-118680000D02*
X139190000Y-118660000D01*
X139200000Y-118720000D02*
X139200000Y-118680000D01*
X139200000Y-118740000D02*
X139200000Y-118720000D01*
X139200000Y-119400000D02*
X139200000Y-118740000D01*
X139200000Y-119420000D02*
X139200000Y-119400000D01*
X139190000Y-119470000D02*
X139200000Y-119420000D01*
X139180000Y-119510000D02*
X139190000Y-119470000D01*
X139170000Y-119530000D02*
X139180000Y-119510000D01*
X139160000Y-119570000D02*
X139170000Y-119530000D01*
X139140000Y-119610000D02*
X139160000Y-119570000D01*
X139110000Y-119640000D02*
X139140000Y-119610000D01*
X139100000Y-119660000D02*
X139110000Y-119640000D01*
X139070000Y-119690000D02*
X139100000Y-119660000D01*
X139030000Y-119720000D02*
X139070000Y-119690000D01*
X139000000Y-119740000D02*
X139030000Y-119720000D01*
X138980000Y-119760000D02*
X139000000Y-119740000D01*
X138940000Y-119770000D02*
X138980000Y-119760000D01*
X138900000Y-119790000D02*
X138940000Y-119770000D01*
X138860000Y-119800000D02*
X138900000Y-119790000D01*
X138810000Y-119810000D02*
X138860000Y-119800000D01*
X138790000Y-119810000D02*
X138810000Y-119810000D01*
X136210000Y-81840000D02*
X136210000Y-81860000D01*
X136210000Y-81180000D02*
X136210000Y-81840000D01*
X136210000Y-81130000D02*
X136210000Y-81180000D01*
X136220000Y-81110000D02*
X136210000Y-81130000D01*
X136230000Y-81070000D02*
X136220000Y-81110000D01*
X136230000Y-81050000D02*
X136230000Y-81070000D01*
X136250000Y-81010000D02*
X136230000Y-81050000D01*
X136270000Y-80970000D02*
X136250000Y-81010000D01*
X136300000Y-80940000D02*
X136270000Y-80970000D01*
X136310000Y-80920000D02*
X136300000Y-80940000D01*
X136340000Y-80890000D02*
X136310000Y-80920000D01*
X136380000Y-80860000D02*
X136340000Y-80890000D01*
X136410000Y-80840000D02*
X136380000Y-80860000D01*
X136430000Y-80820000D02*
X136410000Y-80840000D01*
X136470000Y-80810000D02*
X136430000Y-80820000D01*
X136490000Y-80800000D02*
X136470000Y-80810000D01*
X136530000Y-80780000D02*
X136490000Y-80800000D01*
X136570000Y-80780000D02*
X136530000Y-80780000D01*
X136590000Y-80770000D02*
X136570000Y-80780000D01*
X136640000Y-80770000D02*
X136590000Y-80770000D01*
X138800000Y-80770000D02*
X136640000Y-80770000D01*
X138820000Y-80770000D02*
X138800000Y-80770000D01*
X138860000Y-80780000D02*
X138820000Y-80770000D01*
X138880000Y-80780000D02*
X138860000Y-80780000D01*
X138920000Y-80800000D02*
X138880000Y-80780000D01*
X138940000Y-80810000D02*
X138920000Y-80800000D01*
X138980000Y-80830000D02*
X138940000Y-80810000D01*
X139000000Y-80840000D02*
X138980000Y-80830000D01*
X139040000Y-80860000D02*
X139000000Y-80840000D01*
X139050000Y-80880000D02*
X139040000Y-80860000D01*
X139070000Y-80890000D02*
X139050000Y-80880000D01*
X139100000Y-80920000D02*
X139070000Y-80890000D01*
X139130000Y-80960000D02*
X139100000Y-80920000D01*
X139140000Y-80970000D02*
X139130000Y-80960000D01*
X139150000Y-80990000D02*
X139140000Y-80970000D01*
X139170000Y-81030000D02*
X139150000Y-80990000D01*
X139180000Y-81050000D02*
X139170000Y-81030000D01*
X139190000Y-81090000D02*
X139180000Y-81050000D01*
X139200000Y-81140000D02*
X139190000Y-81090000D01*
X139200000Y-81180000D02*
X139200000Y-81140000D01*
X139200000Y-81200000D02*
X139200000Y-81180000D01*
X139200000Y-81860000D02*
X139200000Y-81200000D01*
X139200000Y-81910000D02*
X139200000Y-81860000D01*
X139190000Y-81950000D02*
X139200000Y-81910000D01*
X139170000Y-81990000D02*
X139190000Y-81950000D01*
X139160000Y-82030000D02*
X139170000Y-81990000D01*
X139150000Y-82050000D02*
X139160000Y-82030000D01*
X139140000Y-82070000D02*
X139150000Y-82050000D01*
X139110000Y-82100000D02*
X139140000Y-82070000D01*
X139100000Y-82120000D02*
X139110000Y-82100000D01*
X139070000Y-82150000D02*
X139100000Y-82120000D01*
X139030000Y-82180000D02*
X139070000Y-82150000D01*
X139000000Y-82200000D02*
X139030000Y-82180000D01*
X138980000Y-82210000D02*
X139000000Y-82200000D01*
X138940000Y-82230000D02*
X138980000Y-82210000D01*
X138920000Y-82240000D02*
X138940000Y-82230000D01*
X138880000Y-82250000D02*
X138920000Y-82240000D01*
X138840000Y-82260000D02*
X138880000Y-82250000D01*
X138770000Y-82270000D02*
X138840000Y-82260000D01*
X136610000Y-82270000D02*
X138770000Y-82270000D01*
X136570000Y-82260000D02*
X136610000Y-82270000D01*
X136530000Y-82250000D02*
X136570000Y-82260000D01*
X136490000Y-82240000D02*
X136530000Y-82250000D01*
X136470000Y-82230000D02*
X136490000Y-82240000D01*
X136430000Y-82210000D02*
X136470000Y-82230000D01*
X136410000Y-82200000D02*
X136430000Y-82210000D01*
X136370000Y-82180000D02*
X136410000Y-82200000D01*
X136360000Y-82160000D02*
X136370000Y-82180000D01*
X136320000Y-82130000D02*
X136360000Y-82160000D01*
X136310000Y-82120000D02*
X136320000Y-82130000D01*
X136280000Y-82080000D02*
X136310000Y-82120000D01*
X136260000Y-82040000D02*
X136280000Y-82080000D01*
X136240000Y-82010000D02*
X136260000Y-82040000D01*
X136230000Y-81990000D02*
X136240000Y-82010000D01*
X136220000Y-81940000D02*
X136230000Y-81990000D01*
X136210000Y-81900000D02*
X136220000Y-81940000D01*
X136210000Y-81860000D02*
X136210000Y-81900000D01*
X138800000Y-107340000D02*
X138820000Y-107340000D01*
X136640000Y-107340000D02*
X138800000Y-107340000D01*
X136590000Y-107330000D02*
X136640000Y-107340000D01*
X136550000Y-107320000D02*
X136590000Y-107330000D01*
X136510000Y-107310000D02*
X136550000Y-107320000D01*
X136470000Y-107290000D02*
X136510000Y-107310000D01*
X136430000Y-107270000D02*
X136470000Y-107290000D01*
X136400000Y-107250000D02*
X136430000Y-107270000D01*
X136380000Y-107230000D02*
X136400000Y-107250000D01*
X136360000Y-107220000D02*
X136380000Y-107230000D01*
X136340000Y-107190000D02*
X136360000Y-107220000D01*
X136310000Y-107150000D02*
X136340000Y-107190000D01*
X136290000Y-107110000D02*
X136310000Y-107150000D01*
X136270000Y-107080000D02*
X136290000Y-107110000D01*
X136260000Y-107060000D02*
X136270000Y-107080000D01*
X136250000Y-107010000D02*
X136260000Y-107060000D01*
X136240000Y-106970000D02*
X136250000Y-107010000D01*
X136230000Y-106910000D02*
X136240000Y-106970000D01*
X136230000Y-106250000D02*
X136230000Y-106910000D01*
X136240000Y-106200000D02*
X136230000Y-106250000D01*
X136250000Y-106160000D02*
X136240000Y-106200000D01*
X136260000Y-106120000D02*
X136250000Y-106160000D01*
X136280000Y-106080000D02*
X136260000Y-106120000D01*
X136300000Y-106040000D02*
X136280000Y-106080000D01*
X136320000Y-106010000D02*
X136300000Y-106040000D01*
X136340000Y-105990000D02*
X136320000Y-106010000D01*
X136350000Y-105970000D02*
X136340000Y-105990000D01*
X136380000Y-105940000D02*
X136350000Y-105970000D01*
X136420000Y-105920000D02*
X136380000Y-105940000D01*
X136450000Y-105890000D02*
X136420000Y-105920000D01*
X136490000Y-105880000D02*
X136450000Y-105890000D01*
X136510000Y-105870000D02*
X136490000Y-105880000D01*
X136560000Y-105850000D02*
X136510000Y-105870000D01*
X136580000Y-105850000D02*
X136560000Y-105850000D01*
X136600000Y-105850000D02*
X136580000Y-105850000D01*
X136640000Y-105840000D02*
X136600000Y-105850000D01*
X138820000Y-105840000D02*
X136640000Y-105840000D01*
X138870000Y-105850000D02*
X138820000Y-105840000D01*
X138910000Y-105850000D02*
X138870000Y-105850000D01*
X138950000Y-105870000D02*
X138910000Y-105850000D01*
X138990000Y-105890000D02*
X138950000Y-105870000D01*
X139030000Y-105910000D02*
X138990000Y-105890000D01*
X139060000Y-105930000D02*
X139030000Y-105910000D01*
X139080000Y-105950000D02*
X139060000Y-105930000D01*
X139110000Y-105980000D02*
X139080000Y-105950000D01*
X139140000Y-106010000D02*
X139110000Y-105980000D01*
X139160000Y-106040000D02*
X139140000Y-106010000D01*
X139180000Y-106080000D02*
X139160000Y-106040000D01*
X139200000Y-106120000D02*
X139180000Y-106080000D01*
X139210000Y-106160000D02*
X139200000Y-106120000D01*
X139220000Y-106180000D02*
X139210000Y-106160000D01*
X139230000Y-106230000D02*
X139220000Y-106180000D01*
X139230000Y-106270000D02*
X139230000Y-106230000D01*
X139230000Y-106930000D02*
X139230000Y-106270000D01*
X139220000Y-106950000D02*
X139230000Y-106930000D01*
X139220000Y-107000000D02*
X139220000Y-106950000D01*
X139210000Y-107040000D02*
X139220000Y-107000000D01*
X139200000Y-107060000D02*
X139210000Y-107040000D01*
X139180000Y-107100000D02*
X139200000Y-107060000D01*
X139160000Y-107140000D02*
X139180000Y-107100000D01*
X139140000Y-107170000D02*
X139160000Y-107140000D01*
X139120000Y-107190000D02*
X139140000Y-107170000D01*
X139090000Y-107220000D02*
X139120000Y-107190000D01*
X139060000Y-107250000D02*
X139090000Y-107220000D01*
X139020000Y-107270000D02*
X139060000Y-107250000D01*
X139000000Y-107280000D02*
X139020000Y-107270000D01*
X138970000Y-107300000D02*
X139000000Y-107280000D01*
X138920000Y-107320000D02*
X138970000Y-107300000D01*
X138880000Y-107330000D02*
X138920000Y-107320000D01*
X138840000Y-107340000D02*
X138880000Y-107330000D01*
X138820000Y-107340000D02*
X138840000Y-107340000D01*
X138800000Y-94820000D02*
X138820000Y-94810000D01*
X136640000Y-94810000D02*
X138800000Y-94820000D01*
X136590000Y-94810000D02*
X136640000Y-94810000D01*
X136550000Y-94800000D02*
X136590000Y-94810000D01*
X136510000Y-94790000D02*
X136550000Y-94800000D01*
X136470000Y-94770000D02*
X136510000Y-94790000D01*
X136430000Y-94750000D02*
X136470000Y-94770000D01*
X136400000Y-94720000D02*
X136430000Y-94750000D01*
X136380000Y-94710000D02*
X136400000Y-94720000D01*
X136360000Y-94700000D02*
X136380000Y-94710000D01*
X136340000Y-94660000D02*
X136360000Y-94700000D01*
X136310000Y-94630000D02*
X136340000Y-94660000D01*
X136290000Y-94590000D02*
X136310000Y-94630000D01*
X136270000Y-94550000D02*
X136290000Y-94590000D01*
X136260000Y-94530000D02*
X136270000Y-94550000D01*
X136250000Y-94490000D02*
X136260000Y-94530000D01*
X136240000Y-94450000D02*
X136250000Y-94490000D01*
X136230000Y-94380000D02*
X136240000Y-94450000D01*
X136230000Y-93720000D02*
X136230000Y-94380000D01*
X136240000Y-93680000D02*
X136230000Y-93720000D01*
X136250000Y-93640000D02*
X136240000Y-93680000D01*
X136260000Y-93600000D02*
X136250000Y-93640000D01*
X136280000Y-93560000D02*
X136260000Y-93600000D01*
X136300000Y-93520000D02*
X136280000Y-93560000D01*
X136320000Y-93480000D02*
X136300000Y-93520000D01*
X136340000Y-93470000D02*
X136320000Y-93480000D01*
X136350000Y-93450000D02*
X136340000Y-93470000D01*
X136380000Y-93420000D02*
X136350000Y-93450000D01*
X136420000Y-93390000D02*
X136380000Y-93420000D01*
X136450000Y-93370000D02*
X136420000Y-93390000D01*
X136490000Y-93350000D02*
X136450000Y-93370000D01*
X136510000Y-93340000D02*
X136490000Y-93350000D01*
X136560000Y-93330000D02*
X136510000Y-93340000D01*
X136580000Y-93330000D02*
X136560000Y-93330000D01*
X136600000Y-93320000D02*
X136580000Y-93330000D01*
X136640000Y-93320000D02*
X136600000Y-93320000D01*
X136660000Y-93320000D02*
X136640000Y-93320000D01*
X138820000Y-93320000D02*
X136660000Y-93320000D01*
X138870000Y-93320000D02*
X138820000Y-93320000D01*
X138910000Y-93330000D02*
X138870000Y-93320000D01*
X138950000Y-93350000D02*
X138910000Y-93330000D01*
X138990000Y-93360000D02*
X138950000Y-93350000D01*
X139030000Y-93380000D02*
X138990000Y-93360000D01*
X139060000Y-93410000D02*
X139030000Y-93380000D01*
X139080000Y-93420000D02*
X139060000Y-93410000D01*
X139110000Y-93450000D02*
X139080000Y-93420000D01*
X139140000Y-93490000D02*
X139110000Y-93450000D01*
X139160000Y-93520000D02*
X139140000Y-93490000D01*
X139180000Y-93560000D02*
X139160000Y-93520000D01*
X139200000Y-93600000D02*
X139180000Y-93560000D01*
X139210000Y-93640000D02*
X139200000Y-93600000D01*
X139220000Y-93660000D02*
X139210000Y-93640000D01*
X139230000Y-93710000D02*
X139220000Y-93660000D01*
X139230000Y-93750000D02*
X139230000Y-93710000D01*
X139230000Y-94410000D02*
X139230000Y-93750000D01*
X139220000Y-94430000D02*
X139230000Y-94410000D01*
X139220000Y-94470000D02*
X139220000Y-94430000D01*
X139210000Y-94520000D02*
X139220000Y-94470000D01*
X139200000Y-94540000D02*
X139210000Y-94520000D01*
X139180000Y-94580000D02*
X139200000Y-94540000D01*
X139160000Y-94610000D02*
X139180000Y-94580000D01*
X139140000Y-94650000D02*
X139160000Y-94610000D01*
X139120000Y-94670000D02*
X139140000Y-94650000D01*
X139090000Y-94700000D02*
X139120000Y-94670000D01*
X139060000Y-94730000D02*
X139090000Y-94700000D01*
X139020000Y-94750000D02*
X139060000Y-94730000D01*
X139000000Y-94760000D02*
X139020000Y-94750000D01*
X138970000Y-94780000D02*
X139000000Y-94760000D01*
X138920000Y-94800000D02*
X138970000Y-94780000D01*
X138880000Y-94810000D02*
X138920000Y-94800000D01*
X138860000Y-94810000D02*
X138880000Y-94810000D01*
X138820000Y-94810000D02*
X138860000Y-94810000D01*
X147640000Y-118310000D02*
X147610000Y-118310000D01*
X149790000Y-118310000D02*
X147640000Y-118310000D01*
X149840000Y-118320000D02*
X149790000Y-118310000D01*
X149880000Y-118330000D02*
X149840000Y-118320000D01*
X149920000Y-118340000D02*
X149880000Y-118330000D01*
X149960000Y-118360000D02*
X149920000Y-118340000D01*
X150000000Y-118380000D02*
X149960000Y-118360000D01*
X150030000Y-118400000D02*
X150000000Y-118380000D01*
X150050000Y-118420000D02*
X150030000Y-118400000D01*
X150070000Y-118430000D02*
X150050000Y-118420000D01*
X150100000Y-118460000D02*
X150070000Y-118430000D01*
X150120000Y-118500000D02*
X150100000Y-118460000D01*
X150150000Y-118530000D02*
X150120000Y-118500000D01*
X150170000Y-118570000D02*
X150150000Y-118530000D01*
X150170000Y-118590000D02*
X150170000Y-118570000D01*
X150190000Y-118630000D02*
X150170000Y-118590000D01*
X150200000Y-118680000D02*
X150190000Y-118630000D01*
X150200000Y-118720000D02*
X150200000Y-118680000D01*
X150200000Y-119400000D02*
X150200000Y-118720000D01*
X150190000Y-119450000D02*
X150200000Y-119400000D01*
X150190000Y-119490000D02*
X150190000Y-119450000D01*
X150170000Y-119530000D02*
X150190000Y-119490000D01*
X150150000Y-119570000D02*
X150170000Y-119530000D01*
X150130000Y-119610000D02*
X150150000Y-119570000D01*
X150110000Y-119640000D02*
X150130000Y-119610000D01*
X150090000Y-119660000D02*
X150110000Y-119640000D01*
X150080000Y-119680000D02*
X150090000Y-119660000D01*
X150050000Y-119710000D02*
X150080000Y-119680000D01*
X150030000Y-119720000D02*
X150050000Y-119710000D01*
X150000000Y-119740000D02*
X150030000Y-119720000D01*
X149980000Y-119760000D02*
X150000000Y-119740000D01*
X149940000Y-119770000D02*
X149980000Y-119760000D01*
X149900000Y-119790000D02*
X149940000Y-119770000D01*
X149880000Y-119790000D02*
X149900000Y-119790000D01*
X149830000Y-119800000D02*
X149880000Y-119790000D01*
X149790000Y-119810000D02*
X149830000Y-119800000D01*
X147610000Y-119810000D02*
X149790000Y-119810000D01*
X147570000Y-119800000D02*
X147610000Y-119810000D01*
X147520000Y-119790000D02*
X147570000Y-119800000D01*
X147480000Y-119780000D02*
X147520000Y-119790000D01*
X147440000Y-119760000D02*
X147480000Y-119780000D01*
X147410000Y-119740000D02*
X147440000Y-119760000D01*
X147370000Y-119720000D02*
X147410000Y-119740000D01*
X147350000Y-119700000D02*
X147370000Y-119720000D01*
X147320000Y-119670000D02*
X147350000Y-119700000D01*
X147290000Y-119640000D02*
X147320000Y-119670000D01*
X147270000Y-119600000D02*
X147290000Y-119640000D01*
X147250000Y-119570000D02*
X147270000Y-119600000D01*
X147230000Y-119530000D02*
X147250000Y-119570000D01*
X147220000Y-119490000D02*
X147230000Y-119530000D01*
X147210000Y-119460000D02*
X147220000Y-119490000D01*
X147210000Y-119420000D02*
X147210000Y-119460000D01*
X147210000Y-119400000D02*
X147210000Y-119420000D01*
X147200000Y-119380000D02*
X147210000Y-119400000D01*
X147210000Y-118720000D02*
X147200000Y-119380000D01*
X147210000Y-118700000D02*
X147210000Y-118720000D01*
X147210000Y-118650000D02*
X147210000Y-118700000D01*
X147230000Y-118610000D02*
X147210000Y-118650000D01*
X147230000Y-118590000D02*
X147230000Y-118610000D01*
X147250000Y-118550000D02*
X147230000Y-118590000D01*
X147270000Y-118510000D02*
X147250000Y-118550000D01*
X147300000Y-118480000D02*
X147270000Y-118510000D01*
X147310000Y-118460000D02*
X147300000Y-118480000D01*
X147340000Y-118430000D02*
X147310000Y-118460000D01*
X147370000Y-118400000D02*
X147340000Y-118430000D01*
X147410000Y-118380000D02*
X147370000Y-118400000D01*
X147430000Y-118370000D02*
X147410000Y-118380000D01*
X147470000Y-118350000D02*
X147430000Y-118370000D01*
X147510000Y-118330000D02*
X147470000Y-118350000D01*
X147550000Y-118320000D02*
X147510000Y-118330000D01*
X147590000Y-118310000D02*
X147550000Y-118320000D01*
X147610000Y-118310000D02*
X147590000Y-118310000D01*
X149790000Y-80770000D02*
X147610000Y-80770000D01*
X149840000Y-80780000D02*
X149790000Y-80770000D01*
X149880000Y-80780000D02*
X149840000Y-80780000D01*
X149920000Y-80800000D02*
X149880000Y-80780000D01*
X149960000Y-80820000D02*
X149920000Y-80800000D01*
X150000000Y-80840000D02*
X149960000Y-80820000D01*
X150030000Y-80860000D02*
X150000000Y-80840000D01*
X150050000Y-80880000D02*
X150030000Y-80860000D01*
X150070000Y-80890000D02*
X150050000Y-80880000D01*
X150100000Y-80920000D02*
X150070000Y-80890000D01*
X150120000Y-80960000D02*
X150100000Y-80920000D01*
X150150000Y-80990000D02*
X150120000Y-80960000D01*
X150170000Y-81030000D02*
X150150000Y-80990000D01*
X150170000Y-81050000D02*
X150170000Y-81030000D01*
X150190000Y-81090000D02*
X150170000Y-81050000D01*
X150200000Y-81140000D02*
X150190000Y-81090000D01*
X150200000Y-81180000D02*
X150200000Y-81140000D01*
X150200000Y-81860000D02*
X150200000Y-81180000D01*
X150190000Y-81910000D02*
X150200000Y-81860000D01*
X150190000Y-81950000D02*
X150190000Y-81910000D01*
X150170000Y-81990000D02*
X150190000Y-81950000D01*
X150150000Y-82030000D02*
X150170000Y-81990000D01*
X150130000Y-82070000D02*
X150150000Y-82030000D01*
X150110000Y-82100000D02*
X150130000Y-82070000D01*
X150090000Y-82120000D02*
X150110000Y-82100000D01*
X150080000Y-82130000D02*
X150090000Y-82120000D01*
X150050000Y-82160000D02*
X150080000Y-82130000D01*
X150030000Y-82180000D02*
X150050000Y-82160000D01*
X150000000Y-82200000D02*
X150030000Y-82180000D01*
X149980000Y-82210000D02*
X150000000Y-82200000D01*
X149940000Y-82230000D02*
X149980000Y-82210000D01*
X149900000Y-82250000D02*
X149940000Y-82230000D01*
X149880000Y-82250000D02*
X149900000Y-82250000D01*
X149830000Y-82260000D02*
X149880000Y-82250000D01*
X149770000Y-82270000D02*
X149830000Y-82260000D01*
X147610000Y-82270000D02*
X149770000Y-82270000D01*
X147570000Y-82260000D02*
X147610000Y-82270000D01*
X147520000Y-82250000D02*
X147570000Y-82260000D01*
X147480000Y-82240000D02*
X147520000Y-82250000D01*
X147440000Y-82220000D02*
X147480000Y-82240000D01*
X147410000Y-82200000D02*
X147440000Y-82220000D01*
X147370000Y-82180000D02*
X147410000Y-82200000D01*
X147350000Y-82160000D02*
X147370000Y-82180000D01*
X147320000Y-82130000D02*
X147350000Y-82160000D01*
X147290000Y-82100000D02*
X147320000Y-82130000D01*
X147270000Y-82060000D02*
X147290000Y-82100000D01*
X147250000Y-82030000D02*
X147270000Y-82060000D01*
X147230000Y-81990000D02*
X147250000Y-82030000D01*
X147220000Y-81940000D02*
X147230000Y-81990000D01*
X147210000Y-81920000D02*
X147220000Y-81940000D01*
X147210000Y-81880000D02*
X147210000Y-81920000D01*
X147210000Y-81860000D02*
X147210000Y-81880000D01*
X147200000Y-81840000D02*
X147210000Y-81860000D01*
X147210000Y-81180000D02*
X147200000Y-81840000D01*
X147210000Y-81150000D02*
X147210000Y-81180000D01*
X147210000Y-81110000D02*
X147210000Y-81150000D01*
X147230000Y-81070000D02*
X147210000Y-81110000D01*
X147230000Y-81050000D02*
X147230000Y-81070000D01*
X147250000Y-81010000D02*
X147230000Y-81050000D01*
X147270000Y-80970000D02*
X147250000Y-81010000D01*
X147300000Y-80940000D02*
X147270000Y-80970000D01*
X147310000Y-80920000D02*
X147300000Y-80940000D01*
X147340000Y-80890000D02*
X147310000Y-80920000D01*
X147370000Y-80860000D02*
X147340000Y-80890000D01*
X147410000Y-80840000D02*
X147370000Y-80860000D01*
X147430000Y-80820000D02*
X147410000Y-80840000D01*
X147470000Y-80810000D02*
X147430000Y-80820000D01*
X147490000Y-80800000D02*
X147470000Y-80810000D01*
X147530000Y-80780000D02*
X147490000Y-80800000D01*
X147570000Y-80780000D02*
X147530000Y-80780000D01*
X147610000Y-80770000D02*
X147570000Y-80780000D01*
X149820000Y-105840000D02*
X147640000Y-105840000D01*
X149860000Y-105850000D02*
X149820000Y-105840000D01*
X149910000Y-105850000D02*
X149860000Y-105850000D01*
X149950000Y-105870000D02*
X149910000Y-105850000D01*
X149990000Y-105890000D02*
X149950000Y-105870000D01*
X150020000Y-105910000D02*
X149990000Y-105890000D01*
X150060000Y-105930000D02*
X150020000Y-105910000D01*
X150080000Y-105950000D02*
X150060000Y-105930000D01*
X150090000Y-105960000D02*
X150080000Y-105950000D01*
X150120000Y-105990000D02*
X150090000Y-105960000D01*
X150150000Y-106030000D02*
X150120000Y-105990000D01*
X150170000Y-106060000D02*
X150150000Y-106030000D01*
X150190000Y-106100000D02*
X150170000Y-106060000D01*
X150200000Y-106120000D02*
X150190000Y-106100000D01*
X150210000Y-106160000D02*
X150200000Y-106120000D01*
X150220000Y-106210000D02*
X150210000Y-106160000D01*
X150230000Y-106250000D02*
X150220000Y-106210000D01*
X150230000Y-106270000D02*
X150230000Y-106250000D01*
X150220000Y-106930000D02*
X150230000Y-106270000D01*
X150220000Y-106970000D02*
X150220000Y-106930000D01*
X150210000Y-107020000D02*
X150220000Y-106970000D01*
X150200000Y-107060000D02*
X150210000Y-107020000D01*
X150180000Y-107100000D02*
X150200000Y-107060000D01*
X150160000Y-107140000D02*
X150180000Y-107100000D01*
X150130000Y-107170000D02*
X150160000Y-107140000D01*
X150120000Y-107190000D02*
X150130000Y-107170000D01*
X150110000Y-107200000D02*
X150120000Y-107190000D01*
X150070000Y-107230000D02*
X150110000Y-107200000D01*
X150060000Y-107250000D02*
X150070000Y-107230000D01*
X150020000Y-107270000D02*
X150060000Y-107250000D01*
X150000000Y-107280000D02*
X150020000Y-107270000D01*
X149960000Y-107300000D02*
X150000000Y-107280000D01*
X149920000Y-107320000D02*
X149960000Y-107300000D01*
X149900000Y-107320000D02*
X149920000Y-107320000D01*
X149860000Y-107330000D02*
X149900000Y-107320000D01*
X149790000Y-107340000D02*
X149860000Y-107330000D01*
X147640000Y-107340000D02*
X149790000Y-107340000D01*
X147590000Y-107330000D02*
X147640000Y-107340000D01*
X147550000Y-107320000D02*
X147590000Y-107330000D01*
X147510000Y-107310000D02*
X147550000Y-107320000D01*
X147470000Y-107290000D02*
X147510000Y-107310000D01*
X147430000Y-107270000D02*
X147470000Y-107290000D01*
X147400000Y-107250000D02*
X147430000Y-107270000D01*
X147380000Y-107230000D02*
X147400000Y-107250000D01*
X147350000Y-107200000D02*
X147380000Y-107230000D01*
X147320000Y-107170000D02*
X147350000Y-107200000D01*
X147290000Y-107130000D02*
X147320000Y-107170000D01*
X147270000Y-107100000D02*
X147290000Y-107130000D01*
X147260000Y-107060000D02*
X147270000Y-107100000D01*
X147240000Y-107010000D02*
X147260000Y-107060000D01*
X147240000Y-106990000D02*
X147240000Y-107010000D01*
X147240000Y-106970000D02*
X147240000Y-106990000D01*
X147230000Y-106930000D02*
X147240000Y-106970000D01*
X147230000Y-106250000D02*
X147230000Y-106930000D01*
X147230000Y-106220000D02*
X147230000Y-106250000D01*
X147240000Y-106180000D02*
X147230000Y-106220000D01*
X147250000Y-106140000D02*
X147240000Y-106180000D01*
X147260000Y-106120000D02*
X147250000Y-106140000D01*
X147280000Y-106080000D02*
X147260000Y-106120000D01*
X147300000Y-106040000D02*
X147280000Y-106080000D01*
X147320000Y-106010000D02*
X147300000Y-106040000D01*
X147340000Y-105990000D02*
X147320000Y-106010000D01*
X147370000Y-105960000D02*
X147340000Y-105990000D01*
X147400000Y-105930000D02*
X147370000Y-105960000D01*
X147430000Y-105910000D02*
X147400000Y-105930000D01*
X147450000Y-105890000D02*
X147430000Y-105910000D01*
X147490000Y-105880000D02*
X147450000Y-105890000D01*
X147510000Y-105870000D02*
X147490000Y-105880000D01*
X147550000Y-105850000D02*
X147510000Y-105870000D01*
X147600000Y-105850000D02*
X147550000Y-105850000D01*
X147640000Y-105840000D02*
X147600000Y-105850000D01*
X147660000Y-93320000D02*
X147640000Y-93320000D01*
X149820000Y-93320000D02*
X147660000Y-93320000D01*
X149860000Y-93320000D02*
X149820000Y-93320000D01*
X149910000Y-93330000D02*
X149860000Y-93320000D01*
X149950000Y-93350000D02*
X149910000Y-93330000D01*
X149990000Y-93360000D02*
X149950000Y-93350000D01*
X150020000Y-93380000D02*
X149990000Y-93360000D01*
X150060000Y-93410000D02*
X150020000Y-93380000D01*
X150080000Y-93420000D02*
X150060000Y-93410000D01*
X150090000Y-93440000D02*
X150080000Y-93420000D01*
X150120000Y-93470000D02*
X150090000Y-93440000D01*
X150150000Y-93500000D02*
X150120000Y-93470000D01*
X150170000Y-93540000D02*
X150150000Y-93500000D01*
X150190000Y-93580000D02*
X150170000Y-93540000D01*
X150200000Y-93600000D02*
X150190000Y-93580000D01*
X150210000Y-93640000D02*
X150200000Y-93600000D01*
X150220000Y-93680000D02*
X150210000Y-93640000D01*
X150230000Y-93730000D02*
X150220000Y-93680000D01*
X150230000Y-93750000D02*
X150230000Y-93730000D01*
X150220000Y-94410000D02*
X150230000Y-93750000D01*
X150220000Y-94450000D02*
X150220000Y-94410000D01*
X150210000Y-94500000D02*
X150220000Y-94450000D01*
X150200000Y-94540000D02*
X150210000Y-94500000D01*
X150180000Y-94580000D02*
X150200000Y-94540000D01*
X150160000Y-94610000D02*
X150180000Y-94580000D01*
X150130000Y-94650000D02*
X150160000Y-94610000D01*
X150120000Y-94670000D02*
X150130000Y-94650000D01*
X150110000Y-94680000D02*
X150120000Y-94670000D01*
X150070000Y-94710000D02*
X150110000Y-94680000D01*
X150060000Y-94730000D02*
X150070000Y-94710000D01*
X150020000Y-94750000D02*
X150060000Y-94730000D01*
X150000000Y-94760000D02*
X150020000Y-94750000D01*
X149960000Y-94780000D02*
X150000000Y-94760000D01*
X149920000Y-94800000D02*
X149960000Y-94780000D01*
X149900000Y-94800000D02*
X149920000Y-94800000D01*
X149860000Y-94810000D02*
X149900000Y-94800000D01*
X149820000Y-94810000D02*
X149860000Y-94810000D01*
X149790000Y-94820000D02*
X149820000Y-94810000D01*
X147640000Y-94810000D02*
X149790000Y-94820000D01*
X147590000Y-94810000D02*
X147640000Y-94810000D01*
X147550000Y-94800000D02*
X147590000Y-94810000D01*
X147510000Y-94790000D02*
X147550000Y-94800000D01*
X147470000Y-94770000D02*
X147510000Y-94790000D01*
X147430000Y-94750000D02*
X147470000Y-94770000D01*
X147400000Y-94720000D02*
X147430000Y-94750000D01*
X147380000Y-94710000D02*
X147400000Y-94720000D01*
X147350000Y-94680000D02*
X147380000Y-94710000D01*
X147320000Y-94650000D02*
X147350000Y-94680000D01*
X147290000Y-94610000D02*
X147320000Y-94650000D01*
X147270000Y-94570000D02*
X147290000Y-94610000D01*
X147260000Y-94530000D02*
X147270000Y-94570000D01*
X147240000Y-94490000D02*
X147260000Y-94530000D01*
X147240000Y-94470000D02*
X147240000Y-94490000D01*
X147240000Y-94450000D02*
X147240000Y-94470000D01*
X147230000Y-94410000D02*
X147240000Y-94450000D01*
X147230000Y-93720000D02*
X147230000Y-94410000D01*
X147230000Y-93700000D02*
X147230000Y-93720000D01*
X147240000Y-93660000D02*
X147230000Y-93700000D01*
X147250000Y-93620000D02*
X147240000Y-93660000D01*
X147260000Y-93600000D02*
X147250000Y-93620000D01*
X147280000Y-93560000D02*
X147260000Y-93600000D01*
X147300000Y-93520000D02*
X147280000Y-93560000D01*
X147320000Y-93480000D02*
X147300000Y-93520000D01*
X147340000Y-93470000D02*
X147320000Y-93480000D01*
X147370000Y-93440000D02*
X147340000Y-93470000D01*
X147400000Y-93410000D02*
X147370000Y-93440000D01*
X147430000Y-93380000D02*
X147400000Y-93410000D01*
X147450000Y-93370000D02*
X147430000Y-93380000D01*
X147490000Y-93350000D02*
X147450000Y-93370000D01*
X147510000Y-93340000D02*
X147490000Y-93350000D01*
X147550000Y-93330000D02*
X147510000Y-93340000D01*
X147600000Y-93320000D02*
X147550000Y-93330000D01*
X147640000Y-93320000D02*
X147600000Y-93320000D01*
X160790000Y-118310000D02*
X158630000Y-118310000D01*
X160840000Y-118320000D02*
X160790000Y-118310000D01*
X160880000Y-118330000D02*
X160840000Y-118320000D01*
X160920000Y-118340000D02*
X160880000Y-118330000D01*
X160960000Y-118360000D02*
X160920000Y-118340000D01*
X161000000Y-118380000D02*
X160960000Y-118360000D01*
X161030000Y-118400000D02*
X161000000Y-118380000D01*
X161050000Y-118420000D02*
X161030000Y-118400000D01*
X161070000Y-118430000D02*
X161050000Y-118420000D01*
X161100000Y-118460000D02*
X161070000Y-118430000D01*
X161120000Y-118500000D02*
X161100000Y-118460000D01*
X161140000Y-118530000D02*
X161120000Y-118500000D01*
X161160000Y-118570000D02*
X161140000Y-118530000D01*
X161170000Y-118590000D02*
X161160000Y-118570000D01*
X161180000Y-118630000D02*
X161170000Y-118590000D01*
X161190000Y-118680000D02*
X161180000Y-118630000D01*
X161200000Y-118740000D02*
X161190000Y-118680000D01*
X161200000Y-119400000D02*
X161200000Y-118740000D01*
X161190000Y-119450000D02*
X161200000Y-119400000D01*
X161180000Y-119490000D02*
X161190000Y-119450000D01*
X161170000Y-119530000D02*
X161180000Y-119490000D01*
X161150000Y-119570000D02*
X161170000Y-119530000D01*
X161130000Y-119610000D02*
X161150000Y-119570000D01*
X161110000Y-119640000D02*
X161130000Y-119610000D01*
X161090000Y-119660000D02*
X161110000Y-119640000D01*
X161080000Y-119680000D02*
X161090000Y-119660000D01*
X161050000Y-119710000D02*
X161080000Y-119680000D01*
X161030000Y-119720000D02*
X161050000Y-119710000D01*
X160990000Y-119740000D02*
X161030000Y-119720000D01*
X160980000Y-119760000D02*
X160990000Y-119740000D01*
X160940000Y-119770000D02*
X160980000Y-119760000D01*
X160900000Y-119790000D02*
X160940000Y-119770000D01*
X160870000Y-119790000D02*
X160900000Y-119790000D01*
X160830000Y-119800000D02*
X160870000Y-119790000D01*
X160790000Y-119810000D02*
X160830000Y-119800000D01*
X158610000Y-119810000D02*
X160790000Y-119810000D01*
X158570000Y-119800000D02*
X158610000Y-119810000D01*
X158520000Y-119790000D02*
X158570000Y-119800000D01*
X158480000Y-119780000D02*
X158520000Y-119790000D01*
X158440000Y-119760000D02*
X158480000Y-119780000D01*
X158400000Y-119740000D02*
X158440000Y-119760000D01*
X158370000Y-119720000D02*
X158400000Y-119740000D01*
X158350000Y-119700000D02*
X158370000Y-119720000D01*
X158320000Y-119670000D02*
X158350000Y-119700000D01*
X158290000Y-119640000D02*
X158320000Y-119670000D01*
X158270000Y-119600000D02*
X158290000Y-119640000D01*
X158250000Y-119570000D02*
X158270000Y-119600000D01*
X158230000Y-119530000D02*
X158250000Y-119570000D01*
X158220000Y-119490000D02*
X158230000Y-119530000D01*
X158210000Y-119460000D02*
X158220000Y-119490000D01*
X158210000Y-119440000D02*
X158210000Y-119460000D01*
X158200000Y-119380000D02*
X158210000Y-119440000D01*
X158200000Y-118720000D02*
X158200000Y-119380000D01*
X158210000Y-118700000D02*
X158200000Y-118720000D01*
X158210000Y-118650000D02*
X158210000Y-118700000D01*
X158220000Y-118610000D02*
X158210000Y-118650000D01*
X158230000Y-118590000D02*
X158220000Y-118610000D01*
X158250000Y-118550000D02*
X158230000Y-118590000D01*
X158270000Y-118510000D02*
X158250000Y-118550000D01*
X158290000Y-118480000D02*
X158270000Y-118510000D01*
X158310000Y-118460000D02*
X158290000Y-118480000D01*
X158340000Y-118430000D02*
X158310000Y-118460000D01*
X158370000Y-118400000D02*
X158340000Y-118430000D01*
X158410000Y-118380000D02*
X158370000Y-118400000D01*
X158430000Y-118370000D02*
X158410000Y-118380000D01*
X158460000Y-118350000D02*
X158430000Y-118370000D01*
X158510000Y-118330000D02*
X158460000Y-118350000D01*
X158550000Y-118320000D02*
X158510000Y-118330000D01*
X158590000Y-118310000D02*
X158550000Y-118320000D01*
X158630000Y-118310000D02*
X158590000Y-118310000D01*
X158200000Y-81840000D02*
X158200000Y-81860000D01*
X158200000Y-81180000D02*
X158200000Y-81840000D01*
X158210000Y-81130000D02*
X158200000Y-81180000D01*
X158210000Y-81110000D02*
X158210000Y-81130000D01*
X158220000Y-81070000D02*
X158210000Y-81110000D01*
X158230000Y-81050000D02*
X158220000Y-81070000D01*
X158250000Y-81010000D02*
X158230000Y-81050000D01*
X158270000Y-80970000D02*
X158250000Y-81010000D01*
X158290000Y-80940000D02*
X158270000Y-80970000D01*
X158310000Y-80920000D02*
X158290000Y-80940000D01*
X158340000Y-80890000D02*
X158310000Y-80920000D01*
X158370000Y-80860000D02*
X158340000Y-80890000D01*
X158410000Y-80840000D02*
X158370000Y-80860000D01*
X158430000Y-80820000D02*
X158410000Y-80840000D01*
X158460000Y-80810000D02*
X158430000Y-80820000D01*
X158490000Y-80800000D02*
X158460000Y-80810000D01*
X158530000Y-80780000D02*
X158490000Y-80800000D01*
X158570000Y-80780000D02*
X158530000Y-80780000D01*
X158590000Y-80770000D02*
X158570000Y-80780000D01*
X158630000Y-80770000D02*
X158590000Y-80770000D01*
X160790000Y-80770000D02*
X158630000Y-80770000D01*
X160810000Y-80770000D02*
X160790000Y-80770000D01*
X160860000Y-80780000D02*
X160810000Y-80770000D01*
X160880000Y-80780000D02*
X160860000Y-80780000D01*
X160920000Y-80800000D02*
X160880000Y-80780000D01*
X160940000Y-80810000D02*
X160920000Y-80800000D01*
X160980000Y-80830000D02*
X160940000Y-80810000D01*
X161000000Y-80840000D02*
X160980000Y-80830000D01*
X161030000Y-80860000D02*
X161000000Y-80840000D01*
X161050000Y-80880000D02*
X161030000Y-80860000D01*
X161070000Y-80890000D02*
X161050000Y-80880000D01*
X161100000Y-80920000D02*
X161070000Y-80890000D01*
X161120000Y-80960000D02*
X161100000Y-80920000D01*
X161130000Y-80970000D02*
X161120000Y-80960000D01*
X161140000Y-80990000D02*
X161130000Y-80970000D01*
X161160000Y-81030000D02*
X161140000Y-80990000D01*
X161170000Y-81050000D02*
X161160000Y-81030000D01*
X161180000Y-81090000D02*
X161170000Y-81050000D01*
X161190000Y-81140000D02*
X161180000Y-81090000D01*
X161200000Y-81200000D02*
X161190000Y-81140000D01*
X161200000Y-81860000D02*
X161200000Y-81200000D01*
X161190000Y-81910000D02*
X161200000Y-81860000D01*
X161180000Y-81950000D02*
X161190000Y-81910000D01*
X161170000Y-81990000D02*
X161180000Y-81950000D01*
X161150000Y-82030000D02*
X161170000Y-81990000D01*
X161140000Y-82050000D02*
X161150000Y-82030000D01*
X161130000Y-82070000D02*
X161140000Y-82050000D01*
X161110000Y-82100000D02*
X161130000Y-82070000D01*
X161090000Y-82120000D02*
X161110000Y-82100000D01*
X161060000Y-82150000D02*
X161090000Y-82120000D01*
X161030000Y-82180000D02*
X161060000Y-82150000D01*
X160990000Y-82200000D02*
X161030000Y-82180000D01*
X160980000Y-82210000D02*
X160990000Y-82200000D01*
X160940000Y-82230000D02*
X160980000Y-82210000D01*
X160920000Y-82240000D02*
X160940000Y-82230000D01*
X160870000Y-82250000D02*
X160920000Y-82240000D01*
X160830000Y-82260000D02*
X160870000Y-82250000D01*
X160770000Y-82270000D02*
X160830000Y-82260000D01*
X158610000Y-82270000D02*
X160770000Y-82270000D01*
X158570000Y-82260000D02*
X158610000Y-82270000D01*
X158520000Y-82250000D02*
X158570000Y-82260000D01*
X158480000Y-82240000D02*
X158520000Y-82250000D01*
X158460000Y-82230000D02*
X158480000Y-82240000D01*
X158420000Y-82210000D02*
X158460000Y-82230000D01*
X158390000Y-82190000D02*
X158420000Y-82210000D01*
X158350000Y-82160000D02*
X158390000Y-82190000D01*
X158340000Y-82150000D02*
X158350000Y-82160000D01*
X158310000Y-82120000D02*
X158340000Y-82150000D01*
X158280000Y-82080000D02*
X158310000Y-82120000D01*
X158260000Y-82040000D02*
X158280000Y-82080000D01*
X158250000Y-82030000D02*
X158260000Y-82040000D01*
X158230000Y-81990000D02*
X158250000Y-82030000D01*
X158220000Y-81940000D02*
X158230000Y-81990000D01*
X158210000Y-81920000D02*
X158220000Y-81940000D01*
X158210000Y-81880000D02*
X158210000Y-81920000D01*
X158200000Y-81860000D02*
X158210000Y-81880000D01*
X160820000Y-105840000D02*
X158660000Y-105840000D01*
X160860000Y-105850000D02*
X160820000Y-105840000D01*
X160900000Y-105850000D02*
X160860000Y-105850000D01*
X160950000Y-105870000D02*
X160900000Y-105850000D01*
X160980000Y-105890000D02*
X160950000Y-105870000D01*
X161020000Y-105910000D02*
X160980000Y-105890000D01*
X161060000Y-105930000D02*
X161020000Y-105910000D01*
X161080000Y-105950000D02*
X161060000Y-105930000D01*
X161090000Y-105960000D02*
X161080000Y-105950000D01*
X161120000Y-105990000D02*
X161090000Y-105960000D01*
X161150000Y-106030000D02*
X161120000Y-105990000D01*
X161170000Y-106060000D02*
X161150000Y-106030000D01*
X161190000Y-106100000D02*
X161170000Y-106060000D01*
X161200000Y-106120000D02*
X161190000Y-106100000D01*
X161210000Y-106160000D02*
X161200000Y-106120000D01*
X161220000Y-106210000D02*
X161210000Y-106160000D01*
X161220000Y-106250000D02*
X161220000Y-106210000D01*
X161220000Y-106270000D02*
X161220000Y-106250000D01*
X161220000Y-106930000D02*
X161220000Y-106270000D01*
X161220000Y-106970000D02*
X161220000Y-106930000D01*
X161210000Y-107020000D02*
X161220000Y-106970000D01*
X161200000Y-107060000D02*
X161210000Y-107020000D01*
X161180000Y-107100000D02*
X161200000Y-107060000D01*
X161160000Y-107140000D02*
X161180000Y-107100000D01*
X161130000Y-107170000D02*
X161160000Y-107140000D01*
X161120000Y-107190000D02*
X161130000Y-107170000D01*
X161100000Y-107200000D02*
X161120000Y-107190000D01*
X161070000Y-107230000D02*
X161100000Y-107200000D01*
X161060000Y-107250000D02*
X161070000Y-107230000D01*
X161020000Y-107270000D02*
X161060000Y-107250000D01*
X161000000Y-107280000D02*
X161020000Y-107270000D01*
X160960000Y-107300000D02*
X161000000Y-107280000D01*
X160920000Y-107320000D02*
X160960000Y-107300000D01*
X160900000Y-107320000D02*
X160920000Y-107320000D01*
X160860000Y-107330000D02*
X160900000Y-107320000D01*
X160790000Y-107340000D02*
X160860000Y-107330000D01*
X158630000Y-107340000D02*
X160790000Y-107340000D01*
X158590000Y-107330000D02*
X158630000Y-107340000D01*
X158550000Y-107320000D02*
X158590000Y-107330000D01*
X158510000Y-107310000D02*
X158550000Y-107320000D01*
X158470000Y-107290000D02*
X158510000Y-107310000D01*
X158430000Y-107270000D02*
X158470000Y-107290000D01*
X158390000Y-107250000D02*
X158430000Y-107270000D01*
X158380000Y-107230000D02*
X158390000Y-107250000D01*
X158350000Y-107200000D02*
X158380000Y-107230000D01*
X158320000Y-107170000D02*
X158350000Y-107200000D01*
X158290000Y-107130000D02*
X158320000Y-107170000D01*
X158270000Y-107100000D02*
X158290000Y-107130000D01*
X158260000Y-107060000D02*
X158270000Y-107100000D01*
X158240000Y-107010000D02*
X158260000Y-107060000D01*
X158240000Y-106990000D02*
X158240000Y-107010000D01*
X158230000Y-106970000D02*
X158240000Y-106990000D01*
X158230000Y-106930000D02*
X158230000Y-106970000D01*
X158230000Y-106910000D02*
X158230000Y-106930000D01*
X158230000Y-106250000D02*
X158230000Y-106910000D01*
X158230000Y-106220000D02*
X158230000Y-106250000D01*
X158240000Y-106180000D02*
X158230000Y-106220000D01*
X158250000Y-106140000D02*
X158240000Y-106180000D01*
X158260000Y-106100000D02*
X158250000Y-106140000D01*
X158280000Y-106060000D02*
X158260000Y-106100000D01*
X158290000Y-106040000D02*
X158280000Y-106060000D01*
X158320000Y-106010000D02*
X158290000Y-106040000D01*
X158350000Y-105970000D02*
X158320000Y-106010000D01*
X158380000Y-105940000D02*
X158350000Y-105970000D01*
X158400000Y-105930000D02*
X158380000Y-105940000D01*
X158430000Y-105910000D02*
X158400000Y-105930000D01*
X158470000Y-105880000D02*
X158430000Y-105910000D01*
X158510000Y-105870000D02*
X158470000Y-105880000D01*
X158550000Y-105850000D02*
X158510000Y-105870000D01*
X158590000Y-105850000D02*
X158550000Y-105850000D01*
X158640000Y-105840000D02*
X158590000Y-105850000D01*
X158660000Y-105840000D02*
X158640000Y-105840000D01*
X160820000Y-93320000D02*
X158660000Y-93320000D01*
X160860000Y-93320000D02*
X160820000Y-93320000D01*
X160900000Y-93330000D02*
X160860000Y-93320000D01*
X160950000Y-93350000D02*
X160900000Y-93330000D01*
X160980000Y-93360000D02*
X160950000Y-93350000D01*
X161020000Y-93380000D02*
X160980000Y-93360000D01*
X161060000Y-93410000D02*
X161020000Y-93380000D01*
X161080000Y-93420000D02*
X161060000Y-93410000D01*
X161090000Y-93440000D02*
X161080000Y-93420000D01*
X161120000Y-93470000D02*
X161090000Y-93440000D01*
X161150000Y-93500000D02*
X161120000Y-93470000D01*
X161170000Y-93540000D02*
X161150000Y-93500000D01*
X161190000Y-93580000D02*
X161170000Y-93540000D01*
X161200000Y-93600000D02*
X161190000Y-93580000D01*
X161210000Y-93640000D02*
X161200000Y-93600000D01*
X161220000Y-93680000D02*
X161210000Y-93640000D01*
X161220000Y-93730000D02*
X161220000Y-93680000D01*
X161220000Y-93750000D02*
X161220000Y-93730000D01*
X161220000Y-94410000D02*
X161220000Y-93750000D01*
X161220000Y-94450000D02*
X161220000Y-94410000D01*
X161210000Y-94500000D02*
X161220000Y-94450000D01*
X161200000Y-94540000D02*
X161210000Y-94500000D01*
X161180000Y-94580000D02*
X161200000Y-94540000D01*
X161160000Y-94610000D02*
X161180000Y-94580000D01*
X161130000Y-94650000D02*
X161160000Y-94610000D01*
X161120000Y-94670000D02*
X161130000Y-94650000D01*
X161100000Y-94680000D02*
X161120000Y-94670000D01*
X161070000Y-94710000D02*
X161100000Y-94680000D01*
X161060000Y-94730000D02*
X161070000Y-94710000D01*
X161020000Y-94750000D02*
X161060000Y-94730000D01*
X161000000Y-94760000D02*
X161020000Y-94750000D01*
X160960000Y-94780000D02*
X161000000Y-94760000D01*
X160920000Y-94800000D02*
X160960000Y-94780000D01*
X160880000Y-94810000D02*
X160920000Y-94800000D01*
X160840000Y-94810000D02*
X160880000Y-94810000D01*
X160810000Y-94810000D02*
X160840000Y-94810000D01*
X160790000Y-94820000D02*
X160810000Y-94810000D01*
X158630000Y-94810000D02*
X160790000Y-94820000D01*
X158590000Y-94810000D02*
X158630000Y-94810000D01*
X158550000Y-94800000D02*
X158590000Y-94810000D01*
X158510000Y-94790000D02*
X158550000Y-94800000D01*
X158470000Y-94770000D02*
X158510000Y-94790000D01*
X158430000Y-94750000D02*
X158470000Y-94770000D01*
X158390000Y-94720000D02*
X158430000Y-94750000D01*
X158380000Y-94710000D02*
X158390000Y-94720000D01*
X158350000Y-94680000D02*
X158380000Y-94710000D01*
X158320000Y-94650000D02*
X158350000Y-94680000D01*
X158290000Y-94610000D02*
X158320000Y-94650000D01*
X158270000Y-94570000D02*
X158290000Y-94610000D01*
X158260000Y-94530000D02*
X158270000Y-94570000D01*
X158240000Y-94490000D02*
X158260000Y-94530000D01*
X158240000Y-94470000D02*
X158240000Y-94490000D01*
X158230000Y-94450000D02*
X158240000Y-94470000D01*
X158230000Y-94410000D02*
X158230000Y-94450000D01*
X158230000Y-94380000D02*
X158230000Y-94410000D01*
X158230000Y-93720000D02*
X158230000Y-94380000D01*
X158230000Y-93700000D02*
X158230000Y-93720000D01*
X158240000Y-93660000D02*
X158230000Y-93700000D01*
X158250000Y-93620000D02*
X158240000Y-93660000D01*
X158260000Y-93580000D02*
X158250000Y-93620000D01*
X158280000Y-93540000D02*
X158260000Y-93580000D01*
X158290000Y-93520000D02*
X158280000Y-93540000D01*
X158320000Y-93480000D02*
X158290000Y-93520000D01*
X158350000Y-93450000D02*
X158320000Y-93480000D01*
X158380000Y-93420000D02*
X158350000Y-93450000D01*
X158400000Y-93410000D02*
X158380000Y-93420000D01*
X158430000Y-93380000D02*
X158400000Y-93410000D01*
X158470000Y-93360000D02*
X158430000Y-93380000D01*
X158510000Y-93340000D02*
X158470000Y-93360000D01*
X158550000Y-93330000D02*
X158510000Y-93340000D01*
X158590000Y-93320000D02*
X158550000Y-93330000D01*
X158640000Y-93320000D02*
X158590000Y-93320000D01*
X158660000Y-93320000D02*
X158640000Y-93320000D01*
X169200000Y-118720000D02*
X169200000Y-119380000D01*
X169210000Y-118670000D02*
X169200000Y-118720000D01*
X169210000Y-118650000D02*
X169210000Y-118670000D01*
X169220000Y-118610000D02*
X169210000Y-118650000D01*
X169230000Y-118590000D02*
X169220000Y-118610000D01*
X169250000Y-118550000D02*
X169230000Y-118590000D01*
X169270000Y-118510000D02*
X169250000Y-118550000D01*
X169290000Y-118480000D02*
X169270000Y-118510000D01*
X169310000Y-118460000D02*
X169290000Y-118480000D01*
X169340000Y-118430000D02*
X169310000Y-118460000D01*
X169370000Y-118400000D02*
X169340000Y-118430000D01*
X169410000Y-118380000D02*
X169370000Y-118400000D01*
X169420000Y-118370000D02*
X169410000Y-118380000D01*
X169460000Y-118350000D02*
X169420000Y-118370000D01*
X169480000Y-118340000D02*
X169460000Y-118350000D01*
X169520000Y-118330000D02*
X169480000Y-118340000D01*
X169570000Y-118320000D02*
X169520000Y-118330000D01*
X169630000Y-118310000D02*
X169570000Y-118320000D01*
X171790000Y-118310000D02*
X169630000Y-118310000D01*
X171810000Y-118310000D02*
X171790000Y-118310000D01*
X171860000Y-118320000D02*
X171810000Y-118310000D01*
X171880000Y-118330000D02*
X171860000Y-118320000D01*
X171920000Y-118340000D02*
X171880000Y-118330000D01*
X171940000Y-118350000D02*
X171920000Y-118340000D01*
X171980000Y-118370000D02*
X171940000Y-118350000D01*
X172000000Y-118380000D02*
X171980000Y-118370000D01*
X172030000Y-118400000D02*
X172000000Y-118380000D01*
X172050000Y-118420000D02*
X172030000Y-118400000D01*
X172060000Y-118430000D02*
X172050000Y-118420000D01*
X172090000Y-118460000D02*
X172060000Y-118430000D01*
X172120000Y-118500000D02*
X172090000Y-118460000D01*
X172130000Y-118520000D02*
X172120000Y-118500000D01*
X172140000Y-118530000D02*
X172130000Y-118520000D01*
X172160000Y-118570000D02*
X172140000Y-118530000D01*
X172170000Y-118590000D02*
X172160000Y-118570000D01*
X172180000Y-118630000D02*
X172170000Y-118590000D01*
X172190000Y-118680000D02*
X172180000Y-118630000D01*
X172200000Y-118740000D02*
X172190000Y-118680000D01*
X172200000Y-119400000D02*
X172200000Y-118740000D01*
X172190000Y-119450000D02*
X172200000Y-119400000D01*
X172180000Y-119490000D02*
X172190000Y-119450000D01*
X172170000Y-119530000D02*
X172180000Y-119490000D01*
X172150000Y-119570000D02*
X172170000Y-119530000D01*
X172140000Y-119590000D02*
X172150000Y-119570000D01*
X172130000Y-119610000D02*
X172140000Y-119590000D01*
X172110000Y-119640000D02*
X172130000Y-119610000D01*
X172090000Y-119660000D02*
X172110000Y-119640000D01*
X172060000Y-119690000D02*
X172090000Y-119660000D01*
X172030000Y-119720000D02*
X172060000Y-119690000D01*
X171990000Y-119740000D02*
X172030000Y-119720000D01*
X171970000Y-119760000D02*
X171990000Y-119740000D01*
X171930000Y-119770000D02*
X171970000Y-119760000D01*
X171910000Y-119780000D02*
X171930000Y-119770000D01*
X171870000Y-119790000D02*
X171910000Y-119780000D01*
X171830000Y-119800000D02*
X171870000Y-119790000D01*
X171770000Y-119810000D02*
X171830000Y-119800000D01*
X169610000Y-119810000D02*
X171770000Y-119810000D01*
X169560000Y-119800000D02*
X169610000Y-119810000D01*
X169520000Y-119790000D02*
X169560000Y-119800000D01*
X169480000Y-119780000D02*
X169520000Y-119790000D01*
X169460000Y-119770000D02*
X169480000Y-119780000D01*
X169420000Y-119750000D02*
X169460000Y-119770000D01*
X169380000Y-119730000D02*
X169420000Y-119750000D01*
X169350000Y-119700000D02*
X169380000Y-119730000D01*
X169330000Y-119690000D02*
X169350000Y-119700000D01*
X169300000Y-119660000D02*
X169330000Y-119690000D01*
X169280000Y-119620000D02*
X169300000Y-119660000D01*
X169250000Y-119590000D02*
X169280000Y-119620000D01*
X169240000Y-119570000D02*
X169250000Y-119590000D01*
X169230000Y-119530000D02*
X169240000Y-119570000D01*
X169210000Y-119490000D02*
X169230000Y-119530000D01*
X169210000Y-119460000D02*
X169210000Y-119490000D01*
X169200000Y-119420000D02*
X169210000Y-119460000D01*
X169200000Y-119380000D02*
X169200000Y-119420000D01*
X169200000Y-81180000D02*
X169200000Y-81840000D01*
X169210000Y-81130000D02*
X169200000Y-81180000D01*
X169210000Y-81110000D02*
X169210000Y-81130000D01*
X169220000Y-81070000D02*
X169210000Y-81110000D01*
X169230000Y-81050000D02*
X169220000Y-81070000D01*
X169250000Y-81010000D02*
X169230000Y-81050000D01*
X169270000Y-80970000D02*
X169250000Y-81010000D01*
X169290000Y-80940000D02*
X169270000Y-80970000D01*
X169310000Y-80920000D02*
X169290000Y-80940000D01*
X169340000Y-80890000D02*
X169310000Y-80920000D01*
X169370000Y-80860000D02*
X169340000Y-80890000D01*
X169410000Y-80840000D02*
X169370000Y-80860000D01*
X169420000Y-80820000D02*
X169410000Y-80840000D01*
X169460000Y-80810000D02*
X169420000Y-80820000D01*
X169480000Y-80800000D02*
X169460000Y-80810000D01*
X169520000Y-80780000D02*
X169480000Y-80800000D01*
X169570000Y-80780000D02*
X169520000Y-80780000D01*
X169610000Y-80770000D02*
X169570000Y-80780000D01*
X169630000Y-80770000D02*
X169610000Y-80770000D01*
X171790000Y-80770000D02*
X169630000Y-80770000D01*
X171810000Y-80770000D02*
X171790000Y-80770000D01*
X171860000Y-80780000D02*
X171810000Y-80770000D01*
X171880000Y-80780000D02*
X171860000Y-80780000D01*
X171920000Y-80800000D02*
X171880000Y-80780000D01*
X171940000Y-80810000D02*
X171920000Y-80800000D01*
X171980000Y-80830000D02*
X171940000Y-80810000D01*
X172000000Y-80840000D02*
X171980000Y-80830000D01*
X172030000Y-80860000D02*
X172000000Y-80840000D01*
X172050000Y-80880000D02*
X172030000Y-80860000D01*
X172060000Y-80890000D02*
X172050000Y-80880000D01*
X172090000Y-80920000D02*
X172060000Y-80890000D01*
X172120000Y-80960000D02*
X172090000Y-80920000D01*
X172130000Y-80970000D02*
X172120000Y-80960000D01*
X172140000Y-80990000D02*
X172130000Y-80970000D01*
X172160000Y-81030000D02*
X172140000Y-80990000D01*
X172170000Y-81050000D02*
X172160000Y-81030000D01*
X172180000Y-81090000D02*
X172170000Y-81050000D01*
X172190000Y-81140000D02*
X172180000Y-81090000D01*
X172200000Y-81200000D02*
X172190000Y-81140000D01*
X172200000Y-81860000D02*
X172200000Y-81200000D01*
X172190000Y-81910000D02*
X172200000Y-81860000D01*
X172180000Y-81950000D02*
X172190000Y-81910000D01*
X172170000Y-81990000D02*
X172180000Y-81950000D01*
X172150000Y-82030000D02*
X172170000Y-81990000D01*
X172140000Y-82050000D02*
X172150000Y-82030000D01*
X172130000Y-82070000D02*
X172140000Y-82050000D01*
X172110000Y-82100000D02*
X172130000Y-82070000D01*
X172090000Y-82120000D02*
X172110000Y-82100000D01*
X172060000Y-82150000D02*
X172090000Y-82120000D01*
X172030000Y-82180000D02*
X172060000Y-82150000D01*
X171990000Y-82200000D02*
X172030000Y-82180000D01*
X171970000Y-82210000D02*
X171990000Y-82200000D01*
X171930000Y-82230000D02*
X171970000Y-82210000D01*
X171910000Y-82240000D02*
X171930000Y-82230000D01*
X171870000Y-82250000D02*
X171910000Y-82240000D01*
X171830000Y-82260000D02*
X171870000Y-82250000D01*
X171770000Y-82270000D02*
X171830000Y-82260000D01*
X169610000Y-82270000D02*
X171770000Y-82270000D01*
X169560000Y-82260000D02*
X169610000Y-82270000D01*
X169520000Y-82250000D02*
X169560000Y-82260000D01*
X169480000Y-82240000D02*
X169520000Y-82250000D01*
X169460000Y-82230000D02*
X169480000Y-82240000D01*
X169420000Y-82210000D02*
X169460000Y-82230000D01*
X169380000Y-82190000D02*
X169420000Y-82210000D01*
X169350000Y-82160000D02*
X169380000Y-82190000D01*
X169330000Y-82150000D02*
X169350000Y-82160000D01*
X169300000Y-82120000D02*
X169330000Y-82150000D01*
X169280000Y-82080000D02*
X169300000Y-82120000D01*
X169250000Y-82040000D02*
X169280000Y-82080000D01*
X169240000Y-82030000D02*
X169250000Y-82040000D01*
X169230000Y-81990000D02*
X169240000Y-82030000D01*
X169210000Y-81940000D02*
X169230000Y-81990000D01*
X169210000Y-81920000D02*
X169210000Y-81940000D01*
X169200000Y-81880000D02*
X169210000Y-81920000D01*
X169200000Y-81840000D02*
X169200000Y-81880000D01*
X169230000Y-106250000D02*
X169230000Y-106910000D01*
X169230000Y-106200000D02*
X169230000Y-106250000D01*
X169240000Y-106180000D02*
X169230000Y-106200000D01*
X169250000Y-106140000D02*
X169240000Y-106180000D01*
X169250000Y-106120000D02*
X169250000Y-106140000D01*
X169270000Y-106080000D02*
X169250000Y-106120000D01*
X169290000Y-106040000D02*
X169270000Y-106080000D01*
X169320000Y-106010000D02*
X169290000Y-106040000D01*
X169330000Y-105990000D02*
X169320000Y-106010000D01*
X169360000Y-105960000D02*
X169330000Y-105990000D01*
X169400000Y-105930000D02*
X169360000Y-105960000D01*
X169430000Y-105910000D02*
X169400000Y-105930000D01*
X169450000Y-105890000D02*
X169430000Y-105910000D01*
X169490000Y-105880000D02*
X169450000Y-105890000D01*
X169510000Y-105870000D02*
X169490000Y-105880000D01*
X169550000Y-105850000D02*
X169510000Y-105870000D01*
X169590000Y-105850000D02*
X169550000Y-105850000D01*
X169610000Y-105840000D02*
X169590000Y-105850000D01*
X169660000Y-105840000D02*
X169610000Y-105840000D01*
X171820000Y-105840000D02*
X169660000Y-105840000D01*
X171840000Y-105840000D02*
X171820000Y-105840000D01*
X171880000Y-105850000D02*
X171840000Y-105840000D01*
X171900000Y-105850000D02*
X171880000Y-105850000D01*
X171940000Y-105870000D02*
X171900000Y-105850000D01*
X171960000Y-105880000D02*
X171940000Y-105870000D01*
X172000000Y-105900000D02*
X171960000Y-105880000D01*
X172020000Y-105910000D02*
X172000000Y-105900000D01*
X172060000Y-105930000D02*
X172020000Y-105910000D01*
X172070000Y-105950000D02*
X172060000Y-105930000D01*
X172090000Y-105960000D02*
X172070000Y-105950000D01*
X172120000Y-105990000D02*
X172090000Y-105960000D01*
X172150000Y-106030000D02*
X172120000Y-105990000D01*
X172160000Y-106040000D02*
X172150000Y-106030000D01*
X172170000Y-106060000D02*
X172160000Y-106040000D01*
X172190000Y-106100000D02*
X172170000Y-106060000D01*
X172200000Y-106120000D02*
X172190000Y-106100000D01*
X172210000Y-106160000D02*
X172200000Y-106120000D01*
X172220000Y-106210000D02*
X172210000Y-106160000D01*
X172220000Y-106250000D02*
X172220000Y-106210000D01*
X172220000Y-106270000D02*
X172220000Y-106250000D01*
X172220000Y-106930000D02*
X172220000Y-106270000D01*
X172220000Y-106970000D02*
X172220000Y-106930000D01*
X172210000Y-107020000D02*
X172220000Y-106970000D01*
X172190000Y-107060000D02*
X172210000Y-107020000D01*
X172180000Y-107100000D02*
X172190000Y-107060000D01*
X172170000Y-107120000D02*
X172180000Y-107100000D01*
X172160000Y-107140000D02*
X172170000Y-107120000D01*
X172130000Y-107170000D02*
X172160000Y-107140000D01*
X172120000Y-107190000D02*
X172130000Y-107170000D01*
X172090000Y-107220000D02*
X172120000Y-107190000D01*
X172050000Y-107250000D02*
X172090000Y-107220000D01*
X172020000Y-107270000D02*
X172050000Y-107250000D01*
X172000000Y-107280000D02*
X172020000Y-107270000D01*
X171960000Y-107300000D02*
X172000000Y-107280000D01*
X171940000Y-107310000D02*
X171960000Y-107300000D01*
X171900000Y-107320000D02*
X171940000Y-107310000D01*
X171860000Y-107330000D02*
X171900000Y-107320000D01*
X171790000Y-107340000D02*
X171860000Y-107330000D01*
X169630000Y-107340000D02*
X171790000Y-107340000D01*
X169590000Y-107330000D02*
X169630000Y-107340000D01*
X169550000Y-107320000D02*
X169590000Y-107330000D01*
X169510000Y-107310000D02*
X169550000Y-107320000D01*
X169490000Y-107300000D02*
X169510000Y-107310000D01*
X169450000Y-107280000D02*
X169490000Y-107300000D01*
X169410000Y-107260000D02*
X169450000Y-107280000D01*
X169380000Y-107230000D02*
X169410000Y-107260000D01*
X169360000Y-107220000D02*
X169380000Y-107230000D01*
X169330000Y-107190000D02*
X169360000Y-107220000D01*
X169300000Y-107150000D02*
X169330000Y-107190000D01*
X169280000Y-107110000D02*
X169300000Y-107150000D01*
X169270000Y-107100000D02*
X169280000Y-107110000D01*
X169250000Y-107060000D02*
X169270000Y-107100000D01*
X169240000Y-107010000D02*
X169250000Y-107060000D01*
X169230000Y-106970000D02*
X169240000Y-107010000D01*
X169230000Y-106930000D02*
X169230000Y-106970000D01*
X169230000Y-106910000D02*
X169230000Y-106930000D01*
X169230000Y-93720000D02*
X169230000Y-94380000D01*
X169230000Y-93680000D02*
X169230000Y-93720000D01*
X169240000Y-93660000D02*
X169230000Y-93680000D01*
X169250000Y-93620000D02*
X169240000Y-93660000D01*
X169250000Y-93600000D02*
X169250000Y-93620000D01*
X169270000Y-93560000D02*
X169250000Y-93600000D01*
X169290000Y-93520000D02*
X169270000Y-93560000D01*
X169320000Y-93480000D02*
X169290000Y-93520000D01*
X169330000Y-93470000D02*
X169320000Y-93480000D01*
X169360000Y-93440000D02*
X169330000Y-93470000D01*
X169400000Y-93410000D02*
X169360000Y-93440000D01*
X169430000Y-93380000D02*
X169400000Y-93410000D01*
X169450000Y-93370000D02*
X169430000Y-93380000D01*
X169490000Y-93350000D02*
X169450000Y-93370000D01*
X169510000Y-93340000D02*
X169490000Y-93350000D01*
X169550000Y-93330000D02*
X169510000Y-93340000D01*
X169590000Y-93320000D02*
X169550000Y-93330000D01*
X169640000Y-93320000D02*
X169590000Y-93320000D01*
X169660000Y-93320000D02*
X169640000Y-93320000D01*
X171820000Y-93320000D02*
X169660000Y-93320000D01*
X171840000Y-93320000D02*
X171820000Y-93320000D01*
X171880000Y-93330000D02*
X171840000Y-93320000D01*
X171900000Y-93330000D02*
X171880000Y-93330000D01*
X171940000Y-93350000D02*
X171900000Y-93330000D01*
X171960000Y-93350000D02*
X171940000Y-93350000D01*
X172000000Y-93370000D02*
X171960000Y-93350000D01*
X172020000Y-93380000D02*
X172000000Y-93370000D01*
X172060000Y-93410000D02*
X172020000Y-93380000D01*
X172070000Y-93420000D02*
X172060000Y-93410000D01*
X172090000Y-93440000D02*
X172070000Y-93420000D01*
X172120000Y-93470000D02*
X172090000Y-93440000D01*
X172150000Y-93500000D02*
X172120000Y-93470000D01*
X172160000Y-93520000D02*
X172150000Y-93500000D01*
X172170000Y-93540000D02*
X172160000Y-93520000D01*
X172190000Y-93580000D02*
X172170000Y-93540000D01*
X172200000Y-93600000D02*
X172190000Y-93580000D01*
X172210000Y-93640000D02*
X172200000Y-93600000D01*
X172220000Y-93680000D02*
X172210000Y-93640000D01*
X172220000Y-93730000D02*
X172220000Y-93680000D01*
X172220000Y-93750000D02*
X172220000Y-93730000D01*
X172220000Y-94410000D02*
X172220000Y-93750000D01*
X172220000Y-94450000D02*
X172220000Y-94410000D01*
X172210000Y-94500000D02*
X172220000Y-94450000D01*
X172190000Y-94540000D02*
X172210000Y-94500000D01*
X172180000Y-94580000D02*
X172190000Y-94540000D01*
X172170000Y-94600000D02*
X172180000Y-94580000D01*
X172160000Y-94610000D02*
X172170000Y-94600000D01*
X172130000Y-94650000D02*
X172160000Y-94610000D01*
X172120000Y-94670000D02*
X172130000Y-94650000D01*
X172090000Y-94700000D02*
X172120000Y-94670000D01*
X172050000Y-94730000D02*
X172090000Y-94700000D01*
X172020000Y-94750000D02*
X172050000Y-94730000D01*
X172000000Y-94760000D02*
X172020000Y-94750000D01*
X171960000Y-94780000D02*
X172000000Y-94760000D01*
X171940000Y-94790000D02*
X171960000Y-94780000D01*
X171900000Y-94800000D02*
X171940000Y-94790000D01*
X171860000Y-94810000D02*
X171900000Y-94800000D01*
X171810000Y-94810000D02*
X171860000Y-94810000D01*
X171790000Y-94820000D02*
X171810000Y-94810000D01*
X169630000Y-94810000D02*
X171790000Y-94820000D01*
X169590000Y-94810000D02*
X169630000Y-94810000D01*
X169550000Y-94800000D02*
X169590000Y-94810000D01*
X169510000Y-94790000D02*
X169550000Y-94800000D01*
X169490000Y-94780000D02*
X169510000Y-94790000D01*
X169450000Y-94760000D02*
X169490000Y-94780000D01*
X169410000Y-94740000D02*
X169450000Y-94760000D01*
X169380000Y-94710000D02*
X169410000Y-94740000D01*
X169360000Y-94700000D02*
X169380000Y-94710000D01*
X169330000Y-94660000D02*
X169360000Y-94700000D01*
X169300000Y-94630000D02*
X169330000Y-94660000D01*
X169280000Y-94590000D02*
X169300000Y-94630000D01*
X169270000Y-94570000D02*
X169280000Y-94590000D01*
X169250000Y-94530000D02*
X169270000Y-94570000D01*
X169240000Y-94490000D02*
X169250000Y-94530000D01*
X169230000Y-94450000D02*
X169240000Y-94490000D01*
X169230000Y-94410000D02*
X169230000Y-94450000D01*
X169230000Y-94380000D02*
X169230000Y-94410000D01*
X111270000Y-112780000D02*
X111260000Y-112740000D01*
X111270000Y-112820000D02*
X111270000Y-112780000D01*
X111280000Y-112860000D02*
X111270000Y-112820000D01*
X111290000Y-112900000D02*
X111280000Y-112860000D01*
X111300000Y-112940000D02*
X111290000Y-112900000D01*
X111310000Y-112980000D02*
X111300000Y-112940000D01*
X111330000Y-113020000D02*
X111310000Y-112980000D01*
X111350000Y-113060000D02*
X111330000Y-113020000D01*
X111360000Y-113090000D02*
X111350000Y-113060000D01*
X111390000Y-113130000D02*
X111360000Y-113090000D01*
X111410000Y-113160000D02*
X111390000Y-113130000D01*
X111430000Y-113200000D02*
X111410000Y-113160000D01*
X111460000Y-113230000D02*
X111430000Y-113200000D01*
X111490000Y-113260000D02*
X111460000Y-113230000D01*
X111520000Y-113290000D02*
X111490000Y-113260000D01*
X111550000Y-113320000D02*
X111520000Y-113290000D01*
X111580000Y-113340000D02*
X111550000Y-113320000D01*
X111610000Y-113370000D02*
X111580000Y-113340000D01*
X111650000Y-113390000D02*
X111610000Y-113370000D01*
X111680000Y-113410000D02*
X111650000Y-113390000D01*
X111720000Y-113430000D02*
X111680000Y-113410000D01*
X111750000Y-113450000D02*
X111720000Y-113430000D01*
X111790000Y-113460000D02*
X111750000Y-113450000D01*
X111830000Y-113470000D02*
X111790000Y-113460000D01*
X111870000Y-113490000D02*
X111830000Y-113470000D01*
X111910000Y-113490000D02*
X111870000Y-113490000D01*
X111950000Y-113500000D02*
X111910000Y-113490000D01*
X111990000Y-113510000D02*
X111950000Y-113500000D01*
X112030000Y-113510000D02*
X111990000Y-113510000D01*
X112080000Y-113510000D02*
X112030000Y-113510000D01*
X116340000Y-113510000D02*
X112080000Y-113510000D01*
X116330000Y-119880000D02*
X116340000Y-113510000D01*
X116330000Y-119990000D02*
X116330000Y-119880000D01*
X116330000Y-120050000D02*
X116330000Y-119990000D01*
X116340000Y-120100000D02*
X116330000Y-120050000D01*
X116340000Y-120150000D02*
X116340000Y-120100000D01*
X116360000Y-120210000D02*
X116340000Y-120150000D01*
X116370000Y-120260000D02*
X116360000Y-120210000D01*
X116380000Y-120310000D02*
X116370000Y-120260000D01*
X116400000Y-120360000D02*
X116380000Y-120310000D01*
X116420000Y-120410000D02*
X116400000Y-120360000D01*
X116450000Y-120460000D02*
X116420000Y-120410000D01*
X116470000Y-120510000D02*
X116450000Y-120460000D01*
X116500000Y-120550000D02*
X116470000Y-120510000D01*
X116530000Y-120600000D02*
X116500000Y-120550000D01*
X116560000Y-120640000D02*
X116530000Y-120600000D01*
X116600000Y-120680000D02*
X116560000Y-120640000D01*
X116640000Y-120720000D02*
X116600000Y-120680000D01*
X116680000Y-120760000D02*
X116640000Y-120720000D01*
X116720000Y-120800000D02*
X116680000Y-120760000D01*
X116760000Y-120830000D02*
X116720000Y-120800000D01*
X116800000Y-120860000D02*
X116760000Y-120830000D01*
X116850000Y-120890000D02*
X116800000Y-120860000D01*
X116900000Y-120920000D02*
X116850000Y-120890000D01*
X116940000Y-120940000D02*
X116900000Y-120920000D01*
X116990000Y-120960000D02*
X116940000Y-120940000D01*
X117050000Y-120980000D02*
X116990000Y-120960000D01*
X117100000Y-121000000D02*
X117050000Y-120980000D01*
X143830000Y-121000000D02*
X117100000Y-121000000D01*
X143830000Y-132260000D02*
X143830000Y-121000000D01*
X143830000Y-132280000D02*
X143830000Y-132260000D01*
X143830000Y-132310000D02*
X143830000Y-132280000D01*
X143830000Y-132350000D02*
X143830000Y-132310000D01*
X143840000Y-132380000D02*
X143830000Y-132350000D01*
X143850000Y-132430000D02*
X143840000Y-132380000D01*
X143870000Y-132470000D02*
X143850000Y-132430000D01*
X143880000Y-132500000D02*
X143870000Y-132470000D01*
X143910000Y-132540000D02*
X143880000Y-132500000D01*
X143930000Y-132560000D02*
X143910000Y-132540000D01*
X143960000Y-132600000D02*
X143930000Y-132560000D01*
X143990000Y-132630000D02*
X143960000Y-132600000D01*
X144010000Y-132650000D02*
X143990000Y-132630000D01*
X144050000Y-132680000D02*
X144010000Y-132650000D01*
X144070000Y-132690000D02*
X144050000Y-132680000D01*
X144120000Y-132720000D02*
X144070000Y-132690000D01*
X144140000Y-132730000D02*
X144120000Y-132720000D01*
X144190000Y-132740000D02*
X144140000Y-132730000D01*
X144230000Y-132750000D02*
X144190000Y-132740000D01*
X144260000Y-132760000D02*
X144230000Y-132750000D01*
X144280000Y-132760000D02*
X144260000Y-132760000D01*
X144330000Y-132760000D02*
X144280000Y-132760000D01*
X178290000Y-132760000D02*
X144330000Y-132760000D01*
X178320000Y-132770000D02*
X178290000Y-132760000D01*
X178340000Y-132770000D02*
X178320000Y-132770000D01*
X178390000Y-132760000D02*
X178340000Y-132770000D01*
X178420000Y-132760000D02*
X178390000Y-132760000D01*
X178470000Y-132750000D02*
X178420000Y-132760000D01*
X178520000Y-132740000D02*
X178470000Y-132750000D01*
X178560000Y-132720000D02*
X178520000Y-132740000D01*
X178610000Y-132690000D02*
X178560000Y-132720000D01*
X178630000Y-132680000D02*
X178610000Y-132690000D01*
X178650000Y-132670000D02*
X178630000Y-132680000D01*
X178690000Y-132630000D02*
X178650000Y-132670000D01*
X178710000Y-132620000D02*
X178690000Y-132630000D01*
X178740000Y-132580000D02*
X178710000Y-132620000D01*
X178770000Y-132540000D02*
X178740000Y-132580000D01*
X178800000Y-132500000D02*
X178770000Y-132540000D01*
X178810000Y-132470000D02*
X178800000Y-132500000D01*
X178820000Y-132450000D02*
X178810000Y-132470000D01*
X178830000Y-132400000D02*
X178820000Y-132450000D01*
X178840000Y-132380000D02*
X178830000Y-132400000D01*
X178850000Y-132330000D02*
X178840000Y-132380000D01*
X178860000Y-132280000D02*
X178850000Y-132330000D01*
X178850000Y-126360000D02*
X178860000Y-132280000D01*
X180830000Y-126380000D02*
X178850000Y-126360000D01*
X180890000Y-126380000D02*
X180830000Y-126380000D01*
X180910000Y-126380000D02*
X180890000Y-126380000D01*
X180960000Y-126370000D02*
X180910000Y-126380000D01*
X181010000Y-126350000D02*
X180960000Y-126370000D01*
X181040000Y-126340000D02*
X181010000Y-126350000D01*
X181080000Y-126320000D02*
X181040000Y-126340000D01*
X181110000Y-126310000D02*
X181080000Y-126320000D01*
X181150000Y-126280000D02*
X181110000Y-126310000D01*
X181190000Y-126240000D02*
X181150000Y-126280000D01*
X181210000Y-126230000D02*
X181190000Y-126240000D01*
X181240000Y-126190000D02*
X181210000Y-126230000D01*
X181260000Y-126170000D02*
X181240000Y-126190000D01*
X181290000Y-126120000D02*
X181260000Y-126170000D01*
X181310000Y-126080000D02*
X181290000Y-126120000D01*
X181320000Y-126050000D02*
X181310000Y-126080000D01*
X181340000Y-126000000D02*
X181320000Y-126050000D01*
X181350000Y-125980000D02*
X181340000Y-126000000D01*
X181350000Y-125930000D02*
X181350000Y-125980000D01*
X181360000Y-125900000D02*
X181350000Y-125930000D01*
X181360000Y-125850000D02*
X181360000Y-125900000D01*
X181360000Y-125820000D02*
X181360000Y-125850000D01*
X181420000Y-113430000D02*
X181360000Y-125820000D01*
X185740000Y-113430000D02*
X181420000Y-113430000D01*
X185770000Y-113430000D02*
X185740000Y-113430000D01*
X185810000Y-113430000D02*
X185770000Y-113430000D01*
X185880000Y-113420000D02*
X185810000Y-113430000D01*
X185920000Y-113410000D02*
X185880000Y-113420000D01*
X185990000Y-113390000D02*
X185920000Y-113410000D01*
X186060000Y-113360000D02*
X185990000Y-113390000D01*
X186090000Y-113340000D02*
X186060000Y-113360000D01*
X186160000Y-113300000D02*
X186090000Y-113340000D01*
X186190000Y-113280000D02*
X186160000Y-113300000D01*
X186240000Y-113230000D02*
X186190000Y-113280000D01*
X186300000Y-113180000D02*
X186240000Y-113230000D01*
X186320000Y-113150000D02*
X186300000Y-113180000D01*
X186360000Y-113090000D02*
X186320000Y-113150000D01*
X186400000Y-113020000D02*
X186360000Y-113090000D01*
X186410000Y-112990000D02*
X186400000Y-113020000D01*
X186440000Y-112920000D02*
X186410000Y-112990000D01*
X186460000Y-112850000D02*
X186440000Y-112920000D01*
X186460000Y-112810000D02*
X186460000Y-112850000D01*
X186470000Y-112730000D02*
X186460000Y-112810000D01*
X186470000Y-112700000D02*
X186470000Y-112730000D01*
X186470000Y-101650000D02*
X186470000Y-112700000D01*
X185530000Y-100940000D02*
X186470000Y-101650000D01*
X185530000Y-87830000D02*
X185530000Y-100940000D01*
X186500000Y-87120000D02*
X185530000Y-87830000D01*
X186490000Y-78150000D02*
X186500000Y-87120000D01*
X186490000Y-78050000D02*
X186490000Y-78150000D01*
X186480000Y-77950000D02*
X186490000Y-78050000D01*
X186470000Y-77860000D02*
X186480000Y-77950000D01*
X186450000Y-77760000D02*
X186470000Y-77860000D01*
X186430000Y-77660000D02*
X186450000Y-77760000D01*
X186400000Y-77560000D02*
X186430000Y-77660000D01*
X186370000Y-77470000D02*
X186400000Y-77560000D01*
X186330000Y-77380000D02*
X186370000Y-77470000D01*
X186290000Y-77290000D02*
X186330000Y-77380000D01*
X186250000Y-77200000D02*
X186290000Y-77290000D01*
X186200000Y-77110000D02*
X186250000Y-77200000D01*
X186140000Y-77030000D02*
X186200000Y-77110000D01*
X186090000Y-76950000D02*
X186140000Y-77030000D01*
X186020000Y-76870000D02*
X186090000Y-76950000D01*
X185960000Y-76790000D02*
X186020000Y-76870000D01*
X185890000Y-76720000D02*
X185960000Y-76790000D01*
X185820000Y-76660000D02*
X185890000Y-76720000D01*
X185740000Y-76590000D02*
X185820000Y-76660000D01*
X185660000Y-76530000D02*
X185740000Y-76590000D01*
X185580000Y-76470000D02*
X185660000Y-76530000D01*
X185490000Y-76420000D02*
X185580000Y-76470000D01*
X185410000Y-76370000D02*
X185490000Y-76420000D01*
X184720000Y-76380000D02*
X185410000Y-76370000D01*
X178830000Y-76380000D02*
X184720000Y-76380000D01*
X178830000Y-70000000D02*
X178830000Y-76380000D01*
X178830000Y-69900000D02*
X178830000Y-70000000D01*
X178830000Y-69800000D02*
X178830000Y-69900000D01*
X178810000Y-69700000D02*
X178830000Y-69800000D01*
X178800000Y-69610000D02*
X178810000Y-69700000D01*
X178770000Y-69510000D02*
X178800000Y-69610000D01*
X178750000Y-69410000D02*
X178770000Y-69510000D01*
X178720000Y-69320000D02*
X178750000Y-69410000D01*
X178680000Y-69230000D02*
X178720000Y-69320000D01*
X178640000Y-69140000D02*
X178680000Y-69230000D01*
X178600000Y-69050000D02*
X178640000Y-69140000D01*
X178550000Y-68960000D02*
X178600000Y-69050000D01*
X178490000Y-68880000D02*
X178550000Y-68960000D01*
X178440000Y-68800000D02*
X178490000Y-68880000D01*
X178380000Y-68720000D02*
X178440000Y-68800000D01*
X178310000Y-68650000D02*
X178380000Y-68720000D01*
X178240000Y-68580000D02*
X178310000Y-68650000D01*
X178170000Y-68510000D02*
X178240000Y-68580000D01*
X178100000Y-68450000D02*
X178170000Y-68510000D01*
X178020000Y-68390000D02*
X178100000Y-68450000D01*
X177940000Y-68330000D02*
X178020000Y-68390000D01*
X177850000Y-68280000D02*
X177940000Y-68330000D01*
X177770000Y-68230000D02*
X177850000Y-68280000D01*
X177680000Y-68180000D02*
X177770000Y-68230000D01*
X176830000Y-68000000D02*
X177680000Y-68180000D01*
X120830000Y-68000000D02*
X176830000Y-68000000D01*
X120730000Y-68000000D02*
X120830000Y-68000000D01*
X120630000Y-68010000D02*
X120730000Y-68000000D01*
X120530000Y-68020000D02*
X120630000Y-68010000D01*
X120440000Y-68040000D02*
X120530000Y-68020000D01*
X120340000Y-68060000D02*
X120440000Y-68040000D01*
X120240000Y-68090000D02*
X120340000Y-68060000D01*
X120150000Y-68120000D02*
X120240000Y-68090000D01*
X120050000Y-68160000D02*
X120150000Y-68120000D01*
X119960000Y-68200000D02*
X120050000Y-68160000D01*
X119870000Y-68240000D02*
X119960000Y-68200000D01*
X119780000Y-68300000D02*
X119870000Y-68240000D01*
X119700000Y-68350000D02*
X119780000Y-68300000D01*
X119620000Y-68410000D02*
X119700000Y-68350000D01*
X119540000Y-68470000D02*
X119620000Y-68410000D01*
X119470000Y-68540000D02*
X119540000Y-68470000D01*
X119390000Y-68610000D02*
X119470000Y-68540000D01*
X119330000Y-68680000D02*
X119390000Y-68610000D01*
X119260000Y-68760000D02*
X119330000Y-68680000D01*
X119200000Y-68840000D02*
X119260000Y-68760000D01*
X119150000Y-68920000D02*
X119200000Y-68840000D01*
X119090000Y-69010000D02*
X119150000Y-68920000D01*
X119050000Y-69100000D02*
X119090000Y-69010000D01*
X118830000Y-70000000D02*
X119050000Y-69100000D01*
X118830000Y-76380000D02*
X118830000Y-70000000D01*
X112360000Y-76380000D02*
X118830000Y-76380000D01*
X112260000Y-76420000D02*
X112360000Y-76380000D01*
X112170000Y-76480000D02*
X112260000Y-76420000D01*
X112080000Y-76530000D02*
X112170000Y-76480000D01*
X111990000Y-76600000D02*
X112080000Y-76530000D01*
X111910000Y-76660000D02*
X111990000Y-76600000D01*
X111830000Y-76730000D02*
X111910000Y-76660000D01*
X111760000Y-76810000D02*
X111830000Y-76730000D01*
X111690000Y-76890000D02*
X111760000Y-76810000D01*
X111620000Y-76970000D02*
X111690000Y-76890000D01*
X111560000Y-77060000D02*
X111620000Y-76970000D01*
X111510000Y-77150000D02*
X111560000Y-77060000D01*
X111450000Y-77240000D02*
X111510000Y-77150000D01*
X111410000Y-77330000D02*
X111450000Y-77240000D01*
X111360000Y-77430000D02*
X111410000Y-77330000D01*
X111330000Y-77530000D02*
X111360000Y-77430000D01*
X111300000Y-77630000D02*
X111330000Y-77530000D01*
X111270000Y-77730000D02*
X111300000Y-77630000D01*
X111250000Y-77840000D02*
X111270000Y-77730000D01*
X111230000Y-77940000D02*
X111250000Y-77840000D01*
X111220000Y-78050000D02*
X111230000Y-77940000D01*
X111220000Y-78150000D02*
X111220000Y-78050000D01*
X111210000Y-87090000D02*
X111220000Y-78150000D01*
X112180000Y-87810000D02*
X111210000Y-87090000D01*
X112180000Y-100990000D02*
X112180000Y-87810000D01*
X111260000Y-101720000D02*
X112180000Y-100990000D01*
X111260000Y-112700000D02*
X111260000Y-101720000D01*
X111260000Y-112740000D02*
X111260000Y-112700000D01*
M02*
