%TF.GenerationSoftware,KiCad,Pcbnew,(6.0.2)*%
%TF.CreationDate,2022-05-27T20:06:33-04:00*%
%TF.ProjectId,top,746f702e-6b69-4636-9164-5f7063625858,rev?*%
%TF.SameCoordinates,Original*%
%TF.FileFunction,Other,User*%
%FSLAX46Y46*%
G04 Gerber Fmt 4.6, Leading zero omitted, Abs format (unit mm)*
G04 Created by KiCad (PCBNEW (6.0.2)) date 2022-05-27 20:06:33*
%MOMM*%
%LPD*%
G01*
G04 APERTURE LIST*
%ADD10C,0.050000*%
G04 APERTURE END LIST*
D10*
%TO.C,J20*%
X163486740Y-123772000D02*
G75*
G03*
X163486740Y-123772000I-1500000J0D01*
G01*
%TO.C,J18*%
X130542940Y-73759400D02*
G75*
G03*
X130542940Y-73759400I-1500000J0D01*
G01*
%TO.C,J15*%
X130452400Y-111300600D02*
G75*
G03*
X130452400Y-111300600I-1500000J0D01*
G01*
%TO.C,J12*%
X174484940Y-86281600D02*
G75*
G03*
X174484940Y-86281600I-1500000J0D01*
G01*
%TO.C,J28*%
X152513940Y-86281600D02*
G75*
G03*
X152513940Y-86281600I-1500000J0D01*
G01*
%TO.C,J8*%
X174484940Y-98791100D02*
G75*
G03*
X174484940Y-98791100I-1500000J0D01*
G01*
%TO.C,J7*%
X152640940Y-73835600D02*
G75*
G03*
X152640940Y-73835600I-1500000J0D01*
G01*
%TO.C,J4*%
X152552400Y-111300600D02*
G75*
G03*
X152552400Y-111300600I-1500000J0D01*
G01*
%TO.C,J13*%
X163507060Y-86281600D02*
G75*
G03*
X163507060Y-86281600I-1500000J0D01*
G01*
%TO.C,J9*%
X163512140Y-98778400D02*
G75*
G03*
X163512140Y-98778400I-1500000J0D01*
G01*
%TO.C,J29*%
X181752400Y-113100000D02*
X185352400Y-113100000D01*
X185352400Y-76500000D02*
X181752400Y-76500000D01*
X181752400Y-76500000D02*
X181752400Y-113100000D01*
X185352400Y-113100000D02*
X185352400Y-76500000D01*
%TO.C,J21*%
X152513940Y-123746600D02*
G75*
G03*
X152513940Y-123746600I-1500000J0D01*
G01*
%TO.C,J24*%
X130517540Y-86256200D02*
G75*
G03*
X130517540Y-86256200I-1500000J0D01*
G01*
%TO.C,J14*%
X141515740Y-86256200D02*
G75*
G03*
X141515740Y-86256200I-1500000J0D01*
G01*
%TO.C,J10*%
X152513940Y-98727600D02*
G75*
G03*
X152513940Y-98727600I-1500000J0D01*
G01*
%TO.C,J19*%
X174510340Y-123772000D02*
G75*
G03*
X174510340Y-123772000I-1500000J0D01*
G01*
%TO.C,J22*%
X141490340Y-111275200D02*
G75*
G03*
X141490340Y-111275200I-1500000J0D01*
G01*
%TO.C,J30*%
X116152400Y-76500000D02*
X112552400Y-76500000D01*
X112552400Y-113100000D02*
X116152400Y-113100000D01*
X112552400Y-76500000D02*
X112552400Y-113100000D01*
X116152400Y-113100000D02*
X116152400Y-76500000D01*
%TO.C,J23*%
X130492140Y-98778400D02*
G75*
G03*
X130492140Y-98778400I-1500000J0D01*
G01*
%TO.C,J16*%
X163486740Y-73734000D02*
G75*
G03*
X163486740Y-73734000I-1500000J0D01*
G01*
%TO.C,J11*%
X141490340Y-98778400D02*
G75*
G03*
X141490340Y-98778400I-1500000J0D01*
G01*
%TO.C,J6*%
X174510340Y-111249800D02*
G75*
G03*
X174510340Y-111249800I-1500000J0D01*
G01*
%TO.C,J25*%
X141490340Y-73759400D02*
G75*
G03*
X141490340Y-73759400I-1500000J0D01*
G01*
%TO.C,J5*%
X163512140Y-111275200D02*
G75*
G03*
X163512140Y-111275200I-1500000J0D01*
G01*
%TO.C,J17*%
X174510340Y-73759400D02*
G75*
G03*
X174510340Y-73759400I-1500000J0D01*
G01*
%TD*%
M02*
