%TF.GenerationSoftware,KiCad,Pcbnew,(5.1.10)-1*%
%TF.CreationDate,2022-01-16T13:18:33-05:00*%
%TF.ProjectId,top,746f702e-6b69-4636-9164-5f7063625858,rev?*%
%TF.SameCoordinates,Original*%
%TF.FileFunction,Legend,Bot*%
%TF.FilePolarity,Positive*%
%FSLAX46Y46*%
G04 Gerber Fmt 4.6, Leading zero omitted, Abs format (unit mm)*
G04 Created by KiCad (PCBNEW (5.1.10)-1) date 2022-01-16 13:18:33*
%MOMM*%
%LPD*%
G01*
G04 APERTURE LIST*
%ADD10C,0.300000*%
G04 APERTURE END LIST*
D10*
X157702971Y-96781428D02*
X157702971Y-95710000D01*
X157774400Y-95495714D01*
X157917257Y-95352857D01*
X158131542Y-95281428D01*
X158274400Y-95281428D01*
X156274400Y-95281428D02*
X156988685Y-95281428D01*
X156988685Y-96781428D01*
X154917257Y-95424285D02*
X154988685Y-95352857D01*
X155202971Y-95281428D01*
X155345828Y-95281428D01*
X155560114Y-95352857D01*
X155702971Y-95495714D01*
X155774400Y-95638571D01*
X155845828Y-95924285D01*
X155845828Y-96138571D01*
X155774400Y-96424285D01*
X155702971Y-96567142D01*
X155560114Y-96710000D01*
X155345828Y-96781428D01*
X155202971Y-96781428D01*
X154988685Y-96710000D01*
X154917257Y-96638571D01*
X153845828Y-96781428D02*
X153845828Y-95710000D01*
X153917257Y-95495714D01*
X154060114Y-95352857D01*
X154274400Y-95281428D01*
X154417257Y-95281428D01*
X152417257Y-95281428D02*
X153131542Y-95281428D01*
X153131542Y-96781428D01*
X151060114Y-95424285D02*
X151131542Y-95352857D01*
X151345828Y-95281428D01*
X151488685Y-95281428D01*
X151702971Y-95352857D01*
X151845828Y-95495714D01*
X151917257Y-95638571D01*
X151988685Y-95924285D01*
X151988685Y-96138571D01*
X151917257Y-96424285D01*
X151845828Y-96567142D01*
X151702971Y-96710000D01*
X151488685Y-96781428D01*
X151345828Y-96781428D01*
X151131542Y-96710000D01*
X151060114Y-96638571D01*
X149988685Y-96781428D02*
X149988685Y-95710000D01*
X150060114Y-95495714D01*
X150202971Y-95352857D01*
X150417257Y-95281428D01*
X150560114Y-95281428D01*
X148560114Y-95281428D02*
X149274400Y-95281428D01*
X149274400Y-96781428D01*
X147202971Y-95424285D02*
X147274400Y-95352857D01*
X147488685Y-95281428D01*
X147631542Y-95281428D01*
X147845828Y-95352857D01*
X147988685Y-95495714D01*
X148060114Y-95638571D01*
X148131542Y-95924285D01*
X148131542Y-96138571D01*
X148060114Y-96424285D01*
X147988685Y-96567142D01*
X147845828Y-96710000D01*
X147631542Y-96781428D01*
X147488685Y-96781428D01*
X147274400Y-96710000D01*
X147202971Y-96638571D01*
X146131542Y-96781428D02*
X146131542Y-95710000D01*
X146202971Y-95495714D01*
X146345828Y-95352857D01*
X146560114Y-95281428D01*
X146702971Y-95281428D01*
X144702971Y-95281428D02*
X145417257Y-95281428D01*
X145417257Y-96781428D01*
X143345828Y-95424285D02*
X143417257Y-95352857D01*
X143631542Y-95281428D01*
X143774400Y-95281428D01*
X143988685Y-95352857D01*
X144131542Y-95495714D01*
X144202971Y-95638571D01*
X144274400Y-95924285D01*
X144274400Y-96138571D01*
X144202971Y-96424285D01*
X144131542Y-96567142D01*
X143988685Y-96710000D01*
X143774400Y-96781428D01*
X143631542Y-96781428D01*
X143417257Y-96710000D01*
X143345828Y-96638571D01*
M02*
