%TF.GenerationSoftware,KiCad,Pcbnew,(6.0.2)*%
%TF.CreationDate,2022-02-23T01:13:46-05:00*%
%TF.ProjectId,top,746f702e-6b69-4636-9164-5f7063625858,rev?*%
%TF.SameCoordinates,Original*%
%TF.FileFunction,Copper,L1,Top*%
%TF.FilePolarity,Positive*%
%FSLAX46Y46*%
G04 Gerber Fmt 4.6, Leading zero omitted, Abs format (unit mm)*
G04 Created by KiCad (PCBNEW (6.0.2)) date 2022-02-23 01:13:46*
%MOMM*%
%LPD*%
G01*
G04 APERTURE LIST*
%TA.AperFunction,ComponentPad*%
%ADD10C,2.000000*%
%TD*%
%TA.AperFunction,ComponentPad*%
%ADD11R,1.700000X1.700000*%
%TD*%
%TA.AperFunction,ComponentPad*%
%ADD12O,1.700000X1.700000*%
%TD*%
%TA.AperFunction,Conductor*%
%ADD13C,0.250000*%
%TD*%
G04 APERTURE END LIST*
D10*
%TO.P,J16,1,Pin_1*%
%TO.N,Board_0-/top/GPIO_14*%
X161986740Y-73734000D03*
%TD*%
D11*
%TO.P,J29,1,Pin_1*%
%TO.N,Board_0-/top/GPIO_12*%
X114310940Y-91107600D03*
D12*
%TO.P,J29,2,Pin_2*%
%TO.N,Board_0-/top/GPIO_PLAY*%
X114310940Y-93647600D03*
%TO.P,J29,3,Pin_3*%
%TO.N,Board_0-/top/GPIO_7*%
X114310940Y-96187600D03*
%TO.P,J29,4,Pin_4*%
%TO.N,Board_0-/top/GPIO_8*%
X114310940Y-98727600D03*
%TD*%
D10*
%TO.P,J12,1,Pin_1*%
%TO.N,Board_0-/top/GPIO_9*%
X172984940Y-86281600D03*
%TD*%
%TO.P,J23,1,Pin_1*%
%TO.N,Board_0-/top/GPIO_FX*%
X128992140Y-98778400D03*
%TD*%
%TO.P,J18,1,Pin_1*%
%TO.N,Board_0-/top/GPIO_WRITE*%
X129042940Y-73759400D03*
%TD*%
%TO.P,J17,1,Pin_1*%
%TO.N,Board_0-/top/GPIO_13*%
X173010340Y-73759400D03*
%TD*%
D11*
%TO.P,J27,1,Pin_1*%
%TO.N,Board_0-/GND_1*%
X183551340Y-91107600D03*
D12*
%TO.P,J27,2,Pin_2*%
%TO.N,Board_0-/top/GPIO_6*%
X183551340Y-93647600D03*
%TO.P,J27,3,Pin_3*%
%TO.N,Board_0-/top/GPIO_5*%
X183551340Y-96187600D03*
%TO.P,J27,4,Pin_4*%
%TO.N,Board_0-/top/GPIO_2*%
X183551340Y-98727600D03*
%TD*%
D11*
%TO.P,J32,1,Pin_1*%
%TO.N,Board_0-/top/GPIO_14*%
X114336340Y-78280600D03*
D12*
%TO.P,J32,2,Pin_2*%
%TO.N,Board_0-/top/GPIO_15*%
X114336340Y-80820600D03*
%TO.P,J32,3,Pin_3*%
%TO.N,Board_0-/top/GPIO_WRITE*%
X114336340Y-83360600D03*
%TO.P,J32,4,Pin_4*%
%TO.N,Board_0-/top/GPIO_16*%
X114336340Y-85900600D03*
%TD*%
D10*
%TO.P,J5,1,Pin_1*%
%TO.N,Board_0-/top/GPIO_2*%
X162012140Y-111275200D03*
%TD*%
%TO.P,J7,1,Pin_1*%
%TO.N,Board_0-/top/GPIO_15*%
X151140940Y-73835600D03*
%TD*%
D11*
%TO.P,J30,1,Pin_1*%
%TO.N,Board_0-/top/GPIO_13*%
X183551340Y-78331400D03*
D12*
%TO.P,J30,2,Pin_2*%
%TO.N,Board_0-/top/GPIO_9*%
X183551340Y-80871400D03*
%TO.P,J30,3,Pin_3*%
%TO.N,Board_0-/top/GPIO_10*%
X183551340Y-83411400D03*
%TO.P,J30,4,Pin_4*%
%TO.N,Board_0-/top/GPIO_11*%
X183551340Y-85951400D03*
%TD*%
D10*
%TO.P,J9,1,Pin_1*%
%TO.N,Board_0-/top/GPIO_6*%
X162012140Y-98778400D03*
%TD*%
%TO.P,J8,1,Pin_1*%
%TO.N,Board_0-/top/GPIO_5*%
X172984940Y-98791100D03*
%TD*%
%TO.P,J25,1,Pin_1*%
%TO.N,Board_0-/top/GPIO_16*%
X139990340Y-73759400D03*
%TD*%
%TO.P,J20,1,Pin_1*%
%TO.N,Board_0-/top/GIPO_PATTERN*%
X161986740Y-123772000D03*
%TD*%
D11*
%TO.P,J26,1,Pin_1*%
%TO.N,Board_0-/top/GPIO_1*%
X183551340Y-102969400D03*
D12*
%TO.P,J26,2,Pin_2*%
%TO.N,Board_0-/top/GPIO_BPM*%
X183551340Y-105509400D03*
%TO.P,J26,3,Pin_3*%
%TO.N,Board_0-/top/GIPO_PATTERN*%
X183551340Y-108049400D03*
%TO.P,J26,4,Pin_4*%
%TO.N,Board_0-/top/GPIO_SOUND*%
X183551340Y-110589400D03*
%TD*%
D10*
%TO.P,J21,1,Pin_1*%
%TO.N,Board_0-/top/GPIO_BPM*%
X151013940Y-123746600D03*
%TD*%
D11*
%TO.P,J33,1,Pin_1*%
%TO.N,Board_0-/top/GPIO_FX*%
X114285540Y-102994800D03*
D12*
%TO.P,J33,2,Pin_2*%
%TO.N,Board_0-/top/GPIO_3*%
X114285540Y-105534800D03*
%TO.P,J33,3,Pin_3*%
%TO.N,Board_0-/top/GPIO_4*%
X114285540Y-108074800D03*
%TO.P,J33,4,Pin_4*%
%TO.N,Board_0-/top/GPIO_SPECIAL*%
X114285540Y-110614800D03*
%TD*%
D10*
%TO.P,J10,1,Pin_1*%
%TO.N,Board_0-/top/GPIO_7*%
X151013940Y-98727600D03*
%TD*%
%TO.P,J11,1,Pin_1*%
%TO.N,Board_0-/top/GPIO_8*%
X139990340Y-98778400D03*
%TD*%
%TO.P,J28,1,Pin_1*%
%TO.N,Board_0-/top/GPIO_11*%
X151013940Y-86281600D03*
%TD*%
%TO.P,J15,1,Pin_1*%
%TO.N,Board_0-/top/GPIO_SPECIAL*%
X128988000Y-111300600D03*
%TD*%
%TO.P,J22,1,Pin_1*%
%TO.N,Board_0-/top/GPIO_4*%
X139990340Y-111275200D03*
%TD*%
%TO.P,J14,1,Pin_1*%
%TO.N,Board_0-/top/GPIO_12*%
X140015740Y-86256200D03*
%TD*%
%TO.P,J13,1,Pin_1*%
%TO.N,Board_0-/top/GPIO_10*%
X162007060Y-86281600D03*
%TD*%
%TO.P,J19,1,Pin_1*%
%TO.N,Board_0-/top/GPIO_SOUND*%
X173010340Y-123772000D03*
%TD*%
%TO.P,J24,1,Pin_1*%
%TO.N,Board_0-/top/GPIO_PLAY*%
X129017540Y-86256200D03*
%TD*%
%TO.P,J6,1,Pin_1*%
%TO.N,Board_0-/top/GPIO_1*%
X173010340Y-111249800D03*
%TD*%
%TO.P,J4,1,Pin_1*%
%TO.N,Board_0-/top/GPIO_3*%
X151012400Y-111300600D03*
%TD*%
D13*
%TO.N,Board_0-/top/GIPO_PATTERN*%
X181519340Y-108049400D02*
X183881540Y-108049400D01*
X176413940Y-116231603D02*
X176413940Y-113154800D01*
X176413940Y-113154800D02*
X181519340Y-108049400D01*
X161986740Y-123772000D02*
X168873543Y-123772000D01*
X168873543Y-123772000D02*
X176413940Y-116231603D01*
%TO.N,Board_0-/top/GPIO_1*%
X173010340Y-111249800D02*
X181290740Y-102969400D01*
X181290740Y-102969400D02*
X183551340Y-102969400D01*
%TO.N,Board_0-/top/GPIO_10*%
X173627543Y-87821999D02*
X172026938Y-87821999D01*
X170486539Y-86281600D02*
X170264615Y-86281600D01*
X172026938Y-87821999D02*
X170486539Y-86281600D01*
X183779940Y-83386000D02*
X178090340Y-83386000D01*
X176083740Y-85392600D02*
X176056942Y-85392600D01*
X176056942Y-85392600D02*
X173627543Y-87821999D01*
X178090340Y-83386000D02*
X176083740Y-85392600D01*
X170264615Y-86281600D02*
X162007060Y-86281600D01*
%TO.N,Board_0-/top/GPIO_11*%
X151013940Y-86281600D02*
X153982340Y-89250000D01*
X180252740Y-89250000D02*
X183551340Y-85951400D01*
X153982340Y-89250000D02*
X180252740Y-89250000D01*
%TO.N,Board_0-/top/GPIO_12*%
X115055340Y-91107600D02*
X114310940Y-91107600D01*
X137609540Y-83850000D02*
X122312940Y-83850000D01*
X140015740Y-86256200D02*
X137609540Y-83850000D01*
X122312940Y-83850000D02*
X115055340Y-91107600D01*
%TO.N,Board_0-/top/GPIO_13*%
X183076730Y-78806010D02*
X183551340Y-78331400D01*
X176642737Y-78806010D02*
X183076730Y-78806010D01*
X173010340Y-73759400D02*
X173010340Y-75173613D01*
X173010340Y-75173613D02*
X176642737Y-78806010D01*
%TO.N,Board_0-/top/GPIO_14*%
X117605306Y-78280600D02*
X126723906Y-69162000D01*
X114336340Y-78280600D02*
X117605306Y-78280600D01*
X157414740Y-69162000D02*
X161986740Y-73734000D01*
X126723906Y-69162000D02*
X157414740Y-69162000D01*
%TO.N,Board_0-/top/GPIO_15*%
X116749340Y-80465000D02*
X126833140Y-70381200D01*
X147686540Y-70381200D02*
X151140940Y-73835600D01*
X116393740Y-80820600D02*
X116749340Y-80465000D01*
X114336340Y-80820600D02*
X116393740Y-80820600D01*
X126833140Y-70381200D02*
X147686540Y-70381200D01*
X116596940Y-80617400D02*
X116749340Y-80465000D01*
%TO.N,Board_0-/top/GPIO_16*%
X114336340Y-85900600D02*
X115834940Y-85900600D01*
X115834940Y-85900600D02*
X121422940Y-80312600D01*
X136637540Y-73759400D02*
X139990340Y-73759400D01*
X130084340Y-80312600D02*
X136637540Y-73759400D01*
X121422940Y-80312600D02*
X130084340Y-80312600D01*
%TO.N,Board_0-/top/GPIO_2*%
X180681140Y-101597800D02*
X183551340Y-98727600D01*
X173543740Y-104264800D02*
X173543740Y-103909200D01*
X173543740Y-103909200D02*
X173543740Y-102410600D01*
X162012140Y-111275200D02*
X169911540Y-111275200D01*
X169911540Y-111275200D02*
X173543740Y-107643000D01*
X173543740Y-107643000D02*
X173543740Y-103909200D01*
X174356540Y-101597800D02*
X180681140Y-101597800D01*
X173543740Y-102410600D02*
X174356540Y-101597800D01*
%TO.N,Board_0-/top/GPIO_3*%
X114285540Y-105534800D02*
X130537200Y-105534800D01*
X130537200Y-105534800D02*
X134052400Y-109050000D01*
X148761800Y-109050000D02*
X151012400Y-111300600D01*
X134052400Y-109050000D02*
X148761800Y-109050000D01*
%TO.N,Board_0-/top/GPIO_4*%
X114285540Y-108074800D02*
X115135539Y-108924799D01*
X115135539Y-108924799D02*
X129827199Y-108924799D01*
X132177600Y-111275200D02*
X139990340Y-111275200D01*
X129827199Y-108924799D02*
X132177600Y-111275200D01*
%TO.N,Board_0-/top/GPIO_5*%
X180947840Y-98791100D02*
X181086270Y-98652670D01*
X172984940Y-98791100D02*
X180947840Y-98791100D01*
X181086270Y-98652670D02*
X183551340Y-96187600D01*
%TO.N,Board_0-/top/GPIO_6*%
X163486301Y-97316099D02*
X164452400Y-96350000D01*
X163474441Y-97316099D02*
X163486301Y-97316099D01*
X164452400Y-96350000D02*
X180848940Y-96350000D01*
X180848940Y-96350000D02*
X183551340Y-93647600D01*
X162012140Y-98778400D02*
X163474441Y-97316099D01*
%TO.N,Board_0-/top/GPIO_7*%
X148473940Y-96187600D02*
X114310940Y-96187600D01*
X151013940Y-98727600D02*
X148473940Y-96187600D01*
%TO.N,Board_0-/top/GPIO_8*%
X139990340Y-98778400D02*
X138186940Y-96975000D01*
X114285540Y-98397400D02*
X115707940Y-96975000D01*
X115707940Y-96975000D02*
X138186940Y-96975000D01*
%TO.N,Board_0-/top/GPIO_9*%
X181417740Y-80846000D02*
X183779940Y-80846000D01*
X175169340Y-84122600D02*
X175367460Y-83924480D01*
X175342060Y-83924480D02*
X175367460Y-83924480D01*
X172984940Y-86281600D02*
X175342060Y-83924480D01*
X178445940Y-80846000D02*
X181417740Y-80846000D01*
X175367460Y-83924480D02*
X178445940Y-80846000D01*
X175143940Y-84122600D02*
X175169340Y-84122600D01*
%TO.N,Board_0-/top/GPIO_BPM*%
X156915422Y-117786978D02*
X159252400Y-115450000D01*
X181646340Y-105509400D02*
X183881540Y-105509400D01*
X174479070Y-112676670D02*
X181646340Y-105509400D01*
X171752400Y-115450000D02*
X174479070Y-112723330D01*
X151013940Y-123746600D02*
X156915422Y-117845118D01*
X156915422Y-117845118D02*
X156915422Y-117786978D01*
X159252400Y-115450000D02*
X171752400Y-115450000D01*
X174356540Y-112799200D02*
X174479070Y-112676670D01*
X174479070Y-112723330D02*
X174479070Y-112676670D01*
%TO.N,Board_0-/top/GPIO_FX*%
X128318739Y-98104999D02*
X128992140Y-98778400D01*
X115149140Y-102994800D02*
X120038941Y-98104999D01*
X114285540Y-102994800D02*
X115149140Y-102994800D01*
X120038941Y-98104999D02*
X128318739Y-98104999D01*
%TO.N,Board_0-/top/GPIO_PLAY*%
X116571540Y-93647600D02*
X123962940Y-86256200D01*
X123962940Y-86256200D02*
X129017540Y-86256200D01*
X114310940Y-93647600D02*
X116571540Y-93647600D01*
%TO.N,Board_0-/top/GPIO_SOUND*%
X180706540Y-110589400D02*
X183881540Y-110589400D01*
X173010340Y-121144434D02*
X177144857Y-117009917D01*
X177144857Y-117009917D02*
X177144857Y-114151083D01*
X176913950Y-117240825D02*
X177144857Y-117009917D01*
X177144857Y-114151083D02*
X180706540Y-110589400D01*
X173010340Y-123772000D02*
X173010340Y-121144434D01*
X183565375Y-110589400D02*
X183881540Y-110589400D01*
%TO.N,Board_0-/top/GPIO_SPECIAL*%
X128484140Y-110614800D02*
X129169940Y-111300600D01*
X114285540Y-110614800D02*
X128484140Y-110614800D01*
%TO.N,Board_0-/top/GPIO_WRITE*%
X124911021Y-73759400D02*
X129042940Y-73759400D01*
X115513021Y-83157400D02*
X115610480Y-83059940D01*
X115610480Y-83059940D02*
X124911021Y-73759400D01*
X115309820Y-83360600D02*
X115610480Y-83059940D01*
X114336340Y-83360600D02*
X115309820Y-83360600D01*
%TD*%
M02*
