M48
; DRILL file {KiCad (6.0.2)} date Fri May 27 20:06:36 2022
; FORMAT={-:-/ absolute / metric / decimal}
; #@! TF.CreationDate,2022-05-27T20:06:36-04:00
; #@! TF.GenerationSoftware,Kicad,Pcbnew,(6.0.2)
; #@! TF.FileFunction,Plated,1,2,PTH
FMAT,2
METRIC
; #@! TA.AperFunction,Plated,PTH,ComponentDrill
T1C1.000
%
G90
G05
T1
X114.352Y-78.3
X114.352Y-80.84
X114.352Y-83.38
X114.352Y-85.92
X114.352Y-88.46
X114.352Y-91.0
X114.352Y-93.54
X114.352Y-96.08
X114.352Y-98.62
X114.352Y-101.16
X114.352Y-103.7
X114.352Y-106.24
X114.352Y-108.78
X114.352Y-111.32
X128.988Y-111.301
X128.992Y-98.778
X129.018Y-86.256
X129.043Y-73.759
X139.99Y-73.759
X139.99Y-98.778
X139.99Y-111.275
X140.016Y-86.256
X151.012Y-111.301
X151.014Y-86.282
X151.014Y-98.728
X151.014Y-123.747
X151.141Y-73.836
X161.987Y-73.734
X161.987Y-123.772
X162.007Y-86.282
X162.012Y-98.778
X162.012Y-111.275
X172.985Y-86.282
X172.985Y-98.791
X173.01Y-73.759
X173.01Y-111.25
X173.01Y-123.772
X183.552Y-78.3
X183.552Y-80.84
X183.552Y-83.38
X183.552Y-85.92
X183.552Y-88.46
X183.552Y-91.0
X183.552Y-93.54
X183.552Y-96.08
X183.552Y-98.62
X183.552Y-101.16
X183.552Y-103.7
X183.552Y-106.24
X183.552Y-108.78
X183.552Y-111.32
T0
M30
