M48
; DRILL file {KiCad (6.0.2)} date Wed Feb 23 01:13:52 2022
; FORMAT={-:-/ absolute / metric / decimal}
; #@! TF.CreationDate,2022-02-23T01:13:52-05:00
; #@! TF.GenerationSoftware,Kicad,Pcbnew,(6.0.2)
; #@! TF.FileFunction,Plated,1,2,PTH
FMAT,2
METRIC
; #@! TA.AperFunction,Plated,PTH,ComponentDrill
T1C1.000
%
G90
G05
T1
X114.286Y-102.995
X114.286Y-105.535
X114.286Y-108.075
X114.286Y-110.615
X114.311Y-91.108
X114.311Y-93.648
X114.311Y-96.188
X114.311Y-98.728
X114.336Y-78.281
X114.336Y-80.821
X114.336Y-83.361
X114.336Y-85.901
X128.988Y-111.301
X128.992Y-98.778
X129.018Y-86.256
X129.043Y-73.759
X139.99Y-73.759
X139.99Y-98.778
X139.99Y-111.275
X140.016Y-86.256
X151.012Y-111.301
X151.014Y-86.282
X151.014Y-98.728
X151.014Y-123.747
X151.141Y-73.836
X161.987Y-73.734
X161.987Y-123.772
X162.007Y-86.282
X162.012Y-98.778
X162.012Y-111.275
X172.985Y-86.282
X172.985Y-98.791
X173.01Y-73.759
X173.01Y-111.25
X173.01Y-123.772
X183.551Y-78.331
X183.551Y-80.871
X183.551Y-83.411
X183.551Y-85.951
X183.551Y-91.108
X183.551Y-93.648
X183.551Y-96.188
X183.551Y-98.728
X183.551Y-102.969
X183.551Y-105.509
X183.551Y-108.049
X183.551Y-110.589
T0
M30
