%TF.GenerationSoftware,KiCad,Pcbnew,(5.1.10)-1*%
%TF.CreationDate,2022-01-16T13:18:33-05:00*%
%TF.ProjectId,top,746f702e-6b69-4636-9164-5f7063625858,rev?*%
%TF.SameCoordinates,Original*%
%TF.FileFunction,Legend,Top*%
%TF.FilePolarity,Positive*%
%FSLAX46Y46*%
G04 Gerber Fmt 4.6, Leading zero omitted, Abs format (unit mm)*
G04 Created by KiCad (PCBNEW (5.1.10)-1) date 2022-01-16 13:18:33*
%MOMM*%
%LPD*%
G01*
G04 APERTURE LIST*
%ADD10C,0.200000*%
%ADD11C,0.150000*%
%ADD12C,0.120000*%
%ADD13C,0.010000*%
G04 APERTURE END LIST*
D10*
X126063114Y-73939285D02*
X126063114Y-75289285D01*
X125548828Y-75289285D01*
X125420257Y-75225000D01*
X125355971Y-75160714D01*
X125291685Y-75032142D01*
X125291685Y-74839285D01*
X125355971Y-74710714D01*
X125420257Y-74646428D01*
X125548828Y-74582142D01*
X126063114Y-74582142D01*
X124455971Y-75289285D02*
X124198828Y-75289285D01*
X124070257Y-75225000D01*
X123941685Y-75096428D01*
X123877400Y-74839285D01*
X123877400Y-74389285D01*
X123941685Y-74132142D01*
X124070257Y-74003571D01*
X124198828Y-73939285D01*
X124455971Y-73939285D01*
X124584542Y-74003571D01*
X124713114Y-74132142D01*
X124777400Y-74389285D01*
X124777400Y-74839285D01*
X124713114Y-75096428D01*
X124584542Y-75225000D01*
X124455971Y-75289285D01*
X123298828Y-73939285D02*
X123298828Y-75289285D01*
X122848828Y-74325000D01*
X122398828Y-75289285D01*
X122398828Y-73939285D01*
X121820257Y-74325000D02*
X121177400Y-74325000D01*
X121948828Y-73939285D02*
X121498828Y-75289285D01*
X121048828Y-73939285D01*
X131027400Y-81139285D02*
X131027400Y-82489285D01*
X131027400Y-81846428D02*
X130255971Y-81846428D01*
X130255971Y-81139285D02*
X130255971Y-82489285D01*
X129034542Y-81139285D02*
X129034542Y-81846428D01*
X129098828Y-81975000D01*
X129227400Y-82039285D01*
X129484542Y-82039285D01*
X129613114Y-81975000D01*
X129034542Y-81203571D02*
X129163114Y-81139285D01*
X129484542Y-81139285D01*
X129613114Y-81203571D01*
X129677400Y-81332142D01*
X129677400Y-81460714D01*
X129613114Y-81589285D01*
X129484542Y-81653571D01*
X129163114Y-81653571D01*
X129034542Y-81717857D01*
X128391685Y-82039285D02*
X128391685Y-81139285D01*
X128391685Y-81910714D02*
X128327400Y-81975000D01*
X128198828Y-82039285D01*
X128005971Y-82039285D01*
X127877400Y-81975000D01*
X127813114Y-81846428D01*
X127813114Y-81139285D01*
X127298828Y-82039285D02*
X126591685Y-82039285D01*
X127298828Y-81139285D01*
X126591685Y-81139285D01*
X125241685Y-82489285D02*
X124470257Y-82489285D01*
X124855971Y-81139285D02*
X124855971Y-82489285D01*
X123505971Y-81203571D02*
X123634542Y-81139285D01*
X123891685Y-81139285D01*
X124020257Y-81203571D01*
X124084542Y-81332142D01*
X124084542Y-81846428D01*
X124020257Y-81975000D01*
X123891685Y-82039285D01*
X123634542Y-82039285D01*
X123505971Y-81975000D01*
X123441685Y-81846428D01*
X123441685Y-81717857D01*
X124084542Y-81589285D01*
X122284542Y-81203571D02*
X122413114Y-81139285D01*
X122670257Y-81139285D01*
X122798828Y-81203571D01*
X122863114Y-81267857D01*
X122927400Y-81396428D01*
X122927400Y-81782142D01*
X122863114Y-81910714D01*
X122798828Y-81975000D01*
X122670257Y-82039285D01*
X122413114Y-82039285D01*
X122284542Y-81975000D01*
X121705971Y-81139285D02*
X121705971Y-82489285D01*
X121127400Y-81139285D02*
X121127400Y-81846428D01*
X121191685Y-81975000D01*
X121320257Y-82039285D01*
X121513114Y-82039285D01*
X121641685Y-81975000D01*
X121705971Y-81910714D01*
X119455971Y-81139285D02*
X119455971Y-82489285D01*
X118813114Y-82039285D02*
X118813114Y-81139285D01*
X118813114Y-81910714D02*
X118748828Y-81975000D01*
X118620257Y-82039285D01*
X118427400Y-82039285D01*
X118298828Y-81975000D01*
X118234542Y-81846428D01*
X118234542Y-81139285D01*
X117013114Y-81203571D02*
X117141685Y-81139285D01*
X117398828Y-81139285D01*
X117527400Y-81203571D01*
X117591685Y-81267857D01*
X117655971Y-81396428D01*
X117655971Y-81782142D01*
X117591685Y-81910714D01*
X117527400Y-81975000D01*
X117398828Y-82039285D01*
X117141685Y-82039285D01*
X117013114Y-81975000D01*
D11*
X125076209Y-73322619D02*
X124742876Y-72322619D01*
X124409542Y-73322619D01*
X124171447Y-73322619D02*
X123552400Y-73322619D01*
X123885733Y-72941666D01*
X123742876Y-72941666D01*
X123647638Y-72894047D01*
X123600019Y-72846428D01*
X123552400Y-72751190D01*
X123552400Y-72513095D01*
X123600019Y-72417857D01*
X123647638Y-72370238D01*
X123742876Y-72322619D01*
X124028590Y-72322619D01*
X124123828Y-72370238D01*
X124171447Y-72417857D01*
X123123828Y-72417857D02*
X123076209Y-72370238D01*
X123123828Y-72322619D01*
X123171447Y-72370238D01*
X123123828Y-72417857D01*
X123123828Y-72322619D01*
X122123828Y-72322619D02*
X122695257Y-72322619D01*
X122409542Y-72322619D02*
X122409542Y-73322619D01*
X122504780Y-73179761D01*
X122600019Y-73084523D01*
X122695257Y-73036904D01*
D12*
%TO.C,J28*%
X152264940Y-86281600D02*
G75*
G03*
X152264940Y-86281600I-1251000J0D01*
G01*
%TO.C,J25*%
X141241340Y-73759400D02*
G75*
G03*
X141241340Y-73759400I-1251000J0D01*
G01*
%TO.C,J24*%
X130268540Y-86256200D02*
G75*
G03*
X130268540Y-86256200I-1251000J0D01*
G01*
%TO.C,J23*%
X130243140Y-98778400D02*
G75*
G03*
X130243140Y-98778400I-1251000J0D01*
G01*
%TO.C,J22*%
X141241340Y-111275200D02*
G75*
G03*
X141241340Y-111275200I-1251000J0D01*
G01*
%TO.C,J21*%
X152264940Y-123746600D02*
G75*
G03*
X152264940Y-123746600I-1251000J0D01*
G01*
%TO.C,J20*%
X163237740Y-123772000D02*
G75*
G03*
X163237740Y-123772000I-1251000J0D01*
G01*
%TO.C,J19*%
X174261340Y-123772000D02*
G75*
G03*
X174261340Y-123772000I-1251000J0D01*
G01*
%TO.C,J17*%
X174261340Y-73759400D02*
G75*
G03*
X174261340Y-73759400I-1251000J0D01*
G01*
%TO.C,J16*%
X163237740Y-73734000D02*
G75*
G03*
X163237740Y-73734000I-1251000J0D01*
G01*
%TO.C,J15*%
X130203400Y-111300600D02*
G75*
G03*
X130203400Y-111300600I-1251000J0D01*
G01*
%TO.C,J14*%
X141266740Y-86256200D02*
G75*
G03*
X141266740Y-86256200I-1251000J0D01*
G01*
%TO.C,J13*%
X163258060Y-86281600D02*
G75*
G03*
X163258060Y-86281600I-1251000J0D01*
G01*
%TO.C,J12*%
X174235940Y-86281600D02*
G75*
G03*
X174235940Y-86281600I-1251000J0D01*
G01*
%TO.C,J11*%
X141241340Y-98778400D02*
G75*
G03*
X141241340Y-98778400I-1251000J0D01*
G01*
%TO.C,J10*%
X152264940Y-98727600D02*
G75*
G03*
X152264940Y-98727600I-1251000J0D01*
G01*
%TO.C,J9*%
X163263140Y-98778400D02*
G75*
G03*
X163263140Y-98778400I-1251000J0D01*
G01*
%TO.C,J8*%
X174235940Y-98791100D02*
G75*
G03*
X174235940Y-98791100I-1251000J0D01*
G01*
%TO.C,J7*%
X152391940Y-73835600D02*
G75*
G03*
X152391940Y-73835600I-1251000J0D01*
G01*
%TO.C,J6*%
X174261340Y-111249800D02*
G75*
G03*
X174261340Y-111249800I-1251000J0D01*
G01*
%TO.C,J5*%
X163263140Y-111275200D02*
G75*
G03*
X163263140Y-111275200I-1251000J0D01*
G01*
%TO.C,J4*%
X152303400Y-111300600D02*
G75*
G03*
X152303400Y-111300600I-1251000J0D01*
G01*
%TO.C,J33*%
X112955540Y-104264800D02*
X115615540Y-104264800D01*
X112955540Y-104264800D02*
X112955540Y-111944800D01*
X112955540Y-111944800D02*
X115615540Y-111944800D01*
X115615540Y-104264800D02*
X115615540Y-111944800D01*
X115615540Y-101664800D02*
X115615540Y-102994800D01*
X114285540Y-101664800D02*
X115615540Y-101664800D01*
%TO.C,J32*%
X114336340Y-76950600D02*
X115666340Y-76950600D01*
X115666340Y-76950600D02*
X115666340Y-78280600D01*
X115666340Y-79550600D02*
X115666340Y-87230600D01*
X113006340Y-87230600D02*
X115666340Y-87230600D01*
X113006340Y-79550600D02*
X113006340Y-87230600D01*
X113006340Y-79550600D02*
X115666340Y-79550600D01*
%TO.C,J30*%
X182221340Y-79601400D02*
X184881340Y-79601400D01*
X182221340Y-79601400D02*
X182221340Y-87281400D01*
X182221340Y-87281400D02*
X184881340Y-87281400D01*
X184881340Y-79601400D02*
X184881340Y-87281400D01*
X184881340Y-77001400D02*
X184881340Y-78331400D01*
X183551340Y-77001400D02*
X184881340Y-77001400D01*
%TO.C,J29*%
X112980940Y-92377600D02*
X115640940Y-92377600D01*
X112980940Y-92377600D02*
X112980940Y-100057600D01*
X112980940Y-100057600D02*
X115640940Y-100057600D01*
X115640940Y-92377600D02*
X115640940Y-100057600D01*
X115640940Y-89777600D02*
X115640940Y-91107600D01*
X114310940Y-89777600D02*
X115640940Y-89777600D01*
%TO.C,J27*%
X183551340Y-89777600D02*
X184881340Y-89777600D01*
X184881340Y-89777600D02*
X184881340Y-91107600D01*
X184881340Y-92377600D02*
X184881340Y-100057600D01*
X182221340Y-100057600D02*
X184881340Y-100057600D01*
X182221340Y-92377600D02*
X182221340Y-100057600D01*
X182221340Y-92377600D02*
X184881340Y-92377600D01*
%TO.C,J26*%
X182221340Y-104239400D02*
X184881340Y-104239400D01*
X182221340Y-104239400D02*
X182221340Y-111919400D01*
X182221340Y-111919400D02*
X184881340Y-111919400D01*
X184881340Y-104239400D02*
X184881340Y-111919400D01*
X184881340Y-101639400D02*
X184881340Y-102969400D01*
X183551340Y-101639400D02*
X184881340Y-101639400D01*
%TO.C,J18*%
X130293940Y-73759400D02*
G75*
G03*
X130293940Y-73759400I-1251000J0D01*
G01*
D13*
%TO.C,G\u002A\u002A\u002A*%
G36*
X124790870Y-76064417D02*
G01*
X124756198Y-76011500D01*
X124020391Y-76011500D01*
X123821887Y-76011312D01*
X123661529Y-76010624D01*
X123535132Y-76009254D01*
X123438510Y-76007016D01*
X123367478Y-76003728D01*
X123317850Y-75999206D01*
X123285440Y-75993266D01*
X123266062Y-75985724D01*
X123256761Y-75977976D01*
X123240373Y-75937277D01*
X123251177Y-75909184D01*
X123260552Y-75899728D01*
X123278336Y-75892028D01*
X123308706Y-75885862D01*
X123355842Y-75881005D01*
X123423922Y-75877235D01*
X123517125Y-75874328D01*
X123639628Y-75872061D01*
X123795611Y-75870210D01*
X123989252Y-75868552D01*
X124014983Y-75868357D01*
X124756550Y-75862797D01*
X124791046Y-75810149D01*
X124825543Y-75757500D01*
X126199424Y-75757500D01*
X126234097Y-75810417D01*
X126268769Y-75863333D01*
X127005656Y-75863333D01*
X127204816Y-75863532D01*
X127365842Y-75864249D01*
X127492934Y-75865665D01*
X127590290Y-75867962D01*
X127662109Y-75871320D01*
X127712591Y-75875920D01*
X127745932Y-75881945D01*
X127766333Y-75889574D01*
X127775763Y-75896553D01*
X127797406Y-75934901D01*
X127787113Y-75970637D01*
X127779673Y-75981478D01*
X127767335Y-75990213D01*
X127745854Y-75997069D01*
X127710987Y-76002272D01*
X127658488Y-76006050D01*
X127584112Y-76008629D01*
X127483615Y-76010236D01*
X127352753Y-76011099D01*
X127187280Y-76011444D01*
X127022910Y-76011500D01*
X126280576Y-76011500D01*
X126238952Y-76064417D01*
X126197328Y-76117333D01*
X124825543Y-76117333D01*
X124790870Y-76064417D01*
G37*
X124790870Y-76064417D02*
X124756198Y-76011500D01*
X124020391Y-76011500D01*
X123821887Y-76011312D01*
X123661529Y-76010624D01*
X123535132Y-76009254D01*
X123438510Y-76007016D01*
X123367478Y-76003728D01*
X123317850Y-75999206D01*
X123285440Y-75993266D01*
X123266062Y-75985724D01*
X123256761Y-75977976D01*
X123240373Y-75937277D01*
X123251177Y-75909184D01*
X123260552Y-75899728D01*
X123278336Y-75892028D01*
X123308706Y-75885862D01*
X123355842Y-75881005D01*
X123423922Y-75877235D01*
X123517125Y-75874328D01*
X123639628Y-75872061D01*
X123795611Y-75870210D01*
X123989252Y-75868552D01*
X124014983Y-75868357D01*
X124756550Y-75862797D01*
X124791046Y-75810149D01*
X124825543Y-75757500D01*
X126199424Y-75757500D01*
X126234097Y-75810417D01*
X126268769Y-75863333D01*
X127005656Y-75863333D01*
X127204816Y-75863532D01*
X127365842Y-75864249D01*
X127492934Y-75865665D01*
X127590290Y-75867962D01*
X127662109Y-75871320D01*
X127712591Y-75875920D01*
X127745932Y-75881945D01*
X127766333Y-75889574D01*
X127775763Y-75896553D01*
X127797406Y-75934901D01*
X127787113Y-75970637D01*
X127779673Y-75981478D01*
X127767335Y-75990213D01*
X127745854Y-75997069D01*
X127710987Y-76002272D01*
X127658488Y-76006050D01*
X127584112Y-76008629D01*
X127483615Y-76010236D01*
X127352753Y-76011099D01*
X127187280Y-76011444D01*
X127022910Y-76011500D01*
X126280576Y-76011500D01*
X126238952Y-76064417D01*
X126197328Y-76117333D01*
X124825543Y-76117333D01*
X124790870Y-76064417D01*
G36*
X120402306Y-76066091D02*
G01*
X120361137Y-75995398D01*
X120353576Y-75916178D01*
X120379198Y-75842139D01*
X120410380Y-75805853D01*
X120426890Y-75792364D01*
X120444746Y-75781651D01*
X120468692Y-75773393D01*
X120503476Y-75767271D01*
X120553842Y-75762966D01*
X120624538Y-75760158D01*
X120720308Y-75758527D01*
X120845899Y-75757753D01*
X121006057Y-75757517D01*
X121128173Y-75757500D01*
X121313234Y-75757607D01*
X121460647Y-75758116D01*
X121575095Y-75759313D01*
X121661265Y-75761480D01*
X121723839Y-75764903D01*
X121767503Y-75769865D01*
X121796942Y-75776651D01*
X121816839Y-75785544D01*
X121831879Y-75796828D01*
X121835819Y-75800419D01*
X121874949Y-75850682D01*
X121895125Y-75896080D01*
X121895502Y-75961145D01*
X121873092Y-76030136D01*
X121835295Y-76083926D01*
X121817389Y-76096976D01*
X121786370Y-76102386D01*
X121717600Y-76107163D01*
X121615656Y-76111176D01*
X121485117Y-76114292D01*
X121330560Y-76116377D01*
X121156565Y-76117300D01*
X121114898Y-76117333D01*
X120450446Y-76117333D01*
X120402306Y-76066091D01*
G37*
X120402306Y-76066091D02*
X120361137Y-75995398D01*
X120353576Y-75916178D01*
X120379198Y-75842139D01*
X120410380Y-75805853D01*
X120426890Y-75792364D01*
X120444746Y-75781651D01*
X120468692Y-75773393D01*
X120503476Y-75767271D01*
X120553842Y-75762966D01*
X120624538Y-75760158D01*
X120720308Y-75758527D01*
X120845899Y-75757753D01*
X121006057Y-75757517D01*
X121128173Y-75757500D01*
X121313234Y-75757607D01*
X121460647Y-75758116D01*
X121575095Y-75759313D01*
X121661265Y-75761480D01*
X121723839Y-75764903D01*
X121767503Y-75769865D01*
X121796942Y-75776651D01*
X121816839Y-75785544D01*
X121831879Y-75796828D01*
X121835819Y-75800419D01*
X121874949Y-75850682D01*
X121895125Y-75896080D01*
X121895502Y-75961145D01*
X121873092Y-76030136D01*
X121835295Y-76083926D01*
X121817389Y-76096976D01*
X121786370Y-76102386D01*
X121717600Y-76107163D01*
X121615656Y-76111176D01*
X121485117Y-76114292D01*
X121330560Y-76116377D01*
X121156565Y-76117300D01*
X121114898Y-76117333D01*
X120450446Y-76117333D01*
X120402306Y-76066091D01*
G36*
X125361178Y-76561410D02*
G01*
X125210247Y-76560212D01*
X125077474Y-76558346D01*
X124968325Y-76555918D01*
X124888267Y-76553035D01*
X124842768Y-76549805D01*
X124835260Y-76548363D01*
X124800865Y-76519222D01*
X124781136Y-76484863D01*
X124762115Y-76434833D01*
X124011423Y-76434833D01*
X123792338Y-76434230D01*
X123608067Y-76432446D01*
X123460074Y-76429523D01*
X123349825Y-76425502D01*
X123278781Y-76420423D01*
X123248409Y-76414328D01*
X123247533Y-76413477D01*
X123242479Y-76377526D01*
X123247710Y-76349977D01*
X123252540Y-76338801D01*
X123261996Y-76329798D01*
X123280281Y-76322732D01*
X123311597Y-76317371D01*
X123360146Y-76313477D01*
X123430132Y-76310819D01*
X123525755Y-76309159D01*
X123651219Y-76308265D01*
X123810725Y-76307901D01*
X124002584Y-76307833D01*
X124744082Y-76307833D01*
X124862718Y-76180833D01*
X126162249Y-76180833D01*
X126280885Y-76307833D01*
X127023064Y-76307833D01*
X127220687Y-76307963D01*
X127380176Y-76308488D01*
X127505730Y-76309613D01*
X127601549Y-76311541D01*
X127671832Y-76314478D01*
X127720777Y-76318628D01*
X127752585Y-76324194D01*
X127771455Y-76331382D01*
X127781585Y-76340396D01*
X127784295Y-76344875D01*
X127795145Y-76367825D01*
X127799252Y-76386497D01*
X127792889Y-76401333D01*
X127772329Y-76412773D01*
X127733844Y-76421259D01*
X127673709Y-76427232D01*
X127588195Y-76431133D01*
X127473577Y-76433402D01*
X127326126Y-76434481D01*
X127142117Y-76434811D01*
X127024136Y-76434833D01*
X126802114Y-76435418D01*
X126616803Y-76437150D01*
X126469292Y-76440000D01*
X126360668Y-76443937D01*
X126292019Y-76448932D01*
X126264431Y-76454953D01*
X126263900Y-76456000D01*
X126250238Y-76485201D01*
X126221567Y-76519500D01*
X126207937Y-76531394D01*
X126190364Y-76540827D01*
X126164161Y-76548082D01*
X126124642Y-76553444D01*
X126067122Y-76557198D01*
X125986914Y-76559629D01*
X125879331Y-76561022D01*
X125739689Y-76561661D01*
X125563300Y-76561831D01*
X125524798Y-76561833D01*
X125361178Y-76561410D01*
G37*
X125361178Y-76561410D02*
X125210247Y-76560212D01*
X125077474Y-76558346D01*
X124968325Y-76555918D01*
X124888267Y-76553035D01*
X124842768Y-76549805D01*
X124835260Y-76548363D01*
X124800865Y-76519222D01*
X124781136Y-76484863D01*
X124762115Y-76434833D01*
X124011423Y-76434833D01*
X123792338Y-76434230D01*
X123608067Y-76432446D01*
X123460074Y-76429523D01*
X123349825Y-76425502D01*
X123278781Y-76420423D01*
X123248409Y-76414328D01*
X123247533Y-76413477D01*
X123242479Y-76377526D01*
X123247710Y-76349977D01*
X123252540Y-76338801D01*
X123261996Y-76329798D01*
X123280281Y-76322732D01*
X123311597Y-76317371D01*
X123360146Y-76313477D01*
X123430132Y-76310819D01*
X123525755Y-76309159D01*
X123651219Y-76308265D01*
X123810725Y-76307901D01*
X124002584Y-76307833D01*
X124744082Y-76307833D01*
X124862718Y-76180833D01*
X126162249Y-76180833D01*
X126280885Y-76307833D01*
X127023064Y-76307833D01*
X127220687Y-76307963D01*
X127380176Y-76308488D01*
X127505730Y-76309613D01*
X127601549Y-76311541D01*
X127671832Y-76314478D01*
X127720777Y-76318628D01*
X127752585Y-76324194D01*
X127771455Y-76331382D01*
X127781585Y-76340396D01*
X127784295Y-76344875D01*
X127795145Y-76367825D01*
X127799252Y-76386497D01*
X127792889Y-76401333D01*
X127772329Y-76412773D01*
X127733844Y-76421259D01*
X127673709Y-76427232D01*
X127588195Y-76431133D01*
X127473577Y-76433402D01*
X127326126Y-76434481D01*
X127142117Y-76434811D01*
X127024136Y-76434833D01*
X126802114Y-76435418D01*
X126616803Y-76437150D01*
X126469292Y-76440000D01*
X126360668Y-76443937D01*
X126292019Y-76448932D01*
X126264431Y-76454953D01*
X126263900Y-76456000D01*
X126250238Y-76485201D01*
X126221567Y-76519500D01*
X126207937Y-76531394D01*
X126190364Y-76540827D01*
X126164161Y-76548082D01*
X126124642Y-76553444D01*
X126067122Y-76557198D01*
X125986914Y-76559629D01*
X125879331Y-76561022D01*
X125739689Y-76561661D01*
X125563300Y-76561831D01*
X125524798Y-76561833D01*
X125361178Y-76561410D01*
G36*
X120937396Y-76561538D02*
G01*
X120785961Y-76560517D01*
X120668009Y-76558572D01*
X120579116Y-76555505D01*
X120514859Y-76551116D01*
X120470814Y-76545205D01*
X120442557Y-76537574D01*
X120428796Y-76530414D01*
X120377885Y-76472325D01*
X120355528Y-76398175D01*
X120361170Y-76320772D01*
X120394254Y-76252928D01*
X120442552Y-76212850D01*
X120482457Y-76203315D01*
X120557912Y-76195284D01*
X120662162Y-76188781D01*
X120788450Y-76183831D01*
X120930020Y-76180456D01*
X121080115Y-76178682D01*
X121231978Y-76178532D01*
X121378854Y-76180031D01*
X121513985Y-76183202D01*
X121630615Y-76188070D01*
X121721989Y-76194659D01*
X121781348Y-76202992D01*
X121797316Y-76208021D01*
X121863296Y-76261818D01*
X121895941Y-76333069D01*
X121893646Y-76411199D01*
X121854802Y-76485634D01*
X121841695Y-76499962D01*
X121779823Y-76561833D01*
X121126738Y-76561833D01*
X120937396Y-76561538D01*
G37*
X120937396Y-76561538D02*
X120785961Y-76560517D01*
X120668009Y-76558572D01*
X120579116Y-76555505D01*
X120514859Y-76551116D01*
X120470814Y-76545205D01*
X120442557Y-76537574D01*
X120428796Y-76530414D01*
X120377885Y-76472325D01*
X120355528Y-76398175D01*
X120361170Y-76320772D01*
X120394254Y-76252928D01*
X120442552Y-76212850D01*
X120482457Y-76203315D01*
X120557912Y-76195284D01*
X120662162Y-76188781D01*
X120788450Y-76183831D01*
X120930020Y-76180456D01*
X121080115Y-76178682D01*
X121231978Y-76178532D01*
X121378854Y-76180031D01*
X121513985Y-76183202D01*
X121630615Y-76188070D01*
X121721989Y-76194659D01*
X121781348Y-76202992D01*
X121797316Y-76208021D01*
X121863296Y-76261818D01*
X121895941Y-76333069D01*
X121893646Y-76411199D01*
X121854802Y-76485634D01*
X121841695Y-76499962D01*
X121779823Y-76561833D01*
X121126738Y-76561833D01*
X120937396Y-76561538D01*
G36*
X124744082Y-76879333D02*
G01*
X124002584Y-76879333D01*
X123805924Y-76879261D01*
X123647394Y-76878886D01*
X123522794Y-76877974D01*
X123427919Y-76876291D01*
X123358569Y-76873601D01*
X123310541Y-76869672D01*
X123279633Y-76864267D01*
X123261643Y-76857152D01*
X123252367Y-76848093D01*
X123247710Y-76837190D01*
X123242433Y-76793156D01*
X123247533Y-76773690D01*
X123272601Y-76767466D01*
X123338524Y-76762254D01*
X123443839Y-76758095D01*
X123587078Y-76755029D01*
X123766776Y-76753098D01*
X123981467Y-76752343D01*
X124010899Y-76752333D01*
X124231190Y-76751742D01*
X124414833Y-76749987D01*
X124560720Y-76747101D01*
X124667743Y-76743114D01*
X124734793Y-76738058D01*
X124760764Y-76731965D01*
X124761067Y-76731167D01*
X124774729Y-76701966D01*
X124803400Y-76667667D01*
X124816903Y-76655872D01*
X124834311Y-76646496D01*
X124860261Y-76639263D01*
X124899390Y-76633894D01*
X124956336Y-76630114D01*
X125035736Y-76627645D01*
X125142227Y-76626211D01*
X125280446Y-76625535D01*
X125455031Y-76625340D01*
X125512483Y-76625333D01*
X125698357Y-76625442D01*
X125846535Y-76625952D01*
X125961654Y-76627140D01*
X126048352Y-76629284D01*
X126111265Y-76632659D01*
X126155032Y-76637544D01*
X126184288Y-76644214D01*
X126203672Y-76652947D01*
X126217821Y-76664019D01*
X126221567Y-76667667D01*
X126252644Y-76705575D01*
X126263900Y-76731167D01*
X126284880Y-76737350D01*
X126347092Y-76742511D01*
X126449450Y-76746618D01*
X126590863Y-76749642D01*
X126770245Y-76751553D01*
X126986506Y-76752319D01*
X127023636Y-76752333D01*
X127224473Y-76752487D01*
X127387046Y-76753069D01*
X127515426Y-76754261D01*
X127613679Y-76756243D01*
X127685877Y-76759197D01*
X127736087Y-76763304D01*
X127768380Y-76768746D01*
X127786823Y-76775704D01*
X127795486Y-76784359D01*
X127796584Y-76786766D01*
X127804004Y-76810239D01*
X127803978Y-76829373D01*
X127792767Y-76844610D01*
X127766631Y-76856392D01*
X127721831Y-76865163D01*
X127654627Y-76871364D01*
X127561281Y-76875438D01*
X127438053Y-76877826D01*
X127281203Y-76878973D01*
X127086993Y-76879319D01*
X127014151Y-76879333D01*
X126816707Y-76879393D01*
X126657407Y-76879732D01*
X126532062Y-76880591D01*
X126436481Y-76882207D01*
X126366476Y-76884823D01*
X126317857Y-76888676D01*
X126286434Y-76894007D01*
X126268019Y-76901055D01*
X126258422Y-76910060D01*
X126253453Y-76921262D01*
X126252932Y-76922879D01*
X126223517Y-76963389D01*
X126186628Y-76986379D01*
X126152695Y-76991420D01*
X126082184Y-76995993D01*
X125980853Y-76999931D01*
X125854454Y-77003068D01*
X125708744Y-77005236D01*
X125549479Y-77006270D01*
X125498431Y-77006333D01*
X124862718Y-77006333D01*
X124744082Y-76879333D01*
G37*
X124744082Y-76879333D02*
X124002584Y-76879333D01*
X123805924Y-76879261D01*
X123647394Y-76878886D01*
X123522794Y-76877974D01*
X123427919Y-76876291D01*
X123358569Y-76873601D01*
X123310541Y-76869672D01*
X123279633Y-76864267D01*
X123261643Y-76857152D01*
X123252367Y-76848093D01*
X123247710Y-76837190D01*
X123242433Y-76793156D01*
X123247533Y-76773690D01*
X123272601Y-76767466D01*
X123338524Y-76762254D01*
X123443839Y-76758095D01*
X123587078Y-76755029D01*
X123766776Y-76753098D01*
X123981467Y-76752343D01*
X124010899Y-76752333D01*
X124231190Y-76751742D01*
X124414833Y-76749987D01*
X124560720Y-76747101D01*
X124667743Y-76743114D01*
X124734793Y-76738058D01*
X124760764Y-76731965D01*
X124761067Y-76731167D01*
X124774729Y-76701966D01*
X124803400Y-76667667D01*
X124816903Y-76655872D01*
X124834311Y-76646496D01*
X124860261Y-76639263D01*
X124899390Y-76633894D01*
X124956336Y-76630114D01*
X125035736Y-76627645D01*
X125142227Y-76626211D01*
X125280446Y-76625535D01*
X125455031Y-76625340D01*
X125512483Y-76625333D01*
X125698357Y-76625442D01*
X125846535Y-76625952D01*
X125961654Y-76627140D01*
X126048352Y-76629284D01*
X126111265Y-76632659D01*
X126155032Y-76637544D01*
X126184288Y-76644214D01*
X126203672Y-76652947D01*
X126217821Y-76664019D01*
X126221567Y-76667667D01*
X126252644Y-76705575D01*
X126263900Y-76731167D01*
X126284880Y-76737350D01*
X126347092Y-76742511D01*
X126449450Y-76746618D01*
X126590863Y-76749642D01*
X126770245Y-76751553D01*
X126986506Y-76752319D01*
X127023636Y-76752333D01*
X127224473Y-76752487D01*
X127387046Y-76753069D01*
X127515426Y-76754261D01*
X127613679Y-76756243D01*
X127685877Y-76759197D01*
X127736087Y-76763304D01*
X127768380Y-76768746D01*
X127786823Y-76775704D01*
X127795486Y-76784359D01*
X127796584Y-76786766D01*
X127804004Y-76810239D01*
X127803978Y-76829373D01*
X127792767Y-76844610D01*
X127766631Y-76856392D01*
X127721831Y-76865163D01*
X127654627Y-76871364D01*
X127561281Y-76875438D01*
X127438053Y-76877826D01*
X127281203Y-76878973D01*
X127086993Y-76879319D01*
X127014151Y-76879333D01*
X126816707Y-76879393D01*
X126657407Y-76879732D01*
X126532062Y-76880591D01*
X126436481Y-76882207D01*
X126366476Y-76884823D01*
X126317857Y-76888676D01*
X126286434Y-76894007D01*
X126268019Y-76901055D01*
X126258422Y-76910060D01*
X126253453Y-76921262D01*
X126252932Y-76922879D01*
X126223517Y-76963389D01*
X126186628Y-76986379D01*
X126152695Y-76991420D01*
X126082184Y-76995993D01*
X125980853Y-76999931D01*
X125854454Y-77003068D01*
X125708744Y-77005236D01*
X125549479Y-77006270D01*
X125498431Y-77006333D01*
X124862718Y-77006333D01*
X124744082Y-76879333D01*
G36*
X120698992Y-77003144D02*
G01*
X120610486Y-77000975D01*
X120545384Y-76997219D01*
X120498955Y-76991698D01*
X120466470Y-76984233D01*
X120444245Y-76975193D01*
X120386809Y-76923559D01*
X120356698Y-76849410D01*
X120358556Y-76765975D01*
X120364045Y-76746711D01*
X120376103Y-76714130D01*
X120390743Y-76687972D01*
X120412394Y-76667532D01*
X120445487Y-76652105D01*
X120494452Y-76640985D01*
X120563717Y-76633469D01*
X120657713Y-76628851D01*
X120780870Y-76626425D01*
X120937616Y-76625488D01*
X121126738Y-76625333D01*
X121779823Y-76625333D01*
X121844305Y-76689815D01*
X121885577Y-76737584D01*
X121900149Y-76780046D01*
X121896271Y-76831425D01*
X121875725Y-76896327D01*
X121842783Y-76949440D01*
X121840185Y-76952151D01*
X121826179Y-76964500D01*
X121808420Y-76974337D01*
X121782174Y-76982005D01*
X121742702Y-76987845D01*
X121685269Y-76992202D01*
X121605137Y-76995416D01*
X121497570Y-76997833D01*
X121357831Y-76999792D01*
X121181182Y-77001639D01*
X121152233Y-77001917D01*
X120965135Y-77003437D01*
X120815632Y-77003906D01*
X120698992Y-77003144D01*
G37*
X120698992Y-77003144D02*
X120610486Y-77000975D01*
X120545384Y-76997219D01*
X120498955Y-76991698D01*
X120466470Y-76984233D01*
X120444245Y-76975193D01*
X120386809Y-76923559D01*
X120356698Y-76849410D01*
X120358556Y-76765975D01*
X120364045Y-76746711D01*
X120376103Y-76714130D01*
X120390743Y-76687972D01*
X120412394Y-76667532D01*
X120445487Y-76652105D01*
X120494452Y-76640985D01*
X120563717Y-76633469D01*
X120657713Y-76628851D01*
X120780870Y-76626425D01*
X120937616Y-76625488D01*
X121126738Y-76625333D01*
X121779823Y-76625333D01*
X121844305Y-76689815D01*
X121885577Y-76737584D01*
X121900149Y-76780046D01*
X121896271Y-76831425D01*
X121875725Y-76896327D01*
X121842783Y-76949440D01*
X121840185Y-76952151D01*
X121826179Y-76964500D01*
X121808420Y-76974337D01*
X121782174Y-76982005D01*
X121742702Y-76987845D01*
X121685269Y-76992202D01*
X121605137Y-76995416D01*
X121497570Y-76997833D01*
X121357831Y-76999792D01*
X121181182Y-77001639D01*
X121152233Y-77001917D01*
X120965135Y-77003437D01*
X120815632Y-77003906D01*
X120698992Y-77003144D01*
G36*
X124790870Y-77376750D02*
G01*
X124756198Y-77323833D01*
X124020391Y-77323833D01*
X123821887Y-77323645D01*
X123661529Y-77322958D01*
X123535132Y-77321587D01*
X123438510Y-77319349D01*
X123367478Y-77316062D01*
X123317850Y-77311539D01*
X123285440Y-77305599D01*
X123266062Y-77298057D01*
X123256761Y-77290309D01*
X123240373Y-77249610D01*
X123251177Y-77221518D01*
X123260552Y-77212061D01*
X123278336Y-77204362D01*
X123308706Y-77198195D01*
X123355842Y-77193339D01*
X123423922Y-77189568D01*
X123517125Y-77186661D01*
X123639628Y-77184394D01*
X123795611Y-77182543D01*
X123989252Y-77180885D01*
X124014983Y-77180690D01*
X124756550Y-77175130D01*
X124791046Y-77122482D01*
X124825543Y-77069833D01*
X126199424Y-77069833D01*
X126234097Y-77122750D01*
X126268769Y-77175667D01*
X127017006Y-77175667D01*
X127214860Y-77175756D01*
X127374608Y-77176172D01*
X127500476Y-77177141D01*
X127596692Y-77178885D01*
X127667482Y-77181630D01*
X127717074Y-77185600D01*
X127749695Y-77191018D01*
X127769570Y-77198110D01*
X127780929Y-77207099D01*
X127787113Y-77216530D01*
X127796349Y-77259162D01*
X127775763Y-77290614D01*
X127762386Y-77299583D01*
X127739258Y-77306810D01*
X127702180Y-77312476D01*
X127646953Y-77316761D01*
X127569378Y-77319847D01*
X127465258Y-77321916D01*
X127330392Y-77323147D01*
X127160583Y-77323723D01*
X127005656Y-77323833D01*
X126268769Y-77323833D01*
X126234097Y-77376750D01*
X126199424Y-77429667D01*
X124825543Y-77429667D01*
X124790870Y-77376750D01*
G37*
X124790870Y-77376750D02*
X124756198Y-77323833D01*
X124020391Y-77323833D01*
X123821887Y-77323645D01*
X123661529Y-77322958D01*
X123535132Y-77321587D01*
X123438510Y-77319349D01*
X123367478Y-77316062D01*
X123317850Y-77311539D01*
X123285440Y-77305599D01*
X123266062Y-77298057D01*
X123256761Y-77290309D01*
X123240373Y-77249610D01*
X123251177Y-77221518D01*
X123260552Y-77212061D01*
X123278336Y-77204362D01*
X123308706Y-77198195D01*
X123355842Y-77193339D01*
X123423922Y-77189568D01*
X123517125Y-77186661D01*
X123639628Y-77184394D01*
X123795611Y-77182543D01*
X123989252Y-77180885D01*
X124014983Y-77180690D01*
X124756550Y-77175130D01*
X124791046Y-77122482D01*
X124825543Y-77069833D01*
X126199424Y-77069833D01*
X126234097Y-77122750D01*
X126268769Y-77175667D01*
X127017006Y-77175667D01*
X127214860Y-77175756D01*
X127374608Y-77176172D01*
X127500476Y-77177141D01*
X127596692Y-77178885D01*
X127667482Y-77181630D01*
X127717074Y-77185600D01*
X127749695Y-77191018D01*
X127769570Y-77198110D01*
X127780929Y-77207099D01*
X127787113Y-77216530D01*
X127796349Y-77259162D01*
X127775763Y-77290614D01*
X127762386Y-77299583D01*
X127739258Y-77306810D01*
X127702180Y-77312476D01*
X127646953Y-77316761D01*
X127569378Y-77319847D01*
X127465258Y-77321916D01*
X127330392Y-77323147D01*
X127160583Y-77323723D01*
X127005656Y-77323833D01*
X126268769Y-77323833D01*
X126234097Y-77376750D01*
X126199424Y-77429667D01*
X124825543Y-77429667D01*
X124790870Y-77376750D01*
G36*
X120943541Y-77429606D02*
G01*
X120796498Y-77429212D01*
X120682295Y-77428163D01*
X120596189Y-77426141D01*
X120533432Y-77422826D01*
X120489279Y-77417897D01*
X120458983Y-77411036D01*
X120437800Y-77401923D01*
X120420983Y-77390238D01*
X120410380Y-77381314D01*
X120365022Y-77316981D01*
X120352591Y-77239231D01*
X120373512Y-77161770D01*
X120402306Y-77121076D01*
X120450446Y-77069833D01*
X121118798Y-77070477D01*
X121292386Y-77071265D01*
X121449476Y-77073186D01*
X121585224Y-77076099D01*
X121694789Y-77079860D01*
X121773326Y-77084328D01*
X121815994Y-77089360D01*
X121821416Y-77091142D01*
X121861197Y-77134163D01*
X121889262Y-77199595D01*
X121898355Y-77267753D01*
X121895125Y-77291087D01*
X121869440Y-77345371D01*
X121835819Y-77386748D01*
X121821296Y-77398746D01*
X121803215Y-77408274D01*
X121776892Y-77415615D01*
X121737642Y-77421054D01*
X121680780Y-77424875D01*
X121601623Y-77427363D01*
X121495485Y-77428800D01*
X121357682Y-77429471D01*
X121183530Y-77429661D01*
X121128173Y-77429667D01*
X120943541Y-77429606D01*
G37*
X120943541Y-77429606D02*
X120796498Y-77429212D01*
X120682295Y-77428163D01*
X120596189Y-77426141D01*
X120533432Y-77422826D01*
X120489279Y-77417897D01*
X120458983Y-77411036D01*
X120437800Y-77401923D01*
X120420983Y-77390238D01*
X120410380Y-77381314D01*
X120365022Y-77316981D01*
X120352591Y-77239231D01*
X120373512Y-77161770D01*
X120402306Y-77121076D01*
X120450446Y-77069833D01*
X121118798Y-77070477D01*
X121292386Y-77071265D01*
X121449476Y-77073186D01*
X121585224Y-77076099D01*
X121694789Y-77079860D01*
X121773326Y-77084328D01*
X121815994Y-77089360D01*
X121821416Y-77091142D01*
X121861197Y-77134163D01*
X121889262Y-77199595D01*
X121898355Y-77267753D01*
X121895125Y-77291087D01*
X121869440Y-77345371D01*
X121835819Y-77386748D01*
X121821296Y-77398746D01*
X121803215Y-77408274D01*
X121776892Y-77415615D01*
X121737642Y-77421054D01*
X121680780Y-77424875D01*
X121601623Y-77427363D01*
X121495485Y-77428800D01*
X121357682Y-77429471D01*
X121183530Y-77429661D01*
X121128173Y-77429667D01*
X120943541Y-77429606D01*
G36*
X120968213Y-77873466D02*
G01*
X120809981Y-77871460D01*
X120674686Y-77868297D01*
X120567138Y-77864123D01*
X120492149Y-77859083D01*
X120454528Y-77853326D01*
X120454004Y-77853135D01*
X120404090Y-77815789D01*
X120367676Y-77757885D01*
X120348849Y-77701401D01*
X120351208Y-77655174D01*
X120367676Y-77609449D01*
X120406818Y-77548535D01*
X120454004Y-77514199D01*
X120490375Y-77508421D01*
X120564264Y-77503357D01*
X120670863Y-77499153D01*
X120805360Y-77495956D01*
X120962945Y-77493912D01*
X121138809Y-77493168D01*
X121144573Y-77493167D01*
X121779823Y-77493167D01*
X121841695Y-77555039D01*
X121891823Y-77625547D01*
X121903567Y-77683667D01*
X121884677Y-77756641D01*
X121841695Y-77812295D01*
X121779823Y-77874167D01*
X121144573Y-77874167D01*
X120968213Y-77873466D01*
G37*
X120968213Y-77873466D02*
X120809981Y-77871460D01*
X120674686Y-77868297D01*
X120567138Y-77864123D01*
X120492149Y-77859083D01*
X120454528Y-77853326D01*
X120454004Y-77853135D01*
X120404090Y-77815789D01*
X120367676Y-77757885D01*
X120348849Y-77701401D01*
X120351208Y-77655174D01*
X120367676Y-77609449D01*
X120406818Y-77548535D01*
X120454004Y-77514199D01*
X120490375Y-77508421D01*
X120564264Y-77503357D01*
X120670863Y-77499153D01*
X120805360Y-77495956D01*
X120962945Y-77493912D01*
X121138809Y-77493168D01*
X121144573Y-77493167D01*
X121779823Y-77493167D01*
X121841695Y-77555039D01*
X121891823Y-77625547D01*
X121903567Y-77683667D01*
X121884677Y-77756641D01*
X121841695Y-77812295D01*
X121779823Y-77874167D01*
X121144573Y-77874167D01*
X120968213Y-77873466D01*
G36*
X126575905Y-77743897D02*
G01*
X126306711Y-77743590D01*
X126000753Y-77743047D01*
X125655687Y-77742298D01*
X125515474Y-77741970D01*
X123247650Y-77736583D01*
X123247650Y-77630750D01*
X125504521Y-77625363D01*
X125869819Y-77624560D01*
X126195011Y-77624011D01*
X126482326Y-77623739D01*
X126733990Y-77623766D01*
X126952230Y-77624116D01*
X127139275Y-77624812D01*
X127297350Y-77625878D01*
X127428685Y-77627337D01*
X127535506Y-77629211D01*
X127620040Y-77631525D01*
X127684514Y-77634300D01*
X127731157Y-77637562D01*
X127762196Y-77641332D01*
X127779857Y-77645634D01*
X127785594Y-77649139D01*
X127799912Y-77691873D01*
X127796548Y-77712829D01*
X127791958Y-77718309D01*
X127781079Y-77723165D01*
X127761568Y-77727426D01*
X127731079Y-77731121D01*
X127687269Y-77734282D01*
X127627793Y-77736937D01*
X127550307Y-77739117D01*
X127452467Y-77740852D01*
X127331929Y-77742172D01*
X127186348Y-77743107D01*
X127013379Y-77743686D01*
X126810680Y-77743939D01*
X126575905Y-77743897D01*
G37*
X126575905Y-77743897D02*
X126306711Y-77743590D01*
X126000753Y-77743047D01*
X125655687Y-77742298D01*
X125515474Y-77741970D01*
X123247650Y-77736583D01*
X123247650Y-77630750D01*
X125504521Y-77625363D01*
X125869819Y-77624560D01*
X126195011Y-77624011D01*
X126482326Y-77623739D01*
X126733990Y-77623766D01*
X126952230Y-77624116D01*
X127139275Y-77624812D01*
X127297350Y-77625878D01*
X127428685Y-77627337D01*
X127535506Y-77629211D01*
X127620040Y-77631525D01*
X127684514Y-77634300D01*
X127731157Y-77637562D01*
X127762196Y-77641332D01*
X127779857Y-77645634D01*
X127785594Y-77649139D01*
X127799912Y-77691873D01*
X127796548Y-77712829D01*
X127791958Y-77718309D01*
X127781079Y-77723165D01*
X127761568Y-77727426D01*
X127731079Y-77731121D01*
X127687269Y-77734282D01*
X127627793Y-77736937D01*
X127550307Y-77739117D01*
X127452467Y-77740852D01*
X127331929Y-77742172D01*
X127186348Y-77743107D01*
X127013379Y-77743686D01*
X126810680Y-77743939D01*
X126575905Y-77743897D01*
G36*
X120402306Y-78246258D02*
G01*
X120361137Y-78175565D01*
X120353576Y-78096345D01*
X120379198Y-78022305D01*
X120410380Y-77986020D01*
X120426890Y-77972531D01*
X120444746Y-77961817D01*
X120468692Y-77953560D01*
X120503476Y-77947438D01*
X120553842Y-77943133D01*
X120624538Y-77940325D01*
X120720308Y-77938694D01*
X120845899Y-77937920D01*
X121006057Y-77937684D01*
X121128173Y-77937667D01*
X121313234Y-77937774D01*
X121460647Y-77938283D01*
X121575095Y-77939480D01*
X121661265Y-77941647D01*
X121723839Y-77945070D01*
X121767503Y-77950032D01*
X121796942Y-77956817D01*
X121816839Y-77965710D01*
X121831879Y-77976995D01*
X121835819Y-77980586D01*
X121874949Y-78030848D01*
X121895125Y-78076247D01*
X121895502Y-78141312D01*
X121873092Y-78210303D01*
X121835295Y-78264093D01*
X121817389Y-78277142D01*
X121786370Y-78282552D01*
X121717600Y-78287330D01*
X121615656Y-78291343D01*
X121485117Y-78294458D01*
X121330560Y-78296544D01*
X121156565Y-78297466D01*
X121114898Y-78297500D01*
X120450446Y-78297500D01*
X120402306Y-78246258D01*
G37*
X120402306Y-78246258D02*
X120361137Y-78175565D01*
X120353576Y-78096345D01*
X120379198Y-78022305D01*
X120410380Y-77986020D01*
X120426890Y-77972531D01*
X120444746Y-77961817D01*
X120468692Y-77953560D01*
X120503476Y-77947438D01*
X120553842Y-77943133D01*
X120624538Y-77940325D01*
X120720308Y-77938694D01*
X120845899Y-77937920D01*
X121006057Y-77937684D01*
X121128173Y-77937667D01*
X121313234Y-77937774D01*
X121460647Y-77938283D01*
X121575095Y-77939480D01*
X121661265Y-77941647D01*
X121723839Y-77945070D01*
X121767503Y-77950032D01*
X121796942Y-77956817D01*
X121816839Y-77965710D01*
X121831879Y-77976995D01*
X121835819Y-77980586D01*
X121874949Y-78030848D01*
X121895125Y-78076247D01*
X121895502Y-78141312D01*
X121873092Y-78210303D01*
X121835295Y-78264093D01*
X121817389Y-78277142D01*
X121786370Y-78282552D01*
X121717600Y-78287330D01*
X121615656Y-78291343D01*
X121485117Y-78294458D01*
X121330560Y-78296544D01*
X121156565Y-78297466D01*
X121114898Y-78297500D01*
X120450446Y-78297500D01*
X120402306Y-78246258D01*
G36*
X126596144Y-78188653D02*
G01*
X126334068Y-78188266D01*
X126035617Y-78187669D01*
X125698395Y-78186898D01*
X125519285Y-78186471D01*
X125161854Y-78185588D01*
X124844366Y-78184724D01*
X124564431Y-78183832D01*
X124319659Y-78182866D01*
X124107659Y-78181780D01*
X123926042Y-78180529D01*
X123772416Y-78179066D01*
X123644393Y-78177345D01*
X123539581Y-78175321D01*
X123455590Y-78172946D01*
X123390031Y-78170177D01*
X123340512Y-78166965D01*
X123304645Y-78163266D01*
X123280037Y-78159033D01*
X123264301Y-78154221D01*
X123255044Y-78148783D01*
X123249956Y-78142802D01*
X123239031Y-78107630D01*
X123262845Y-78077606D01*
X123267571Y-78074010D01*
X123278932Y-78069049D01*
X123300420Y-78064642D01*
X123334349Y-78060757D01*
X123383031Y-78057362D01*
X123448778Y-78054428D01*
X123533903Y-78051922D01*
X123640718Y-78049814D01*
X123771535Y-78048072D01*
X123928667Y-78046664D01*
X124114427Y-78045560D01*
X124331127Y-78044728D01*
X124581079Y-78044138D01*
X124866595Y-78043757D01*
X125189989Y-78043555D01*
X125525601Y-78043500D01*
X125882966Y-78043548D01*
X126200371Y-78043714D01*
X126480189Y-78044034D01*
X126724792Y-78044543D01*
X126936553Y-78045275D01*
X127117845Y-78046267D01*
X127271041Y-78047552D01*
X127398514Y-78049166D01*
X127502637Y-78051144D01*
X127585782Y-78053521D01*
X127650322Y-78056332D01*
X127698630Y-78059611D01*
X127733080Y-78063395D01*
X127756043Y-78067718D01*
X127769894Y-78072615D01*
X127775763Y-78076720D01*
X127797409Y-78115019D01*
X127787062Y-78150900D01*
X127782752Y-78157408D01*
X127775598Y-78163180D01*
X127763206Y-78168252D01*
X127743181Y-78172663D01*
X127713127Y-78176450D01*
X127670649Y-78179651D01*
X127613352Y-78182303D01*
X127538840Y-78184443D01*
X127444720Y-78186110D01*
X127328594Y-78187341D01*
X127188069Y-78188173D01*
X127020749Y-78188644D01*
X126824239Y-78188791D01*
X126596144Y-78188653D01*
G37*
X126596144Y-78188653D02*
X126334068Y-78188266D01*
X126035617Y-78187669D01*
X125698395Y-78186898D01*
X125519285Y-78186471D01*
X125161854Y-78185588D01*
X124844366Y-78184724D01*
X124564431Y-78183832D01*
X124319659Y-78182866D01*
X124107659Y-78181780D01*
X123926042Y-78180529D01*
X123772416Y-78179066D01*
X123644393Y-78177345D01*
X123539581Y-78175321D01*
X123455590Y-78172946D01*
X123390031Y-78170177D01*
X123340512Y-78166965D01*
X123304645Y-78163266D01*
X123280037Y-78159033D01*
X123264301Y-78154221D01*
X123255044Y-78148783D01*
X123249956Y-78142802D01*
X123239031Y-78107630D01*
X123262845Y-78077606D01*
X123267571Y-78074010D01*
X123278932Y-78069049D01*
X123300420Y-78064642D01*
X123334349Y-78060757D01*
X123383031Y-78057362D01*
X123448778Y-78054428D01*
X123533903Y-78051922D01*
X123640718Y-78049814D01*
X123771535Y-78048072D01*
X123928667Y-78046664D01*
X124114427Y-78045560D01*
X124331127Y-78044728D01*
X124581079Y-78044138D01*
X124866595Y-78043757D01*
X125189989Y-78043555D01*
X125525601Y-78043500D01*
X125882966Y-78043548D01*
X126200371Y-78043714D01*
X126480189Y-78044034D01*
X126724792Y-78044543D01*
X126936553Y-78045275D01*
X127117845Y-78046267D01*
X127271041Y-78047552D01*
X127398514Y-78049166D01*
X127502637Y-78051144D01*
X127585782Y-78053521D01*
X127650322Y-78056332D01*
X127698630Y-78059611D01*
X127733080Y-78063395D01*
X127756043Y-78067718D01*
X127769894Y-78072615D01*
X127775763Y-78076720D01*
X127797409Y-78115019D01*
X127787062Y-78150900D01*
X127782752Y-78157408D01*
X127775598Y-78163180D01*
X127763206Y-78168252D01*
X127743181Y-78172663D01*
X127713127Y-78176450D01*
X127670649Y-78179651D01*
X127613352Y-78182303D01*
X127538840Y-78184443D01*
X127444720Y-78186110D01*
X127328594Y-78187341D01*
X127188069Y-78188173D01*
X127020749Y-78188644D01*
X126824239Y-78188791D01*
X126596144Y-78188653D01*
G36*
X120939296Y-78741932D02*
G01*
X120792953Y-78741516D01*
X120679416Y-78740433D01*
X120593923Y-78738365D01*
X120531709Y-78734993D01*
X120488012Y-78729998D01*
X120458067Y-78723061D01*
X120437112Y-78713865D01*
X120420383Y-78702090D01*
X120411230Y-78694375D01*
X120364961Y-78630319D01*
X120350740Y-78554634D01*
X120366775Y-78479748D01*
X120411274Y-78418086D01*
X120455010Y-78390818D01*
X120500814Y-78380802D01*
X120581200Y-78372679D01*
X120689385Y-78366429D01*
X120818586Y-78362032D01*
X120962021Y-78359467D01*
X121112906Y-78358716D01*
X121264458Y-78359757D01*
X121409894Y-78362572D01*
X121542431Y-78367140D01*
X121655287Y-78373440D01*
X121741677Y-78381454D01*
X121794820Y-78391162D01*
X121804000Y-78394785D01*
X121868919Y-78450408D01*
X121898819Y-78521851D01*
X121892411Y-78599349D01*
X121848405Y-78673137D01*
X121841695Y-78680128D01*
X121779823Y-78742000D01*
X121123209Y-78742000D01*
X120939296Y-78741932D01*
G37*
X120939296Y-78741932D02*
X120792953Y-78741516D01*
X120679416Y-78740433D01*
X120593923Y-78738365D01*
X120531709Y-78734993D01*
X120488012Y-78729998D01*
X120458067Y-78723061D01*
X120437112Y-78713865D01*
X120420383Y-78702090D01*
X120411230Y-78694375D01*
X120364961Y-78630319D01*
X120350740Y-78554634D01*
X120366775Y-78479748D01*
X120411274Y-78418086D01*
X120455010Y-78390818D01*
X120500814Y-78380802D01*
X120581200Y-78372679D01*
X120689385Y-78366429D01*
X120818586Y-78362032D01*
X120962021Y-78359467D01*
X121112906Y-78358716D01*
X121264458Y-78359757D01*
X121409894Y-78362572D01*
X121542431Y-78367140D01*
X121655287Y-78373440D01*
X121741677Y-78381454D01*
X121794820Y-78391162D01*
X121804000Y-78394785D01*
X121868919Y-78450408D01*
X121898819Y-78521851D01*
X121892411Y-78599349D01*
X121848405Y-78673137D01*
X121841695Y-78680128D01*
X121779823Y-78742000D01*
X121123209Y-78742000D01*
X120939296Y-78741932D01*
G36*
X125165031Y-78636102D02*
G01*
X124844483Y-78635888D01*
X124561642Y-78635493D01*
X124314198Y-78634886D01*
X124099837Y-78634036D01*
X123916247Y-78632911D01*
X123761115Y-78631480D01*
X123632130Y-78629712D01*
X123526978Y-78627575D01*
X123443347Y-78625039D01*
X123378925Y-78622073D01*
X123331399Y-78618644D01*
X123298457Y-78614721D01*
X123277787Y-78610274D01*
X123267571Y-78605657D01*
X123239825Y-78575139D01*
X123247299Y-78541349D01*
X123249956Y-78536865D01*
X123255181Y-78530769D01*
X123264543Y-78525344D01*
X123280434Y-78520544D01*
X123305242Y-78516322D01*
X123341359Y-78512633D01*
X123391174Y-78509431D01*
X123457078Y-78506669D01*
X123541461Y-78504303D01*
X123646713Y-78502285D01*
X123775224Y-78500570D01*
X123929385Y-78499111D01*
X124111586Y-78497864D01*
X124324216Y-78496781D01*
X124569667Y-78495817D01*
X124850328Y-78494926D01*
X125168590Y-78494061D01*
X125519285Y-78493196D01*
X125876269Y-78492354D01*
X126193316Y-78491668D01*
X126472819Y-78491174D01*
X126717175Y-78490910D01*
X126928778Y-78490913D01*
X127110024Y-78491222D01*
X127263308Y-78491873D01*
X127391025Y-78492905D01*
X127495570Y-78494355D01*
X127579339Y-78496259D01*
X127644726Y-78498657D01*
X127694126Y-78501586D01*
X127729936Y-78505082D01*
X127754549Y-78509185D01*
X127770362Y-78513930D01*
X127779769Y-78519357D01*
X127785166Y-78525501D01*
X127787062Y-78528767D01*
X127796379Y-78571412D01*
X127775763Y-78602947D01*
X127767228Y-78608301D01*
X127751374Y-78613055D01*
X127725829Y-78617243D01*
X127688218Y-78620901D01*
X127636170Y-78624063D01*
X127567312Y-78626765D01*
X127479270Y-78629041D01*
X127369672Y-78630927D01*
X127236146Y-78632457D01*
X127076317Y-78633668D01*
X126887813Y-78634593D01*
X126668262Y-78635267D01*
X126415291Y-78635727D01*
X126126526Y-78636006D01*
X125799595Y-78636140D01*
X125525601Y-78636167D01*
X125165031Y-78636102D01*
G37*
X125165031Y-78636102D02*
X124844483Y-78635888D01*
X124561642Y-78635493D01*
X124314198Y-78634886D01*
X124099837Y-78634036D01*
X123916247Y-78632911D01*
X123761115Y-78631480D01*
X123632130Y-78629712D01*
X123526978Y-78627575D01*
X123443347Y-78625039D01*
X123378925Y-78622073D01*
X123331399Y-78618644D01*
X123298457Y-78614721D01*
X123277787Y-78610274D01*
X123267571Y-78605657D01*
X123239825Y-78575139D01*
X123247299Y-78541349D01*
X123249956Y-78536865D01*
X123255181Y-78530769D01*
X123264543Y-78525344D01*
X123280434Y-78520544D01*
X123305242Y-78516322D01*
X123341359Y-78512633D01*
X123391174Y-78509431D01*
X123457078Y-78506669D01*
X123541461Y-78504303D01*
X123646713Y-78502285D01*
X123775224Y-78500570D01*
X123929385Y-78499111D01*
X124111586Y-78497864D01*
X124324216Y-78496781D01*
X124569667Y-78495817D01*
X124850328Y-78494926D01*
X125168590Y-78494061D01*
X125519285Y-78493196D01*
X125876269Y-78492354D01*
X126193316Y-78491668D01*
X126472819Y-78491174D01*
X126717175Y-78490910D01*
X126928778Y-78490913D01*
X127110024Y-78491222D01*
X127263308Y-78491873D01*
X127391025Y-78492905D01*
X127495570Y-78494355D01*
X127579339Y-78496259D01*
X127644726Y-78498657D01*
X127694126Y-78501586D01*
X127729936Y-78505082D01*
X127754549Y-78509185D01*
X127770362Y-78513930D01*
X127779769Y-78519357D01*
X127785166Y-78525501D01*
X127787062Y-78528767D01*
X127796379Y-78571412D01*
X127775763Y-78602947D01*
X127767228Y-78608301D01*
X127751374Y-78613055D01*
X127725829Y-78617243D01*
X127688218Y-78620901D01*
X127636170Y-78624063D01*
X127567312Y-78626765D01*
X127479270Y-78629041D01*
X127369672Y-78630927D01*
X127236146Y-78632457D01*
X127076317Y-78633668D01*
X126887813Y-78634593D01*
X126668262Y-78635267D01*
X126415291Y-78635727D01*
X126126526Y-78636006D01*
X125799595Y-78636140D01*
X125525601Y-78636167D01*
X125165031Y-78636102D01*
G36*
X120698992Y-79183311D02*
G01*
X120610486Y-79181142D01*
X120545384Y-79177386D01*
X120498955Y-79171864D01*
X120466470Y-79164399D01*
X120444245Y-79155359D01*
X120386809Y-79103726D01*
X120356698Y-79029577D01*
X120358556Y-78946142D01*
X120364045Y-78926878D01*
X120376103Y-78894297D01*
X120390743Y-78868139D01*
X120412394Y-78847699D01*
X120445487Y-78832271D01*
X120494452Y-78821152D01*
X120563717Y-78813636D01*
X120657713Y-78809017D01*
X120780870Y-78806592D01*
X120937616Y-78805654D01*
X121126738Y-78805500D01*
X121779823Y-78805500D01*
X121844305Y-78869982D01*
X121885577Y-78917751D01*
X121900149Y-78960213D01*
X121896271Y-79011592D01*
X121875725Y-79076493D01*
X121842783Y-79129606D01*
X121840185Y-79132318D01*
X121826179Y-79144667D01*
X121808420Y-79154504D01*
X121782174Y-79162171D01*
X121742702Y-79168012D01*
X121685269Y-79172368D01*
X121605137Y-79175583D01*
X121497570Y-79177999D01*
X121357831Y-79179959D01*
X121181182Y-79181806D01*
X121152233Y-79182084D01*
X120965135Y-79183604D01*
X120815632Y-79184072D01*
X120698992Y-79183311D01*
G37*
X120698992Y-79183311D02*
X120610486Y-79181142D01*
X120545384Y-79177386D01*
X120498955Y-79171864D01*
X120466470Y-79164399D01*
X120444245Y-79155359D01*
X120386809Y-79103726D01*
X120356698Y-79029577D01*
X120358556Y-78946142D01*
X120364045Y-78926878D01*
X120376103Y-78894297D01*
X120390743Y-78868139D01*
X120412394Y-78847699D01*
X120445487Y-78832271D01*
X120494452Y-78821152D01*
X120563717Y-78813636D01*
X120657713Y-78809017D01*
X120780870Y-78806592D01*
X120937616Y-78805654D01*
X121126738Y-78805500D01*
X121779823Y-78805500D01*
X121844305Y-78869982D01*
X121885577Y-78917751D01*
X121900149Y-78960213D01*
X121896271Y-79011592D01*
X121875725Y-79076493D01*
X121842783Y-79129606D01*
X121840185Y-79132318D01*
X121826179Y-79144667D01*
X121808420Y-79154504D01*
X121782174Y-79162171D01*
X121742702Y-79168012D01*
X121685269Y-79172368D01*
X121605137Y-79175583D01*
X121497570Y-79177999D01*
X121357831Y-79179959D01*
X121181182Y-79181806D01*
X121152233Y-79182084D01*
X120965135Y-79183604D01*
X120815632Y-79184072D01*
X120698992Y-79183311D01*
G36*
X125331238Y-79186386D02*
G01*
X125185981Y-79185849D01*
X125073627Y-79184600D01*
X124989459Y-79182351D01*
X124928762Y-79178810D01*
X124886820Y-79173690D01*
X124858919Y-79166699D01*
X124840341Y-79157550D01*
X124826372Y-79145951D01*
X124824567Y-79144167D01*
X124793490Y-79106259D01*
X124782233Y-79080667D01*
X124761254Y-79074486D01*
X124699039Y-79069328D01*
X124596676Y-79065221D01*
X124455252Y-79062196D01*
X124275853Y-79060284D01*
X124059566Y-79059515D01*
X124021660Y-79059500D01*
X123822240Y-79059430D01*
X123661006Y-79059071D01*
X123533810Y-79058195D01*
X123436506Y-79056578D01*
X123364944Y-79053993D01*
X123314979Y-79050214D01*
X123282462Y-79045016D01*
X123263246Y-79038174D01*
X123253184Y-79029460D01*
X123248128Y-79018649D01*
X123247710Y-79017356D01*
X123242433Y-78973323D01*
X123247533Y-78953856D01*
X123272586Y-78947659D01*
X123338522Y-78942464D01*
X123443900Y-78938313D01*
X123587280Y-78935244D01*
X123767222Y-78933298D01*
X123982286Y-78932515D01*
X124019014Y-78932500D01*
X124218369Y-78932403D01*
X124379515Y-78931972D01*
X124506576Y-78930998D01*
X124603675Y-78929269D01*
X124674937Y-78926578D01*
X124724486Y-78922713D01*
X124756446Y-78917464D01*
X124774941Y-78910623D01*
X124784094Y-78901979D01*
X124787522Y-78893395D01*
X124818087Y-78859354D01*
X124879949Y-78840711D01*
X124921861Y-78837372D01*
X124998723Y-78834661D01*
X125103629Y-78832576D01*
X125229675Y-78831109D01*
X125369953Y-78830256D01*
X125517558Y-78830011D01*
X125665584Y-78830369D01*
X125807125Y-78831325D01*
X125935276Y-78832873D01*
X126043129Y-78835009D01*
X126123780Y-78837725D01*
X126170323Y-78841019D01*
X126174748Y-78841710D01*
X126224659Y-78866240D01*
X126248631Y-78891745D01*
X126257022Y-78902480D01*
X126270219Y-78911147D01*
X126292451Y-78917966D01*
X126327945Y-78923157D01*
X126380928Y-78926942D01*
X126455629Y-78929541D01*
X126556275Y-78931175D01*
X126687094Y-78932066D01*
X126852313Y-78932434D01*
X127028727Y-78932500D01*
X127228831Y-78932655D01*
X127390686Y-78933243D01*
X127518374Y-78934445D01*
X127615978Y-78936446D01*
X127687582Y-78939429D01*
X127737268Y-78943576D01*
X127769119Y-78949071D01*
X127787219Y-78956097D01*
X127795650Y-78964837D01*
X127796584Y-78966933D01*
X127804021Y-78990548D01*
X127803899Y-79009769D01*
X127792457Y-79025047D01*
X127765935Y-79036833D01*
X127720573Y-79045579D01*
X127652609Y-79051736D01*
X127558283Y-79055755D01*
X127433834Y-79058086D01*
X127275502Y-79059182D01*
X127079526Y-79059492D01*
X127024937Y-79059500D01*
X126288323Y-79059500D01*
X126161323Y-79186500D01*
X125514112Y-79186500D01*
X125331238Y-79186386D01*
G37*
X125331238Y-79186386D02*
X125185981Y-79185849D01*
X125073627Y-79184600D01*
X124989459Y-79182351D01*
X124928762Y-79178810D01*
X124886820Y-79173690D01*
X124858919Y-79166699D01*
X124840341Y-79157550D01*
X124826372Y-79145951D01*
X124824567Y-79144167D01*
X124793490Y-79106259D01*
X124782233Y-79080667D01*
X124761254Y-79074486D01*
X124699039Y-79069328D01*
X124596676Y-79065221D01*
X124455252Y-79062196D01*
X124275853Y-79060284D01*
X124059566Y-79059515D01*
X124021660Y-79059500D01*
X123822240Y-79059430D01*
X123661006Y-79059071D01*
X123533810Y-79058195D01*
X123436506Y-79056578D01*
X123364944Y-79053993D01*
X123314979Y-79050214D01*
X123282462Y-79045016D01*
X123263246Y-79038174D01*
X123253184Y-79029460D01*
X123248128Y-79018649D01*
X123247710Y-79017356D01*
X123242433Y-78973323D01*
X123247533Y-78953856D01*
X123272586Y-78947659D01*
X123338522Y-78942464D01*
X123443900Y-78938313D01*
X123587280Y-78935244D01*
X123767222Y-78933298D01*
X123982286Y-78932515D01*
X124019014Y-78932500D01*
X124218369Y-78932403D01*
X124379515Y-78931972D01*
X124506576Y-78930998D01*
X124603675Y-78929269D01*
X124674937Y-78926578D01*
X124724486Y-78922713D01*
X124756446Y-78917464D01*
X124774941Y-78910623D01*
X124784094Y-78901979D01*
X124787522Y-78893395D01*
X124818087Y-78859354D01*
X124879949Y-78840711D01*
X124921861Y-78837372D01*
X124998723Y-78834661D01*
X125103629Y-78832576D01*
X125229675Y-78831109D01*
X125369953Y-78830256D01*
X125517558Y-78830011D01*
X125665584Y-78830369D01*
X125807125Y-78831325D01*
X125935276Y-78832873D01*
X126043129Y-78835009D01*
X126123780Y-78837725D01*
X126170323Y-78841019D01*
X126174748Y-78841710D01*
X126224659Y-78866240D01*
X126248631Y-78891745D01*
X126257022Y-78902480D01*
X126270219Y-78911147D01*
X126292451Y-78917966D01*
X126327945Y-78923157D01*
X126380928Y-78926942D01*
X126455629Y-78929541D01*
X126556275Y-78931175D01*
X126687094Y-78932066D01*
X126852313Y-78932434D01*
X127028727Y-78932500D01*
X127228831Y-78932655D01*
X127390686Y-78933243D01*
X127518374Y-78934445D01*
X127615978Y-78936446D01*
X127687582Y-78939429D01*
X127737268Y-78943576D01*
X127769119Y-78949071D01*
X127787219Y-78956097D01*
X127795650Y-78964837D01*
X127796584Y-78966933D01*
X127804021Y-78990548D01*
X127803899Y-79009769D01*
X127792457Y-79025047D01*
X127765935Y-79036833D01*
X127720573Y-79045579D01*
X127652609Y-79051736D01*
X127558283Y-79055755D01*
X127433834Y-79058086D01*
X127275502Y-79059182D01*
X127079526Y-79059492D01*
X127024937Y-79059500D01*
X126288323Y-79059500D01*
X126161323Y-79186500D01*
X125514112Y-79186500D01*
X125331238Y-79186386D01*
G36*
X124807182Y-79556917D02*
G01*
X124765558Y-79504000D01*
X123274909Y-79504000D01*
X123233285Y-79556917D01*
X123191661Y-79609833D01*
X121133493Y-79609833D01*
X120776960Y-79609725D01*
X120460667Y-79609381D01*
X120182520Y-79608776D01*
X119940426Y-79607883D01*
X119732291Y-79606675D01*
X119556022Y-79605127D01*
X119409525Y-79603211D01*
X119290708Y-79600902D01*
X119197476Y-79598172D01*
X119127737Y-79594996D01*
X119079397Y-79591346D01*
X119050362Y-79587197D01*
X119039452Y-79583375D01*
X118999081Y-79530087D01*
X118980665Y-79456264D01*
X118984223Y-79377360D01*
X119009771Y-79308831D01*
X119039107Y-79276483D01*
X119053807Y-79271898D01*
X119086025Y-79267835D01*
X119137858Y-79264268D01*
X119211404Y-79261169D01*
X119308759Y-79258513D01*
X119432018Y-79256272D01*
X119583280Y-79254421D01*
X119764640Y-79252932D01*
X119978196Y-79251780D01*
X120226044Y-79250937D01*
X120510280Y-79250378D01*
X120833001Y-79250075D01*
X121133517Y-79250000D01*
X121477162Y-79250052D01*
X121780940Y-79250234D01*
X122047315Y-79250585D01*
X122278753Y-79251144D01*
X122477720Y-79251951D01*
X122646682Y-79253045D01*
X122788103Y-79254464D01*
X122904449Y-79256249D01*
X122998187Y-79258438D01*
X123071780Y-79261071D01*
X123127696Y-79264186D01*
X123168398Y-79267824D01*
X123196354Y-79272023D01*
X123214028Y-79276822D01*
X123223886Y-79282261D01*
X123224972Y-79283262D01*
X123251689Y-79317961D01*
X123258233Y-79336179D01*
X123278843Y-79341236D01*
X123338451Y-79345682D01*
X123433724Y-79349431D01*
X123561331Y-79352398D01*
X123717939Y-79354497D01*
X123900217Y-79355641D01*
X124020233Y-79355833D01*
X124216283Y-79355302D01*
X124388658Y-79353764D01*
X124534026Y-79351307D01*
X124649055Y-79348016D01*
X124730413Y-79343976D01*
X124774768Y-79339274D01*
X124782233Y-79336179D01*
X124795742Y-79306883D01*
X124815495Y-79283262D01*
X124829401Y-79273913D01*
X124853318Y-79266460D01*
X124891643Y-79260699D01*
X124948776Y-79256421D01*
X125029115Y-79253422D01*
X125137059Y-79251493D01*
X125277006Y-79250430D01*
X125453355Y-79250025D01*
X125524091Y-79250000D01*
X126199424Y-79250000D01*
X126234097Y-79302917D01*
X126268769Y-79355833D01*
X127017006Y-79355833D01*
X127214860Y-79355922D01*
X127374608Y-79356339D01*
X127500476Y-79357307D01*
X127596692Y-79359052D01*
X127667482Y-79361797D01*
X127717074Y-79365766D01*
X127749695Y-79371185D01*
X127769570Y-79378276D01*
X127780929Y-79387266D01*
X127787113Y-79396697D01*
X127796349Y-79439329D01*
X127775763Y-79470780D01*
X127762386Y-79479750D01*
X127739258Y-79486977D01*
X127702180Y-79492642D01*
X127646953Y-79496928D01*
X127569378Y-79500014D01*
X127465258Y-79502082D01*
X127330392Y-79503314D01*
X127160583Y-79503890D01*
X127005656Y-79504000D01*
X126268769Y-79504000D01*
X126234097Y-79556917D01*
X126199424Y-79609833D01*
X124848806Y-79609833D01*
X124807182Y-79556917D01*
G37*
X124807182Y-79556917D02*
X124765558Y-79504000D01*
X123274909Y-79504000D01*
X123233285Y-79556917D01*
X123191661Y-79609833D01*
X121133493Y-79609833D01*
X120776960Y-79609725D01*
X120460667Y-79609381D01*
X120182520Y-79608776D01*
X119940426Y-79607883D01*
X119732291Y-79606675D01*
X119556022Y-79605127D01*
X119409525Y-79603211D01*
X119290708Y-79600902D01*
X119197476Y-79598172D01*
X119127737Y-79594996D01*
X119079397Y-79591346D01*
X119050362Y-79587197D01*
X119039452Y-79583375D01*
X118999081Y-79530087D01*
X118980665Y-79456264D01*
X118984223Y-79377360D01*
X119009771Y-79308831D01*
X119039107Y-79276483D01*
X119053807Y-79271898D01*
X119086025Y-79267835D01*
X119137858Y-79264268D01*
X119211404Y-79261169D01*
X119308759Y-79258513D01*
X119432018Y-79256272D01*
X119583280Y-79254421D01*
X119764640Y-79252932D01*
X119978196Y-79251780D01*
X120226044Y-79250937D01*
X120510280Y-79250378D01*
X120833001Y-79250075D01*
X121133517Y-79250000D01*
X121477162Y-79250052D01*
X121780940Y-79250234D01*
X122047315Y-79250585D01*
X122278753Y-79251144D01*
X122477720Y-79251951D01*
X122646682Y-79253045D01*
X122788103Y-79254464D01*
X122904449Y-79256249D01*
X122998187Y-79258438D01*
X123071780Y-79261071D01*
X123127696Y-79264186D01*
X123168398Y-79267824D01*
X123196354Y-79272023D01*
X123214028Y-79276822D01*
X123223886Y-79282261D01*
X123224972Y-79283262D01*
X123251689Y-79317961D01*
X123258233Y-79336179D01*
X123278843Y-79341236D01*
X123338451Y-79345682D01*
X123433724Y-79349431D01*
X123561331Y-79352398D01*
X123717939Y-79354497D01*
X123900217Y-79355641D01*
X124020233Y-79355833D01*
X124216283Y-79355302D01*
X124388658Y-79353764D01*
X124534026Y-79351307D01*
X124649055Y-79348016D01*
X124730413Y-79343976D01*
X124774768Y-79339274D01*
X124782233Y-79336179D01*
X124795742Y-79306883D01*
X124815495Y-79283262D01*
X124829401Y-79273913D01*
X124853318Y-79266460D01*
X124891643Y-79260699D01*
X124948776Y-79256421D01*
X125029115Y-79253422D01*
X125137059Y-79251493D01*
X125277006Y-79250430D01*
X125453355Y-79250025D01*
X125524091Y-79250000D01*
X126199424Y-79250000D01*
X126234097Y-79302917D01*
X126268769Y-79355833D01*
X127017006Y-79355833D01*
X127214860Y-79355922D01*
X127374608Y-79356339D01*
X127500476Y-79357307D01*
X127596692Y-79359052D01*
X127667482Y-79361797D01*
X127717074Y-79365766D01*
X127749695Y-79371185D01*
X127769570Y-79378276D01*
X127780929Y-79387266D01*
X127787113Y-79396697D01*
X127796349Y-79439329D01*
X127775763Y-79470780D01*
X127762386Y-79479750D01*
X127739258Y-79486977D01*
X127702180Y-79492642D01*
X127646953Y-79496928D01*
X127569378Y-79500014D01*
X127465258Y-79502082D01*
X127330392Y-79503314D01*
X127160583Y-79503890D01*
X127005656Y-79504000D01*
X126268769Y-79504000D01*
X126234097Y-79556917D01*
X126199424Y-79609833D01*
X124848806Y-79609833D01*
X124807182Y-79556917D01*
G36*
X119033777Y-80005318D02*
G01*
X118987464Y-79940191D01*
X118972711Y-79861189D01*
X118989520Y-79782656D01*
X119033777Y-79722349D01*
X119090761Y-79673333D01*
X121127454Y-79673333D01*
X121469810Y-79673390D01*
X121772323Y-79673584D01*
X122037479Y-79673956D01*
X122267770Y-79674544D01*
X122465683Y-79675390D01*
X122633708Y-79676530D01*
X122774333Y-79678006D01*
X122890047Y-79679856D01*
X122983341Y-79682120D01*
X123056701Y-79684837D01*
X123112618Y-79688047D01*
X123153580Y-79691788D01*
X123182077Y-79696101D01*
X123200597Y-79701024D01*
X123211190Y-79706284D01*
X123246384Y-79741266D01*
X123258233Y-79769784D01*
X123263284Y-79777914D01*
X123280995Y-79784500D01*
X123315203Y-79789698D01*
X123369747Y-79793660D01*
X123448466Y-79796540D01*
X123555196Y-79798492D01*
X123693777Y-79799671D01*
X123868045Y-79800229D01*
X124020233Y-79800333D01*
X124242558Y-79799751D01*
X124428160Y-79798022D01*
X124575954Y-79795179D01*
X124684858Y-79791250D01*
X124753787Y-79786266D01*
X124781656Y-79780256D01*
X124782233Y-79779167D01*
X124795896Y-79749966D01*
X124824567Y-79715667D01*
X124838179Y-79703787D01*
X124855728Y-79694362D01*
X124881895Y-79687110D01*
X124921358Y-79681747D01*
X124978797Y-79677989D01*
X125058890Y-79675553D01*
X125166317Y-79674154D01*
X125305757Y-79673510D01*
X125481889Y-79673337D01*
X125523067Y-79673333D01*
X125707321Y-79673445D01*
X125853921Y-79673969D01*
X125967546Y-79675190D01*
X126052876Y-79677390D01*
X126114590Y-79680853D01*
X126157366Y-79685863D01*
X126185884Y-79692704D01*
X126204823Y-79701658D01*
X126218862Y-79713010D01*
X126221567Y-79715667D01*
X126252644Y-79753575D01*
X126263900Y-79779167D01*
X126284876Y-79785387D01*
X126347062Y-79790572D01*
X126449347Y-79794689D01*
X126590620Y-79797708D01*
X126769771Y-79799598D01*
X126985688Y-79800326D01*
X127012725Y-79800333D01*
X127220268Y-79800512D01*
X127389215Y-79801343D01*
X127523302Y-79803266D01*
X127626266Y-79806724D01*
X127701843Y-79812157D01*
X127753771Y-79820007D01*
X127785785Y-79830715D01*
X127801622Y-79844722D01*
X127805019Y-79862470D01*
X127799712Y-79884400D01*
X127796584Y-79892901D01*
X127789701Y-79902000D01*
X127774038Y-79909358D01*
X127745526Y-79915156D01*
X127700095Y-79919575D01*
X127633677Y-79922795D01*
X127542203Y-79925000D01*
X127421602Y-79926369D01*
X127267808Y-79927083D01*
X127076749Y-79927326D01*
X127023636Y-79927333D01*
X126801699Y-79927918D01*
X126616471Y-79929651D01*
X126469041Y-79932503D01*
X126360496Y-79936443D01*
X126291926Y-79941441D01*
X126264418Y-79947466D01*
X126263900Y-79948500D01*
X126250238Y-79977701D01*
X126221567Y-80012000D01*
X126207955Y-80023880D01*
X126190405Y-80033305D01*
X126164238Y-80040557D01*
X126124775Y-80045920D01*
X126067337Y-80049678D01*
X125987244Y-80052114D01*
X125879817Y-80053513D01*
X125740377Y-80054157D01*
X125564245Y-80054330D01*
X125523067Y-80054333D01*
X125338813Y-80054222D01*
X125192213Y-80053698D01*
X125078587Y-80052477D01*
X124993257Y-80050277D01*
X124931544Y-80046814D01*
X124888768Y-80041804D01*
X124860250Y-80034963D01*
X124841311Y-80026009D01*
X124827272Y-80014657D01*
X124824567Y-80012000D01*
X124793490Y-79974092D01*
X124782233Y-79948500D01*
X124761253Y-79942324D01*
X124699035Y-79937169D01*
X124596663Y-79933063D01*
X124455221Y-79930038D01*
X124275792Y-79928124D01*
X124059461Y-79927350D01*
X124020233Y-79927333D01*
X123817447Y-79927536D01*
X123653155Y-79928246D01*
X123523518Y-79929617D01*
X123424699Y-79931804D01*
X123352860Y-79934960D01*
X123304163Y-79939239D01*
X123274769Y-79944795D01*
X123260841Y-79951782D01*
X123258233Y-79957883D01*
X123242323Y-79991882D01*
X123211190Y-80021383D01*
X123199823Y-80026921D01*
X123180836Y-80031810D01*
X123151739Y-80036092D01*
X123110045Y-80039804D01*
X123053264Y-80042986D01*
X122978906Y-80045678D01*
X122884484Y-80047919D01*
X122767509Y-80049748D01*
X122625490Y-80051205D01*
X122455940Y-80052329D01*
X122256369Y-80053160D01*
X122024288Y-80053736D01*
X121757209Y-80054098D01*
X121452642Y-80054284D01*
X121127454Y-80054333D01*
X119090761Y-80054333D01*
X119033777Y-80005318D01*
G37*
X119033777Y-80005318D02*
X118987464Y-79940191D01*
X118972711Y-79861189D01*
X118989520Y-79782656D01*
X119033777Y-79722349D01*
X119090761Y-79673333D01*
X121127454Y-79673333D01*
X121469810Y-79673390D01*
X121772323Y-79673584D01*
X122037479Y-79673956D01*
X122267770Y-79674544D01*
X122465683Y-79675390D01*
X122633708Y-79676530D01*
X122774333Y-79678006D01*
X122890047Y-79679856D01*
X122983341Y-79682120D01*
X123056701Y-79684837D01*
X123112618Y-79688047D01*
X123153580Y-79691788D01*
X123182077Y-79696101D01*
X123200597Y-79701024D01*
X123211190Y-79706284D01*
X123246384Y-79741266D01*
X123258233Y-79769784D01*
X123263284Y-79777914D01*
X123280995Y-79784500D01*
X123315203Y-79789698D01*
X123369747Y-79793660D01*
X123448466Y-79796540D01*
X123555196Y-79798492D01*
X123693777Y-79799671D01*
X123868045Y-79800229D01*
X124020233Y-79800333D01*
X124242558Y-79799751D01*
X124428160Y-79798022D01*
X124575954Y-79795179D01*
X124684858Y-79791250D01*
X124753787Y-79786266D01*
X124781656Y-79780256D01*
X124782233Y-79779167D01*
X124795896Y-79749966D01*
X124824567Y-79715667D01*
X124838179Y-79703787D01*
X124855728Y-79694362D01*
X124881895Y-79687110D01*
X124921358Y-79681747D01*
X124978797Y-79677989D01*
X125058890Y-79675553D01*
X125166317Y-79674154D01*
X125305757Y-79673510D01*
X125481889Y-79673337D01*
X125523067Y-79673333D01*
X125707321Y-79673445D01*
X125853921Y-79673969D01*
X125967546Y-79675190D01*
X126052876Y-79677390D01*
X126114590Y-79680853D01*
X126157366Y-79685863D01*
X126185884Y-79692704D01*
X126204823Y-79701658D01*
X126218862Y-79713010D01*
X126221567Y-79715667D01*
X126252644Y-79753575D01*
X126263900Y-79779167D01*
X126284876Y-79785387D01*
X126347062Y-79790572D01*
X126449347Y-79794689D01*
X126590620Y-79797708D01*
X126769771Y-79799598D01*
X126985688Y-79800326D01*
X127012725Y-79800333D01*
X127220268Y-79800512D01*
X127389215Y-79801343D01*
X127523302Y-79803266D01*
X127626266Y-79806724D01*
X127701843Y-79812157D01*
X127753771Y-79820007D01*
X127785785Y-79830715D01*
X127801622Y-79844722D01*
X127805019Y-79862470D01*
X127799712Y-79884400D01*
X127796584Y-79892901D01*
X127789701Y-79902000D01*
X127774038Y-79909358D01*
X127745526Y-79915156D01*
X127700095Y-79919575D01*
X127633677Y-79922795D01*
X127542203Y-79925000D01*
X127421602Y-79926369D01*
X127267808Y-79927083D01*
X127076749Y-79927326D01*
X127023636Y-79927333D01*
X126801699Y-79927918D01*
X126616471Y-79929651D01*
X126469041Y-79932503D01*
X126360496Y-79936443D01*
X126291926Y-79941441D01*
X126264418Y-79947466D01*
X126263900Y-79948500D01*
X126250238Y-79977701D01*
X126221567Y-80012000D01*
X126207955Y-80023880D01*
X126190405Y-80033305D01*
X126164238Y-80040557D01*
X126124775Y-80045920D01*
X126067337Y-80049678D01*
X125987244Y-80052114D01*
X125879817Y-80053513D01*
X125740377Y-80054157D01*
X125564245Y-80054330D01*
X125523067Y-80054333D01*
X125338813Y-80054222D01*
X125192213Y-80053698D01*
X125078587Y-80052477D01*
X124993257Y-80050277D01*
X124931544Y-80046814D01*
X124888768Y-80041804D01*
X124860250Y-80034963D01*
X124841311Y-80026009D01*
X124827272Y-80014657D01*
X124824567Y-80012000D01*
X124793490Y-79974092D01*
X124782233Y-79948500D01*
X124761253Y-79942324D01*
X124699035Y-79937169D01*
X124596663Y-79933063D01*
X124455221Y-79930038D01*
X124275792Y-79928124D01*
X124059461Y-79927350D01*
X124020233Y-79927333D01*
X123817447Y-79927536D01*
X123653155Y-79928246D01*
X123523518Y-79929617D01*
X123424699Y-79931804D01*
X123352860Y-79934960D01*
X123304163Y-79939239D01*
X123274769Y-79944795D01*
X123260841Y-79951782D01*
X123258233Y-79957883D01*
X123242323Y-79991882D01*
X123211190Y-80021383D01*
X123199823Y-80026921D01*
X123180836Y-80031810D01*
X123151739Y-80036092D01*
X123110045Y-80039804D01*
X123053264Y-80042986D01*
X122978906Y-80045678D01*
X122884484Y-80047919D01*
X122767509Y-80049748D01*
X122625490Y-80051205D01*
X122455940Y-80052329D01*
X122256369Y-80053160D01*
X122024288Y-80053736D01*
X121757209Y-80054098D01*
X121452642Y-80054284D01*
X121127454Y-80054333D01*
X119090761Y-80054333D01*
X119033777Y-80005318D01*
G36*
X125334038Y-80477442D02*
G01*
X125181919Y-80476632D01*
X125063334Y-80475028D01*
X124973885Y-80472424D01*
X124909173Y-80468615D01*
X124864800Y-80463394D01*
X124836367Y-80456553D01*
X124819475Y-80447888D01*
X124815495Y-80444405D01*
X124788778Y-80409706D01*
X124782233Y-80391488D01*
X124761626Y-80386417D01*
X124702037Y-80381960D01*
X124606813Y-80378204D01*
X124479303Y-80375237D01*
X124322853Y-80373144D01*
X124140812Y-80372014D01*
X124025325Y-80371833D01*
X123826322Y-80371910D01*
X123665421Y-80372291D01*
X123538393Y-80373206D01*
X123441005Y-80374884D01*
X123369029Y-80377552D01*
X123318232Y-80381440D01*
X123284385Y-80386776D01*
X123263257Y-80393789D01*
X123250617Y-80402707D01*
X123242234Y-80413759D01*
X123241979Y-80414167D01*
X123236962Y-80421157D01*
X123229503Y-80427332D01*
X123217100Y-80432743D01*
X123197250Y-80437439D01*
X123167449Y-80441472D01*
X123125195Y-80444892D01*
X123067986Y-80447749D01*
X122993317Y-80450094D01*
X122898687Y-80451978D01*
X122781593Y-80453451D01*
X122639531Y-80454564D01*
X122469999Y-80455366D01*
X122270494Y-80455910D01*
X122038514Y-80456244D01*
X121771554Y-80456420D01*
X121467113Y-80456489D01*
X121145077Y-80456500D01*
X119074613Y-80456500D01*
X119028590Y-80407511D01*
X118990886Y-80341050D01*
X118982746Y-80264074D01*
X119004151Y-80192561D01*
X119028891Y-80160991D01*
X119037144Y-80153845D01*
X119047316Y-80147535D01*
X119061942Y-80142008D01*
X119083557Y-80137214D01*
X119114695Y-80133099D01*
X119157893Y-80129612D01*
X119215683Y-80126701D01*
X119290602Y-80124314D01*
X119385184Y-80122399D01*
X119501964Y-80120905D01*
X119643476Y-80119778D01*
X119812255Y-80118967D01*
X120010837Y-80118420D01*
X120241755Y-80118085D01*
X120507546Y-80117910D01*
X120810743Y-80117844D01*
X121133438Y-80117833D01*
X123191661Y-80117833D01*
X123274909Y-80223667D01*
X124765558Y-80223667D01*
X124848806Y-80117833D01*
X126199424Y-80117833D01*
X126234097Y-80170750D01*
X126268769Y-80223667D01*
X127005656Y-80223667D01*
X127204816Y-80223866D01*
X127365842Y-80224582D01*
X127492934Y-80225999D01*
X127590290Y-80228295D01*
X127662109Y-80231653D01*
X127712591Y-80236254D01*
X127745932Y-80242278D01*
X127766333Y-80249907D01*
X127775763Y-80256887D01*
X127797406Y-80295235D01*
X127787113Y-80330970D01*
X127779702Y-80341773D01*
X127767413Y-80350485D01*
X127746018Y-80357331D01*
X127711291Y-80362534D01*
X127659005Y-80366320D01*
X127584933Y-80368912D01*
X127484848Y-80370536D01*
X127354523Y-80371414D01*
X127189731Y-80371771D01*
X127017006Y-80371833D01*
X126268769Y-80371833D01*
X126234097Y-80424750D01*
X126199424Y-80477667D01*
X125524091Y-80477667D01*
X125334038Y-80477442D01*
G37*
X125334038Y-80477442D02*
X125181919Y-80476632D01*
X125063334Y-80475028D01*
X124973885Y-80472424D01*
X124909173Y-80468615D01*
X124864800Y-80463394D01*
X124836367Y-80456553D01*
X124819475Y-80447888D01*
X124815495Y-80444405D01*
X124788778Y-80409706D01*
X124782233Y-80391488D01*
X124761626Y-80386417D01*
X124702037Y-80381960D01*
X124606813Y-80378204D01*
X124479303Y-80375237D01*
X124322853Y-80373144D01*
X124140812Y-80372014D01*
X124025325Y-80371833D01*
X123826322Y-80371910D01*
X123665421Y-80372291D01*
X123538393Y-80373206D01*
X123441005Y-80374884D01*
X123369029Y-80377552D01*
X123318232Y-80381440D01*
X123284385Y-80386776D01*
X123263257Y-80393789D01*
X123250617Y-80402707D01*
X123242234Y-80413759D01*
X123241979Y-80414167D01*
X123236962Y-80421157D01*
X123229503Y-80427332D01*
X123217100Y-80432743D01*
X123197250Y-80437439D01*
X123167449Y-80441472D01*
X123125195Y-80444892D01*
X123067986Y-80447749D01*
X122993317Y-80450094D01*
X122898687Y-80451978D01*
X122781593Y-80453451D01*
X122639531Y-80454564D01*
X122469999Y-80455366D01*
X122270494Y-80455910D01*
X122038514Y-80456244D01*
X121771554Y-80456420D01*
X121467113Y-80456489D01*
X121145077Y-80456500D01*
X119074613Y-80456500D01*
X119028590Y-80407511D01*
X118990886Y-80341050D01*
X118982746Y-80264074D01*
X119004151Y-80192561D01*
X119028891Y-80160991D01*
X119037144Y-80153845D01*
X119047316Y-80147535D01*
X119061942Y-80142008D01*
X119083557Y-80137214D01*
X119114695Y-80133099D01*
X119157893Y-80129612D01*
X119215683Y-80126701D01*
X119290602Y-80124314D01*
X119385184Y-80122399D01*
X119501964Y-80120905D01*
X119643476Y-80119778D01*
X119812255Y-80118967D01*
X120010837Y-80118420D01*
X120241755Y-80118085D01*
X120507546Y-80117910D01*
X120810743Y-80117844D01*
X121133438Y-80117833D01*
X123191661Y-80117833D01*
X123274909Y-80223667D01*
X124765558Y-80223667D01*
X124848806Y-80117833D01*
X126199424Y-80117833D01*
X126234097Y-80170750D01*
X126268769Y-80223667D01*
X127005656Y-80223667D01*
X127204816Y-80223866D01*
X127365842Y-80224582D01*
X127492934Y-80225999D01*
X127590290Y-80228295D01*
X127662109Y-80231653D01*
X127712591Y-80236254D01*
X127745932Y-80242278D01*
X127766333Y-80249907D01*
X127775763Y-80256887D01*
X127797406Y-80295235D01*
X127787113Y-80330970D01*
X127779702Y-80341773D01*
X127767413Y-80350485D01*
X127746018Y-80357331D01*
X127711291Y-80362534D01*
X127659005Y-80366320D01*
X127584933Y-80368912D01*
X127484848Y-80370536D01*
X127354523Y-80371414D01*
X127189731Y-80371771D01*
X127017006Y-80371833D01*
X126268769Y-80371833D01*
X126234097Y-80424750D01*
X126199424Y-80477667D01*
X125524091Y-80477667D01*
X125334038Y-80477442D01*
D12*
%TO.C,J31*%
X179468340Y-95806600D02*
G75*
G03*
X179468340Y-95806600I-1251000J0D01*
G01*
%TD*%
M02*
