M48
; DRILL file {KiCad (6.0.2)} date Thu Feb  9 01:52:26 2023
; FORMAT={-:-/ absolute / metric / decimal}
; #@! TF.CreationDate,2023-02-09T01:52:26-05:00
; #@! TF.GenerationSoftware,Kicad,Pcbnew,(6.0.2)
; #@! TF.FileFunction,Plated,1,2,PTH
FMAT,2
METRIC
; #@! TA.AperFunction,Plated,PTH,ViaDrill
T1C0.400
; #@! TA.AperFunction,Plated,PTH,ComponentDrill
T2C1.000
%
G90
G05
T1
X169.826Y-91.303
X169.826Y-96.253
T2
X116.853Y-82.18
X116.853Y-84.72
X116.853Y-87.26
X116.853Y-89.8
X116.853Y-92.34
X116.853Y-94.88
X116.853Y-97.42
X116.853Y-99.96
X116.853Y-102.5
X116.853Y-105.04
X116.853Y-107.58
X116.853Y-110.12
X116.853Y-112.66
X116.853Y-115.2
X131.489Y-115.18
X131.493Y-102.658
X131.518Y-90.136
X131.544Y-77.639
X142.491Y-77.639
X142.491Y-102.658
X142.491Y-115.155
X142.517Y-90.136
X153.513Y-115.18
X153.515Y-90.161
X153.515Y-102.607
X153.515Y-127.626
X153.642Y-77.715
X164.488Y-77.614
X164.488Y-127.652
X164.508Y-90.161
X164.513Y-102.658
X164.513Y-115.155
X175.486Y-90.161
X175.486Y-102.671
X175.511Y-77.639
X175.511Y-115.13
X175.511Y-127.652
X186.053Y-82.18
X186.053Y-84.72
X186.053Y-87.26
X186.053Y-89.8
X186.053Y-92.34
X186.053Y-94.88
X186.053Y-97.42
X186.053Y-99.96
X186.053Y-102.5
X186.053Y-105.04
X186.053Y-107.58
X186.053Y-110.12
X186.053Y-112.66
X186.053Y-115.2
T2
G00X122.551Y-94.953
M15
G01X122.551Y-94.953
M16
G05
G00X122.551Y-97.453
M15
G01X122.551Y-97.453
M16
G05
G00X122.551Y-99.953
M15
G01X122.551Y-99.953
M16
G05
G00X122.626Y-109.778
M15
G01X122.626Y-109.778
M16
G05
G00X122.626Y-112.278
M15
G01X122.626Y-112.278
M16
G05
G00X122.626Y-114.778
M15
G01X122.626Y-114.778
M16
G05
G00X180.401Y-94.753
M15
G01X180.401Y-94.753
M16
G05
G00X180.401Y-97.253
M15
G01X180.401Y-97.253
M16
G05
G00X180.401Y-99.753
M15
G01X180.401Y-99.753
M16
G05
T0
M30
