%TF.GenerationSoftware,KiCad,Pcbnew,(6.0.2)*%
%TF.CreationDate,2022-05-27T20:06:33-04:00*%
%TF.ProjectId,top,746f702e-6b69-4636-9164-5f7063625858,rev?*%
%TF.SameCoordinates,Original*%
%TF.FileFunction,Soldermask,Bot*%
%TF.FilePolarity,Negative*%
%FSLAX46Y46*%
G04 Gerber Fmt 4.6, Leading zero omitted, Abs format (unit mm)*
G04 Created by KiCad (PCBNEW (6.0.2)) date 2022-05-27 20:06:33*
%MOMM*%
%LPD*%
G01*
G04 APERTURE LIST*
%ADD10C,2.000000*%
%ADD11R,1.700000X1.700000*%
%ADD12O,1.700000X1.700000*%
G04 APERTURE END LIST*
D10*
%TO.C,J20*%
X161986740Y-123772000D03*
%TD*%
%TO.C,J18*%
X129042940Y-73759400D03*
%TD*%
%TO.C,J15*%
X128988000Y-111300600D03*
%TD*%
%TO.C,J12*%
X172984940Y-86281600D03*
%TD*%
%TO.C,J28*%
X151013940Y-86281600D03*
%TD*%
%TO.C,J8*%
X172984940Y-98791100D03*
%TD*%
%TO.C,J7*%
X151140940Y-73835600D03*
%TD*%
%TO.C,J4*%
X151012400Y-111300600D03*
%TD*%
%TO.C,J13*%
X162007060Y-86281600D03*
%TD*%
%TO.C,J9*%
X162012140Y-98778400D03*
%TD*%
D11*
%TO.C,J29*%
X183552400Y-78300000D03*
D12*
X183552400Y-80840000D03*
X183552400Y-83380000D03*
X183552400Y-85920000D03*
X183552400Y-88460000D03*
X183552400Y-91000000D03*
X183552400Y-93540000D03*
X183552400Y-96080000D03*
X183552400Y-98620000D03*
X183552400Y-101160000D03*
X183552400Y-103700000D03*
X183552400Y-106240000D03*
X183552400Y-108780000D03*
X183552400Y-111320000D03*
%TD*%
D10*
%TO.C,J21*%
X151013940Y-123746600D03*
%TD*%
%TO.C,J24*%
X129017540Y-86256200D03*
%TD*%
%TO.C,J14*%
X140015740Y-86256200D03*
%TD*%
%TO.C,J10*%
X151013940Y-98727600D03*
%TD*%
%TO.C,J19*%
X173010340Y-123772000D03*
%TD*%
%TO.C,J22*%
X139990340Y-111275200D03*
%TD*%
D11*
%TO.C,J30*%
X114352400Y-78300000D03*
D12*
X114352400Y-80840000D03*
X114352400Y-83380000D03*
X114352400Y-85920000D03*
X114352400Y-88460000D03*
X114352400Y-91000000D03*
X114352400Y-93540000D03*
X114352400Y-96080000D03*
X114352400Y-98620000D03*
X114352400Y-101160000D03*
X114352400Y-103700000D03*
X114352400Y-106240000D03*
X114352400Y-108780000D03*
X114352400Y-111320000D03*
%TD*%
D10*
%TO.C,J23*%
X128992140Y-98778400D03*
%TD*%
%TO.C,J16*%
X161986740Y-73734000D03*
%TD*%
%TO.C,J11*%
X139990340Y-98778400D03*
%TD*%
%TO.C,J6*%
X173010340Y-111249800D03*
%TD*%
%TO.C,J25*%
X139990340Y-73759400D03*
%TD*%
%TO.C,J5*%
X162012140Y-111275200D03*
%TD*%
%TO.C,J17*%
X173010340Y-73759400D03*
%TD*%
M02*
