%TF.GenerationSoftware,KiCad,Pcbnew,(6.0.2)*%
%TF.CreationDate,2023-02-09T01:22:52-05:00*%
%TF.ProjectId,bottom,626f7474-6f6d-42e6-9b69-6361645f7063,rev?*%
%TF.SameCoordinates,Original*%
%TF.FileFunction,Soldermask,Bot*%
%TF.FilePolarity,Negative*%
%FSLAX46Y46*%
G04 Gerber Fmt 4.6, Leading zero omitted, Abs format (unit mm)*
G04 Created by KiCad (PCBNEW (6.0.2)) date 2023-02-09 01:22:52*
%MOMM*%
%LPD*%
G01*
G04 APERTURE LIST*
G04 Aperture macros list*
%AMRoundRect*
0 Rectangle with rounded corners*
0 $1 Rounding radius*
0 $2 $3 $4 $5 $6 $7 $8 $9 X,Y pos of 4 corners*
0 Add a 4 corners polygon primitive as box body*
4,1,4,$2,$3,$4,$5,$6,$7,$8,$9,$2,$3,0*
0 Add four circle primitives for the rounded corners*
1,1,$1+$1,$2,$3*
1,1,$1+$1,$4,$5*
1,1,$1+$1,$6,$7*
1,1,$1+$1,$8,$9*
0 Add four rect primitives between the rounded corners*
20,1,$1+$1,$2,$3,$4,$5,0*
20,1,$1+$1,$4,$5,$6,$7,0*
20,1,$1+$1,$6,$7,$8,$9,0*
20,1,$1+$1,$8,$9,$2,$3,0*%
G04 Aperture macros list end*
%ADD10C,2.499360*%
%ADD11R,1.700000X1.700000*%
%ADD12O,1.700000X1.700000*%
%ADD13R,1.600000X1.600000*%
%ADD14C,1.700000*%
%ADD15C,1.200000*%
%ADD16C,2.020000*%
%ADD17R,1.428000X1.428000*%
%ADD18C,1.428000*%
%ADD19C,3.316000*%
%ADD20RoundRect,0.135000X0.226274X0.035355X0.035355X0.226274X-0.226274X-0.035355X-0.035355X-0.226274X0*%
%ADD21RoundRect,0.135000X-0.035355X0.226274X-0.226274X0.035355X0.035355X-0.226274X0.226274X-0.035355X0*%
%ADD22RoundRect,0.250000X0.512652X0.159099X0.159099X0.512652X-0.512652X-0.159099X-0.159099X-0.512652X0*%
%ADD23RoundRect,0.135000X0.035355X-0.226274X0.226274X-0.035355X-0.035355X0.226274X-0.226274X0.035355X0*%
%ADD24R,2.200000X1.600000*%
%ADD25R,1.500000X3.500000*%
%ADD26RoundRect,0.250000X-0.512652X-0.159099X-0.159099X-0.512652X0.512652X0.159099X0.159099X0.512652X0*%
%ADD27RoundRect,0.140000X0.219203X0.021213X0.021213X0.219203X-0.219203X-0.021213X-0.021213X-0.219203X0*%
%ADD28R,3.500000X1.500000*%
G04 APERTURE END LIST*
D10*
%TO.C,J40*%
X145511780Y-71077200D03*
X153009860Y-71079740D03*
X160507940Y-71077200D03*
X148013680Y-73579100D03*
X158006040Y-73579100D03*
%TD*%
D11*
%TO.C,J31*%
X184402400Y-86280000D03*
D12*
X184402400Y-88820000D03*
X184402400Y-91360000D03*
X184402400Y-93900000D03*
X184402400Y-96440000D03*
X184402400Y-98980000D03*
X184402400Y-101520000D03*
X184402400Y-104060000D03*
X184402400Y-106600000D03*
X184402400Y-109140000D03*
X184402400Y-111680000D03*
X184402400Y-114220000D03*
X184402400Y-116760000D03*
X184402400Y-119300000D03*
%TD*%
D11*
%TO.C,J32*%
X115202400Y-86280000D03*
D12*
X115202400Y-88820000D03*
X115202400Y-91360000D03*
X115202400Y-93900000D03*
X115202400Y-96440000D03*
X115202400Y-98980000D03*
X115202400Y-101520000D03*
X115202400Y-104060000D03*
X115202400Y-106600000D03*
X115202400Y-109140000D03*
X115202400Y-111680000D03*
X115202400Y-114220000D03*
X115202400Y-116760000D03*
X115202400Y-119300000D03*
%TD*%
D13*
%TO.C,U1*%
X124369860Y-69240000D03*
D14*
X124369860Y-71780000D03*
X124369860Y-74320000D03*
X124369860Y-76860000D03*
X124369860Y-79400000D03*
X124369860Y-81940000D03*
X124369860Y-84480000D03*
X124369860Y-87020000D03*
X124369860Y-89560000D03*
X124369860Y-92100000D03*
X124369860Y-94640000D03*
X124369860Y-97180000D03*
X124369860Y-99720000D03*
X124369860Y-102260000D03*
X124369860Y-104800000D03*
X124369860Y-107340000D03*
X124369860Y-109880000D03*
X124369860Y-112420000D03*
X124369860Y-114960000D03*
X124369860Y-117500000D03*
X124369860Y-120040000D03*
X124369860Y-122580000D03*
X124369860Y-125120000D03*
X124369860Y-127660000D03*
X139609860Y-127660000D03*
X139609860Y-125120000D03*
X139609860Y-122580000D03*
X139609860Y-120040000D03*
X139609860Y-117500000D03*
X139609860Y-114960000D03*
X139609860Y-112420000D03*
X139609860Y-109880000D03*
X139609860Y-107340000D03*
X139609860Y-104800000D03*
X139609860Y-102260000D03*
X139609860Y-99720000D03*
X139609860Y-97180000D03*
X139609860Y-94640000D03*
X139609860Y-92100000D03*
X139609860Y-89560000D03*
X139609860Y-87020000D03*
X139609860Y-84480000D03*
X139609860Y-81940000D03*
X139609860Y-79400000D03*
X139609860Y-76860000D03*
X139609860Y-74320000D03*
X139609860Y-71780000D03*
X139609860Y-69240000D03*
X137069860Y-71780000D03*
D13*
X127420660Y-75539200D03*
D14*
X127420660Y-78079200D03*
X127420660Y-80619200D03*
X127420660Y-83159200D03*
X127420660Y-85699200D03*
%TD*%
D15*
%TO.C,J2*%
X180714400Y-132927200D03*
X174714400Y-132927200D03*
%TD*%
D10*
%TO.C,J90*%
X167911780Y-70977200D03*
X175409860Y-70979740D03*
X182907940Y-70977200D03*
X170413680Y-73479100D03*
X180406040Y-73479100D03*
%TD*%
D16*
%TO.C,J99*%
X167824800Y-88902800D03*
X165284800Y-88902800D03*
X162744800Y-88902800D03*
X160204800Y-88902800D03*
%TD*%
D17*
%TO.C,J70*%
X120419860Y-72210000D03*
D18*
X120419860Y-74710000D03*
X120419860Y-76710000D03*
X120419860Y-79210000D03*
D19*
X117709860Y-69140000D03*
X117709860Y-82280000D03*
%TD*%
D20*
%TO.C,R22*%
X158254800Y-128012800D03*
X157533552Y-127291552D03*
%TD*%
D21*
%TO.C,R25*%
X155736048Y-122551552D03*
X155014800Y-123272800D03*
%TD*%
D20*
%TO.C,R26*%
X152222200Y-128701600D03*
X151500952Y-127980352D03*
%TD*%
D22*
%TO.C,C28*%
X150324800Y-126792800D03*
X148981298Y-125449298D03*
%TD*%
D23*
%TO.C,R23*%
X159074800Y-128882800D03*
X159796048Y-128161552D03*
%TD*%
D22*
%TO.C,C18*%
X157704800Y-125232800D03*
X156361298Y-123889298D03*
%TD*%
D15*
%TO.C,J0*%
X174162200Y-123860800D03*
X180162200Y-123860800D03*
D24*
X180035200Y-126110800D03*
X172962200Y-126110800D03*
X178130200Y-121610800D03*
%TD*%
D15*
%TO.C,J83*%
X119843800Y-132622400D03*
X125843800Y-132622400D03*
D25*
X120043800Y-128872400D03*
X127043800Y-128872400D03*
X121843800Y-136372400D03*
%TD*%
D23*
%TO.C,R24*%
X153493552Y-124714048D03*
X154214800Y-123992800D03*
%TD*%
D22*
%TO.C,C19*%
X156274800Y-126552800D03*
X154931298Y-125209298D03*
%TD*%
D26*
%TO.C,C29*%
X147281298Y-127299298D03*
X148624800Y-128642800D03*
%TD*%
D27*
%TO.C,C17*%
X154736800Y-129438200D03*
X154057978Y-128759378D03*
%TD*%
D25*
%TO.C,J1*%
X180568600Y-136702600D03*
X173568600Y-136702600D03*
X178768600Y-129202600D03*
%TD*%
D15*
%TO.C,J82*%
X153152400Y-65920000D03*
X153152400Y-59920000D03*
D28*
X156902400Y-60120000D03*
X156902400Y-67120000D03*
X149402400Y-61920000D03*
%TD*%
D20*
%TO.C,R27*%
X153111200Y-127838000D03*
X152389952Y-127116752D03*
%TD*%
D27*
%TO.C,C16*%
X153831611Y-130285611D03*
X153152789Y-129606789D03*
%TD*%
D15*
%TO.C,J81*%
X175852400Y-59920000D03*
X175852400Y-65920000D03*
D28*
X179602400Y-60120000D03*
X179602400Y-67120000D03*
X172102400Y-61920000D03*
%TD*%
M02*
