%TF.GenerationSoftware,KiCad,Pcbnew,(6.0.2)*%
%TF.CreationDate,2022-03-04T10:51:53-05:00*%
%TF.ProjectId,bottom,626f7474-6f6d-42e6-9b69-6361645f7063,rev?*%
%TF.SameCoordinates,Original*%
%TF.FileFunction,Legend,Top*%
%TF.FilePolarity,Positive*%
%FSLAX46Y46*%
G04 Gerber Fmt 4.6, Leading zero omitted, Abs format (unit mm)*
G04 Created by KiCad (PCBNEW (6.0.2)) date 2022-03-04 10:51:53*
%MOMM*%
%LPD*%
G01*
G04 APERTURE LIST*
%ADD10C,0.200000*%
%ADD11C,0.300000*%
%ADD12C,0.125000*%
%ADD13C,0.150000*%
%ADD14C,0.121920*%
%ADD15C,0.015000*%
%ADD16C,0.050800*%
%ADD17C,0.120000*%
%ADD18C,0.203200*%
%ADD19C,0.100000*%
%ADD20C,0.304800*%
%ADD21C,0.127000*%
%ADD22C,2.499360*%
%ADD23C,1.200000*%
G04 APERTURE END LIST*
D10*
X142409860Y-133741904D02*
X142362240Y-133837142D01*
X142362240Y-133980000D01*
X142409860Y-134122857D01*
X142505098Y-134218095D01*
X142600336Y-134265714D01*
X142790812Y-134313333D01*
X142933669Y-134313333D01*
X143124145Y-134265714D01*
X143219383Y-134218095D01*
X143314621Y-134122857D01*
X143362240Y-133980000D01*
X143362240Y-133884761D01*
X143314621Y-133741904D01*
X143267002Y-133694285D01*
X142933669Y-133694285D01*
X142933669Y-133884761D01*
X143362240Y-133265714D02*
X142362240Y-133265714D01*
X143362240Y-132694285D01*
X142362240Y-132694285D01*
X143362240Y-132218095D02*
X142362240Y-132218095D01*
X142362240Y-131980000D01*
X142409860Y-131837142D01*
X142505098Y-131741904D01*
X142600336Y-131694285D01*
X142790812Y-131646666D01*
X142933669Y-131646666D01*
X143124145Y-131694285D01*
X143219383Y-131741904D01*
X143314621Y-131837142D01*
X143362240Y-131980000D01*
X143362240Y-132218095D01*
X150643193Y-111032380D02*
X150309860Y-110556190D01*
X150071764Y-111032380D02*
X150071764Y-110032380D01*
X150452717Y-110032380D01*
X150547955Y-110080000D01*
X150595574Y-110127619D01*
X150643193Y-110222857D01*
X150643193Y-110365714D01*
X150595574Y-110460952D01*
X150547955Y-110508571D01*
X150452717Y-110556190D01*
X150071764Y-110556190D01*
X150976526Y-110032380D02*
X151643193Y-111032380D01*
X151643193Y-110032380D02*
X150976526Y-111032380D01*
X152347955Y-110132380D02*
X152919383Y-110132380D01*
X152633669Y-111132380D02*
X152633669Y-110132380D01*
X153157479Y-110132380D02*
X153824145Y-111132380D01*
X153824145Y-110132380D02*
X153157479Y-111132380D01*
X143562240Y-126265714D02*
X142562240Y-126265714D01*
X143562240Y-125694285D01*
X142562240Y-125694285D01*
X143467002Y-124646666D02*
X143514621Y-124694285D01*
X143562240Y-124837142D01*
X143562240Y-124932380D01*
X143514621Y-125075238D01*
X143419383Y-125170476D01*
X143324145Y-125218095D01*
X143133669Y-125265714D01*
X142990812Y-125265714D01*
X142800336Y-125218095D01*
X142705098Y-125170476D01*
X142609860Y-125075238D01*
X142562240Y-124932380D01*
X142562240Y-124837142D01*
X142609860Y-124694285D01*
X142657479Y-124646666D01*
X155319383Y-110032380D02*
X154843193Y-110032380D01*
X154795574Y-110508571D01*
X154843193Y-110460952D01*
X154938431Y-110413333D01*
X155176526Y-110413333D01*
X155271764Y-110460952D01*
X155319383Y-110508571D01*
X155367002Y-110603809D01*
X155367002Y-110841904D01*
X155319383Y-110937142D01*
X155271764Y-110984761D01*
X155176526Y-111032380D01*
X154938431Y-111032380D01*
X154843193Y-110984761D01*
X154795574Y-110937142D01*
X155652717Y-110032380D02*
X155986050Y-111032380D01*
X156319383Y-110032380D01*
X147447955Y-110080000D02*
X147352717Y-110032380D01*
X147209860Y-110032380D01*
X147067002Y-110080000D01*
X146971764Y-110175238D01*
X146924145Y-110270476D01*
X146876526Y-110460952D01*
X146876526Y-110603809D01*
X146924145Y-110794285D01*
X146971764Y-110889523D01*
X147067002Y-110984761D01*
X147209860Y-111032380D01*
X147305098Y-111032380D01*
X147447955Y-110984761D01*
X147495574Y-110937142D01*
X147495574Y-110603809D01*
X147305098Y-110603809D01*
X147924145Y-111032380D02*
X147924145Y-110032380D01*
X148495574Y-111032380D01*
X148495574Y-110032380D01*
X148971764Y-111032380D02*
X148971764Y-110032380D01*
X149209860Y-110032380D01*
X149352717Y-110080000D01*
X149447955Y-110175238D01*
X149495574Y-110270476D01*
X149543193Y-110460952D01*
X149543193Y-110603809D01*
X149495574Y-110794285D01*
X149447955Y-110889523D01*
X149352717Y-110984761D01*
X149209860Y-111032380D01*
X148971764Y-111032380D01*
X141427764Y-128889523D02*
X142075383Y-128889523D01*
X142151574Y-128851428D01*
X142189669Y-128813333D01*
X142227764Y-128737142D01*
X142227764Y-128584761D01*
X142189669Y-128508571D01*
X142151574Y-128470476D01*
X142075383Y-128432380D01*
X141427764Y-128432380D01*
X142189669Y-128089523D02*
X142227764Y-127975238D01*
X142227764Y-127784761D01*
X142189669Y-127708571D01*
X142151574Y-127670476D01*
X142075383Y-127632380D01*
X141999193Y-127632380D01*
X141923002Y-127670476D01*
X141884907Y-127708571D01*
X141846812Y-127784761D01*
X141808717Y-127937142D01*
X141770621Y-128013333D01*
X141732526Y-128051428D01*
X141656336Y-128089523D01*
X141580145Y-128089523D01*
X141503955Y-128051428D01*
X141465860Y-128013333D01*
X141427764Y-127937142D01*
X141427764Y-127746666D01*
X141465860Y-127632380D01*
X141808717Y-127022857D02*
X141846812Y-126908571D01*
X141884907Y-126870476D01*
X141961098Y-126832380D01*
X142075383Y-126832380D01*
X142151574Y-126870476D01*
X142189669Y-126908571D01*
X142227764Y-126984761D01*
X142227764Y-127289523D01*
X141427764Y-127289523D01*
X141427764Y-127022857D01*
X141465860Y-126946666D01*
X141503955Y-126908571D01*
X141580145Y-126870476D01*
X141656336Y-126870476D01*
X141732526Y-126908571D01*
X141770621Y-126946666D01*
X141808717Y-127022857D01*
X141808717Y-127289523D01*
X143211002Y-128184761D02*
X143211002Y-127575238D01*
X141427764Y-131489523D02*
X142075383Y-131489523D01*
X142151574Y-131451428D01*
X142189669Y-131413333D01*
X142227764Y-131337142D01*
X142227764Y-131184761D01*
X142189669Y-131108571D01*
X142151574Y-131070476D01*
X142075383Y-131032380D01*
X141427764Y-131032380D01*
X142189669Y-130689523D02*
X142227764Y-130575238D01*
X142227764Y-130384761D01*
X142189669Y-130308571D01*
X142151574Y-130270476D01*
X142075383Y-130232380D01*
X141999193Y-130232380D01*
X141923002Y-130270476D01*
X141884907Y-130308571D01*
X141846812Y-130384761D01*
X141808717Y-130537142D01*
X141770621Y-130613333D01*
X141732526Y-130651428D01*
X141656336Y-130689523D01*
X141580145Y-130689523D01*
X141503955Y-130651428D01*
X141465860Y-130613333D01*
X141427764Y-130537142D01*
X141427764Y-130346666D01*
X141465860Y-130232380D01*
X141808717Y-129622857D02*
X141846812Y-129508571D01*
X141884907Y-129470476D01*
X141961098Y-129432380D01*
X142075383Y-129432380D01*
X142151574Y-129470476D01*
X142189669Y-129508571D01*
X142227764Y-129584761D01*
X142227764Y-129889523D01*
X141427764Y-129889523D01*
X141427764Y-129622857D01*
X141465860Y-129546666D01*
X141503955Y-129508571D01*
X141580145Y-129470476D01*
X141656336Y-129470476D01*
X141732526Y-129508571D01*
X141770621Y-129546666D01*
X141808717Y-129622857D01*
X141808717Y-129889523D01*
X143211002Y-130784761D02*
X143211002Y-130175238D01*
X143515764Y-130480000D02*
X142906240Y-130480000D01*
D11*
X154702717Y-132972857D02*
X154917002Y-133044285D01*
X154988431Y-133115714D01*
X155059860Y-133258571D01*
X155059860Y-133472857D01*
X154988431Y-133615714D01*
X154917002Y-133687142D01*
X154774145Y-133758571D01*
X154202717Y-133758571D01*
X154202717Y-132258571D01*
X154702717Y-132258571D01*
X154845574Y-132330000D01*
X154917002Y-132401428D01*
X154988431Y-132544285D01*
X154988431Y-132687142D01*
X154917002Y-132830000D01*
X154845574Y-132901428D01*
X154702717Y-132972857D01*
X154202717Y-132972857D01*
X155917002Y-133758571D02*
X155774145Y-133687142D01*
X155702717Y-133615714D01*
X155631288Y-133472857D01*
X155631288Y-133044285D01*
X155702717Y-132901428D01*
X155774145Y-132830000D01*
X155917002Y-132758571D01*
X156131288Y-132758571D01*
X156274145Y-132830000D01*
X156345574Y-132901428D01*
X156417002Y-133044285D01*
X156417002Y-133472857D01*
X156345574Y-133615714D01*
X156274145Y-133687142D01*
X156131288Y-133758571D01*
X155917002Y-133758571D01*
X156845574Y-132758571D02*
X157417002Y-132758571D01*
X157059860Y-132258571D02*
X157059860Y-133544285D01*
X157131288Y-133687142D01*
X157274145Y-133758571D01*
X157417002Y-133758571D01*
X157702717Y-132758571D02*
X158274145Y-132758571D01*
X157917002Y-132258571D02*
X157917002Y-133544285D01*
X157988431Y-133687142D01*
X158131288Y-133758571D01*
X158274145Y-133758571D01*
X158988431Y-133758571D02*
X158845574Y-133687142D01*
X158774145Y-133615714D01*
X158702717Y-133472857D01*
X158702717Y-133044285D01*
X158774145Y-132901428D01*
X158845574Y-132830000D01*
X158988431Y-132758571D01*
X159202717Y-132758571D01*
X159345574Y-132830000D01*
X159417002Y-132901428D01*
X159488431Y-133044285D01*
X159488431Y-133472857D01*
X159417002Y-133615714D01*
X159345574Y-133687142D01*
X159202717Y-133758571D01*
X158988431Y-133758571D01*
X160131288Y-133758571D02*
X160131288Y-132758571D01*
X160131288Y-132901428D02*
X160202717Y-132830000D01*
X160345574Y-132758571D01*
X160559860Y-132758571D01*
X160702717Y-132830000D01*
X160774145Y-132972857D01*
X160774145Y-133758571D01*
X160774145Y-132972857D02*
X160845574Y-132830000D01*
X160988431Y-132758571D01*
X161202717Y-132758571D01*
X161345574Y-132830000D01*
X161417002Y-132972857D01*
X161417002Y-133758571D01*
D12*
X172619383Y-115515714D02*
X173000336Y-115515714D01*
X172809860Y-115706190D02*
X172809860Y-115325238D01*
X139219383Y-134315714D02*
X139600336Y-134315714D01*
X139409860Y-134506190D02*
X139409860Y-134125238D01*
X182219383Y-85915714D02*
X182600336Y-85915714D01*
X182409860Y-86106190D02*
X182409860Y-85725238D01*
D13*
%TO.C,U4*%
X168647955Y-110332380D02*
X168647955Y-111141904D01*
X168695574Y-111237142D01*
X168743193Y-111284761D01*
X168838431Y-111332380D01*
X169028907Y-111332380D01*
X169124145Y-111284761D01*
X169171764Y-111237142D01*
X169219383Y-111141904D01*
X169219383Y-110332380D01*
X170124145Y-110665714D02*
X170124145Y-111332380D01*
X169886050Y-110284761D02*
X169647955Y-110999047D01*
X170267002Y-110999047D01*
%TO.C,R3*%
X173662240Y-81346666D02*
X173186050Y-81680000D01*
X173662240Y-81918095D02*
X172662240Y-81918095D01*
X172662240Y-81537142D01*
X172709860Y-81441904D01*
X172757479Y-81394285D01*
X172852717Y-81346666D01*
X172995574Y-81346666D01*
X173090812Y-81394285D01*
X173138431Y-81441904D01*
X173186050Y-81537142D01*
X173186050Y-81918095D01*
X172662240Y-81013333D02*
X172662240Y-80394285D01*
X173043193Y-80727619D01*
X173043193Y-80584761D01*
X173090812Y-80489523D01*
X173138431Y-80441904D01*
X173233669Y-80394285D01*
X173471764Y-80394285D01*
X173567002Y-80441904D01*
X173614621Y-80489523D01*
X173662240Y-80584761D01*
X173662240Y-80870476D01*
X173614621Y-80965714D01*
X173567002Y-81013333D01*
D14*
%TO.C,S1*%
X158134202Y-112906222D02*
X158299665Y-112464988D01*
X158465128Y-112906222D01*
X158520282Y-112189217D02*
X157941162Y-112189217D01*
X158520282Y-111858291D01*
X157941162Y-111858291D01*
X158520282Y-111334325D02*
X158216934Y-111334325D01*
X158161780Y-111361902D01*
X158134202Y-111417057D01*
X158134202Y-111527365D01*
X158161780Y-111582520D01*
X158492705Y-111334325D02*
X158520282Y-111389480D01*
X158520282Y-111527365D01*
X158492705Y-111582520D01*
X158437551Y-111610097D01*
X158382397Y-111610097D01*
X158327242Y-111582520D01*
X158299665Y-111527365D01*
X158299665Y-111389480D01*
X158272088Y-111334325D01*
X158520282Y-111058554D02*
X158134202Y-111058554D01*
X158189357Y-111058554D02*
X158161780Y-111030977D01*
X158134202Y-110975822D01*
X158134202Y-110893091D01*
X158161780Y-110837937D01*
X158216934Y-110810360D01*
X158520282Y-110810360D01*
X158216934Y-110810360D02*
X158161780Y-110782782D01*
X158134202Y-110727628D01*
X158134202Y-110644897D01*
X158161780Y-110589742D01*
X158216934Y-110562165D01*
X158520282Y-110562165D01*
X158492705Y-110065777D02*
X158520282Y-110120931D01*
X158520282Y-110231240D01*
X158492705Y-110286394D01*
X158437551Y-110313971D01*
X158216934Y-110313971D01*
X158161780Y-110286394D01*
X158134202Y-110231240D01*
X158134202Y-110120931D01*
X158161780Y-110065777D01*
X158216934Y-110038200D01*
X158272088Y-110038200D01*
X158327242Y-110313971D01*
D13*
%TO.C,R12*%
X168462240Y-133822857D02*
X167986050Y-134156190D01*
X168462240Y-134394285D02*
X167462240Y-134394285D01*
X167462240Y-134013333D01*
X167509860Y-133918095D01*
X167557479Y-133870476D01*
X167652717Y-133822857D01*
X167795574Y-133822857D01*
X167890812Y-133870476D01*
X167938431Y-133918095D01*
X167986050Y-134013333D01*
X167986050Y-134394285D01*
X168462240Y-132870476D02*
X168462240Y-133441904D01*
X168462240Y-133156190D02*
X167462240Y-133156190D01*
X167605098Y-133251428D01*
X167700336Y-133346666D01*
X167747955Y-133441904D01*
X167557479Y-132489523D02*
X167509860Y-132441904D01*
X167462240Y-132346666D01*
X167462240Y-132108571D01*
X167509860Y-132013333D01*
X167557479Y-131965714D01*
X167652717Y-131918095D01*
X167747955Y-131918095D01*
X167890812Y-131965714D01*
X168462240Y-132537142D01*
X168462240Y-131918095D01*
%TO.C,U2*%
X169462240Y-91741904D02*
X170271764Y-91741904D01*
X170367002Y-91694285D01*
X170414621Y-91646666D01*
X170462240Y-91551428D01*
X170462240Y-91360952D01*
X170414621Y-91265714D01*
X170367002Y-91218095D01*
X170271764Y-91170476D01*
X169462240Y-91170476D01*
X169557479Y-90741904D02*
X169509860Y-90694285D01*
X169462240Y-90599047D01*
X169462240Y-90360952D01*
X169509860Y-90265714D01*
X169557479Y-90218095D01*
X169652717Y-90170476D01*
X169747955Y-90170476D01*
X169890812Y-90218095D01*
X170462240Y-90789523D01*
X170462240Y-90170476D01*
%TO.C,U3*%
X150947955Y-87832380D02*
X150947955Y-88641904D01*
X150995574Y-88737142D01*
X151043193Y-88784761D01*
X151138431Y-88832380D01*
X151328907Y-88832380D01*
X151424145Y-88784761D01*
X151471764Y-88737142D01*
X151519383Y-88641904D01*
X151519383Y-87832380D01*
X151900336Y-87832380D02*
X152519383Y-87832380D01*
X152186050Y-88213333D01*
X152328907Y-88213333D01*
X152424145Y-88260952D01*
X152471764Y-88308571D01*
X152519383Y-88403809D01*
X152519383Y-88641904D01*
X152471764Y-88737142D01*
X152424145Y-88784761D01*
X152328907Y-88832380D01*
X152043193Y-88832380D01*
X151947955Y-88784761D01*
X151900336Y-88737142D01*
%TO.C,C2*%
X158067002Y-88746666D02*
X158114621Y-88794285D01*
X158162240Y-88937142D01*
X158162240Y-89032380D01*
X158114621Y-89175238D01*
X158019383Y-89270476D01*
X157924145Y-89318095D01*
X157733669Y-89365714D01*
X157590812Y-89365714D01*
X157400336Y-89318095D01*
X157305098Y-89270476D01*
X157209860Y-89175238D01*
X157162240Y-89032380D01*
X157162240Y-88937142D01*
X157209860Y-88794285D01*
X157257479Y-88746666D01*
X157257479Y-88365714D02*
X157209860Y-88318095D01*
X157162240Y-88222857D01*
X157162240Y-87984761D01*
X157209860Y-87889523D01*
X157257479Y-87841904D01*
X157352717Y-87794285D01*
X157447955Y-87794285D01*
X157590812Y-87841904D01*
X158162240Y-88413333D01*
X158162240Y-87794285D01*
%TO.C,R10*%
X184362240Y-87722857D02*
X183886050Y-88056190D01*
X184362240Y-88294285D02*
X183362240Y-88294285D01*
X183362240Y-87913333D01*
X183409860Y-87818095D01*
X183457479Y-87770476D01*
X183552717Y-87722857D01*
X183695574Y-87722857D01*
X183790812Y-87770476D01*
X183838431Y-87818095D01*
X183886050Y-87913333D01*
X183886050Y-88294285D01*
X184362240Y-86770476D02*
X184362240Y-87341904D01*
X184362240Y-87056190D02*
X183362240Y-87056190D01*
X183505098Y-87151428D01*
X183600336Y-87246666D01*
X183647955Y-87341904D01*
X183362240Y-86151428D02*
X183362240Y-86056190D01*
X183409860Y-85960952D01*
X183457479Y-85913333D01*
X183552717Y-85865714D01*
X183743193Y-85818095D01*
X183981288Y-85818095D01*
X184171764Y-85865714D01*
X184267002Y-85913333D01*
X184314621Y-85960952D01*
X184362240Y-86056190D01*
X184362240Y-86151428D01*
X184314621Y-86246666D01*
X184267002Y-86294285D01*
X184171764Y-86341904D01*
X183981288Y-86389523D01*
X183743193Y-86389523D01*
X183552717Y-86341904D01*
X183457479Y-86294285D01*
X183409860Y-86246666D01*
X183362240Y-86151428D01*
%TO.C,C4*%
X176467002Y-113246666D02*
X176514621Y-113294285D01*
X176562240Y-113437142D01*
X176562240Y-113532380D01*
X176514621Y-113675238D01*
X176419383Y-113770476D01*
X176324145Y-113818095D01*
X176133669Y-113865714D01*
X175990812Y-113865714D01*
X175800336Y-113818095D01*
X175705098Y-113770476D01*
X175609860Y-113675238D01*
X175562240Y-113532380D01*
X175562240Y-113437142D01*
X175609860Y-113294285D01*
X175657479Y-113246666D01*
X175895574Y-112389523D02*
X176562240Y-112389523D01*
X175514621Y-112627619D02*
X176228907Y-112865714D01*
X176228907Y-112246666D01*
%TO.C,C6*%
X167443193Y-122437142D02*
X167395574Y-122484761D01*
X167252717Y-122532380D01*
X167157479Y-122532380D01*
X167014621Y-122484761D01*
X166919383Y-122389523D01*
X166871764Y-122294285D01*
X166824145Y-122103809D01*
X166824145Y-121960952D01*
X166871764Y-121770476D01*
X166919383Y-121675238D01*
X167014621Y-121580000D01*
X167157479Y-121532380D01*
X167252717Y-121532380D01*
X167395574Y-121580000D01*
X167443193Y-121627619D01*
X168300336Y-121532380D02*
X168109860Y-121532380D01*
X168014621Y-121580000D01*
X167967002Y-121627619D01*
X167871764Y-121770476D01*
X167824145Y-121960952D01*
X167824145Y-122341904D01*
X167871764Y-122437142D01*
X167919383Y-122484761D01*
X168014621Y-122532380D01*
X168205098Y-122532380D01*
X168300336Y-122484761D01*
X168347955Y-122437142D01*
X168395574Y-122341904D01*
X168395574Y-122103809D01*
X168347955Y-122008571D01*
X168300336Y-121960952D01*
X168205098Y-121913333D01*
X168014621Y-121913333D01*
X167919383Y-121960952D01*
X167871764Y-122008571D01*
X167824145Y-122103809D01*
%TO.C,D1*%
X150914304Y-84187520D02*
X150914304Y-83187520D01*
X151152400Y-83187520D01*
X151295257Y-83235140D01*
X151390495Y-83330378D01*
X151438114Y-83425616D01*
X151485733Y-83616092D01*
X151485733Y-83758949D01*
X151438114Y-83949425D01*
X151390495Y-84044663D01*
X151295257Y-84139901D01*
X151152400Y-84187520D01*
X150914304Y-84187520D01*
X152438114Y-84187520D02*
X151866685Y-84187520D01*
X152152400Y-84187520D02*
X152152400Y-83187520D01*
X152057161Y-83330378D01*
X151961923Y-83425616D01*
X151866685Y-83473235D01*
X151430495Y-82132380D02*
X151430495Y-81132380D01*
X152001923Y-82132380D02*
X151573352Y-81560952D01*
X152001923Y-81132380D02*
X151430495Y-81703809D01*
%TO.C,R4*%
X177962240Y-83546666D02*
X177486050Y-83880000D01*
X177962240Y-84118095D02*
X176962240Y-84118095D01*
X176962240Y-83737142D01*
X177009860Y-83641904D01*
X177057479Y-83594285D01*
X177152717Y-83546666D01*
X177295574Y-83546666D01*
X177390812Y-83594285D01*
X177438431Y-83641904D01*
X177486050Y-83737142D01*
X177486050Y-84118095D01*
X177295574Y-82689523D02*
X177962240Y-82689523D01*
X176914621Y-82927619D02*
X177628907Y-83165714D01*
X177628907Y-82546666D01*
%TO.C,D2*%
X182062240Y-87318095D02*
X181062240Y-87318095D01*
X181062240Y-87080000D01*
X181109860Y-86937142D01*
X181205098Y-86841904D01*
X181300336Y-86794285D01*
X181490812Y-86746666D01*
X181633669Y-86746666D01*
X181824145Y-86794285D01*
X181919383Y-86841904D01*
X182014621Y-86937142D01*
X182062240Y-87080000D01*
X182062240Y-87318095D01*
X181157479Y-86365714D02*
X181109860Y-86318095D01*
X181062240Y-86222857D01*
X181062240Y-85984761D01*
X181109860Y-85889523D01*
X181157479Y-85841904D01*
X181252717Y-85794285D01*
X181347955Y-85794285D01*
X181490812Y-85841904D01*
X182062240Y-86413333D01*
X182062240Y-85794285D01*
%TO.C,U1*%
X129441315Y-96953700D02*
X129441315Y-97763224D01*
X129488934Y-97858462D01*
X129536553Y-97906081D01*
X129631791Y-97953700D01*
X129822267Y-97953700D01*
X129917505Y-97906081D01*
X129965124Y-97858462D01*
X130012743Y-97763224D01*
X130012743Y-96953700D01*
X131012743Y-97953700D02*
X130441315Y-97953700D01*
X130727029Y-97953700D02*
X130727029Y-96953700D01*
X130631791Y-97096558D01*
X130536553Y-97191796D01*
X130441315Y-97239415D01*
X128727955Y-76232380D02*
X128727955Y-77041904D01*
X128775574Y-77137142D01*
X128823193Y-77184761D01*
X128918431Y-77232380D01*
X129108907Y-77232380D01*
X129204145Y-77184761D01*
X129251764Y-77137142D01*
X129299383Y-77041904D01*
X129299383Y-76232380D01*
X129727955Y-77184761D02*
X129870812Y-77232380D01*
X130108907Y-77232380D01*
X130204145Y-77184761D01*
X130251764Y-77137142D01*
X130299383Y-77041904D01*
X130299383Y-76946666D01*
X130251764Y-76851428D01*
X130204145Y-76803809D01*
X130108907Y-76756190D01*
X129918431Y-76708571D01*
X129823193Y-76660952D01*
X129775574Y-76613333D01*
X129727955Y-76518095D01*
X129727955Y-76422857D01*
X129775574Y-76327619D01*
X129823193Y-76280000D01*
X129918431Y-76232380D01*
X130156526Y-76232380D01*
X130299383Y-76280000D01*
X131061288Y-76708571D02*
X131204145Y-76756190D01*
X131251764Y-76803809D01*
X131299383Y-76899047D01*
X131299383Y-77041904D01*
X131251764Y-77137142D01*
X131204145Y-77184761D01*
X131108907Y-77232380D01*
X130727955Y-77232380D01*
X130727955Y-76232380D01*
X131061288Y-76232380D01*
X131156526Y-76280000D01*
X131204145Y-76327619D01*
X131251764Y-76422857D01*
X131251764Y-76518095D01*
X131204145Y-76613333D01*
X131156526Y-76660952D01*
X131061288Y-76708571D01*
X130727955Y-76708571D01*
X126953040Y-88293723D02*
X127762564Y-88293723D01*
X127857802Y-88246104D01*
X127905421Y-88198485D01*
X127953040Y-88103247D01*
X127953040Y-87912771D01*
X127905421Y-87817533D01*
X127857802Y-87769914D01*
X127762564Y-87722295D01*
X126953040Y-87722295D01*
X127905421Y-87293723D02*
X127953040Y-87150866D01*
X127953040Y-86912771D01*
X127905421Y-86817533D01*
X127857802Y-86769914D01*
X127762564Y-86722295D01*
X127667326Y-86722295D01*
X127572088Y-86769914D01*
X127524469Y-86817533D01*
X127476850Y-86912771D01*
X127429231Y-87103247D01*
X127381612Y-87198485D01*
X127333993Y-87246104D01*
X127238755Y-87293723D01*
X127143517Y-87293723D01*
X127048279Y-87246104D01*
X127000660Y-87198485D01*
X126953040Y-87103247D01*
X126953040Y-86865152D01*
X127000660Y-86722295D01*
X127429231Y-85960390D02*
X127476850Y-85817533D01*
X127524469Y-85769914D01*
X127619707Y-85722295D01*
X127762564Y-85722295D01*
X127857802Y-85769914D01*
X127905421Y-85817533D01*
X127953040Y-85912771D01*
X127953040Y-86293723D01*
X126953040Y-86293723D01*
X126953040Y-85960390D01*
X127000660Y-85865152D01*
X127048279Y-85817533D01*
X127143517Y-85769914D01*
X127238755Y-85769914D01*
X127333993Y-85817533D01*
X127381612Y-85865152D01*
X127429231Y-85960390D01*
X127429231Y-86293723D01*
X127953040Y-84531819D02*
X126953040Y-84531819D01*
X127429231Y-84531819D02*
X127429231Y-83960390D01*
X127953040Y-83960390D02*
X126953040Y-83960390D01*
X127953040Y-83341342D02*
X127905421Y-83436580D01*
X127857802Y-83484200D01*
X127762564Y-83531819D01*
X127476850Y-83531819D01*
X127381612Y-83484200D01*
X127333993Y-83436580D01*
X127286374Y-83341342D01*
X127286374Y-83198485D01*
X127333993Y-83103247D01*
X127381612Y-83055628D01*
X127476850Y-83008009D01*
X127762564Y-83008009D01*
X127857802Y-83055628D01*
X127905421Y-83103247D01*
X127953040Y-83198485D01*
X127953040Y-83341342D01*
X127905421Y-82627057D02*
X127953040Y-82531819D01*
X127953040Y-82341342D01*
X127905421Y-82246104D01*
X127810183Y-82198485D01*
X127762564Y-82198485D01*
X127667326Y-82246104D01*
X127619707Y-82341342D01*
X127619707Y-82484200D01*
X127572088Y-82579438D01*
X127476850Y-82627057D01*
X127429231Y-82627057D01*
X127333993Y-82579438D01*
X127286374Y-82484200D01*
X127286374Y-82341342D01*
X127333993Y-82246104D01*
X127286374Y-81912771D02*
X127286374Y-81531819D01*
X126953040Y-81769914D02*
X127810183Y-81769914D01*
X127905421Y-81722295D01*
X127953040Y-81627057D01*
X127953040Y-81531819D01*
X127104646Y-100004926D02*
X127104646Y-99304926D01*
X127337980Y-99804926D01*
X127571313Y-99304926D01*
X127571313Y-100004926D01*
X127904646Y-100004926D02*
X127904646Y-99304926D01*
X128237980Y-100004926D02*
X128237980Y-99304926D01*
X128471313Y-99804926D01*
X128704646Y-99304926D01*
X128704646Y-100004926D01*
X128971313Y-99304926D02*
X129437980Y-100004926D01*
X129437980Y-99304926D02*
X128971313Y-100004926D01*
X130104646Y-100004926D02*
X129871313Y-99671593D01*
X129704646Y-100004926D02*
X129704646Y-99304926D01*
X129971313Y-99304926D01*
X130037980Y-99338260D01*
X130071313Y-99371593D01*
X130104646Y-99438260D01*
X130104646Y-99538260D01*
X130071313Y-99604926D01*
X130037980Y-99638260D01*
X129971313Y-99671593D01*
X129704646Y-99671593D01*
X130304646Y-99304926D02*
X130704646Y-99304926D01*
X130504646Y-100004926D02*
X130504646Y-99304926D01*
X131304646Y-100004926D02*
X130904646Y-100004926D01*
X131104646Y-100004926D02*
X131104646Y-99304926D01*
X131037980Y-99404926D01*
X130971313Y-99471593D01*
X130904646Y-99504926D01*
X131737980Y-99304926D02*
X131804646Y-99304926D01*
X131871313Y-99338260D01*
X131904646Y-99371593D01*
X131937980Y-99438260D01*
X131971313Y-99571593D01*
X131971313Y-99738260D01*
X131937980Y-99871593D01*
X131904646Y-99938260D01*
X131871313Y-99971593D01*
X131804646Y-100004926D01*
X131737980Y-100004926D01*
X131671313Y-99971593D01*
X131637980Y-99938260D01*
X131604646Y-99871593D01*
X131571313Y-99738260D01*
X131571313Y-99571593D01*
X131604646Y-99438260D01*
X131637980Y-99371593D01*
X131671313Y-99338260D01*
X131737980Y-99304926D01*
X132571313Y-99304926D02*
X132437980Y-99304926D01*
X132371313Y-99338260D01*
X132337980Y-99371593D01*
X132271313Y-99471593D01*
X132237980Y-99604926D01*
X132237980Y-99871593D01*
X132271313Y-99938260D01*
X132304646Y-99971593D01*
X132371313Y-100004926D01*
X132504646Y-100004926D01*
X132571313Y-99971593D01*
X132604646Y-99938260D01*
X132637980Y-99871593D01*
X132637980Y-99704926D01*
X132604646Y-99638260D01*
X132571313Y-99604926D01*
X132504646Y-99571593D01*
X132371313Y-99571593D01*
X132304646Y-99604926D01*
X132271313Y-99638260D01*
X132237980Y-99704926D01*
X132904646Y-99371593D02*
X132937980Y-99338260D01*
X133004646Y-99304926D01*
X133171313Y-99304926D01*
X133237980Y-99338260D01*
X133271313Y-99371593D01*
X133304646Y-99438260D01*
X133304646Y-99504926D01*
X133271313Y-99604926D01*
X132871313Y-100004926D01*
X133304646Y-100004926D01*
X127381352Y-125947040D02*
X127381352Y-124947040D01*
X127714685Y-125661326D01*
X128048019Y-124947040D01*
X128048019Y-125947040D01*
X128524209Y-125947040D02*
X128524209Y-125280374D01*
X128524209Y-124947040D02*
X128476590Y-124994660D01*
X128524209Y-125042279D01*
X128571828Y-124994660D01*
X128524209Y-124947040D01*
X128524209Y-125042279D01*
X129428971Y-125899421D02*
X129333733Y-125947040D01*
X129143257Y-125947040D01*
X129048019Y-125899421D01*
X129000400Y-125851802D01*
X128952780Y-125756564D01*
X128952780Y-125470850D01*
X129000400Y-125375612D01*
X129048019Y-125327993D01*
X129143257Y-125280374D01*
X129333733Y-125280374D01*
X129428971Y-125327993D01*
X129857542Y-125947040D02*
X129857542Y-125280374D01*
X129857542Y-125470850D02*
X129905161Y-125375612D01*
X129952780Y-125327993D01*
X130048019Y-125280374D01*
X130143257Y-125280374D01*
X130619447Y-125947040D02*
X130524209Y-125899421D01*
X130476590Y-125851802D01*
X130428971Y-125756564D01*
X130428971Y-125470850D01*
X130476590Y-125375612D01*
X130524209Y-125327993D01*
X130619447Y-125280374D01*
X130762304Y-125280374D01*
X130857542Y-125327993D01*
X130905161Y-125375612D01*
X130952780Y-125470850D01*
X130952780Y-125756564D01*
X130905161Y-125851802D01*
X130857542Y-125899421D01*
X130762304Y-125947040D01*
X130619447Y-125947040D01*
X132095638Y-125899421D02*
X132238495Y-125947040D01*
X132476590Y-125947040D01*
X132571828Y-125899421D01*
X132619447Y-125851802D01*
X132667066Y-125756564D01*
X132667066Y-125661326D01*
X132619447Y-125566088D01*
X132571828Y-125518469D01*
X132476590Y-125470850D01*
X132286114Y-125423231D01*
X132190876Y-125375612D01*
X132143257Y-125327993D01*
X132095638Y-125232755D01*
X132095638Y-125137517D01*
X132143257Y-125042279D01*
X132190876Y-124994660D01*
X132286114Y-124947040D01*
X132524209Y-124947040D01*
X132667066Y-124994660D01*
X133095638Y-125947040D02*
X133095638Y-124947040D01*
X133333733Y-124947040D01*
X133476590Y-124994660D01*
X133571828Y-125089898D01*
X133619447Y-125185136D01*
X133667066Y-125375612D01*
X133667066Y-125518469D01*
X133619447Y-125708945D01*
X133571828Y-125804183D01*
X133476590Y-125899421D01*
X133333733Y-125947040D01*
X133095638Y-125947040D01*
X128786526Y-99006706D02*
X128786526Y-98306706D01*
X128953193Y-98306706D01*
X129053193Y-98340040D01*
X129119860Y-98406706D01*
X129153193Y-98473373D01*
X129186526Y-98606706D01*
X129186526Y-98706706D01*
X129153193Y-98840040D01*
X129119860Y-98906706D01*
X129053193Y-98973373D01*
X128953193Y-99006706D01*
X128786526Y-99006706D01*
X129386526Y-98306706D02*
X129619860Y-99006706D01*
X129853193Y-98306706D01*
X130286526Y-98306706D02*
X130286526Y-98806706D01*
X130253193Y-98906706D01*
X130186526Y-98973373D01*
X130086526Y-99006706D01*
X130019860Y-99006706D01*
X130919860Y-98306706D02*
X130786526Y-98306706D01*
X130719860Y-98340040D01*
X130686526Y-98373373D01*
X130619860Y-98473373D01*
X130586526Y-98606706D01*
X130586526Y-98873373D01*
X130619860Y-98940040D01*
X130653193Y-98973373D01*
X130719860Y-99006706D01*
X130853193Y-99006706D01*
X130919860Y-98973373D01*
X130953193Y-98940040D01*
X130986526Y-98873373D01*
X130986526Y-98706706D01*
X130953193Y-98640040D01*
X130919860Y-98606706D01*
X130853193Y-98573373D01*
X130719860Y-98573373D01*
X130653193Y-98606706D01*
X130619860Y-98640040D01*
X130586526Y-98706706D01*
X131253193Y-98806706D02*
X131586526Y-98806706D01*
X131186526Y-99006706D02*
X131419860Y-98306706D01*
X131653193Y-99006706D01*
%TO.C,H3*%
X117316095Y-94282380D02*
X117316095Y-93282380D01*
X117316095Y-93758571D02*
X117887523Y-93758571D01*
X117887523Y-94282380D02*
X117887523Y-93282380D01*
X118268476Y-93282380D02*
X118887523Y-93282380D01*
X118554190Y-93663333D01*
X118697047Y-93663333D01*
X118792285Y-93710952D01*
X118839904Y-93758571D01*
X118887523Y-93853809D01*
X118887523Y-94091904D01*
X118839904Y-94187142D01*
X118792285Y-94234761D01*
X118697047Y-94282380D01*
X118411333Y-94282380D01*
X118316095Y-94234761D01*
X118268476Y-94187142D01*
%TO.C,J32*%
X112392876Y-88402380D02*
X112392876Y-89116666D01*
X112345257Y-89259523D01*
X112250019Y-89354761D01*
X112107161Y-89402380D01*
X112011923Y-89402380D01*
X112773828Y-88402380D02*
X113392876Y-88402380D01*
X113059542Y-88783333D01*
X113202400Y-88783333D01*
X113297638Y-88830952D01*
X113345257Y-88878571D01*
X113392876Y-88973809D01*
X113392876Y-89211904D01*
X113345257Y-89307142D01*
X113297638Y-89354761D01*
X113202400Y-89402380D01*
X112916685Y-89402380D01*
X112821447Y-89354761D01*
X112773828Y-89307142D01*
X113773828Y-88497619D02*
X113821447Y-88450000D01*
X113916685Y-88402380D01*
X114154780Y-88402380D01*
X114250019Y-88450000D01*
X114297638Y-88497619D01*
X114345257Y-88592857D01*
X114345257Y-88688095D01*
X114297638Y-88830952D01*
X113726209Y-89402380D01*
X114345257Y-89402380D01*
%TO.C,H1*%
X156940495Y-93882380D02*
X156940495Y-92882380D01*
X156940495Y-93358571D02*
X157511923Y-93358571D01*
X157511923Y-93882380D02*
X157511923Y-92882380D01*
X158511923Y-93882380D02*
X157940495Y-93882380D01*
X158226209Y-93882380D02*
X158226209Y-92882380D01*
X158130971Y-93025238D01*
X158035733Y-93120476D01*
X157940495Y-93168095D01*
%TO.C,J31*%
X181592876Y-88402380D02*
X181592876Y-89116666D01*
X181545257Y-89259523D01*
X181450019Y-89354761D01*
X181307161Y-89402380D01*
X181211923Y-89402380D01*
X181973828Y-88402380D02*
X182592876Y-88402380D01*
X182259542Y-88783333D01*
X182402400Y-88783333D01*
X182497638Y-88830952D01*
X182545257Y-88878571D01*
X182592876Y-88973809D01*
X182592876Y-89211904D01*
X182545257Y-89307142D01*
X182497638Y-89354761D01*
X182402400Y-89402380D01*
X182116685Y-89402380D01*
X182021447Y-89354761D01*
X181973828Y-89307142D01*
X183545257Y-89402380D02*
X182973828Y-89402380D01*
X183259542Y-89402380D02*
X183259542Y-88402380D01*
X183164304Y-88545238D01*
X183069066Y-88640476D01*
X182973828Y-88688095D01*
%TO.C,U5*%
X155847955Y-129932380D02*
X155847955Y-130741904D01*
X155895574Y-130837142D01*
X155943193Y-130884761D01*
X156038431Y-130932380D01*
X156228907Y-130932380D01*
X156324145Y-130884761D01*
X156371764Y-130837142D01*
X156419383Y-130741904D01*
X156419383Y-129932380D01*
X157371764Y-129932380D02*
X156895574Y-129932380D01*
X156847955Y-130408571D01*
X156895574Y-130360952D01*
X156990812Y-130313333D01*
X157228907Y-130313333D01*
X157324145Y-130360952D01*
X157371764Y-130408571D01*
X157419383Y-130503809D01*
X157419383Y-130741904D01*
X157371764Y-130837142D01*
X157324145Y-130884761D01*
X157228907Y-130932380D01*
X156990812Y-130932380D01*
X156895574Y-130884761D01*
X156847955Y-130837142D01*
X151797955Y-137846666D02*
X152274145Y-137846666D01*
X151702717Y-138132380D02*
X152036050Y-137132380D01*
X152369383Y-138132380D01*
X152702717Y-137465714D02*
X152702717Y-138132380D01*
X152702717Y-137560952D02*
X152750336Y-137513333D01*
X152845574Y-137465714D01*
X152988431Y-137465714D01*
X153083669Y-137513333D01*
X153131288Y-137608571D01*
X153131288Y-138132380D01*
X153464621Y-137465714D02*
X153845574Y-137465714D01*
X153607479Y-137132380D02*
X153607479Y-137989523D01*
X153655098Y-138084761D01*
X153750336Y-138132380D01*
X153845574Y-138132380D01*
X154559860Y-138084761D02*
X154464621Y-138132380D01*
X154274145Y-138132380D01*
X154178907Y-138084761D01*
X154131288Y-137989523D01*
X154131288Y-137608571D01*
X154178907Y-137513333D01*
X154274145Y-137465714D01*
X154464621Y-137465714D01*
X154559860Y-137513333D01*
X154607479Y-137608571D01*
X154607479Y-137703809D01*
X154131288Y-137799047D01*
X155036050Y-137465714D02*
X155036050Y-138132380D01*
X155036050Y-137560952D02*
X155083669Y-137513333D01*
X155178907Y-137465714D01*
X155321764Y-137465714D01*
X155417002Y-137513333D01*
X155464621Y-137608571D01*
X155464621Y-138132380D01*
X155940812Y-137465714D02*
X155940812Y-138132380D01*
X155940812Y-137560952D02*
X155988431Y-137513333D01*
X156083669Y-137465714D01*
X156226526Y-137465714D01*
X156321764Y-137513333D01*
X156369383Y-137608571D01*
X156369383Y-138132380D01*
X157274145Y-138132380D02*
X157274145Y-137608571D01*
X157226526Y-137513333D01*
X157131288Y-137465714D01*
X156940812Y-137465714D01*
X156845574Y-137513333D01*
X157274145Y-138084761D02*
X157178907Y-138132380D01*
X156940812Y-138132380D01*
X156845574Y-138084761D01*
X156797955Y-137989523D01*
X156797955Y-137894285D01*
X156845574Y-137799047D01*
X156940812Y-137751428D01*
X157178907Y-137751428D01*
X157274145Y-137703809D01*
X158464621Y-137846666D02*
X158940812Y-137846666D01*
X158369383Y-138132380D02*
X158702717Y-137132380D01*
X159036050Y-138132380D01*
X159369383Y-138132380D02*
X159369383Y-137465714D01*
X159369383Y-137656190D02*
X159417002Y-137560952D01*
X159464621Y-137513333D01*
X159559860Y-137465714D01*
X159655098Y-137465714D01*
X160369383Y-138084761D02*
X160274145Y-138132380D01*
X160083669Y-138132380D01*
X159988431Y-138084761D01*
X159940812Y-137989523D01*
X159940812Y-137608571D01*
X159988431Y-137513333D01*
X160083669Y-137465714D01*
X160274145Y-137465714D01*
X160369383Y-137513333D01*
X160417002Y-137608571D01*
X160417002Y-137703809D01*
X159940812Y-137799047D01*
X161274145Y-138132380D02*
X161274145Y-137608571D01*
X161226526Y-137513333D01*
X161131288Y-137465714D01*
X160940812Y-137465714D01*
X160845574Y-137513333D01*
X161274145Y-138084761D02*
X161178907Y-138132380D01*
X160940812Y-138132380D01*
X160845574Y-138084761D01*
X160797955Y-137989523D01*
X160797955Y-137894285D01*
X160845574Y-137799047D01*
X160940812Y-137751428D01*
X161178907Y-137751428D01*
X161274145Y-137703809D01*
%TO.C,R14*%
X170967002Y-124732380D02*
X170633669Y-124256190D01*
X170395574Y-124732380D02*
X170395574Y-123732380D01*
X170776526Y-123732380D01*
X170871764Y-123780000D01*
X170919383Y-123827619D01*
X170967002Y-123922857D01*
X170967002Y-124065714D01*
X170919383Y-124160952D01*
X170871764Y-124208571D01*
X170776526Y-124256190D01*
X170395574Y-124256190D01*
X171919383Y-124732380D02*
X171347955Y-124732380D01*
X171633669Y-124732380D02*
X171633669Y-123732380D01*
X171538431Y-123875238D01*
X171443193Y-123970476D01*
X171347955Y-124018095D01*
X172776526Y-124065714D02*
X172776526Y-124732380D01*
X172538431Y-123684761D02*
X172300336Y-124399047D01*
X172919383Y-124399047D01*
%TO.C,R7*%
X142662240Y-83946666D02*
X142186050Y-84280000D01*
X142662240Y-84518095D02*
X141662240Y-84518095D01*
X141662240Y-84137142D01*
X141709860Y-84041904D01*
X141757479Y-83994285D01*
X141852717Y-83946666D01*
X141995574Y-83946666D01*
X142090812Y-83994285D01*
X142138431Y-84041904D01*
X142186050Y-84137142D01*
X142186050Y-84518095D01*
X141662240Y-83613333D02*
X141662240Y-82946666D01*
X142662240Y-83375238D01*
%TO.C,C5*%
X170143193Y-116537142D02*
X170095574Y-116584761D01*
X169952717Y-116632380D01*
X169857479Y-116632380D01*
X169714621Y-116584761D01*
X169619383Y-116489523D01*
X169571764Y-116394285D01*
X169524145Y-116203809D01*
X169524145Y-116060952D01*
X169571764Y-115870476D01*
X169619383Y-115775238D01*
X169714621Y-115680000D01*
X169857479Y-115632380D01*
X169952717Y-115632380D01*
X170095574Y-115680000D01*
X170143193Y-115727619D01*
X171047955Y-115632380D02*
X170571764Y-115632380D01*
X170524145Y-116108571D01*
X170571764Y-116060952D01*
X170667002Y-116013333D01*
X170905098Y-116013333D01*
X171000336Y-116060952D01*
X171047955Y-116108571D01*
X171095574Y-116203809D01*
X171095574Y-116441904D01*
X171047955Y-116537142D01*
X171000336Y-116584761D01*
X170905098Y-116632380D01*
X170667002Y-116632380D01*
X170571764Y-116584761D01*
X170524145Y-116537142D01*
%TO.C,R11*%
X172367002Y-127232380D02*
X172033669Y-126756190D01*
X171795574Y-127232380D02*
X171795574Y-126232380D01*
X172176526Y-126232380D01*
X172271764Y-126280000D01*
X172319383Y-126327619D01*
X172367002Y-126422857D01*
X172367002Y-126565714D01*
X172319383Y-126660952D01*
X172271764Y-126708571D01*
X172176526Y-126756190D01*
X171795574Y-126756190D01*
X173319383Y-127232380D02*
X172747955Y-127232380D01*
X173033669Y-127232380D02*
X173033669Y-126232380D01*
X172938431Y-126375238D01*
X172843193Y-126470476D01*
X172747955Y-126518095D01*
X174271764Y-127232380D02*
X173700336Y-127232380D01*
X173986050Y-127232380D02*
X173986050Y-126232380D01*
X173890812Y-126375238D01*
X173795574Y-126470476D01*
X173700336Y-126518095D01*
%TO.C,R8*%
X160362240Y-88746666D02*
X159886050Y-89080000D01*
X160362240Y-89318095D02*
X159362240Y-89318095D01*
X159362240Y-88937142D01*
X159409860Y-88841904D01*
X159457479Y-88794285D01*
X159552717Y-88746666D01*
X159695574Y-88746666D01*
X159790812Y-88794285D01*
X159838431Y-88841904D01*
X159886050Y-88937142D01*
X159886050Y-89318095D01*
X159790812Y-88175238D02*
X159743193Y-88270476D01*
X159695574Y-88318095D01*
X159600336Y-88365714D01*
X159552717Y-88365714D01*
X159457479Y-88318095D01*
X159409860Y-88270476D01*
X159362240Y-88175238D01*
X159362240Y-87984761D01*
X159409860Y-87889523D01*
X159457479Y-87841904D01*
X159552717Y-87794285D01*
X159600336Y-87794285D01*
X159695574Y-87841904D01*
X159743193Y-87889523D01*
X159790812Y-87984761D01*
X159790812Y-88175238D01*
X159838431Y-88270476D01*
X159886050Y-88318095D01*
X159981288Y-88365714D01*
X160171764Y-88365714D01*
X160267002Y-88318095D01*
X160314621Y-88270476D01*
X160362240Y-88175238D01*
X160362240Y-87984761D01*
X160314621Y-87889523D01*
X160267002Y-87841904D01*
X160171764Y-87794285D01*
X159981288Y-87794285D01*
X159886050Y-87841904D01*
X159838431Y-87889523D01*
X159790812Y-87984761D01*
%TO.C,C8*%
X166243193Y-116537142D02*
X166195574Y-116584761D01*
X166052717Y-116632380D01*
X165957479Y-116632380D01*
X165814621Y-116584761D01*
X165719383Y-116489523D01*
X165671764Y-116394285D01*
X165624145Y-116203809D01*
X165624145Y-116060952D01*
X165671764Y-115870476D01*
X165719383Y-115775238D01*
X165814621Y-115680000D01*
X165957479Y-115632380D01*
X166052717Y-115632380D01*
X166195574Y-115680000D01*
X166243193Y-115727619D01*
X166814621Y-116060952D02*
X166719383Y-116013333D01*
X166671764Y-115965714D01*
X166624145Y-115870476D01*
X166624145Y-115822857D01*
X166671764Y-115727619D01*
X166719383Y-115680000D01*
X166814621Y-115632380D01*
X167005098Y-115632380D01*
X167100336Y-115680000D01*
X167147955Y-115727619D01*
X167195574Y-115822857D01*
X167195574Y-115870476D01*
X167147955Y-115965714D01*
X167100336Y-116013333D01*
X167005098Y-116060952D01*
X166814621Y-116060952D01*
X166719383Y-116108571D01*
X166671764Y-116156190D01*
X166624145Y-116251428D01*
X166624145Y-116441904D01*
X166671764Y-116537142D01*
X166719383Y-116584761D01*
X166814621Y-116632380D01*
X167005098Y-116632380D01*
X167100336Y-116584761D01*
X167147955Y-116537142D01*
X167195574Y-116441904D01*
X167195574Y-116251428D01*
X167147955Y-116156190D01*
X167100336Y-116108571D01*
X167005098Y-116060952D01*
%TO.C,C7*%
X167443193Y-120137142D02*
X167395574Y-120184761D01*
X167252717Y-120232380D01*
X167157479Y-120232380D01*
X167014621Y-120184761D01*
X166919383Y-120089523D01*
X166871764Y-119994285D01*
X166824145Y-119803809D01*
X166824145Y-119660952D01*
X166871764Y-119470476D01*
X166919383Y-119375238D01*
X167014621Y-119280000D01*
X167157479Y-119232380D01*
X167252717Y-119232380D01*
X167395574Y-119280000D01*
X167443193Y-119327619D01*
X167776526Y-119232380D02*
X168443193Y-119232380D01*
X168014621Y-120232380D01*
%TO.C,R2*%
X169362240Y-83446666D02*
X168886050Y-83780000D01*
X169362240Y-84018095D02*
X168362240Y-84018095D01*
X168362240Y-83637142D01*
X168409860Y-83541904D01*
X168457479Y-83494285D01*
X168552717Y-83446666D01*
X168695574Y-83446666D01*
X168790812Y-83494285D01*
X168838431Y-83541904D01*
X168886050Y-83637142D01*
X168886050Y-84018095D01*
X168457479Y-83065714D02*
X168409860Y-83018095D01*
X168362240Y-82922857D01*
X168362240Y-82684761D01*
X168409860Y-82589523D01*
X168457479Y-82541904D01*
X168552717Y-82494285D01*
X168647955Y-82494285D01*
X168790812Y-82541904D01*
X169362240Y-83113333D01*
X169362240Y-82494285D01*
D15*
%TO.C,REF\u002A\u002A*%
X121770125Y-75992153D02*
X121293451Y-76325825D01*
X121770125Y-76564162D02*
X120769109Y-76564162D01*
X120769109Y-76182822D01*
X120816777Y-76087487D01*
X120864444Y-76039820D01*
X120959779Y-75992153D01*
X121102781Y-75992153D01*
X121198116Y-76039820D01*
X121245783Y-76087487D01*
X121293451Y-76182822D01*
X121293451Y-76564162D01*
X121245783Y-75563146D02*
X121245783Y-75229474D01*
X121770125Y-75086471D02*
X121770125Y-75563146D01*
X120769109Y-75563146D01*
X120769109Y-75086471D01*
X121245783Y-74323793D02*
X121245783Y-74657465D01*
X121770125Y-74657465D02*
X120769109Y-74657465D01*
X120769109Y-74180790D01*
X120769109Y-73656449D02*
X121007446Y-73656449D01*
X120912111Y-73894786D02*
X121007446Y-73656449D01*
X120912111Y-73418111D01*
X121198116Y-73799451D02*
X121007446Y-73656449D01*
X121198116Y-73513446D01*
X120769109Y-72893770D02*
X121007446Y-72893770D01*
X120912111Y-73132107D02*
X121007446Y-72893770D01*
X120912111Y-72655433D01*
X121198116Y-73036772D02*
X121007446Y-72893770D01*
X121198116Y-72750767D01*
D13*
%TO.C,C1*%
X172168193Y-97537142D02*
X172120574Y-97584761D01*
X171977717Y-97632380D01*
X171882479Y-97632380D01*
X171739621Y-97584761D01*
X171644383Y-97489523D01*
X171596764Y-97394285D01*
X171549145Y-97203809D01*
X171549145Y-97060952D01*
X171596764Y-96870476D01*
X171644383Y-96775238D01*
X171739621Y-96680000D01*
X171882479Y-96632380D01*
X171977717Y-96632380D01*
X172120574Y-96680000D01*
X172168193Y-96727619D01*
X173120574Y-97632380D02*
X172549145Y-97632380D01*
X172834860Y-97632380D02*
X172834860Y-96632380D01*
X172739621Y-96775238D01*
X172644383Y-96870476D01*
X172549145Y-96918095D01*
%TO.C,H2*%
X117340495Y-128382380D02*
X117340495Y-127382380D01*
X117340495Y-127858571D02*
X117911923Y-127858571D01*
X117911923Y-128382380D02*
X117911923Y-127382380D01*
X118340495Y-127477619D02*
X118388114Y-127430000D01*
X118483352Y-127382380D01*
X118721447Y-127382380D01*
X118816685Y-127430000D01*
X118864304Y-127477619D01*
X118911923Y-127572857D01*
X118911923Y-127668095D01*
X118864304Y-127810952D01*
X118292876Y-128382380D01*
X118911923Y-128382380D01*
D16*
%TO.C,J0*%
X181618480Y-131212926D02*
X181903323Y-131212926D01*
X181960291Y-131231916D01*
X181998270Y-131269895D01*
X182017260Y-131326863D01*
X182017260Y-131364842D01*
X181618480Y-130947073D02*
X181618480Y-130909094D01*
X181637470Y-130871115D01*
X181656459Y-130852125D01*
X181694438Y-130833136D01*
X181770396Y-130814146D01*
X181865344Y-130814146D01*
X181941302Y-130833136D01*
X181979281Y-130852125D01*
X181998270Y-130871115D01*
X182017260Y-130909094D01*
X182017260Y-130947073D01*
X181998270Y-130985052D01*
X181979281Y-131004041D01*
X181941302Y-131023031D01*
X181865344Y-131042020D01*
X181770396Y-131042020D01*
X181694438Y-131023031D01*
X181656459Y-131004041D01*
X181637470Y-130985052D01*
X181618480Y-130947073D01*
D17*
%TO.C,U4*%
X165899860Y-108920000D02*
X167159860Y-108920000D01*
X172719860Y-112680000D02*
X172719860Y-108920000D01*
X172719860Y-108920000D02*
X171459860Y-108920000D01*
X165899860Y-114930000D02*
X165899860Y-108920000D01*
%TO.C,R3*%
X172374860Y-83752936D02*
X172374860Y-84207064D01*
X173844860Y-83752936D02*
X173844860Y-84207064D01*
D18*
%TO.C,S1*%
X163754860Y-109946000D02*
X163754860Y-113026000D01*
X159974860Y-108946000D02*
X162454860Y-108946000D01*
X162454860Y-114026000D02*
X159944860Y-114026000D01*
X158674860Y-113026000D02*
X158674860Y-109946000D01*
X162484860Y-111486000D02*
G75*
G03*
X162484860Y-111486000I-1270000J0D01*
G01*
D17*
%TO.C,R12*%
X167274860Y-130107064D02*
X167274860Y-129652936D01*
X168744860Y-130107064D02*
X168744860Y-129652936D01*
%TO.C,U2*%
X161739860Y-88440000D02*
X161739860Y-93740000D01*
X179639860Y-88440000D02*
X161739860Y-88440000D01*
X179639860Y-90090000D02*
X179639860Y-88440000D01*
X161739860Y-93740000D02*
X179639860Y-93740000D01*
X179639860Y-93740000D02*
X179639860Y-92090000D01*
X179639860Y-90090000D02*
G75*
G03*
X179639860Y-92090000I0J-1000000D01*
G01*
%TO.C,U3*%
X148825880Y-84461200D02*
X148825880Y-92201200D01*
X150475880Y-84461200D02*
X148825880Y-84461200D01*
X154125880Y-92201200D02*
X154125880Y-84461200D01*
X148825880Y-92201200D02*
X154125880Y-92201200D01*
X154125880Y-84461200D02*
X152475880Y-84461200D01*
X150475880Y-84461200D02*
G75*
G03*
X152475880Y-84461200I1000000J0D01*
G01*
%TO.C,C2*%
X156974860Y-85941252D02*
X156974860Y-85418748D01*
X158444860Y-85941252D02*
X158444860Y-85418748D01*
%TO.C,R10*%
X184644860Y-83452936D02*
X184644860Y-83907064D01*
X183174860Y-83452936D02*
X183174860Y-83907064D01*
%TO.C,C4*%
X174944860Y-113341252D02*
X174944860Y-112818748D01*
X173474860Y-113341252D02*
X173474860Y-112818748D01*
%TO.C,C6*%
X170086108Y-122815000D02*
X170608612Y-122815000D01*
X170086108Y-121345000D02*
X170608612Y-121345000D01*
%TO.C,D1*%
X150252400Y-80560000D02*
X150252400Y-82800000D01*
X150132400Y-80560000D02*
X150132400Y-82800000D01*
X148882400Y-81680000D02*
X149532400Y-81680000D01*
X153772400Y-82800000D02*
X153772400Y-80560000D01*
X149532400Y-80560000D02*
X149532400Y-82800000D01*
X154422400Y-81680000D02*
X153772400Y-81680000D01*
X153772400Y-80560000D02*
X149532400Y-80560000D01*
X149532400Y-82800000D02*
X153772400Y-82800000D01*
X150372400Y-80560000D02*
X150372400Y-82800000D01*
%TO.C,R4*%
X174974860Y-83752936D02*
X174974860Y-84207064D01*
X176444860Y-83752936D02*
X176444860Y-84207064D01*
%TO.C,D2*%
X180549860Y-81895000D02*
X180549860Y-84755000D01*
X182469860Y-84755000D02*
X182469860Y-81895000D01*
X182469860Y-81895000D02*
X180549860Y-81895000D01*
D13*
%TO.C,U1*%
X126179860Y-72970000D02*
X126179860Y-71700000D01*
X121099860Y-133930000D02*
X121099860Y-72970000D01*
X136339860Y-121230000D02*
X123639860Y-121230000D01*
X136339860Y-108530000D02*
X136339860Y-95830000D01*
X126690660Y-81809200D02*
X124150660Y-81809200D01*
X126690660Y-79269200D02*
X126690660Y-91969200D01*
X133799860Y-78050000D02*
X133799860Y-72970000D01*
X135069860Y-132660000D02*
X124909860Y-132660000D01*
X123639860Y-108530000D02*
X136339860Y-108530000D01*
X126690660Y-91969200D02*
X124150660Y-91969200D01*
X135069860Y-133930000D02*
X135069860Y-132660000D01*
X123639860Y-95830000D02*
X123639860Y-108530000D01*
X138879860Y-133930000D02*
X121099860Y-133930000D01*
X136339860Y-133930000D02*
X136339860Y-121230000D01*
X128719860Y-113610000D02*
X131259860Y-113610000D01*
X131259860Y-113610000D02*
X131259860Y-117420000D01*
X126179860Y-71700000D02*
X133799860Y-71700000D01*
X124150660Y-91969200D02*
X124150660Y-79269200D01*
X121099860Y-72970000D02*
X138879860Y-72970000D01*
X131259860Y-117420000D02*
X128719860Y-117420000D01*
X124150660Y-79269200D02*
X126690660Y-79269200D01*
X126179860Y-78050000D02*
X133799860Y-78050000D01*
X126179860Y-78050000D02*
X126179860Y-72970000D01*
X136339860Y-95830000D02*
X123639860Y-95830000D01*
X128719860Y-117420000D02*
X128719860Y-113610000D01*
X124909860Y-132660000D02*
X124909860Y-133930000D01*
X138879860Y-72970000D02*
X138879860Y-133930000D01*
X126690660Y-79269200D02*
X126690660Y-81809200D01*
X123639860Y-121230000D02*
X123639860Y-133930000D01*
X133799860Y-71700000D02*
X133799860Y-72970000D01*
X130887886Y-115515000D02*
G75*
G03*
X130887886Y-115515000I-898026J0D01*
G01*
D19*
X130296860Y-106647000D02*
X130042860Y-106393000D01*
X130042860Y-106393000D02*
X130423860Y-106139000D01*
X130423860Y-106139000D02*
X130677860Y-106393000D01*
X130677860Y-106393000D02*
X130296860Y-106647000D01*
G36*
X130677860Y-106393000D02*
G01*
X130296860Y-106647000D01*
X130042860Y-106393000D01*
X130423860Y-106139000D01*
X130677860Y-106393000D01*
G37*
X130677860Y-106393000D02*
X130296860Y-106647000D01*
X130042860Y-106393000D01*
X130423860Y-106139000D01*
X130677860Y-106393000D01*
X130042860Y-105504000D02*
X129788860Y-105250000D01*
X129788860Y-105250000D02*
X130169860Y-104996000D01*
X130169860Y-104996000D02*
X130423860Y-105250000D01*
X130423860Y-105250000D02*
X130042860Y-105504000D01*
G36*
X130423860Y-105250000D02*
G01*
X130042860Y-105504000D01*
X129788860Y-105250000D01*
X130169860Y-104996000D01*
X130423860Y-105250000D01*
G37*
X130423860Y-105250000D02*
X130042860Y-105504000D01*
X129788860Y-105250000D01*
X130169860Y-104996000D01*
X130423860Y-105250000D01*
X130677860Y-104361000D02*
X130423860Y-104107000D01*
X130423860Y-104107000D02*
X130804860Y-103853000D01*
X130804860Y-103853000D02*
X131058860Y-104107000D01*
X131058860Y-104107000D02*
X130677860Y-104361000D01*
G36*
X131058860Y-104107000D02*
G01*
X130677860Y-104361000D01*
X130423860Y-104107000D01*
X130804860Y-103853000D01*
X131058860Y-104107000D01*
G37*
X131058860Y-104107000D02*
X130677860Y-104361000D01*
X130423860Y-104107000D01*
X130804860Y-103853000D01*
X131058860Y-104107000D01*
X130169860Y-104742000D02*
X129915860Y-104488000D01*
X129915860Y-104488000D02*
X130296860Y-104234000D01*
X130296860Y-104234000D02*
X130550860Y-104488000D01*
X130550860Y-104488000D02*
X130169860Y-104742000D01*
G36*
X130550860Y-104488000D02*
G01*
X130169860Y-104742000D01*
X129915860Y-104488000D01*
X130296860Y-104234000D01*
X130550860Y-104488000D01*
G37*
X130550860Y-104488000D02*
X130169860Y-104742000D01*
X129915860Y-104488000D01*
X130296860Y-104234000D01*
X130550860Y-104488000D01*
X129534860Y-105885000D02*
X129280860Y-105631000D01*
X129280860Y-105631000D02*
X129661860Y-105377000D01*
X129661860Y-105377000D02*
X129915860Y-105631000D01*
X129915860Y-105631000D02*
X129534860Y-105885000D01*
G36*
X129915860Y-105631000D02*
G01*
X129534860Y-105885000D01*
X129280860Y-105631000D01*
X129661860Y-105377000D01*
X129915860Y-105631000D01*
G37*
X129915860Y-105631000D02*
X129534860Y-105885000D01*
X129280860Y-105631000D01*
X129661860Y-105377000D01*
X129915860Y-105631000D01*
X129915860Y-106266000D02*
X129661860Y-106012000D01*
X129661860Y-106012000D02*
X130042860Y-105758000D01*
X130042860Y-105758000D02*
X130296860Y-106012000D01*
X130296860Y-106012000D02*
X129915860Y-106266000D01*
G36*
X130296860Y-106012000D02*
G01*
X129915860Y-106266000D01*
X129661860Y-106012000D01*
X130042860Y-105758000D01*
X130296860Y-106012000D01*
G37*
X130296860Y-106012000D02*
X129915860Y-106266000D01*
X129661860Y-106012000D01*
X130042860Y-105758000D01*
X130296860Y-106012000D01*
X130550860Y-105123000D02*
X130296860Y-104869000D01*
X130296860Y-104869000D02*
X130677860Y-104615000D01*
X130677860Y-104615000D02*
X130931860Y-104869000D01*
X130931860Y-104869000D02*
X130550860Y-105123000D01*
G36*
X130931860Y-104869000D02*
G01*
X130550860Y-105123000D01*
X130296860Y-104869000D01*
X130677860Y-104615000D01*
X130931860Y-104869000D01*
G37*
X130931860Y-104869000D02*
X130550860Y-105123000D01*
X130296860Y-104869000D01*
X130677860Y-104615000D01*
X130931860Y-104869000D01*
X129661860Y-105123000D02*
X129407860Y-104869000D01*
X129407860Y-104869000D02*
X129788860Y-104615000D01*
X129788860Y-104615000D02*
X130042860Y-104869000D01*
X130042860Y-104869000D02*
X129661860Y-105123000D01*
G36*
X130042860Y-104869000D02*
G01*
X129661860Y-105123000D01*
X129407860Y-104869000D01*
X129788860Y-104615000D01*
X130042860Y-104869000D01*
G37*
X130042860Y-104869000D02*
X129661860Y-105123000D01*
X129407860Y-104869000D01*
X129788860Y-104615000D01*
X130042860Y-104869000D01*
D17*
%TO.C,J32*%
X111872400Y-89950000D02*
X113202400Y-89950000D01*
X111872400Y-125630000D02*
X114532400Y-125630000D01*
X111872400Y-92550000D02*
X114532400Y-92550000D01*
X111872400Y-91280000D02*
X111872400Y-89950000D01*
X114532400Y-92550000D02*
X114532400Y-125630000D01*
X111872400Y-92550000D02*
X111872400Y-125630000D01*
%TO.C,J31*%
X181072400Y-91280000D02*
X181072400Y-89950000D01*
X181072400Y-125630000D02*
X183732400Y-125630000D01*
X183732400Y-92550000D02*
X183732400Y-125630000D01*
X181072400Y-92550000D02*
X181072400Y-125630000D01*
X181072400Y-89950000D02*
X182402400Y-89950000D01*
X181072400Y-92550000D02*
X183732400Y-92550000D01*
%TO.C,U5*%
X147559860Y-134280000D02*
X165509860Y-134280000D01*
X147559860Y-120530000D02*
X147559860Y-120280000D01*
X165559860Y-120280000D02*
X165559860Y-120530000D01*
X165559860Y-140280000D02*
X147559860Y-140280000D01*
X147559860Y-120280000D02*
X165559860Y-120280000D01*
X165559860Y-140280000D02*
X165559860Y-133780000D01*
X147559860Y-140280000D02*
X147559860Y-133780000D01*
%TO.C,R14*%
X168082796Y-123445000D02*
X168536924Y-123445000D01*
X168082796Y-124915000D02*
X168536924Y-124915000D01*
%TO.C,R7*%
X142944860Y-86452936D02*
X142944860Y-86907064D01*
X141474860Y-86452936D02*
X141474860Y-86907064D01*
%TO.C,C5*%
X170048608Y-118415000D02*
X170571112Y-118415000D01*
X170048608Y-116945000D02*
X170571112Y-116945000D01*
D19*
%TO.C,J96*%
X141809860Y-134560000D02*
X142309860Y-134560000D01*
X148409860Y-134560000D02*
X148409860Y-134060000D01*
X141809860Y-134560000D02*
X141809860Y-134060000D01*
X148409860Y-134560000D02*
X147909860Y-134560000D01*
%TO.C,J99*%
X156889860Y-121980000D02*
X156889860Y-121480000D01*
X156889860Y-121980000D02*
X156389860Y-121980000D01*
X156889860Y-115380000D02*
X156389860Y-115380000D01*
X156889860Y-115380000D02*
X156889860Y-115880000D01*
D17*
%TO.C,R11*%
X168082796Y-125745000D02*
X168536924Y-125745000D01*
X168082796Y-127215000D02*
X168536924Y-127215000D01*
D20*
%TO.C,J90*%
X183910220Y-63729320D02*
X164410640Y-63729320D01*
X183910220Y-63480400D02*
X183910220Y-63980780D01*
X182409080Y-64229700D02*
X162909500Y-64229700D01*
X164410640Y-63980780D02*
X182409080Y-63980780D01*
X182426860Y-79965000D02*
X182409080Y-64979000D01*
X164392860Y-79990400D02*
X171377860Y-79990400D01*
X182409080Y-64481160D02*
X162909500Y-64481160D01*
X162909500Y-63980780D02*
X164410640Y-63980780D01*
X182426860Y-79990400D02*
X171327060Y-79990400D01*
X183910220Y-63980780D02*
X182409080Y-63980780D01*
X182409080Y-64979000D02*
X181908700Y-64979000D01*
X181908700Y-64979000D02*
X181908700Y-64481160D01*
X164392860Y-79990400D02*
X164410640Y-64979000D01*
X164410640Y-63980780D02*
X164410640Y-63480400D01*
X164911020Y-64481160D02*
X164911020Y-64979000D01*
X164410640Y-63480400D02*
X183910220Y-63480400D01*
X164410640Y-64979000D02*
X164911020Y-64979000D01*
X182409080Y-63980780D02*
X182409080Y-64481160D01*
X162909500Y-64481160D02*
X162909500Y-63980780D01*
D17*
%TO.C,R8*%
X159174860Y-85452936D02*
X159174860Y-85907064D01*
X160644860Y-85452936D02*
X160644860Y-85907064D01*
%TO.C,C8*%
X166148608Y-118415000D02*
X166671112Y-118415000D01*
X166148608Y-116945000D02*
X166671112Y-116945000D01*
%TO.C,C7*%
X170086108Y-120515000D02*
X170608612Y-120515000D01*
X170086108Y-119045000D02*
X170608612Y-119045000D01*
%TO.C,R2*%
X171444860Y-83652936D02*
X171444860Y-84107064D01*
X169974860Y-83652936D02*
X169974860Y-84107064D01*
D21*
%TO.C,REF\u002A\u002A*%
X119484400Y-87225000D02*
X117974400Y-87225000D01*
X105484400Y-74095000D02*
X113394400Y-74095000D01*
X113394400Y-87225000D02*
X105484400Y-87225000D01*
X117974400Y-74095000D02*
X119484400Y-74095000D01*
X105484400Y-87225000D02*
X105484400Y-74095000D01*
X119484400Y-74095000D02*
X119484400Y-87225000D01*
D11*
X120324400Y-77160000D02*
G75*
G03*
X120324400Y-77160000I-150000J0D01*
G01*
D20*
%TO.C,J40*%
X142010640Y-63580400D02*
X161510220Y-63580400D01*
X160009080Y-64080780D02*
X160009080Y-64581160D01*
X140509500Y-64080780D02*
X142010640Y-64080780D01*
X160026860Y-80065000D02*
X160009080Y-65079000D01*
X142010640Y-64080780D02*
X142010640Y-63580400D01*
X141992860Y-80090400D02*
X142010640Y-65079000D01*
X161510220Y-63829320D02*
X142010640Y-63829320D01*
X160009080Y-64581160D02*
X140509500Y-64581160D01*
X160026860Y-80090400D02*
X148927060Y-80090400D01*
X140509500Y-64581160D02*
X140509500Y-64080780D01*
X159508700Y-65079000D02*
X159508700Y-64581160D01*
X142511020Y-64581160D02*
X142511020Y-65079000D01*
X142010640Y-64080780D02*
X160009080Y-64080780D01*
X161510220Y-64080780D02*
X160009080Y-64080780D01*
X160009080Y-64329700D02*
X140509500Y-64329700D01*
X161510220Y-63580400D02*
X161510220Y-64080780D01*
X141992860Y-80090400D02*
X148977860Y-80090400D01*
X142010640Y-65079000D02*
X142511020Y-65079000D01*
X160009080Y-65079000D02*
X159508700Y-65079000D01*
D17*
%TO.C,C1*%
X174911108Y-96445000D02*
X175433612Y-96445000D01*
X174911108Y-97915000D02*
X175433612Y-97915000D01*
D13*
%TO.C,J0*%
X180636860Y-133630000D02*
X180636860Y-134130000D01*
X183336860Y-133630000D02*
X180636860Y-133630000D01*
X175536860Y-134130000D02*
X169436860Y-134130000D01*
X180636860Y-134130000D02*
X179586860Y-134130000D01*
X169436860Y-128130000D02*
X170286860Y-128130000D01*
X169436860Y-134130000D02*
X169436860Y-128130000D01*
X179536860Y-128130000D02*
X180636860Y-128130000D01*
X180636860Y-128630000D02*
X183336860Y-128630000D01*
X177286860Y-128130000D02*
X172336860Y-128130000D01*
X179536860Y-134130000D02*
X177536860Y-134130000D01*
X183336860Y-128630000D02*
X183336860Y-133630000D01*
X180636860Y-128130000D02*
X180636860Y-128630000D01*
%TD*%
D22*
%TO.C,J90*%
X165911780Y-75977200D03*
X173409860Y-75979740D03*
X180907940Y-75977200D03*
X168413680Y-78479100D03*
X178406040Y-78479100D03*
%TD*%
%TO.C,J40*%
X143511780Y-76077200D03*
X151009860Y-76079740D03*
X158507940Y-76077200D03*
X146013680Y-78579100D03*
X156006040Y-78579100D03*
%TD*%
D23*
%TO.C,J0*%
X172536860Y-131130000D03*
X178536860Y-131130000D03*
%TD*%
M02*
