%TF.GenerationSoftware,KiCad,Pcbnew,(6.0.2)*%
%TF.CreationDate,2023-02-09T01:22:52-05:00*%
%TF.ProjectId,bottom,626f7474-6f6d-42e6-9b69-6361645f7063,rev?*%
%TF.SameCoordinates,Original*%
%TF.FileFunction,Legend,Top*%
%TF.FilePolarity,Positive*%
%FSLAX46Y46*%
G04 Gerber Fmt 4.6, Leading zero omitted, Abs format (unit mm)*
G04 Created by KiCad (PCBNEW (6.0.2)) date 2023-02-09 01:22:52*
%MOMM*%
%LPD*%
G01*
G04 APERTURE LIST*
%ADD10C,0.200000*%
%ADD11C,0.125000*%
%ADD12C,0.300000*%
%ADD13C,0.100000*%
%ADD14C,0.150000*%
%ADD15C,0.050800*%
%ADD16C,0.120000*%
%ADD17C,0.304800*%
%ADD18C,0.127000*%
%ADD19C,2.499360*%
%ADD20C,1.200000*%
G04 APERTURE END LIST*
D10*
X162758133Y-86955180D02*
X162424800Y-86478990D01*
X162186704Y-86955180D02*
X162186704Y-85955180D01*
X162567657Y-85955180D01*
X162662895Y-86002800D01*
X162710514Y-86050419D01*
X162758133Y-86145657D01*
X162758133Y-86288514D01*
X162710514Y-86383752D01*
X162662895Y-86431371D01*
X162567657Y-86478990D01*
X162186704Y-86478990D01*
X163091466Y-85955180D02*
X163758133Y-86955180D01*
X163758133Y-85955180D02*
X163091466Y-86955180D01*
X164662895Y-85985180D02*
X165234323Y-85985180D01*
X164948609Y-86985180D02*
X164948609Y-85985180D01*
X165472419Y-85985180D02*
X166139085Y-86985180D01*
X166139085Y-85985180D02*
X165472419Y-86985180D01*
X167654323Y-86005180D02*
X167178133Y-86005180D01*
X167130514Y-86481371D01*
X167178133Y-86433752D01*
X167273371Y-86386133D01*
X167511466Y-86386133D01*
X167606704Y-86433752D01*
X167654323Y-86481371D01*
X167701942Y-86576609D01*
X167701942Y-86814704D01*
X167654323Y-86909942D01*
X167606704Y-86957561D01*
X167511466Y-87005180D01*
X167273371Y-87005180D01*
X167178133Y-86957561D01*
X167130514Y-86909942D01*
X167987657Y-86005180D02*
X168320990Y-87005180D01*
X168654323Y-86005180D01*
X159402895Y-86012800D02*
X159307657Y-85965180D01*
X159164800Y-85965180D01*
X159021942Y-86012800D01*
X158926704Y-86108038D01*
X158879085Y-86203276D01*
X158831466Y-86393752D01*
X158831466Y-86536609D01*
X158879085Y-86727085D01*
X158926704Y-86822323D01*
X159021942Y-86917561D01*
X159164800Y-86965180D01*
X159260038Y-86965180D01*
X159402895Y-86917561D01*
X159450514Y-86869942D01*
X159450514Y-86536609D01*
X159260038Y-86536609D01*
X159879085Y-86965180D02*
X159879085Y-85965180D01*
X160450514Y-86965180D01*
X160450514Y-85965180D01*
X160926704Y-86965180D02*
X160926704Y-85965180D01*
X161164800Y-85965180D01*
X161307657Y-86012800D01*
X161402895Y-86108038D01*
X161450514Y-86203276D01*
X161498133Y-86393752D01*
X161498133Y-86536609D01*
X161450514Y-86727085D01*
X161402895Y-86822323D01*
X161307657Y-86917561D01*
X161164800Y-86965180D01*
X160926704Y-86965180D01*
D11*
X174619383Y-110515714D02*
X175000336Y-110515714D01*
X174809860Y-110706190D02*
X174809860Y-110325238D01*
X184219383Y-80915714D02*
X184600336Y-80915714D01*
X184409860Y-81106190D02*
X184409860Y-80725238D01*
D12*
X130001942Y-133381371D02*
X130001942Y-131881371D01*
X130001942Y-132595657D02*
X130859085Y-132595657D01*
X130859085Y-133381371D02*
X130859085Y-131881371D01*
X132144800Y-133309942D02*
X132001942Y-133381371D01*
X131716228Y-133381371D01*
X131573371Y-133309942D01*
X131501942Y-133167085D01*
X131501942Y-132595657D01*
X131573371Y-132452800D01*
X131716228Y-132381371D01*
X132001942Y-132381371D01*
X132144800Y-132452800D01*
X132216228Y-132595657D01*
X132216228Y-132738514D01*
X131501942Y-132881371D01*
X133501942Y-133381371D02*
X133501942Y-132595657D01*
X133430514Y-132452800D01*
X133287657Y-132381371D01*
X133001942Y-132381371D01*
X132859085Y-132452800D01*
X133501942Y-133309942D02*
X133359085Y-133381371D01*
X133001942Y-133381371D01*
X132859085Y-133309942D01*
X132787657Y-133167085D01*
X132787657Y-133024228D01*
X132859085Y-132881371D01*
X133001942Y-132809942D01*
X133359085Y-132809942D01*
X133501942Y-132738514D01*
X134859085Y-133381371D02*
X134859085Y-131881371D01*
X134859085Y-133309942D02*
X134716228Y-133381371D01*
X134430514Y-133381371D01*
X134287657Y-133309942D01*
X134216228Y-133238514D01*
X134144800Y-133095657D01*
X134144800Y-132667085D01*
X134216228Y-132524228D01*
X134287657Y-132452800D01*
X134430514Y-132381371D01*
X134716228Y-132381371D01*
X134859085Y-132452800D01*
X135573371Y-132381371D02*
X135573371Y-133881371D01*
X135573371Y-132452800D02*
X135716228Y-132381371D01*
X136001942Y-132381371D01*
X136144800Y-132452800D01*
X136216228Y-132524228D01*
X136287657Y-132667085D01*
X136287657Y-133095657D01*
X136216228Y-133238514D01*
X136144800Y-133309942D01*
X136001942Y-133381371D01*
X135716228Y-133381371D01*
X135573371Y-133309942D01*
X136930514Y-133381371D02*
X136930514Y-131881371D01*
X137573371Y-133381371D02*
X137573371Y-132595657D01*
X137501942Y-132452800D01*
X137359085Y-132381371D01*
X137144800Y-132381371D01*
X137001942Y-132452800D01*
X136930514Y-132524228D01*
X138501942Y-133381371D02*
X138359085Y-133309942D01*
X138287657Y-133238514D01*
X138216228Y-133095657D01*
X138216228Y-132667085D01*
X138287657Y-132524228D01*
X138359085Y-132452800D01*
X138501942Y-132381371D01*
X138716228Y-132381371D01*
X138859085Y-132452800D01*
X138930514Y-132524228D01*
X139001942Y-132667085D01*
X139001942Y-133095657D01*
X138930514Y-133238514D01*
X138859085Y-133309942D01*
X138716228Y-133381371D01*
X138501942Y-133381371D01*
X139644800Y-132381371D02*
X139644800Y-133381371D01*
X139644800Y-132524228D02*
X139716228Y-132452800D01*
X139859085Y-132381371D01*
X140073371Y-132381371D01*
X140216228Y-132452800D01*
X140287657Y-132595657D01*
X140287657Y-133381371D01*
X141573371Y-133309942D02*
X141430514Y-133381371D01*
X141144800Y-133381371D01*
X141001942Y-133309942D01*
X140930514Y-133167085D01*
X140930514Y-132595657D01*
X141001942Y-132452800D01*
X141144800Y-132381371D01*
X141430514Y-132381371D01*
X141573371Y-132452800D01*
X141644800Y-132595657D01*
X141644800Y-132738514D01*
X140930514Y-132881371D01*
X142216228Y-133309942D02*
X142359085Y-133381371D01*
X142644800Y-133381371D01*
X142787657Y-133309942D01*
X142859085Y-133167085D01*
X142859085Y-133095657D01*
X142787657Y-132952800D01*
X142644800Y-132881371D01*
X142430514Y-132881371D01*
X142287657Y-132809942D01*
X142216228Y-132667085D01*
X142216228Y-132595657D01*
X142287657Y-132452800D01*
X142430514Y-132381371D01*
X142644800Y-132381371D01*
X142787657Y-132452800D01*
X162207657Y-133551371D02*
X161493371Y-133551371D01*
X161493371Y-132051371D01*
X162707657Y-133551371D02*
X162707657Y-132551371D01*
X162707657Y-132051371D02*
X162636228Y-132122800D01*
X162707657Y-132194228D01*
X162779085Y-132122800D01*
X162707657Y-132051371D01*
X162707657Y-132194228D01*
X163421942Y-132551371D02*
X163421942Y-133551371D01*
X163421942Y-132694228D02*
X163493371Y-132622800D01*
X163636228Y-132551371D01*
X163850514Y-132551371D01*
X163993371Y-132622800D01*
X164064800Y-132765657D01*
X164064800Y-133551371D01*
X165350514Y-133479942D02*
X165207657Y-133551371D01*
X164921942Y-133551371D01*
X164779085Y-133479942D01*
X164707657Y-133337085D01*
X164707657Y-132765657D01*
X164779085Y-132622800D01*
X164921942Y-132551371D01*
X165207657Y-132551371D01*
X165350514Y-132622800D01*
X165421942Y-132765657D01*
X165421942Y-132908514D01*
X164707657Y-133051371D01*
X167207657Y-133551371D02*
X167207657Y-132551371D01*
X167207657Y-132051371D02*
X167136228Y-132122800D01*
X167207657Y-132194228D01*
X167279085Y-132122800D01*
X167207657Y-132051371D01*
X167207657Y-132194228D01*
X167921942Y-132551371D02*
X167921942Y-133551371D01*
X167921942Y-132694228D02*
X167993371Y-132622800D01*
X168136228Y-132551371D01*
X168350514Y-132551371D01*
X168493371Y-132622800D01*
X168564800Y-132765657D01*
X168564800Y-133551371D01*
X171207657Y-133551371D02*
X170350514Y-133551371D01*
X170779085Y-133551371D02*
X170779085Y-132051371D01*
X170636228Y-132265657D01*
X170493371Y-132408514D01*
X170350514Y-132479942D01*
D13*
%TO.C,C31*%
X169276971Y-120701371D02*
X169253161Y-120725180D01*
X169181733Y-120748990D01*
X169134114Y-120748990D01*
X169062685Y-120725180D01*
X169015066Y-120677561D01*
X168991257Y-120629942D01*
X168967447Y-120534704D01*
X168967447Y-120463276D01*
X168991257Y-120368038D01*
X169015066Y-120320419D01*
X169062685Y-120272800D01*
X169134114Y-120248990D01*
X169181733Y-120248990D01*
X169253161Y-120272800D01*
X169276971Y-120296609D01*
X169443638Y-120248990D02*
X169753161Y-120248990D01*
X169586495Y-120439466D01*
X169657923Y-120439466D01*
X169705542Y-120463276D01*
X169729352Y-120487085D01*
X169753161Y-120534704D01*
X169753161Y-120653752D01*
X169729352Y-120701371D01*
X169705542Y-120725180D01*
X169657923Y-120748990D01*
X169515066Y-120748990D01*
X169467447Y-120725180D01*
X169443638Y-120701371D01*
X170229352Y-120748990D02*
X169943638Y-120748990D01*
X170086495Y-120748990D02*
X170086495Y-120248990D01*
X170038876Y-120320419D01*
X169991257Y-120368038D01*
X169943638Y-120391847D01*
%TO.C,C11*%
X149581184Y-135963952D02*
X149581184Y-135997624D01*
X149547512Y-136064967D01*
X149513841Y-136098639D01*
X149446497Y-136132311D01*
X149379154Y-136132311D01*
X149328646Y-136115475D01*
X149244467Y-136064967D01*
X149193959Y-136014460D01*
X149143451Y-135930280D01*
X149126616Y-135879773D01*
X149126616Y-135812429D01*
X149160287Y-135745086D01*
X149193959Y-135711414D01*
X149261303Y-135677742D01*
X149294974Y-135677742D01*
X149951574Y-135660906D02*
X149749543Y-135862937D01*
X149850558Y-135761921D02*
X149497005Y-135408368D01*
X149513841Y-135492547D01*
X149513841Y-135559891D01*
X149497005Y-135610399D01*
X150288291Y-135324189D02*
X150086261Y-135526219D01*
X150187276Y-135425204D02*
X149833722Y-135071650D01*
X149850558Y-135155830D01*
X149850558Y-135223173D01*
X149833722Y-135273681D01*
%TO.C,R17*%
X150104825Y-123506743D02*
X150054317Y-123792953D01*
X150306855Y-123708774D02*
X149953302Y-124062327D01*
X149818615Y-123927640D01*
X149801779Y-123877132D01*
X149801779Y-123843461D01*
X149818615Y-123792953D01*
X149869122Y-123742445D01*
X149919630Y-123725609D01*
X149953302Y-123725609D01*
X150003809Y-123742445D01*
X150138496Y-123877132D01*
X149768107Y-123170025D02*
X149970138Y-123372056D01*
X149869122Y-123271041D02*
X149515569Y-123624594D01*
X149599748Y-123607758D01*
X149667092Y-123607758D01*
X149717600Y-123624594D01*
X149296703Y-123405728D02*
X149061000Y-123170025D01*
X149566077Y-122967995D01*
%TO.C,C33*%
X154055184Y-134104353D02*
X154055184Y-134138025D01*
X154021512Y-134205368D01*
X153987841Y-134239040D01*
X153920497Y-134272712D01*
X153853154Y-134272712D01*
X153802646Y-134255876D01*
X153718467Y-134205368D01*
X153667959Y-134154861D01*
X153617451Y-134070681D01*
X153600616Y-134020174D01*
X153600616Y-133952830D01*
X153634287Y-133885487D01*
X153667959Y-133851815D01*
X153735303Y-133818143D01*
X153768974Y-133818143D01*
X153853154Y-133666620D02*
X154072020Y-133447754D01*
X154088856Y-133700292D01*
X154139364Y-133649784D01*
X154189871Y-133632948D01*
X154223543Y-133632948D01*
X154274051Y-133649784D01*
X154358230Y-133733964D01*
X154375066Y-133784471D01*
X154375066Y-133818143D01*
X154358230Y-133868651D01*
X154257215Y-133969666D01*
X154206707Y-133986502D01*
X154173035Y-133986502D01*
X154189871Y-133329903D02*
X154408738Y-133111036D01*
X154425574Y-133363574D01*
X154476081Y-133313067D01*
X154526589Y-133296231D01*
X154560261Y-133296231D01*
X154610768Y-133313067D01*
X154694948Y-133397246D01*
X154711783Y-133447754D01*
X154711783Y-133481425D01*
X154694948Y-133531933D01*
X154593932Y-133632948D01*
X154543425Y-133649784D01*
X154509753Y-133649784D01*
%TO.C,C36*%
X145336753Y-129183615D02*
X145370425Y-129183615D01*
X145437768Y-129217287D01*
X145471440Y-129250958D01*
X145505112Y-129318302D01*
X145505112Y-129385645D01*
X145488276Y-129436153D01*
X145437768Y-129520332D01*
X145387261Y-129570840D01*
X145303081Y-129621348D01*
X145252574Y-129638183D01*
X145185230Y-129638183D01*
X145117887Y-129604512D01*
X145084215Y-129570840D01*
X145050543Y-129503496D01*
X145050543Y-129469825D01*
X144899020Y-129385645D02*
X144680154Y-129166779D01*
X144932692Y-129149943D01*
X144882184Y-129099435D01*
X144865348Y-129048928D01*
X144865348Y-129015256D01*
X144882184Y-128964748D01*
X144966364Y-128880569D01*
X145016871Y-128863733D01*
X145050543Y-128863733D01*
X145101051Y-128880569D01*
X145202066Y-128981584D01*
X145218902Y-129032092D01*
X145218902Y-129065764D01*
X144377108Y-128863733D02*
X144444451Y-128931077D01*
X144494959Y-128947912D01*
X144528631Y-128947912D01*
X144612810Y-128931077D01*
X144696990Y-128880569D01*
X144831677Y-128745882D01*
X144848512Y-128695374D01*
X144848512Y-128661703D01*
X144831677Y-128611195D01*
X144764333Y-128543851D01*
X144713825Y-128527016D01*
X144680154Y-128527016D01*
X144629646Y-128543851D01*
X144545467Y-128628031D01*
X144528631Y-128678538D01*
X144528631Y-128712210D01*
X144545467Y-128762718D01*
X144612810Y-128830061D01*
X144663318Y-128846897D01*
X144696990Y-128846897D01*
X144747497Y-128830061D01*
%TO.C,R18*%
X149356801Y-124442519D02*
X149306293Y-124728729D01*
X149558831Y-124644550D02*
X149205278Y-124998103D01*
X149070591Y-124863416D01*
X149053755Y-124812908D01*
X149053755Y-124779237D01*
X149070591Y-124728729D01*
X149121098Y-124678221D01*
X149171606Y-124661385D01*
X149205278Y-124661385D01*
X149255785Y-124678221D01*
X149390472Y-124812908D01*
X149020083Y-124105801D02*
X149222114Y-124307832D01*
X149121098Y-124206817D02*
X148767545Y-124560370D01*
X148851724Y-124543534D01*
X148919068Y-124543534D01*
X148969576Y-124560370D01*
X148616022Y-124105801D02*
X148632858Y-124156309D01*
X148632858Y-124189981D01*
X148616022Y-124240488D01*
X148599186Y-124257324D01*
X148548679Y-124274160D01*
X148515007Y-124274160D01*
X148464499Y-124257324D01*
X148397156Y-124189981D01*
X148380320Y-124139473D01*
X148380320Y-124105801D01*
X148397156Y-124055294D01*
X148413992Y-124038458D01*
X148464499Y-124021622D01*
X148498171Y-124021622D01*
X148548679Y-124038458D01*
X148616022Y-124105801D01*
X148666530Y-124122637D01*
X148700201Y-124122637D01*
X148750709Y-124105801D01*
X148818053Y-124038458D01*
X148834888Y-123987950D01*
X148834888Y-123954279D01*
X148818053Y-123903771D01*
X148750709Y-123836427D01*
X148700201Y-123819592D01*
X148666530Y-123819592D01*
X148616022Y-123836427D01*
X148548679Y-123903771D01*
X148531843Y-123954279D01*
X148531843Y-123987950D01*
X148548679Y-124038458D01*
D14*
%TO.C,C2*%
X160067002Y-83746666D02*
X160114621Y-83794285D01*
X160162240Y-83937142D01*
X160162240Y-84032380D01*
X160114621Y-84175238D01*
X160019383Y-84270476D01*
X159924145Y-84318095D01*
X159733669Y-84365714D01*
X159590812Y-84365714D01*
X159400336Y-84318095D01*
X159305098Y-84270476D01*
X159209860Y-84175238D01*
X159162240Y-84032380D01*
X159162240Y-83937142D01*
X159209860Y-83794285D01*
X159257479Y-83746666D01*
X159257479Y-83365714D02*
X159209860Y-83318095D01*
X159162240Y-83222857D01*
X159162240Y-82984761D01*
X159209860Y-82889523D01*
X159257479Y-82841904D01*
X159352717Y-82794285D01*
X159447955Y-82794285D01*
X159590812Y-82841904D01*
X160162240Y-83413333D01*
X160162240Y-82794285D01*
D13*
%TO.C,C35*%
X159681173Y-126067164D02*
X159681173Y-126100836D01*
X159647501Y-126168179D01*
X159613830Y-126201851D01*
X159546486Y-126235523D01*
X159479143Y-126235523D01*
X159428635Y-126218687D01*
X159344456Y-126168179D01*
X159293948Y-126117672D01*
X159243440Y-126033492D01*
X159226605Y-125982985D01*
X159226605Y-125915641D01*
X159260276Y-125848298D01*
X159293948Y-125814626D01*
X159361292Y-125780954D01*
X159394963Y-125780954D01*
X159479143Y-125629431D02*
X159698009Y-125410565D01*
X159714845Y-125663103D01*
X159765353Y-125612595D01*
X159815860Y-125595759D01*
X159849532Y-125595759D01*
X159900040Y-125612595D01*
X159984219Y-125696775D01*
X160001055Y-125747282D01*
X160001055Y-125780954D01*
X159984219Y-125831462D01*
X159883204Y-125932477D01*
X159832696Y-125949313D01*
X159799024Y-125949313D01*
X160017891Y-125090683D02*
X159849532Y-125259042D01*
X160001055Y-125444236D01*
X160001055Y-125410565D01*
X160017891Y-125360057D01*
X160102070Y-125275878D01*
X160152578Y-125259042D01*
X160186250Y-125259042D01*
X160236757Y-125275878D01*
X160320937Y-125360057D01*
X160337772Y-125410565D01*
X160337772Y-125444236D01*
X160320937Y-125494744D01*
X160236757Y-125578923D01*
X160186250Y-125595759D01*
X160152578Y-125595759D01*
%TO.C,R16*%
X151029601Y-122820319D02*
X150979093Y-123106529D01*
X151231631Y-123022350D02*
X150878078Y-123375903D01*
X150743391Y-123241216D01*
X150726555Y-123190708D01*
X150726555Y-123157037D01*
X150743391Y-123106529D01*
X150793898Y-123056021D01*
X150844406Y-123039185D01*
X150878078Y-123039185D01*
X150928585Y-123056021D01*
X151063272Y-123190708D01*
X150692883Y-122483601D02*
X150894914Y-122685632D01*
X150793898Y-122584617D02*
X150440345Y-122938170D01*
X150524524Y-122921334D01*
X150591868Y-122921334D01*
X150642376Y-122938170D01*
X150036284Y-122534109D02*
X150103627Y-122601453D01*
X150154135Y-122618288D01*
X150187807Y-122618288D01*
X150271986Y-122601453D01*
X150356166Y-122550945D01*
X150490853Y-122416258D01*
X150507688Y-122365750D01*
X150507688Y-122332079D01*
X150490853Y-122281571D01*
X150423509Y-122214227D01*
X150373001Y-122197392D01*
X150339330Y-122197392D01*
X150288822Y-122214227D01*
X150204643Y-122298407D01*
X150187807Y-122348914D01*
X150187807Y-122382586D01*
X150204643Y-122433094D01*
X150271986Y-122500437D01*
X150322494Y-122517273D01*
X150356166Y-122517273D01*
X150406673Y-122500437D01*
%TO.C,C23*%
X146193784Y-126296353D02*
X146193784Y-126330025D01*
X146160112Y-126397368D01*
X146126441Y-126431040D01*
X146059097Y-126464712D01*
X145991754Y-126464712D01*
X145941246Y-126447876D01*
X145857067Y-126397368D01*
X145806559Y-126346861D01*
X145756051Y-126262681D01*
X145739216Y-126212174D01*
X145739216Y-126144830D01*
X145772887Y-126077487D01*
X145806559Y-126043815D01*
X145873903Y-126010143D01*
X145907574Y-126010143D01*
X146042261Y-125875456D02*
X146042261Y-125841784D01*
X146059097Y-125791277D01*
X146143277Y-125707097D01*
X146193784Y-125690261D01*
X146227456Y-125690261D01*
X146277964Y-125707097D01*
X146311635Y-125740769D01*
X146345307Y-125808112D01*
X146345307Y-126212174D01*
X146564174Y-125993307D01*
X146328471Y-125521903D02*
X146547338Y-125303036D01*
X146564174Y-125555574D01*
X146614681Y-125505067D01*
X146665189Y-125488231D01*
X146698861Y-125488231D01*
X146749368Y-125505067D01*
X146833548Y-125589246D01*
X146850383Y-125639754D01*
X146850383Y-125673425D01*
X146833548Y-125723933D01*
X146732532Y-125824948D01*
X146682025Y-125841784D01*
X146648353Y-125841784D01*
%TO.C,C20*%
X159826595Y-129045942D02*
X159826595Y-129079614D01*
X159792923Y-129146957D01*
X159759252Y-129180629D01*
X159691908Y-129214301D01*
X159624565Y-129214301D01*
X159574057Y-129197465D01*
X159489878Y-129146957D01*
X159439370Y-129096450D01*
X159388862Y-129012270D01*
X159372027Y-128961763D01*
X159372027Y-128894419D01*
X159405698Y-128827076D01*
X159439370Y-128793404D01*
X159506714Y-128759732D01*
X159540385Y-128759732D01*
X159675072Y-128625045D02*
X159675072Y-128591373D01*
X159691908Y-128540866D01*
X159776088Y-128456686D01*
X159826595Y-128439850D01*
X159860267Y-128439850D01*
X159910775Y-128456686D01*
X159944446Y-128490358D01*
X159978118Y-128557701D01*
X159978118Y-128961763D01*
X160196985Y-128742896D01*
X160062298Y-128170476D02*
X160095969Y-128136805D01*
X160146477Y-128119969D01*
X160180149Y-128119969D01*
X160230656Y-128136805D01*
X160314836Y-128187312D01*
X160399015Y-128271492D01*
X160449523Y-128355671D01*
X160466359Y-128406179D01*
X160466359Y-128439850D01*
X160449523Y-128490358D01*
X160415851Y-128524030D01*
X160365343Y-128540866D01*
X160331672Y-128540866D01*
X160281164Y-128524030D01*
X160196985Y-128473522D01*
X160112805Y-128389343D01*
X160062298Y-128305163D01*
X160045462Y-128254656D01*
X160045462Y-128220984D01*
X160062298Y-128170476D01*
%TO.C,C30*%
X167572571Y-115101871D02*
X167548761Y-115125680D01*
X167477333Y-115149490D01*
X167429714Y-115149490D01*
X167358285Y-115125680D01*
X167310666Y-115078061D01*
X167286857Y-115030442D01*
X167263047Y-114935204D01*
X167263047Y-114863776D01*
X167286857Y-114768538D01*
X167310666Y-114720919D01*
X167358285Y-114673300D01*
X167429714Y-114649490D01*
X167477333Y-114649490D01*
X167548761Y-114673300D01*
X167572571Y-114697109D01*
X167739238Y-114649490D02*
X168048761Y-114649490D01*
X167882095Y-114839966D01*
X167953523Y-114839966D01*
X168001142Y-114863776D01*
X168024952Y-114887585D01*
X168048761Y-114935204D01*
X168048761Y-115054252D01*
X168024952Y-115101871D01*
X168001142Y-115125680D01*
X167953523Y-115149490D01*
X167810666Y-115149490D01*
X167763047Y-115125680D01*
X167739238Y-115101871D01*
X168358285Y-114649490D02*
X168405904Y-114649490D01*
X168453523Y-114673300D01*
X168477333Y-114697109D01*
X168501142Y-114744728D01*
X168524952Y-114839966D01*
X168524952Y-114959014D01*
X168501142Y-115054252D01*
X168477333Y-115101871D01*
X168453523Y-115125680D01*
X168405904Y-115149490D01*
X168358285Y-115149490D01*
X168310666Y-115125680D01*
X168286857Y-115101871D01*
X168263047Y-115054252D01*
X168239238Y-114959014D01*
X168239238Y-114839966D01*
X168263047Y-114744728D01*
X168286857Y-114697109D01*
X168310666Y-114673300D01*
X168358285Y-114649490D01*
%TO.C,R21*%
X147507456Y-133490025D02*
X147221246Y-133439517D01*
X147305425Y-133692055D02*
X146951872Y-133338502D01*
X147086559Y-133203815D01*
X147137067Y-133186979D01*
X147170738Y-133186979D01*
X147221246Y-133203815D01*
X147271754Y-133254322D01*
X147288590Y-133304830D01*
X147288590Y-133338502D01*
X147271754Y-133389009D01*
X147137067Y-133523696D01*
X147322261Y-133035456D02*
X147322261Y-133001784D01*
X147339097Y-132951277D01*
X147423277Y-132867097D01*
X147473784Y-132850261D01*
X147507456Y-132850261D01*
X147557964Y-132867097D01*
X147591635Y-132900769D01*
X147625307Y-132968112D01*
X147625307Y-133372174D01*
X147844174Y-133153307D01*
X148180891Y-132816590D02*
X147978861Y-133018620D01*
X148079876Y-132917605D02*
X147726322Y-132564051D01*
X147743158Y-132648231D01*
X147743158Y-132715574D01*
X147726322Y-132766082D01*
D14*
%TO.C,R14*%
X179545542Y-96180380D02*
X179212209Y-95704190D01*
X178974114Y-96180380D02*
X178974114Y-95180380D01*
X179355066Y-95180380D01*
X179450304Y-95228000D01*
X179497923Y-95275619D01*
X179545542Y-95370857D01*
X179545542Y-95513714D01*
X179497923Y-95608952D01*
X179450304Y-95656571D01*
X179355066Y-95704190D01*
X178974114Y-95704190D01*
X180497923Y-96180380D02*
X179926495Y-96180380D01*
X180212209Y-96180380D02*
X180212209Y-95180380D01*
X180116971Y-95323238D01*
X180021733Y-95418476D01*
X179926495Y-95466095D01*
X181355066Y-95513714D02*
X181355066Y-96180380D01*
X181116971Y-95132761D02*
X180878876Y-95847047D01*
X181497923Y-95847047D01*
D13*
%TO.C,C24*%
X147423784Y-129756353D02*
X147423784Y-129790025D01*
X147390112Y-129857368D01*
X147356441Y-129891040D01*
X147289097Y-129924712D01*
X147221754Y-129924712D01*
X147171246Y-129907876D01*
X147087067Y-129857368D01*
X147036559Y-129806861D01*
X146986051Y-129722681D01*
X146969216Y-129672174D01*
X146969216Y-129604830D01*
X147002887Y-129537487D01*
X147036559Y-129503815D01*
X147103903Y-129470143D01*
X147137574Y-129470143D01*
X147272261Y-129335456D02*
X147272261Y-129301784D01*
X147289097Y-129251277D01*
X147373277Y-129167097D01*
X147423784Y-129150261D01*
X147457456Y-129150261D01*
X147507964Y-129167097D01*
X147541635Y-129200769D01*
X147575307Y-129268112D01*
X147575307Y-129672174D01*
X147794174Y-129453307D01*
X147861517Y-128914559D02*
X148097219Y-129150261D01*
X147642651Y-128864051D02*
X147811009Y-129200769D01*
X148029876Y-128981903D01*
%TO.C,C37*%
X144480131Y-130003393D02*
X144513803Y-130003393D01*
X144581146Y-130037065D01*
X144614818Y-130070736D01*
X144648490Y-130138080D01*
X144648490Y-130205423D01*
X144631654Y-130255931D01*
X144581146Y-130340110D01*
X144530639Y-130390618D01*
X144446459Y-130441126D01*
X144395952Y-130457961D01*
X144328608Y-130457961D01*
X144261265Y-130424290D01*
X144227593Y-130390618D01*
X144193921Y-130323274D01*
X144193921Y-130289603D01*
X144042398Y-130205423D02*
X143823532Y-129986557D01*
X144076070Y-129969721D01*
X144025562Y-129919213D01*
X144008726Y-129868706D01*
X144008726Y-129835034D01*
X144025562Y-129784526D01*
X144109742Y-129700347D01*
X144160249Y-129683511D01*
X144193921Y-129683511D01*
X144244429Y-129700347D01*
X144345444Y-129801362D01*
X144362280Y-129851870D01*
X144362280Y-129885542D01*
X143705681Y-129868706D02*
X143469978Y-129633003D01*
X143975055Y-129430973D01*
%TO.C,C34*%
X158757562Y-125314375D02*
X158757562Y-125348047D01*
X158723890Y-125415390D01*
X158690219Y-125449062D01*
X158622875Y-125482734D01*
X158555532Y-125482734D01*
X158505024Y-125465898D01*
X158420845Y-125415390D01*
X158370337Y-125364883D01*
X158319829Y-125280703D01*
X158302994Y-125230196D01*
X158302994Y-125162852D01*
X158336665Y-125095509D01*
X158370337Y-125061837D01*
X158437681Y-125028165D01*
X158471352Y-125028165D01*
X158555532Y-124876642D02*
X158774398Y-124657776D01*
X158791234Y-124910314D01*
X158841742Y-124859806D01*
X158892249Y-124842970D01*
X158925921Y-124842970D01*
X158976429Y-124859806D01*
X159060608Y-124943986D01*
X159077444Y-124994493D01*
X159077444Y-125028165D01*
X159060608Y-125078673D01*
X158959593Y-125179688D01*
X158909085Y-125196524D01*
X158875413Y-125196524D01*
X159195295Y-124472581D02*
X159430997Y-124708283D01*
X158976429Y-124422073D02*
X159144787Y-124758791D01*
X159363654Y-124539925D01*
%TO.C,C22*%
X160493973Y-126785341D02*
X160493973Y-126819013D01*
X160460301Y-126886356D01*
X160426630Y-126920028D01*
X160359286Y-126953700D01*
X160291943Y-126953700D01*
X160241435Y-126936864D01*
X160157256Y-126886356D01*
X160106748Y-126835849D01*
X160056240Y-126751669D01*
X160039405Y-126701162D01*
X160039405Y-126633818D01*
X160073076Y-126566475D01*
X160106748Y-126532803D01*
X160174092Y-126499131D01*
X160207763Y-126499131D01*
X160342450Y-126364444D02*
X160342450Y-126330772D01*
X160359286Y-126280265D01*
X160443466Y-126196085D01*
X160493973Y-126179249D01*
X160527645Y-126179249D01*
X160578153Y-126196085D01*
X160611824Y-126229757D01*
X160645496Y-126297100D01*
X160645496Y-126701162D01*
X160864363Y-126482295D01*
X160679168Y-126027726D02*
X160679168Y-125994055D01*
X160696004Y-125943547D01*
X160780183Y-125859368D01*
X160830691Y-125842532D01*
X160864363Y-125842532D01*
X160914870Y-125859368D01*
X160948542Y-125893039D01*
X160982214Y-125960383D01*
X160982214Y-126364444D01*
X161201080Y-126145578D01*
D14*
%TO.C,U5*%
X164426495Y-101380380D02*
X164426495Y-102189904D01*
X164474114Y-102285142D01*
X164521733Y-102332761D01*
X164616971Y-102380380D01*
X164807447Y-102380380D01*
X164902685Y-102332761D01*
X164950304Y-102285142D01*
X164997923Y-102189904D01*
X164997923Y-101380380D01*
X165950304Y-101380380D02*
X165474114Y-101380380D01*
X165426495Y-101856571D01*
X165474114Y-101808952D01*
X165569352Y-101761333D01*
X165807447Y-101761333D01*
X165902685Y-101808952D01*
X165950304Y-101856571D01*
X165997923Y-101951809D01*
X165997923Y-102189904D01*
X165950304Y-102285142D01*
X165902685Y-102332761D01*
X165807447Y-102380380D01*
X165569352Y-102380380D01*
X165474114Y-102332761D01*
X165426495Y-102285142D01*
X160376495Y-109294666D02*
X160852685Y-109294666D01*
X160281257Y-109580380D02*
X160614590Y-108580380D01*
X160947923Y-109580380D01*
X161281257Y-108913714D02*
X161281257Y-109580380D01*
X161281257Y-109008952D02*
X161328876Y-108961333D01*
X161424114Y-108913714D01*
X161566971Y-108913714D01*
X161662209Y-108961333D01*
X161709828Y-109056571D01*
X161709828Y-109580380D01*
X162043161Y-108913714D02*
X162424114Y-108913714D01*
X162186019Y-108580380D02*
X162186019Y-109437523D01*
X162233638Y-109532761D01*
X162328876Y-109580380D01*
X162424114Y-109580380D01*
X163138400Y-109532761D02*
X163043161Y-109580380D01*
X162852685Y-109580380D01*
X162757447Y-109532761D01*
X162709828Y-109437523D01*
X162709828Y-109056571D01*
X162757447Y-108961333D01*
X162852685Y-108913714D01*
X163043161Y-108913714D01*
X163138400Y-108961333D01*
X163186019Y-109056571D01*
X163186019Y-109151809D01*
X162709828Y-109247047D01*
X163614590Y-108913714D02*
X163614590Y-109580380D01*
X163614590Y-109008952D02*
X163662209Y-108961333D01*
X163757447Y-108913714D01*
X163900304Y-108913714D01*
X163995542Y-108961333D01*
X164043161Y-109056571D01*
X164043161Y-109580380D01*
X164519352Y-108913714D02*
X164519352Y-109580380D01*
X164519352Y-109008952D02*
X164566971Y-108961333D01*
X164662209Y-108913714D01*
X164805066Y-108913714D01*
X164900304Y-108961333D01*
X164947923Y-109056571D01*
X164947923Y-109580380D01*
X165852685Y-109580380D02*
X165852685Y-109056571D01*
X165805066Y-108961333D01*
X165709828Y-108913714D01*
X165519352Y-108913714D01*
X165424114Y-108961333D01*
X165852685Y-109532761D02*
X165757447Y-109580380D01*
X165519352Y-109580380D01*
X165424114Y-109532761D01*
X165376495Y-109437523D01*
X165376495Y-109342285D01*
X165424114Y-109247047D01*
X165519352Y-109199428D01*
X165757447Y-109199428D01*
X165852685Y-109151809D01*
X167043161Y-109294666D02*
X167519352Y-109294666D01*
X166947923Y-109580380D02*
X167281257Y-108580380D01*
X167614590Y-109580380D01*
X167947923Y-109580380D02*
X167947923Y-108913714D01*
X167947923Y-109104190D02*
X167995542Y-109008952D01*
X168043161Y-108961333D01*
X168138400Y-108913714D01*
X168233638Y-108913714D01*
X168947923Y-109532761D02*
X168852685Y-109580380D01*
X168662209Y-109580380D01*
X168566971Y-109532761D01*
X168519352Y-109437523D01*
X168519352Y-109056571D01*
X168566971Y-108961333D01*
X168662209Y-108913714D01*
X168852685Y-108913714D01*
X168947923Y-108961333D01*
X168995542Y-109056571D01*
X168995542Y-109151809D01*
X168519352Y-109247047D01*
X169852685Y-109580380D02*
X169852685Y-109056571D01*
X169805066Y-108961333D01*
X169709828Y-108913714D01*
X169519352Y-108913714D01*
X169424114Y-108961333D01*
X169852685Y-109532761D02*
X169757447Y-109580380D01*
X169519352Y-109580380D01*
X169424114Y-109532761D01*
X169376495Y-109437523D01*
X169376495Y-109342285D01*
X169424114Y-109247047D01*
X169519352Y-109199428D01*
X169757447Y-109199428D01*
X169852685Y-109151809D01*
D13*
%TO.C,R19*%
X148520025Y-125416143D02*
X148469517Y-125702353D01*
X148722055Y-125618174D02*
X148368502Y-125971727D01*
X148233815Y-125837040D01*
X148216979Y-125786532D01*
X148216979Y-125752861D01*
X148233815Y-125702353D01*
X148284322Y-125651845D01*
X148334830Y-125635009D01*
X148368502Y-125635009D01*
X148419009Y-125651845D01*
X148553696Y-125786532D01*
X148183307Y-125079425D02*
X148385338Y-125281456D01*
X148284322Y-125180441D02*
X147930769Y-125533994D01*
X148014948Y-125517158D01*
X148082292Y-125517158D01*
X148132800Y-125533994D01*
X148014948Y-124911067D02*
X147947605Y-124843723D01*
X147897097Y-124826887D01*
X147863425Y-124826887D01*
X147779246Y-124843723D01*
X147695067Y-124894231D01*
X147560380Y-125028918D01*
X147543544Y-125079425D01*
X147543544Y-125113097D01*
X147560380Y-125163605D01*
X147627723Y-125230948D01*
X147678231Y-125247784D01*
X147711903Y-125247784D01*
X147762410Y-125230948D01*
X147846590Y-125146769D01*
X147863425Y-125096261D01*
X147863425Y-125062590D01*
X147846590Y-125012082D01*
X147779246Y-124944738D01*
X147728738Y-124927903D01*
X147695067Y-124927903D01*
X147644559Y-124944738D01*
D14*
%TO.C,U8*%
X145143495Y-89630179D02*
X145143495Y-90439703D01*
X145191114Y-90534941D01*
X145238733Y-90582560D01*
X145333971Y-90630179D01*
X145524447Y-90630179D01*
X145619685Y-90582560D01*
X145667304Y-90534941D01*
X145714923Y-90439703D01*
X145714923Y-89630179D01*
X146333971Y-90058751D02*
X146238733Y-90011132D01*
X146191114Y-89963513D01*
X146143495Y-89868275D01*
X146143495Y-89820656D01*
X146191114Y-89725418D01*
X146238733Y-89677799D01*
X146333971Y-89630179D01*
X146524447Y-89630179D01*
X146619685Y-89677799D01*
X146667304Y-89725418D01*
X146714923Y-89820656D01*
X146714923Y-89868275D01*
X146667304Y-89963513D01*
X146619685Y-90011132D01*
X146524447Y-90058751D01*
X146333971Y-90058751D01*
X146238733Y-90106370D01*
X146191114Y-90153989D01*
X146143495Y-90249227D01*
X146143495Y-90439703D01*
X146191114Y-90534941D01*
X146238733Y-90582560D01*
X146333971Y-90630179D01*
X146524447Y-90630179D01*
X146619685Y-90582560D01*
X146667304Y-90534941D01*
X146714923Y-90439703D01*
X146714923Y-90249227D01*
X146667304Y-90153989D01*
X146619685Y-90106370D01*
X146524447Y-90058751D01*
X138976828Y-90582560D02*
X139119685Y-90630179D01*
X139357780Y-90630179D01*
X139453019Y-90582560D01*
X139500638Y-90534941D01*
X139548257Y-90439703D01*
X139548257Y-90344465D01*
X139500638Y-90249227D01*
X139453019Y-90201608D01*
X139357780Y-90153989D01*
X139167304Y-90106370D01*
X139072066Y-90058751D01*
X139024447Y-90011132D01*
X138976828Y-89915894D01*
X138976828Y-89820656D01*
X139024447Y-89725418D01*
X139072066Y-89677799D01*
X139167304Y-89630179D01*
X139405400Y-89630179D01*
X139548257Y-89677799D01*
X139976828Y-90630179D02*
X139976828Y-89630179D01*
X140548257Y-90630179D01*
X140548257Y-89630179D01*
X140929209Y-89630179D02*
X141595876Y-89630179D01*
X141167304Y-90630179D01*
X142405400Y-89963513D02*
X142405400Y-90630179D01*
X142167304Y-89582560D02*
X141929209Y-90296846D01*
X142548257Y-90296846D01*
X143405400Y-90630179D02*
X142929209Y-90630179D01*
X142929209Y-89630179D01*
X143595876Y-89630179D02*
X143929209Y-90630179D01*
X144262542Y-89630179D01*
X145024447Y-89963513D02*
X145024447Y-90630179D01*
X144786352Y-89582560D02*
X144548257Y-90296846D01*
X145167304Y-90296846D01*
X145738733Y-89630179D02*
X145833971Y-89630179D01*
X145929209Y-89677799D01*
X145976828Y-89725418D01*
X146024447Y-89820656D01*
X146072066Y-90011132D01*
X146072066Y-90249227D01*
X146024447Y-90439703D01*
X145976828Y-90534941D01*
X145929209Y-90582560D01*
X145833971Y-90630179D01*
X145738733Y-90630179D01*
X145643495Y-90582560D01*
X145595876Y-90534941D01*
X145548257Y-90439703D01*
X145500638Y-90249227D01*
X145500638Y-90011132D01*
X145548257Y-89820656D01*
X145595876Y-89725418D01*
X145643495Y-89677799D01*
X145738733Y-89630179D01*
X146976828Y-89630179D02*
X146500638Y-89630179D01*
X146453019Y-90106370D01*
X146500638Y-90058751D01*
X146595876Y-90011132D01*
X146833971Y-90011132D01*
X146929209Y-90058751D01*
X146976828Y-90106370D01*
X147024447Y-90201608D01*
X147024447Y-90439703D01*
X146976828Y-90534941D01*
X146929209Y-90582560D01*
X146833971Y-90630179D01*
X146595876Y-90630179D01*
X146500638Y-90582560D01*
X146453019Y-90534941D01*
X147405400Y-89725418D02*
X147453019Y-89677799D01*
X147548257Y-89630179D01*
X147786352Y-89630179D01*
X147881590Y-89677799D01*
X147929209Y-89725418D01*
X147976828Y-89820656D01*
X147976828Y-89915894D01*
X147929209Y-90058751D01*
X147357780Y-90630179D01*
X147976828Y-90630179D01*
X148357780Y-90344465D02*
X148833971Y-90344465D01*
X148262542Y-90630179D02*
X148595876Y-89630179D01*
X148929209Y-90630179D01*
X149262542Y-90630179D02*
X149262542Y-89630179D01*
X149643495Y-89630179D01*
X149738733Y-89677799D01*
X149786352Y-89725418D01*
X149833971Y-89820656D01*
X149833971Y-89963513D01*
X149786352Y-90058751D01*
X149738733Y-90106370D01*
X149643495Y-90153989D01*
X149262542Y-90153989D01*
X150167304Y-89630179D02*
X150405400Y-90630179D01*
X150595876Y-89915894D01*
X150786352Y-90630179D01*
X151024447Y-89630179D01*
X151405400Y-90106370D02*
X151738733Y-90106370D01*
X151881590Y-90630179D02*
X151405400Y-90630179D01*
X151405400Y-89630179D01*
X151881590Y-89630179D01*
X152738733Y-89963513D02*
X152738733Y-90630179D01*
X152500638Y-89582560D02*
X152262542Y-90296846D01*
X152881590Y-90296846D01*
X142832000Y-85856578D02*
X142832000Y-86094674D01*
X142593904Y-85999436D02*
X142832000Y-86094674D01*
X143070095Y-85999436D01*
X142689142Y-86285150D02*
X142832000Y-86094674D01*
X142974857Y-86285150D01*
X142832000Y-85856578D02*
X142832000Y-86094674D01*
X142593904Y-85999436D02*
X142832000Y-86094674D01*
X143070095Y-85999436D01*
X142689142Y-86285150D02*
X142832000Y-86094674D01*
X142974857Y-86285150D01*
D13*
%TO.C,C9*%
X147895342Y-134271594D02*
X147895342Y-134305266D01*
X147861670Y-134372609D01*
X147827999Y-134406281D01*
X147760655Y-134439953D01*
X147693311Y-134439953D01*
X147642804Y-134423117D01*
X147558624Y-134372609D01*
X147508117Y-134322102D01*
X147457609Y-134237922D01*
X147440773Y-134187415D01*
X147440773Y-134120071D01*
X147474445Y-134052728D01*
X147508117Y-134019056D01*
X147575460Y-133985384D01*
X147609132Y-133985384D01*
X148097373Y-134136907D02*
X148164716Y-134069564D01*
X148181552Y-134019056D01*
X148181552Y-133985384D01*
X148164716Y-133901205D01*
X148114208Y-133817025D01*
X147979521Y-133682338D01*
X147929014Y-133665503D01*
X147895342Y-133665503D01*
X147844834Y-133682338D01*
X147777491Y-133749682D01*
X147760655Y-133800190D01*
X147760655Y-133833861D01*
X147777491Y-133884369D01*
X147861670Y-133968548D01*
X147912178Y-133985384D01*
X147945850Y-133985384D01*
X147996357Y-133968548D01*
X148063701Y-133901205D01*
X148080537Y-133850697D01*
X148080537Y-133817025D01*
X148063701Y-133766518D01*
D14*
%TO.C,J31*%
X183592876Y-83402380D02*
X183592876Y-84116666D01*
X183545257Y-84259523D01*
X183450019Y-84354761D01*
X183307161Y-84402380D01*
X183211923Y-84402380D01*
X183973828Y-83402380D02*
X184592876Y-83402380D01*
X184259542Y-83783333D01*
X184402400Y-83783333D01*
X184497638Y-83830952D01*
X184545257Y-83878571D01*
X184592876Y-83973809D01*
X184592876Y-84211904D01*
X184545257Y-84307142D01*
X184497638Y-84354761D01*
X184402400Y-84402380D01*
X184116685Y-84402380D01*
X184021447Y-84354761D01*
X183973828Y-84307142D01*
X185545257Y-84402380D02*
X184973828Y-84402380D01*
X185259542Y-84402380D02*
X185259542Y-83402380D01*
X185164304Y-83545238D01*
X185069066Y-83640476D01*
X184973828Y-83688095D01*
%TO.C,R10*%
X186362240Y-82722857D02*
X185886050Y-83056190D01*
X186362240Y-83294285D02*
X185362240Y-83294285D01*
X185362240Y-82913333D01*
X185409860Y-82818095D01*
X185457479Y-82770476D01*
X185552717Y-82722857D01*
X185695574Y-82722857D01*
X185790812Y-82770476D01*
X185838431Y-82818095D01*
X185886050Y-82913333D01*
X185886050Y-83294285D01*
X186362240Y-81770476D02*
X186362240Y-82341904D01*
X186362240Y-82056190D02*
X185362240Y-82056190D01*
X185505098Y-82151428D01*
X185600336Y-82246666D01*
X185647955Y-82341904D01*
X185362240Y-81151428D02*
X185362240Y-81056190D01*
X185409860Y-80960952D01*
X185457479Y-80913333D01*
X185552717Y-80865714D01*
X185743193Y-80818095D01*
X185981288Y-80818095D01*
X186171764Y-80865714D01*
X186267002Y-80913333D01*
X186314621Y-80960952D01*
X186362240Y-81056190D01*
X186362240Y-81151428D01*
X186314621Y-81246666D01*
X186267002Y-81294285D01*
X186171764Y-81341904D01*
X185981288Y-81389523D01*
X185743193Y-81389523D01*
X185552717Y-81341904D01*
X185457479Y-81294285D01*
X185409860Y-81246666D01*
X185362240Y-81151428D01*
%TO.C,U6*%
X170256980Y-119740804D02*
X171066504Y-119740804D01*
X171161742Y-119693185D01*
X171209361Y-119645566D01*
X171256980Y-119550328D01*
X171256980Y-119359852D01*
X171209361Y-119264614D01*
X171161742Y-119216995D01*
X171066504Y-119169376D01*
X170256980Y-119169376D01*
X170256980Y-118264614D02*
X170256980Y-118455090D01*
X170304600Y-118550328D01*
X170352219Y-118597947D01*
X170495076Y-118693185D01*
X170685552Y-118740804D01*
X171066504Y-118740804D01*
X171161742Y-118693185D01*
X171209361Y-118645566D01*
X171256980Y-118550328D01*
X171256980Y-118359852D01*
X171209361Y-118264614D01*
X171161742Y-118216995D01*
X171066504Y-118169376D01*
X170828409Y-118169376D01*
X170733171Y-118216995D01*
X170685552Y-118264614D01*
X170637933Y-118359852D01*
X170637933Y-118550328D01*
X170685552Y-118645566D01*
X170733171Y-118693185D01*
X170828409Y-118740804D01*
%TO.C,JP1*%
X170515066Y-90206380D02*
X170515066Y-90920666D01*
X170467447Y-91063523D01*
X170372209Y-91158761D01*
X170229352Y-91206380D01*
X170134114Y-91206380D01*
X170991257Y-91206380D02*
X170991257Y-90206380D01*
X171372209Y-90206380D01*
X171467447Y-90254000D01*
X171515066Y-90301619D01*
X171562685Y-90396857D01*
X171562685Y-90539714D01*
X171515066Y-90634952D01*
X171467447Y-90682571D01*
X171372209Y-90730190D01*
X170991257Y-90730190D01*
X172515066Y-91206380D02*
X171943638Y-91206380D01*
X172229352Y-91206380D02*
X172229352Y-90206380D01*
X172134114Y-90349238D01*
X172038876Y-90444476D01*
X171943638Y-90492095D01*
D15*
%TO.C,J84*%
X116306420Y-133000621D02*
X116591263Y-133000621D01*
X116648231Y-133019611D01*
X116686210Y-133057590D01*
X116705200Y-133114559D01*
X116705200Y-133152538D01*
X116477326Y-132753758D02*
X116458336Y-132791737D01*
X116439347Y-132810726D01*
X116401368Y-132829716D01*
X116382378Y-132829716D01*
X116344399Y-132810726D01*
X116325410Y-132791737D01*
X116306420Y-132753758D01*
X116306420Y-132677800D01*
X116325410Y-132639820D01*
X116344399Y-132620831D01*
X116382378Y-132601841D01*
X116401368Y-132601841D01*
X116439347Y-132620831D01*
X116458336Y-132639820D01*
X116477326Y-132677800D01*
X116477326Y-132753758D01*
X116496315Y-132791737D01*
X116515305Y-132810726D01*
X116553284Y-132829716D01*
X116629242Y-132829716D01*
X116667221Y-132810726D01*
X116686210Y-132791737D01*
X116705200Y-132753758D01*
X116705200Y-132677800D01*
X116686210Y-132639820D01*
X116667221Y-132620831D01*
X116629242Y-132601841D01*
X116553284Y-132601841D01*
X116515305Y-132620831D01*
X116496315Y-132639820D01*
X116477326Y-132677800D01*
X116439347Y-132260030D02*
X116705200Y-132260030D01*
X116287430Y-132354978D02*
X116572273Y-132449925D01*
X116572273Y-132203061D01*
D14*
%TO.C,J32*%
X114392876Y-83402380D02*
X114392876Y-84116666D01*
X114345257Y-84259523D01*
X114250019Y-84354761D01*
X114107161Y-84402380D01*
X114011923Y-84402380D01*
X114773828Y-83402380D02*
X115392876Y-83402380D01*
X115059542Y-83783333D01*
X115202400Y-83783333D01*
X115297638Y-83830952D01*
X115345257Y-83878571D01*
X115392876Y-83973809D01*
X115392876Y-84211904D01*
X115345257Y-84307142D01*
X115297638Y-84354761D01*
X115202400Y-84402380D01*
X114916685Y-84402380D01*
X114821447Y-84354761D01*
X114773828Y-84307142D01*
X115773828Y-83497619D02*
X115821447Y-83450000D01*
X115916685Y-83402380D01*
X116154780Y-83402380D01*
X116250019Y-83450000D01*
X116297638Y-83497619D01*
X116345257Y-83592857D01*
X116345257Y-83688095D01*
X116297638Y-83830952D01*
X115726209Y-84402380D01*
X116345257Y-84402380D01*
D13*
%TO.C,C38*%
X154418705Y-124825263D02*
X154452377Y-124825263D01*
X154519720Y-124858935D01*
X154553392Y-124892606D01*
X154587064Y-124959950D01*
X154587064Y-125027293D01*
X154570228Y-125077801D01*
X154519720Y-125161980D01*
X154469213Y-125212488D01*
X154385033Y-125262996D01*
X154334526Y-125279831D01*
X154267182Y-125279831D01*
X154199839Y-125246160D01*
X154166167Y-125212488D01*
X154132495Y-125145144D01*
X154132495Y-125111473D01*
X153980972Y-125027293D02*
X153762106Y-124808427D01*
X154014644Y-124791591D01*
X153964136Y-124741083D01*
X153947300Y-124690576D01*
X153947300Y-124656904D01*
X153964136Y-124606396D01*
X154048316Y-124522217D01*
X154098823Y-124505381D01*
X154132495Y-124505381D01*
X154183003Y-124522217D01*
X154284018Y-124623232D01*
X154300854Y-124673740D01*
X154300854Y-124707412D01*
X153711598Y-124454873D02*
X153728434Y-124505381D01*
X153728434Y-124539053D01*
X153711598Y-124589560D01*
X153694762Y-124606396D01*
X153644255Y-124623232D01*
X153610583Y-124623232D01*
X153560075Y-124606396D01*
X153492732Y-124539053D01*
X153475896Y-124488545D01*
X153475896Y-124454873D01*
X153492732Y-124404366D01*
X153509568Y-124387530D01*
X153560075Y-124370694D01*
X153593747Y-124370694D01*
X153644255Y-124387530D01*
X153711598Y-124454873D01*
X153762106Y-124471709D01*
X153795777Y-124471709D01*
X153846285Y-124454873D01*
X153913629Y-124387530D01*
X153930464Y-124337022D01*
X153930464Y-124303351D01*
X153913629Y-124252843D01*
X153846285Y-124185499D01*
X153795777Y-124168664D01*
X153762106Y-124168664D01*
X153711598Y-124185499D01*
X153644255Y-124252843D01*
X153627419Y-124303351D01*
X153627419Y-124337022D01*
X153644255Y-124387530D01*
D14*
%TO.C,JP2*%
X180341466Y-99655180D02*
X180341466Y-100369466D01*
X180293847Y-100512323D01*
X180198609Y-100607561D01*
X180055752Y-100655180D01*
X179960514Y-100655180D01*
X180817657Y-100655180D02*
X180817657Y-99655180D01*
X181198609Y-99655180D01*
X181293847Y-99702800D01*
X181341466Y-99750419D01*
X181389085Y-99845657D01*
X181389085Y-99988514D01*
X181341466Y-100083752D01*
X181293847Y-100131371D01*
X181198609Y-100178990D01*
X180817657Y-100178990D01*
X181770038Y-99750419D02*
X181817657Y-99702800D01*
X181912895Y-99655180D01*
X182150990Y-99655180D01*
X182246228Y-99702800D01*
X182293847Y-99750419D01*
X182341466Y-99845657D01*
X182341466Y-99940895D01*
X182293847Y-100083752D01*
X181722419Y-100655180D01*
X182341466Y-100655180D01*
D13*
%TO.C,R15*%
X151979449Y-121788967D02*
X151928941Y-122075177D01*
X152181479Y-121990998D02*
X151827926Y-122344551D01*
X151693239Y-122209864D01*
X151676403Y-122159356D01*
X151676403Y-122125685D01*
X151693239Y-122075177D01*
X151743746Y-122024669D01*
X151794254Y-122007833D01*
X151827926Y-122007833D01*
X151878433Y-122024669D01*
X152013120Y-122159356D01*
X151642731Y-121452249D02*
X151844762Y-121654280D01*
X151743746Y-121553265D02*
X151390193Y-121906818D01*
X151474372Y-121889982D01*
X151541716Y-121889982D01*
X151592224Y-121906818D01*
X150969296Y-121485921D02*
X151137655Y-121654280D01*
X151322849Y-121502757D01*
X151289178Y-121502757D01*
X151238670Y-121485921D01*
X151154491Y-121401742D01*
X151137655Y-121351234D01*
X151137655Y-121317562D01*
X151154491Y-121267055D01*
X151238670Y-121182875D01*
X151289178Y-121166040D01*
X151322849Y-121166040D01*
X151373357Y-121182875D01*
X151457536Y-121267055D01*
X151474372Y-121317562D01*
X151474372Y-121351234D01*
%TO.C,C32*%
X155293553Y-124002015D02*
X155327225Y-124002015D01*
X155394568Y-124035687D01*
X155428240Y-124069358D01*
X155461912Y-124136702D01*
X155461912Y-124204045D01*
X155445076Y-124254553D01*
X155394568Y-124338732D01*
X155344061Y-124389240D01*
X155259881Y-124439748D01*
X155209374Y-124456583D01*
X155142030Y-124456583D01*
X155074687Y-124422912D01*
X155041015Y-124389240D01*
X155007343Y-124321896D01*
X155007343Y-124288225D01*
X154855820Y-124204045D02*
X154636954Y-123985179D01*
X154889492Y-123968343D01*
X154838984Y-123917835D01*
X154822148Y-123867328D01*
X154822148Y-123833656D01*
X154838984Y-123783148D01*
X154923164Y-123698969D01*
X154973671Y-123682133D01*
X155007343Y-123682133D01*
X155057851Y-123698969D01*
X155158866Y-123799984D01*
X155175702Y-123850492D01*
X155175702Y-123884164D01*
X154535938Y-123816820D02*
X154502267Y-123816820D01*
X154451759Y-123799984D01*
X154367580Y-123715805D01*
X154350744Y-123665297D01*
X154350744Y-123631625D01*
X154367580Y-123581118D01*
X154401251Y-123547446D01*
X154468595Y-123513774D01*
X154872656Y-123513774D01*
X154653790Y-123294908D01*
D14*
%TO.C,U3*%
X152132895Y-76250180D02*
X152132895Y-77059704D01*
X152180514Y-77154942D01*
X152228133Y-77202561D01*
X152323371Y-77250180D01*
X152513847Y-77250180D01*
X152609085Y-77202561D01*
X152656704Y-77154942D01*
X152704323Y-77059704D01*
X152704323Y-76250180D01*
X153085276Y-76250180D02*
X153704323Y-76250180D01*
X153370990Y-76631133D01*
X153513847Y-76631133D01*
X153609085Y-76678752D01*
X153656704Y-76726371D01*
X153704323Y-76821609D01*
X153704323Y-77059704D01*
X153656704Y-77154942D01*
X153609085Y-77202561D01*
X153513847Y-77250180D01*
X153228133Y-77250180D01*
X153132895Y-77202561D01*
X153085276Y-77154942D01*
%TO.C,U1*%
X131441315Y-91953700D02*
X131441315Y-92763224D01*
X131488934Y-92858462D01*
X131536553Y-92906081D01*
X131631791Y-92953700D01*
X131822267Y-92953700D01*
X131917505Y-92906081D01*
X131965124Y-92858462D01*
X132012743Y-92763224D01*
X132012743Y-91953700D01*
X133012743Y-92953700D02*
X132441315Y-92953700D01*
X132727029Y-92953700D02*
X132727029Y-91953700D01*
X132631791Y-92096558D01*
X132536553Y-92191796D01*
X132441315Y-92239415D01*
X129381352Y-120947040D02*
X129381352Y-119947040D01*
X129714685Y-120661326D01*
X130048019Y-119947040D01*
X130048019Y-120947040D01*
X130524209Y-120947040D02*
X130524209Y-120280374D01*
X130524209Y-119947040D02*
X130476590Y-119994660D01*
X130524209Y-120042279D01*
X130571828Y-119994660D01*
X130524209Y-119947040D01*
X130524209Y-120042279D01*
X131428971Y-120899421D02*
X131333733Y-120947040D01*
X131143257Y-120947040D01*
X131048019Y-120899421D01*
X131000400Y-120851802D01*
X130952780Y-120756564D01*
X130952780Y-120470850D01*
X131000400Y-120375612D01*
X131048019Y-120327993D01*
X131143257Y-120280374D01*
X131333733Y-120280374D01*
X131428971Y-120327993D01*
X131857542Y-120947040D02*
X131857542Y-120280374D01*
X131857542Y-120470850D02*
X131905161Y-120375612D01*
X131952780Y-120327993D01*
X132048019Y-120280374D01*
X132143257Y-120280374D01*
X132619447Y-120947040D02*
X132524209Y-120899421D01*
X132476590Y-120851802D01*
X132428971Y-120756564D01*
X132428971Y-120470850D01*
X132476590Y-120375612D01*
X132524209Y-120327993D01*
X132619447Y-120280374D01*
X132762304Y-120280374D01*
X132857542Y-120327993D01*
X132905161Y-120375612D01*
X132952780Y-120470850D01*
X132952780Y-120756564D01*
X132905161Y-120851802D01*
X132857542Y-120899421D01*
X132762304Y-120947040D01*
X132619447Y-120947040D01*
X134095638Y-120899421D02*
X134238495Y-120947040D01*
X134476590Y-120947040D01*
X134571828Y-120899421D01*
X134619447Y-120851802D01*
X134667066Y-120756564D01*
X134667066Y-120661326D01*
X134619447Y-120566088D01*
X134571828Y-120518469D01*
X134476590Y-120470850D01*
X134286114Y-120423231D01*
X134190876Y-120375612D01*
X134143257Y-120327993D01*
X134095638Y-120232755D01*
X134095638Y-120137517D01*
X134143257Y-120042279D01*
X134190876Y-119994660D01*
X134286114Y-119947040D01*
X134524209Y-119947040D01*
X134667066Y-119994660D01*
X135095638Y-120947040D02*
X135095638Y-119947040D01*
X135333733Y-119947040D01*
X135476590Y-119994660D01*
X135571828Y-120089898D01*
X135619447Y-120185136D01*
X135667066Y-120375612D01*
X135667066Y-120518469D01*
X135619447Y-120708945D01*
X135571828Y-120804183D01*
X135476590Y-120899421D01*
X135333733Y-120947040D01*
X135095638Y-120947040D01*
X129104646Y-95004926D02*
X129104646Y-94304926D01*
X129337980Y-94804926D01*
X129571313Y-94304926D01*
X129571313Y-95004926D01*
X129904646Y-95004926D02*
X129904646Y-94304926D01*
X130237980Y-95004926D02*
X130237980Y-94304926D01*
X130471313Y-94804926D01*
X130704646Y-94304926D01*
X130704646Y-95004926D01*
X130971313Y-94304926D02*
X131437980Y-95004926D01*
X131437980Y-94304926D02*
X130971313Y-95004926D01*
X132104646Y-95004926D02*
X131871313Y-94671593D01*
X131704646Y-95004926D02*
X131704646Y-94304926D01*
X131971313Y-94304926D01*
X132037980Y-94338260D01*
X132071313Y-94371593D01*
X132104646Y-94438260D01*
X132104646Y-94538260D01*
X132071313Y-94604926D01*
X132037980Y-94638260D01*
X131971313Y-94671593D01*
X131704646Y-94671593D01*
X132304646Y-94304926D02*
X132704646Y-94304926D01*
X132504646Y-95004926D02*
X132504646Y-94304926D01*
X133304646Y-95004926D02*
X132904646Y-95004926D01*
X133104646Y-95004926D02*
X133104646Y-94304926D01*
X133037980Y-94404926D01*
X132971313Y-94471593D01*
X132904646Y-94504926D01*
X133737980Y-94304926D02*
X133804646Y-94304926D01*
X133871313Y-94338260D01*
X133904646Y-94371593D01*
X133937980Y-94438260D01*
X133971313Y-94571593D01*
X133971313Y-94738260D01*
X133937980Y-94871593D01*
X133904646Y-94938260D01*
X133871313Y-94971593D01*
X133804646Y-95004926D01*
X133737980Y-95004926D01*
X133671313Y-94971593D01*
X133637980Y-94938260D01*
X133604646Y-94871593D01*
X133571313Y-94738260D01*
X133571313Y-94571593D01*
X133604646Y-94438260D01*
X133637980Y-94371593D01*
X133671313Y-94338260D01*
X133737980Y-94304926D01*
X134571313Y-94304926D02*
X134437980Y-94304926D01*
X134371313Y-94338260D01*
X134337980Y-94371593D01*
X134271313Y-94471593D01*
X134237980Y-94604926D01*
X134237980Y-94871593D01*
X134271313Y-94938260D01*
X134304646Y-94971593D01*
X134371313Y-95004926D01*
X134504646Y-95004926D01*
X134571313Y-94971593D01*
X134604646Y-94938260D01*
X134637980Y-94871593D01*
X134637980Y-94704926D01*
X134604646Y-94638260D01*
X134571313Y-94604926D01*
X134504646Y-94571593D01*
X134371313Y-94571593D01*
X134304646Y-94604926D01*
X134271313Y-94638260D01*
X134237980Y-94704926D01*
X134904646Y-94371593D02*
X134937980Y-94338260D01*
X135004646Y-94304926D01*
X135171313Y-94304926D01*
X135237980Y-94338260D01*
X135271313Y-94371593D01*
X135304646Y-94438260D01*
X135304646Y-94504926D01*
X135271313Y-94604926D01*
X134871313Y-95004926D01*
X135304646Y-95004926D01*
X130727955Y-71232380D02*
X130727955Y-72041904D01*
X130775574Y-72137142D01*
X130823193Y-72184761D01*
X130918431Y-72232380D01*
X131108907Y-72232380D01*
X131204145Y-72184761D01*
X131251764Y-72137142D01*
X131299383Y-72041904D01*
X131299383Y-71232380D01*
X131727955Y-72184761D02*
X131870812Y-72232380D01*
X132108907Y-72232380D01*
X132204145Y-72184761D01*
X132251764Y-72137142D01*
X132299383Y-72041904D01*
X132299383Y-71946666D01*
X132251764Y-71851428D01*
X132204145Y-71803809D01*
X132108907Y-71756190D01*
X131918431Y-71708571D01*
X131823193Y-71660952D01*
X131775574Y-71613333D01*
X131727955Y-71518095D01*
X131727955Y-71422857D01*
X131775574Y-71327619D01*
X131823193Y-71280000D01*
X131918431Y-71232380D01*
X132156526Y-71232380D01*
X132299383Y-71280000D01*
X133061288Y-71708571D02*
X133204145Y-71756190D01*
X133251764Y-71803809D01*
X133299383Y-71899047D01*
X133299383Y-72041904D01*
X133251764Y-72137142D01*
X133204145Y-72184761D01*
X133108907Y-72232380D01*
X132727955Y-72232380D01*
X132727955Y-71232380D01*
X133061288Y-71232380D01*
X133156526Y-71280000D01*
X133204145Y-71327619D01*
X133251764Y-71422857D01*
X133251764Y-71518095D01*
X133204145Y-71613333D01*
X133156526Y-71660952D01*
X133061288Y-71708571D01*
X132727955Y-71708571D01*
X130786526Y-94006706D02*
X130786526Y-93306706D01*
X130953193Y-93306706D01*
X131053193Y-93340040D01*
X131119860Y-93406706D01*
X131153193Y-93473373D01*
X131186526Y-93606706D01*
X131186526Y-93706706D01*
X131153193Y-93840040D01*
X131119860Y-93906706D01*
X131053193Y-93973373D01*
X130953193Y-94006706D01*
X130786526Y-94006706D01*
X131386526Y-93306706D02*
X131619860Y-94006706D01*
X131853193Y-93306706D01*
X132286526Y-93306706D02*
X132286526Y-93806706D01*
X132253193Y-93906706D01*
X132186526Y-93973373D01*
X132086526Y-94006706D01*
X132019860Y-94006706D01*
X132919860Y-93306706D02*
X132786526Y-93306706D01*
X132719860Y-93340040D01*
X132686526Y-93373373D01*
X132619860Y-93473373D01*
X132586526Y-93606706D01*
X132586526Y-93873373D01*
X132619860Y-93940040D01*
X132653193Y-93973373D01*
X132719860Y-94006706D01*
X132853193Y-94006706D01*
X132919860Y-93973373D01*
X132953193Y-93940040D01*
X132986526Y-93873373D01*
X132986526Y-93706706D01*
X132953193Y-93640040D01*
X132919860Y-93606706D01*
X132853193Y-93573373D01*
X132719860Y-93573373D01*
X132653193Y-93606706D01*
X132619860Y-93640040D01*
X132586526Y-93706706D01*
X133253193Y-93806706D02*
X133586526Y-93806706D01*
X133186526Y-94006706D02*
X133419860Y-93306706D01*
X133653193Y-94006706D01*
X128953040Y-83293723D02*
X129762564Y-83293723D01*
X129857802Y-83246104D01*
X129905421Y-83198485D01*
X129953040Y-83103247D01*
X129953040Y-82912771D01*
X129905421Y-82817533D01*
X129857802Y-82769914D01*
X129762564Y-82722295D01*
X128953040Y-82722295D01*
X129905421Y-82293723D02*
X129953040Y-82150866D01*
X129953040Y-81912771D01*
X129905421Y-81817533D01*
X129857802Y-81769914D01*
X129762564Y-81722295D01*
X129667326Y-81722295D01*
X129572088Y-81769914D01*
X129524469Y-81817533D01*
X129476850Y-81912771D01*
X129429231Y-82103247D01*
X129381612Y-82198485D01*
X129333993Y-82246104D01*
X129238755Y-82293723D01*
X129143517Y-82293723D01*
X129048279Y-82246104D01*
X129000660Y-82198485D01*
X128953040Y-82103247D01*
X128953040Y-81865152D01*
X129000660Y-81722295D01*
X129429231Y-80960390D02*
X129476850Y-80817533D01*
X129524469Y-80769914D01*
X129619707Y-80722295D01*
X129762564Y-80722295D01*
X129857802Y-80769914D01*
X129905421Y-80817533D01*
X129953040Y-80912771D01*
X129953040Y-81293723D01*
X128953040Y-81293723D01*
X128953040Y-80960390D01*
X129000660Y-80865152D01*
X129048279Y-80817533D01*
X129143517Y-80769914D01*
X129238755Y-80769914D01*
X129333993Y-80817533D01*
X129381612Y-80865152D01*
X129429231Y-80960390D01*
X129429231Y-81293723D01*
X129953040Y-79531819D02*
X128953040Y-79531819D01*
X129429231Y-79531819D02*
X129429231Y-78960390D01*
X129953040Y-78960390D02*
X128953040Y-78960390D01*
X129953040Y-78341342D02*
X129905421Y-78436580D01*
X129857802Y-78484200D01*
X129762564Y-78531819D01*
X129476850Y-78531819D01*
X129381612Y-78484200D01*
X129333993Y-78436580D01*
X129286374Y-78341342D01*
X129286374Y-78198485D01*
X129333993Y-78103247D01*
X129381612Y-78055628D01*
X129476850Y-78008009D01*
X129762564Y-78008009D01*
X129857802Y-78055628D01*
X129905421Y-78103247D01*
X129953040Y-78198485D01*
X129953040Y-78341342D01*
X129905421Y-77627057D02*
X129953040Y-77531819D01*
X129953040Y-77341342D01*
X129905421Y-77246104D01*
X129810183Y-77198485D01*
X129762564Y-77198485D01*
X129667326Y-77246104D01*
X129619707Y-77341342D01*
X129619707Y-77484200D01*
X129572088Y-77579438D01*
X129476850Y-77627057D01*
X129429231Y-77627057D01*
X129333993Y-77579438D01*
X129286374Y-77484200D01*
X129286374Y-77341342D01*
X129333993Y-77246104D01*
X129286374Y-76912771D02*
X129286374Y-76531819D01*
X128953040Y-76769914D02*
X129810183Y-76769914D01*
X129905421Y-76722295D01*
X129953040Y-76627057D01*
X129953040Y-76531819D01*
%TO.C,C1*%
X171159542Y-84046666D02*
X171207161Y-84094285D01*
X171254780Y-84237142D01*
X171254780Y-84332380D01*
X171207161Y-84475238D01*
X171111923Y-84570476D01*
X171016685Y-84618095D01*
X170826209Y-84665714D01*
X170683352Y-84665714D01*
X170492876Y-84618095D01*
X170397638Y-84570476D01*
X170302400Y-84475238D01*
X170254780Y-84332380D01*
X170254780Y-84237142D01*
X170302400Y-84094285D01*
X170350019Y-84046666D01*
X171254780Y-83094285D02*
X171254780Y-83665714D01*
X171254780Y-83380000D02*
X170254780Y-83380000D01*
X170397638Y-83475238D01*
X170492876Y-83570476D01*
X170540495Y-83665714D01*
%TO.C,U7*%
X165395380Y-119690506D02*
X166204904Y-119690506D01*
X166300142Y-119642887D01*
X166347761Y-119595268D01*
X166395380Y-119500030D01*
X166395380Y-119309554D01*
X166347761Y-119214316D01*
X166300142Y-119166697D01*
X166204904Y-119119078D01*
X165395380Y-119119078D01*
X165395380Y-118738125D02*
X165395380Y-118071459D01*
X166395380Y-118500030D01*
%TO.C,D2*%
X184062240Y-82318095D02*
X183062240Y-82318095D01*
X183062240Y-82080000D01*
X183109860Y-81937142D01*
X183205098Y-81841904D01*
X183300336Y-81794285D01*
X183490812Y-81746666D01*
X183633669Y-81746666D01*
X183824145Y-81794285D01*
X183919383Y-81841904D01*
X184014621Y-81937142D01*
X184062240Y-82080000D01*
X184062240Y-82318095D01*
X183157479Y-81365714D02*
X183109860Y-81318095D01*
X183062240Y-81222857D01*
X183062240Y-80984761D01*
X183109860Y-80889523D01*
X183157479Y-80841904D01*
X183252717Y-80794285D01*
X183347955Y-80794285D01*
X183490812Y-80841904D01*
X184062240Y-81413333D01*
X184062240Y-80794285D01*
D13*
%TO.C,C21*%
X159995184Y-131925353D02*
X159995184Y-131959025D01*
X159961512Y-132026368D01*
X159927841Y-132060040D01*
X159860497Y-132093712D01*
X159793154Y-132093712D01*
X159742646Y-132076876D01*
X159658467Y-132026368D01*
X159607959Y-131975861D01*
X159557451Y-131891681D01*
X159540616Y-131841174D01*
X159540616Y-131773830D01*
X159574287Y-131706487D01*
X159607959Y-131672815D01*
X159675303Y-131639143D01*
X159708974Y-131639143D01*
X159843661Y-131504456D02*
X159843661Y-131470784D01*
X159860497Y-131420277D01*
X159944677Y-131336097D01*
X159995184Y-131319261D01*
X160028856Y-131319261D01*
X160079364Y-131336097D01*
X160113035Y-131369769D01*
X160146707Y-131437112D01*
X160146707Y-131841174D01*
X160365574Y-131622307D01*
X160702291Y-131285590D02*
X160500261Y-131487620D01*
X160601276Y-131386605D02*
X160247722Y-131033051D01*
X160264558Y-131117231D01*
X160264558Y-131184574D01*
X160247722Y-131235082D01*
D14*
%TO.C,R2*%
X171362240Y-78446666D02*
X170886050Y-78780000D01*
X171362240Y-79018095D02*
X170362240Y-79018095D01*
X170362240Y-78637142D01*
X170409860Y-78541904D01*
X170457479Y-78494285D01*
X170552717Y-78446666D01*
X170695574Y-78446666D01*
X170790812Y-78494285D01*
X170838431Y-78541904D01*
X170886050Y-78637142D01*
X170886050Y-79018095D01*
X170457479Y-78065714D02*
X170409860Y-78018095D01*
X170362240Y-77922857D01*
X170362240Y-77684761D01*
X170409860Y-77589523D01*
X170457479Y-77541904D01*
X170552717Y-77494285D01*
X170647955Y-77494285D01*
X170790812Y-77541904D01*
X171362240Y-78113333D01*
X171362240Y-77494285D01*
D13*
%TO.C,C15*%
X153005162Y-132968775D02*
X153005162Y-133002447D01*
X152971490Y-133069790D01*
X152937819Y-133103462D01*
X152870475Y-133137134D01*
X152803132Y-133137134D01*
X152752624Y-133120298D01*
X152668445Y-133069790D01*
X152617937Y-133019283D01*
X152567429Y-132935103D01*
X152550594Y-132884596D01*
X152550594Y-132817252D01*
X152584265Y-132749909D01*
X152617937Y-132716237D01*
X152685281Y-132682565D01*
X152718952Y-132682565D01*
X153375552Y-132665729D02*
X153173521Y-132867760D01*
X153274536Y-132766744D02*
X152920983Y-132413191D01*
X152937819Y-132497370D01*
X152937819Y-132564714D01*
X152920983Y-132615222D01*
X153341880Y-131992294D02*
X153173521Y-132160653D01*
X153325044Y-132345847D01*
X153325044Y-132312176D01*
X153341880Y-132261668D01*
X153426059Y-132177489D01*
X153476567Y-132160653D01*
X153510239Y-132160653D01*
X153560746Y-132177489D01*
X153644926Y-132261668D01*
X153661761Y-132312176D01*
X153661761Y-132345847D01*
X153644926Y-132396355D01*
X153560746Y-132480534D01*
X153510239Y-132497370D01*
X153476567Y-132497370D01*
D15*
%TO.C,J2*%
X183796020Y-133010126D02*
X184080863Y-133010126D01*
X184137831Y-133029116D01*
X184175810Y-133067095D01*
X184194800Y-133124063D01*
X184194800Y-133162042D01*
X183833999Y-132839220D02*
X183815010Y-132820231D01*
X183796020Y-132782252D01*
X183796020Y-132687304D01*
X183815010Y-132649325D01*
X183833999Y-132630336D01*
X183871978Y-132611346D01*
X183909957Y-132611346D01*
X183966926Y-132630336D01*
X184194800Y-132858210D01*
X184194800Y-132611346D01*
D14*
%TO.C,C7*%
X176021733Y-91585142D02*
X175974114Y-91632761D01*
X175831257Y-91680380D01*
X175736019Y-91680380D01*
X175593161Y-91632761D01*
X175497923Y-91537523D01*
X175450304Y-91442285D01*
X175402685Y-91251809D01*
X175402685Y-91108952D01*
X175450304Y-90918476D01*
X175497923Y-90823238D01*
X175593161Y-90728000D01*
X175736019Y-90680380D01*
X175831257Y-90680380D01*
X175974114Y-90728000D01*
X176021733Y-90775619D01*
X176355066Y-90680380D02*
X177021733Y-90680380D01*
X176593161Y-91680380D01*
%TO.C,C6*%
X176021733Y-93885142D02*
X175974114Y-93932761D01*
X175831257Y-93980380D01*
X175736019Y-93980380D01*
X175593161Y-93932761D01*
X175497923Y-93837523D01*
X175450304Y-93742285D01*
X175402685Y-93551809D01*
X175402685Y-93408952D01*
X175450304Y-93218476D01*
X175497923Y-93123238D01*
X175593161Y-93028000D01*
X175736019Y-92980380D01*
X175831257Y-92980380D01*
X175974114Y-93028000D01*
X176021733Y-93075619D01*
X176878876Y-92980380D02*
X176688400Y-92980380D01*
X176593161Y-93028000D01*
X176545542Y-93075619D01*
X176450304Y-93218476D01*
X176402685Y-93408952D01*
X176402685Y-93789904D01*
X176450304Y-93885142D01*
X176497923Y-93932761D01*
X176593161Y-93980380D01*
X176783638Y-93980380D01*
X176878876Y-93932761D01*
X176926495Y-93885142D01*
X176974114Y-93789904D01*
X176974114Y-93551809D01*
X176926495Y-93456571D01*
X176878876Y-93408952D01*
X176783638Y-93361333D01*
X176593161Y-93361333D01*
X176497923Y-93408952D01*
X176450304Y-93456571D01*
X176402685Y-93551809D01*
%TO.C,R3*%
X175662240Y-76346666D02*
X175186050Y-76680000D01*
X175662240Y-76918095D02*
X174662240Y-76918095D01*
X174662240Y-76537142D01*
X174709860Y-76441904D01*
X174757479Y-76394285D01*
X174852717Y-76346666D01*
X174995574Y-76346666D01*
X175090812Y-76394285D01*
X175138431Y-76441904D01*
X175186050Y-76537142D01*
X175186050Y-76918095D01*
X174662240Y-76013333D02*
X174662240Y-75394285D01*
X175043193Y-75727619D01*
X175043193Y-75584761D01*
X175090812Y-75489523D01*
X175138431Y-75441904D01*
X175233669Y-75394285D01*
X175471764Y-75394285D01*
X175567002Y-75441904D01*
X175614621Y-75489523D01*
X175662240Y-75584761D01*
X175662240Y-75870476D01*
X175614621Y-75965714D01*
X175567002Y-76013333D01*
%TO.C,R12*%
X177040780Y-105270857D02*
X176564590Y-105604190D01*
X177040780Y-105842285D02*
X176040780Y-105842285D01*
X176040780Y-105461333D01*
X176088400Y-105366095D01*
X176136019Y-105318476D01*
X176231257Y-105270857D01*
X176374114Y-105270857D01*
X176469352Y-105318476D01*
X176516971Y-105366095D01*
X176564590Y-105461333D01*
X176564590Y-105842285D01*
X177040780Y-104318476D02*
X177040780Y-104889904D01*
X177040780Y-104604190D02*
X176040780Y-104604190D01*
X176183638Y-104699428D01*
X176278876Y-104794666D01*
X176326495Y-104889904D01*
X176136019Y-103937523D02*
X176088400Y-103889904D01*
X176040780Y-103794666D01*
X176040780Y-103556571D01*
X176088400Y-103461333D01*
X176136019Y-103413714D01*
X176231257Y-103366095D01*
X176326495Y-103366095D01*
X176469352Y-103413714D01*
X177040780Y-103985142D01*
X177040780Y-103366095D01*
D13*
%TO.C,C26*%
X162746571Y-115121771D02*
X162722761Y-115145580D01*
X162651333Y-115169390D01*
X162603714Y-115169390D01*
X162532285Y-115145580D01*
X162484666Y-115097961D01*
X162460857Y-115050342D01*
X162437047Y-114955104D01*
X162437047Y-114883676D01*
X162460857Y-114788438D01*
X162484666Y-114740819D01*
X162532285Y-114693200D01*
X162603714Y-114669390D01*
X162651333Y-114669390D01*
X162722761Y-114693200D01*
X162746571Y-114717009D01*
X162937047Y-114717009D02*
X162960857Y-114693200D01*
X163008476Y-114669390D01*
X163127523Y-114669390D01*
X163175142Y-114693200D01*
X163198952Y-114717009D01*
X163222761Y-114764628D01*
X163222761Y-114812247D01*
X163198952Y-114883676D01*
X162913238Y-115169390D01*
X163222761Y-115169390D01*
X163651333Y-114669390D02*
X163556095Y-114669390D01*
X163508476Y-114693200D01*
X163484666Y-114717009D01*
X163437047Y-114788438D01*
X163413238Y-114883676D01*
X163413238Y-115074152D01*
X163437047Y-115121771D01*
X163460857Y-115145580D01*
X163508476Y-115169390D01*
X163603714Y-115169390D01*
X163651333Y-115145580D01*
X163675142Y-115121771D01*
X163698952Y-115074152D01*
X163698952Y-114955104D01*
X163675142Y-114907485D01*
X163651333Y-114883676D01*
X163603714Y-114859866D01*
X163508476Y-114859866D01*
X163460857Y-114883676D01*
X163437047Y-114907485D01*
X163413238Y-114955104D01*
%TO.C,R20*%
X146607456Y-132790025D02*
X146321246Y-132739517D01*
X146405425Y-132992055D02*
X146051872Y-132638502D01*
X146186559Y-132503815D01*
X146237067Y-132486979D01*
X146270738Y-132486979D01*
X146321246Y-132503815D01*
X146371754Y-132554322D01*
X146388590Y-132604830D01*
X146388590Y-132638502D01*
X146371754Y-132689009D01*
X146237067Y-132823696D01*
X146422261Y-132335456D02*
X146422261Y-132301784D01*
X146439097Y-132251277D01*
X146523277Y-132167097D01*
X146573784Y-132150261D01*
X146607456Y-132150261D01*
X146657964Y-132167097D01*
X146691635Y-132200769D01*
X146725307Y-132268112D01*
X146725307Y-132672174D01*
X146944174Y-132453307D01*
X146809487Y-131880887D02*
X146843158Y-131847216D01*
X146893666Y-131830380D01*
X146927338Y-131830380D01*
X146977845Y-131847216D01*
X147062025Y-131897723D01*
X147146204Y-131981903D01*
X147196712Y-132066082D01*
X147213548Y-132116590D01*
X147213548Y-132150261D01*
X147196712Y-132200769D01*
X147163040Y-132234441D01*
X147112532Y-132251277D01*
X147078861Y-132251277D01*
X147028353Y-132234441D01*
X146944174Y-132183933D01*
X146859994Y-132099754D01*
X146809487Y-132015574D01*
X146792651Y-131965067D01*
X146792651Y-131931395D01*
X146809487Y-131880887D01*
D14*
%TO.C,R8*%
X162362240Y-83746666D02*
X161886050Y-84080000D01*
X162362240Y-84318095D02*
X161362240Y-84318095D01*
X161362240Y-83937142D01*
X161409860Y-83841904D01*
X161457479Y-83794285D01*
X161552717Y-83746666D01*
X161695574Y-83746666D01*
X161790812Y-83794285D01*
X161838431Y-83841904D01*
X161886050Y-83937142D01*
X161886050Y-84318095D01*
X161790812Y-83175238D02*
X161743193Y-83270476D01*
X161695574Y-83318095D01*
X161600336Y-83365714D01*
X161552717Y-83365714D01*
X161457479Y-83318095D01*
X161409860Y-83270476D01*
X161362240Y-83175238D01*
X161362240Y-82984761D01*
X161409860Y-82889523D01*
X161457479Y-82841904D01*
X161552717Y-82794285D01*
X161600336Y-82794285D01*
X161695574Y-82841904D01*
X161743193Y-82889523D01*
X161790812Y-82984761D01*
X161790812Y-83175238D01*
X161838431Y-83270476D01*
X161886050Y-83318095D01*
X161981288Y-83365714D01*
X162171764Y-83365714D01*
X162267002Y-83318095D01*
X162314621Y-83270476D01*
X162362240Y-83175238D01*
X162362240Y-82984761D01*
X162314621Y-82889523D01*
X162267002Y-82841904D01*
X162171764Y-82794285D01*
X161981288Y-82794285D01*
X161886050Y-82841904D01*
X161838431Y-82889523D01*
X161790812Y-82984761D01*
D13*
%TO.C,C25*%
X146683784Y-129126353D02*
X146683784Y-129160025D01*
X146650112Y-129227368D01*
X146616441Y-129261040D01*
X146549097Y-129294712D01*
X146481754Y-129294712D01*
X146431246Y-129277876D01*
X146347067Y-129227368D01*
X146296559Y-129176861D01*
X146246051Y-129092681D01*
X146229216Y-129042174D01*
X146229216Y-128974830D01*
X146262887Y-128907487D01*
X146296559Y-128873815D01*
X146363903Y-128840143D01*
X146397574Y-128840143D01*
X146532261Y-128705456D02*
X146532261Y-128671784D01*
X146549097Y-128621277D01*
X146633277Y-128537097D01*
X146683784Y-128520261D01*
X146717456Y-128520261D01*
X146767964Y-128537097D01*
X146801635Y-128570769D01*
X146835307Y-128638112D01*
X146835307Y-129042174D01*
X147054174Y-128823307D01*
X147020502Y-128149872D02*
X146852143Y-128318231D01*
X147003666Y-128503425D01*
X147003666Y-128469754D01*
X147020502Y-128419246D01*
X147104681Y-128335067D01*
X147155189Y-128318231D01*
X147188861Y-128318231D01*
X147239368Y-128335067D01*
X147323548Y-128419246D01*
X147340383Y-128469754D01*
X147340383Y-128503425D01*
X147323548Y-128553933D01*
X147239368Y-128638112D01*
X147188861Y-128654948D01*
X147155189Y-128654948D01*
D14*
%TO.C,C8*%
X174737733Y-87809142D02*
X174690114Y-87856761D01*
X174547257Y-87904380D01*
X174452019Y-87904380D01*
X174309161Y-87856761D01*
X174213923Y-87761523D01*
X174166304Y-87666285D01*
X174118685Y-87475809D01*
X174118685Y-87332952D01*
X174166304Y-87142476D01*
X174213923Y-87047238D01*
X174309161Y-86952000D01*
X174452019Y-86904380D01*
X174547257Y-86904380D01*
X174690114Y-86952000D01*
X174737733Y-86999619D01*
X175309161Y-87332952D02*
X175213923Y-87285333D01*
X175166304Y-87237714D01*
X175118685Y-87142476D01*
X175118685Y-87094857D01*
X175166304Y-86999619D01*
X175213923Y-86952000D01*
X175309161Y-86904380D01*
X175499638Y-86904380D01*
X175594876Y-86952000D01*
X175642495Y-86999619D01*
X175690114Y-87094857D01*
X175690114Y-87142476D01*
X175642495Y-87237714D01*
X175594876Y-87285333D01*
X175499638Y-87332952D01*
X175309161Y-87332952D01*
X175213923Y-87380571D01*
X175166304Y-87428190D01*
X175118685Y-87523428D01*
X175118685Y-87713904D01*
X175166304Y-87809142D01*
X175213923Y-87856761D01*
X175309161Y-87904380D01*
X175499638Y-87904380D01*
X175594876Y-87856761D01*
X175642495Y-87809142D01*
X175690114Y-87713904D01*
X175690114Y-87523428D01*
X175642495Y-87428190D01*
X175594876Y-87380571D01*
X175499638Y-87332952D01*
D13*
%TO.C,C27*%
X161354771Y-122047571D02*
X161330961Y-122071380D01*
X161259533Y-122095190D01*
X161211914Y-122095190D01*
X161140485Y-122071380D01*
X161092866Y-122023761D01*
X161069057Y-121976142D01*
X161045247Y-121880904D01*
X161045247Y-121809476D01*
X161069057Y-121714238D01*
X161092866Y-121666619D01*
X161140485Y-121619000D01*
X161211914Y-121595190D01*
X161259533Y-121595190D01*
X161330961Y-121619000D01*
X161354771Y-121642809D01*
X161545247Y-121642809D02*
X161569057Y-121619000D01*
X161616676Y-121595190D01*
X161735723Y-121595190D01*
X161783342Y-121619000D01*
X161807152Y-121642809D01*
X161830961Y-121690428D01*
X161830961Y-121738047D01*
X161807152Y-121809476D01*
X161521438Y-122095190D01*
X161830961Y-122095190D01*
X161997628Y-121595190D02*
X162330961Y-121595190D01*
X162116676Y-122095190D01*
D14*
%TO.C,R7*%
X145777180Y-76819466D02*
X145300990Y-77152800D01*
X145777180Y-77390895D02*
X144777180Y-77390895D01*
X144777180Y-77009942D01*
X144824800Y-76914704D01*
X144872419Y-76867085D01*
X144967657Y-76819466D01*
X145110514Y-76819466D01*
X145205752Y-76867085D01*
X145253371Y-76914704D01*
X145300990Y-77009942D01*
X145300990Y-77390895D01*
X144777180Y-76486133D02*
X144777180Y-75819466D01*
X145777180Y-76248038D01*
D13*
%TO.C,C12*%
X150451762Y-136718975D02*
X150451762Y-136752647D01*
X150418090Y-136819990D01*
X150384419Y-136853662D01*
X150317075Y-136887334D01*
X150249732Y-136887334D01*
X150199224Y-136870498D01*
X150115045Y-136819990D01*
X150064537Y-136769483D01*
X150014029Y-136685303D01*
X149997194Y-136634796D01*
X149997194Y-136567452D01*
X150030865Y-136500109D01*
X150064537Y-136466437D01*
X150131881Y-136432765D01*
X150165552Y-136432765D01*
X150822152Y-136415929D02*
X150620121Y-136617960D01*
X150721136Y-136516944D02*
X150367583Y-136163391D01*
X150384419Y-136247570D01*
X150384419Y-136314914D01*
X150367583Y-136365422D01*
X150636957Y-135961360D02*
X150636957Y-135927689D01*
X150653793Y-135877181D01*
X150737972Y-135793002D01*
X150788480Y-135776166D01*
X150822152Y-135776166D01*
X150872659Y-135793002D01*
X150906331Y-135826673D01*
X150940003Y-135894017D01*
X150940003Y-136298078D01*
X151158869Y-136079212D01*
%TO.C,C10*%
X148708373Y-135134964D02*
X148708373Y-135168636D01*
X148674701Y-135235979D01*
X148641030Y-135269651D01*
X148573686Y-135303323D01*
X148506343Y-135303323D01*
X148455835Y-135286487D01*
X148371656Y-135235979D01*
X148321148Y-135185472D01*
X148270640Y-135101292D01*
X148253805Y-135050785D01*
X148253805Y-134983441D01*
X148287476Y-134916098D01*
X148321148Y-134882426D01*
X148388492Y-134848754D01*
X148422163Y-134848754D01*
X149078763Y-134831918D02*
X148876732Y-135033949D01*
X148977747Y-134932933D02*
X148624194Y-134579380D01*
X148641030Y-134663559D01*
X148641030Y-134730903D01*
X148624194Y-134781411D01*
X148944076Y-134259498D02*
X148977747Y-134225827D01*
X149028255Y-134208991D01*
X149061927Y-134208991D01*
X149112434Y-134225827D01*
X149196614Y-134276334D01*
X149280793Y-134360514D01*
X149331301Y-134444693D01*
X149348137Y-134495201D01*
X149348137Y-134528872D01*
X149331301Y-134579380D01*
X149297629Y-134613052D01*
X149247121Y-134629888D01*
X149213450Y-134629888D01*
X149162942Y-134613052D01*
X149078763Y-134562544D01*
X148994583Y-134478365D01*
X148944076Y-134394185D01*
X148927240Y-134343678D01*
X148927240Y-134310006D01*
X148944076Y-134259498D01*
D14*
%TO.C,U2*%
X172915495Y-79207380D02*
X172915495Y-80016904D01*
X172963114Y-80112142D01*
X173010733Y-80159761D01*
X173105971Y-80207380D01*
X173296447Y-80207380D01*
X173391685Y-80159761D01*
X173439304Y-80112142D01*
X173486923Y-80016904D01*
X173486923Y-79207380D01*
X173915495Y-79302619D02*
X173963114Y-79255000D01*
X174058352Y-79207380D01*
X174296447Y-79207380D01*
X174391685Y-79255000D01*
X174439304Y-79302619D01*
X174486923Y-79397857D01*
X174486923Y-79493095D01*
X174439304Y-79635952D01*
X173867876Y-80207380D01*
X174486923Y-80207380D01*
D16*
%TO.C,C31*%
X168753964Y-121432800D02*
X168969636Y-121432800D01*
X168753964Y-122152800D02*
X168969636Y-122152800D01*
%TO.C,C11*%
X150637579Y-134171304D02*
X150790082Y-134018801D01*
X151146696Y-134680421D02*
X151299199Y-134527918D01*
%TO.C,R17*%
X151461517Y-124722116D02*
X151244236Y-124504835D01*
X150924116Y-125259517D02*
X150706835Y-125042236D01*
%TO.C,C33*%
X154984579Y-134673904D02*
X155137082Y-134521401D01*
X155493696Y-135183021D02*
X155646199Y-135030518D01*
%TO.C,C36*%
X146542318Y-129929401D02*
X146694821Y-130081904D01*
X146033201Y-130438518D02*
X146185704Y-130591021D01*
%TO.C,R18*%
X150054116Y-126149517D02*
X149836835Y-125932236D01*
X150591517Y-125612116D02*
X150374236Y-125394835D01*
%TO.C,C2*%
X158974860Y-80941252D02*
X158974860Y-80418748D01*
X160444860Y-80941252D02*
X160444860Y-80418748D01*
%TO.C,C35*%
X158232282Y-126729001D02*
X158079779Y-126881504D01*
X158741399Y-127238118D02*
X158588896Y-127390621D01*
%TO.C,R16*%
X151904716Y-124451117D02*
X151687435Y-124233836D01*
X152442117Y-123913716D02*
X152224836Y-123696435D01*
D17*
%TO.C,J40*%
X163510220Y-59080780D02*
X162009080Y-59080780D01*
X144511020Y-59581160D02*
X144511020Y-60079000D01*
X144010640Y-59080780D02*
X162009080Y-59080780D01*
X161508700Y-60079000D02*
X161508700Y-59581160D01*
X162009080Y-59581160D02*
X142509500Y-59581160D01*
X144010640Y-60079000D02*
X144511020Y-60079000D01*
X142509500Y-59080780D02*
X144010640Y-59080780D01*
X144010640Y-59080780D02*
X144010640Y-58580400D01*
X162026860Y-75090400D02*
X150927060Y-75090400D01*
X144010640Y-58580400D02*
X163510220Y-58580400D01*
X143992860Y-75090400D02*
X144010640Y-60079000D01*
X163510220Y-58580400D02*
X163510220Y-59080780D01*
X162009080Y-59329700D02*
X142509500Y-59329700D01*
X163510220Y-58829320D02*
X144010640Y-58829320D01*
X142509500Y-59581160D02*
X142509500Y-59080780D01*
X162026860Y-75065000D02*
X162009080Y-60079000D01*
X162009080Y-59080780D02*
X162009080Y-59581160D01*
X162009080Y-60079000D02*
X161508700Y-60079000D01*
X143992860Y-75090400D02*
X150977860Y-75090400D01*
D16*
%TO.C,C23*%
X147035904Y-126432579D02*
X146883401Y-126585082D01*
X147545021Y-126941696D02*
X147392518Y-127094199D01*
%TO.C,C20*%
X158393893Y-129666190D02*
X158241390Y-129818693D01*
X158903010Y-130175307D02*
X158750507Y-130327810D01*
%TO.C,C30*%
X167786164Y-116443300D02*
X168001836Y-116443300D01*
X167786164Y-115723300D02*
X168001836Y-115723300D01*
%TO.C,R21*%
X149112765Y-132102236D02*
X148895484Y-132319517D01*
X148575364Y-131564835D02*
X148358083Y-131782116D01*
%TO.C,R14*%
X176661336Y-94893000D02*
X177115464Y-94893000D01*
X176661336Y-96363000D02*
X177115464Y-96363000D01*
%TO.C,C24*%
X149066199Y-128470518D02*
X148913696Y-128623021D01*
X148557082Y-127961401D02*
X148404579Y-128113904D01*
%TO.C,C37*%
X145125779Y-131334496D02*
X145278282Y-131486999D01*
X145634896Y-130825379D02*
X145787399Y-130977882D01*
%TO.C,C34*%
X157343282Y-125916201D02*
X157190779Y-126068704D01*
X157852399Y-126425318D02*
X157699896Y-126577821D01*
%TO.C,C22*%
X159731999Y-127829296D02*
X159579496Y-127981799D01*
X159222882Y-127320179D02*
X159070379Y-127472682D01*
%TO.C,U5*%
X156138400Y-91728000D02*
X174138400Y-91728000D01*
X174138400Y-111728000D02*
X174138400Y-105228000D01*
X174138400Y-111728000D02*
X156138400Y-111728000D01*
X156138400Y-91978000D02*
X156138400Y-91728000D01*
X174138400Y-91728000D02*
X174138400Y-91978000D01*
X156138400Y-111728000D02*
X156138400Y-105228000D01*
X156138400Y-105728000D02*
X174088400Y-105728000D01*
%TO.C,R19*%
X149293540Y-127123141D02*
X149076259Y-126905860D01*
X149830941Y-126585740D02*
X149613660Y-126368459D01*
%TO.C,U8*%
X147569211Y-87625099D02*
X144241589Y-87625099D01*
X144241589Y-92730499D02*
X147569211Y-92730499D01*
X145600600Y-87625099D02*
G75*
G03*
X146210200Y-87625099I304800J0D01*
G01*
D13*
X150071000Y-91612300D02*
X150071000Y-91993300D01*
X150071000Y-91993300D02*
X149817000Y-91993300D01*
X149817000Y-91993300D02*
X149817000Y-91612300D01*
X149817000Y-91612300D02*
X150071000Y-91612300D01*
G36*
X150071000Y-91993300D02*
G01*
X149817000Y-91993300D01*
X149817000Y-91612300D01*
X150071000Y-91612300D01*
X150071000Y-91993300D01*
G37*
X150071000Y-91993300D02*
X149817000Y-91993300D01*
X149817000Y-91612300D01*
X150071000Y-91612300D01*
X150071000Y-91993300D01*
D16*
%TO.C,C9*%
X149648096Y-133105621D02*
X149800599Y-132953118D01*
X149138979Y-132596504D02*
X149291482Y-132444001D01*
%TO.C,J31*%
X183072400Y-87550000D02*
X185732400Y-87550000D01*
X183072400Y-84950000D02*
X184402400Y-84950000D01*
X185732400Y-87550000D02*
X185732400Y-120630000D01*
X183072400Y-120630000D02*
X185732400Y-120630000D01*
X183072400Y-86280000D02*
X183072400Y-84950000D01*
X183072400Y-87550000D02*
X183072400Y-120630000D01*
%TO.C,R10*%
X186644860Y-78452936D02*
X186644860Y-78907064D01*
X185174860Y-78452936D02*
X185174860Y-78907064D01*
%TO.C,U6*%
X166844600Y-118978900D02*
X166844600Y-118178900D01*
X169964600Y-118978900D02*
X169964600Y-119778900D01*
X169964600Y-118978900D02*
X169964600Y-117178900D01*
X166844600Y-118978900D02*
X166844600Y-119778900D01*
%TO.C,JP1*%
X170270940Y-89906000D02*
X170270940Y-87106000D01*
X172270940Y-87106000D02*
X172270940Y-89906000D01*
X170270940Y-87106000D02*
X172270940Y-87106000D01*
X172270940Y-89906000D02*
X170270940Y-89906000D01*
D14*
%TO.C,J84*%
X128924800Y-129627800D02*
X128924800Y-135627800D01*
X122824800Y-129627800D02*
X128924800Y-129627800D01*
X128924800Y-135627800D02*
X128074800Y-135627800D01*
X118824800Y-129627800D02*
X120824800Y-129627800D01*
X121074800Y-135627800D02*
X126024800Y-135627800D01*
D16*
%TO.C,UNK1*%
X149730578Y-130053476D02*
X149394703Y-129717600D01*
X156776897Y-129717600D02*
X156441022Y-130053476D01*
X153421676Y-126362378D02*
X153085800Y-126026503D01*
X153085800Y-133408697D02*
X153421676Y-133072822D01*
X156441022Y-129381724D02*
X156776897Y-129717600D01*
X149394703Y-129717600D02*
X149730578Y-129381724D01*
X152749924Y-133072822D02*
X153085800Y-133408697D01*
%TO.C,J32*%
X116532400Y-87550000D02*
X116532400Y-120630000D01*
X113872400Y-86280000D02*
X113872400Y-84950000D01*
X113872400Y-87550000D02*
X113872400Y-120630000D01*
X113872400Y-84950000D02*
X115202400Y-84950000D01*
X113872400Y-87550000D02*
X116532400Y-87550000D01*
X113872400Y-120630000D02*
X116532400Y-120630000D01*
%TO.C,C38*%
X155158779Y-126254496D02*
X155311282Y-126406999D01*
X155667896Y-125745379D02*
X155820399Y-125897882D01*
%TO.C,JP2*%
X177224800Y-99102800D02*
X177224800Y-97102800D01*
X177224800Y-97102800D02*
X180024800Y-97102800D01*
X180024800Y-97102800D02*
X180024800Y-99102800D01*
X180024800Y-99102800D02*
X177224800Y-99102800D01*
%TO.C,R15*%
X153285341Y-122978940D02*
X153068060Y-122761659D01*
X152747940Y-123516341D02*
X152530659Y-123299060D01*
%TO.C,C32*%
X156506096Y-124856379D02*
X156658599Y-125008882D01*
X155996979Y-125365496D02*
X156149482Y-125517999D01*
D18*
%TO.C,U3*%
X149794800Y-77987800D02*
X156144800Y-77987800D01*
X156144800Y-77987800D02*
X156144800Y-86497800D01*
X149794800Y-77987800D02*
X149794800Y-86497800D01*
X149794800Y-86497800D02*
X156144800Y-86497800D01*
D10*
X147244800Y-79702800D02*
G75*
G03*
X147244800Y-79702800I-100000J0D01*
G01*
D14*
%TO.C,U1*%
X128690660Y-86969200D02*
X126150660Y-86969200D01*
X128690660Y-76809200D02*
X126150660Y-76809200D01*
X126150660Y-86969200D02*
X126150660Y-74269200D01*
X138339860Y-90830000D02*
X125639860Y-90830000D01*
X133259860Y-112420000D02*
X130719860Y-112420000D01*
X123099860Y-67970000D02*
X140879860Y-67970000D01*
X128690660Y-74269200D02*
X128690660Y-86969200D01*
X138339860Y-128930000D02*
X138339860Y-116230000D01*
X130719860Y-108610000D02*
X133259860Y-108610000D01*
X140879860Y-128930000D02*
X123099860Y-128930000D01*
X128179860Y-73050000D02*
X128179860Y-67970000D01*
X125639860Y-103530000D02*
X138339860Y-103530000D01*
X140879860Y-67970000D02*
X140879860Y-128930000D01*
X126909860Y-127660000D02*
X126909860Y-128930000D01*
X135799860Y-66700000D02*
X135799860Y-67970000D01*
X126150660Y-74269200D02*
X128690660Y-74269200D01*
X128179860Y-73050000D02*
X135799860Y-73050000D01*
X133259860Y-108610000D02*
X133259860Y-112420000D01*
X138339860Y-116230000D02*
X125639860Y-116230000D01*
X128179860Y-66700000D02*
X135799860Y-66700000D01*
X135799860Y-73050000D02*
X135799860Y-67970000D01*
X138339860Y-103530000D02*
X138339860Y-90830000D01*
X128179860Y-67970000D02*
X128179860Y-66700000D01*
X128690660Y-74269200D02*
X128690660Y-76809200D01*
X137069860Y-128930000D02*
X137069860Y-127660000D01*
X123099860Y-128930000D02*
X123099860Y-67970000D01*
X130719860Y-112420000D02*
X130719860Y-108610000D01*
X137069860Y-127660000D02*
X126909860Y-127660000D01*
X125639860Y-90830000D02*
X125639860Y-103530000D01*
X125639860Y-116230000D02*
X125639860Y-128930000D01*
X132887886Y-110515000D02*
G75*
G03*
X132887886Y-110515000I-898026J0D01*
G01*
D13*
X132677860Y-99361000D02*
X132423860Y-99107000D01*
X132423860Y-99107000D02*
X132804860Y-98853000D01*
X132804860Y-98853000D02*
X133058860Y-99107000D01*
X133058860Y-99107000D02*
X132677860Y-99361000D01*
G36*
X133058860Y-99107000D02*
G01*
X132677860Y-99361000D01*
X132423860Y-99107000D01*
X132804860Y-98853000D01*
X133058860Y-99107000D01*
G37*
X133058860Y-99107000D02*
X132677860Y-99361000D01*
X132423860Y-99107000D01*
X132804860Y-98853000D01*
X133058860Y-99107000D01*
X131661860Y-100123000D02*
X131407860Y-99869000D01*
X131407860Y-99869000D02*
X131788860Y-99615000D01*
X131788860Y-99615000D02*
X132042860Y-99869000D01*
X132042860Y-99869000D02*
X131661860Y-100123000D01*
G36*
X132042860Y-99869000D02*
G01*
X131661860Y-100123000D01*
X131407860Y-99869000D01*
X131788860Y-99615000D01*
X132042860Y-99869000D01*
G37*
X132042860Y-99869000D02*
X131661860Y-100123000D01*
X131407860Y-99869000D01*
X131788860Y-99615000D01*
X132042860Y-99869000D01*
X132042860Y-100504000D02*
X131788860Y-100250000D01*
X131788860Y-100250000D02*
X132169860Y-99996000D01*
X132169860Y-99996000D02*
X132423860Y-100250000D01*
X132423860Y-100250000D02*
X132042860Y-100504000D01*
G36*
X132423860Y-100250000D02*
G01*
X132042860Y-100504000D01*
X131788860Y-100250000D01*
X132169860Y-99996000D01*
X132423860Y-100250000D01*
G37*
X132423860Y-100250000D02*
X132042860Y-100504000D01*
X131788860Y-100250000D01*
X132169860Y-99996000D01*
X132423860Y-100250000D01*
X132169860Y-99742000D02*
X131915860Y-99488000D01*
X131915860Y-99488000D02*
X132296860Y-99234000D01*
X132296860Y-99234000D02*
X132550860Y-99488000D01*
X132550860Y-99488000D02*
X132169860Y-99742000D01*
G36*
X132550860Y-99488000D02*
G01*
X132169860Y-99742000D01*
X131915860Y-99488000D01*
X132296860Y-99234000D01*
X132550860Y-99488000D01*
G37*
X132550860Y-99488000D02*
X132169860Y-99742000D01*
X131915860Y-99488000D01*
X132296860Y-99234000D01*
X132550860Y-99488000D01*
X131915860Y-101266000D02*
X131661860Y-101012000D01*
X131661860Y-101012000D02*
X132042860Y-100758000D01*
X132042860Y-100758000D02*
X132296860Y-101012000D01*
X132296860Y-101012000D02*
X131915860Y-101266000D01*
G36*
X132296860Y-101012000D02*
G01*
X131915860Y-101266000D01*
X131661860Y-101012000D01*
X132042860Y-100758000D01*
X132296860Y-101012000D01*
G37*
X132296860Y-101012000D02*
X131915860Y-101266000D01*
X131661860Y-101012000D01*
X132042860Y-100758000D01*
X132296860Y-101012000D01*
X132296860Y-101647000D02*
X132042860Y-101393000D01*
X132042860Y-101393000D02*
X132423860Y-101139000D01*
X132423860Y-101139000D02*
X132677860Y-101393000D01*
X132677860Y-101393000D02*
X132296860Y-101647000D01*
G36*
X132677860Y-101393000D02*
G01*
X132296860Y-101647000D01*
X132042860Y-101393000D01*
X132423860Y-101139000D01*
X132677860Y-101393000D01*
G37*
X132677860Y-101393000D02*
X132296860Y-101647000D01*
X132042860Y-101393000D01*
X132423860Y-101139000D01*
X132677860Y-101393000D01*
X131534860Y-100885000D02*
X131280860Y-100631000D01*
X131280860Y-100631000D02*
X131661860Y-100377000D01*
X131661860Y-100377000D02*
X131915860Y-100631000D01*
X131915860Y-100631000D02*
X131534860Y-100885000D01*
G36*
X131915860Y-100631000D02*
G01*
X131534860Y-100885000D01*
X131280860Y-100631000D01*
X131661860Y-100377000D01*
X131915860Y-100631000D01*
G37*
X131915860Y-100631000D02*
X131534860Y-100885000D01*
X131280860Y-100631000D01*
X131661860Y-100377000D01*
X131915860Y-100631000D01*
X132550860Y-100123000D02*
X132296860Y-99869000D01*
X132296860Y-99869000D02*
X132677860Y-99615000D01*
X132677860Y-99615000D02*
X132931860Y-99869000D01*
X132931860Y-99869000D02*
X132550860Y-100123000D01*
G36*
X132931860Y-99869000D02*
G01*
X132550860Y-100123000D01*
X132296860Y-99869000D01*
X132677860Y-99615000D01*
X132931860Y-99869000D01*
G37*
X132931860Y-99869000D02*
X132550860Y-100123000D01*
X132296860Y-99869000D01*
X132677860Y-99615000D01*
X132931860Y-99869000D01*
D16*
%TO.C,C1*%
X171537400Y-81303752D02*
X171537400Y-80781248D01*
X170067400Y-81303752D02*
X170067400Y-80781248D01*
%TO.C,U7*%
X161983000Y-118928602D02*
X161983000Y-118128602D01*
X161983000Y-118928602D02*
X161983000Y-119728602D01*
X165103000Y-118928602D02*
X165103000Y-119728602D01*
X165103000Y-118928602D02*
X165103000Y-117128602D01*
%TO.C,D2*%
X184469860Y-79755000D02*
X184469860Y-76895000D01*
X182549860Y-76895000D02*
X182549860Y-79755000D01*
X184469860Y-76895000D02*
X182549860Y-76895000D01*
%TO.C,C21*%
X159114304Y-130393579D02*
X158961801Y-130546082D01*
X159623421Y-130902696D02*
X159470918Y-131055199D01*
%TO.C,R2*%
X171974860Y-78652936D02*
X171974860Y-79107064D01*
X173444860Y-78652936D02*
X173444860Y-79107064D01*
%TO.C,C15*%
X154054579Y-133773904D02*
X154207082Y-133621401D01*
X154563696Y-134283021D02*
X154716199Y-134130518D01*
D14*
%TO.C,J2*%
X171614400Y-135927200D02*
X171614400Y-129927200D01*
X181714400Y-135927200D02*
X179714400Y-135927200D01*
X171614400Y-129927200D02*
X172464400Y-129927200D01*
X179464400Y-129927200D02*
X174514400Y-129927200D01*
X177714400Y-135927200D02*
X171614400Y-135927200D01*
D16*
%TO.C,C7*%
X178664648Y-91963000D02*
X179187152Y-91963000D01*
X178664648Y-90493000D02*
X179187152Y-90493000D01*
%TO.C,C6*%
X178664648Y-92793000D02*
X179187152Y-92793000D01*
X178664648Y-94263000D02*
X179187152Y-94263000D01*
D17*
%TO.C,J90*%
X166392860Y-74990400D02*
X166410640Y-59979000D01*
X184409080Y-59481160D02*
X164909500Y-59481160D01*
X184426860Y-74990400D02*
X173327060Y-74990400D01*
X185910220Y-58729320D02*
X166410640Y-58729320D01*
X166410640Y-58480400D02*
X185910220Y-58480400D01*
X183908700Y-59979000D02*
X183908700Y-59481160D01*
X164909500Y-58980780D02*
X166410640Y-58980780D01*
X184409080Y-59979000D02*
X183908700Y-59979000D01*
X184409080Y-58980780D02*
X184409080Y-59481160D01*
X166911020Y-59481160D02*
X166911020Y-59979000D01*
X166392860Y-74990400D02*
X173377860Y-74990400D01*
X185910220Y-58980780D02*
X184409080Y-58980780D01*
X166410640Y-59979000D02*
X166911020Y-59979000D01*
X164909500Y-59481160D02*
X164909500Y-58980780D01*
X166410640Y-58980780D02*
X166410640Y-58480400D01*
X166410640Y-58980780D02*
X184409080Y-58980780D01*
X184426860Y-74965000D02*
X184409080Y-59979000D01*
X185910220Y-58480400D02*
X185910220Y-58980780D01*
X184409080Y-59229700D02*
X164909500Y-59229700D01*
D16*
%TO.C,R3*%
X175844860Y-78752936D02*
X175844860Y-79207064D01*
X174374860Y-78752936D02*
X174374860Y-79207064D01*
%TO.C,R12*%
X177323400Y-101555064D02*
X177323400Y-101100936D01*
X175853400Y-101555064D02*
X175853400Y-101100936D01*
%TO.C,C26*%
X162960164Y-115743200D02*
X163175836Y-115743200D01*
X162960164Y-116463200D02*
X163175836Y-116463200D01*
%TO.C,R20*%
X148312765Y-131302236D02*
X148095484Y-131519517D01*
X147775364Y-130764835D02*
X147558083Y-130982116D01*
%TO.C,R8*%
X162644860Y-80452936D02*
X162644860Y-80907064D01*
X161174860Y-80452936D02*
X161174860Y-80907064D01*
D13*
%TO.C,J99*%
X169124800Y-92202800D02*
X168624800Y-92202800D01*
X169124800Y-85602800D02*
X168624800Y-85602800D01*
X169124800Y-92202800D02*
X169124800Y-91702800D01*
X169124800Y-85602800D02*
X169124800Y-86102800D01*
D16*
%TO.C,C25*%
X147757082Y-127211401D02*
X147604579Y-127363904D01*
X148266199Y-127720518D02*
X148113696Y-127873021D01*
%TO.C,C8*%
X174727148Y-88393000D02*
X175249652Y-88393000D01*
X174727148Y-89863000D02*
X175249652Y-89863000D01*
%TO.C,C27*%
X163394564Y-121509000D02*
X163610236Y-121509000D01*
X163394564Y-122229000D02*
X163610236Y-122229000D01*
D18*
%TO.C,J70*%
X121429860Y-69145000D02*
X121429860Y-82275000D01*
X107429860Y-82275000D02*
X107429860Y-69145000D01*
X119919860Y-69145000D02*
X121429860Y-69145000D01*
X107429860Y-69145000D02*
X115339860Y-69145000D01*
X115339860Y-82275000D02*
X107429860Y-82275000D01*
X121429860Y-82275000D02*
X119919860Y-82275000D01*
D12*
X122269860Y-72210000D02*
G75*
G03*
X122269860Y-72210000I-150000J0D01*
G01*
D16*
%TO.C,R7*%
X146059800Y-79325736D02*
X146059800Y-79779864D01*
X144589800Y-79325736D02*
X144589800Y-79779864D01*
%TO.C,C12*%
X151934096Y-135493221D02*
X152086599Y-135340718D01*
X151424979Y-134984104D02*
X151577482Y-134831601D01*
%TO.C,C10*%
X149875579Y-133383904D02*
X150028082Y-133231401D01*
X150384696Y-133893021D02*
X150537199Y-133740518D01*
D13*
%TO.C,U2*%
X175027400Y-84130000D02*
X175352400Y-84130000D01*
X172277400Y-84130000D02*
X172377400Y-84130000D01*
X172377400Y-84130000D02*
X172377400Y-84655000D01*
X175352400Y-84130000D02*
X175352400Y-83830000D01*
X175052400Y-82130000D02*
X175352400Y-82130000D01*
X172052400Y-82130000D02*
X172052400Y-82430000D01*
X172052400Y-83805000D02*
X172052400Y-83430000D01*
X172052400Y-83805000D02*
X172277400Y-84130000D01*
X172377400Y-82130000D02*
X172052400Y-82130000D01*
X175352400Y-82130000D02*
X175352400Y-82455000D01*
%TD*%
D19*
%TO.C,J40*%
X145511780Y-71077200D03*
X153009860Y-71079740D03*
X160507940Y-71077200D03*
X148013680Y-73579100D03*
X158006040Y-73579100D03*
%TD*%
D20*
%TO.C,J2*%
X180714400Y-132927200D03*
X174714400Y-132927200D03*
%TD*%
D19*
%TO.C,J90*%
X167911780Y-70977200D03*
X175409860Y-70979740D03*
X182907940Y-70977200D03*
X170413680Y-73479100D03*
X180406040Y-73479100D03*
%TD*%
M02*
