%TF.GenerationSoftware,KiCad,Pcbnew,(6.0.2)*%
%TF.CreationDate,2022-03-04T10:51:53-05:00*%
%TF.ProjectId,bottom,626f7474-6f6d-42e6-9b69-6361645f7063,rev?*%
%TF.SameCoordinates,Original*%
%TF.FileFunction,Soldermask,Top*%
%TF.FilePolarity,Negative*%
%FSLAX46Y46*%
G04 Gerber Fmt 4.6, Leading zero omitted, Abs format (unit mm)*
G04 Created by KiCad (PCBNEW (6.0.2)) date 2022-03-04 10:51:53*
%MOMM*%
%LPD*%
G01*
G04 APERTURE LIST*
G04 Aperture macros list*
%AMRoundRect*
0 Rectangle with rounded corners*
0 $1 Rounding radius*
0 $2 $3 $4 $5 $6 $7 $8 $9 X,Y pos of 4 corners*
0 Add a 4 corners polygon primitive as box body*
4,1,4,$2,$3,$4,$5,$6,$7,$8,$9,$2,$3,0*
0 Add four circle primitives for the rounded corners*
1,1,$1+$1,$2,$3*
1,1,$1+$1,$4,$5*
1,1,$1+$1,$6,$7*
1,1,$1+$1,$8,$9*
0 Add four rect primitives between the rounded corners*
20,1,$1+$1,$2,$3,$4,$5,0*
20,1,$1+$1,$4,$5,$6,$7,0*
20,1,$1+$1,$6,$7,$8,$9,0*
20,1,$1+$1,$8,$9,$2,$3,0*%
G04 Aperture macros list end*
%ADD10R,1.500000X2.000000*%
%ADD11R,3.800000X2.000000*%
%ADD12RoundRect,0.250000X-0.450000X0.350000X-0.450000X-0.350000X0.450000X-0.350000X0.450000X0.350000X0*%
%ADD13RoundRect,0.101600X0.381000X0.762000X-0.381000X0.762000X-0.381000X-0.762000X0.381000X-0.762000X0*%
%ADD14RoundRect,0.250000X0.450000X-0.350000X0.450000X0.350000X-0.450000X0.350000X-0.450000X-0.350000X0*%
%ADD15R,1.600000X1.600000*%
%ADD16O,1.600000X1.600000*%
%ADD17RoundRect,0.250000X0.475000X-0.337500X0.475000X0.337500X-0.475000X0.337500X-0.475000X-0.337500X0*%
%ADD18RoundRect,0.250000X-0.337500X-0.475000X0.337500X-0.475000X0.337500X0.475000X-0.337500X0.475000X0*%
%ADD19RoundRect,0.250000X-0.450000X0.325000X-0.450000X-0.325000X0.450000X-0.325000X0.450000X0.325000X0*%
%ADD20C,1.700000*%
%ADD21C,4.500000*%
%ADD22R,1.700000X1.700000*%
%ADD23O,1.700000X1.700000*%
%ADD24R,1.500000X0.900000*%
%ADD25R,0.700000X0.700000*%
%ADD26RoundRect,0.250000X-0.350000X-0.450000X0.350000X-0.450000X0.350000X0.450000X-0.350000X0.450000X0*%
%ADD27C,2.020000*%
%ADD28C,2.499360*%
%ADD29R,1.428000X1.428000*%
%ADD30C,1.428000*%
%ADD31C,3.316000*%
%ADD32C,1.200000*%
%ADD33R,2.200000X1.600000*%
G04 APERTURE END LIST*
D10*
%TO.C,U4*%
X167009860Y-113980000D03*
X169309860Y-113980000D03*
X171609860Y-113980000D03*
D11*
X169309860Y-107680000D03*
%TD*%
D12*
%TO.C,R3*%
X173109860Y-82980000D03*
X173109860Y-84980000D03*
%TD*%
D13*
%TO.C,S1*%
X159309860Y-114280000D03*
X159309860Y-108692000D03*
X163119860Y-114280000D03*
X163119860Y-108692000D03*
%TD*%
D14*
%TO.C,R12*%
X168009860Y-130880000D03*
X168009860Y-128880000D03*
%TD*%
D15*
%TO.C,U2*%
X178309860Y-87280000D03*
D16*
X175769860Y-87280000D03*
X173229860Y-87280000D03*
X170689860Y-87280000D03*
X168149860Y-87280000D03*
X165609860Y-87280000D03*
X163069860Y-87280000D03*
X163069860Y-94900000D03*
X165609860Y-94900000D03*
X168149860Y-94900000D03*
X170689860Y-94900000D03*
X173229860Y-94900000D03*
X175769860Y-94900000D03*
X178309860Y-94900000D03*
%TD*%
D15*
%TO.C,U3*%
X147665880Y-85791200D03*
D16*
X147665880Y-88331200D03*
X147665880Y-90871200D03*
X155285880Y-90871200D03*
X155285880Y-88331200D03*
X155285880Y-85791200D03*
%TD*%
D17*
%TO.C,C2*%
X157709860Y-86717500D03*
X157709860Y-84642500D03*
%TD*%
D12*
%TO.C,R10*%
X183909860Y-82680000D03*
X183909860Y-84680000D03*
%TD*%
D17*
%TO.C,C4*%
X174209860Y-114117500D03*
X174209860Y-112042500D03*
%TD*%
D18*
%TO.C,C6*%
X169309860Y-122080000D03*
X171384860Y-122080000D03*
%TD*%
D15*
%TO.C,D1*%
X147842400Y-81680000D03*
D16*
X155462400Y-81680000D03*
%TD*%
D12*
%TO.C,R4*%
X175709860Y-82980000D03*
X175709860Y-84980000D03*
%TD*%
D19*
%TO.C,D2*%
X181509860Y-82730000D03*
X181509860Y-84780000D03*
%TD*%
D15*
%TO.C,U1*%
X122369860Y-74240000D03*
D20*
X122369860Y-76780000D03*
X122369860Y-79320000D03*
X122369860Y-81860000D03*
X122369860Y-84400000D03*
X122369860Y-86940000D03*
X122369860Y-89480000D03*
X122369860Y-92020000D03*
X122369860Y-94560000D03*
X122369860Y-97100000D03*
X122369860Y-99640000D03*
X122369860Y-102180000D03*
X122369860Y-104720000D03*
X122369860Y-107260000D03*
X122369860Y-109800000D03*
X122369860Y-112340000D03*
X122369860Y-114880000D03*
X122369860Y-117420000D03*
X122369860Y-119960000D03*
X122369860Y-122500000D03*
X122369860Y-125040000D03*
X122369860Y-127580000D03*
X122369860Y-130120000D03*
X122369860Y-132660000D03*
X137609860Y-132660000D03*
X137609860Y-130120000D03*
X137609860Y-127580000D03*
X137609860Y-125040000D03*
X137609860Y-122500000D03*
X137609860Y-119960000D03*
X137609860Y-117420000D03*
X137609860Y-114880000D03*
X137609860Y-112340000D03*
X137609860Y-109800000D03*
X137609860Y-107260000D03*
X137609860Y-104720000D03*
X137609860Y-102180000D03*
X137609860Y-99640000D03*
X137609860Y-97100000D03*
X137609860Y-94560000D03*
X137609860Y-92020000D03*
X137609860Y-89480000D03*
X137609860Y-86940000D03*
X137609860Y-84400000D03*
X137609860Y-81860000D03*
X137609860Y-79320000D03*
X137609860Y-76780000D03*
X137609860Y-74240000D03*
X135069860Y-76780000D03*
D15*
X125420660Y-80539200D03*
D20*
X125420660Y-83079200D03*
X125420660Y-85619200D03*
X125420660Y-88159200D03*
X125420660Y-90699200D03*
%TD*%
D21*
%TO.C,H3*%
X118078000Y-96920000D03*
%TD*%
D22*
%TO.C,J32*%
X113202400Y-91280000D03*
D23*
X113202400Y-93820000D03*
X113202400Y-96360000D03*
X113202400Y-98900000D03*
X113202400Y-101440000D03*
X113202400Y-103980000D03*
X113202400Y-106520000D03*
X113202400Y-109060000D03*
X113202400Y-111600000D03*
X113202400Y-114140000D03*
X113202400Y-116680000D03*
X113202400Y-119220000D03*
X113202400Y-121760000D03*
X113202400Y-124300000D03*
%TD*%
D21*
%TO.C,H1*%
X158078000Y-96920000D03*
%TD*%
D22*
%TO.C,J31*%
X182402400Y-91280000D03*
D23*
X182402400Y-93820000D03*
X182402400Y-96360000D03*
X182402400Y-98900000D03*
X182402400Y-101440000D03*
X182402400Y-103980000D03*
X182402400Y-106520000D03*
X182402400Y-109060000D03*
X182402400Y-111600000D03*
X182402400Y-114140000D03*
X182402400Y-116680000D03*
X182402400Y-119220000D03*
X182402400Y-121760000D03*
X182402400Y-124300000D03*
%TD*%
D24*
%TO.C,U5*%
X165309860Y-133180000D03*
X165309860Y-131680000D03*
X165309860Y-130180000D03*
X165309860Y-128680000D03*
X165309860Y-127180000D03*
X165309860Y-125680000D03*
X165309860Y-124180000D03*
X165309860Y-122680000D03*
X165309860Y-121180000D03*
X147809860Y-121180000D03*
X147809860Y-122680000D03*
X147809860Y-124180000D03*
X147809860Y-125680000D03*
X147809860Y-127180000D03*
X147809860Y-128680000D03*
X147809860Y-130180000D03*
X147809860Y-131680000D03*
X147809860Y-133180000D03*
D25*
X156699860Y-126980000D03*
X156699860Y-128080000D03*
X154499860Y-128080000D03*
X155649860Y-125880000D03*
X154499860Y-126980000D03*
X154499860Y-125880000D03*
X155649860Y-126980000D03*
X155649860Y-128080000D03*
X156699860Y-125880000D03*
%TD*%
D26*
%TO.C,R14*%
X167309860Y-124180000D03*
X169309860Y-124180000D03*
%TD*%
D12*
%TO.C,R7*%
X142209860Y-85680000D03*
X142209860Y-87680000D03*
%TD*%
D18*
%TO.C,C5*%
X169272360Y-117680000D03*
X171347360Y-117680000D03*
%TD*%
D27*
%TO.C,J96*%
X145109860Y-133260000D03*
X145109860Y-130720000D03*
X145109860Y-128180000D03*
X145109860Y-125640000D03*
%TD*%
%TO.C,J99*%
X155589860Y-118680000D03*
X153049860Y-118680000D03*
X150509860Y-118680000D03*
X147969860Y-118680000D03*
%TD*%
D26*
%TO.C,R11*%
X167309860Y-126480000D03*
X169309860Y-126480000D03*
%TD*%
D28*
%TO.C,J90*%
X165911780Y-75977200D03*
X173409860Y-75979740D03*
X180907940Y-75977200D03*
X168413680Y-78479100D03*
X178406040Y-78479100D03*
%TD*%
D12*
%TO.C,R8*%
X159909860Y-84680000D03*
X159909860Y-86680000D03*
%TD*%
D18*
%TO.C,C8*%
X165372360Y-117680000D03*
X167447360Y-117680000D03*
%TD*%
%TO.C,C7*%
X169309860Y-119780000D03*
X171384860Y-119780000D03*
%TD*%
D12*
%TO.C,R2*%
X170709860Y-82880000D03*
X170709860Y-84880000D03*
%TD*%
D29*
%TO.C,REF\u002A\u002A*%
X118474400Y-77160000D03*
D30*
X118474400Y-79660000D03*
X118474400Y-81660000D03*
X118474400Y-84160000D03*
D31*
X115764400Y-74090000D03*
X115764400Y-87230000D03*
%TD*%
D28*
%TO.C,J40*%
X143511780Y-76077200D03*
X151009860Y-76079740D03*
X158507940Y-76077200D03*
X146013680Y-78579100D03*
X156006040Y-78579100D03*
%TD*%
D18*
%TO.C,C1*%
X174134860Y-97180000D03*
X176209860Y-97180000D03*
%TD*%
D21*
%TO.C,H2*%
X118078000Y-131920000D03*
%TD*%
D32*
%TO.C,J0*%
X172536860Y-131130000D03*
X178536860Y-131130000D03*
D33*
X178409860Y-128880000D03*
X171336860Y-128880000D03*
X176504860Y-133380000D03*
%TD*%
D32*
%TO.C,J82*%
X151152400Y-70920000D03*
X151152400Y-64920000D03*
%TD*%
%TO.C,J81*%
X173852400Y-70920000D03*
X173852400Y-64920000D03*
%TD*%
M02*
