%TF.GenerationSoftware,KiCad,Pcbnew,(6.0.2)*%
%TF.CreationDate,2022-02-23T01:17:56-05:00*%
%TF.ProjectId,bottom,626f7474-6f6d-42e6-9b69-6361645f7063,rev?*%
%TF.SameCoordinates,Original*%
%TF.FileFunction,Legend,Bot*%
%TF.FilePolarity,Positive*%
%FSLAX46Y46*%
G04 Gerber Fmt 4.6, Leading zero omitted, Abs format (unit mm)*
G04 Created by KiCad (PCBNEW (6.0.2)) date 2022-02-23 01:17:56*
%MOMM*%
%LPD*%
G01*
G04 APERTURE LIST*
%ADD10C,0.200000*%
%ADD11C,0.150000*%
%ADD12C,0.250000*%
%ADD13C,0.300000*%
%ADD14C,0.010000*%
%ADD15C,2.499360*%
G04 APERTURE END LIST*
D10*
X145098828Y-110129535D02*
X145098828Y-111479535D01*
X145613114Y-111479535D01*
X145741685Y-111415250D01*
X145805971Y-111350964D01*
X145870257Y-111222392D01*
X145870257Y-111029535D01*
X145805971Y-110900964D01*
X145741685Y-110836678D01*
X145613114Y-110772392D01*
X145098828Y-110772392D01*
X146641685Y-110129535D02*
X146513114Y-110193821D01*
X146448828Y-110258107D01*
X146384542Y-110386678D01*
X146384542Y-110772392D01*
X146448828Y-110900964D01*
X146513114Y-110965250D01*
X146641685Y-111029535D01*
X146834542Y-111029535D01*
X146963114Y-110965250D01*
X147027400Y-110900964D01*
X147091685Y-110772392D01*
X147091685Y-110386678D01*
X147027400Y-110258107D01*
X146963114Y-110193821D01*
X146834542Y-110129535D01*
X146641685Y-110129535D01*
X148248828Y-110193821D02*
X148120257Y-110129535D01*
X147863114Y-110129535D01*
X147734542Y-110193821D01*
X147670257Y-110258107D01*
X147605971Y-110386678D01*
X147605971Y-110772392D01*
X147670257Y-110900964D01*
X147734542Y-110965250D01*
X147863114Y-111029535D01*
X148120257Y-111029535D01*
X148248828Y-110965250D01*
X148827400Y-110129535D02*
X148827400Y-111479535D01*
X148955971Y-110643821D02*
X149341685Y-110129535D01*
X149341685Y-111029535D02*
X148827400Y-110515250D01*
X150434542Y-110193821D02*
X150305971Y-110129535D01*
X150048828Y-110129535D01*
X149920257Y-110193821D01*
X149855971Y-110322392D01*
X149855971Y-110836678D01*
X149920257Y-110965250D01*
X150048828Y-111029535D01*
X150305971Y-111029535D01*
X150434542Y-110965250D01*
X150498828Y-110836678D01*
X150498828Y-110708107D01*
X149855971Y-110579535D01*
X150884542Y-111029535D02*
X151398828Y-111029535D01*
X151077400Y-111479535D02*
X151077400Y-110322392D01*
X151141685Y-110193821D01*
X151270257Y-110129535D01*
X151398828Y-110129535D01*
X153134542Y-111479535D02*
X153391685Y-111479535D01*
X153520257Y-111415250D01*
X153648828Y-111286678D01*
X153713114Y-111029535D01*
X153713114Y-110579535D01*
X153648828Y-110322392D01*
X153520257Y-110193821D01*
X153391685Y-110129535D01*
X153134542Y-110129535D01*
X153005971Y-110193821D01*
X152877400Y-110322392D01*
X152813114Y-110579535D01*
X152813114Y-111029535D01*
X152877400Y-111286678D01*
X153005971Y-111415250D01*
X153134542Y-111479535D01*
X154291685Y-111029535D02*
X154291685Y-109679535D01*
X154291685Y-110965250D02*
X154420257Y-111029535D01*
X154677400Y-111029535D01*
X154805971Y-110965250D01*
X154870257Y-110900964D01*
X154934542Y-110772392D01*
X154934542Y-110386678D01*
X154870257Y-110258107D01*
X154805971Y-110193821D01*
X154677400Y-110129535D01*
X154420257Y-110129535D01*
X154291685Y-110193821D01*
X156027400Y-110193821D02*
X155898828Y-110129535D01*
X155641685Y-110129535D01*
X155513114Y-110193821D01*
X155448828Y-110322392D01*
X155448828Y-110836678D01*
X155513114Y-110965250D01*
X155641685Y-111029535D01*
X155898828Y-111029535D01*
X156027400Y-110965250D01*
X156091685Y-110836678D01*
X156091685Y-110708107D01*
X155448828Y-110579535D01*
X156670257Y-110129535D02*
X156670257Y-111029535D01*
X156670257Y-110772392D02*
X156734542Y-110900964D01*
X156798828Y-110965250D01*
X156927400Y-111029535D01*
X157055971Y-111029535D01*
X158084542Y-110129535D02*
X158084542Y-110836678D01*
X158020257Y-110965250D01*
X157891685Y-111029535D01*
X157634542Y-111029535D01*
X157505971Y-110965250D01*
X158084542Y-110193821D02*
X157955971Y-110129535D01*
X157634542Y-110129535D01*
X157505971Y-110193821D01*
X157441685Y-110322392D01*
X157441685Y-110450964D01*
X157505971Y-110579535D01*
X157634542Y-110643821D01*
X157955971Y-110643821D01*
X158084542Y-110708107D01*
X158534542Y-111029535D02*
X159048828Y-111029535D01*
X158727400Y-111479535D02*
X158727400Y-110322392D01*
X158791685Y-110193821D01*
X158920257Y-110129535D01*
X159048828Y-110129535D01*
X159691685Y-110129535D02*
X159563114Y-110193821D01*
X159498828Y-110258107D01*
X159434542Y-110386678D01*
X159434542Y-110772392D01*
X159498828Y-110900964D01*
X159563114Y-110965250D01*
X159691685Y-111029535D01*
X159884542Y-111029535D01*
X160013114Y-110965250D01*
X160077400Y-110900964D01*
X160141685Y-110772392D01*
X160141685Y-110386678D01*
X160077400Y-110258107D01*
X160013114Y-110193821D01*
X159884542Y-110129535D01*
X159691685Y-110129535D01*
X160720257Y-110129535D02*
X160720257Y-111029535D01*
X160720257Y-110772392D02*
X160784542Y-110900964D01*
X160848828Y-110965250D01*
X160977400Y-111029535D01*
X161105971Y-111029535D01*
X162584542Y-110129535D02*
X162584542Y-111479535D01*
X163034542Y-110515250D01*
X163484542Y-111479535D01*
X163484542Y-110129535D01*
X164127400Y-110129535D02*
X164127400Y-111029535D01*
X164127400Y-111479535D02*
X164063114Y-111415250D01*
X164127400Y-111350964D01*
X164191685Y-111415250D01*
X164127400Y-111479535D01*
X164127400Y-111350964D01*
X165348828Y-110129535D02*
X165348828Y-111479535D01*
X165348828Y-110193821D02*
X165220257Y-110129535D01*
X164963114Y-110129535D01*
X164834542Y-110193821D01*
X164770257Y-110258107D01*
X164705971Y-110386678D01*
X164705971Y-110772392D01*
X164770257Y-110900964D01*
X164834542Y-110965250D01*
X164963114Y-111029535D01*
X165220257Y-111029535D01*
X165348828Y-110965250D01*
X165991685Y-110129535D02*
X165991685Y-111029535D01*
X165991685Y-111479535D02*
X165927400Y-111415250D01*
X165991685Y-111350964D01*
X166055971Y-111415250D01*
X165991685Y-111479535D01*
X165991685Y-111350964D01*
X167598828Y-110515250D02*
X168241685Y-110515250D01*
X167470257Y-110129535D02*
X167920257Y-111479535D01*
X168370257Y-110129535D01*
X169398828Y-110129535D02*
X169398828Y-111479535D01*
X169398828Y-110193821D02*
X169270257Y-110129535D01*
X169013114Y-110129535D01*
X168884542Y-110193821D01*
X168820257Y-110258107D01*
X168755971Y-110386678D01*
X168755971Y-110772392D01*
X168820257Y-110900964D01*
X168884542Y-110965250D01*
X169013114Y-111029535D01*
X169270257Y-111029535D01*
X169398828Y-110965250D01*
X170620257Y-110129535D02*
X170620257Y-110836678D01*
X170555971Y-110965250D01*
X170427400Y-111029535D01*
X170170257Y-111029535D01*
X170041685Y-110965250D01*
X170620257Y-110193821D02*
X170491685Y-110129535D01*
X170170257Y-110129535D01*
X170041685Y-110193821D01*
X169977400Y-110322392D01*
X169977400Y-110450964D01*
X170041685Y-110579535D01*
X170170257Y-110643821D01*
X170491685Y-110643821D01*
X170620257Y-110708107D01*
X171263114Y-111029535D02*
X171263114Y-109679535D01*
X171263114Y-110965250D02*
X171391685Y-111029535D01*
X171648828Y-111029535D01*
X171777400Y-110965250D01*
X171841685Y-110900964D01*
X171905971Y-110772392D01*
X171905971Y-110386678D01*
X171841685Y-110258107D01*
X171777400Y-110193821D01*
X171648828Y-110129535D01*
X171391685Y-110129535D01*
X171263114Y-110193821D01*
X172291685Y-111029535D02*
X172805971Y-111029535D01*
X172484542Y-111479535D02*
X172484542Y-110322392D01*
X172548828Y-110193821D01*
X172677400Y-110129535D01*
X172805971Y-110129535D01*
X173770257Y-110193821D02*
X173641685Y-110129535D01*
X173384542Y-110129535D01*
X173255971Y-110193821D01*
X173191685Y-110322392D01*
X173191685Y-110836678D01*
X173255971Y-110965250D01*
X173384542Y-111029535D01*
X173641685Y-111029535D01*
X173770257Y-110965250D01*
X173834542Y-110836678D01*
X173834542Y-110708107D01*
X173191685Y-110579535D01*
X174413114Y-110129535D02*
X174413114Y-111029535D01*
X174413114Y-110772392D02*
X174477400Y-110900964D01*
X174541685Y-110965250D01*
X174670257Y-111029535D01*
X174798828Y-111029535D01*
X150820257Y-107956035D02*
X150820257Y-109306035D01*
X150820257Y-108663178D02*
X151591685Y-108663178D01*
X151591685Y-107956035D02*
X151591685Y-109306035D01*
X152813114Y-107956035D02*
X152813114Y-108663178D01*
X152748828Y-108791750D01*
X152620257Y-108856035D01*
X152363114Y-108856035D01*
X152234542Y-108791750D01*
X152813114Y-108020321D02*
X152684542Y-107956035D01*
X152363114Y-107956035D01*
X152234542Y-108020321D01*
X152170257Y-108148892D01*
X152170257Y-108277464D01*
X152234542Y-108406035D01*
X152363114Y-108470321D01*
X152684542Y-108470321D01*
X152813114Y-108534607D01*
X153455971Y-108856035D02*
X153455971Y-107956035D01*
X153455971Y-108727464D02*
X153520257Y-108791750D01*
X153648828Y-108856035D01*
X153841685Y-108856035D01*
X153970257Y-108791750D01*
X154034542Y-108663178D01*
X154034542Y-107956035D01*
X154548828Y-108856035D02*
X155255971Y-108856035D01*
X154548828Y-107956035D01*
X155255971Y-107956035D01*
X156605971Y-109306035D02*
X157377400Y-109306035D01*
X156991685Y-107956035D02*
X156991685Y-109306035D01*
X158341685Y-108020321D02*
X158213114Y-107956035D01*
X157955971Y-107956035D01*
X157827400Y-108020321D01*
X157763114Y-108148892D01*
X157763114Y-108663178D01*
X157827400Y-108791750D01*
X157955971Y-108856035D01*
X158213114Y-108856035D01*
X158341685Y-108791750D01*
X158405971Y-108663178D01*
X158405971Y-108534607D01*
X157763114Y-108406035D01*
X159563114Y-108020321D02*
X159434542Y-107956035D01*
X159177400Y-107956035D01*
X159048828Y-108020321D01*
X158984542Y-108084607D01*
X158920257Y-108213178D01*
X158920257Y-108598892D01*
X158984542Y-108727464D01*
X159048828Y-108791750D01*
X159177400Y-108856035D01*
X159434542Y-108856035D01*
X159563114Y-108791750D01*
X160141685Y-107956035D02*
X160141685Y-109306035D01*
X160720257Y-107956035D02*
X160720257Y-108663178D01*
X160655971Y-108791750D01*
X160527400Y-108856035D01*
X160334542Y-108856035D01*
X160205971Y-108791750D01*
X160141685Y-108727464D01*
X162391685Y-107956035D02*
X162391685Y-109306035D01*
X163034542Y-108856035D02*
X163034542Y-107956035D01*
X163034542Y-108727464D02*
X163098828Y-108791750D01*
X163227400Y-108856035D01*
X163420257Y-108856035D01*
X163548828Y-108791750D01*
X163613114Y-108663178D01*
X163613114Y-107956035D01*
X164834542Y-108020321D02*
X164705971Y-107956035D01*
X164448828Y-107956035D01*
X164320257Y-108020321D01*
X164255971Y-108084607D01*
X164191685Y-108213178D01*
X164191685Y-108598892D01*
X164255971Y-108727464D01*
X164320257Y-108791750D01*
X164448828Y-108856035D01*
X164705971Y-108856035D01*
X164834542Y-108791750D01*
X166377400Y-109177464D02*
X166441685Y-109241750D01*
X166570257Y-109306035D01*
X166891685Y-109306035D01*
X167020257Y-109241750D01*
X167084542Y-109177464D01*
X167148828Y-109048892D01*
X167148828Y-108920321D01*
X167084542Y-108727464D01*
X166313114Y-107956035D01*
X167148828Y-107956035D01*
X167984542Y-109306035D02*
X168113114Y-109306035D01*
X168241685Y-109241750D01*
X168305971Y-109177464D01*
X168370257Y-109048892D01*
X168434542Y-108791750D01*
X168434542Y-108470321D01*
X168370257Y-108213178D01*
X168305971Y-108084607D01*
X168241685Y-108020321D01*
X168113114Y-107956035D01*
X167984542Y-107956035D01*
X167855971Y-108020321D01*
X167791685Y-108084607D01*
X167727400Y-108213178D01*
X167663114Y-108470321D01*
X167663114Y-108791750D01*
X167727400Y-109048892D01*
X167791685Y-109177464D01*
X167855971Y-109241750D01*
X167984542Y-109306035D01*
X168948828Y-109177464D02*
X169013114Y-109241750D01*
X169141685Y-109306035D01*
X169463114Y-109306035D01*
X169591685Y-109241750D01*
X169655971Y-109177464D01*
X169720257Y-109048892D01*
X169720257Y-108920321D01*
X169655971Y-108727464D01*
X168884542Y-107956035D01*
X169720257Y-107956035D01*
X171005971Y-107956035D02*
X170234542Y-107956035D01*
X170620257Y-107956035D02*
X170620257Y-109306035D01*
X170491685Y-109113178D01*
X170363114Y-108984607D01*
X170234542Y-108920321D01*
D11*
X157228590Y-107432619D02*
X157561923Y-106432619D01*
X157895257Y-107432619D01*
X158133352Y-107432619D02*
X158752400Y-107432619D01*
X158419066Y-107051666D01*
X158561923Y-107051666D01*
X158657161Y-107004047D01*
X158704780Y-106956428D01*
X158752400Y-106861190D01*
X158752400Y-106623095D01*
X158704780Y-106527857D01*
X158657161Y-106480238D01*
X158561923Y-106432619D01*
X158276209Y-106432619D01*
X158180971Y-106480238D01*
X158133352Y-106527857D01*
X159180971Y-106527857D02*
X159228590Y-106480238D01*
X159180971Y-106432619D01*
X159133352Y-106480238D01*
X159180971Y-106527857D01*
X159180971Y-106432619D01*
X159609542Y-107337380D02*
X159657161Y-107385000D01*
X159752400Y-107432619D01*
X159990495Y-107432619D01*
X160085733Y-107385000D01*
X160133352Y-107337380D01*
X160180971Y-107242142D01*
X160180971Y-107146904D01*
X160133352Y-107004047D01*
X159561923Y-106432619D01*
X160180971Y-106432619D01*
D12*
X118204780Y-77432380D02*
X119014304Y-77432380D01*
X119109542Y-77480000D01*
X119157161Y-77527619D01*
X119204780Y-77622857D01*
X119204780Y-77813333D01*
X119157161Y-77908571D01*
X119109542Y-77956190D01*
X119014304Y-78003809D01*
X118204780Y-78003809D01*
X119157161Y-78432380D02*
X119204780Y-78575238D01*
X119204780Y-78813333D01*
X119157161Y-78908571D01*
X119109542Y-78956190D01*
X119014304Y-79003809D01*
X118919066Y-79003809D01*
X118823828Y-78956190D01*
X118776209Y-78908571D01*
X118728590Y-78813333D01*
X118680971Y-78622857D01*
X118633352Y-78527619D01*
X118585733Y-78480000D01*
X118490495Y-78432380D01*
X118395257Y-78432380D01*
X118300019Y-78480000D01*
X118252400Y-78527619D01*
X118204780Y-78622857D01*
X118204780Y-78860952D01*
X118252400Y-79003809D01*
X118680971Y-79765714D02*
X118728590Y-79908571D01*
X118776209Y-79956190D01*
X118871447Y-80003809D01*
X119014304Y-80003809D01*
X119109542Y-79956190D01*
X119157161Y-79908571D01*
X119204780Y-79813333D01*
X119204780Y-79432380D01*
X118204780Y-79432380D01*
X118204780Y-79765714D01*
X118252400Y-79860952D01*
X118300019Y-79908571D01*
X118395257Y-79956190D01*
X118490495Y-79956190D01*
X118585733Y-79908571D01*
X118633352Y-79860952D01*
X118680971Y-79765714D01*
X118680971Y-79432380D01*
X119204780Y-81194285D02*
X118204780Y-81194285D01*
X118680971Y-81194285D02*
X118680971Y-81765714D01*
X119204780Y-81765714D02*
X118204780Y-81765714D01*
X118204780Y-82432380D02*
X118204780Y-82622857D01*
X118252400Y-82718095D01*
X118347638Y-82813333D01*
X118538114Y-82860952D01*
X118871447Y-82860952D01*
X119061923Y-82813333D01*
X119157161Y-82718095D01*
X119204780Y-82622857D01*
X119204780Y-82432380D01*
X119157161Y-82337142D01*
X119061923Y-82241904D01*
X118871447Y-82194285D01*
X118538114Y-82194285D01*
X118347638Y-82241904D01*
X118252400Y-82337142D01*
X118204780Y-82432380D01*
X119157161Y-83241904D02*
X119204780Y-83384761D01*
X119204780Y-83622857D01*
X119157161Y-83718095D01*
X119109542Y-83765714D01*
X119014304Y-83813333D01*
X118919066Y-83813333D01*
X118823828Y-83765714D01*
X118776209Y-83718095D01*
X118728590Y-83622857D01*
X118680971Y-83432380D01*
X118633352Y-83337142D01*
X118585733Y-83289523D01*
X118490495Y-83241904D01*
X118395257Y-83241904D01*
X118300019Y-83289523D01*
X118252400Y-83337142D01*
X118204780Y-83432380D01*
X118204780Y-83670476D01*
X118252400Y-83813333D01*
X118204780Y-84099047D02*
X118204780Y-84670476D01*
X119204780Y-84384761D02*
X118204780Y-84384761D01*
D13*
X134973828Y-94851428D02*
X133902400Y-94851428D01*
X133688114Y-94780000D01*
X133545257Y-94637142D01*
X133473828Y-94422857D01*
X133473828Y-94280000D01*
X133473828Y-96280000D02*
X133473828Y-95565714D01*
X134973828Y-95565714D01*
X133616685Y-97637142D02*
X133545257Y-97565714D01*
X133473828Y-97351428D01*
X133473828Y-97208571D01*
X133545257Y-96994285D01*
X133688114Y-96851428D01*
X133830971Y-96780000D01*
X134116685Y-96708571D01*
X134330971Y-96708571D01*
X134616685Y-96780000D01*
X134759542Y-96851428D01*
X134902400Y-96994285D01*
X134973828Y-97208571D01*
X134973828Y-97351428D01*
X134902400Y-97565714D01*
X134830971Y-97637142D01*
X134973828Y-98708571D02*
X133902400Y-98708571D01*
X133688114Y-98637142D01*
X133545257Y-98494285D01*
X133473828Y-98280000D01*
X133473828Y-98137142D01*
X133473828Y-100137142D02*
X133473828Y-99422857D01*
X134973828Y-99422857D01*
X133616685Y-101494285D02*
X133545257Y-101422857D01*
X133473828Y-101208571D01*
X133473828Y-101065714D01*
X133545257Y-100851428D01*
X133688114Y-100708571D01*
X133830971Y-100637142D01*
X134116685Y-100565714D01*
X134330971Y-100565714D01*
X134616685Y-100637142D01*
X134759542Y-100708571D01*
X134902400Y-100851428D01*
X134973828Y-101065714D01*
X134973828Y-101208571D01*
X134902400Y-101422857D01*
X134830971Y-101494285D01*
X134973828Y-102565714D02*
X133902400Y-102565714D01*
X133688114Y-102494285D01*
X133545257Y-102351428D01*
X133473828Y-102137142D01*
X133473828Y-101994285D01*
X133473828Y-103994285D02*
X133473828Y-103280000D01*
X134973828Y-103280000D01*
X133616685Y-105351428D02*
X133545257Y-105280000D01*
X133473828Y-105065714D01*
X133473828Y-104922857D01*
X133545257Y-104708571D01*
X133688114Y-104565714D01*
X133830971Y-104494285D01*
X134116685Y-104422857D01*
X134330971Y-104422857D01*
X134616685Y-104494285D01*
X134759542Y-104565714D01*
X134902400Y-104708571D01*
X134973828Y-104922857D01*
X134973828Y-105065714D01*
X134902400Y-105280000D01*
X134830971Y-105351428D01*
X134973828Y-106422857D02*
X133902400Y-106422857D01*
X133688114Y-106351428D01*
X133545257Y-106208571D01*
X133473828Y-105994285D01*
X133473828Y-105851428D01*
X133473828Y-107851428D02*
X133473828Y-107137142D01*
X134973828Y-107137142D01*
X133616685Y-109208571D02*
X133545257Y-109137142D01*
X133473828Y-108922857D01*
X133473828Y-108780000D01*
X133545257Y-108565714D01*
X133688114Y-108422857D01*
X133830971Y-108351428D01*
X134116685Y-108280000D01*
X134330971Y-108280000D01*
X134616685Y-108351428D01*
X134759542Y-108422857D01*
X134902400Y-108565714D01*
X134973828Y-108780000D01*
X134973828Y-108922857D01*
X134902400Y-109137142D01*
X134830971Y-109208571D01*
X181230971Y-71258571D02*
X181230971Y-69758571D01*
X180730971Y-70830000D01*
X180230971Y-69758571D01*
X180230971Y-71258571D01*
X179516685Y-71258571D02*
X179516685Y-69758571D01*
X178802400Y-71258571D02*
X178802400Y-69758571D01*
X178445257Y-69758571D01*
X178230971Y-69830000D01*
X178088114Y-69972857D01*
X178016685Y-70115714D01*
X177945257Y-70401428D01*
X177945257Y-70615714D01*
X178016685Y-70901428D01*
X178088114Y-71044285D01*
X178230971Y-71187142D01*
X178445257Y-71258571D01*
X178802400Y-71258571D01*
X177302400Y-71258571D02*
X177302400Y-69758571D01*
X175159542Y-69758571D02*
X174873828Y-69758571D01*
X174730971Y-69830000D01*
X174588114Y-69972857D01*
X174516685Y-70258571D01*
X174516685Y-70758571D01*
X174588114Y-71044285D01*
X174730971Y-71187142D01*
X174873828Y-71258571D01*
X175159542Y-71258571D01*
X175302400Y-71187142D01*
X175445257Y-71044285D01*
X175516685Y-70758571D01*
X175516685Y-70258571D01*
X175445257Y-69972857D01*
X175302400Y-69830000D01*
X175159542Y-69758571D01*
X173873828Y-69758571D02*
X173873828Y-70972857D01*
X173802400Y-71115714D01*
X173730971Y-71187142D01*
X173588114Y-71258571D01*
X173302400Y-71258571D01*
X173159542Y-71187142D01*
X173088114Y-71115714D01*
X173016685Y-70972857D01*
X173016685Y-69758571D01*
X172516685Y-69758571D02*
X171659542Y-69758571D01*
X172088114Y-71258571D02*
X172088114Y-69758571D01*
X182673828Y-127587142D02*
X182459542Y-127658571D01*
X182102400Y-127658571D01*
X181959542Y-127587142D01*
X181888114Y-127515714D01*
X181816685Y-127372857D01*
X181816685Y-127230000D01*
X181888114Y-127087142D01*
X181959542Y-127015714D01*
X182102400Y-126944285D01*
X182388114Y-126872857D01*
X182530971Y-126801428D01*
X182602400Y-126730000D01*
X182673828Y-126587142D01*
X182673828Y-126444285D01*
X182602400Y-126301428D01*
X182530971Y-126230000D01*
X182388114Y-126158571D01*
X182030971Y-126158571D01*
X181816685Y-126230000D01*
X180888114Y-126944285D02*
X180888114Y-127658571D01*
X181388114Y-126158571D02*
X180888114Y-126944285D01*
X180388114Y-126158571D01*
X179888114Y-127658571D02*
X179888114Y-126158571D01*
X179030971Y-127658571D01*
X179030971Y-126158571D01*
X177459542Y-127515714D02*
X177530971Y-127587142D01*
X177745257Y-127658571D01*
X177888114Y-127658571D01*
X178102400Y-127587142D01*
X178245257Y-127444285D01*
X178316685Y-127301428D01*
X178388114Y-127015714D01*
X178388114Y-126801428D01*
X178316685Y-126515714D01*
X178245257Y-126372857D01*
X178102400Y-126230000D01*
X177888114Y-126158571D01*
X177745257Y-126158571D01*
X177530971Y-126230000D01*
X177459542Y-126301428D01*
X175388114Y-126158571D02*
X175102400Y-126158571D01*
X174959542Y-126230000D01*
X174816685Y-126372857D01*
X174745257Y-126658571D01*
X174745257Y-127158571D01*
X174816685Y-127444285D01*
X174959542Y-127587142D01*
X175102400Y-127658571D01*
X175388114Y-127658571D01*
X175530971Y-127587142D01*
X175673828Y-127444285D01*
X175745257Y-127158571D01*
X175745257Y-126658571D01*
X175673828Y-126372857D01*
X175530971Y-126230000D01*
X175388114Y-126158571D01*
X174102400Y-126158571D02*
X174102400Y-127372857D01*
X174030971Y-127515714D01*
X173959542Y-127587142D01*
X173816685Y-127658571D01*
X173530971Y-127658571D01*
X173388114Y-127587142D01*
X173316685Y-127515714D01*
X173245257Y-127372857D01*
X173245257Y-126158571D01*
X172745257Y-126158571D02*
X171888114Y-126158571D01*
X172316685Y-127658571D02*
X172316685Y-126158571D01*
X158230971Y-71458571D02*
X158230971Y-69958571D01*
X157730971Y-71030000D01*
X157230971Y-69958571D01*
X157230971Y-71458571D01*
X156516685Y-71458571D02*
X156516685Y-69958571D01*
X155802400Y-71458571D02*
X155802400Y-69958571D01*
X155445257Y-69958571D01*
X155230971Y-70030000D01*
X155088114Y-70172857D01*
X155016685Y-70315714D01*
X154945257Y-70601428D01*
X154945257Y-70815714D01*
X155016685Y-71101428D01*
X155088114Y-71244285D01*
X155230971Y-71387142D01*
X155445257Y-71458571D01*
X155802400Y-71458571D01*
X154302400Y-71458571D02*
X154302400Y-69958571D01*
X152445257Y-71458571D02*
X152445257Y-69958571D01*
X151730971Y-71458571D02*
X151730971Y-69958571D01*
X150873828Y-71458571D01*
X150873828Y-69958571D01*
D14*
%TO.C,G\u002A\u002A\u002A*%
X157135930Y-101474417D02*
X157170602Y-101421500D01*
X157170602Y-101421500D02*
X157906409Y-101421500D01*
X157906409Y-101421500D02*
X158104913Y-101421312D01*
X158104913Y-101421312D02*
X158265271Y-101420624D01*
X158265271Y-101420624D02*
X158391668Y-101419254D01*
X158391668Y-101419254D02*
X158488290Y-101417016D01*
X158488290Y-101417016D02*
X158559322Y-101413728D01*
X158559322Y-101413728D02*
X158608950Y-101409206D01*
X158608950Y-101409206D02*
X158641360Y-101403266D01*
X158641360Y-101403266D02*
X158660738Y-101395724D01*
X158660738Y-101395724D02*
X158670039Y-101387976D01*
X158670039Y-101387976D02*
X158686427Y-101347277D01*
X158686427Y-101347277D02*
X158675623Y-101319184D01*
X158675623Y-101319184D02*
X158666248Y-101309728D01*
X158666248Y-101309728D02*
X158648464Y-101302028D01*
X158648464Y-101302028D02*
X158618094Y-101295862D01*
X158618094Y-101295862D02*
X158570958Y-101291005D01*
X158570958Y-101291005D02*
X158502878Y-101287235D01*
X158502878Y-101287235D02*
X158409675Y-101284328D01*
X158409675Y-101284328D02*
X158287172Y-101282061D01*
X158287172Y-101282061D02*
X158131189Y-101280210D01*
X158131189Y-101280210D02*
X157937548Y-101278552D01*
X157937548Y-101278552D02*
X157911817Y-101278357D01*
X157911817Y-101278357D02*
X157170250Y-101272797D01*
X157170250Y-101272797D02*
X157135754Y-101220149D01*
X157135754Y-101220149D02*
X157101257Y-101167500D01*
X157101257Y-101167500D02*
X155727376Y-101167500D01*
X155727376Y-101167500D02*
X155692703Y-101220417D01*
X155692703Y-101220417D02*
X155658031Y-101273333D01*
X155658031Y-101273333D02*
X154921144Y-101273333D01*
X154921144Y-101273333D02*
X154721984Y-101273532D01*
X154721984Y-101273532D02*
X154560958Y-101274249D01*
X154560958Y-101274249D02*
X154433866Y-101275665D01*
X154433866Y-101275665D02*
X154336510Y-101277962D01*
X154336510Y-101277962D02*
X154264691Y-101281320D01*
X154264691Y-101281320D02*
X154214209Y-101285920D01*
X154214209Y-101285920D02*
X154180868Y-101291945D01*
X154180868Y-101291945D02*
X154160467Y-101299574D01*
X154160467Y-101299574D02*
X154151037Y-101306553D01*
X154151037Y-101306553D02*
X154129394Y-101344901D01*
X154129394Y-101344901D02*
X154139687Y-101380637D01*
X154139687Y-101380637D02*
X154147127Y-101391478D01*
X154147127Y-101391478D02*
X154159465Y-101400213D01*
X154159465Y-101400213D02*
X154180946Y-101407069D01*
X154180946Y-101407069D02*
X154215813Y-101412272D01*
X154215813Y-101412272D02*
X154268312Y-101416050D01*
X154268312Y-101416050D02*
X154342688Y-101418629D01*
X154342688Y-101418629D02*
X154443185Y-101420236D01*
X154443185Y-101420236D02*
X154574047Y-101421099D01*
X154574047Y-101421099D02*
X154739520Y-101421444D01*
X154739520Y-101421444D02*
X154903890Y-101421500D01*
X154903890Y-101421500D02*
X155646224Y-101421500D01*
X155646224Y-101421500D02*
X155687848Y-101474417D01*
X155687848Y-101474417D02*
X155729472Y-101527333D01*
X155729472Y-101527333D02*
X157101257Y-101527333D01*
X157101257Y-101527333D02*
X157135930Y-101474417D01*
X157135930Y-101474417D02*
X157135930Y-101474417D01*
G36*
X157135754Y-101220149D02*
G01*
X157170250Y-101272797D01*
X157911817Y-101278357D01*
X157937548Y-101278552D01*
X158131189Y-101280210D01*
X158287172Y-101282061D01*
X158409675Y-101284328D01*
X158502878Y-101287235D01*
X158570958Y-101291005D01*
X158618094Y-101295862D01*
X158648464Y-101302028D01*
X158666248Y-101309728D01*
X158675623Y-101319184D01*
X158686427Y-101347277D01*
X158670039Y-101387976D01*
X158660738Y-101395724D01*
X158641360Y-101403266D01*
X158608950Y-101409206D01*
X158559322Y-101413728D01*
X158488290Y-101417016D01*
X158391668Y-101419254D01*
X158265271Y-101420624D01*
X158104913Y-101421312D01*
X157906409Y-101421500D01*
X157170602Y-101421500D01*
X157135930Y-101474417D01*
X157101257Y-101527333D01*
X155729472Y-101527333D01*
X155687848Y-101474417D01*
X155646224Y-101421500D01*
X154903890Y-101421500D01*
X154739520Y-101421444D01*
X154574047Y-101421099D01*
X154443185Y-101420236D01*
X154342688Y-101418629D01*
X154268312Y-101416050D01*
X154215813Y-101412272D01*
X154180946Y-101407069D01*
X154159465Y-101400213D01*
X154147127Y-101391478D01*
X154139687Y-101380637D01*
X154129394Y-101344901D01*
X154151037Y-101306553D01*
X154160467Y-101299574D01*
X154180868Y-101291945D01*
X154214209Y-101285920D01*
X154264691Y-101281320D01*
X154336510Y-101277962D01*
X154433866Y-101275665D01*
X154560958Y-101274249D01*
X154721984Y-101273532D01*
X154921144Y-101273333D01*
X155658031Y-101273333D01*
X155692703Y-101220417D01*
X155727376Y-101167500D01*
X157101257Y-101167500D01*
X157135754Y-101220149D01*
G37*
X157135754Y-101220149D02*
X157170250Y-101272797D01*
X157911817Y-101278357D01*
X157937548Y-101278552D01*
X158131189Y-101280210D01*
X158287172Y-101282061D01*
X158409675Y-101284328D01*
X158502878Y-101287235D01*
X158570958Y-101291005D01*
X158618094Y-101295862D01*
X158648464Y-101302028D01*
X158666248Y-101309728D01*
X158675623Y-101319184D01*
X158686427Y-101347277D01*
X158670039Y-101387976D01*
X158660738Y-101395724D01*
X158641360Y-101403266D01*
X158608950Y-101409206D01*
X158559322Y-101413728D01*
X158488290Y-101417016D01*
X158391668Y-101419254D01*
X158265271Y-101420624D01*
X158104913Y-101421312D01*
X157906409Y-101421500D01*
X157170602Y-101421500D01*
X157135930Y-101474417D01*
X157101257Y-101527333D01*
X155729472Y-101527333D01*
X155687848Y-101474417D01*
X155646224Y-101421500D01*
X154903890Y-101421500D01*
X154739520Y-101421444D01*
X154574047Y-101421099D01*
X154443185Y-101420236D01*
X154342688Y-101418629D01*
X154268312Y-101416050D01*
X154215813Y-101412272D01*
X154180946Y-101407069D01*
X154159465Y-101400213D01*
X154147127Y-101391478D01*
X154139687Y-101380637D01*
X154129394Y-101344901D01*
X154151037Y-101306553D01*
X154160467Y-101299574D01*
X154180868Y-101291945D01*
X154214209Y-101285920D01*
X154264691Y-101281320D01*
X154336510Y-101277962D01*
X154433866Y-101275665D01*
X154560958Y-101274249D01*
X154721984Y-101273532D01*
X154921144Y-101273333D01*
X155658031Y-101273333D01*
X155692703Y-101220417D01*
X155727376Y-101167500D01*
X157101257Y-101167500D01*
X157135754Y-101220149D01*
X161524494Y-101476091D02*
X161565663Y-101405398D01*
X161565663Y-101405398D02*
X161573224Y-101326178D01*
X161573224Y-101326178D02*
X161547602Y-101252139D01*
X161547602Y-101252139D02*
X161516420Y-101215853D01*
X161516420Y-101215853D02*
X161499910Y-101202364D01*
X161499910Y-101202364D02*
X161482054Y-101191651D01*
X161482054Y-101191651D02*
X161458108Y-101183393D01*
X161458108Y-101183393D02*
X161423324Y-101177271D01*
X161423324Y-101177271D02*
X161372958Y-101172966D01*
X161372958Y-101172966D02*
X161302262Y-101170158D01*
X161302262Y-101170158D02*
X161206492Y-101168527D01*
X161206492Y-101168527D02*
X161080901Y-101167753D01*
X161080901Y-101167753D02*
X160920743Y-101167517D01*
X160920743Y-101167517D02*
X160798627Y-101167500D01*
X160798627Y-101167500D02*
X160613566Y-101167607D01*
X160613566Y-101167607D02*
X160466153Y-101168116D01*
X160466153Y-101168116D02*
X160351705Y-101169313D01*
X160351705Y-101169313D02*
X160265535Y-101171480D01*
X160265535Y-101171480D02*
X160202961Y-101174903D01*
X160202961Y-101174903D02*
X160159297Y-101179865D01*
X160159297Y-101179865D02*
X160129858Y-101186651D01*
X160129858Y-101186651D02*
X160109961Y-101195544D01*
X160109961Y-101195544D02*
X160094921Y-101206828D01*
X160094921Y-101206828D02*
X160090981Y-101210419D01*
X160090981Y-101210419D02*
X160051851Y-101260682D01*
X160051851Y-101260682D02*
X160031675Y-101306080D01*
X160031675Y-101306080D02*
X160031298Y-101371145D01*
X160031298Y-101371145D02*
X160053708Y-101440136D01*
X160053708Y-101440136D02*
X160091505Y-101493926D01*
X160091505Y-101493926D02*
X160109411Y-101506976D01*
X160109411Y-101506976D02*
X160140430Y-101512386D01*
X160140430Y-101512386D02*
X160209200Y-101517163D01*
X160209200Y-101517163D02*
X160311144Y-101521176D01*
X160311144Y-101521176D02*
X160441683Y-101524292D01*
X160441683Y-101524292D02*
X160596240Y-101526377D01*
X160596240Y-101526377D02*
X160770235Y-101527300D01*
X160770235Y-101527300D02*
X160811902Y-101527333D01*
X160811902Y-101527333D02*
X161476354Y-101527333D01*
X161476354Y-101527333D02*
X161524494Y-101476091D01*
X161524494Y-101476091D02*
X161524494Y-101476091D01*
G36*
X160920743Y-101167517D02*
G01*
X161080901Y-101167753D01*
X161206492Y-101168527D01*
X161302262Y-101170158D01*
X161372958Y-101172966D01*
X161423324Y-101177271D01*
X161458108Y-101183393D01*
X161482054Y-101191651D01*
X161499910Y-101202364D01*
X161516420Y-101215853D01*
X161547602Y-101252139D01*
X161573224Y-101326178D01*
X161565663Y-101405398D01*
X161524494Y-101476091D01*
X161476354Y-101527333D01*
X160811902Y-101527333D01*
X160770235Y-101527300D01*
X160596240Y-101526377D01*
X160441683Y-101524292D01*
X160311144Y-101521176D01*
X160209200Y-101517163D01*
X160140430Y-101512386D01*
X160109411Y-101506976D01*
X160091505Y-101493926D01*
X160053708Y-101440136D01*
X160031298Y-101371145D01*
X160031675Y-101306080D01*
X160051851Y-101260682D01*
X160090981Y-101210419D01*
X160094921Y-101206828D01*
X160109961Y-101195544D01*
X160129858Y-101186651D01*
X160159297Y-101179865D01*
X160202961Y-101174903D01*
X160265535Y-101171480D01*
X160351705Y-101169313D01*
X160466153Y-101168116D01*
X160613566Y-101167607D01*
X160798627Y-101167500D01*
X160920743Y-101167517D01*
G37*
X160920743Y-101167517D02*
X161080901Y-101167753D01*
X161206492Y-101168527D01*
X161302262Y-101170158D01*
X161372958Y-101172966D01*
X161423324Y-101177271D01*
X161458108Y-101183393D01*
X161482054Y-101191651D01*
X161499910Y-101202364D01*
X161516420Y-101215853D01*
X161547602Y-101252139D01*
X161573224Y-101326178D01*
X161565663Y-101405398D01*
X161524494Y-101476091D01*
X161476354Y-101527333D01*
X160811902Y-101527333D01*
X160770235Y-101527300D01*
X160596240Y-101526377D01*
X160441683Y-101524292D01*
X160311144Y-101521176D01*
X160209200Y-101517163D01*
X160140430Y-101512386D01*
X160109411Y-101506976D01*
X160091505Y-101493926D01*
X160053708Y-101440136D01*
X160031298Y-101371145D01*
X160031675Y-101306080D01*
X160051851Y-101260682D01*
X160090981Y-101210419D01*
X160094921Y-101206828D01*
X160109961Y-101195544D01*
X160129858Y-101186651D01*
X160159297Y-101179865D01*
X160202961Y-101174903D01*
X160265535Y-101171480D01*
X160351705Y-101169313D01*
X160466153Y-101168116D01*
X160613566Y-101167607D01*
X160798627Y-101167500D01*
X160920743Y-101167517D01*
X156565622Y-101971410D02*
X156716553Y-101970212D01*
X156716553Y-101970212D02*
X156849326Y-101968346D01*
X156849326Y-101968346D02*
X156958475Y-101965918D01*
X156958475Y-101965918D02*
X157038533Y-101963035D01*
X157038533Y-101963035D02*
X157084032Y-101959805D01*
X157084032Y-101959805D02*
X157091540Y-101958363D01*
X157091540Y-101958363D02*
X157125935Y-101929222D01*
X157125935Y-101929222D02*
X157145664Y-101894863D01*
X157145664Y-101894863D02*
X157164685Y-101844833D01*
X157164685Y-101844833D02*
X157915377Y-101844833D01*
X157915377Y-101844833D02*
X158134462Y-101844230D01*
X158134462Y-101844230D02*
X158318733Y-101842446D01*
X158318733Y-101842446D02*
X158466726Y-101839523D01*
X158466726Y-101839523D02*
X158576975Y-101835502D01*
X158576975Y-101835502D02*
X158648019Y-101830423D01*
X158648019Y-101830423D02*
X158678391Y-101824328D01*
X158678391Y-101824328D02*
X158679267Y-101823477D01*
X158679267Y-101823477D02*
X158684321Y-101787526D01*
X158684321Y-101787526D02*
X158679090Y-101759977D01*
X158679090Y-101759977D02*
X158674260Y-101748801D01*
X158674260Y-101748801D02*
X158664804Y-101739798D01*
X158664804Y-101739798D02*
X158646519Y-101732732D01*
X158646519Y-101732732D02*
X158615203Y-101727371D01*
X158615203Y-101727371D02*
X158566654Y-101723477D01*
X158566654Y-101723477D02*
X158496668Y-101720819D01*
X158496668Y-101720819D02*
X158401045Y-101719159D01*
X158401045Y-101719159D02*
X158275581Y-101718265D01*
X158275581Y-101718265D02*
X158116075Y-101717901D01*
X158116075Y-101717901D02*
X157924216Y-101717833D01*
X157924216Y-101717833D02*
X157182718Y-101717833D01*
X157182718Y-101717833D02*
X157064082Y-101590833D01*
X157064082Y-101590833D02*
X155764551Y-101590833D01*
X155764551Y-101590833D02*
X155645915Y-101717833D01*
X155645915Y-101717833D02*
X154903736Y-101717833D01*
X154903736Y-101717833D02*
X154706113Y-101717963D01*
X154706113Y-101717963D02*
X154546624Y-101718488D01*
X154546624Y-101718488D02*
X154421070Y-101719613D01*
X154421070Y-101719613D02*
X154325251Y-101721541D01*
X154325251Y-101721541D02*
X154254968Y-101724478D01*
X154254968Y-101724478D02*
X154206023Y-101728628D01*
X154206023Y-101728628D02*
X154174215Y-101734194D01*
X154174215Y-101734194D02*
X154155345Y-101741382D01*
X154155345Y-101741382D02*
X154145215Y-101750396D01*
X154145215Y-101750396D02*
X154142505Y-101754875D01*
X154142505Y-101754875D02*
X154131655Y-101777825D01*
X154131655Y-101777825D02*
X154127548Y-101796497D01*
X154127548Y-101796497D02*
X154133911Y-101811333D01*
X154133911Y-101811333D02*
X154154471Y-101822773D01*
X154154471Y-101822773D02*
X154192956Y-101831259D01*
X154192956Y-101831259D02*
X154253091Y-101837232D01*
X154253091Y-101837232D02*
X154338605Y-101841133D01*
X154338605Y-101841133D02*
X154453223Y-101843402D01*
X154453223Y-101843402D02*
X154600674Y-101844481D01*
X154600674Y-101844481D02*
X154784683Y-101844811D01*
X154784683Y-101844811D02*
X154902664Y-101844833D01*
X154902664Y-101844833D02*
X155124686Y-101845418D01*
X155124686Y-101845418D02*
X155309997Y-101847150D01*
X155309997Y-101847150D02*
X155457508Y-101850000D01*
X155457508Y-101850000D02*
X155566132Y-101853937D01*
X155566132Y-101853937D02*
X155634781Y-101858932D01*
X155634781Y-101858932D02*
X155662369Y-101864953D01*
X155662369Y-101864953D02*
X155662900Y-101866000D01*
X155662900Y-101866000D02*
X155676562Y-101895201D01*
X155676562Y-101895201D02*
X155705233Y-101929500D01*
X155705233Y-101929500D02*
X155718863Y-101941394D01*
X155718863Y-101941394D02*
X155736436Y-101950827D01*
X155736436Y-101950827D02*
X155762639Y-101958082D01*
X155762639Y-101958082D02*
X155802158Y-101963444D01*
X155802158Y-101963444D02*
X155859678Y-101967198D01*
X155859678Y-101967198D02*
X155939886Y-101969629D01*
X155939886Y-101969629D02*
X156047469Y-101971022D01*
X156047469Y-101971022D02*
X156187111Y-101971661D01*
X156187111Y-101971661D02*
X156363500Y-101971831D01*
X156363500Y-101971831D02*
X156402002Y-101971833D01*
X156402002Y-101971833D02*
X156565622Y-101971410D01*
X156565622Y-101971410D02*
X156565622Y-101971410D01*
G36*
X157182718Y-101717833D02*
G01*
X157924216Y-101717833D01*
X158116075Y-101717901D01*
X158275581Y-101718265D01*
X158401045Y-101719159D01*
X158496668Y-101720819D01*
X158566654Y-101723477D01*
X158615203Y-101727371D01*
X158646519Y-101732732D01*
X158664804Y-101739798D01*
X158674260Y-101748801D01*
X158679090Y-101759977D01*
X158684321Y-101787526D01*
X158679267Y-101823477D01*
X158678391Y-101824328D01*
X158648019Y-101830423D01*
X158576975Y-101835502D01*
X158466726Y-101839523D01*
X158318733Y-101842446D01*
X158134462Y-101844230D01*
X157915377Y-101844833D01*
X157164685Y-101844833D01*
X157145664Y-101894863D01*
X157125935Y-101929222D01*
X157091540Y-101958363D01*
X157084032Y-101959805D01*
X157038533Y-101963035D01*
X156958475Y-101965918D01*
X156849326Y-101968346D01*
X156716553Y-101970212D01*
X156565622Y-101971410D01*
X156402002Y-101971833D01*
X156363500Y-101971831D01*
X156187111Y-101971661D01*
X156047469Y-101971022D01*
X155939886Y-101969629D01*
X155859678Y-101967198D01*
X155802158Y-101963444D01*
X155762639Y-101958082D01*
X155736436Y-101950827D01*
X155718863Y-101941394D01*
X155705233Y-101929500D01*
X155676562Y-101895201D01*
X155662900Y-101866000D01*
X155662369Y-101864953D01*
X155634781Y-101858932D01*
X155566132Y-101853937D01*
X155457508Y-101850000D01*
X155309997Y-101847150D01*
X155124686Y-101845418D01*
X154902664Y-101844833D01*
X154784683Y-101844811D01*
X154600674Y-101844481D01*
X154453223Y-101843402D01*
X154338605Y-101841133D01*
X154253091Y-101837232D01*
X154192956Y-101831259D01*
X154154471Y-101822773D01*
X154133911Y-101811333D01*
X154127548Y-101796497D01*
X154131655Y-101777825D01*
X154142505Y-101754875D01*
X154145215Y-101750396D01*
X154155345Y-101741382D01*
X154174215Y-101734194D01*
X154206023Y-101728628D01*
X154254968Y-101724478D01*
X154325251Y-101721541D01*
X154421070Y-101719613D01*
X154546624Y-101718488D01*
X154706113Y-101717963D01*
X154903736Y-101717833D01*
X155645915Y-101717833D01*
X155764551Y-101590833D01*
X157064082Y-101590833D01*
X157182718Y-101717833D01*
G37*
X157182718Y-101717833D02*
X157924216Y-101717833D01*
X158116075Y-101717901D01*
X158275581Y-101718265D01*
X158401045Y-101719159D01*
X158496668Y-101720819D01*
X158566654Y-101723477D01*
X158615203Y-101727371D01*
X158646519Y-101732732D01*
X158664804Y-101739798D01*
X158674260Y-101748801D01*
X158679090Y-101759977D01*
X158684321Y-101787526D01*
X158679267Y-101823477D01*
X158678391Y-101824328D01*
X158648019Y-101830423D01*
X158576975Y-101835502D01*
X158466726Y-101839523D01*
X158318733Y-101842446D01*
X158134462Y-101844230D01*
X157915377Y-101844833D01*
X157164685Y-101844833D01*
X157145664Y-101894863D01*
X157125935Y-101929222D01*
X157091540Y-101958363D01*
X157084032Y-101959805D01*
X157038533Y-101963035D01*
X156958475Y-101965918D01*
X156849326Y-101968346D01*
X156716553Y-101970212D01*
X156565622Y-101971410D01*
X156402002Y-101971833D01*
X156363500Y-101971831D01*
X156187111Y-101971661D01*
X156047469Y-101971022D01*
X155939886Y-101969629D01*
X155859678Y-101967198D01*
X155802158Y-101963444D01*
X155762639Y-101958082D01*
X155736436Y-101950827D01*
X155718863Y-101941394D01*
X155705233Y-101929500D01*
X155676562Y-101895201D01*
X155662900Y-101866000D01*
X155662369Y-101864953D01*
X155634781Y-101858932D01*
X155566132Y-101853937D01*
X155457508Y-101850000D01*
X155309997Y-101847150D01*
X155124686Y-101845418D01*
X154902664Y-101844833D01*
X154784683Y-101844811D01*
X154600674Y-101844481D01*
X154453223Y-101843402D01*
X154338605Y-101841133D01*
X154253091Y-101837232D01*
X154192956Y-101831259D01*
X154154471Y-101822773D01*
X154133911Y-101811333D01*
X154127548Y-101796497D01*
X154131655Y-101777825D01*
X154142505Y-101754875D01*
X154145215Y-101750396D01*
X154155345Y-101741382D01*
X154174215Y-101734194D01*
X154206023Y-101728628D01*
X154254968Y-101724478D01*
X154325251Y-101721541D01*
X154421070Y-101719613D01*
X154546624Y-101718488D01*
X154706113Y-101717963D01*
X154903736Y-101717833D01*
X155645915Y-101717833D01*
X155764551Y-101590833D01*
X157064082Y-101590833D01*
X157182718Y-101717833D01*
X160989404Y-101971538D02*
X161140839Y-101970517D01*
X161140839Y-101970517D02*
X161258791Y-101968572D01*
X161258791Y-101968572D02*
X161347684Y-101965505D01*
X161347684Y-101965505D02*
X161411941Y-101961116D01*
X161411941Y-101961116D02*
X161455986Y-101955205D01*
X161455986Y-101955205D02*
X161484243Y-101947574D01*
X161484243Y-101947574D02*
X161498004Y-101940414D01*
X161498004Y-101940414D02*
X161548915Y-101882325D01*
X161548915Y-101882325D02*
X161571272Y-101808175D01*
X161571272Y-101808175D02*
X161565630Y-101730772D01*
X161565630Y-101730772D02*
X161532546Y-101662928D01*
X161532546Y-101662928D02*
X161484248Y-101622850D01*
X161484248Y-101622850D02*
X161444343Y-101613315D01*
X161444343Y-101613315D02*
X161368888Y-101605284D01*
X161368888Y-101605284D02*
X161264638Y-101598781D01*
X161264638Y-101598781D02*
X161138350Y-101593831D01*
X161138350Y-101593831D02*
X160996780Y-101590456D01*
X160996780Y-101590456D02*
X160846685Y-101588682D01*
X160846685Y-101588682D02*
X160694822Y-101588532D01*
X160694822Y-101588532D02*
X160547946Y-101590031D01*
X160547946Y-101590031D02*
X160412815Y-101593202D01*
X160412815Y-101593202D02*
X160296185Y-101598070D01*
X160296185Y-101598070D02*
X160204811Y-101604659D01*
X160204811Y-101604659D02*
X160145452Y-101612992D01*
X160145452Y-101612992D02*
X160129484Y-101618021D01*
X160129484Y-101618021D02*
X160063504Y-101671818D01*
X160063504Y-101671818D02*
X160030859Y-101743069D01*
X160030859Y-101743069D02*
X160033154Y-101821199D01*
X160033154Y-101821199D02*
X160071998Y-101895634D01*
X160071998Y-101895634D02*
X160085105Y-101909962D01*
X160085105Y-101909962D02*
X160146977Y-101971833D01*
X160146977Y-101971833D02*
X160800062Y-101971833D01*
X160800062Y-101971833D02*
X160989404Y-101971538D01*
X160989404Y-101971538D02*
X160989404Y-101971538D01*
G36*
X160846685Y-101588682D02*
G01*
X160996780Y-101590456D01*
X161138350Y-101593831D01*
X161264638Y-101598781D01*
X161368888Y-101605284D01*
X161444343Y-101613315D01*
X161484248Y-101622850D01*
X161532546Y-101662928D01*
X161565630Y-101730772D01*
X161571272Y-101808175D01*
X161548915Y-101882325D01*
X161498004Y-101940414D01*
X161484243Y-101947574D01*
X161455986Y-101955205D01*
X161411941Y-101961116D01*
X161347684Y-101965505D01*
X161258791Y-101968572D01*
X161140839Y-101970517D01*
X160989404Y-101971538D01*
X160800062Y-101971833D01*
X160146977Y-101971833D01*
X160085105Y-101909962D01*
X160071998Y-101895634D01*
X160033154Y-101821199D01*
X160030859Y-101743069D01*
X160063504Y-101671818D01*
X160129484Y-101618021D01*
X160145452Y-101612992D01*
X160204811Y-101604659D01*
X160296185Y-101598070D01*
X160412815Y-101593202D01*
X160547946Y-101590031D01*
X160694822Y-101588532D01*
X160846685Y-101588682D01*
G37*
X160846685Y-101588682D02*
X160996780Y-101590456D01*
X161138350Y-101593831D01*
X161264638Y-101598781D01*
X161368888Y-101605284D01*
X161444343Y-101613315D01*
X161484248Y-101622850D01*
X161532546Y-101662928D01*
X161565630Y-101730772D01*
X161571272Y-101808175D01*
X161548915Y-101882325D01*
X161498004Y-101940414D01*
X161484243Y-101947574D01*
X161455986Y-101955205D01*
X161411941Y-101961116D01*
X161347684Y-101965505D01*
X161258791Y-101968572D01*
X161140839Y-101970517D01*
X160989404Y-101971538D01*
X160800062Y-101971833D01*
X160146977Y-101971833D01*
X160085105Y-101909962D01*
X160071998Y-101895634D01*
X160033154Y-101821199D01*
X160030859Y-101743069D01*
X160063504Y-101671818D01*
X160129484Y-101618021D01*
X160145452Y-101612992D01*
X160204811Y-101604659D01*
X160296185Y-101598070D01*
X160412815Y-101593202D01*
X160547946Y-101590031D01*
X160694822Y-101588532D01*
X160846685Y-101588682D01*
X157182718Y-102289333D02*
X157924216Y-102289333D01*
X157924216Y-102289333D02*
X158120876Y-102289261D01*
X158120876Y-102289261D02*
X158279406Y-102288886D01*
X158279406Y-102288886D02*
X158404006Y-102287974D01*
X158404006Y-102287974D02*
X158498881Y-102286291D01*
X158498881Y-102286291D02*
X158568231Y-102283601D01*
X158568231Y-102283601D02*
X158616259Y-102279672D01*
X158616259Y-102279672D02*
X158647167Y-102274267D01*
X158647167Y-102274267D02*
X158665157Y-102267152D01*
X158665157Y-102267152D02*
X158674433Y-102258093D01*
X158674433Y-102258093D02*
X158679090Y-102247190D01*
X158679090Y-102247190D02*
X158684367Y-102203156D01*
X158684367Y-102203156D02*
X158679267Y-102183690D01*
X158679267Y-102183690D02*
X158654199Y-102177466D01*
X158654199Y-102177466D02*
X158588276Y-102172254D01*
X158588276Y-102172254D02*
X158482961Y-102168095D01*
X158482961Y-102168095D02*
X158339722Y-102165029D01*
X158339722Y-102165029D02*
X158160024Y-102163098D01*
X158160024Y-102163098D02*
X157945333Y-102162343D01*
X157945333Y-102162343D02*
X157915901Y-102162333D01*
X157915901Y-102162333D02*
X157695610Y-102161742D01*
X157695610Y-102161742D02*
X157511967Y-102159987D01*
X157511967Y-102159987D02*
X157366080Y-102157101D01*
X157366080Y-102157101D02*
X157259057Y-102153114D01*
X157259057Y-102153114D02*
X157192007Y-102148058D01*
X157192007Y-102148058D02*
X157166036Y-102141965D01*
X157166036Y-102141965D02*
X157165733Y-102141167D01*
X157165733Y-102141167D02*
X157152071Y-102111966D01*
X157152071Y-102111966D02*
X157123400Y-102077667D01*
X157123400Y-102077667D02*
X157109897Y-102065872D01*
X157109897Y-102065872D02*
X157092489Y-102056496D01*
X157092489Y-102056496D02*
X157066539Y-102049263D01*
X157066539Y-102049263D02*
X157027410Y-102043894D01*
X157027410Y-102043894D02*
X156970464Y-102040114D01*
X156970464Y-102040114D02*
X156891064Y-102037645D01*
X156891064Y-102037645D02*
X156784573Y-102036211D01*
X156784573Y-102036211D02*
X156646354Y-102035535D01*
X156646354Y-102035535D02*
X156471769Y-102035340D01*
X156471769Y-102035340D02*
X156414317Y-102035333D01*
X156414317Y-102035333D02*
X156228443Y-102035442D01*
X156228443Y-102035442D02*
X156080265Y-102035952D01*
X156080265Y-102035952D02*
X155965146Y-102037140D01*
X155965146Y-102037140D02*
X155878448Y-102039284D01*
X155878448Y-102039284D02*
X155815535Y-102042659D01*
X155815535Y-102042659D02*
X155771768Y-102047544D01*
X155771768Y-102047544D02*
X155742512Y-102054214D01*
X155742512Y-102054214D02*
X155723128Y-102062947D01*
X155723128Y-102062947D02*
X155708979Y-102074019D01*
X155708979Y-102074019D02*
X155705233Y-102077667D01*
X155705233Y-102077667D02*
X155674156Y-102115575D01*
X155674156Y-102115575D02*
X155662900Y-102141167D01*
X155662900Y-102141167D02*
X155641920Y-102147350D01*
X155641920Y-102147350D02*
X155579708Y-102152511D01*
X155579708Y-102152511D02*
X155477350Y-102156618D01*
X155477350Y-102156618D02*
X155335937Y-102159642D01*
X155335937Y-102159642D02*
X155156555Y-102161553D01*
X155156555Y-102161553D02*
X154940294Y-102162319D01*
X154940294Y-102162319D02*
X154903164Y-102162333D01*
X154903164Y-102162333D02*
X154702327Y-102162487D01*
X154702327Y-102162487D02*
X154539754Y-102163069D01*
X154539754Y-102163069D02*
X154411374Y-102164261D01*
X154411374Y-102164261D02*
X154313121Y-102166243D01*
X154313121Y-102166243D02*
X154240923Y-102169197D01*
X154240923Y-102169197D02*
X154190713Y-102173304D01*
X154190713Y-102173304D02*
X154158420Y-102178746D01*
X154158420Y-102178746D02*
X154139977Y-102185704D01*
X154139977Y-102185704D02*
X154131314Y-102194359D01*
X154131314Y-102194359D02*
X154130216Y-102196766D01*
X154130216Y-102196766D02*
X154122796Y-102220239D01*
X154122796Y-102220239D02*
X154122822Y-102239373D01*
X154122822Y-102239373D02*
X154134033Y-102254610D01*
X154134033Y-102254610D02*
X154160169Y-102266392D01*
X154160169Y-102266392D02*
X154204969Y-102275163D01*
X154204969Y-102275163D02*
X154272173Y-102281364D01*
X154272173Y-102281364D02*
X154365519Y-102285438D01*
X154365519Y-102285438D02*
X154488747Y-102287826D01*
X154488747Y-102287826D02*
X154645597Y-102288973D01*
X154645597Y-102288973D02*
X154839807Y-102289319D01*
X154839807Y-102289319D02*
X154912649Y-102289333D01*
X154912649Y-102289333D02*
X155110093Y-102289393D01*
X155110093Y-102289393D02*
X155269393Y-102289732D01*
X155269393Y-102289732D02*
X155394738Y-102290591D01*
X155394738Y-102290591D02*
X155490319Y-102292207D01*
X155490319Y-102292207D02*
X155560324Y-102294823D01*
X155560324Y-102294823D02*
X155608943Y-102298676D01*
X155608943Y-102298676D02*
X155640366Y-102304007D01*
X155640366Y-102304007D02*
X155658781Y-102311055D01*
X155658781Y-102311055D02*
X155668378Y-102320060D01*
X155668378Y-102320060D02*
X155673347Y-102331262D01*
X155673347Y-102331262D02*
X155673868Y-102332879D01*
X155673868Y-102332879D02*
X155703283Y-102373389D01*
X155703283Y-102373389D02*
X155740172Y-102396379D01*
X155740172Y-102396379D02*
X155774105Y-102401420D01*
X155774105Y-102401420D02*
X155844616Y-102405993D01*
X155844616Y-102405993D02*
X155945947Y-102409931D01*
X155945947Y-102409931D02*
X156072346Y-102413068D01*
X156072346Y-102413068D02*
X156218056Y-102415236D01*
X156218056Y-102415236D02*
X156377321Y-102416270D01*
X156377321Y-102416270D02*
X156428369Y-102416333D01*
X156428369Y-102416333D02*
X157064082Y-102416333D01*
X157064082Y-102416333D02*
X157182718Y-102289333D01*
X157182718Y-102289333D02*
X157182718Y-102289333D01*
G36*
X156471769Y-102035340D02*
G01*
X156646354Y-102035535D01*
X156784573Y-102036211D01*
X156891064Y-102037645D01*
X156970464Y-102040114D01*
X157027410Y-102043894D01*
X157066539Y-102049263D01*
X157092489Y-102056496D01*
X157109897Y-102065872D01*
X157123400Y-102077667D01*
X157152071Y-102111966D01*
X157165733Y-102141167D01*
X157166036Y-102141965D01*
X157192007Y-102148058D01*
X157259057Y-102153114D01*
X157366080Y-102157101D01*
X157511967Y-102159987D01*
X157695610Y-102161742D01*
X157915901Y-102162333D01*
X157945333Y-102162343D01*
X158160024Y-102163098D01*
X158339722Y-102165029D01*
X158482961Y-102168095D01*
X158588276Y-102172254D01*
X158654199Y-102177466D01*
X158679267Y-102183690D01*
X158684367Y-102203156D01*
X158679090Y-102247190D01*
X158674433Y-102258093D01*
X158665157Y-102267152D01*
X158647167Y-102274267D01*
X158616259Y-102279672D01*
X158568231Y-102283601D01*
X158498881Y-102286291D01*
X158404006Y-102287974D01*
X158279406Y-102288886D01*
X158120876Y-102289261D01*
X157924216Y-102289333D01*
X157182718Y-102289333D01*
X157064082Y-102416333D01*
X156428369Y-102416333D01*
X156377321Y-102416270D01*
X156218056Y-102415236D01*
X156072346Y-102413068D01*
X155945947Y-102409931D01*
X155844616Y-102405993D01*
X155774105Y-102401420D01*
X155740172Y-102396379D01*
X155703283Y-102373389D01*
X155673868Y-102332879D01*
X155673347Y-102331262D01*
X155668378Y-102320060D01*
X155658781Y-102311055D01*
X155640366Y-102304007D01*
X155608943Y-102298676D01*
X155560324Y-102294823D01*
X155490319Y-102292207D01*
X155394738Y-102290591D01*
X155269393Y-102289732D01*
X155110093Y-102289393D01*
X154912649Y-102289333D01*
X154839807Y-102289319D01*
X154645597Y-102288973D01*
X154488747Y-102287826D01*
X154365519Y-102285438D01*
X154272173Y-102281364D01*
X154204969Y-102275163D01*
X154160169Y-102266392D01*
X154134033Y-102254610D01*
X154122822Y-102239373D01*
X154122796Y-102220239D01*
X154130216Y-102196766D01*
X154131314Y-102194359D01*
X154139977Y-102185704D01*
X154158420Y-102178746D01*
X154190713Y-102173304D01*
X154240923Y-102169197D01*
X154313121Y-102166243D01*
X154411374Y-102164261D01*
X154539754Y-102163069D01*
X154702327Y-102162487D01*
X154903164Y-102162333D01*
X154940294Y-102162319D01*
X155156555Y-102161553D01*
X155335937Y-102159642D01*
X155477350Y-102156618D01*
X155579708Y-102152511D01*
X155641920Y-102147350D01*
X155662900Y-102141167D01*
X155674156Y-102115575D01*
X155705233Y-102077667D01*
X155708979Y-102074019D01*
X155723128Y-102062947D01*
X155742512Y-102054214D01*
X155771768Y-102047544D01*
X155815535Y-102042659D01*
X155878448Y-102039284D01*
X155965146Y-102037140D01*
X156080265Y-102035952D01*
X156228443Y-102035442D01*
X156414317Y-102035333D01*
X156471769Y-102035340D01*
G37*
X156471769Y-102035340D02*
X156646354Y-102035535D01*
X156784573Y-102036211D01*
X156891064Y-102037645D01*
X156970464Y-102040114D01*
X157027410Y-102043894D01*
X157066539Y-102049263D01*
X157092489Y-102056496D01*
X157109897Y-102065872D01*
X157123400Y-102077667D01*
X157152071Y-102111966D01*
X157165733Y-102141167D01*
X157166036Y-102141965D01*
X157192007Y-102148058D01*
X157259057Y-102153114D01*
X157366080Y-102157101D01*
X157511967Y-102159987D01*
X157695610Y-102161742D01*
X157915901Y-102162333D01*
X157945333Y-102162343D01*
X158160024Y-102163098D01*
X158339722Y-102165029D01*
X158482961Y-102168095D01*
X158588276Y-102172254D01*
X158654199Y-102177466D01*
X158679267Y-102183690D01*
X158684367Y-102203156D01*
X158679090Y-102247190D01*
X158674433Y-102258093D01*
X158665157Y-102267152D01*
X158647167Y-102274267D01*
X158616259Y-102279672D01*
X158568231Y-102283601D01*
X158498881Y-102286291D01*
X158404006Y-102287974D01*
X158279406Y-102288886D01*
X158120876Y-102289261D01*
X157924216Y-102289333D01*
X157182718Y-102289333D01*
X157064082Y-102416333D01*
X156428369Y-102416333D01*
X156377321Y-102416270D01*
X156218056Y-102415236D01*
X156072346Y-102413068D01*
X155945947Y-102409931D01*
X155844616Y-102405993D01*
X155774105Y-102401420D01*
X155740172Y-102396379D01*
X155703283Y-102373389D01*
X155673868Y-102332879D01*
X155673347Y-102331262D01*
X155668378Y-102320060D01*
X155658781Y-102311055D01*
X155640366Y-102304007D01*
X155608943Y-102298676D01*
X155560324Y-102294823D01*
X155490319Y-102292207D01*
X155394738Y-102290591D01*
X155269393Y-102289732D01*
X155110093Y-102289393D01*
X154912649Y-102289333D01*
X154839807Y-102289319D01*
X154645597Y-102288973D01*
X154488747Y-102287826D01*
X154365519Y-102285438D01*
X154272173Y-102281364D01*
X154204969Y-102275163D01*
X154160169Y-102266392D01*
X154134033Y-102254610D01*
X154122822Y-102239373D01*
X154122796Y-102220239D01*
X154130216Y-102196766D01*
X154131314Y-102194359D01*
X154139977Y-102185704D01*
X154158420Y-102178746D01*
X154190713Y-102173304D01*
X154240923Y-102169197D01*
X154313121Y-102166243D01*
X154411374Y-102164261D01*
X154539754Y-102163069D01*
X154702327Y-102162487D01*
X154903164Y-102162333D01*
X154940294Y-102162319D01*
X155156555Y-102161553D01*
X155335937Y-102159642D01*
X155477350Y-102156618D01*
X155579708Y-102152511D01*
X155641920Y-102147350D01*
X155662900Y-102141167D01*
X155674156Y-102115575D01*
X155705233Y-102077667D01*
X155708979Y-102074019D01*
X155723128Y-102062947D01*
X155742512Y-102054214D01*
X155771768Y-102047544D01*
X155815535Y-102042659D01*
X155878448Y-102039284D01*
X155965146Y-102037140D01*
X156080265Y-102035952D01*
X156228443Y-102035442D01*
X156414317Y-102035333D01*
X156471769Y-102035340D01*
X161227808Y-102413144D02*
X161316314Y-102410975D01*
X161316314Y-102410975D02*
X161381416Y-102407219D01*
X161381416Y-102407219D02*
X161427845Y-102401698D01*
X161427845Y-102401698D02*
X161460330Y-102394233D01*
X161460330Y-102394233D02*
X161482555Y-102385193D01*
X161482555Y-102385193D02*
X161539991Y-102333559D01*
X161539991Y-102333559D02*
X161570102Y-102259410D01*
X161570102Y-102259410D02*
X161568244Y-102175975D01*
X161568244Y-102175975D02*
X161562755Y-102156711D01*
X161562755Y-102156711D02*
X161550697Y-102124130D01*
X161550697Y-102124130D02*
X161536057Y-102097972D01*
X161536057Y-102097972D02*
X161514406Y-102077532D01*
X161514406Y-102077532D02*
X161481313Y-102062105D01*
X161481313Y-102062105D02*
X161432348Y-102050985D01*
X161432348Y-102050985D02*
X161363083Y-102043469D01*
X161363083Y-102043469D02*
X161269087Y-102038851D01*
X161269087Y-102038851D02*
X161145930Y-102036425D01*
X161145930Y-102036425D02*
X160989184Y-102035488D01*
X160989184Y-102035488D02*
X160800062Y-102035333D01*
X160800062Y-102035333D02*
X160146977Y-102035333D01*
X160146977Y-102035333D02*
X160082495Y-102099815D01*
X160082495Y-102099815D02*
X160041223Y-102147584D01*
X160041223Y-102147584D02*
X160026651Y-102190046D01*
X160026651Y-102190046D02*
X160030529Y-102241425D01*
X160030529Y-102241425D02*
X160051075Y-102306327D01*
X160051075Y-102306327D02*
X160084017Y-102359440D01*
X160084017Y-102359440D02*
X160086615Y-102362151D01*
X160086615Y-102362151D02*
X160100621Y-102374500D01*
X160100621Y-102374500D02*
X160118380Y-102384337D01*
X160118380Y-102384337D02*
X160144626Y-102392005D01*
X160144626Y-102392005D02*
X160184098Y-102397845D01*
X160184098Y-102397845D02*
X160241531Y-102402202D01*
X160241531Y-102402202D02*
X160321663Y-102405416D01*
X160321663Y-102405416D02*
X160429230Y-102407833D01*
X160429230Y-102407833D02*
X160568969Y-102409792D01*
X160568969Y-102409792D02*
X160745618Y-102411639D01*
X160745618Y-102411639D02*
X160774567Y-102411917D01*
X160774567Y-102411917D02*
X160961665Y-102413437D01*
X160961665Y-102413437D02*
X161111168Y-102413906D01*
X161111168Y-102413906D02*
X161227808Y-102413144D01*
X161227808Y-102413144D02*
X161227808Y-102413144D01*
G36*
X160989184Y-102035488D02*
G01*
X161145930Y-102036425D01*
X161269087Y-102038851D01*
X161363083Y-102043469D01*
X161432348Y-102050985D01*
X161481313Y-102062105D01*
X161514406Y-102077532D01*
X161536057Y-102097972D01*
X161550697Y-102124130D01*
X161562755Y-102156711D01*
X161568244Y-102175975D01*
X161570102Y-102259410D01*
X161539991Y-102333559D01*
X161482555Y-102385193D01*
X161460330Y-102394233D01*
X161427845Y-102401698D01*
X161381416Y-102407219D01*
X161316314Y-102410975D01*
X161227808Y-102413144D01*
X161111168Y-102413906D01*
X160961665Y-102413437D01*
X160774567Y-102411917D01*
X160745618Y-102411639D01*
X160568969Y-102409792D01*
X160429230Y-102407833D01*
X160321663Y-102405416D01*
X160241531Y-102402202D01*
X160184098Y-102397845D01*
X160144626Y-102392005D01*
X160118380Y-102384337D01*
X160100621Y-102374500D01*
X160086615Y-102362151D01*
X160084017Y-102359440D01*
X160051075Y-102306327D01*
X160030529Y-102241425D01*
X160026651Y-102190046D01*
X160041223Y-102147584D01*
X160082495Y-102099815D01*
X160146977Y-102035333D01*
X160800062Y-102035333D01*
X160989184Y-102035488D01*
G37*
X160989184Y-102035488D02*
X161145930Y-102036425D01*
X161269087Y-102038851D01*
X161363083Y-102043469D01*
X161432348Y-102050985D01*
X161481313Y-102062105D01*
X161514406Y-102077532D01*
X161536057Y-102097972D01*
X161550697Y-102124130D01*
X161562755Y-102156711D01*
X161568244Y-102175975D01*
X161570102Y-102259410D01*
X161539991Y-102333559D01*
X161482555Y-102385193D01*
X161460330Y-102394233D01*
X161427845Y-102401698D01*
X161381416Y-102407219D01*
X161316314Y-102410975D01*
X161227808Y-102413144D01*
X161111168Y-102413906D01*
X160961665Y-102413437D01*
X160774567Y-102411917D01*
X160745618Y-102411639D01*
X160568969Y-102409792D01*
X160429230Y-102407833D01*
X160321663Y-102405416D01*
X160241531Y-102402202D01*
X160184098Y-102397845D01*
X160144626Y-102392005D01*
X160118380Y-102384337D01*
X160100621Y-102374500D01*
X160086615Y-102362151D01*
X160084017Y-102359440D01*
X160051075Y-102306327D01*
X160030529Y-102241425D01*
X160026651Y-102190046D01*
X160041223Y-102147584D01*
X160082495Y-102099815D01*
X160146977Y-102035333D01*
X160800062Y-102035333D01*
X160989184Y-102035488D01*
X157135930Y-102786750D02*
X157170602Y-102733833D01*
X157170602Y-102733833D02*
X157906409Y-102733833D01*
X157906409Y-102733833D02*
X158104913Y-102733645D01*
X158104913Y-102733645D02*
X158265271Y-102732958D01*
X158265271Y-102732958D02*
X158391668Y-102731587D01*
X158391668Y-102731587D02*
X158488290Y-102729349D01*
X158488290Y-102729349D02*
X158559322Y-102726062D01*
X158559322Y-102726062D02*
X158608950Y-102721539D01*
X158608950Y-102721539D02*
X158641360Y-102715599D01*
X158641360Y-102715599D02*
X158660738Y-102708057D01*
X158660738Y-102708057D02*
X158670039Y-102700309D01*
X158670039Y-102700309D02*
X158686427Y-102659610D01*
X158686427Y-102659610D02*
X158675623Y-102631518D01*
X158675623Y-102631518D02*
X158666248Y-102622061D01*
X158666248Y-102622061D02*
X158648464Y-102614362D01*
X158648464Y-102614362D02*
X158618094Y-102608195D01*
X158618094Y-102608195D02*
X158570958Y-102603339D01*
X158570958Y-102603339D02*
X158502878Y-102599568D01*
X158502878Y-102599568D02*
X158409675Y-102596661D01*
X158409675Y-102596661D02*
X158287172Y-102594394D01*
X158287172Y-102594394D02*
X158131189Y-102592543D01*
X158131189Y-102592543D02*
X157937548Y-102590885D01*
X157937548Y-102590885D02*
X157911817Y-102590690D01*
X157911817Y-102590690D02*
X157170250Y-102585130D01*
X157170250Y-102585130D02*
X157135754Y-102532482D01*
X157135754Y-102532482D02*
X157101257Y-102479833D01*
X157101257Y-102479833D02*
X155727376Y-102479833D01*
X155727376Y-102479833D02*
X155692703Y-102532750D01*
X155692703Y-102532750D02*
X155658031Y-102585667D01*
X155658031Y-102585667D02*
X154909794Y-102585667D01*
X154909794Y-102585667D02*
X154711940Y-102585756D01*
X154711940Y-102585756D02*
X154552192Y-102586172D01*
X154552192Y-102586172D02*
X154426324Y-102587141D01*
X154426324Y-102587141D02*
X154330108Y-102588885D01*
X154330108Y-102588885D02*
X154259318Y-102591630D01*
X154259318Y-102591630D02*
X154209726Y-102595600D01*
X154209726Y-102595600D02*
X154177105Y-102601018D01*
X154177105Y-102601018D02*
X154157230Y-102608110D01*
X154157230Y-102608110D02*
X154145871Y-102617099D01*
X154145871Y-102617099D02*
X154139687Y-102626530D01*
X154139687Y-102626530D02*
X154130451Y-102669162D01*
X154130451Y-102669162D02*
X154151037Y-102700614D01*
X154151037Y-102700614D02*
X154164414Y-102709583D01*
X154164414Y-102709583D02*
X154187542Y-102716810D01*
X154187542Y-102716810D02*
X154224620Y-102722476D01*
X154224620Y-102722476D02*
X154279847Y-102726761D01*
X154279847Y-102726761D02*
X154357422Y-102729847D01*
X154357422Y-102729847D02*
X154461542Y-102731916D01*
X154461542Y-102731916D02*
X154596408Y-102733147D01*
X154596408Y-102733147D02*
X154766217Y-102733723D01*
X154766217Y-102733723D02*
X154921144Y-102733833D01*
X154921144Y-102733833D02*
X155658031Y-102733833D01*
X155658031Y-102733833D02*
X155692703Y-102786750D01*
X155692703Y-102786750D02*
X155727376Y-102839667D01*
X155727376Y-102839667D02*
X157101257Y-102839667D01*
X157101257Y-102839667D02*
X157135930Y-102786750D01*
X157135930Y-102786750D02*
X157135930Y-102786750D01*
G36*
X157135754Y-102532482D02*
G01*
X157170250Y-102585130D01*
X157911817Y-102590690D01*
X157937548Y-102590885D01*
X158131189Y-102592543D01*
X158287172Y-102594394D01*
X158409675Y-102596661D01*
X158502878Y-102599568D01*
X158570958Y-102603339D01*
X158618094Y-102608195D01*
X158648464Y-102614362D01*
X158666248Y-102622061D01*
X158675623Y-102631518D01*
X158686427Y-102659610D01*
X158670039Y-102700309D01*
X158660738Y-102708057D01*
X158641360Y-102715599D01*
X158608950Y-102721539D01*
X158559322Y-102726062D01*
X158488290Y-102729349D01*
X158391668Y-102731587D01*
X158265271Y-102732958D01*
X158104913Y-102733645D01*
X157906409Y-102733833D01*
X157170602Y-102733833D01*
X157135930Y-102786750D01*
X157101257Y-102839667D01*
X155727376Y-102839667D01*
X155692703Y-102786750D01*
X155658031Y-102733833D01*
X154921144Y-102733833D01*
X154766217Y-102733723D01*
X154596408Y-102733147D01*
X154461542Y-102731916D01*
X154357422Y-102729847D01*
X154279847Y-102726761D01*
X154224620Y-102722476D01*
X154187542Y-102716810D01*
X154164414Y-102709583D01*
X154151037Y-102700614D01*
X154130451Y-102669162D01*
X154139687Y-102626530D01*
X154145871Y-102617099D01*
X154157230Y-102608110D01*
X154177105Y-102601018D01*
X154209726Y-102595600D01*
X154259318Y-102591630D01*
X154330108Y-102588885D01*
X154426324Y-102587141D01*
X154552192Y-102586172D01*
X154711940Y-102585756D01*
X154909794Y-102585667D01*
X155658031Y-102585667D01*
X155692703Y-102532750D01*
X155727376Y-102479833D01*
X157101257Y-102479833D01*
X157135754Y-102532482D01*
G37*
X157135754Y-102532482D02*
X157170250Y-102585130D01*
X157911817Y-102590690D01*
X157937548Y-102590885D01*
X158131189Y-102592543D01*
X158287172Y-102594394D01*
X158409675Y-102596661D01*
X158502878Y-102599568D01*
X158570958Y-102603339D01*
X158618094Y-102608195D01*
X158648464Y-102614362D01*
X158666248Y-102622061D01*
X158675623Y-102631518D01*
X158686427Y-102659610D01*
X158670039Y-102700309D01*
X158660738Y-102708057D01*
X158641360Y-102715599D01*
X158608950Y-102721539D01*
X158559322Y-102726062D01*
X158488290Y-102729349D01*
X158391668Y-102731587D01*
X158265271Y-102732958D01*
X158104913Y-102733645D01*
X157906409Y-102733833D01*
X157170602Y-102733833D01*
X157135930Y-102786750D01*
X157101257Y-102839667D01*
X155727376Y-102839667D01*
X155692703Y-102786750D01*
X155658031Y-102733833D01*
X154921144Y-102733833D01*
X154766217Y-102733723D01*
X154596408Y-102733147D01*
X154461542Y-102731916D01*
X154357422Y-102729847D01*
X154279847Y-102726761D01*
X154224620Y-102722476D01*
X154187542Y-102716810D01*
X154164414Y-102709583D01*
X154151037Y-102700614D01*
X154130451Y-102669162D01*
X154139687Y-102626530D01*
X154145871Y-102617099D01*
X154157230Y-102608110D01*
X154177105Y-102601018D01*
X154209726Y-102595600D01*
X154259318Y-102591630D01*
X154330108Y-102588885D01*
X154426324Y-102587141D01*
X154552192Y-102586172D01*
X154711940Y-102585756D01*
X154909794Y-102585667D01*
X155658031Y-102585667D01*
X155692703Y-102532750D01*
X155727376Y-102479833D01*
X157101257Y-102479833D01*
X157135754Y-102532482D01*
X160983259Y-102839606D02*
X161130302Y-102839212D01*
X161130302Y-102839212D02*
X161244505Y-102838163D01*
X161244505Y-102838163D02*
X161330611Y-102836141D01*
X161330611Y-102836141D02*
X161393368Y-102832826D01*
X161393368Y-102832826D02*
X161437521Y-102827897D01*
X161437521Y-102827897D02*
X161467817Y-102821036D01*
X161467817Y-102821036D02*
X161489000Y-102811923D01*
X161489000Y-102811923D02*
X161505817Y-102800238D01*
X161505817Y-102800238D02*
X161516420Y-102791314D01*
X161516420Y-102791314D02*
X161561778Y-102726981D01*
X161561778Y-102726981D02*
X161574209Y-102649231D01*
X161574209Y-102649231D02*
X161553288Y-102571770D01*
X161553288Y-102571770D02*
X161524494Y-102531076D01*
X161524494Y-102531076D02*
X161476354Y-102479833D01*
X161476354Y-102479833D02*
X160808002Y-102480477D01*
X160808002Y-102480477D02*
X160634414Y-102481265D01*
X160634414Y-102481265D02*
X160477324Y-102483186D01*
X160477324Y-102483186D02*
X160341576Y-102486099D01*
X160341576Y-102486099D02*
X160232011Y-102489860D01*
X160232011Y-102489860D02*
X160153474Y-102494328D01*
X160153474Y-102494328D02*
X160110806Y-102499360D01*
X160110806Y-102499360D02*
X160105384Y-102501142D01*
X160105384Y-102501142D02*
X160065603Y-102544163D01*
X160065603Y-102544163D02*
X160037538Y-102609595D01*
X160037538Y-102609595D02*
X160028445Y-102677753D01*
X160028445Y-102677753D02*
X160031675Y-102701087D01*
X160031675Y-102701087D02*
X160057360Y-102755371D01*
X160057360Y-102755371D02*
X160090981Y-102796748D01*
X160090981Y-102796748D02*
X160105504Y-102808746D01*
X160105504Y-102808746D02*
X160123585Y-102818274D01*
X160123585Y-102818274D02*
X160149908Y-102825615D01*
X160149908Y-102825615D02*
X160189158Y-102831054D01*
X160189158Y-102831054D02*
X160246020Y-102834875D01*
X160246020Y-102834875D02*
X160325177Y-102837363D01*
X160325177Y-102837363D02*
X160431315Y-102838800D01*
X160431315Y-102838800D02*
X160569118Y-102839471D01*
X160569118Y-102839471D02*
X160743270Y-102839661D01*
X160743270Y-102839661D02*
X160798627Y-102839667D01*
X160798627Y-102839667D02*
X160983259Y-102839606D01*
X160983259Y-102839606D02*
X160983259Y-102839606D01*
G36*
X161524494Y-102531076D02*
G01*
X161553288Y-102571770D01*
X161574209Y-102649231D01*
X161561778Y-102726981D01*
X161516420Y-102791314D01*
X161505817Y-102800238D01*
X161489000Y-102811923D01*
X161467817Y-102821036D01*
X161437521Y-102827897D01*
X161393368Y-102832826D01*
X161330611Y-102836141D01*
X161244505Y-102838163D01*
X161130302Y-102839212D01*
X160983259Y-102839606D01*
X160798627Y-102839667D01*
X160743270Y-102839661D01*
X160569118Y-102839471D01*
X160431315Y-102838800D01*
X160325177Y-102837363D01*
X160246020Y-102834875D01*
X160189158Y-102831054D01*
X160149908Y-102825615D01*
X160123585Y-102818274D01*
X160105504Y-102808746D01*
X160090981Y-102796748D01*
X160057360Y-102755371D01*
X160031675Y-102701087D01*
X160028445Y-102677753D01*
X160037538Y-102609595D01*
X160065603Y-102544163D01*
X160105384Y-102501142D01*
X160110806Y-102499360D01*
X160153474Y-102494328D01*
X160232011Y-102489860D01*
X160341576Y-102486099D01*
X160477324Y-102483186D01*
X160634414Y-102481265D01*
X160808002Y-102480477D01*
X161476354Y-102479833D01*
X161524494Y-102531076D01*
G37*
X161524494Y-102531076D02*
X161553288Y-102571770D01*
X161574209Y-102649231D01*
X161561778Y-102726981D01*
X161516420Y-102791314D01*
X161505817Y-102800238D01*
X161489000Y-102811923D01*
X161467817Y-102821036D01*
X161437521Y-102827897D01*
X161393368Y-102832826D01*
X161330611Y-102836141D01*
X161244505Y-102838163D01*
X161130302Y-102839212D01*
X160983259Y-102839606D01*
X160798627Y-102839667D01*
X160743270Y-102839661D01*
X160569118Y-102839471D01*
X160431315Y-102838800D01*
X160325177Y-102837363D01*
X160246020Y-102834875D01*
X160189158Y-102831054D01*
X160149908Y-102825615D01*
X160123585Y-102818274D01*
X160105504Y-102808746D01*
X160090981Y-102796748D01*
X160057360Y-102755371D01*
X160031675Y-102701087D01*
X160028445Y-102677753D01*
X160037538Y-102609595D01*
X160065603Y-102544163D01*
X160105384Y-102501142D01*
X160110806Y-102499360D01*
X160153474Y-102494328D01*
X160232011Y-102489860D01*
X160341576Y-102486099D01*
X160477324Y-102483186D01*
X160634414Y-102481265D01*
X160808002Y-102480477D01*
X161476354Y-102479833D01*
X161524494Y-102531076D01*
X160958587Y-103283466D02*
X161116819Y-103281460D01*
X161116819Y-103281460D02*
X161252114Y-103278297D01*
X161252114Y-103278297D02*
X161359662Y-103274123D01*
X161359662Y-103274123D02*
X161434651Y-103269083D01*
X161434651Y-103269083D02*
X161472272Y-103263326D01*
X161472272Y-103263326D02*
X161472796Y-103263135D01*
X161472796Y-103263135D02*
X161522710Y-103225789D01*
X161522710Y-103225789D02*
X161559124Y-103167885D01*
X161559124Y-103167885D02*
X161577951Y-103111401D01*
X161577951Y-103111401D02*
X161575592Y-103065174D01*
X161575592Y-103065174D02*
X161559124Y-103019449D01*
X161559124Y-103019449D02*
X161519982Y-102958535D01*
X161519982Y-102958535D02*
X161472796Y-102924199D01*
X161472796Y-102924199D02*
X161436425Y-102918421D01*
X161436425Y-102918421D02*
X161362536Y-102913357D01*
X161362536Y-102913357D02*
X161255937Y-102909153D01*
X161255937Y-102909153D02*
X161121440Y-102905956D01*
X161121440Y-102905956D02*
X160963855Y-102903912D01*
X160963855Y-102903912D02*
X160787991Y-102903168D01*
X160787991Y-102903168D02*
X160782227Y-102903167D01*
X160782227Y-102903167D02*
X160146977Y-102903167D01*
X160146977Y-102903167D02*
X160085105Y-102965039D01*
X160085105Y-102965039D02*
X160034977Y-103035547D01*
X160034977Y-103035547D02*
X160023233Y-103093667D01*
X160023233Y-103093667D02*
X160042123Y-103166641D01*
X160042123Y-103166641D02*
X160085105Y-103222295D01*
X160085105Y-103222295D02*
X160146977Y-103284167D01*
X160146977Y-103284167D02*
X160782227Y-103284167D01*
X160782227Y-103284167D02*
X160958587Y-103283466D01*
X160958587Y-103283466D02*
X160958587Y-103283466D01*
G36*
X160787991Y-102903168D02*
G01*
X160963855Y-102903912D01*
X161121440Y-102905956D01*
X161255937Y-102909153D01*
X161362536Y-102913357D01*
X161436425Y-102918421D01*
X161472796Y-102924199D01*
X161519982Y-102958535D01*
X161559124Y-103019449D01*
X161575592Y-103065174D01*
X161577951Y-103111401D01*
X161559124Y-103167885D01*
X161522710Y-103225789D01*
X161472796Y-103263135D01*
X161472272Y-103263326D01*
X161434651Y-103269083D01*
X161359662Y-103274123D01*
X161252114Y-103278297D01*
X161116819Y-103281460D01*
X160958587Y-103283466D01*
X160782227Y-103284167D01*
X160146977Y-103284167D01*
X160085105Y-103222295D01*
X160042123Y-103166641D01*
X160023233Y-103093667D01*
X160034977Y-103035547D01*
X160085105Y-102965039D01*
X160146977Y-102903167D01*
X160782227Y-102903167D01*
X160787991Y-102903168D01*
G37*
X160787991Y-102903168D02*
X160963855Y-102903912D01*
X161121440Y-102905956D01*
X161255937Y-102909153D01*
X161362536Y-102913357D01*
X161436425Y-102918421D01*
X161472796Y-102924199D01*
X161519982Y-102958535D01*
X161559124Y-103019449D01*
X161575592Y-103065174D01*
X161577951Y-103111401D01*
X161559124Y-103167885D01*
X161522710Y-103225789D01*
X161472796Y-103263135D01*
X161472272Y-103263326D01*
X161434651Y-103269083D01*
X161359662Y-103274123D01*
X161252114Y-103278297D01*
X161116819Y-103281460D01*
X160958587Y-103283466D01*
X160782227Y-103284167D01*
X160146977Y-103284167D01*
X160085105Y-103222295D01*
X160042123Y-103166641D01*
X160023233Y-103093667D01*
X160034977Y-103035547D01*
X160085105Y-102965039D01*
X160146977Y-102903167D01*
X160782227Y-102903167D01*
X160787991Y-102903168D01*
X155350895Y-103153897D02*
X155620089Y-103153590D01*
X155620089Y-103153590D02*
X155926047Y-103153047D01*
X155926047Y-103153047D02*
X156271113Y-103152298D01*
X156271113Y-103152298D02*
X156411326Y-103151970D01*
X156411326Y-103151970D02*
X158679150Y-103146583D01*
X158679150Y-103146583D02*
X158679150Y-103040750D01*
X158679150Y-103040750D02*
X156422279Y-103035363D01*
X156422279Y-103035363D02*
X156056981Y-103034560D01*
X156056981Y-103034560D02*
X155731789Y-103034011D01*
X155731789Y-103034011D02*
X155444474Y-103033739D01*
X155444474Y-103033739D02*
X155192810Y-103033766D01*
X155192810Y-103033766D02*
X154974570Y-103034116D01*
X154974570Y-103034116D02*
X154787525Y-103034812D01*
X154787525Y-103034812D02*
X154629450Y-103035878D01*
X154629450Y-103035878D02*
X154498115Y-103037337D01*
X154498115Y-103037337D02*
X154391294Y-103039211D01*
X154391294Y-103039211D02*
X154306760Y-103041525D01*
X154306760Y-103041525D02*
X154242286Y-103044300D01*
X154242286Y-103044300D02*
X154195643Y-103047562D01*
X154195643Y-103047562D02*
X154164604Y-103051332D01*
X154164604Y-103051332D02*
X154146943Y-103055634D01*
X154146943Y-103055634D02*
X154141206Y-103059139D01*
X154141206Y-103059139D02*
X154126888Y-103101873D01*
X154126888Y-103101873D02*
X154130252Y-103122829D01*
X154130252Y-103122829D02*
X154134842Y-103128309D01*
X154134842Y-103128309D02*
X154145721Y-103133165D01*
X154145721Y-103133165D02*
X154165232Y-103137426D01*
X154165232Y-103137426D02*
X154195721Y-103141121D01*
X154195721Y-103141121D02*
X154239531Y-103144282D01*
X154239531Y-103144282D02*
X154299007Y-103146937D01*
X154299007Y-103146937D02*
X154376493Y-103149117D01*
X154376493Y-103149117D02*
X154474333Y-103150852D01*
X154474333Y-103150852D02*
X154594871Y-103152172D01*
X154594871Y-103152172D02*
X154740452Y-103153107D01*
X154740452Y-103153107D02*
X154913421Y-103153686D01*
X154913421Y-103153686D02*
X155116120Y-103153939D01*
X155116120Y-103153939D02*
X155350895Y-103153897D01*
X155350895Y-103153897D02*
X155350895Y-103153897D01*
G36*
X155731789Y-103034011D02*
G01*
X156056981Y-103034560D01*
X156422279Y-103035363D01*
X158679150Y-103040750D01*
X158679150Y-103146583D01*
X156411326Y-103151970D01*
X156271113Y-103152298D01*
X155926047Y-103153047D01*
X155620089Y-103153590D01*
X155350895Y-103153897D01*
X155116120Y-103153939D01*
X154913421Y-103153686D01*
X154740452Y-103153107D01*
X154594871Y-103152172D01*
X154474333Y-103150852D01*
X154376493Y-103149117D01*
X154299007Y-103146937D01*
X154239531Y-103144282D01*
X154195721Y-103141121D01*
X154165232Y-103137426D01*
X154145721Y-103133165D01*
X154134842Y-103128309D01*
X154130252Y-103122829D01*
X154126888Y-103101873D01*
X154141206Y-103059139D01*
X154146943Y-103055634D01*
X154164604Y-103051332D01*
X154195643Y-103047562D01*
X154242286Y-103044300D01*
X154306760Y-103041525D01*
X154391294Y-103039211D01*
X154498115Y-103037337D01*
X154629450Y-103035878D01*
X154787525Y-103034812D01*
X154974570Y-103034116D01*
X155192810Y-103033766D01*
X155444474Y-103033739D01*
X155731789Y-103034011D01*
G37*
X155731789Y-103034011D02*
X156056981Y-103034560D01*
X156422279Y-103035363D01*
X158679150Y-103040750D01*
X158679150Y-103146583D01*
X156411326Y-103151970D01*
X156271113Y-103152298D01*
X155926047Y-103153047D01*
X155620089Y-103153590D01*
X155350895Y-103153897D01*
X155116120Y-103153939D01*
X154913421Y-103153686D01*
X154740452Y-103153107D01*
X154594871Y-103152172D01*
X154474333Y-103150852D01*
X154376493Y-103149117D01*
X154299007Y-103146937D01*
X154239531Y-103144282D01*
X154195721Y-103141121D01*
X154165232Y-103137426D01*
X154145721Y-103133165D01*
X154134842Y-103128309D01*
X154130252Y-103122829D01*
X154126888Y-103101873D01*
X154141206Y-103059139D01*
X154146943Y-103055634D01*
X154164604Y-103051332D01*
X154195643Y-103047562D01*
X154242286Y-103044300D01*
X154306760Y-103041525D01*
X154391294Y-103039211D01*
X154498115Y-103037337D01*
X154629450Y-103035878D01*
X154787525Y-103034812D01*
X154974570Y-103034116D01*
X155192810Y-103033766D01*
X155444474Y-103033739D01*
X155731789Y-103034011D01*
X161524494Y-103656258D02*
X161565663Y-103585565D01*
X161565663Y-103585565D02*
X161573224Y-103506345D01*
X161573224Y-103506345D02*
X161547602Y-103432305D01*
X161547602Y-103432305D02*
X161516420Y-103396020D01*
X161516420Y-103396020D02*
X161499910Y-103382531D01*
X161499910Y-103382531D02*
X161482054Y-103371817D01*
X161482054Y-103371817D02*
X161458108Y-103363560D01*
X161458108Y-103363560D02*
X161423324Y-103357438D01*
X161423324Y-103357438D02*
X161372958Y-103353133D01*
X161372958Y-103353133D02*
X161302262Y-103350325D01*
X161302262Y-103350325D02*
X161206492Y-103348694D01*
X161206492Y-103348694D02*
X161080901Y-103347920D01*
X161080901Y-103347920D02*
X160920743Y-103347684D01*
X160920743Y-103347684D02*
X160798627Y-103347667D01*
X160798627Y-103347667D02*
X160613566Y-103347774D01*
X160613566Y-103347774D02*
X160466153Y-103348283D01*
X160466153Y-103348283D02*
X160351705Y-103349480D01*
X160351705Y-103349480D02*
X160265535Y-103351647D01*
X160265535Y-103351647D02*
X160202961Y-103355070D01*
X160202961Y-103355070D02*
X160159297Y-103360032D01*
X160159297Y-103360032D02*
X160129858Y-103366817D01*
X160129858Y-103366817D02*
X160109961Y-103375710D01*
X160109961Y-103375710D02*
X160094921Y-103386995D01*
X160094921Y-103386995D02*
X160090981Y-103390586D01*
X160090981Y-103390586D02*
X160051851Y-103440848D01*
X160051851Y-103440848D02*
X160031675Y-103486247D01*
X160031675Y-103486247D02*
X160031298Y-103551312D01*
X160031298Y-103551312D02*
X160053708Y-103620303D01*
X160053708Y-103620303D02*
X160091505Y-103674093D01*
X160091505Y-103674093D02*
X160109411Y-103687142D01*
X160109411Y-103687142D02*
X160140430Y-103692552D01*
X160140430Y-103692552D02*
X160209200Y-103697330D01*
X160209200Y-103697330D02*
X160311144Y-103701343D01*
X160311144Y-103701343D02*
X160441683Y-103704458D01*
X160441683Y-103704458D02*
X160596240Y-103706544D01*
X160596240Y-103706544D02*
X160770235Y-103707466D01*
X160770235Y-103707466D02*
X160811902Y-103707500D01*
X160811902Y-103707500D02*
X161476354Y-103707500D01*
X161476354Y-103707500D02*
X161524494Y-103656258D01*
X161524494Y-103656258D02*
X161524494Y-103656258D01*
G36*
X160920743Y-103347684D02*
G01*
X161080901Y-103347920D01*
X161206492Y-103348694D01*
X161302262Y-103350325D01*
X161372958Y-103353133D01*
X161423324Y-103357438D01*
X161458108Y-103363560D01*
X161482054Y-103371817D01*
X161499910Y-103382531D01*
X161516420Y-103396020D01*
X161547602Y-103432305D01*
X161573224Y-103506345D01*
X161565663Y-103585565D01*
X161524494Y-103656258D01*
X161476354Y-103707500D01*
X160811902Y-103707500D01*
X160770235Y-103707466D01*
X160596240Y-103706544D01*
X160441683Y-103704458D01*
X160311144Y-103701343D01*
X160209200Y-103697330D01*
X160140430Y-103692552D01*
X160109411Y-103687142D01*
X160091505Y-103674093D01*
X160053708Y-103620303D01*
X160031298Y-103551312D01*
X160031675Y-103486247D01*
X160051851Y-103440848D01*
X160090981Y-103390586D01*
X160094921Y-103386995D01*
X160109961Y-103375710D01*
X160129858Y-103366817D01*
X160159297Y-103360032D01*
X160202961Y-103355070D01*
X160265535Y-103351647D01*
X160351705Y-103349480D01*
X160466153Y-103348283D01*
X160613566Y-103347774D01*
X160798627Y-103347667D01*
X160920743Y-103347684D01*
G37*
X160920743Y-103347684D02*
X161080901Y-103347920D01*
X161206492Y-103348694D01*
X161302262Y-103350325D01*
X161372958Y-103353133D01*
X161423324Y-103357438D01*
X161458108Y-103363560D01*
X161482054Y-103371817D01*
X161499910Y-103382531D01*
X161516420Y-103396020D01*
X161547602Y-103432305D01*
X161573224Y-103506345D01*
X161565663Y-103585565D01*
X161524494Y-103656258D01*
X161476354Y-103707500D01*
X160811902Y-103707500D01*
X160770235Y-103707466D01*
X160596240Y-103706544D01*
X160441683Y-103704458D01*
X160311144Y-103701343D01*
X160209200Y-103697330D01*
X160140430Y-103692552D01*
X160109411Y-103687142D01*
X160091505Y-103674093D01*
X160053708Y-103620303D01*
X160031298Y-103551312D01*
X160031675Y-103486247D01*
X160051851Y-103440848D01*
X160090981Y-103390586D01*
X160094921Y-103386995D01*
X160109961Y-103375710D01*
X160129858Y-103366817D01*
X160159297Y-103360032D01*
X160202961Y-103355070D01*
X160265535Y-103351647D01*
X160351705Y-103349480D01*
X160466153Y-103348283D01*
X160613566Y-103347774D01*
X160798627Y-103347667D01*
X160920743Y-103347684D01*
X155330656Y-103598653D02*
X155592732Y-103598266D01*
X155592732Y-103598266D02*
X155891183Y-103597669D01*
X155891183Y-103597669D02*
X156228405Y-103596898D01*
X156228405Y-103596898D02*
X156407515Y-103596471D01*
X156407515Y-103596471D02*
X156764946Y-103595588D01*
X156764946Y-103595588D02*
X157082434Y-103594724D01*
X157082434Y-103594724D02*
X157362369Y-103593832D01*
X157362369Y-103593832D02*
X157607141Y-103592866D01*
X157607141Y-103592866D02*
X157819141Y-103591780D01*
X157819141Y-103591780D02*
X158000758Y-103590529D01*
X158000758Y-103590529D02*
X158154384Y-103589066D01*
X158154384Y-103589066D02*
X158282407Y-103587345D01*
X158282407Y-103587345D02*
X158387219Y-103585321D01*
X158387219Y-103585321D02*
X158471210Y-103582946D01*
X158471210Y-103582946D02*
X158536769Y-103580177D01*
X158536769Y-103580177D02*
X158586288Y-103576965D01*
X158586288Y-103576965D02*
X158622155Y-103573266D01*
X158622155Y-103573266D02*
X158646763Y-103569033D01*
X158646763Y-103569033D02*
X158662499Y-103564221D01*
X158662499Y-103564221D02*
X158671756Y-103558783D01*
X158671756Y-103558783D02*
X158676844Y-103552802D01*
X158676844Y-103552802D02*
X158687769Y-103517630D01*
X158687769Y-103517630D02*
X158663955Y-103487606D01*
X158663955Y-103487606D02*
X158659229Y-103484010D01*
X158659229Y-103484010D02*
X158647868Y-103479049D01*
X158647868Y-103479049D02*
X158626380Y-103474642D01*
X158626380Y-103474642D02*
X158592451Y-103470757D01*
X158592451Y-103470757D02*
X158543769Y-103467362D01*
X158543769Y-103467362D02*
X158478022Y-103464428D01*
X158478022Y-103464428D02*
X158392897Y-103461922D01*
X158392897Y-103461922D02*
X158286082Y-103459814D01*
X158286082Y-103459814D02*
X158155265Y-103458072D01*
X158155265Y-103458072D02*
X157998133Y-103456664D01*
X157998133Y-103456664D02*
X157812373Y-103455560D01*
X157812373Y-103455560D02*
X157595673Y-103454728D01*
X157595673Y-103454728D02*
X157345721Y-103454138D01*
X157345721Y-103454138D02*
X157060205Y-103453757D01*
X157060205Y-103453757D02*
X156736811Y-103453555D01*
X156736811Y-103453555D02*
X156401199Y-103453500D01*
X156401199Y-103453500D02*
X156043834Y-103453548D01*
X156043834Y-103453548D02*
X155726429Y-103453714D01*
X155726429Y-103453714D02*
X155446611Y-103454034D01*
X155446611Y-103454034D02*
X155202008Y-103454543D01*
X155202008Y-103454543D02*
X154990247Y-103455275D01*
X154990247Y-103455275D02*
X154808955Y-103456267D01*
X154808955Y-103456267D02*
X154655759Y-103457552D01*
X154655759Y-103457552D02*
X154528286Y-103459166D01*
X154528286Y-103459166D02*
X154424163Y-103461144D01*
X154424163Y-103461144D02*
X154341018Y-103463521D01*
X154341018Y-103463521D02*
X154276478Y-103466332D01*
X154276478Y-103466332D02*
X154228170Y-103469611D01*
X154228170Y-103469611D02*
X154193720Y-103473395D01*
X154193720Y-103473395D02*
X154170757Y-103477718D01*
X154170757Y-103477718D02*
X154156906Y-103482615D01*
X154156906Y-103482615D02*
X154151037Y-103486720D01*
X154151037Y-103486720D02*
X154129391Y-103525019D01*
X154129391Y-103525019D02*
X154139738Y-103560900D01*
X154139738Y-103560900D02*
X154144048Y-103567408D01*
X154144048Y-103567408D02*
X154151202Y-103573180D01*
X154151202Y-103573180D02*
X154163594Y-103578252D01*
X154163594Y-103578252D02*
X154183619Y-103582663D01*
X154183619Y-103582663D02*
X154213673Y-103586450D01*
X154213673Y-103586450D02*
X154256151Y-103589651D01*
X154256151Y-103589651D02*
X154313448Y-103592303D01*
X154313448Y-103592303D02*
X154387960Y-103594443D01*
X154387960Y-103594443D02*
X154482080Y-103596110D01*
X154482080Y-103596110D02*
X154598206Y-103597341D01*
X154598206Y-103597341D02*
X154738731Y-103598173D01*
X154738731Y-103598173D02*
X154906051Y-103598644D01*
X154906051Y-103598644D02*
X155102561Y-103598791D01*
X155102561Y-103598791D02*
X155330656Y-103598653D01*
X155330656Y-103598653D02*
X155330656Y-103598653D01*
G36*
X156736811Y-103453555D02*
G01*
X157060205Y-103453757D01*
X157345721Y-103454138D01*
X157595673Y-103454728D01*
X157812373Y-103455560D01*
X157998133Y-103456664D01*
X158155265Y-103458072D01*
X158286082Y-103459814D01*
X158392897Y-103461922D01*
X158478022Y-103464428D01*
X158543769Y-103467362D01*
X158592451Y-103470757D01*
X158626380Y-103474642D01*
X158647868Y-103479049D01*
X158659229Y-103484010D01*
X158663955Y-103487606D01*
X158687769Y-103517630D01*
X158676844Y-103552802D01*
X158671756Y-103558783D01*
X158662499Y-103564221D01*
X158646763Y-103569033D01*
X158622155Y-103573266D01*
X158586288Y-103576965D01*
X158536769Y-103580177D01*
X158471210Y-103582946D01*
X158387219Y-103585321D01*
X158282407Y-103587345D01*
X158154384Y-103589066D01*
X158000758Y-103590529D01*
X157819141Y-103591780D01*
X157607141Y-103592866D01*
X157362369Y-103593832D01*
X157082434Y-103594724D01*
X156764946Y-103595588D01*
X156407515Y-103596471D01*
X156228405Y-103596898D01*
X155891183Y-103597669D01*
X155592732Y-103598266D01*
X155330656Y-103598653D01*
X155102561Y-103598791D01*
X154906051Y-103598644D01*
X154738731Y-103598173D01*
X154598206Y-103597341D01*
X154482080Y-103596110D01*
X154387960Y-103594443D01*
X154313448Y-103592303D01*
X154256151Y-103589651D01*
X154213673Y-103586450D01*
X154183619Y-103582663D01*
X154163594Y-103578252D01*
X154151202Y-103573180D01*
X154144048Y-103567408D01*
X154139738Y-103560900D01*
X154129391Y-103525019D01*
X154151037Y-103486720D01*
X154156906Y-103482615D01*
X154170757Y-103477718D01*
X154193720Y-103473395D01*
X154228170Y-103469611D01*
X154276478Y-103466332D01*
X154341018Y-103463521D01*
X154424163Y-103461144D01*
X154528286Y-103459166D01*
X154655759Y-103457552D01*
X154808955Y-103456267D01*
X154990247Y-103455275D01*
X155202008Y-103454543D01*
X155446611Y-103454034D01*
X155726429Y-103453714D01*
X156043834Y-103453548D01*
X156401199Y-103453500D01*
X156736811Y-103453555D01*
G37*
X156736811Y-103453555D02*
X157060205Y-103453757D01*
X157345721Y-103454138D01*
X157595673Y-103454728D01*
X157812373Y-103455560D01*
X157998133Y-103456664D01*
X158155265Y-103458072D01*
X158286082Y-103459814D01*
X158392897Y-103461922D01*
X158478022Y-103464428D01*
X158543769Y-103467362D01*
X158592451Y-103470757D01*
X158626380Y-103474642D01*
X158647868Y-103479049D01*
X158659229Y-103484010D01*
X158663955Y-103487606D01*
X158687769Y-103517630D01*
X158676844Y-103552802D01*
X158671756Y-103558783D01*
X158662499Y-103564221D01*
X158646763Y-103569033D01*
X158622155Y-103573266D01*
X158586288Y-103576965D01*
X158536769Y-103580177D01*
X158471210Y-103582946D01*
X158387219Y-103585321D01*
X158282407Y-103587345D01*
X158154384Y-103589066D01*
X158000758Y-103590529D01*
X157819141Y-103591780D01*
X157607141Y-103592866D01*
X157362369Y-103593832D01*
X157082434Y-103594724D01*
X156764946Y-103595588D01*
X156407515Y-103596471D01*
X156228405Y-103596898D01*
X155891183Y-103597669D01*
X155592732Y-103598266D01*
X155330656Y-103598653D01*
X155102561Y-103598791D01*
X154906051Y-103598644D01*
X154738731Y-103598173D01*
X154598206Y-103597341D01*
X154482080Y-103596110D01*
X154387960Y-103594443D01*
X154313448Y-103592303D01*
X154256151Y-103589651D01*
X154213673Y-103586450D01*
X154183619Y-103582663D01*
X154163594Y-103578252D01*
X154151202Y-103573180D01*
X154144048Y-103567408D01*
X154139738Y-103560900D01*
X154129391Y-103525019D01*
X154151037Y-103486720D01*
X154156906Y-103482615D01*
X154170757Y-103477718D01*
X154193720Y-103473395D01*
X154228170Y-103469611D01*
X154276478Y-103466332D01*
X154341018Y-103463521D01*
X154424163Y-103461144D01*
X154528286Y-103459166D01*
X154655759Y-103457552D01*
X154808955Y-103456267D01*
X154990247Y-103455275D01*
X155202008Y-103454543D01*
X155446611Y-103454034D01*
X155726429Y-103453714D01*
X156043834Y-103453548D01*
X156401199Y-103453500D01*
X156736811Y-103453555D01*
X160987504Y-104151932D02*
X161133847Y-104151516D01*
X161133847Y-104151516D02*
X161247384Y-104150433D01*
X161247384Y-104150433D02*
X161332877Y-104148365D01*
X161332877Y-104148365D02*
X161395091Y-104144993D01*
X161395091Y-104144993D02*
X161438788Y-104139998D01*
X161438788Y-104139998D02*
X161468733Y-104133061D01*
X161468733Y-104133061D02*
X161489688Y-104123865D01*
X161489688Y-104123865D02*
X161506417Y-104112090D01*
X161506417Y-104112090D02*
X161515570Y-104104375D01*
X161515570Y-104104375D02*
X161561839Y-104040319D01*
X161561839Y-104040319D02*
X161576060Y-103964634D01*
X161576060Y-103964634D02*
X161560025Y-103889748D01*
X161560025Y-103889748D02*
X161515526Y-103828086D01*
X161515526Y-103828086D02*
X161471790Y-103800818D01*
X161471790Y-103800818D02*
X161425986Y-103790802D01*
X161425986Y-103790802D02*
X161345600Y-103782679D01*
X161345600Y-103782679D02*
X161237415Y-103776429D01*
X161237415Y-103776429D02*
X161108214Y-103772032D01*
X161108214Y-103772032D02*
X160964779Y-103769467D01*
X160964779Y-103769467D02*
X160813894Y-103768716D01*
X160813894Y-103768716D02*
X160662342Y-103769757D01*
X160662342Y-103769757D02*
X160516906Y-103772572D01*
X160516906Y-103772572D02*
X160384369Y-103777140D01*
X160384369Y-103777140D02*
X160271513Y-103783440D01*
X160271513Y-103783440D02*
X160185123Y-103791454D01*
X160185123Y-103791454D02*
X160131980Y-103801162D01*
X160131980Y-103801162D02*
X160122800Y-103804785D01*
X160122800Y-103804785D02*
X160057881Y-103860408D01*
X160057881Y-103860408D02*
X160027981Y-103931851D01*
X160027981Y-103931851D02*
X160034389Y-104009349D01*
X160034389Y-104009349D02*
X160078395Y-104083137D01*
X160078395Y-104083137D02*
X160085105Y-104090128D01*
X160085105Y-104090128D02*
X160146977Y-104152000D01*
X160146977Y-104152000D02*
X160803591Y-104152000D01*
X160803591Y-104152000D02*
X160987504Y-104151932D01*
X160987504Y-104151932D02*
X160987504Y-104151932D01*
G36*
X160964779Y-103769467D02*
G01*
X161108214Y-103772032D01*
X161237415Y-103776429D01*
X161345600Y-103782679D01*
X161425986Y-103790802D01*
X161471790Y-103800818D01*
X161515526Y-103828086D01*
X161560025Y-103889748D01*
X161576060Y-103964634D01*
X161561839Y-104040319D01*
X161515570Y-104104375D01*
X161506417Y-104112090D01*
X161489688Y-104123865D01*
X161468733Y-104133061D01*
X161438788Y-104139998D01*
X161395091Y-104144993D01*
X161332877Y-104148365D01*
X161247384Y-104150433D01*
X161133847Y-104151516D01*
X160987504Y-104151932D01*
X160803591Y-104152000D01*
X160146977Y-104152000D01*
X160085105Y-104090128D01*
X160078395Y-104083137D01*
X160034389Y-104009349D01*
X160027981Y-103931851D01*
X160057881Y-103860408D01*
X160122800Y-103804785D01*
X160131980Y-103801162D01*
X160185123Y-103791454D01*
X160271513Y-103783440D01*
X160384369Y-103777140D01*
X160516906Y-103772572D01*
X160662342Y-103769757D01*
X160813894Y-103768716D01*
X160964779Y-103769467D01*
G37*
X160964779Y-103769467D02*
X161108214Y-103772032D01*
X161237415Y-103776429D01*
X161345600Y-103782679D01*
X161425986Y-103790802D01*
X161471790Y-103800818D01*
X161515526Y-103828086D01*
X161560025Y-103889748D01*
X161576060Y-103964634D01*
X161561839Y-104040319D01*
X161515570Y-104104375D01*
X161506417Y-104112090D01*
X161489688Y-104123865D01*
X161468733Y-104133061D01*
X161438788Y-104139998D01*
X161395091Y-104144993D01*
X161332877Y-104148365D01*
X161247384Y-104150433D01*
X161133847Y-104151516D01*
X160987504Y-104151932D01*
X160803591Y-104152000D01*
X160146977Y-104152000D01*
X160085105Y-104090128D01*
X160078395Y-104083137D01*
X160034389Y-104009349D01*
X160027981Y-103931851D01*
X160057881Y-103860408D01*
X160122800Y-103804785D01*
X160131980Y-103801162D01*
X160185123Y-103791454D01*
X160271513Y-103783440D01*
X160384369Y-103777140D01*
X160516906Y-103772572D01*
X160662342Y-103769757D01*
X160813894Y-103768716D01*
X160964779Y-103769467D01*
X156761769Y-104046102D02*
X157082317Y-104045888D01*
X157082317Y-104045888D02*
X157365158Y-104045493D01*
X157365158Y-104045493D02*
X157612602Y-104044886D01*
X157612602Y-104044886D02*
X157826963Y-104044036D01*
X157826963Y-104044036D02*
X158010553Y-104042911D01*
X158010553Y-104042911D02*
X158165685Y-104041480D01*
X158165685Y-104041480D02*
X158294670Y-104039712D01*
X158294670Y-104039712D02*
X158399822Y-104037575D01*
X158399822Y-104037575D02*
X158483453Y-104035039D01*
X158483453Y-104035039D02*
X158547875Y-104032073D01*
X158547875Y-104032073D02*
X158595401Y-104028644D01*
X158595401Y-104028644D02*
X158628343Y-104024721D01*
X158628343Y-104024721D02*
X158649013Y-104020274D01*
X158649013Y-104020274D02*
X158659229Y-104015657D01*
X158659229Y-104015657D02*
X158686975Y-103985139D01*
X158686975Y-103985139D02*
X158679501Y-103951349D01*
X158679501Y-103951349D02*
X158676844Y-103946865D01*
X158676844Y-103946865D02*
X158671619Y-103940769D01*
X158671619Y-103940769D02*
X158662257Y-103935344D01*
X158662257Y-103935344D02*
X158646366Y-103930544D01*
X158646366Y-103930544D02*
X158621558Y-103926322D01*
X158621558Y-103926322D02*
X158585441Y-103922633D01*
X158585441Y-103922633D02*
X158535626Y-103919431D01*
X158535626Y-103919431D02*
X158469722Y-103916669D01*
X158469722Y-103916669D02*
X158385339Y-103914303D01*
X158385339Y-103914303D02*
X158280087Y-103912285D01*
X158280087Y-103912285D02*
X158151576Y-103910570D01*
X158151576Y-103910570D02*
X157997415Y-103909111D01*
X157997415Y-103909111D02*
X157815214Y-103907864D01*
X157815214Y-103907864D02*
X157602584Y-103906781D01*
X157602584Y-103906781D02*
X157357133Y-103905817D01*
X157357133Y-103905817D02*
X157076472Y-103904926D01*
X157076472Y-103904926D02*
X156758210Y-103904061D01*
X156758210Y-103904061D02*
X156407515Y-103903196D01*
X156407515Y-103903196D02*
X156050531Y-103902354D01*
X156050531Y-103902354D02*
X155733484Y-103901668D01*
X155733484Y-103901668D02*
X155453981Y-103901174D01*
X155453981Y-103901174D02*
X155209625Y-103900910D01*
X155209625Y-103900910D02*
X154998022Y-103900913D01*
X154998022Y-103900913D02*
X154816776Y-103901222D01*
X154816776Y-103901222D02*
X154663492Y-103901873D01*
X154663492Y-103901873D02*
X154535775Y-103902905D01*
X154535775Y-103902905D02*
X154431230Y-103904355D01*
X154431230Y-103904355D02*
X154347461Y-103906259D01*
X154347461Y-103906259D02*
X154282074Y-103908657D01*
X154282074Y-103908657D02*
X154232674Y-103911586D01*
X154232674Y-103911586D02*
X154196864Y-103915082D01*
X154196864Y-103915082D02*
X154172251Y-103919185D01*
X154172251Y-103919185D02*
X154156438Y-103923930D01*
X154156438Y-103923930D02*
X154147031Y-103929357D01*
X154147031Y-103929357D02*
X154141634Y-103935501D01*
X154141634Y-103935501D02*
X154139738Y-103938767D01*
X154139738Y-103938767D02*
X154130421Y-103981412D01*
X154130421Y-103981412D02*
X154151037Y-104012947D01*
X154151037Y-104012947D02*
X154159572Y-104018301D01*
X154159572Y-104018301D02*
X154175426Y-104023055D01*
X154175426Y-104023055D02*
X154200971Y-104027243D01*
X154200971Y-104027243D02*
X154238582Y-104030901D01*
X154238582Y-104030901D02*
X154290630Y-104034063D01*
X154290630Y-104034063D02*
X154359488Y-104036765D01*
X154359488Y-104036765D02*
X154447530Y-104039041D01*
X154447530Y-104039041D02*
X154557128Y-104040927D01*
X154557128Y-104040927D02*
X154690654Y-104042457D01*
X154690654Y-104042457D02*
X154850483Y-104043668D01*
X154850483Y-104043668D02*
X155038987Y-104044593D01*
X155038987Y-104044593D02*
X155258538Y-104045267D01*
X155258538Y-104045267D02*
X155511509Y-104045727D01*
X155511509Y-104045727D02*
X155800274Y-104046006D01*
X155800274Y-104046006D02*
X156127205Y-104046140D01*
X156127205Y-104046140D02*
X156401199Y-104046167D01*
X156401199Y-104046167D02*
X156761769Y-104046102D01*
X156761769Y-104046102D02*
X156761769Y-104046102D01*
G36*
X155453981Y-103901174D02*
G01*
X155733484Y-103901668D01*
X156050531Y-103902354D01*
X156407515Y-103903196D01*
X156758210Y-103904061D01*
X157076472Y-103904926D01*
X157357133Y-103905817D01*
X157602584Y-103906781D01*
X157815214Y-103907864D01*
X157997415Y-103909111D01*
X158151576Y-103910570D01*
X158280087Y-103912285D01*
X158385339Y-103914303D01*
X158469722Y-103916669D01*
X158535626Y-103919431D01*
X158585441Y-103922633D01*
X158621558Y-103926322D01*
X158646366Y-103930544D01*
X158662257Y-103935344D01*
X158671619Y-103940769D01*
X158676844Y-103946865D01*
X158679501Y-103951349D01*
X158686975Y-103985139D01*
X158659229Y-104015657D01*
X158649013Y-104020274D01*
X158628343Y-104024721D01*
X158595401Y-104028644D01*
X158547875Y-104032073D01*
X158483453Y-104035039D01*
X158399822Y-104037575D01*
X158294670Y-104039712D01*
X158165685Y-104041480D01*
X158010553Y-104042911D01*
X157826963Y-104044036D01*
X157612602Y-104044886D01*
X157365158Y-104045493D01*
X157082317Y-104045888D01*
X156761769Y-104046102D01*
X156401199Y-104046167D01*
X156127205Y-104046140D01*
X155800274Y-104046006D01*
X155511509Y-104045727D01*
X155258538Y-104045267D01*
X155038987Y-104044593D01*
X154850483Y-104043668D01*
X154690654Y-104042457D01*
X154557128Y-104040927D01*
X154447530Y-104039041D01*
X154359488Y-104036765D01*
X154290630Y-104034063D01*
X154238582Y-104030901D01*
X154200971Y-104027243D01*
X154175426Y-104023055D01*
X154159572Y-104018301D01*
X154151037Y-104012947D01*
X154130421Y-103981412D01*
X154139738Y-103938767D01*
X154141634Y-103935501D01*
X154147031Y-103929357D01*
X154156438Y-103923930D01*
X154172251Y-103919185D01*
X154196864Y-103915082D01*
X154232674Y-103911586D01*
X154282074Y-103908657D01*
X154347461Y-103906259D01*
X154431230Y-103904355D01*
X154535775Y-103902905D01*
X154663492Y-103901873D01*
X154816776Y-103901222D01*
X154998022Y-103900913D01*
X155209625Y-103900910D01*
X155453981Y-103901174D01*
G37*
X155453981Y-103901174D02*
X155733484Y-103901668D01*
X156050531Y-103902354D01*
X156407515Y-103903196D01*
X156758210Y-103904061D01*
X157076472Y-103904926D01*
X157357133Y-103905817D01*
X157602584Y-103906781D01*
X157815214Y-103907864D01*
X157997415Y-103909111D01*
X158151576Y-103910570D01*
X158280087Y-103912285D01*
X158385339Y-103914303D01*
X158469722Y-103916669D01*
X158535626Y-103919431D01*
X158585441Y-103922633D01*
X158621558Y-103926322D01*
X158646366Y-103930544D01*
X158662257Y-103935344D01*
X158671619Y-103940769D01*
X158676844Y-103946865D01*
X158679501Y-103951349D01*
X158686975Y-103985139D01*
X158659229Y-104015657D01*
X158649013Y-104020274D01*
X158628343Y-104024721D01*
X158595401Y-104028644D01*
X158547875Y-104032073D01*
X158483453Y-104035039D01*
X158399822Y-104037575D01*
X158294670Y-104039712D01*
X158165685Y-104041480D01*
X158010553Y-104042911D01*
X157826963Y-104044036D01*
X157612602Y-104044886D01*
X157365158Y-104045493D01*
X157082317Y-104045888D01*
X156761769Y-104046102D01*
X156401199Y-104046167D01*
X156127205Y-104046140D01*
X155800274Y-104046006D01*
X155511509Y-104045727D01*
X155258538Y-104045267D01*
X155038987Y-104044593D01*
X154850483Y-104043668D01*
X154690654Y-104042457D01*
X154557128Y-104040927D01*
X154447530Y-104039041D01*
X154359488Y-104036765D01*
X154290630Y-104034063D01*
X154238582Y-104030901D01*
X154200971Y-104027243D01*
X154175426Y-104023055D01*
X154159572Y-104018301D01*
X154151037Y-104012947D01*
X154130421Y-103981412D01*
X154139738Y-103938767D01*
X154141634Y-103935501D01*
X154147031Y-103929357D01*
X154156438Y-103923930D01*
X154172251Y-103919185D01*
X154196864Y-103915082D01*
X154232674Y-103911586D01*
X154282074Y-103908657D01*
X154347461Y-103906259D01*
X154431230Y-103904355D01*
X154535775Y-103902905D01*
X154663492Y-103901873D01*
X154816776Y-103901222D01*
X154998022Y-103900913D01*
X155209625Y-103900910D01*
X155453981Y-103901174D01*
X161227808Y-104593311D02*
X161316314Y-104591142D01*
X161316314Y-104591142D02*
X161381416Y-104587386D01*
X161381416Y-104587386D02*
X161427845Y-104581864D01*
X161427845Y-104581864D02*
X161460330Y-104574399D01*
X161460330Y-104574399D02*
X161482555Y-104565359D01*
X161482555Y-104565359D02*
X161539991Y-104513726D01*
X161539991Y-104513726D02*
X161570102Y-104439577D01*
X161570102Y-104439577D02*
X161568244Y-104356142D01*
X161568244Y-104356142D02*
X161562755Y-104336878D01*
X161562755Y-104336878D02*
X161550697Y-104304297D01*
X161550697Y-104304297D02*
X161536057Y-104278139D01*
X161536057Y-104278139D02*
X161514406Y-104257699D01*
X161514406Y-104257699D02*
X161481313Y-104242271D01*
X161481313Y-104242271D02*
X161432348Y-104231152D01*
X161432348Y-104231152D02*
X161363083Y-104223636D01*
X161363083Y-104223636D02*
X161269087Y-104219017D01*
X161269087Y-104219017D02*
X161145930Y-104216592D01*
X161145930Y-104216592D02*
X160989184Y-104215654D01*
X160989184Y-104215654D02*
X160800062Y-104215500D01*
X160800062Y-104215500D02*
X160146977Y-104215500D01*
X160146977Y-104215500D02*
X160082495Y-104279982D01*
X160082495Y-104279982D02*
X160041223Y-104327751D01*
X160041223Y-104327751D02*
X160026651Y-104370213D01*
X160026651Y-104370213D02*
X160030529Y-104421592D01*
X160030529Y-104421592D02*
X160051075Y-104486493D01*
X160051075Y-104486493D02*
X160084017Y-104539606D01*
X160084017Y-104539606D02*
X160086615Y-104542318D01*
X160086615Y-104542318D02*
X160100621Y-104554667D01*
X160100621Y-104554667D02*
X160118380Y-104564504D01*
X160118380Y-104564504D02*
X160144626Y-104572171D01*
X160144626Y-104572171D02*
X160184098Y-104578012D01*
X160184098Y-104578012D02*
X160241531Y-104582368D01*
X160241531Y-104582368D02*
X160321663Y-104585583D01*
X160321663Y-104585583D02*
X160429230Y-104587999D01*
X160429230Y-104587999D02*
X160568969Y-104589959D01*
X160568969Y-104589959D02*
X160745618Y-104591806D01*
X160745618Y-104591806D02*
X160774567Y-104592084D01*
X160774567Y-104592084D02*
X160961665Y-104593604D01*
X160961665Y-104593604D02*
X161111168Y-104594072D01*
X161111168Y-104594072D02*
X161227808Y-104593311D01*
X161227808Y-104593311D02*
X161227808Y-104593311D01*
G36*
X160989184Y-104215654D02*
G01*
X161145930Y-104216592D01*
X161269087Y-104219017D01*
X161363083Y-104223636D01*
X161432348Y-104231152D01*
X161481313Y-104242271D01*
X161514406Y-104257699D01*
X161536057Y-104278139D01*
X161550697Y-104304297D01*
X161562755Y-104336878D01*
X161568244Y-104356142D01*
X161570102Y-104439577D01*
X161539991Y-104513726D01*
X161482555Y-104565359D01*
X161460330Y-104574399D01*
X161427845Y-104581864D01*
X161381416Y-104587386D01*
X161316314Y-104591142D01*
X161227808Y-104593311D01*
X161111168Y-104594072D01*
X160961665Y-104593604D01*
X160774567Y-104592084D01*
X160745618Y-104591806D01*
X160568969Y-104589959D01*
X160429230Y-104587999D01*
X160321663Y-104585583D01*
X160241531Y-104582368D01*
X160184098Y-104578012D01*
X160144626Y-104572171D01*
X160118380Y-104564504D01*
X160100621Y-104554667D01*
X160086615Y-104542318D01*
X160084017Y-104539606D01*
X160051075Y-104486493D01*
X160030529Y-104421592D01*
X160026651Y-104370213D01*
X160041223Y-104327751D01*
X160082495Y-104279982D01*
X160146977Y-104215500D01*
X160800062Y-104215500D01*
X160989184Y-104215654D01*
G37*
X160989184Y-104215654D02*
X161145930Y-104216592D01*
X161269087Y-104219017D01*
X161363083Y-104223636D01*
X161432348Y-104231152D01*
X161481313Y-104242271D01*
X161514406Y-104257699D01*
X161536057Y-104278139D01*
X161550697Y-104304297D01*
X161562755Y-104336878D01*
X161568244Y-104356142D01*
X161570102Y-104439577D01*
X161539991Y-104513726D01*
X161482555Y-104565359D01*
X161460330Y-104574399D01*
X161427845Y-104581864D01*
X161381416Y-104587386D01*
X161316314Y-104591142D01*
X161227808Y-104593311D01*
X161111168Y-104594072D01*
X160961665Y-104593604D01*
X160774567Y-104592084D01*
X160745618Y-104591806D01*
X160568969Y-104589959D01*
X160429230Y-104587999D01*
X160321663Y-104585583D01*
X160241531Y-104582368D01*
X160184098Y-104578012D01*
X160144626Y-104572171D01*
X160118380Y-104564504D01*
X160100621Y-104554667D01*
X160086615Y-104542318D01*
X160084017Y-104539606D01*
X160051075Y-104486493D01*
X160030529Y-104421592D01*
X160026651Y-104370213D01*
X160041223Y-104327751D01*
X160082495Y-104279982D01*
X160146977Y-104215500D01*
X160800062Y-104215500D01*
X160989184Y-104215654D01*
X156595562Y-104596386D02*
X156740819Y-104595849D01*
X156740819Y-104595849D02*
X156853173Y-104594600D01*
X156853173Y-104594600D02*
X156937341Y-104592351D01*
X156937341Y-104592351D02*
X156998038Y-104588810D01*
X156998038Y-104588810D02*
X157039980Y-104583690D01*
X157039980Y-104583690D02*
X157067881Y-104576699D01*
X157067881Y-104576699D02*
X157086459Y-104567550D01*
X157086459Y-104567550D02*
X157100428Y-104555951D01*
X157100428Y-104555951D02*
X157102233Y-104554167D01*
X157102233Y-104554167D02*
X157133310Y-104516259D01*
X157133310Y-104516259D02*
X157144567Y-104490667D01*
X157144567Y-104490667D02*
X157165546Y-104484486D01*
X157165546Y-104484486D02*
X157227761Y-104479328D01*
X157227761Y-104479328D02*
X157330124Y-104475221D01*
X157330124Y-104475221D02*
X157471548Y-104472196D01*
X157471548Y-104472196D02*
X157650947Y-104470284D01*
X157650947Y-104470284D02*
X157867234Y-104469515D01*
X157867234Y-104469515D02*
X157905140Y-104469500D01*
X157905140Y-104469500D02*
X158104560Y-104469430D01*
X158104560Y-104469430D02*
X158265794Y-104469071D01*
X158265794Y-104469071D02*
X158392990Y-104468195D01*
X158392990Y-104468195D02*
X158490294Y-104466578D01*
X158490294Y-104466578D02*
X158561856Y-104463993D01*
X158561856Y-104463993D02*
X158611821Y-104460214D01*
X158611821Y-104460214D02*
X158644338Y-104455016D01*
X158644338Y-104455016D02*
X158663554Y-104448174D01*
X158663554Y-104448174D02*
X158673616Y-104439460D01*
X158673616Y-104439460D02*
X158678672Y-104428649D01*
X158678672Y-104428649D02*
X158679090Y-104427356D01*
X158679090Y-104427356D02*
X158684367Y-104383323D01*
X158684367Y-104383323D02*
X158679267Y-104363856D01*
X158679267Y-104363856D02*
X158654214Y-104357659D01*
X158654214Y-104357659D02*
X158588278Y-104352464D01*
X158588278Y-104352464D02*
X158482900Y-104348313D01*
X158482900Y-104348313D02*
X158339520Y-104345244D01*
X158339520Y-104345244D02*
X158159578Y-104343298D01*
X158159578Y-104343298D02*
X157944514Y-104342515D01*
X157944514Y-104342515D02*
X157907786Y-104342500D01*
X157907786Y-104342500D02*
X157708431Y-104342403D01*
X157708431Y-104342403D02*
X157547285Y-104341972D01*
X157547285Y-104341972D02*
X157420224Y-104340998D01*
X157420224Y-104340998D02*
X157323125Y-104339269D01*
X157323125Y-104339269D02*
X157251863Y-104336578D01*
X157251863Y-104336578D02*
X157202314Y-104332713D01*
X157202314Y-104332713D02*
X157170354Y-104327464D01*
X157170354Y-104327464D02*
X157151859Y-104320623D01*
X157151859Y-104320623D02*
X157142706Y-104311979D01*
X157142706Y-104311979D02*
X157139278Y-104303395D01*
X157139278Y-104303395D02*
X157108713Y-104269354D01*
X157108713Y-104269354D02*
X157046851Y-104250711D01*
X157046851Y-104250711D02*
X157004939Y-104247372D01*
X157004939Y-104247372D02*
X156928077Y-104244661D01*
X156928077Y-104244661D02*
X156823171Y-104242576D01*
X156823171Y-104242576D02*
X156697125Y-104241109D01*
X156697125Y-104241109D02*
X156556847Y-104240256D01*
X156556847Y-104240256D02*
X156409242Y-104240011D01*
X156409242Y-104240011D02*
X156261216Y-104240369D01*
X156261216Y-104240369D02*
X156119675Y-104241325D01*
X156119675Y-104241325D02*
X155991524Y-104242873D01*
X155991524Y-104242873D02*
X155883671Y-104245009D01*
X155883671Y-104245009D02*
X155803020Y-104247725D01*
X155803020Y-104247725D02*
X155756477Y-104251019D01*
X155756477Y-104251019D02*
X155752052Y-104251710D01*
X155752052Y-104251710D02*
X155702141Y-104276240D01*
X155702141Y-104276240D02*
X155678169Y-104301745D01*
X155678169Y-104301745D02*
X155669778Y-104312480D01*
X155669778Y-104312480D02*
X155656581Y-104321147D01*
X155656581Y-104321147D02*
X155634349Y-104327966D01*
X155634349Y-104327966D02*
X155598855Y-104333157D01*
X155598855Y-104333157D02*
X155545872Y-104336942D01*
X155545872Y-104336942D02*
X155471171Y-104339541D01*
X155471171Y-104339541D02*
X155370525Y-104341175D01*
X155370525Y-104341175D02*
X155239706Y-104342066D01*
X155239706Y-104342066D02*
X155074487Y-104342434D01*
X155074487Y-104342434D02*
X154898073Y-104342500D01*
X154898073Y-104342500D02*
X154697969Y-104342655D01*
X154697969Y-104342655D02*
X154536114Y-104343243D01*
X154536114Y-104343243D02*
X154408426Y-104344445D01*
X154408426Y-104344445D02*
X154310822Y-104346446D01*
X154310822Y-104346446D02*
X154239218Y-104349429D01*
X154239218Y-104349429D02*
X154189532Y-104353576D01*
X154189532Y-104353576D02*
X154157681Y-104359071D01*
X154157681Y-104359071D02*
X154139581Y-104366097D01*
X154139581Y-104366097D02*
X154131150Y-104374837D01*
X154131150Y-104374837D02*
X154130216Y-104376933D01*
X154130216Y-104376933D02*
X154122779Y-104400548D01*
X154122779Y-104400548D02*
X154122901Y-104419769D01*
X154122901Y-104419769D02*
X154134343Y-104435047D01*
X154134343Y-104435047D02*
X154160865Y-104446833D01*
X154160865Y-104446833D02*
X154206227Y-104455579D01*
X154206227Y-104455579D02*
X154274191Y-104461736D01*
X154274191Y-104461736D02*
X154368517Y-104465755D01*
X154368517Y-104465755D02*
X154492966Y-104468086D01*
X154492966Y-104468086D02*
X154651298Y-104469182D01*
X154651298Y-104469182D02*
X154847274Y-104469492D01*
X154847274Y-104469492D02*
X154901863Y-104469500D01*
X154901863Y-104469500D02*
X155638477Y-104469500D01*
X155638477Y-104469500D02*
X155765477Y-104596500D01*
X155765477Y-104596500D02*
X156412688Y-104596500D01*
X156412688Y-104596500D02*
X156595562Y-104596386D01*
X156595562Y-104596386D02*
X156595562Y-104596386D01*
G36*
X156556847Y-104240256D02*
G01*
X156697125Y-104241109D01*
X156823171Y-104242576D01*
X156928077Y-104244661D01*
X157004939Y-104247372D01*
X157046851Y-104250711D01*
X157108713Y-104269354D01*
X157139278Y-104303395D01*
X157142706Y-104311979D01*
X157151859Y-104320623D01*
X157170354Y-104327464D01*
X157202314Y-104332713D01*
X157251863Y-104336578D01*
X157323125Y-104339269D01*
X157420224Y-104340998D01*
X157547285Y-104341972D01*
X157708431Y-104342403D01*
X157907786Y-104342500D01*
X157944514Y-104342515D01*
X158159578Y-104343298D01*
X158339520Y-104345244D01*
X158482900Y-104348313D01*
X158588278Y-104352464D01*
X158654214Y-104357659D01*
X158679267Y-104363856D01*
X158684367Y-104383323D01*
X158679090Y-104427356D01*
X158678672Y-104428649D01*
X158673616Y-104439460D01*
X158663554Y-104448174D01*
X158644338Y-104455016D01*
X158611821Y-104460214D01*
X158561856Y-104463993D01*
X158490294Y-104466578D01*
X158392990Y-104468195D01*
X158265794Y-104469071D01*
X158104560Y-104469430D01*
X157905140Y-104469500D01*
X157867234Y-104469515D01*
X157650947Y-104470284D01*
X157471548Y-104472196D01*
X157330124Y-104475221D01*
X157227761Y-104479328D01*
X157165546Y-104484486D01*
X157144567Y-104490667D01*
X157133310Y-104516259D01*
X157102233Y-104554167D01*
X157100428Y-104555951D01*
X157086459Y-104567550D01*
X157067881Y-104576699D01*
X157039980Y-104583690D01*
X156998038Y-104588810D01*
X156937341Y-104592351D01*
X156853173Y-104594600D01*
X156740819Y-104595849D01*
X156595562Y-104596386D01*
X156412688Y-104596500D01*
X155765477Y-104596500D01*
X155638477Y-104469500D01*
X154901863Y-104469500D01*
X154847274Y-104469492D01*
X154651298Y-104469182D01*
X154492966Y-104468086D01*
X154368517Y-104465755D01*
X154274191Y-104461736D01*
X154206227Y-104455579D01*
X154160865Y-104446833D01*
X154134343Y-104435047D01*
X154122901Y-104419769D01*
X154122779Y-104400548D01*
X154130216Y-104376933D01*
X154131150Y-104374837D01*
X154139581Y-104366097D01*
X154157681Y-104359071D01*
X154189532Y-104353576D01*
X154239218Y-104349429D01*
X154310822Y-104346446D01*
X154408426Y-104344445D01*
X154536114Y-104343243D01*
X154697969Y-104342655D01*
X154898073Y-104342500D01*
X155074487Y-104342434D01*
X155239706Y-104342066D01*
X155370525Y-104341175D01*
X155471171Y-104339541D01*
X155545872Y-104336942D01*
X155598855Y-104333157D01*
X155634349Y-104327966D01*
X155656581Y-104321147D01*
X155669778Y-104312480D01*
X155678169Y-104301745D01*
X155702141Y-104276240D01*
X155752052Y-104251710D01*
X155756477Y-104251019D01*
X155803020Y-104247725D01*
X155883671Y-104245009D01*
X155991524Y-104242873D01*
X156119675Y-104241325D01*
X156261216Y-104240369D01*
X156409242Y-104240011D01*
X156556847Y-104240256D01*
G37*
X156556847Y-104240256D02*
X156697125Y-104241109D01*
X156823171Y-104242576D01*
X156928077Y-104244661D01*
X157004939Y-104247372D01*
X157046851Y-104250711D01*
X157108713Y-104269354D01*
X157139278Y-104303395D01*
X157142706Y-104311979D01*
X157151859Y-104320623D01*
X157170354Y-104327464D01*
X157202314Y-104332713D01*
X157251863Y-104336578D01*
X157323125Y-104339269D01*
X157420224Y-104340998D01*
X157547285Y-104341972D01*
X157708431Y-104342403D01*
X157907786Y-104342500D01*
X157944514Y-104342515D01*
X158159578Y-104343298D01*
X158339520Y-104345244D01*
X158482900Y-104348313D01*
X158588278Y-104352464D01*
X158654214Y-104357659D01*
X158679267Y-104363856D01*
X158684367Y-104383323D01*
X158679090Y-104427356D01*
X158678672Y-104428649D01*
X158673616Y-104439460D01*
X158663554Y-104448174D01*
X158644338Y-104455016D01*
X158611821Y-104460214D01*
X158561856Y-104463993D01*
X158490294Y-104466578D01*
X158392990Y-104468195D01*
X158265794Y-104469071D01*
X158104560Y-104469430D01*
X157905140Y-104469500D01*
X157867234Y-104469515D01*
X157650947Y-104470284D01*
X157471548Y-104472196D01*
X157330124Y-104475221D01*
X157227761Y-104479328D01*
X157165546Y-104484486D01*
X157144567Y-104490667D01*
X157133310Y-104516259D01*
X157102233Y-104554167D01*
X157100428Y-104555951D01*
X157086459Y-104567550D01*
X157067881Y-104576699D01*
X157039980Y-104583690D01*
X156998038Y-104588810D01*
X156937341Y-104592351D01*
X156853173Y-104594600D01*
X156740819Y-104595849D01*
X156595562Y-104596386D01*
X156412688Y-104596500D01*
X155765477Y-104596500D01*
X155638477Y-104469500D01*
X154901863Y-104469500D01*
X154847274Y-104469492D01*
X154651298Y-104469182D01*
X154492966Y-104468086D01*
X154368517Y-104465755D01*
X154274191Y-104461736D01*
X154206227Y-104455579D01*
X154160865Y-104446833D01*
X154134343Y-104435047D01*
X154122901Y-104419769D01*
X154122779Y-104400548D01*
X154130216Y-104376933D01*
X154131150Y-104374837D01*
X154139581Y-104366097D01*
X154157681Y-104359071D01*
X154189532Y-104353576D01*
X154239218Y-104349429D01*
X154310822Y-104346446D01*
X154408426Y-104344445D01*
X154536114Y-104343243D01*
X154697969Y-104342655D01*
X154898073Y-104342500D01*
X155074487Y-104342434D01*
X155239706Y-104342066D01*
X155370525Y-104341175D01*
X155471171Y-104339541D01*
X155545872Y-104336942D01*
X155598855Y-104333157D01*
X155634349Y-104327966D01*
X155656581Y-104321147D01*
X155669778Y-104312480D01*
X155678169Y-104301745D01*
X155702141Y-104276240D01*
X155752052Y-104251710D01*
X155756477Y-104251019D01*
X155803020Y-104247725D01*
X155883671Y-104245009D01*
X155991524Y-104242873D01*
X156119675Y-104241325D01*
X156261216Y-104240369D01*
X156409242Y-104240011D01*
X156556847Y-104240256D01*
X157119618Y-104966917D02*
X157161242Y-104914000D01*
X157161242Y-104914000D02*
X158651891Y-104914000D01*
X158651891Y-104914000D02*
X158693515Y-104966917D01*
X158693515Y-104966917D02*
X158735139Y-105019833D01*
X158735139Y-105019833D02*
X160793307Y-105019833D01*
X160793307Y-105019833D02*
X161149840Y-105019725D01*
X161149840Y-105019725D02*
X161466133Y-105019381D01*
X161466133Y-105019381D02*
X161744280Y-105018776D01*
X161744280Y-105018776D02*
X161986374Y-105017883D01*
X161986374Y-105017883D02*
X162194509Y-105016675D01*
X162194509Y-105016675D02*
X162370778Y-105015127D01*
X162370778Y-105015127D02*
X162517275Y-105013211D01*
X162517275Y-105013211D02*
X162636092Y-105010902D01*
X162636092Y-105010902D02*
X162729324Y-105008172D01*
X162729324Y-105008172D02*
X162799063Y-105004996D01*
X162799063Y-105004996D02*
X162847403Y-105001346D01*
X162847403Y-105001346D02*
X162876438Y-104997197D01*
X162876438Y-104997197D02*
X162887348Y-104993375D01*
X162887348Y-104993375D02*
X162927719Y-104940087D01*
X162927719Y-104940087D02*
X162946135Y-104866264D01*
X162946135Y-104866264D02*
X162942577Y-104787360D01*
X162942577Y-104787360D02*
X162917029Y-104718831D01*
X162917029Y-104718831D02*
X162887693Y-104686483D01*
X162887693Y-104686483D02*
X162872993Y-104681898D01*
X162872993Y-104681898D02*
X162840775Y-104677835D01*
X162840775Y-104677835D02*
X162788942Y-104674268D01*
X162788942Y-104674268D02*
X162715396Y-104671169D01*
X162715396Y-104671169D02*
X162618041Y-104668513D01*
X162618041Y-104668513D02*
X162494782Y-104666272D01*
X162494782Y-104666272D02*
X162343520Y-104664421D01*
X162343520Y-104664421D02*
X162162160Y-104662932D01*
X162162160Y-104662932D02*
X161948604Y-104661780D01*
X161948604Y-104661780D02*
X161700756Y-104660937D01*
X161700756Y-104660937D02*
X161416520Y-104660378D01*
X161416520Y-104660378D02*
X161093799Y-104660075D01*
X161093799Y-104660075D02*
X160793283Y-104660000D01*
X160793283Y-104660000D02*
X160449638Y-104660052D01*
X160449638Y-104660052D02*
X160145860Y-104660234D01*
X160145860Y-104660234D02*
X159879485Y-104660585D01*
X159879485Y-104660585D02*
X159648047Y-104661144D01*
X159648047Y-104661144D02*
X159449080Y-104661951D01*
X159449080Y-104661951D02*
X159280118Y-104663045D01*
X159280118Y-104663045D02*
X159138697Y-104664464D01*
X159138697Y-104664464D02*
X159022351Y-104666249D01*
X159022351Y-104666249D02*
X158928613Y-104668438D01*
X158928613Y-104668438D02*
X158855020Y-104671071D01*
X158855020Y-104671071D02*
X158799104Y-104674186D01*
X158799104Y-104674186D02*
X158758402Y-104677824D01*
X158758402Y-104677824D02*
X158730446Y-104682023D01*
X158730446Y-104682023D02*
X158712772Y-104686822D01*
X158712772Y-104686822D02*
X158702914Y-104692261D01*
X158702914Y-104692261D02*
X158701828Y-104693262D01*
X158701828Y-104693262D02*
X158675111Y-104727961D01*
X158675111Y-104727961D02*
X158668567Y-104746179D01*
X158668567Y-104746179D02*
X158647957Y-104751236D01*
X158647957Y-104751236D02*
X158588349Y-104755682D01*
X158588349Y-104755682D02*
X158493076Y-104759431D01*
X158493076Y-104759431D02*
X158365469Y-104762398D01*
X158365469Y-104762398D02*
X158208861Y-104764497D01*
X158208861Y-104764497D02*
X158026583Y-104765641D01*
X158026583Y-104765641D02*
X157906567Y-104765833D01*
X157906567Y-104765833D02*
X157710517Y-104765302D01*
X157710517Y-104765302D02*
X157538142Y-104763764D01*
X157538142Y-104763764D02*
X157392774Y-104761307D01*
X157392774Y-104761307D02*
X157277745Y-104758016D01*
X157277745Y-104758016D02*
X157196387Y-104753976D01*
X157196387Y-104753976D02*
X157152032Y-104749274D01*
X157152032Y-104749274D02*
X157144567Y-104746179D01*
X157144567Y-104746179D02*
X157131058Y-104716883D01*
X157131058Y-104716883D02*
X157111305Y-104693262D01*
X157111305Y-104693262D02*
X157097399Y-104683913D01*
X157097399Y-104683913D02*
X157073482Y-104676460D01*
X157073482Y-104676460D02*
X157035157Y-104670699D01*
X157035157Y-104670699D02*
X156978024Y-104666421D01*
X156978024Y-104666421D02*
X156897685Y-104663422D01*
X156897685Y-104663422D02*
X156789741Y-104661493D01*
X156789741Y-104661493D02*
X156649794Y-104660430D01*
X156649794Y-104660430D02*
X156473445Y-104660025D01*
X156473445Y-104660025D02*
X156402709Y-104660000D01*
X156402709Y-104660000D02*
X155727376Y-104660000D01*
X155727376Y-104660000D02*
X155692703Y-104712917D01*
X155692703Y-104712917D02*
X155658031Y-104765833D01*
X155658031Y-104765833D02*
X154909794Y-104765833D01*
X154909794Y-104765833D02*
X154711940Y-104765922D01*
X154711940Y-104765922D02*
X154552192Y-104766339D01*
X154552192Y-104766339D02*
X154426324Y-104767307D01*
X154426324Y-104767307D02*
X154330108Y-104769052D01*
X154330108Y-104769052D02*
X154259318Y-104771797D01*
X154259318Y-104771797D02*
X154209726Y-104775766D01*
X154209726Y-104775766D02*
X154177105Y-104781185D01*
X154177105Y-104781185D02*
X154157230Y-104788276D01*
X154157230Y-104788276D02*
X154145871Y-104797266D01*
X154145871Y-104797266D02*
X154139687Y-104806697D01*
X154139687Y-104806697D02*
X154130451Y-104849329D01*
X154130451Y-104849329D02*
X154151037Y-104880780D01*
X154151037Y-104880780D02*
X154164414Y-104889750D01*
X154164414Y-104889750D02*
X154187542Y-104896977D01*
X154187542Y-104896977D02*
X154224620Y-104902642D01*
X154224620Y-104902642D02*
X154279847Y-104906928D01*
X154279847Y-104906928D02*
X154357422Y-104910014D01*
X154357422Y-104910014D02*
X154461542Y-104912082D01*
X154461542Y-104912082D02*
X154596408Y-104913314D01*
X154596408Y-104913314D02*
X154766217Y-104913890D01*
X154766217Y-104913890D02*
X154921144Y-104914000D01*
X154921144Y-104914000D02*
X155658031Y-104914000D01*
X155658031Y-104914000D02*
X155692703Y-104966917D01*
X155692703Y-104966917D02*
X155727376Y-105019833D01*
X155727376Y-105019833D02*
X157077994Y-105019833D01*
X157077994Y-105019833D02*
X157119618Y-104966917D01*
X157119618Y-104966917D02*
X157119618Y-104966917D01*
G36*
X156473445Y-104660025D02*
G01*
X156649794Y-104660430D01*
X156789741Y-104661493D01*
X156897685Y-104663422D01*
X156978024Y-104666421D01*
X157035157Y-104670699D01*
X157073482Y-104676460D01*
X157097399Y-104683913D01*
X157111305Y-104693262D01*
X157131058Y-104716883D01*
X157144567Y-104746179D01*
X157152032Y-104749274D01*
X157196387Y-104753976D01*
X157277745Y-104758016D01*
X157392774Y-104761307D01*
X157538142Y-104763764D01*
X157710517Y-104765302D01*
X157906567Y-104765833D01*
X158026583Y-104765641D01*
X158208861Y-104764497D01*
X158365469Y-104762398D01*
X158493076Y-104759431D01*
X158588349Y-104755682D01*
X158647957Y-104751236D01*
X158668567Y-104746179D01*
X158675111Y-104727961D01*
X158701828Y-104693262D01*
X158702914Y-104692261D01*
X158712772Y-104686822D01*
X158730446Y-104682023D01*
X158758402Y-104677824D01*
X158799104Y-104674186D01*
X158855020Y-104671071D01*
X158928613Y-104668438D01*
X159022351Y-104666249D01*
X159138697Y-104664464D01*
X159280118Y-104663045D01*
X159449080Y-104661951D01*
X159648047Y-104661144D01*
X159879485Y-104660585D01*
X160145860Y-104660234D01*
X160449638Y-104660052D01*
X160793283Y-104660000D01*
X161093799Y-104660075D01*
X161416520Y-104660378D01*
X161700756Y-104660937D01*
X161948604Y-104661780D01*
X162162160Y-104662932D01*
X162343520Y-104664421D01*
X162494782Y-104666272D01*
X162618041Y-104668513D01*
X162715396Y-104671169D01*
X162788942Y-104674268D01*
X162840775Y-104677835D01*
X162872993Y-104681898D01*
X162887693Y-104686483D01*
X162917029Y-104718831D01*
X162942577Y-104787360D01*
X162946135Y-104866264D01*
X162927719Y-104940087D01*
X162887348Y-104993375D01*
X162876438Y-104997197D01*
X162847403Y-105001346D01*
X162799063Y-105004996D01*
X162729324Y-105008172D01*
X162636092Y-105010902D01*
X162517275Y-105013211D01*
X162370778Y-105015127D01*
X162194509Y-105016675D01*
X161986374Y-105017883D01*
X161744280Y-105018776D01*
X161466133Y-105019381D01*
X161149840Y-105019725D01*
X160793307Y-105019833D01*
X158735139Y-105019833D01*
X158693515Y-104966917D01*
X158651891Y-104914000D01*
X157161242Y-104914000D01*
X157119618Y-104966917D01*
X157077994Y-105019833D01*
X155727376Y-105019833D01*
X155692703Y-104966917D01*
X155658031Y-104914000D01*
X154921144Y-104914000D01*
X154766217Y-104913890D01*
X154596408Y-104913314D01*
X154461542Y-104912082D01*
X154357422Y-104910014D01*
X154279847Y-104906928D01*
X154224620Y-104902642D01*
X154187542Y-104896977D01*
X154164414Y-104889750D01*
X154151037Y-104880780D01*
X154130451Y-104849329D01*
X154139687Y-104806697D01*
X154145871Y-104797266D01*
X154157230Y-104788276D01*
X154177105Y-104781185D01*
X154209726Y-104775766D01*
X154259318Y-104771797D01*
X154330108Y-104769052D01*
X154426324Y-104767307D01*
X154552192Y-104766339D01*
X154711940Y-104765922D01*
X154909794Y-104765833D01*
X155658031Y-104765833D01*
X155692703Y-104712917D01*
X155727376Y-104660000D01*
X156402709Y-104660000D01*
X156473445Y-104660025D01*
G37*
X156473445Y-104660025D02*
X156649794Y-104660430D01*
X156789741Y-104661493D01*
X156897685Y-104663422D01*
X156978024Y-104666421D01*
X157035157Y-104670699D01*
X157073482Y-104676460D01*
X157097399Y-104683913D01*
X157111305Y-104693262D01*
X157131058Y-104716883D01*
X157144567Y-104746179D01*
X157152032Y-104749274D01*
X157196387Y-104753976D01*
X157277745Y-104758016D01*
X157392774Y-104761307D01*
X157538142Y-104763764D01*
X157710517Y-104765302D01*
X157906567Y-104765833D01*
X158026583Y-104765641D01*
X158208861Y-104764497D01*
X158365469Y-104762398D01*
X158493076Y-104759431D01*
X158588349Y-104755682D01*
X158647957Y-104751236D01*
X158668567Y-104746179D01*
X158675111Y-104727961D01*
X158701828Y-104693262D01*
X158702914Y-104692261D01*
X158712772Y-104686822D01*
X158730446Y-104682023D01*
X158758402Y-104677824D01*
X158799104Y-104674186D01*
X158855020Y-104671071D01*
X158928613Y-104668438D01*
X159022351Y-104666249D01*
X159138697Y-104664464D01*
X159280118Y-104663045D01*
X159449080Y-104661951D01*
X159648047Y-104661144D01*
X159879485Y-104660585D01*
X160145860Y-104660234D01*
X160449638Y-104660052D01*
X160793283Y-104660000D01*
X161093799Y-104660075D01*
X161416520Y-104660378D01*
X161700756Y-104660937D01*
X161948604Y-104661780D01*
X162162160Y-104662932D01*
X162343520Y-104664421D01*
X162494782Y-104666272D01*
X162618041Y-104668513D01*
X162715396Y-104671169D01*
X162788942Y-104674268D01*
X162840775Y-104677835D01*
X162872993Y-104681898D01*
X162887693Y-104686483D01*
X162917029Y-104718831D01*
X162942577Y-104787360D01*
X162946135Y-104866264D01*
X162927719Y-104940087D01*
X162887348Y-104993375D01*
X162876438Y-104997197D01*
X162847403Y-105001346D01*
X162799063Y-105004996D01*
X162729324Y-105008172D01*
X162636092Y-105010902D01*
X162517275Y-105013211D01*
X162370778Y-105015127D01*
X162194509Y-105016675D01*
X161986374Y-105017883D01*
X161744280Y-105018776D01*
X161466133Y-105019381D01*
X161149840Y-105019725D01*
X160793307Y-105019833D01*
X158735139Y-105019833D01*
X158693515Y-104966917D01*
X158651891Y-104914000D01*
X157161242Y-104914000D01*
X157119618Y-104966917D01*
X157077994Y-105019833D01*
X155727376Y-105019833D01*
X155692703Y-104966917D01*
X155658031Y-104914000D01*
X154921144Y-104914000D01*
X154766217Y-104913890D01*
X154596408Y-104913314D01*
X154461542Y-104912082D01*
X154357422Y-104910014D01*
X154279847Y-104906928D01*
X154224620Y-104902642D01*
X154187542Y-104896977D01*
X154164414Y-104889750D01*
X154151037Y-104880780D01*
X154130451Y-104849329D01*
X154139687Y-104806697D01*
X154145871Y-104797266D01*
X154157230Y-104788276D01*
X154177105Y-104781185D01*
X154209726Y-104775766D01*
X154259318Y-104771797D01*
X154330108Y-104769052D01*
X154426324Y-104767307D01*
X154552192Y-104766339D01*
X154711940Y-104765922D01*
X154909794Y-104765833D01*
X155658031Y-104765833D01*
X155692703Y-104712917D01*
X155727376Y-104660000D01*
X156402709Y-104660000D01*
X156473445Y-104660025D01*
X162893023Y-105415318D02*
X162939336Y-105350191D01*
X162939336Y-105350191D02*
X162954089Y-105271189D01*
X162954089Y-105271189D02*
X162937280Y-105192656D01*
X162937280Y-105192656D02*
X162893023Y-105132349D01*
X162893023Y-105132349D02*
X162836039Y-105083333D01*
X162836039Y-105083333D02*
X160799346Y-105083333D01*
X160799346Y-105083333D02*
X160456990Y-105083390D01*
X160456990Y-105083390D02*
X160154477Y-105083584D01*
X160154477Y-105083584D02*
X159889321Y-105083956D01*
X159889321Y-105083956D02*
X159659030Y-105084544D01*
X159659030Y-105084544D02*
X159461117Y-105085390D01*
X159461117Y-105085390D02*
X159293092Y-105086530D01*
X159293092Y-105086530D02*
X159152467Y-105088006D01*
X159152467Y-105088006D02*
X159036753Y-105089856D01*
X159036753Y-105089856D02*
X158943459Y-105092120D01*
X158943459Y-105092120D02*
X158870099Y-105094837D01*
X158870099Y-105094837D02*
X158814182Y-105098047D01*
X158814182Y-105098047D02*
X158773220Y-105101788D01*
X158773220Y-105101788D02*
X158744723Y-105106101D01*
X158744723Y-105106101D02*
X158726203Y-105111024D01*
X158726203Y-105111024D02*
X158715610Y-105116284D01*
X158715610Y-105116284D02*
X158680416Y-105151266D01*
X158680416Y-105151266D02*
X158668567Y-105179784D01*
X158668567Y-105179784D02*
X158663516Y-105187914D01*
X158663516Y-105187914D02*
X158645805Y-105194500D01*
X158645805Y-105194500D02*
X158611597Y-105199698D01*
X158611597Y-105199698D02*
X158557053Y-105203660D01*
X158557053Y-105203660D02*
X158478334Y-105206540D01*
X158478334Y-105206540D02*
X158371604Y-105208492D01*
X158371604Y-105208492D02*
X158233023Y-105209671D01*
X158233023Y-105209671D02*
X158058755Y-105210229D01*
X158058755Y-105210229D02*
X157906567Y-105210333D01*
X157906567Y-105210333D02*
X157684242Y-105209751D01*
X157684242Y-105209751D02*
X157498640Y-105208022D01*
X157498640Y-105208022D02*
X157350846Y-105205179D01*
X157350846Y-105205179D02*
X157241942Y-105201250D01*
X157241942Y-105201250D02*
X157173013Y-105196266D01*
X157173013Y-105196266D02*
X157145144Y-105190256D01*
X157145144Y-105190256D02*
X157144567Y-105189167D01*
X157144567Y-105189167D02*
X157130904Y-105159966D01*
X157130904Y-105159966D02*
X157102233Y-105125667D01*
X157102233Y-105125667D02*
X157088621Y-105113787D01*
X157088621Y-105113787D02*
X157071072Y-105104362D01*
X157071072Y-105104362D02*
X157044905Y-105097110D01*
X157044905Y-105097110D02*
X157005442Y-105091747D01*
X157005442Y-105091747D02*
X156948003Y-105087989D01*
X156948003Y-105087989D02*
X156867910Y-105085553D01*
X156867910Y-105085553D02*
X156760483Y-105084154D01*
X156760483Y-105084154D02*
X156621043Y-105083510D01*
X156621043Y-105083510D02*
X156444911Y-105083337D01*
X156444911Y-105083337D02*
X156403733Y-105083333D01*
X156403733Y-105083333D02*
X156219479Y-105083445D01*
X156219479Y-105083445D02*
X156072879Y-105083969D01*
X156072879Y-105083969D02*
X155959254Y-105085190D01*
X155959254Y-105085190D02*
X155873924Y-105087390D01*
X155873924Y-105087390D02*
X155812210Y-105090853D01*
X155812210Y-105090853D02*
X155769434Y-105095863D01*
X155769434Y-105095863D02*
X155740916Y-105102704D01*
X155740916Y-105102704D02*
X155721977Y-105111658D01*
X155721977Y-105111658D02*
X155707938Y-105123010D01*
X155707938Y-105123010D02*
X155705233Y-105125667D01*
X155705233Y-105125667D02*
X155674156Y-105163575D01*
X155674156Y-105163575D02*
X155662900Y-105189167D01*
X155662900Y-105189167D02*
X155641924Y-105195387D01*
X155641924Y-105195387D02*
X155579738Y-105200572D01*
X155579738Y-105200572D02*
X155477453Y-105204689D01*
X155477453Y-105204689D02*
X155336180Y-105207708D01*
X155336180Y-105207708D02*
X155157029Y-105209598D01*
X155157029Y-105209598D02*
X154941112Y-105210326D01*
X154941112Y-105210326D02*
X154914075Y-105210333D01*
X154914075Y-105210333D02*
X154706532Y-105210512D01*
X154706532Y-105210512D02*
X154537585Y-105211343D01*
X154537585Y-105211343D02*
X154403498Y-105213266D01*
X154403498Y-105213266D02*
X154300534Y-105216724D01*
X154300534Y-105216724D02*
X154224957Y-105222157D01*
X154224957Y-105222157D02*
X154173029Y-105230007D01*
X154173029Y-105230007D02*
X154141015Y-105240715D01*
X154141015Y-105240715D02*
X154125178Y-105254722D01*
X154125178Y-105254722D02*
X154121781Y-105272470D01*
X154121781Y-105272470D02*
X154127088Y-105294400D01*
X154127088Y-105294400D02*
X154130216Y-105302901D01*
X154130216Y-105302901D02*
X154137099Y-105312000D01*
X154137099Y-105312000D02*
X154152762Y-105319358D01*
X154152762Y-105319358D02*
X154181274Y-105325156D01*
X154181274Y-105325156D02*
X154226705Y-105329575D01*
X154226705Y-105329575D02*
X154293123Y-105332795D01*
X154293123Y-105332795D02*
X154384597Y-105335000D01*
X154384597Y-105335000D02*
X154505198Y-105336369D01*
X154505198Y-105336369D02*
X154658992Y-105337083D01*
X154658992Y-105337083D02*
X154850051Y-105337326D01*
X154850051Y-105337326D02*
X154903164Y-105337333D01*
X154903164Y-105337333D02*
X155125101Y-105337918D01*
X155125101Y-105337918D02*
X155310329Y-105339651D01*
X155310329Y-105339651D02*
X155457759Y-105342503D01*
X155457759Y-105342503D02*
X155566304Y-105346443D01*
X155566304Y-105346443D02*
X155634874Y-105351441D01*
X155634874Y-105351441D02*
X155662382Y-105357466D01*
X155662382Y-105357466D02*
X155662900Y-105358500D01*
X155662900Y-105358500D02*
X155676562Y-105387701D01*
X155676562Y-105387701D02*
X155705233Y-105422000D01*
X155705233Y-105422000D02*
X155718845Y-105433880D01*
X155718845Y-105433880D02*
X155736395Y-105443305D01*
X155736395Y-105443305D02*
X155762562Y-105450557D01*
X155762562Y-105450557D02*
X155802025Y-105455920D01*
X155802025Y-105455920D02*
X155859463Y-105459678D01*
X155859463Y-105459678D02*
X155939556Y-105462114D01*
X155939556Y-105462114D02*
X156046983Y-105463513D01*
X156046983Y-105463513D02*
X156186423Y-105464157D01*
X156186423Y-105464157D02*
X156362555Y-105464330D01*
X156362555Y-105464330D02*
X156403733Y-105464333D01*
X156403733Y-105464333D02*
X156587987Y-105464222D01*
X156587987Y-105464222D02*
X156734587Y-105463698D01*
X156734587Y-105463698D02*
X156848213Y-105462477D01*
X156848213Y-105462477D02*
X156933543Y-105460277D01*
X156933543Y-105460277D02*
X156995256Y-105456814D01*
X156995256Y-105456814D02*
X157038032Y-105451804D01*
X157038032Y-105451804D02*
X157066550Y-105444963D01*
X157066550Y-105444963D02*
X157085489Y-105436009D01*
X157085489Y-105436009D02*
X157099528Y-105424657D01*
X157099528Y-105424657D02*
X157102233Y-105422000D01*
X157102233Y-105422000D02*
X157133310Y-105384092D01*
X157133310Y-105384092D02*
X157144567Y-105358500D01*
X157144567Y-105358500D02*
X157165547Y-105352324D01*
X157165547Y-105352324D02*
X157227765Y-105347169D01*
X157227765Y-105347169D02*
X157330137Y-105343063D01*
X157330137Y-105343063D02*
X157471579Y-105340038D01*
X157471579Y-105340038D02*
X157651008Y-105338124D01*
X157651008Y-105338124D02*
X157867339Y-105337350D01*
X157867339Y-105337350D02*
X157906567Y-105337333D01*
X157906567Y-105337333D02*
X158109353Y-105337536D01*
X158109353Y-105337536D02*
X158273645Y-105338246D01*
X158273645Y-105338246D02*
X158403282Y-105339617D01*
X158403282Y-105339617D02*
X158502101Y-105341804D01*
X158502101Y-105341804D02*
X158573940Y-105344960D01*
X158573940Y-105344960D02*
X158622637Y-105349239D01*
X158622637Y-105349239D02*
X158652031Y-105354795D01*
X158652031Y-105354795D02*
X158665959Y-105361782D01*
X158665959Y-105361782D02*
X158668567Y-105367883D01*
X158668567Y-105367883D02*
X158684477Y-105401882D01*
X158684477Y-105401882D02*
X158715610Y-105431383D01*
X158715610Y-105431383D02*
X158726977Y-105436921D01*
X158726977Y-105436921D02*
X158745964Y-105441810D01*
X158745964Y-105441810D02*
X158775061Y-105446092D01*
X158775061Y-105446092D02*
X158816755Y-105449804D01*
X158816755Y-105449804D02*
X158873536Y-105452986D01*
X158873536Y-105452986D02*
X158947894Y-105455678D01*
X158947894Y-105455678D02*
X159042316Y-105457919D01*
X159042316Y-105457919D02*
X159159291Y-105459748D01*
X159159291Y-105459748D02*
X159301310Y-105461205D01*
X159301310Y-105461205D02*
X159470860Y-105462329D01*
X159470860Y-105462329D02*
X159670431Y-105463160D01*
X159670431Y-105463160D02*
X159902512Y-105463736D01*
X159902512Y-105463736D02*
X160169591Y-105464098D01*
X160169591Y-105464098D02*
X160474158Y-105464284D01*
X160474158Y-105464284D02*
X160799346Y-105464333D01*
X160799346Y-105464333D02*
X162836039Y-105464333D01*
X162836039Y-105464333D02*
X162893023Y-105415318D01*
X162893023Y-105415318D02*
X162893023Y-105415318D01*
G36*
X162893023Y-105132349D02*
G01*
X162937280Y-105192656D01*
X162954089Y-105271189D01*
X162939336Y-105350191D01*
X162893023Y-105415318D01*
X162836039Y-105464333D01*
X160799346Y-105464333D01*
X160474158Y-105464284D01*
X160169591Y-105464098D01*
X159902512Y-105463736D01*
X159670431Y-105463160D01*
X159470860Y-105462329D01*
X159301310Y-105461205D01*
X159159291Y-105459748D01*
X159042316Y-105457919D01*
X158947894Y-105455678D01*
X158873536Y-105452986D01*
X158816755Y-105449804D01*
X158775061Y-105446092D01*
X158745964Y-105441810D01*
X158726977Y-105436921D01*
X158715610Y-105431383D01*
X158684477Y-105401882D01*
X158668567Y-105367883D01*
X158665959Y-105361782D01*
X158652031Y-105354795D01*
X158622637Y-105349239D01*
X158573940Y-105344960D01*
X158502101Y-105341804D01*
X158403282Y-105339617D01*
X158273645Y-105338246D01*
X158109353Y-105337536D01*
X157906567Y-105337333D01*
X157867339Y-105337350D01*
X157651008Y-105338124D01*
X157471579Y-105340038D01*
X157330137Y-105343063D01*
X157227765Y-105347169D01*
X157165547Y-105352324D01*
X157144567Y-105358500D01*
X157133310Y-105384092D01*
X157102233Y-105422000D01*
X157099528Y-105424657D01*
X157085489Y-105436009D01*
X157066550Y-105444963D01*
X157038032Y-105451804D01*
X156995256Y-105456814D01*
X156933543Y-105460277D01*
X156848213Y-105462477D01*
X156734587Y-105463698D01*
X156587987Y-105464222D01*
X156403733Y-105464333D01*
X156362555Y-105464330D01*
X156186423Y-105464157D01*
X156046983Y-105463513D01*
X155939556Y-105462114D01*
X155859463Y-105459678D01*
X155802025Y-105455920D01*
X155762562Y-105450557D01*
X155736395Y-105443305D01*
X155718845Y-105433880D01*
X155705233Y-105422000D01*
X155676562Y-105387701D01*
X155662900Y-105358500D01*
X155662382Y-105357466D01*
X155634874Y-105351441D01*
X155566304Y-105346443D01*
X155457759Y-105342503D01*
X155310329Y-105339651D01*
X155125101Y-105337918D01*
X154903164Y-105337333D01*
X154850051Y-105337326D01*
X154658992Y-105337083D01*
X154505198Y-105336369D01*
X154384597Y-105335000D01*
X154293123Y-105332795D01*
X154226705Y-105329575D01*
X154181274Y-105325156D01*
X154152762Y-105319358D01*
X154137099Y-105312000D01*
X154130216Y-105302901D01*
X154127088Y-105294400D01*
X154121781Y-105272470D01*
X154125178Y-105254722D01*
X154141015Y-105240715D01*
X154173029Y-105230007D01*
X154224957Y-105222157D01*
X154300534Y-105216724D01*
X154403498Y-105213266D01*
X154537585Y-105211343D01*
X154706532Y-105210512D01*
X154914075Y-105210333D01*
X154941112Y-105210326D01*
X155157029Y-105209598D01*
X155336180Y-105207708D01*
X155477453Y-105204689D01*
X155579738Y-105200572D01*
X155641924Y-105195387D01*
X155662900Y-105189167D01*
X155674156Y-105163575D01*
X155705233Y-105125667D01*
X155707938Y-105123010D01*
X155721977Y-105111658D01*
X155740916Y-105102704D01*
X155769434Y-105095863D01*
X155812210Y-105090853D01*
X155873924Y-105087390D01*
X155959254Y-105085190D01*
X156072879Y-105083969D01*
X156219479Y-105083445D01*
X156403733Y-105083333D01*
X156444911Y-105083337D01*
X156621043Y-105083510D01*
X156760483Y-105084154D01*
X156867910Y-105085553D01*
X156948003Y-105087989D01*
X157005442Y-105091747D01*
X157044905Y-105097110D01*
X157071072Y-105104362D01*
X157088621Y-105113787D01*
X157102233Y-105125667D01*
X157130904Y-105159966D01*
X157144567Y-105189167D01*
X157145144Y-105190256D01*
X157173013Y-105196266D01*
X157241942Y-105201250D01*
X157350846Y-105205179D01*
X157498640Y-105208022D01*
X157684242Y-105209751D01*
X157906567Y-105210333D01*
X158058755Y-105210229D01*
X158233023Y-105209671D01*
X158371604Y-105208492D01*
X158478334Y-105206540D01*
X158557053Y-105203660D01*
X158611597Y-105199698D01*
X158645805Y-105194500D01*
X158663516Y-105187914D01*
X158668567Y-105179784D01*
X158680416Y-105151266D01*
X158715610Y-105116284D01*
X158726203Y-105111024D01*
X158744723Y-105106101D01*
X158773220Y-105101788D01*
X158814182Y-105098047D01*
X158870099Y-105094837D01*
X158943459Y-105092120D01*
X159036753Y-105089856D01*
X159152467Y-105088006D01*
X159293092Y-105086530D01*
X159461117Y-105085390D01*
X159659030Y-105084544D01*
X159889321Y-105083956D01*
X160154477Y-105083584D01*
X160456990Y-105083390D01*
X160799346Y-105083333D01*
X162836039Y-105083333D01*
X162893023Y-105132349D01*
G37*
X162893023Y-105132349D02*
X162937280Y-105192656D01*
X162954089Y-105271189D01*
X162939336Y-105350191D01*
X162893023Y-105415318D01*
X162836039Y-105464333D01*
X160799346Y-105464333D01*
X160474158Y-105464284D01*
X160169591Y-105464098D01*
X159902512Y-105463736D01*
X159670431Y-105463160D01*
X159470860Y-105462329D01*
X159301310Y-105461205D01*
X159159291Y-105459748D01*
X159042316Y-105457919D01*
X158947894Y-105455678D01*
X158873536Y-105452986D01*
X158816755Y-105449804D01*
X158775061Y-105446092D01*
X158745964Y-105441810D01*
X158726977Y-105436921D01*
X158715610Y-105431383D01*
X158684477Y-105401882D01*
X158668567Y-105367883D01*
X158665959Y-105361782D01*
X158652031Y-105354795D01*
X158622637Y-105349239D01*
X158573940Y-105344960D01*
X158502101Y-105341804D01*
X158403282Y-105339617D01*
X158273645Y-105338246D01*
X158109353Y-105337536D01*
X157906567Y-105337333D01*
X157867339Y-105337350D01*
X157651008Y-105338124D01*
X157471579Y-105340038D01*
X157330137Y-105343063D01*
X157227765Y-105347169D01*
X157165547Y-105352324D01*
X157144567Y-105358500D01*
X157133310Y-105384092D01*
X157102233Y-105422000D01*
X157099528Y-105424657D01*
X157085489Y-105436009D01*
X157066550Y-105444963D01*
X157038032Y-105451804D01*
X156995256Y-105456814D01*
X156933543Y-105460277D01*
X156848213Y-105462477D01*
X156734587Y-105463698D01*
X156587987Y-105464222D01*
X156403733Y-105464333D01*
X156362555Y-105464330D01*
X156186423Y-105464157D01*
X156046983Y-105463513D01*
X155939556Y-105462114D01*
X155859463Y-105459678D01*
X155802025Y-105455920D01*
X155762562Y-105450557D01*
X155736395Y-105443305D01*
X155718845Y-105433880D01*
X155705233Y-105422000D01*
X155676562Y-105387701D01*
X155662900Y-105358500D01*
X155662382Y-105357466D01*
X155634874Y-105351441D01*
X155566304Y-105346443D01*
X155457759Y-105342503D01*
X155310329Y-105339651D01*
X155125101Y-105337918D01*
X154903164Y-105337333D01*
X154850051Y-105337326D01*
X154658992Y-105337083D01*
X154505198Y-105336369D01*
X154384597Y-105335000D01*
X154293123Y-105332795D01*
X154226705Y-105329575D01*
X154181274Y-105325156D01*
X154152762Y-105319358D01*
X154137099Y-105312000D01*
X154130216Y-105302901D01*
X154127088Y-105294400D01*
X154121781Y-105272470D01*
X154125178Y-105254722D01*
X154141015Y-105240715D01*
X154173029Y-105230007D01*
X154224957Y-105222157D01*
X154300534Y-105216724D01*
X154403498Y-105213266D01*
X154537585Y-105211343D01*
X154706532Y-105210512D01*
X154914075Y-105210333D01*
X154941112Y-105210326D01*
X155157029Y-105209598D01*
X155336180Y-105207708D01*
X155477453Y-105204689D01*
X155579738Y-105200572D01*
X155641924Y-105195387D01*
X155662900Y-105189167D01*
X155674156Y-105163575D01*
X155705233Y-105125667D01*
X155707938Y-105123010D01*
X155721977Y-105111658D01*
X155740916Y-105102704D01*
X155769434Y-105095863D01*
X155812210Y-105090853D01*
X155873924Y-105087390D01*
X155959254Y-105085190D01*
X156072879Y-105083969D01*
X156219479Y-105083445D01*
X156403733Y-105083333D01*
X156444911Y-105083337D01*
X156621043Y-105083510D01*
X156760483Y-105084154D01*
X156867910Y-105085553D01*
X156948003Y-105087989D01*
X157005442Y-105091747D01*
X157044905Y-105097110D01*
X157071072Y-105104362D01*
X157088621Y-105113787D01*
X157102233Y-105125667D01*
X157130904Y-105159966D01*
X157144567Y-105189167D01*
X157145144Y-105190256D01*
X157173013Y-105196266D01*
X157241942Y-105201250D01*
X157350846Y-105205179D01*
X157498640Y-105208022D01*
X157684242Y-105209751D01*
X157906567Y-105210333D01*
X158058755Y-105210229D01*
X158233023Y-105209671D01*
X158371604Y-105208492D01*
X158478334Y-105206540D01*
X158557053Y-105203660D01*
X158611597Y-105199698D01*
X158645805Y-105194500D01*
X158663516Y-105187914D01*
X158668567Y-105179784D01*
X158680416Y-105151266D01*
X158715610Y-105116284D01*
X158726203Y-105111024D01*
X158744723Y-105106101D01*
X158773220Y-105101788D01*
X158814182Y-105098047D01*
X158870099Y-105094837D01*
X158943459Y-105092120D01*
X159036753Y-105089856D01*
X159152467Y-105088006D01*
X159293092Y-105086530D01*
X159461117Y-105085390D01*
X159659030Y-105084544D01*
X159889321Y-105083956D01*
X160154477Y-105083584D01*
X160456990Y-105083390D01*
X160799346Y-105083333D01*
X162836039Y-105083333D01*
X162893023Y-105132349D01*
X156592762Y-105887442D02*
X156744881Y-105886632D01*
X156744881Y-105886632D02*
X156863466Y-105885028D01*
X156863466Y-105885028D02*
X156952915Y-105882424D01*
X156952915Y-105882424D02*
X157017627Y-105878615D01*
X157017627Y-105878615D02*
X157062000Y-105873394D01*
X157062000Y-105873394D02*
X157090433Y-105866553D01*
X157090433Y-105866553D02*
X157107325Y-105857888D01*
X157107325Y-105857888D02*
X157111305Y-105854405D01*
X157111305Y-105854405D02*
X157138022Y-105819706D01*
X157138022Y-105819706D02*
X157144567Y-105801488D01*
X157144567Y-105801488D02*
X157165174Y-105796417D01*
X157165174Y-105796417D02*
X157224763Y-105791960D01*
X157224763Y-105791960D02*
X157319987Y-105788204D01*
X157319987Y-105788204D02*
X157447497Y-105785237D01*
X157447497Y-105785237D02*
X157603947Y-105783144D01*
X157603947Y-105783144D02*
X157785988Y-105782014D01*
X157785988Y-105782014D02*
X157901475Y-105781833D01*
X157901475Y-105781833D02*
X158100478Y-105781910D01*
X158100478Y-105781910D02*
X158261379Y-105782291D01*
X158261379Y-105782291D02*
X158388407Y-105783206D01*
X158388407Y-105783206D02*
X158485795Y-105784884D01*
X158485795Y-105784884D02*
X158557771Y-105787552D01*
X158557771Y-105787552D02*
X158608568Y-105791440D01*
X158608568Y-105791440D02*
X158642415Y-105796776D01*
X158642415Y-105796776D02*
X158663543Y-105803789D01*
X158663543Y-105803789D02*
X158676183Y-105812707D01*
X158676183Y-105812707D02*
X158684566Y-105823759D01*
X158684566Y-105823759D02*
X158684821Y-105824167D01*
X158684821Y-105824167D02*
X158689838Y-105831157D01*
X158689838Y-105831157D02*
X158697297Y-105837332D01*
X158697297Y-105837332D02*
X158709700Y-105842743D01*
X158709700Y-105842743D02*
X158729550Y-105847439D01*
X158729550Y-105847439D02*
X158759351Y-105851472D01*
X158759351Y-105851472D02*
X158801605Y-105854892D01*
X158801605Y-105854892D02*
X158858814Y-105857749D01*
X158858814Y-105857749D02*
X158933483Y-105860094D01*
X158933483Y-105860094D02*
X159028113Y-105861978D01*
X159028113Y-105861978D02*
X159145207Y-105863451D01*
X159145207Y-105863451D02*
X159287269Y-105864564D01*
X159287269Y-105864564D02*
X159456801Y-105865366D01*
X159456801Y-105865366D02*
X159656306Y-105865910D01*
X159656306Y-105865910D02*
X159888286Y-105866244D01*
X159888286Y-105866244D02*
X160155246Y-105866420D01*
X160155246Y-105866420D02*
X160459687Y-105866489D01*
X160459687Y-105866489D02*
X160781723Y-105866500D01*
X160781723Y-105866500D02*
X162852187Y-105866500D01*
X162852187Y-105866500D02*
X162898210Y-105817511D01*
X162898210Y-105817511D02*
X162935914Y-105751050D01*
X162935914Y-105751050D02*
X162944054Y-105674074D01*
X162944054Y-105674074D02*
X162922649Y-105602561D01*
X162922649Y-105602561D02*
X162897909Y-105570991D01*
X162897909Y-105570991D02*
X162889656Y-105563845D01*
X162889656Y-105563845D02*
X162879484Y-105557535D01*
X162879484Y-105557535D02*
X162864858Y-105552008D01*
X162864858Y-105552008D02*
X162843243Y-105547214D01*
X162843243Y-105547214D02*
X162812105Y-105543099D01*
X162812105Y-105543099D02*
X162768907Y-105539612D01*
X162768907Y-105539612D02*
X162711117Y-105536701D01*
X162711117Y-105536701D02*
X162636198Y-105534314D01*
X162636198Y-105534314D02*
X162541616Y-105532399D01*
X162541616Y-105532399D02*
X162424836Y-105530905D01*
X162424836Y-105530905D02*
X162283324Y-105529778D01*
X162283324Y-105529778D02*
X162114545Y-105528967D01*
X162114545Y-105528967D02*
X161915963Y-105528420D01*
X161915963Y-105528420D02*
X161685045Y-105528085D01*
X161685045Y-105528085D02*
X161419254Y-105527910D01*
X161419254Y-105527910D02*
X161116057Y-105527844D01*
X161116057Y-105527844D02*
X160793362Y-105527833D01*
X160793362Y-105527833D02*
X158735139Y-105527833D01*
X158735139Y-105527833D02*
X158651891Y-105633667D01*
X158651891Y-105633667D02*
X157161242Y-105633667D01*
X157161242Y-105633667D02*
X157077994Y-105527833D01*
X157077994Y-105527833D02*
X155727376Y-105527833D01*
X155727376Y-105527833D02*
X155692703Y-105580750D01*
X155692703Y-105580750D02*
X155658031Y-105633667D01*
X155658031Y-105633667D02*
X154921144Y-105633667D01*
X154921144Y-105633667D02*
X154721984Y-105633866D01*
X154721984Y-105633866D02*
X154560958Y-105634582D01*
X154560958Y-105634582D02*
X154433866Y-105635999D01*
X154433866Y-105635999D02*
X154336510Y-105638295D01*
X154336510Y-105638295D02*
X154264691Y-105641653D01*
X154264691Y-105641653D02*
X154214209Y-105646254D01*
X154214209Y-105646254D02*
X154180868Y-105652278D01*
X154180868Y-105652278D02*
X154160467Y-105659907D01*
X154160467Y-105659907D02*
X154151037Y-105666887D01*
X154151037Y-105666887D02*
X154129394Y-105705235D01*
X154129394Y-105705235D02*
X154139687Y-105740970D01*
X154139687Y-105740970D02*
X154147098Y-105751773D01*
X154147098Y-105751773D02*
X154159387Y-105760485D01*
X154159387Y-105760485D02*
X154180782Y-105767331D01*
X154180782Y-105767331D02*
X154215509Y-105772534D01*
X154215509Y-105772534D02*
X154267795Y-105776320D01*
X154267795Y-105776320D02*
X154341867Y-105778912D01*
X154341867Y-105778912D02*
X154441952Y-105780536D01*
X154441952Y-105780536D02*
X154572277Y-105781414D01*
X154572277Y-105781414D02*
X154737069Y-105781771D01*
X154737069Y-105781771D02*
X154909794Y-105781833D01*
X154909794Y-105781833D02*
X155658031Y-105781833D01*
X155658031Y-105781833D02*
X155692703Y-105834750D01*
X155692703Y-105834750D02*
X155727376Y-105887667D01*
X155727376Y-105887667D02*
X156402709Y-105887667D01*
X156402709Y-105887667D02*
X156592762Y-105887442D01*
X156592762Y-105887442D02*
X156592762Y-105887442D01*
G36*
X157161242Y-105633667D02*
G01*
X158651891Y-105633667D01*
X158735139Y-105527833D01*
X160793362Y-105527833D01*
X161116057Y-105527844D01*
X161419254Y-105527910D01*
X161685045Y-105528085D01*
X161915963Y-105528420D01*
X162114545Y-105528967D01*
X162283324Y-105529778D01*
X162424836Y-105530905D01*
X162541616Y-105532399D01*
X162636198Y-105534314D01*
X162711117Y-105536701D01*
X162768907Y-105539612D01*
X162812105Y-105543099D01*
X162843243Y-105547214D01*
X162864858Y-105552008D01*
X162879484Y-105557535D01*
X162889656Y-105563845D01*
X162897909Y-105570991D01*
X162922649Y-105602561D01*
X162944054Y-105674074D01*
X162935914Y-105751050D01*
X162898210Y-105817511D01*
X162852187Y-105866500D01*
X160781723Y-105866500D01*
X160459687Y-105866489D01*
X160155246Y-105866420D01*
X159888286Y-105866244D01*
X159656306Y-105865910D01*
X159456801Y-105865366D01*
X159287269Y-105864564D01*
X159145207Y-105863451D01*
X159028113Y-105861978D01*
X158933483Y-105860094D01*
X158858814Y-105857749D01*
X158801605Y-105854892D01*
X158759351Y-105851472D01*
X158729550Y-105847439D01*
X158709700Y-105842743D01*
X158697297Y-105837332D01*
X158689838Y-105831157D01*
X158684821Y-105824167D01*
X158684566Y-105823759D01*
X158676183Y-105812707D01*
X158663543Y-105803789D01*
X158642415Y-105796776D01*
X158608568Y-105791440D01*
X158557771Y-105787552D01*
X158485795Y-105784884D01*
X158388407Y-105783206D01*
X158261379Y-105782291D01*
X158100478Y-105781910D01*
X157901475Y-105781833D01*
X157785988Y-105782014D01*
X157603947Y-105783144D01*
X157447497Y-105785237D01*
X157319987Y-105788204D01*
X157224763Y-105791960D01*
X157165174Y-105796417D01*
X157144567Y-105801488D01*
X157138022Y-105819706D01*
X157111305Y-105854405D01*
X157107325Y-105857888D01*
X157090433Y-105866553D01*
X157062000Y-105873394D01*
X157017627Y-105878615D01*
X156952915Y-105882424D01*
X156863466Y-105885028D01*
X156744881Y-105886632D01*
X156592762Y-105887442D01*
X156402709Y-105887667D01*
X155727376Y-105887667D01*
X155692703Y-105834750D01*
X155658031Y-105781833D01*
X154909794Y-105781833D01*
X154737069Y-105781771D01*
X154572277Y-105781414D01*
X154441952Y-105780536D01*
X154341867Y-105778912D01*
X154267795Y-105776320D01*
X154215509Y-105772534D01*
X154180782Y-105767331D01*
X154159387Y-105760485D01*
X154147098Y-105751773D01*
X154139687Y-105740970D01*
X154129394Y-105705235D01*
X154151037Y-105666887D01*
X154160467Y-105659907D01*
X154180868Y-105652278D01*
X154214209Y-105646254D01*
X154264691Y-105641653D01*
X154336510Y-105638295D01*
X154433866Y-105635999D01*
X154560958Y-105634582D01*
X154721984Y-105633866D01*
X154921144Y-105633667D01*
X155658031Y-105633667D01*
X155692703Y-105580750D01*
X155727376Y-105527833D01*
X157077994Y-105527833D01*
X157161242Y-105633667D01*
G37*
X157161242Y-105633667D02*
X158651891Y-105633667D01*
X158735139Y-105527833D01*
X160793362Y-105527833D01*
X161116057Y-105527844D01*
X161419254Y-105527910D01*
X161685045Y-105528085D01*
X161915963Y-105528420D01*
X162114545Y-105528967D01*
X162283324Y-105529778D01*
X162424836Y-105530905D01*
X162541616Y-105532399D01*
X162636198Y-105534314D01*
X162711117Y-105536701D01*
X162768907Y-105539612D01*
X162812105Y-105543099D01*
X162843243Y-105547214D01*
X162864858Y-105552008D01*
X162879484Y-105557535D01*
X162889656Y-105563845D01*
X162897909Y-105570991D01*
X162922649Y-105602561D01*
X162944054Y-105674074D01*
X162935914Y-105751050D01*
X162898210Y-105817511D01*
X162852187Y-105866500D01*
X160781723Y-105866500D01*
X160459687Y-105866489D01*
X160155246Y-105866420D01*
X159888286Y-105866244D01*
X159656306Y-105865910D01*
X159456801Y-105865366D01*
X159287269Y-105864564D01*
X159145207Y-105863451D01*
X159028113Y-105861978D01*
X158933483Y-105860094D01*
X158858814Y-105857749D01*
X158801605Y-105854892D01*
X158759351Y-105851472D01*
X158729550Y-105847439D01*
X158709700Y-105842743D01*
X158697297Y-105837332D01*
X158689838Y-105831157D01*
X158684821Y-105824167D01*
X158684566Y-105823759D01*
X158676183Y-105812707D01*
X158663543Y-105803789D01*
X158642415Y-105796776D01*
X158608568Y-105791440D01*
X158557771Y-105787552D01*
X158485795Y-105784884D01*
X158388407Y-105783206D01*
X158261379Y-105782291D01*
X158100478Y-105781910D01*
X157901475Y-105781833D01*
X157785988Y-105782014D01*
X157603947Y-105783144D01*
X157447497Y-105785237D01*
X157319987Y-105788204D01*
X157224763Y-105791960D01*
X157165174Y-105796417D01*
X157144567Y-105801488D01*
X157138022Y-105819706D01*
X157111305Y-105854405D01*
X157107325Y-105857888D01*
X157090433Y-105866553D01*
X157062000Y-105873394D01*
X157017627Y-105878615D01*
X156952915Y-105882424D01*
X156863466Y-105885028D01*
X156744881Y-105886632D01*
X156592762Y-105887442D01*
X156402709Y-105887667D01*
X155727376Y-105887667D01*
X155692703Y-105834750D01*
X155658031Y-105781833D01*
X154909794Y-105781833D01*
X154737069Y-105781771D01*
X154572277Y-105781414D01*
X154441952Y-105780536D01*
X154341867Y-105778912D01*
X154267795Y-105776320D01*
X154215509Y-105772534D01*
X154180782Y-105767331D01*
X154159387Y-105760485D01*
X154147098Y-105751773D01*
X154139687Y-105740970D01*
X154129394Y-105705235D01*
X154151037Y-105666887D01*
X154160467Y-105659907D01*
X154180868Y-105652278D01*
X154214209Y-105646254D01*
X154264691Y-105641653D01*
X154336510Y-105638295D01*
X154433866Y-105635999D01*
X154560958Y-105634582D01*
X154721984Y-105633866D01*
X154921144Y-105633667D01*
X155658031Y-105633667D01*
X155692703Y-105580750D01*
X155727376Y-105527833D01*
X157077994Y-105527833D01*
X157161242Y-105633667D01*
%TD*%
D15*
%TO.C,J40*%
X146354320Y-76077200D03*
X153852400Y-76079740D03*
X161350480Y-76077200D03*
X148856220Y-78579100D03*
X158848580Y-78579100D03*
%TD*%
%TO.C,J90*%
X168754320Y-75977200D03*
X176252400Y-75979740D03*
X183750480Y-75977200D03*
X171256220Y-78479100D03*
X181248580Y-78479100D03*
%TD*%
M02*
