%TF.GenerationSoftware,KiCad,Pcbnew,(6.0.2)*%
%TF.CreationDate,2022-05-28T15:24:10-04:00*%
%TF.ProjectId,bottom,626f7474-6f6d-42e6-9b69-6361645f7063,3.4*%
%TF.SameCoordinates,Original*%
%TF.FileFunction,Legend,Top*%
%TF.FilePolarity,Positive*%
%FSLAX46Y46*%
G04 Gerber Fmt 4.6, Leading zero omitted, Abs format (unit mm)*
G04 Created by KiCad (PCBNEW (6.0.2)) date 2022-05-28 15:24:10*
%MOMM*%
%LPD*%
G01*
G04 APERTURE LIST*
%ADD10C,0.200000*%
%ADD11C,0.300000*%
%ADD12C,0.125000*%
%ADD13C,0.150000*%
%ADD14C,0.121920*%
%ADD15C,0.120000*%
%ADD16C,0.100000*%
%ADD17C,0.127000*%
%ADD18C,0.304800*%
%ADD19C,0.203200*%
%ADD20C,2.499360*%
G04 APERTURE END LIST*
D10*
X144409860Y-134741904D02*
X144362240Y-134837142D01*
X144362240Y-134980000D01*
X144409860Y-135122857D01*
X144505098Y-135218095D01*
X144600336Y-135265714D01*
X144790812Y-135313333D01*
X144933669Y-135313333D01*
X145124145Y-135265714D01*
X145219383Y-135218095D01*
X145314621Y-135122857D01*
X145362240Y-134980000D01*
X145362240Y-134884761D01*
X145314621Y-134741904D01*
X145267002Y-134694285D01*
X144933669Y-134694285D01*
X144933669Y-134884761D01*
X145362240Y-134265714D02*
X144362240Y-134265714D01*
X145362240Y-133694285D01*
X144362240Y-133694285D01*
X145362240Y-133218095D02*
X144362240Y-133218095D01*
X144362240Y-132980000D01*
X144409860Y-132837142D01*
X144505098Y-132741904D01*
X144600336Y-132694285D01*
X144790812Y-132646666D01*
X144933669Y-132646666D01*
X145124145Y-132694285D01*
X145219383Y-132741904D01*
X145314621Y-132837142D01*
X145362240Y-132980000D01*
X145362240Y-133218095D01*
X152835733Y-109182380D02*
X152502400Y-108706190D01*
X152264304Y-109182380D02*
X152264304Y-108182380D01*
X152645257Y-108182380D01*
X152740495Y-108230000D01*
X152788114Y-108277619D01*
X152835733Y-108372857D01*
X152835733Y-108515714D01*
X152788114Y-108610952D01*
X152740495Y-108658571D01*
X152645257Y-108706190D01*
X152264304Y-108706190D01*
X153169066Y-108182380D02*
X153835733Y-109182380D01*
X153835733Y-108182380D02*
X153169066Y-109182380D01*
X154490495Y-108232380D02*
X155061923Y-108232380D01*
X154776209Y-109232380D02*
X154776209Y-108232380D01*
X155300019Y-108232380D02*
X155966685Y-109232380D01*
X155966685Y-108232380D02*
X155300019Y-109232380D01*
X145562240Y-127265714D02*
X144562240Y-127265714D01*
X145562240Y-126694285D01*
X144562240Y-126694285D01*
X145467002Y-125646666D02*
X145514621Y-125694285D01*
X145562240Y-125837142D01*
X145562240Y-125932380D01*
X145514621Y-126075238D01*
X145419383Y-126170476D01*
X145324145Y-126218095D01*
X145133669Y-126265714D01*
X144990812Y-126265714D01*
X144800336Y-126218095D01*
X144705098Y-126170476D01*
X144609860Y-126075238D01*
X144562240Y-125932380D01*
X144562240Y-125837142D01*
X144609860Y-125694285D01*
X144657479Y-125646666D01*
X157211923Y-108232380D02*
X156735733Y-108232380D01*
X156688114Y-108708571D01*
X156735733Y-108660952D01*
X156830971Y-108613333D01*
X157069066Y-108613333D01*
X157164304Y-108660952D01*
X157211923Y-108708571D01*
X157259542Y-108803809D01*
X157259542Y-109041904D01*
X157211923Y-109137142D01*
X157164304Y-109184761D01*
X157069066Y-109232380D01*
X156830971Y-109232380D01*
X156735733Y-109184761D01*
X156688114Y-109137142D01*
X157545257Y-108232380D02*
X157878590Y-109232380D01*
X158211923Y-108232380D01*
X149540495Y-108280000D02*
X149445257Y-108232380D01*
X149302400Y-108232380D01*
X149159542Y-108280000D01*
X149064304Y-108375238D01*
X149016685Y-108470476D01*
X148969066Y-108660952D01*
X148969066Y-108803809D01*
X149016685Y-108994285D01*
X149064304Y-109089523D01*
X149159542Y-109184761D01*
X149302400Y-109232380D01*
X149397638Y-109232380D01*
X149540495Y-109184761D01*
X149588114Y-109137142D01*
X149588114Y-108803809D01*
X149397638Y-108803809D01*
X150016685Y-109232380D02*
X150016685Y-108232380D01*
X150588114Y-109232380D01*
X150588114Y-108232380D01*
X151064304Y-109232380D02*
X151064304Y-108232380D01*
X151302400Y-108232380D01*
X151445257Y-108280000D01*
X151540495Y-108375238D01*
X151588114Y-108470476D01*
X151635733Y-108660952D01*
X151635733Y-108803809D01*
X151588114Y-108994285D01*
X151540495Y-109089523D01*
X151445257Y-109184761D01*
X151302400Y-109232380D01*
X151064304Y-109232380D01*
X143427764Y-129889523D02*
X144075383Y-129889523D01*
X144151574Y-129851428D01*
X144189669Y-129813333D01*
X144227764Y-129737142D01*
X144227764Y-129584761D01*
X144189669Y-129508571D01*
X144151574Y-129470476D01*
X144075383Y-129432380D01*
X143427764Y-129432380D01*
X144189669Y-129089523D02*
X144227764Y-128975238D01*
X144227764Y-128784761D01*
X144189669Y-128708571D01*
X144151574Y-128670476D01*
X144075383Y-128632380D01*
X143999193Y-128632380D01*
X143923002Y-128670476D01*
X143884907Y-128708571D01*
X143846812Y-128784761D01*
X143808717Y-128937142D01*
X143770621Y-129013333D01*
X143732526Y-129051428D01*
X143656336Y-129089523D01*
X143580145Y-129089523D01*
X143503955Y-129051428D01*
X143465860Y-129013333D01*
X143427764Y-128937142D01*
X143427764Y-128746666D01*
X143465860Y-128632380D01*
X143808717Y-128022857D02*
X143846812Y-127908571D01*
X143884907Y-127870476D01*
X143961098Y-127832380D01*
X144075383Y-127832380D01*
X144151574Y-127870476D01*
X144189669Y-127908571D01*
X144227764Y-127984761D01*
X144227764Y-128289523D01*
X143427764Y-128289523D01*
X143427764Y-128022857D01*
X143465860Y-127946666D01*
X143503955Y-127908571D01*
X143580145Y-127870476D01*
X143656336Y-127870476D01*
X143732526Y-127908571D01*
X143770621Y-127946666D01*
X143808717Y-128022857D01*
X143808717Y-128289523D01*
X145211002Y-129184761D02*
X145211002Y-128575238D01*
X143427764Y-132489523D02*
X144075383Y-132489523D01*
X144151574Y-132451428D01*
X144189669Y-132413333D01*
X144227764Y-132337142D01*
X144227764Y-132184761D01*
X144189669Y-132108571D01*
X144151574Y-132070476D01*
X144075383Y-132032380D01*
X143427764Y-132032380D01*
X144189669Y-131689523D02*
X144227764Y-131575238D01*
X144227764Y-131384761D01*
X144189669Y-131308571D01*
X144151574Y-131270476D01*
X144075383Y-131232380D01*
X143999193Y-131232380D01*
X143923002Y-131270476D01*
X143884907Y-131308571D01*
X143846812Y-131384761D01*
X143808717Y-131537142D01*
X143770621Y-131613333D01*
X143732526Y-131651428D01*
X143656336Y-131689523D01*
X143580145Y-131689523D01*
X143503955Y-131651428D01*
X143465860Y-131613333D01*
X143427764Y-131537142D01*
X143427764Y-131346666D01*
X143465860Y-131232380D01*
X143808717Y-130622857D02*
X143846812Y-130508571D01*
X143884907Y-130470476D01*
X143961098Y-130432380D01*
X144075383Y-130432380D01*
X144151574Y-130470476D01*
X144189669Y-130508571D01*
X144227764Y-130584761D01*
X144227764Y-130889523D01*
X143427764Y-130889523D01*
X143427764Y-130622857D01*
X143465860Y-130546666D01*
X143503955Y-130508571D01*
X143580145Y-130470476D01*
X143656336Y-130470476D01*
X143732526Y-130508571D01*
X143770621Y-130546666D01*
X143808717Y-130622857D01*
X143808717Y-130889523D01*
X145211002Y-131784761D02*
X145211002Y-131175238D01*
X145515764Y-131480000D02*
X144906240Y-131480000D01*
D11*
X156702717Y-133972857D02*
X156917002Y-134044285D01*
X156988431Y-134115714D01*
X157059860Y-134258571D01*
X157059860Y-134472857D01*
X156988431Y-134615714D01*
X156917002Y-134687142D01*
X156774145Y-134758571D01*
X156202717Y-134758571D01*
X156202717Y-133258571D01*
X156702717Y-133258571D01*
X156845574Y-133330000D01*
X156917002Y-133401428D01*
X156988431Y-133544285D01*
X156988431Y-133687142D01*
X156917002Y-133830000D01*
X156845574Y-133901428D01*
X156702717Y-133972857D01*
X156202717Y-133972857D01*
X157917002Y-134758571D02*
X157774145Y-134687142D01*
X157702717Y-134615714D01*
X157631288Y-134472857D01*
X157631288Y-134044285D01*
X157702717Y-133901428D01*
X157774145Y-133830000D01*
X157917002Y-133758571D01*
X158131288Y-133758571D01*
X158274145Y-133830000D01*
X158345574Y-133901428D01*
X158417002Y-134044285D01*
X158417002Y-134472857D01*
X158345574Y-134615714D01*
X158274145Y-134687142D01*
X158131288Y-134758571D01*
X157917002Y-134758571D01*
X158845574Y-133758571D02*
X159417002Y-133758571D01*
X159059860Y-133258571D02*
X159059860Y-134544285D01*
X159131288Y-134687142D01*
X159274145Y-134758571D01*
X159417002Y-134758571D01*
X159702717Y-133758571D02*
X160274145Y-133758571D01*
X159917002Y-133258571D02*
X159917002Y-134544285D01*
X159988431Y-134687142D01*
X160131288Y-134758571D01*
X160274145Y-134758571D01*
X160988431Y-134758571D02*
X160845574Y-134687142D01*
X160774145Y-134615714D01*
X160702717Y-134472857D01*
X160702717Y-134044285D01*
X160774145Y-133901428D01*
X160845574Y-133830000D01*
X160988431Y-133758571D01*
X161202717Y-133758571D01*
X161345574Y-133830000D01*
X161417002Y-133901428D01*
X161488431Y-134044285D01*
X161488431Y-134472857D01*
X161417002Y-134615714D01*
X161345574Y-134687142D01*
X161202717Y-134758571D01*
X160988431Y-134758571D01*
X162131288Y-134758571D02*
X162131288Y-133758571D01*
X162131288Y-133901428D02*
X162202717Y-133830000D01*
X162345574Y-133758571D01*
X162559860Y-133758571D01*
X162702717Y-133830000D01*
X162774145Y-133972857D01*
X162774145Y-134758571D01*
X162774145Y-133972857D02*
X162845574Y-133830000D01*
X162988431Y-133758571D01*
X163202717Y-133758571D01*
X163345574Y-133830000D01*
X163417002Y-133972857D01*
X163417002Y-134758571D01*
D12*
X174619383Y-116515714D02*
X175000336Y-116515714D01*
X174809860Y-116706190D02*
X174809860Y-116325238D01*
X141219383Y-135315714D02*
X141600336Y-135315714D01*
X141409860Y-135506190D02*
X141409860Y-135125238D01*
X184219383Y-86915714D02*
X184600336Y-86915714D01*
X184409860Y-87106190D02*
X184409860Y-86725238D01*
D13*
%TO.C,R10*%
X186362240Y-88722857D02*
X185886050Y-89056190D01*
X186362240Y-89294285D02*
X185362240Y-89294285D01*
X185362240Y-88913333D01*
X185409860Y-88818095D01*
X185457479Y-88770476D01*
X185552717Y-88722857D01*
X185695574Y-88722857D01*
X185790812Y-88770476D01*
X185838431Y-88818095D01*
X185886050Y-88913333D01*
X185886050Y-89294285D01*
X186362240Y-87770476D02*
X186362240Y-88341904D01*
X186362240Y-88056190D02*
X185362240Y-88056190D01*
X185505098Y-88151428D01*
X185600336Y-88246666D01*
X185647955Y-88341904D01*
X185362240Y-87151428D02*
X185362240Y-87056190D01*
X185409860Y-86960952D01*
X185457479Y-86913333D01*
X185552717Y-86865714D01*
X185743193Y-86818095D01*
X185981288Y-86818095D01*
X186171764Y-86865714D01*
X186267002Y-86913333D01*
X186314621Y-86960952D01*
X186362240Y-87056190D01*
X186362240Y-87151428D01*
X186314621Y-87246666D01*
X186267002Y-87294285D01*
X186171764Y-87341904D01*
X185981288Y-87389523D01*
X185743193Y-87389523D01*
X185552717Y-87341904D01*
X185457479Y-87294285D01*
X185409860Y-87246666D01*
X185362240Y-87151428D01*
%TO.C,R3*%
X175662240Y-82346666D02*
X175186050Y-82680000D01*
X175662240Y-82918095D02*
X174662240Y-82918095D01*
X174662240Y-82537142D01*
X174709860Y-82441904D01*
X174757479Y-82394285D01*
X174852717Y-82346666D01*
X174995574Y-82346666D01*
X175090812Y-82394285D01*
X175138431Y-82441904D01*
X175186050Y-82537142D01*
X175186050Y-82918095D01*
X174662240Y-82013333D02*
X174662240Y-81394285D01*
X175043193Y-81727619D01*
X175043193Y-81584761D01*
X175090812Y-81489523D01*
X175138431Y-81441904D01*
X175233669Y-81394285D01*
X175471764Y-81394285D01*
X175567002Y-81441904D01*
X175614621Y-81489523D01*
X175662240Y-81584761D01*
X175662240Y-81870476D01*
X175614621Y-81965714D01*
X175567002Y-82013333D01*
%TO.C,R12*%
X170462240Y-134822857D02*
X169986050Y-135156190D01*
X170462240Y-135394285D02*
X169462240Y-135394285D01*
X169462240Y-135013333D01*
X169509860Y-134918095D01*
X169557479Y-134870476D01*
X169652717Y-134822857D01*
X169795574Y-134822857D01*
X169890812Y-134870476D01*
X169938431Y-134918095D01*
X169986050Y-135013333D01*
X169986050Y-135394285D01*
X170462240Y-133870476D02*
X170462240Y-134441904D01*
X170462240Y-134156190D02*
X169462240Y-134156190D01*
X169605098Y-134251428D01*
X169700336Y-134346666D01*
X169747955Y-134441904D01*
X169557479Y-133489523D02*
X169509860Y-133441904D01*
X169462240Y-133346666D01*
X169462240Y-133108571D01*
X169509860Y-133013333D01*
X169557479Y-132965714D01*
X169652717Y-132918095D01*
X169747955Y-132918095D01*
X169890812Y-132965714D01*
X170462240Y-133537142D01*
X170462240Y-132918095D01*
%TO.C,H2*%
X119340495Y-129382380D02*
X119340495Y-128382380D01*
X119340495Y-128858571D02*
X119911923Y-128858571D01*
X119911923Y-129382380D02*
X119911923Y-128382380D01*
X120340495Y-128477619D02*
X120388114Y-128430000D01*
X120483352Y-128382380D01*
X120721447Y-128382380D01*
X120816685Y-128430000D01*
X120864304Y-128477619D01*
X120911923Y-128572857D01*
X120911923Y-128668095D01*
X120864304Y-128810952D01*
X120292876Y-129382380D01*
X120911923Y-129382380D01*
%TO.C,H3*%
X119316095Y-95282380D02*
X119316095Y-94282380D01*
X119316095Y-94758571D02*
X119887523Y-94758571D01*
X119887523Y-95282380D02*
X119887523Y-94282380D01*
X120268476Y-94282380D02*
X120887523Y-94282380D01*
X120554190Y-94663333D01*
X120697047Y-94663333D01*
X120792285Y-94710952D01*
X120839904Y-94758571D01*
X120887523Y-94853809D01*
X120887523Y-95091904D01*
X120839904Y-95187142D01*
X120792285Y-95234761D01*
X120697047Y-95282380D01*
X120411333Y-95282380D01*
X120316095Y-95234761D01*
X120268476Y-95187142D01*
%TO.C,R8*%
X162362240Y-89746666D02*
X161886050Y-90080000D01*
X162362240Y-90318095D02*
X161362240Y-90318095D01*
X161362240Y-89937142D01*
X161409860Y-89841904D01*
X161457479Y-89794285D01*
X161552717Y-89746666D01*
X161695574Y-89746666D01*
X161790812Y-89794285D01*
X161838431Y-89841904D01*
X161886050Y-89937142D01*
X161886050Y-90318095D01*
X161790812Y-89175238D02*
X161743193Y-89270476D01*
X161695574Y-89318095D01*
X161600336Y-89365714D01*
X161552717Y-89365714D01*
X161457479Y-89318095D01*
X161409860Y-89270476D01*
X161362240Y-89175238D01*
X161362240Y-88984761D01*
X161409860Y-88889523D01*
X161457479Y-88841904D01*
X161552717Y-88794285D01*
X161600336Y-88794285D01*
X161695574Y-88841904D01*
X161743193Y-88889523D01*
X161790812Y-88984761D01*
X161790812Y-89175238D01*
X161838431Y-89270476D01*
X161886050Y-89318095D01*
X161981288Y-89365714D01*
X162171764Y-89365714D01*
X162267002Y-89318095D01*
X162314621Y-89270476D01*
X162362240Y-89175238D01*
X162362240Y-88984761D01*
X162314621Y-88889523D01*
X162267002Y-88841904D01*
X162171764Y-88794285D01*
X161981288Y-88794285D01*
X161886050Y-88841904D01*
X161838431Y-88889523D01*
X161790812Y-88984761D01*
%TO.C,C2*%
X160067002Y-89746666D02*
X160114621Y-89794285D01*
X160162240Y-89937142D01*
X160162240Y-90032380D01*
X160114621Y-90175238D01*
X160019383Y-90270476D01*
X159924145Y-90318095D01*
X159733669Y-90365714D01*
X159590812Y-90365714D01*
X159400336Y-90318095D01*
X159305098Y-90270476D01*
X159209860Y-90175238D01*
X159162240Y-90032380D01*
X159162240Y-89937142D01*
X159209860Y-89794285D01*
X159257479Y-89746666D01*
X159257479Y-89365714D02*
X159209860Y-89318095D01*
X159162240Y-89222857D01*
X159162240Y-88984761D01*
X159209860Y-88889523D01*
X159257479Y-88841904D01*
X159352717Y-88794285D01*
X159447955Y-88794285D01*
X159590812Y-88841904D01*
X160162240Y-89413333D01*
X160162240Y-88794285D01*
%TO.C,U5*%
X157847955Y-130932380D02*
X157847955Y-131741904D01*
X157895574Y-131837142D01*
X157943193Y-131884761D01*
X158038431Y-131932380D01*
X158228907Y-131932380D01*
X158324145Y-131884761D01*
X158371764Y-131837142D01*
X158419383Y-131741904D01*
X158419383Y-130932380D01*
X159371764Y-130932380D02*
X158895574Y-130932380D01*
X158847955Y-131408571D01*
X158895574Y-131360952D01*
X158990812Y-131313333D01*
X159228907Y-131313333D01*
X159324145Y-131360952D01*
X159371764Y-131408571D01*
X159419383Y-131503809D01*
X159419383Y-131741904D01*
X159371764Y-131837142D01*
X159324145Y-131884761D01*
X159228907Y-131932380D01*
X158990812Y-131932380D01*
X158895574Y-131884761D01*
X158847955Y-131837142D01*
X153797955Y-138846666D02*
X154274145Y-138846666D01*
X153702717Y-139132380D02*
X154036050Y-138132380D01*
X154369383Y-139132380D01*
X154702717Y-138465714D02*
X154702717Y-139132380D01*
X154702717Y-138560952D02*
X154750336Y-138513333D01*
X154845574Y-138465714D01*
X154988431Y-138465714D01*
X155083669Y-138513333D01*
X155131288Y-138608571D01*
X155131288Y-139132380D01*
X155464621Y-138465714D02*
X155845574Y-138465714D01*
X155607479Y-138132380D02*
X155607479Y-138989523D01*
X155655098Y-139084761D01*
X155750336Y-139132380D01*
X155845574Y-139132380D01*
X156559860Y-139084761D02*
X156464621Y-139132380D01*
X156274145Y-139132380D01*
X156178907Y-139084761D01*
X156131288Y-138989523D01*
X156131288Y-138608571D01*
X156178907Y-138513333D01*
X156274145Y-138465714D01*
X156464621Y-138465714D01*
X156559860Y-138513333D01*
X156607479Y-138608571D01*
X156607479Y-138703809D01*
X156131288Y-138799047D01*
X157036050Y-138465714D02*
X157036050Y-139132380D01*
X157036050Y-138560952D02*
X157083669Y-138513333D01*
X157178907Y-138465714D01*
X157321764Y-138465714D01*
X157417002Y-138513333D01*
X157464621Y-138608571D01*
X157464621Y-139132380D01*
X157940812Y-138465714D02*
X157940812Y-139132380D01*
X157940812Y-138560952D02*
X157988431Y-138513333D01*
X158083669Y-138465714D01*
X158226526Y-138465714D01*
X158321764Y-138513333D01*
X158369383Y-138608571D01*
X158369383Y-139132380D01*
X159274145Y-139132380D02*
X159274145Y-138608571D01*
X159226526Y-138513333D01*
X159131288Y-138465714D01*
X158940812Y-138465714D01*
X158845574Y-138513333D01*
X159274145Y-139084761D02*
X159178907Y-139132380D01*
X158940812Y-139132380D01*
X158845574Y-139084761D01*
X158797955Y-138989523D01*
X158797955Y-138894285D01*
X158845574Y-138799047D01*
X158940812Y-138751428D01*
X159178907Y-138751428D01*
X159274145Y-138703809D01*
X160464621Y-138846666D02*
X160940812Y-138846666D01*
X160369383Y-139132380D02*
X160702717Y-138132380D01*
X161036050Y-139132380D01*
X161369383Y-139132380D02*
X161369383Y-138465714D01*
X161369383Y-138656190D02*
X161417002Y-138560952D01*
X161464621Y-138513333D01*
X161559860Y-138465714D01*
X161655098Y-138465714D01*
X162369383Y-139084761D02*
X162274145Y-139132380D01*
X162083669Y-139132380D01*
X161988431Y-139084761D01*
X161940812Y-138989523D01*
X161940812Y-138608571D01*
X161988431Y-138513333D01*
X162083669Y-138465714D01*
X162274145Y-138465714D01*
X162369383Y-138513333D01*
X162417002Y-138608571D01*
X162417002Y-138703809D01*
X161940812Y-138799047D01*
X163274145Y-139132380D02*
X163274145Y-138608571D01*
X163226526Y-138513333D01*
X163131288Y-138465714D01*
X162940812Y-138465714D01*
X162845574Y-138513333D01*
X163274145Y-139084761D02*
X163178907Y-139132380D01*
X162940812Y-139132380D01*
X162845574Y-139084761D01*
X162797955Y-138989523D01*
X162797955Y-138894285D01*
X162845574Y-138799047D01*
X162940812Y-138751428D01*
X163178907Y-138751428D01*
X163274145Y-138703809D01*
%TO.C,C8*%
X168243193Y-117537142D02*
X168195574Y-117584761D01*
X168052717Y-117632380D01*
X167957479Y-117632380D01*
X167814621Y-117584761D01*
X167719383Y-117489523D01*
X167671764Y-117394285D01*
X167624145Y-117203809D01*
X167624145Y-117060952D01*
X167671764Y-116870476D01*
X167719383Y-116775238D01*
X167814621Y-116680000D01*
X167957479Y-116632380D01*
X168052717Y-116632380D01*
X168195574Y-116680000D01*
X168243193Y-116727619D01*
X168814621Y-117060952D02*
X168719383Y-117013333D01*
X168671764Y-116965714D01*
X168624145Y-116870476D01*
X168624145Y-116822857D01*
X168671764Y-116727619D01*
X168719383Y-116680000D01*
X168814621Y-116632380D01*
X169005098Y-116632380D01*
X169100336Y-116680000D01*
X169147955Y-116727619D01*
X169195574Y-116822857D01*
X169195574Y-116870476D01*
X169147955Y-116965714D01*
X169100336Y-117013333D01*
X169005098Y-117060952D01*
X168814621Y-117060952D01*
X168719383Y-117108571D01*
X168671764Y-117156190D01*
X168624145Y-117251428D01*
X168624145Y-117441904D01*
X168671764Y-117537142D01*
X168719383Y-117584761D01*
X168814621Y-117632380D01*
X169005098Y-117632380D01*
X169100336Y-117584761D01*
X169147955Y-117537142D01*
X169195574Y-117441904D01*
X169195574Y-117251428D01*
X169147955Y-117156190D01*
X169100336Y-117108571D01*
X169005098Y-117060952D01*
%TO.C,J31*%
X183592876Y-89402380D02*
X183592876Y-90116666D01*
X183545257Y-90259523D01*
X183450019Y-90354761D01*
X183307161Y-90402380D01*
X183211923Y-90402380D01*
X183973828Y-89402380D02*
X184592876Y-89402380D01*
X184259542Y-89783333D01*
X184402400Y-89783333D01*
X184497638Y-89830952D01*
X184545257Y-89878571D01*
X184592876Y-89973809D01*
X184592876Y-90211904D01*
X184545257Y-90307142D01*
X184497638Y-90354761D01*
X184402400Y-90402380D01*
X184116685Y-90402380D01*
X184021447Y-90354761D01*
X183973828Y-90307142D01*
X185545257Y-90402380D02*
X184973828Y-90402380D01*
X185259542Y-90402380D02*
X185259542Y-89402380D01*
X185164304Y-89545238D01*
X185069066Y-89640476D01*
X184973828Y-89688095D01*
%TO.C,C1*%
X171159542Y-90046666D02*
X171207161Y-90094285D01*
X171254780Y-90237142D01*
X171254780Y-90332380D01*
X171207161Y-90475238D01*
X171111923Y-90570476D01*
X171016685Y-90618095D01*
X170826209Y-90665714D01*
X170683352Y-90665714D01*
X170492876Y-90618095D01*
X170397638Y-90570476D01*
X170302400Y-90475238D01*
X170254780Y-90332380D01*
X170254780Y-90237142D01*
X170302400Y-90094285D01*
X170350019Y-90046666D01*
X171254780Y-89094285D02*
X171254780Y-89665714D01*
X171254780Y-89380000D02*
X170254780Y-89380000D01*
X170397638Y-89475238D01*
X170492876Y-89570476D01*
X170540495Y-89665714D01*
%TO.C,U2*%
X172915495Y-85207380D02*
X172915495Y-86016904D01*
X172963114Y-86112142D01*
X173010733Y-86159761D01*
X173105971Y-86207380D01*
X173296447Y-86207380D01*
X173391685Y-86159761D01*
X173439304Y-86112142D01*
X173486923Y-86016904D01*
X173486923Y-85207380D01*
X173915495Y-85302619D02*
X173963114Y-85255000D01*
X174058352Y-85207380D01*
X174296447Y-85207380D01*
X174391685Y-85255000D01*
X174439304Y-85302619D01*
X174486923Y-85397857D01*
X174486923Y-85493095D01*
X174439304Y-85635952D01*
X173867876Y-86207380D01*
X174486923Y-86207380D01*
%TO.C,U3*%
X152947955Y-88832380D02*
X152947955Y-89641904D01*
X152995574Y-89737142D01*
X153043193Y-89784761D01*
X153138431Y-89832380D01*
X153328907Y-89832380D01*
X153424145Y-89784761D01*
X153471764Y-89737142D01*
X153519383Y-89641904D01*
X153519383Y-88832380D01*
X153900336Y-88832380D02*
X154519383Y-88832380D01*
X154186050Y-89213333D01*
X154328907Y-89213333D01*
X154424145Y-89260952D01*
X154471764Y-89308571D01*
X154519383Y-89403809D01*
X154519383Y-89641904D01*
X154471764Y-89737142D01*
X154424145Y-89784761D01*
X154328907Y-89832380D01*
X154043193Y-89832380D01*
X153947955Y-89784761D01*
X153900336Y-89737142D01*
%TO.C,U1*%
X131441315Y-97953700D02*
X131441315Y-98763224D01*
X131488934Y-98858462D01*
X131536553Y-98906081D01*
X131631791Y-98953700D01*
X131822267Y-98953700D01*
X131917505Y-98906081D01*
X131965124Y-98858462D01*
X132012743Y-98763224D01*
X132012743Y-97953700D01*
X133012743Y-98953700D02*
X132441315Y-98953700D01*
X132727029Y-98953700D02*
X132727029Y-97953700D01*
X132631791Y-98096558D01*
X132536553Y-98191796D01*
X132441315Y-98239415D01*
X129104646Y-101004926D02*
X129104646Y-100304926D01*
X129337980Y-100804926D01*
X129571313Y-100304926D01*
X129571313Y-101004926D01*
X129904646Y-101004926D02*
X129904646Y-100304926D01*
X130237980Y-101004926D02*
X130237980Y-100304926D01*
X130471313Y-100804926D01*
X130704646Y-100304926D01*
X130704646Y-101004926D01*
X130971313Y-100304926D02*
X131437980Y-101004926D01*
X131437980Y-100304926D02*
X130971313Y-101004926D01*
X132104646Y-101004926D02*
X131871313Y-100671593D01*
X131704646Y-101004926D02*
X131704646Y-100304926D01*
X131971313Y-100304926D01*
X132037980Y-100338260D01*
X132071313Y-100371593D01*
X132104646Y-100438260D01*
X132104646Y-100538260D01*
X132071313Y-100604926D01*
X132037980Y-100638260D01*
X131971313Y-100671593D01*
X131704646Y-100671593D01*
X132304646Y-100304926D02*
X132704646Y-100304926D01*
X132504646Y-101004926D02*
X132504646Y-100304926D01*
X133304646Y-101004926D02*
X132904646Y-101004926D01*
X133104646Y-101004926D02*
X133104646Y-100304926D01*
X133037980Y-100404926D01*
X132971313Y-100471593D01*
X132904646Y-100504926D01*
X133737980Y-100304926D02*
X133804646Y-100304926D01*
X133871313Y-100338260D01*
X133904646Y-100371593D01*
X133937980Y-100438260D01*
X133971313Y-100571593D01*
X133971313Y-100738260D01*
X133937980Y-100871593D01*
X133904646Y-100938260D01*
X133871313Y-100971593D01*
X133804646Y-101004926D01*
X133737980Y-101004926D01*
X133671313Y-100971593D01*
X133637980Y-100938260D01*
X133604646Y-100871593D01*
X133571313Y-100738260D01*
X133571313Y-100571593D01*
X133604646Y-100438260D01*
X133637980Y-100371593D01*
X133671313Y-100338260D01*
X133737980Y-100304926D01*
X134571313Y-100304926D02*
X134437980Y-100304926D01*
X134371313Y-100338260D01*
X134337980Y-100371593D01*
X134271313Y-100471593D01*
X134237980Y-100604926D01*
X134237980Y-100871593D01*
X134271313Y-100938260D01*
X134304646Y-100971593D01*
X134371313Y-101004926D01*
X134504646Y-101004926D01*
X134571313Y-100971593D01*
X134604646Y-100938260D01*
X134637980Y-100871593D01*
X134637980Y-100704926D01*
X134604646Y-100638260D01*
X134571313Y-100604926D01*
X134504646Y-100571593D01*
X134371313Y-100571593D01*
X134304646Y-100604926D01*
X134271313Y-100638260D01*
X134237980Y-100704926D01*
X134904646Y-100371593D02*
X134937980Y-100338260D01*
X135004646Y-100304926D01*
X135171313Y-100304926D01*
X135237980Y-100338260D01*
X135271313Y-100371593D01*
X135304646Y-100438260D01*
X135304646Y-100504926D01*
X135271313Y-100604926D01*
X134871313Y-101004926D01*
X135304646Y-101004926D01*
X129381352Y-126947040D02*
X129381352Y-125947040D01*
X129714685Y-126661326D01*
X130048019Y-125947040D01*
X130048019Y-126947040D01*
X130524209Y-126947040D02*
X130524209Y-126280374D01*
X130524209Y-125947040D02*
X130476590Y-125994660D01*
X130524209Y-126042279D01*
X130571828Y-125994660D01*
X130524209Y-125947040D01*
X130524209Y-126042279D01*
X131428971Y-126899421D02*
X131333733Y-126947040D01*
X131143257Y-126947040D01*
X131048019Y-126899421D01*
X131000400Y-126851802D01*
X130952780Y-126756564D01*
X130952780Y-126470850D01*
X131000400Y-126375612D01*
X131048019Y-126327993D01*
X131143257Y-126280374D01*
X131333733Y-126280374D01*
X131428971Y-126327993D01*
X131857542Y-126947040D02*
X131857542Y-126280374D01*
X131857542Y-126470850D02*
X131905161Y-126375612D01*
X131952780Y-126327993D01*
X132048019Y-126280374D01*
X132143257Y-126280374D01*
X132619447Y-126947040D02*
X132524209Y-126899421D01*
X132476590Y-126851802D01*
X132428971Y-126756564D01*
X132428971Y-126470850D01*
X132476590Y-126375612D01*
X132524209Y-126327993D01*
X132619447Y-126280374D01*
X132762304Y-126280374D01*
X132857542Y-126327993D01*
X132905161Y-126375612D01*
X132952780Y-126470850D01*
X132952780Y-126756564D01*
X132905161Y-126851802D01*
X132857542Y-126899421D01*
X132762304Y-126947040D01*
X132619447Y-126947040D01*
X134095638Y-126899421D02*
X134238495Y-126947040D01*
X134476590Y-126947040D01*
X134571828Y-126899421D01*
X134619447Y-126851802D01*
X134667066Y-126756564D01*
X134667066Y-126661326D01*
X134619447Y-126566088D01*
X134571828Y-126518469D01*
X134476590Y-126470850D01*
X134286114Y-126423231D01*
X134190876Y-126375612D01*
X134143257Y-126327993D01*
X134095638Y-126232755D01*
X134095638Y-126137517D01*
X134143257Y-126042279D01*
X134190876Y-125994660D01*
X134286114Y-125947040D01*
X134524209Y-125947040D01*
X134667066Y-125994660D01*
X135095638Y-126947040D02*
X135095638Y-125947040D01*
X135333733Y-125947040D01*
X135476590Y-125994660D01*
X135571828Y-126089898D01*
X135619447Y-126185136D01*
X135667066Y-126375612D01*
X135667066Y-126518469D01*
X135619447Y-126708945D01*
X135571828Y-126804183D01*
X135476590Y-126899421D01*
X135333733Y-126947040D01*
X135095638Y-126947040D01*
X130727955Y-77232380D02*
X130727955Y-78041904D01*
X130775574Y-78137142D01*
X130823193Y-78184761D01*
X130918431Y-78232380D01*
X131108907Y-78232380D01*
X131204145Y-78184761D01*
X131251764Y-78137142D01*
X131299383Y-78041904D01*
X131299383Y-77232380D01*
X131727955Y-78184761D02*
X131870812Y-78232380D01*
X132108907Y-78232380D01*
X132204145Y-78184761D01*
X132251764Y-78137142D01*
X132299383Y-78041904D01*
X132299383Y-77946666D01*
X132251764Y-77851428D01*
X132204145Y-77803809D01*
X132108907Y-77756190D01*
X131918431Y-77708571D01*
X131823193Y-77660952D01*
X131775574Y-77613333D01*
X131727955Y-77518095D01*
X131727955Y-77422857D01*
X131775574Y-77327619D01*
X131823193Y-77280000D01*
X131918431Y-77232380D01*
X132156526Y-77232380D01*
X132299383Y-77280000D01*
X133061288Y-77708571D02*
X133204145Y-77756190D01*
X133251764Y-77803809D01*
X133299383Y-77899047D01*
X133299383Y-78041904D01*
X133251764Y-78137142D01*
X133204145Y-78184761D01*
X133108907Y-78232380D01*
X132727955Y-78232380D01*
X132727955Y-77232380D01*
X133061288Y-77232380D01*
X133156526Y-77280000D01*
X133204145Y-77327619D01*
X133251764Y-77422857D01*
X133251764Y-77518095D01*
X133204145Y-77613333D01*
X133156526Y-77660952D01*
X133061288Y-77708571D01*
X132727955Y-77708571D01*
X128953040Y-89293723D02*
X129762564Y-89293723D01*
X129857802Y-89246104D01*
X129905421Y-89198485D01*
X129953040Y-89103247D01*
X129953040Y-88912771D01*
X129905421Y-88817533D01*
X129857802Y-88769914D01*
X129762564Y-88722295D01*
X128953040Y-88722295D01*
X129905421Y-88293723D02*
X129953040Y-88150866D01*
X129953040Y-87912771D01*
X129905421Y-87817533D01*
X129857802Y-87769914D01*
X129762564Y-87722295D01*
X129667326Y-87722295D01*
X129572088Y-87769914D01*
X129524469Y-87817533D01*
X129476850Y-87912771D01*
X129429231Y-88103247D01*
X129381612Y-88198485D01*
X129333993Y-88246104D01*
X129238755Y-88293723D01*
X129143517Y-88293723D01*
X129048279Y-88246104D01*
X129000660Y-88198485D01*
X128953040Y-88103247D01*
X128953040Y-87865152D01*
X129000660Y-87722295D01*
X129429231Y-86960390D02*
X129476850Y-86817533D01*
X129524469Y-86769914D01*
X129619707Y-86722295D01*
X129762564Y-86722295D01*
X129857802Y-86769914D01*
X129905421Y-86817533D01*
X129953040Y-86912771D01*
X129953040Y-87293723D01*
X128953040Y-87293723D01*
X128953040Y-86960390D01*
X129000660Y-86865152D01*
X129048279Y-86817533D01*
X129143517Y-86769914D01*
X129238755Y-86769914D01*
X129333993Y-86817533D01*
X129381612Y-86865152D01*
X129429231Y-86960390D01*
X129429231Y-87293723D01*
X129953040Y-85531819D02*
X128953040Y-85531819D01*
X129429231Y-85531819D02*
X129429231Y-84960390D01*
X129953040Y-84960390D02*
X128953040Y-84960390D01*
X129953040Y-84341342D02*
X129905421Y-84436580D01*
X129857802Y-84484200D01*
X129762564Y-84531819D01*
X129476850Y-84531819D01*
X129381612Y-84484200D01*
X129333993Y-84436580D01*
X129286374Y-84341342D01*
X129286374Y-84198485D01*
X129333993Y-84103247D01*
X129381612Y-84055628D01*
X129476850Y-84008009D01*
X129762564Y-84008009D01*
X129857802Y-84055628D01*
X129905421Y-84103247D01*
X129953040Y-84198485D01*
X129953040Y-84341342D01*
X129905421Y-83627057D02*
X129953040Y-83531819D01*
X129953040Y-83341342D01*
X129905421Y-83246104D01*
X129810183Y-83198485D01*
X129762564Y-83198485D01*
X129667326Y-83246104D01*
X129619707Y-83341342D01*
X129619707Y-83484200D01*
X129572088Y-83579438D01*
X129476850Y-83627057D01*
X129429231Y-83627057D01*
X129333993Y-83579438D01*
X129286374Y-83484200D01*
X129286374Y-83341342D01*
X129333993Y-83246104D01*
X129286374Y-82912771D02*
X129286374Y-82531819D01*
X128953040Y-82769914D02*
X129810183Y-82769914D01*
X129905421Y-82722295D01*
X129953040Y-82627057D01*
X129953040Y-82531819D01*
X130786526Y-100006706D02*
X130786526Y-99306706D01*
X130953193Y-99306706D01*
X131053193Y-99340040D01*
X131119860Y-99406706D01*
X131153193Y-99473373D01*
X131186526Y-99606706D01*
X131186526Y-99706706D01*
X131153193Y-99840040D01*
X131119860Y-99906706D01*
X131053193Y-99973373D01*
X130953193Y-100006706D01*
X130786526Y-100006706D01*
X131386526Y-99306706D02*
X131619860Y-100006706D01*
X131853193Y-99306706D01*
X132286526Y-99306706D02*
X132286526Y-99806706D01*
X132253193Y-99906706D01*
X132186526Y-99973373D01*
X132086526Y-100006706D01*
X132019860Y-100006706D01*
X132919860Y-99306706D02*
X132786526Y-99306706D01*
X132719860Y-99340040D01*
X132686526Y-99373373D01*
X132619860Y-99473373D01*
X132586526Y-99606706D01*
X132586526Y-99873373D01*
X132619860Y-99940040D01*
X132653193Y-99973373D01*
X132719860Y-100006706D01*
X132853193Y-100006706D01*
X132919860Y-99973373D01*
X132953193Y-99940040D01*
X132986526Y-99873373D01*
X132986526Y-99706706D01*
X132953193Y-99640040D01*
X132919860Y-99606706D01*
X132853193Y-99573373D01*
X132719860Y-99573373D01*
X132653193Y-99606706D01*
X132619860Y-99640040D01*
X132586526Y-99706706D01*
X133253193Y-99806706D02*
X133586526Y-99806706D01*
X133186526Y-100006706D02*
X133419860Y-99306706D01*
X133653193Y-100006706D01*
%TO.C,J32*%
X114392876Y-89402380D02*
X114392876Y-90116666D01*
X114345257Y-90259523D01*
X114250019Y-90354761D01*
X114107161Y-90402380D01*
X114011923Y-90402380D01*
X114773828Y-89402380D02*
X115392876Y-89402380D01*
X115059542Y-89783333D01*
X115202400Y-89783333D01*
X115297638Y-89830952D01*
X115345257Y-89878571D01*
X115392876Y-89973809D01*
X115392876Y-90211904D01*
X115345257Y-90307142D01*
X115297638Y-90354761D01*
X115202400Y-90402380D01*
X114916685Y-90402380D01*
X114821447Y-90354761D01*
X114773828Y-90307142D01*
X115773828Y-89497619D02*
X115821447Y-89450000D01*
X115916685Y-89402380D01*
X116154780Y-89402380D01*
X116250019Y-89450000D01*
X116297638Y-89497619D01*
X116345257Y-89592857D01*
X116345257Y-89688095D01*
X116297638Y-89830952D01*
X115726209Y-90402380D01*
X116345257Y-90402380D01*
%TO.C,U4*%
X170647955Y-111332380D02*
X170647955Y-112141904D01*
X170695574Y-112237142D01*
X170743193Y-112284761D01*
X170838431Y-112332380D01*
X171028907Y-112332380D01*
X171124145Y-112284761D01*
X171171764Y-112237142D01*
X171219383Y-112141904D01*
X171219383Y-111332380D01*
X172124145Y-111665714D02*
X172124145Y-112332380D01*
X171886050Y-111284761D02*
X171647955Y-111999047D01*
X172267002Y-111999047D01*
%TO.C,C4*%
X178467002Y-114246666D02*
X178514621Y-114294285D01*
X178562240Y-114437142D01*
X178562240Y-114532380D01*
X178514621Y-114675238D01*
X178419383Y-114770476D01*
X178324145Y-114818095D01*
X178133669Y-114865714D01*
X177990812Y-114865714D01*
X177800336Y-114818095D01*
X177705098Y-114770476D01*
X177609860Y-114675238D01*
X177562240Y-114532380D01*
X177562240Y-114437142D01*
X177609860Y-114294285D01*
X177657479Y-114246666D01*
X177895574Y-113389523D02*
X178562240Y-113389523D01*
X177514621Y-113627619D02*
X178228907Y-113865714D01*
X178228907Y-113246666D01*
%TO.C,D1*%
X152914304Y-85187520D02*
X152914304Y-84187520D01*
X153152400Y-84187520D01*
X153295257Y-84235140D01*
X153390495Y-84330378D01*
X153438114Y-84425616D01*
X153485733Y-84616092D01*
X153485733Y-84758949D01*
X153438114Y-84949425D01*
X153390495Y-85044663D01*
X153295257Y-85139901D01*
X153152400Y-85187520D01*
X152914304Y-85187520D01*
X154438114Y-85187520D02*
X153866685Y-85187520D01*
X154152400Y-85187520D02*
X154152400Y-84187520D01*
X154057161Y-84330378D01*
X153961923Y-84425616D01*
X153866685Y-84473235D01*
X153430495Y-83132380D02*
X153430495Y-82132380D01*
X154001923Y-83132380D02*
X153573352Y-82560952D01*
X154001923Y-82132380D02*
X153430495Y-82703809D01*
%TO.C,C7*%
X169443193Y-121137142D02*
X169395574Y-121184761D01*
X169252717Y-121232380D01*
X169157479Y-121232380D01*
X169014621Y-121184761D01*
X168919383Y-121089523D01*
X168871764Y-120994285D01*
X168824145Y-120803809D01*
X168824145Y-120660952D01*
X168871764Y-120470476D01*
X168919383Y-120375238D01*
X169014621Y-120280000D01*
X169157479Y-120232380D01*
X169252717Y-120232380D01*
X169395574Y-120280000D01*
X169443193Y-120327619D01*
X169776526Y-120232380D02*
X170443193Y-120232380D01*
X170014621Y-121232380D01*
%TO.C,D2*%
X184062240Y-88318095D02*
X183062240Y-88318095D01*
X183062240Y-88080000D01*
X183109860Y-87937142D01*
X183205098Y-87841904D01*
X183300336Y-87794285D01*
X183490812Y-87746666D01*
X183633669Y-87746666D01*
X183824145Y-87794285D01*
X183919383Y-87841904D01*
X184014621Y-87937142D01*
X184062240Y-88080000D01*
X184062240Y-88318095D01*
X183157479Y-87365714D02*
X183109860Y-87318095D01*
X183062240Y-87222857D01*
X183062240Y-86984761D01*
X183109860Y-86889523D01*
X183157479Y-86841904D01*
X183252717Y-86794285D01*
X183347955Y-86794285D01*
X183490812Y-86841904D01*
X184062240Y-87413333D01*
X184062240Y-86794285D01*
D14*
%TO.C,S1*%
X160134202Y-113906222D02*
X160299665Y-113464988D01*
X160465128Y-113906222D01*
X160520282Y-113189217D02*
X159941162Y-113189217D01*
X160520282Y-112858291D01*
X159941162Y-112858291D01*
X160520282Y-112334325D02*
X160216934Y-112334325D01*
X160161780Y-112361902D01*
X160134202Y-112417057D01*
X160134202Y-112527365D01*
X160161780Y-112582520D01*
X160492705Y-112334325D02*
X160520282Y-112389480D01*
X160520282Y-112527365D01*
X160492705Y-112582520D01*
X160437551Y-112610097D01*
X160382397Y-112610097D01*
X160327242Y-112582520D01*
X160299665Y-112527365D01*
X160299665Y-112389480D01*
X160272088Y-112334325D01*
X160520282Y-112058554D02*
X160134202Y-112058554D01*
X160189357Y-112058554D02*
X160161780Y-112030977D01*
X160134202Y-111975822D01*
X160134202Y-111893091D01*
X160161780Y-111837937D01*
X160216934Y-111810360D01*
X160520282Y-111810360D01*
X160216934Y-111810360D02*
X160161780Y-111782782D01*
X160134202Y-111727628D01*
X160134202Y-111644897D01*
X160161780Y-111589742D01*
X160216934Y-111562165D01*
X160520282Y-111562165D01*
X160492705Y-111065777D02*
X160520282Y-111120931D01*
X160520282Y-111231240D01*
X160492705Y-111286394D01*
X160437551Y-111313971D01*
X160216934Y-111313971D01*
X160161780Y-111286394D01*
X160134202Y-111231240D01*
X160134202Y-111120931D01*
X160161780Y-111065777D01*
X160216934Y-111038200D01*
X160272088Y-111038200D01*
X160327242Y-111313971D01*
D13*
%TO.C,R2*%
X171362240Y-84446666D02*
X170886050Y-84780000D01*
X171362240Y-85018095D02*
X170362240Y-85018095D01*
X170362240Y-84637142D01*
X170409860Y-84541904D01*
X170457479Y-84494285D01*
X170552717Y-84446666D01*
X170695574Y-84446666D01*
X170790812Y-84494285D01*
X170838431Y-84541904D01*
X170886050Y-84637142D01*
X170886050Y-85018095D01*
X170457479Y-84065714D02*
X170409860Y-84018095D01*
X170362240Y-83922857D01*
X170362240Y-83684761D01*
X170409860Y-83589523D01*
X170457479Y-83541904D01*
X170552717Y-83494285D01*
X170647955Y-83494285D01*
X170790812Y-83541904D01*
X171362240Y-84113333D01*
X171362240Y-83494285D01*
%TO.C,C5*%
X172143193Y-117537142D02*
X172095574Y-117584761D01*
X171952717Y-117632380D01*
X171857479Y-117632380D01*
X171714621Y-117584761D01*
X171619383Y-117489523D01*
X171571764Y-117394285D01*
X171524145Y-117203809D01*
X171524145Y-117060952D01*
X171571764Y-116870476D01*
X171619383Y-116775238D01*
X171714621Y-116680000D01*
X171857479Y-116632380D01*
X171952717Y-116632380D01*
X172095574Y-116680000D01*
X172143193Y-116727619D01*
X173047955Y-116632380D02*
X172571764Y-116632380D01*
X172524145Y-117108571D01*
X172571764Y-117060952D01*
X172667002Y-117013333D01*
X172905098Y-117013333D01*
X173000336Y-117060952D01*
X173047955Y-117108571D01*
X173095574Y-117203809D01*
X173095574Y-117441904D01*
X173047955Y-117537142D01*
X173000336Y-117584761D01*
X172905098Y-117632380D01*
X172667002Y-117632380D01*
X172571764Y-117584761D01*
X172524145Y-117537142D01*
%TO.C,C6*%
X169443193Y-123437142D02*
X169395574Y-123484761D01*
X169252717Y-123532380D01*
X169157479Y-123532380D01*
X169014621Y-123484761D01*
X168919383Y-123389523D01*
X168871764Y-123294285D01*
X168824145Y-123103809D01*
X168824145Y-122960952D01*
X168871764Y-122770476D01*
X168919383Y-122675238D01*
X169014621Y-122580000D01*
X169157479Y-122532380D01*
X169252717Y-122532380D01*
X169395574Y-122580000D01*
X169443193Y-122627619D01*
X170300336Y-122532380D02*
X170109860Y-122532380D01*
X170014621Y-122580000D01*
X169967002Y-122627619D01*
X169871764Y-122770476D01*
X169824145Y-122960952D01*
X169824145Y-123341904D01*
X169871764Y-123437142D01*
X169919383Y-123484761D01*
X170014621Y-123532380D01*
X170205098Y-123532380D01*
X170300336Y-123484761D01*
X170347955Y-123437142D01*
X170395574Y-123341904D01*
X170395574Y-123103809D01*
X170347955Y-123008571D01*
X170300336Y-122960952D01*
X170205098Y-122913333D01*
X170014621Y-122913333D01*
X169919383Y-122960952D01*
X169871764Y-123008571D01*
X169824145Y-123103809D01*
%TO.C,H1*%
X158940495Y-94882380D02*
X158940495Y-93882380D01*
X158940495Y-94358571D02*
X159511923Y-94358571D01*
X159511923Y-94882380D02*
X159511923Y-93882380D01*
X160511923Y-94882380D02*
X159940495Y-94882380D01*
X160226209Y-94882380D02*
X160226209Y-93882380D01*
X160130971Y-94025238D01*
X160035733Y-94120476D01*
X159940495Y-94168095D01*
%TO.C,R7*%
X144662240Y-84946666D02*
X144186050Y-85280000D01*
X144662240Y-85518095D02*
X143662240Y-85518095D01*
X143662240Y-85137142D01*
X143709860Y-85041904D01*
X143757479Y-84994285D01*
X143852717Y-84946666D01*
X143995574Y-84946666D01*
X144090812Y-84994285D01*
X144138431Y-85041904D01*
X144186050Y-85137142D01*
X144186050Y-85518095D01*
X143662240Y-84613333D02*
X143662240Y-83946666D01*
X144662240Y-84375238D01*
%TO.C,R14*%
X172967002Y-125732380D02*
X172633669Y-125256190D01*
X172395574Y-125732380D02*
X172395574Y-124732380D01*
X172776526Y-124732380D01*
X172871764Y-124780000D01*
X172919383Y-124827619D01*
X172967002Y-124922857D01*
X172967002Y-125065714D01*
X172919383Y-125160952D01*
X172871764Y-125208571D01*
X172776526Y-125256190D01*
X172395574Y-125256190D01*
X173919383Y-125732380D02*
X173347955Y-125732380D01*
X173633669Y-125732380D02*
X173633669Y-124732380D01*
X173538431Y-124875238D01*
X173443193Y-124970476D01*
X173347955Y-125018095D01*
X174776526Y-125065714D02*
X174776526Y-125732380D01*
X174538431Y-124684761D02*
X174300336Y-125399047D01*
X174919383Y-125399047D01*
D15*
%TO.C,R10*%
X186644860Y-84452936D02*
X186644860Y-84907064D01*
X185174860Y-84452936D02*
X185174860Y-84907064D01*
%TO.C,R3*%
X175844860Y-84752936D02*
X175844860Y-85207064D01*
X174374860Y-84752936D02*
X174374860Y-85207064D01*
%TO.C,R12*%
X169274860Y-131107064D02*
X169274860Y-130652936D01*
X170744860Y-131107064D02*
X170744860Y-130652936D01*
%TO.C,R8*%
X162644860Y-86452936D02*
X162644860Y-86907064D01*
X161174860Y-86452936D02*
X161174860Y-86907064D01*
D16*
%TO.C,J96*%
X150409860Y-135560000D02*
X149909860Y-135560000D01*
X143809860Y-135560000D02*
X143809860Y-135060000D01*
X150409860Y-135560000D02*
X150409860Y-135060000D01*
X143809860Y-135560000D02*
X144309860Y-135560000D01*
D15*
%TO.C,C2*%
X160444860Y-86941252D02*
X160444860Y-86418748D01*
X158974860Y-86941252D02*
X158974860Y-86418748D01*
%TO.C,U5*%
X149559860Y-141280000D02*
X149559860Y-134780000D01*
X167559860Y-141280000D02*
X167559860Y-134780000D01*
X149559860Y-121530000D02*
X149559860Y-121280000D01*
X167559860Y-121280000D02*
X167559860Y-121530000D01*
X149559860Y-121280000D02*
X167559860Y-121280000D01*
X149559860Y-135280000D02*
X167509860Y-135280000D01*
X167559860Y-141280000D02*
X149559860Y-141280000D01*
%TO.C,C8*%
X168148608Y-119415000D02*
X168671112Y-119415000D01*
X168148608Y-117945000D02*
X168671112Y-117945000D01*
%TO.C,J31*%
X183072400Y-93550000D02*
X185732400Y-93550000D01*
X183072400Y-93550000D02*
X183072400Y-126630000D01*
X183072400Y-126630000D02*
X185732400Y-126630000D01*
X185732400Y-93550000D02*
X185732400Y-126630000D01*
X183072400Y-90950000D02*
X184402400Y-90950000D01*
X183072400Y-92280000D02*
X183072400Y-90950000D01*
D16*
%TO.C,J99*%
X158889860Y-122980000D02*
X158889860Y-122480000D01*
X158889860Y-116380000D02*
X158389860Y-116380000D01*
X158889860Y-116380000D02*
X158889860Y-116880000D01*
X158889860Y-122980000D02*
X158389860Y-122980000D01*
D15*
%TO.C,C1*%
X171537400Y-87303752D02*
X171537400Y-86781248D01*
X170067400Y-87303752D02*
X170067400Y-86781248D01*
D16*
%TO.C,U2*%
X172377400Y-90130000D02*
X172377400Y-90655000D01*
X172052400Y-89805000D02*
X172277400Y-90130000D01*
X175052400Y-88130000D02*
X175352400Y-88130000D01*
X175352400Y-88130000D02*
X175352400Y-88455000D01*
X175352400Y-90130000D02*
X175352400Y-89830000D01*
X172377400Y-88130000D02*
X172052400Y-88130000D01*
X175027400Y-90130000D02*
X175352400Y-90130000D01*
X172052400Y-88130000D02*
X172052400Y-88430000D01*
X172277400Y-90130000D02*
X172377400Y-90130000D01*
X172052400Y-89805000D02*
X172052400Y-89430000D01*
D15*
%TO.C,U3*%
X156125880Y-93201200D02*
X156125880Y-85461200D01*
X152475880Y-85461200D02*
X150825880Y-85461200D01*
X150825880Y-85461200D02*
X150825880Y-93201200D01*
X156125880Y-85461200D02*
X154475880Y-85461200D01*
X150825880Y-93201200D02*
X156125880Y-93201200D01*
X152475880Y-85461200D02*
G75*
G03*
X154475880Y-85461200I1000000J0D01*
G01*
D13*
%TO.C,U1*%
X138339860Y-96830000D02*
X125639860Y-96830000D01*
X128179860Y-79050000D02*
X128179860Y-73970000D01*
X133259860Y-114610000D02*
X133259860Y-118420000D01*
X138339860Y-109530000D02*
X138339860Y-96830000D01*
X125639860Y-109530000D02*
X138339860Y-109530000D01*
X133259860Y-118420000D02*
X130719860Y-118420000D01*
X128179860Y-79050000D02*
X135799860Y-79050000D01*
X130719860Y-118420000D02*
X130719860Y-114610000D01*
X137069860Y-134930000D02*
X137069860Y-133660000D01*
X125639860Y-122230000D02*
X125639860Y-134930000D01*
X130719860Y-114610000D02*
X133259860Y-114610000D01*
X137069860Y-133660000D02*
X126909860Y-133660000D01*
X138339860Y-122230000D02*
X125639860Y-122230000D01*
X125639860Y-96830000D02*
X125639860Y-109530000D01*
X128690660Y-92969200D02*
X126150660Y-92969200D01*
X128690660Y-80269200D02*
X128690660Y-82809200D01*
X140879860Y-73970000D02*
X140879860Y-134930000D01*
X126150660Y-80269200D02*
X128690660Y-80269200D01*
X123099860Y-134930000D02*
X123099860Y-73970000D01*
X126150660Y-92969200D02*
X126150660Y-80269200D01*
X123099860Y-73970000D02*
X140879860Y-73970000D01*
X128179860Y-72700000D02*
X135799860Y-72700000D01*
X138339860Y-134930000D02*
X138339860Y-122230000D01*
X140879860Y-134930000D02*
X123099860Y-134930000D01*
X135799860Y-72700000D02*
X135799860Y-73970000D01*
X126909860Y-133660000D02*
X126909860Y-134930000D01*
X128690660Y-82809200D02*
X126150660Y-82809200D01*
X135799860Y-79050000D02*
X135799860Y-73970000D01*
X128690660Y-80269200D02*
X128690660Y-92969200D01*
X128179860Y-73970000D02*
X128179860Y-72700000D01*
X132887886Y-116515000D02*
G75*
G03*
X132887886Y-116515000I-898026J0D01*
G01*
D16*
X132042860Y-106504000D02*
X131788860Y-106250000D01*
X131788860Y-106250000D02*
X132169860Y-105996000D01*
X132169860Y-105996000D02*
X132423860Y-106250000D01*
X132423860Y-106250000D02*
X132042860Y-106504000D01*
G36*
X132423860Y-106250000D02*
G01*
X132042860Y-106504000D01*
X131788860Y-106250000D01*
X132169860Y-105996000D01*
X132423860Y-106250000D01*
G37*
X132423860Y-106250000D02*
X132042860Y-106504000D01*
X131788860Y-106250000D01*
X132169860Y-105996000D01*
X132423860Y-106250000D01*
X131661860Y-106123000D02*
X131407860Y-105869000D01*
X131407860Y-105869000D02*
X131788860Y-105615000D01*
X131788860Y-105615000D02*
X132042860Y-105869000D01*
X132042860Y-105869000D02*
X131661860Y-106123000D01*
G36*
X132042860Y-105869000D02*
G01*
X131661860Y-106123000D01*
X131407860Y-105869000D01*
X131788860Y-105615000D01*
X132042860Y-105869000D01*
G37*
X132042860Y-105869000D02*
X131661860Y-106123000D01*
X131407860Y-105869000D01*
X131788860Y-105615000D01*
X132042860Y-105869000D01*
X131915860Y-107266000D02*
X131661860Y-107012000D01*
X131661860Y-107012000D02*
X132042860Y-106758000D01*
X132042860Y-106758000D02*
X132296860Y-107012000D01*
X132296860Y-107012000D02*
X131915860Y-107266000D01*
G36*
X132296860Y-107012000D02*
G01*
X131915860Y-107266000D01*
X131661860Y-107012000D01*
X132042860Y-106758000D01*
X132296860Y-107012000D01*
G37*
X132296860Y-107012000D02*
X131915860Y-107266000D01*
X131661860Y-107012000D01*
X132042860Y-106758000D01*
X132296860Y-107012000D01*
X132169860Y-105742000D02*
X131915860Y-105488000D01*
X131915860Y-105488000D02*
X132296860Y-105234000D01*
X132296860Y-105234000D02*
X132550860Y-105488000D01*
X132550860Y-105488000D02*
X132169860Y-105742000D01*
G36*
X132550860Y-105488000D02*
G01*
X132169860Y-105742000D01*
X131915860Y-105488000D01*
X132296860Y-105234000D01*
X132550860Y-105488000D01*
G37*
X132550860Y-105488000D02*
X132169860Y-105742000D01*
X131915860Y-105488000D01*
X132296860Y-105234000D01*
X132550860Y-105488000D01*
X132677860Y-105361000D02*
X132423860Y-105107000D01*
X132423860Y-105107000D02*
X132804860Y-104853000D01*
X132804860Y-104853000D02*
X133058860Y-105107000D01*
X133058860Y-105107000D02*
X132677860Y-105361000D01*
G36*
X133058860Y-105107000D02*
G01*
X132677860Y-105361000D01*
X132423860Y-105107000D01*
X132804860Y-104853000D01*
X133058860Y-105107000D01*
G37*
X133058860Y-105107000D02*
X132677860Y-105361000D01*
X132423860Y-105107000D01*
X132804860Y-104853000D01*
X133058860Y-105107000D01*
X131534860Y-106885000D02*
X131280860Y-106631000D01*
X131280860Y-106631000D02*
X131661860Y-106377000D01*
X131661860Y-106377000D02*
X131915860Y-106631000D01*
X131915860Y-106631000D02*
X131534860Y-106885000D01*
G36*
X131915860Y-106631000D02*
G01*
X131534860Y-106885000D01*
X131280860Y-106631000D01*
X131661860Y-106377000D01*
X131915860Y-106631000D01*
G37*
X131915860Y-106631000D02*
X131534860Y-106885000D01*
X131280860Y-106631000D01*
X131661860Y-106377000D01*
X131915860Y-106631000D01*
X132550860Y-106123000D02*
X132296860Y-105869000D01*
X132296860Y-105869000D02*
X132677860Y-105615000D01*
X132677860Y-105615000D02*
X132931860Y-105869000D01*
X132931860Y-105869000D02*
X132550860Y-106123000D01*
G36*
X132931860Y-105869000D02*
G01*
X132550860Y-106123000D01*
X132296860Y-105869000D01*
X132677860Y-105615000D01*
X132931860Y-105869000D01*
G37*
X132931860Y-105869000D02*
X132550860Y-106123000D01*
X132296860Y-105869000D01*
X132677860Y-105615000D01*
X132931860Y-105869000D01*
X132296860Y-107647000D02*
X132042860Y-107393000D01*
X132042860Y-107393000D02*
X132423860Y-107139000D01*
X132423860Y-107139000D02*
X132677860Y-107393000D01*
X132677860Y-107393000D02*
X132296860Y-107647000D01*
G36*
X132677860Y-107393000D02*
G01*
X132296860Y-107647000D01*
X132042860Y-107393000D01*
X132423860Y-107139000D01*
X132677860Y-107393000D01*
G37*
X132677860Y-107393000D02*
X132296860Y-107647000D01*
X132042860Y-107393000D01*
X132423860Y-107139000D01*
X132677860Y-107393000D01*
D15*
%TO.C,J32*%
X113872400Y-90950000D02*
X115202400Y-90950000D01*
X113872400Y-92280000D02*
X113872400Y-90950000D01*
X113872400Y-93550000D02*
X116532400Y-93550000D01*
X113872400Y-126630000D02*
X116532400Y-126630000D01*
X113872400Y-93550000D02*
X113872400Y-126630000D01*
X116532400Y-93550000D02*
X116532400Y-126630000D01*
%TO.C,U4*%
X167899860Y-109920000D02*
X169159860Y-109920000D01*
X167899860Y-115930000D02*
X167899860Y-109920000D01*
X174719860Y-109920000D02*
X173459860Y-109920000D01*
X174719860Y-113680000D02*
X174719860Y-109920000D01*
%TO.C,C4*%
X176944860Y-114341252D02*
X176944860Y-113818748D01*
X175474860Y-114341252D02*
X175474860Y-113818748D01*
D17*
%TO.C,J70*%
X119919860Y-75145000D02*
X121429860Y-75145000D01*
X121429860Y-75145000D02*
X121429860Y-88275000D01*
X115339860Y-88275000D02*
X107429860Y-88275000D01*
X121429860Y-88275000D02*
X119919860Y-88275000D01*
X107429860Y-88275000D02*
X107429860Y-75145000D01*
X107429860Y-75145000D02*
X115339860Y-75145000D01*
D11*
X122269860Y-78210000D02*
G75*
G03*
X122269860Y-78210000I-150000J0D01*
G01*
D15*
%TO.C,D1*%
X152372400Y-81560000D02*
X152372400Y-83800000D01*
X152252400Y-81560000D02*
X152252400Y-83800000D01*
X151532400Y-81560000D02*
X151532400Y-83800000D01*
X151532400Y-83800000D02*
X155772400Y-83800000D01*
X150882400Y-82680000D02*
X151532400Y-82680000D01*
X156422400Y-82680000D02*
X155772400Y-82680000D01*
X152132400Y-81560000D02*
X152132400Y-83800000D01*
X155772400Y-83800000D02*
X155772400Y-81560000D01*
X155772400Y-81560000D02*
X151532400Y-81560000D01*
%TO.C,C7*%
X172086108Y-120045000D02*
X172608612Y-120045000D01*
X172086108Y-121515000D02*
X172608612Y-121515000D01*
D18*
%TO.C,J40*%
X162009080Y-65581160D02*
X142509500Y-65581160D01*
X144511020Y-65581160D02*
X144511020Y-66079000D01*
X143992860Y-81090400D02*
X150977860Y-81090400D01*
X144010640Y-66079000D02*
X144511020Y-66079000D01*
X143992860Y-81090400D02*
X144010640Y-66079000D01*
X144010640Y-65080780D02*
X162009080Y-65080780D01*
X162026860Y-81090400D02*
X150927060Y-81090400D01*
X161508700Y-66079000D02*
X161508700Y-65581160D01*
X162009080Y-65080780D02*
X162009080Y-65581160D01*
X162009080Y-65329700D02*
X142509500Y-65329700D01*
X162009080Y-66079000D02*
X161508700Y-66079000D01*
X142509500Y-65080780D02*
X144010640Y-65080780D01*
X144010640Y-64580400D02*
X163510220Y-64580400D01*
X142509500Y-65581160D02*
X142509500Y-65080780D01*
X144010640Y-65080780D02*
X144010640Y-64580400D01*
X163510220Y-64829320D02*
X144010640Y-64829320D01*
X163510220Y-65080780D02*
X162009080Y-65080780D01*
X163510220Y-64580400D02*
X163510220Y-65080780D01*
X162026860Y-81065000D02*
X162009080Y-66079000D01*
D15*
%TO.C,D2*%
X182549860Y-82895000D02*
X182549860Y-85755000D01*
X184469860Y-85755000D02*
X184469860Y-82895000D01*
X184469860Y-82895000D02*
X182549860Y-82895000D01*
D19*
%TO.C,S1*%
X161974860Y-109946000D02*
X164454860Y-109946000D01*
X165754860Y-110946000D02*
X165754860Y-114026000D01*
X160674860Y-114026000D02*
X160674860Y-110946000D01*
X164454860Y-115026000D02*
X161944860Y-115026000D01*
X164484860Y-112486000D02*
G75*
G03*
X164484860Y-112486000I-1270000J0D01*
G01*
D15*
%TO.C,R2*%
X173444860Y-84652936D02*
X173444860Y-85107064D01*
X171974860Y-84652936D02*
X171974860Y-85107064D01*
%TO.C,C5*%
X172048608Y-119415000D02*
X172571112Y-119415000D01*
X172048608Y-117945000D02*
X172571112Y-117945000D01*
%TO.C,C6*%
X172086108Y-122345000D02*
X172608612Y-122345000D01*
X172086108Y-123815000D02*
X172608612Y-123815000D01*
%TO.C,R7*%
X144944860Y-87452936D02*
X144944860Y-87907064D01*
X143474860Y-87452936D02*
X143474860Y-87907064D01*
%TO.C,R14*%
X170082796Y-125915000D02*
X170536924Y-125915000D01*
X170082796Y-124445000D02*
X170536924Y-124445000D01*
D18*
%TO.C,J90*%
X185910220Y-64480400D02*
X185910220Y-64980780D01*
X184409080Y-65979000D02*
X183908700Y-65979000D01*
X184409080Y-64980780D02*
X184409080Y-65481160D01*
X183908700Y-65979000D02*
X183908700Y-65481160D01*
X166392860Y-80990400D02*
X173377860Y-80990400D01*
X185910220Y-64980780D02*
X184409080Y-64980780D01*
X164909500Y-65481160D02*
X164909500Y-64980780D01*
X185910220Y-64729320D02*
X166410640Y-64729320D01*
X166392860Y-80990400D02*
X166410640Y-65979000D01*
X184409080Y-65229700D02*
X164909500Y-65229700D01*
X166911020Y-65481160D02*
X166911020Y-65979000D01*
X184426860Y-80990400D02*
X173327060Y-80990400D01*
X184426860Y-80965000D02*
X184409080Y-65979000D01*
X166410640Y-64980780D02*
X166410640Y-64480400D01*
X164909500Y-64980780D02*
X166410640Y-64980780D01*
X184409080Y-65481160D02*
X164909500Y-65481160D01*
X166410640Y-64980780D02*
X184409080Y-64980780D01*
X166410640Y-64480400D02*
X185910220Y-64480400D01*
X166410640Y-65979000D02*
X166911020Y-65979000D01*
%TD*%
D20*
%TO.C,J40*%
X145511780Y-77077200D03*
X153009860Y-77079740D03*
X160507940Y-77077200D03*
X148013680Y-79579100D03*
X158006040Y-79579100D03*
%TD*%
%TO.C,J90*%
X167911780Y-76977200D03*
X175409860Y-76979740D03*
X182907940Y-76977200D03*
X170413680Y-79479100D03*
X180406040Y-79479100D03*
%TD*%
M02*
