%TF.GenerationSoftware,KiCad,Pcbnew,(5.1.10)-1*%
%TF.CreationDate,2022-01-16T14:06:34-05:00*%
%TF.ProjectId,bottom,626f7474-6f6d-42e6-9b69-6361645f7063,rev?*%
%TF.SameCoordinates,Original*%
%TF.FileFunction,Paste,Top*%
%TF.FilePolarity,Positive*%
%FSLAX46Y46*%
G04 Gerber Fmt 4.6, Leading zero omitted, Abs format (unit mm)*
G04 Created by KiCad (PCBNEW (5.1.10)-1) date 2022-01-16 14:06:34*
%MOMM*%
%LPD*%
G01*
G04 APERTURE LIST*
%ADD10R,1.500000X2.000000*%
%ADD11R,3.800000X2.000000*%
%ADD12R,0.700000X0.700000*%
%ADD13R,1.500000X0.900000*%
%ADD14R,0.762000X1.524000*%
G04 APERTURE END LIST*
%TO.C,R14*%
G36*
G01*
X171552400Y-124630001D02*
X171552400Y-123729999D01*
G75*
G02*
X171802399Y-123480000I249999J0D01*
G01*
X172502401Y-123480000D01*
G75*
G02*
X172752400Y-123729999I0J-249999D01*
G01*
X172752400Y-124630001D01*
G75*
G02*
X172502401Y-124880000I-249999J0D01*
G01*
X171802399Y-124880000D01*
G75*
G02*
X171552400Y-124630001I0J249999D01*
G01*
G37*
G36*
G01*
X169552400Y-124630001D02*
X169552400Y-123729999D01*
G75*
G02*
X169802399Y-123480000I249999J0D01*
G01*
X170502401Y-123480000D01*
G75*
G02*
X170752400Y-123729999I0J-249999D01*
G01*
X170752400Y-124630001D01*
G75*
G02*
X170502401Y-124880000I-249999J0D01*
G01*
X169802399Y-124880000D01*
G75*
G02*
X169552400Y-124630001I0J249999D01*
G01*
G37*
%TD*%
%TO.C,C8*%
G36*
G01*
X169702400Y-118155000D02*
X169702400Y-117205000D01*
G75*
G02*
X169952400Y-116955000I250000J0D01*
G01*
X170627400Y-116955000D01*
G75*
G02*
X170877400Y-117205000I0J-250000D01*
G01*
X170877400Y-118155000D01*
G75*
G02*
X170627400Y-118405000I-250000J0D01*
G01*
X169952400Y-118405000D01*
G75*
G02*
X169702400Y-118155000I0J250000D01*
G01*
G37*
G36*
G01*
X167627400Y-118155000D02*
X167627400Y-117205000D01*
G75*
G02*
X167877400Y-116955000I250000J0D01*
G01*
X168552400Y-116955000D01*
G75*
G02*
X168802400Y-117205000I0J-250000D01*
G01*
X168802400Y-118155000D01*
G75*
G02*
X168552400Y-118405000I-250000J0D01*
G01*
X167877400Y-118405000D01*
G75*
G02*
X167627400Y-118155000I0J250000D01*
G01*
G37*
%TD*%
D10*
%TO.C,U4*%
X169852400Y-113980000D03*
X174452400Y-113980000D03*
X172152400Y-113980000D03*
D11*
X172152400Y-107680000D03*
%TD*%
%TO.C,R13*%
G36*
G01*
X145202401Y-119280000D02*
X144302399Y-119280000D01*
G75*
G02*
X144052400Y-119030001I0J249999D01*
G01*
X144052400Y-118329999D01*
G75*
G02*
X144302399Y-118080000I249999J0D01*
G01*
X145202401Y-118080000D01*
G75*
G02*
X145452400Y-118329999I0J-249999D01*
G01*
X145452400Y-119030001D01*
G75*
G02*
X145202401Y-119280000I-249999J0D01*
G01*
G37*
G36*
G01*
X145202401Y-121280000D02*
X144302399Y-121280000D01*
G75*
G02*
X144052400Y-121030001I0J249999D01*
G01*
X144052400Y-120329999D01*
G75*
G02*
X144302399Y-120080000I249999J0D01*
G01*
X145202401Y-120080000D01*
G75*
G02*
X145452400Y-120329999I0J-249999D01*
G01*
X145452400Y-121030001D01*
G75*
G02*
X145202401Y-121280000I-249999J0D01*
G01*
G37*
%TD*%
%TO.C,D5*%
G36*
G01*
X147902401Y-119230000D02*
X147002399Y-119230000D01*
G75*
G02*
X146752400Y-118980001I0J249999D01*
G01*
X146752400Y-118329999D01*
G75*
G02*
X147002399Y-118080000I249999J0D01*
G01*
X147902401Y-118080000D01*
G75*
G02*
X148152400Y-118329999I0J-249999D01*
G01*
X148152400Y-118980001D01*
G75*
G02*
X147902401Y-119230000I-249999J0D01*
G01*
G37*
G36*
G01*
X147902401Y-121280000D02*
X147002399Y-121280000D01*
G75*
G02*
X146752400Y-121030001I0J249999D01*
G01*
X146752400Y-120379999D01*
G75*
G02*
X147002399Y-120130000I249999J0D01*
G01*
X147902401Y-120130000D01*
G75*
G02*
X148152400Y-120379999I0J-249999D01*
G01*
X148152400Y-121030001D01*
G75*
G02*
X147902401Y-121280000I-249999J0D01*
G01*
G37*
%TD*%
%TO.C,R12*%
G36*
G01*
X178902399Y-117380000D02*
X179802401Y-117380000D01*
G75*
G02*
X180052400Y-117629999I0J-249999D01*
G01*
X180052400Y-118330001D01*
G75*
G02*
X179802401Y-118580000I-249999J0D01*
G01*
X178902399Y-118580000D01*
G75*
G02*
X178652400Y-118330001I0J249999D01*
G01*
X178652400Y-117629999D01*
G75*
G02*
X178902399Y-117380000I249999J0D01*
G01*
G37*
G36*
G01*
X178902399Y-115380000D02*
X179802401Y-115380000D01*
G75*
G02*
X180052400Y-115629999I0J-249999D01*
G01*
X180052400Y-116330001D01*
G75*
G02*
X179802401Y-116580000I-249999J0D01*
G01*
X178902399Y-116580000D01*
G75*
G02*
X178652400Y-116330001I0J249999D01*
G01*
X178652400Y-115629999D01*
G75*
G02*
X178902399Y-115380000I249999J0D01*
G01*
G37*
%TD*%
%TO.C,D4*%
G36*
G01*
X177502401Y-116530000D02*
X176602399Y-116530000D01*
G75*
G02*
X176352400Y-116280001I0J249999D01*
G01*
X176352400Y-115629999D01*
G75*
G02*
X176602399Y-115380000I249999J0D01*
G01*
X177502401Y-115380000D01*
G75*
G02*
X177752400Y-115629999I0J-249999D01*
G01*
X177752400Y-116280001D01*
G75*
G02*
X177502401Y-116530000I-249999J0D01*
G01*
G37*
G36*
G01*
X177502401Y-118580000D02*
X176602399Y-118580000D01*
G75*
G02*
X176352400Y-118330001I0J249999D01*
G01*
X176352400Y-117679999D01*
G75*
G02*
X176602399Y-117430000I249999J0D01*
G01*
X177502401Y-117430000D01*
G75*
G02*
X177752400Y-117679999I0J-249999D01*
G01*
X177752400Y-118330001D01*
G75*
G02*
X177502401Y-118580000I-249999J0D01*
G01*
G37*
%TD*%
D12*
%TO.C,U5*%
X159542400Y-128080000D03*
X159542400Y-126980000D03*
X159542400Y-125880000D03*
X158492400Y-125880000D03*
X157342400Y-125880000D03*
X157342400Y-126980000D03*
X157342400Y-128080000D03*
X158492400Y-128080000D03*
X158492400Y-126980000D03*
D13*
X150652400Y-133180000D03*
X150652400Y-131680000D03*
X150652400Y-130180000D03*
X150652400Y-128680000D03*
X150652400Y-127180000D03*
X150652400Y-125680000D03*
X150652400Y-124180000D03*
X150652400Y-122680000D03*
X150652400Y-121180000D03*
X168152400Y-133180000D03*
X168152400Y-131680000D03*
X168152400Y-130180000D03*
X168152400Y-128680000D03*
X168152400Y-127180000D03*
X168152400Y-125680000D03*
X168152400Y-124180000D03*
X168152400Y-122680000D03*
X168152400Y-121180000D03*
%TD*%
D14*
%TO.C,S1*%
X162152400Y-114280000D03*
X162152400Y-108692000D03*
X165962400Y-114280000D03*
X165962400Y-108692000D03*
%TD*%
%TO.C,R11*%
G36*
G01*
X171552400Y-126930001D02*
X171552400Y-126029999D01*
G75*
G02*
X171802399Y-125780000I249999J0D01*
G01*
X172502401Y-125780000D01*
G75*
G02*
X172752400Y-126029999I0J-249999D01*
G01*
X172752400Y-126930001D01*
G75*
G02*
X172502401Y-127180000I-249999J0D01*
G01*
X171802399Y-127180000D01*
G75*
G02*
X171552400Y-126930001I0J249999D01*
G01*
G37*
G36*
G01*
X169552400Y-126930001D02*
X169552400Y-126029999D01*
G75*
G02*
X169802399Y-125780000I249999J0D01*
G01*
X170502401Y-125780000D01*
G75*
G02*
X170752400Y-126029999I0J-249999D01*
G01*
X170752400Y-126930001D01*
G75*
G02*
X170502401Y-127180000I-249999J0D01*
G01*
X169802399Y-127180000D01*
G75*
G02*
X169552400Y-126930001I0J249999D01*
G01*
G37*
%TD*%
%TO.C,C7*%
G36*
G01*
X173639900Y-120255000D02*
X173639900Y-119305000D01*
G75*
G02*
X173889900Y-119055000I250000J0D01*
G01*
X174564900Y-119055000D01*
G75*
G02*
X174814900Y-119305000I0J-250000D01*
G01*
X174814900Y-120255000D01*
G75*
G02*
X174564900Y-120505000I-250000J0D01*
G01*
X173889900Y-120505000D01*
G75*
G02*
X173639900Y-120255000I0J250000D01*
G01*
G37*
G36*
G01*
X171564900Y-120255000D02*
X171564900Y-119305000D01*
G75*
G02*
X171814900Y-119055000I250000J0D01*
G01*
X172489900Y-119055000D01*
G75*
G02*
X172739900Y-119305000I0J-250000D01*
G01*
X172739900Y-120255000D01*
G75*
G02*
X172489900Y-120505000I-250000J0D01*
G01*
X171814900Y-120505000D01*
G75*
G02*
X171564900Y-120255000I0J250000D01*
G01*
G37*
%TD*%
%TO.C,C6*%
G36*
G01*
X171564900Y-122555000D02*
X171564900Y-121605000D01*
G75*
G02*
X171814900Y-121355000I250000J0D01*
G01*
X172489900Y-121355000D01*
G75*
G02*
X172739900Y-121605000I0J-250000D01*
G01*
X172739900Y-122555000D01*
G75*
G02*
X172489900Y-122805000I-250000J0D01*
G01*
X171814900Y-122805000D01*
G75*
G02*
X171564900Y-122555000I0J250000D01*
G01*
G37*
G36*
G01*
X173639900Y-122555000D02*
X173639900Y-121605000D01*
G75*
G02*
X173889900Y-121355000I250000J0D01*
G01*
X174564900Y-121355000D01*
G75*
G02*
X174814900Y-121605000I0J-250000D01*
G01*
X174814900Y-122555000D01*
G75*
G02*
X174564900Y-122805000I-250000J0D01*
G01*
X173889900Y-122805000D01*
G75*
G02*
X173639900Y-122555000I0J250000D01*
G01*
G37*
%TD*%
%TO.C,C4*%
G36*
G01*
X177527400Y-114705000D02*
X176577400Y-114705000D01*
G75*
G02*
X176327400Y-114455000I0J250000D01*
G01*
X176327400Y-113780000D01*
G75*
G02*
X176577400Y-113530000I250000J0D01*
G01*
X177527400Y-113530000D01*
G75*
G02*
X177777400Y-113780000I0J-250000D01*
G01*
X177777400Y-114455000D01*
G75*
G02*
X177527400Y-114705000I-250000J0D01*
G01*
G37*
G36*
G01*
X177527400Y-112630000D02*
X176577400Y-112630000D01*
G75*
G02*
X176327400Y-112380000I0J250000D01*
G01*
X176327400Y-111705000D01*
G75*
G02*
X176577400Y-111455000I250000J0D01*
G01*
X177527400Y-111455000D01*
G75*
G02*
X177777400Y-111705000I0J-250000D01*
G01*
X177777400Y-112380000D01*
G75*
G02*
X177527400Y-112630000I-250000J0D01*
G01*
G37*
%TD*%
%TO.C,R10*%
G36*
G01*
X186302399Y-84080000D02*
X187202401Y-84080000D01*
G75*
G02*
X187452400Y-84329999I0J-249999D01*
G01*
X187452400Y-85030001D01*
G75*
G02*
X187202401Y-85280000I-249999J0D01*
G01*
X186302399Y-85280000D01*
G75*
G02*
X186052400Y-85030001I0J249999D01*
G01*
X186052400Y-84329999D01*
G75*
G02*
X186302399Y-84080000I249999J0D01*
G01*
G37*
G36*
G01*
X186302399Y-82080000D02*
X187202401Y-82080000D01*
G75*
G02*
X187452400Y-82329999I0J-249999D01*
G01*
X187452400Y-83030001D01*
G75*
G02*
X187202401Y-83280000I-249999J0D01*
G01*
X186302399Y-83280000D01*
G75*
G02*
X186052400Y-83030001I0J249999D01*
G01*
X186052400Y-82329999D01*
G75*
G02*
X186302399Y-82080000I249999J0D01*
G01*
G37*
%TD*%
%TO.C,D2*%
G36*
G01*
X183902399Y-84205000D02*
X184802401Y-84205000D01*
G75*
G02*
X185052400Y-84454999I0J-249999D01*
G01*
X185052400Y-85105001D01*
G75*
G02*
X184802401Y-85355000I-249999J0D01*
G01*
X183902399Y-85355000D01*
G75*
G02*
X183652400Y-85105001I0J249999D01*
G01*
X183652400Y-84454999D01*
G75*
G02*
X183902399Y-84205000I249999J0D01*
G01*
G37*
G36*
G01*
X183902399Y-82155000D02*
X184802401Y-82155000D01*
G75*
G02*
X185052400Y-82404999I0J-249999D01*
G01*
X185052400Y-83055001D01*
G75*
G02*
X184802401Y-83305000I-249999J0D01*
G01*
X183902399Y-83305000D01*
G75*
G02*
X183652400Y-83055001I0J249999D01*
G01*
X183652400Y-82404999D01*
G75*
G02*
X183902399Y-82155000I249999J0D01*
G01*
G37*
%TD*%
%TO.C,R8*%
G36*
G01*
X162302399Y-84080000D02*
X163202401Y-84080000D01*
G75*
G02*
X163452400Y-84329999I0J-249999D01*
G01*
X163452400Y-85030001D01*
G75*
G02*
X163202401Y-85280000I-249999J0D01*
G01*
X162302399Y-85280000D01*
G75*
G02*
X162052400Y-85030001I0J249999D01*
G01*
X162052400Y-84329999D01*
G75*
G02*
X162302399Y-84080000I249999J0D01*
G01*
G37*
G36*
G01*
X162302399Y-86080000D02*
X163202401Y-86080000D01*
G75*
G02*
X163452400Y-86329999I0J-249999D01*
G01*
X163452400Y-87030001D01*
G75*
G02*
X163202401Y-87280000I-249999J0D01*
G01*
X162302399Y-87280000D01*
G75*
G02*
X162052400Y-87030001I0J249999D01*
G01*
X162052400Y-86329999D01*
G75*
G02*
X162302399Y-86080000I249999J0D01*
G01*
G37*
%TD*%
%TO.C,R7*%
G36*
G01*
X144602399Y-87080000D02*
X145502401Y-87080000D01*
G75*
G02*
X145752400Y-87329999I0J-249999D01*
G01*
X145752400Y-88030001D01*
G75*
G02*
X145502401Y-88280000I-249999J0D01*
G01*
X144602399Y-88280000D01*
G75*
G02*
X144352400Y-88030001I0J249999D01*
G01*
X144352400Y-87329999D01*
G75*
G02*
X144602399Y-87080000I249999J0D01*
G01*
G37*
G36*
G01*
X144602399Y-85080000D02*
X145502401Y-85080000D01*
G75*
G02*
X145752400Y-85329999I0J-249999D01*
G01*
X145752400Y-86030001D01*
G75*
G02*
X145502401Y-86280000I-249999J0D01*
G01*
X144602399Y-86280000D01*
G75*
G02*
X144352400Y-86030001I0J249999D01*
G01*
X144352400Y-85329999D01*
G75*
G02*
X144602399Y-85080000I249999J0D01*
G01*
G37*
%TD*%
%TO.C,R4*%
G36*
G01*
X178102399Y-84380000D02*
X179002401Y-84380000D01*
G75*
G02*
X179252400Y-84629999I0J-249999D01*
G01*
X179252400Y-85330001D01*
G75*
G02*
X179002401Y-85580000I-249999J0D01*
G01*
X178102399Y-85580000D01*
G75*
G02*
X177852400Y-85330001I0J249999D01*
G01*
X177852400Y-84629999D01*
G75*
G02*
X178102399Y-84380000I249999J0D01*
G01*
G37*
G36*
G01*
X178102399Y-82380000D02*
X179002401Y-82380000D01*
G75*
G02*
X179252400Y-82629999I0J-249999D01*
G01*
X179252400Y-83330001D01*
G75*
G02*
X179002401Y-83580000I-249999J0D01*
G01*
X178102399Y-83580000D01*
G75*
G02*
X177852400Y-83330001I0J249999D01*
G01*
X177852400Y-82629999D01*
G75*
G02*
X178102399Y-82380000I249999J0D01*
G01*
G37*
%TD*%
%TO.C,R3*%
G36*
G01*
X175502399Y-84380000D02*
X176402401Y-84380000D01*
G75*
G02*
X176652400Y-84629999I0J-249999D01*
G01*
X176652400Y-85330001D01*
G75*
G02*
X176402401Y-85580000I-249999J0D01*
G01*
X175502399Y-85580000D01*
G75*
G02*
X175252400Y-85330001I0J249999D01*
G01*
X175252400Y-84629999D01*
G75*
G02*
X175502399Y-84380000I249999J0D01*
G01*
G37*
G36*
G01*
X175502399Y-82380000D02*
X176402401Y-82380000D01*
G75*
G02*
X176652400Y-82629999I0J-249999D01*
G01*
X176652400Y-83330001D01*
G75*
G02*
X176402401Y-83580000I-249999J0D01*
G01*
X175502399Y-83580000D01*
G75*
G02*
X175252400Y-83330001I0J249999D01*
G01*
X175252400Y-82629999D01*
G75*
G02*
X175502399Y-82380000I249999J0D01*
G01*
G37*
%TD*%
%TO.C,R2*%
G36*
G01*
X173102399Y-82280000D02*
X174002401Y-82280000D01*
G75*
G02*
X174252400Y-82529999I0J-249999D01*
G01*
X174252400Y-83230001D01*
G75*
G02*
X174002401Y-83480000I-249999J0D01*
G01*
X173102399Y-83480000D01*
G75*
G02*
X172852400Y-83230001I0J249999D01*
G01*
X172852400Y-82529999D01*
G75*
G02*
X173102399Y-82280000I249999J0D01*
G01*
G37*
G36*
G01*
X173102399Y-84280000D02*
X174002401Y-84280000D01*
G75*
G02*
X174252400Y-84529999I0J-249999D01*
G01*
X174252400Y-85230001D01*
G75*
G02*
X174002401Y-85480000I-249999J0D01*
G01*
X173102399Y-85480000D01*
G75*
G02*
X172852400Y-85230001I0J249999D01*
G01*
X172852400Y-84529999D01*
G75*
G02*
X173102399Y-84280000I249999J0D01*
G01*
G37*
%TD*%
%TO.C,C2*%
G36*
G01*
X161027400Y-87305000D02*
X160077400Y-87305000D01*
G75*
G02*
X159827400Y-87055000I0J250000D01*
G01*
X159827400Y-86380000D01*
G75*
G02*
X160077400Y-86130000I250000J0D01*
G01*
X161027400Y-86130000D01*
G75*
G02*
X161277400Y-86380000I0J-250000D01*
G01*
X161277400Y-87055000D01*
G75*
G02*
X161027400Y-87305000I-250000J0D01*
G01*
G37*
G36*
G01*
X161027400Y-85230000D02*
X160077400Y-85230000D01*
G75*
G02*
X159827400Y-84980000I0J250000D01*
G01*
X159827400Y-84305000D01*
G75*
G02*
X160077400Y-84055000I250000J0D01*
G01*
X161027400Y-84055000D01*
G75*
G02*
X161277400Y-84305000I0J-250000D01*
G01*
X161277400Y-84980000D01*
G75*
G02*
X161027400Y-85230000I-250000J0D01*
G01*
G37*
%TD*%
%TO.C,C1*%
G36*
G01*
X178464900Y-97655000D02*
X178464900Y-96705000D01*
G75*
G02*
X178714900Y-96455000I250000J0D01*
G01*
X179389900Y-96455000D01*
G75*
G02*
X179639900Y-96705000I0J-250000D01*
G01*
X179639900Y-97655000D01*
G75*
G02*
X179389900Y-97905000I-250000J0D01*
G01*
X178714900Y-97905000D01*
G75*
G02*
X178464900Y-97655000I0J250000D01*
G01*
G37*
G36*
G01*
X176389900Y-97655000D02*
X176389900Y-96705000D01*
G75*
G02*
X176639900Y-96455000I250000J0D01*
G01*
X177314900Y-96455000D01*
G75*
G02*
X177564900Y-96705000I0J-250000D01*
G01*
X177564900Y-97655000D01*
G75*
G02*
X177314900Y-97905000I-250000J0D01*
G01*
X176639900Y-97905000D01*
G75*
G02*
X176389900Y-97655000I0J250000D01*
G01*
G37*
%TD*%
%TO.C,C3*%
G36*
G01*
X170377400Y-130230000D02*
X171327400Y-130230000D01*
G75*
G02*
X171577400Y-130480000I0J-250000D01*
G01*
X171577400Y-131155000D01*
G75*
G02*
X171327400Y-131405000I-250000J0D01*
G01*
X170377400Y-131405000D01*
G75*
G02*
X170127400Y-131155000I0J250000D01*
G01*
X170127400Y-130480000D01*
G75*
G02*
X170377400Y-130230000I250000J0D01*
G01*
G37*
G36*
G01*
X170377400Y-128155000D02*
X171327400Y-128155000D01*
G75*
G02*
X171577400Y-128405000I0J-250000D01*
G01*
X171577400Y-129080000D01*
G75*
G02*
X171327400Y-129330000I-250000J0D01*
G01*
X170377400Y-129330000D01*
G75*
G02*
X170127400Y-129080000I0J250000D01*
G01*
X170127400Y-128405000D01*
G75*
G02*
X170377400Y-128155000I250000J0D01*
G01*
G37*
%TD*%
%TO.C,C5*%
G36*
G01*
X173602400Y-118155000D02*
X173602400Y-117205000D01*
G75*
G02*
X173852400Y-116955000I250000J0D01*
G01*
X174527400Y-116955000D01*
G75*
G02*
X174777400Y-117205000I0J-250000D01*
G01*
X174777400Y-118155000D01*
G75*
G02*
X174527400Y-118405000I-250000J0D01*
G01*
X173852400Y-118405000D01*
G75*
G02*
X173602400Y-118155000I0J250000D01*
G01*
G37*
G36*
G01*
X171527400Y-118155000D02*
X171527400Y-117205000D01*
G75*
G02*
X171777400Y-116955000I250000J0D01*
G01*
X172452400Y-116955000D01*
G75*
G02*
X172702400Y-117205000I0J-250000D01*
G01*
X172702400Y-118155000D01*
G75*
G02*
X172452400Y-118405000I-250000J0D01*
G01*
X171777400Y-118405000D01*
G75*
G02*
X171527400Y-118155000I0J250000D01*
G01*
G37*
%TD*%
M02*
