%TF.GenerationSoftware,KiCad,Pcbnew,(5.1.10)-1*%
%TF.CreationDate,2021-12-11T23:56:17-05:00*%
%TF.ProjectId,bottom,626f7474-6f6d-42e6-9b69-6361645f7063,rev?*%
%TF.SameCoordinates,Original*%
%TF.FileFunction,Legend,Top*%
%TF.FilePolarity,Positive*%
%FSLAX46Y46*%
G04 Gerber Fmt 4.6, Leading zero omitted, Abs format (unit mm)*
G04 Created by KiCad (PCBNEW (5.1.10)-1) date 2021-12-11 23:56:17*
%MOMM*%
%LPD*%
G01*
G04 APERTURE LIST*
%ADD10C,0.300000*%
%ADD11C,0.200000*%
%ADD12C,0.120000*%
%ADD13C,0.100000*%
%ADD14C,0.203200*%
%ADD15C,0.304800*%
%ADD16C,0.127000*%
%ADD17C,0.150000*%
%ADD18C,0.121920*%
%ADD19C,0.050800*%
G04 APERTURE END LIST*
D10*
X163759542Y-133187142D02*
X163545257Y-133115714D01*
X163473828Y-133044285D01*
X163402400Y-132901428D01*
X163402400Y-132687142D01*
X163473828Y-132544285D01*
X163545257Y-132472857D01*
X163688114Y-132401428D01*
X164259542Y-132401428D01*
X164259542Y-133901428D01*
X163759542Y-133901428D01*
X163616685Y-133830000D01*
X163545257Y-133758571D01*
X163473828Y-133615714D01*
X163473828Y-133472857D01*
X163545257Y-133330000D01*
X163616685Y-133258571D01*
X163759542Y-133187142D01*
X164259542Y-133187142D01*
X162545257Y-132401428D02*
X162688114Y-132472857D01*
X162759542Y-132544285D01*
X162830971Y-132687142D01*
X162830971Y-133115714D01*
X162759542Y-133258571D01*
X162688114Y-133330000D01*
X162545257Y-133401428D01*
X162330971Y-133401428D01*
X162188114Y-133330000D01*
X162116685Y-133258571D01*
X162045257Y-133115714D01*
X162045257Y-132687142D01*
X162116685Y-132544285D01*
X162188114Y-132472857D01*
X162330971Y-132401428D01*
X162545257Y-132401428D01*
X161616685Y-133401428D02*
X161045257Y-133401428D01*
X161402400Y-133901428D02*
X161402400Y-132615714D01*
X161330971Y-132472857D01*
X161188114Y-132401428D01*
X161045257Y-132401428D01*
X160759542Y-133401428D02*
X160188114Y-133401428D01*
X160545257Y-133901428D02*
X160545257Y-132615714D01*
X160473828Y-132472857D01*
X160330971Y-132401428D01*
X160188114Y-132401428D01*
X159473828Y-132401428D02*
X159616685Y-132472857D01*
X159688114Y-132544285D01*
X159759542Y-132687142D01*
X159759542Y-133115714D01*
X159688114Y-133258571D01*
X159616685Y-133330000D01*
X159473828Y-133401428D01*
X159259542Y-133401428D01*
X159116685Y-133330000D01*
X159045257Y-133258571D01*
X158973828Y-133115714D01*
X158973828Y-132687142D01*
X159045257Y-132544285D01*
X159116685Y-132472857D01*
X159259542Y-132401428D01*
X159473828Y-132401428D01*
X158330971Y-132401428D02*
X158330971Y-133401428D01*
X158330971Y-133258571D02*
X158259542Y-133330000D01*
X158116685Y-133401428D01*
X157902400Y-133401428D01*
X157759542Y-133330000D01*
X157688114Y-133187142D01*
X157688114Y-132401428D01*
X157688114Y-133187142D02*
X157616685Y-133330000D01*
X157473828Y-133401428D01*
X157259542Y-133401428D01*
X157116685Y-133330000D01*
X157045257Y-133187142D01*
X157045257Y-132401428D01*
D11*
X147552400Y-133441904D02*
X147504780Y-133537142D01*
X147504780Y-133680000D01*
X147552400Y-133822857D01*
X147647638Y-133918095D01*
X147742876Y-133965714D01*
X147933352Y-134013333D01*
X148076209Y-134013333D01*
X148266685Y-133965714D01*
X148361923Y-133918095D01*
X148457161Y-133822857D01*
X148504780Y-133680000D01*
X148504780Y-133584761D01*
X148457161Y-133441904D01*
X148409542Y-133394285D01*
X148076209Y-133394285D01*
X148076209Y-133584761D01*
X148504780Y-132965714D02*
X147504780Y-132965714D01*
X148504780Y-132394285D01*
X147504780Y-132394285D01*
X148504780Y-131918095D02*
X147504780Y-131918095D01*
X147504780Y-131680000D01*
X147552400Y-131537142D01*
X147647638Y-131441904D01*
X147742876Y-131394285D01*
X147933352Y-131346666D01*
X148076209Y-131346666D01*
X148266685Y-131394285D01*
X148361923Y-131441904D01*
X148457161Y-131537142D01*
X148504780Y-131680000D01*
X148504780Y-131918095D01*
X148604780Y-129946666D02*
X148128590Y-130280000D01*
X148604780Y-130518095D02*
X147604780Y-130518095D01*
X147604780Y-130137142D01*
X147652400Y-130041904D01*
X147700019Y-129994285D01*
X147795257Y-129946666D01*
X147938114Y-129946666D01*
X148033352Y-129994285D01*
X148080971Y-130041904D01*
X148128590Y-130137142D01*
X148128590Y-130518095D01*
X147604780Y-129613333D02*
X148604780Y-128946666D01*
X147604780Y-128946666D02*
X148604780Y-129613333D01*
X147604780Y-128341904D02*
X147604780Y-127770476D01*
X148604780Y-128056190D02*
X147604780Y-128056190D01*
X147604780Y-127532380D02*
X148604780Y-126865714D01*
X147604780Y-126865714D02*
X148604780Y-127532380D01*
X147604780Y-125170476D02*
X147604780Y-125646666D01*
X148080971Y-125694285D01*
X148033352Y-125646666D01*
X147985733Y-125551428D01*
X147985733Y-125313333D01*
X148033352Y-125218095D01*
X148080971Y-125170476D01*
X148176209Y-125122857D01*
X148414304Y-125122857D01*
X148509542Y-125170476D01*
X148557161Y-125218095D01*
X148604780Y-125313333D01*
X148604780Y-125551428D01*
X148557161Y-125646666D01*
X148509542Y-125694285D01*
X147604780Y-124837142D02*
X148604780Y-124503809D01*
X147604780Y-124170476D01*
X155361923Y-116132380D02*
X154885733Y-116132380D01*
X154838114Y-116608571D01*
X154885733Y-116560952D01*
X154980971Y-116513333D01*
X155219066Y-116513333D01*
X155314304Y-116560952D01*
X155361923Y-116608571D01*
X155409542Y-116703809D01*
X155409542Y-116941904D01*
X155361923Y-117037142D01*
X155314304Y-117084761D01*
X155219066Y-117132380D01*
X154980971Y-117132380D01*
X154885733Y-117084761D01*
X154838114Y-117037142D01*
X155695257Y-116132380D02*
X156028590Y-117132380D01*
X156361923Y-116132380D01*
X163090495Y-116080000D02*
X162995257Y-116032380D01*
X162852400Y-116032380D01*
X162709542Y-116080000D01*
X162614304Y-116175238D01*
X162566685Y-116270476D01*
X162519066Y-116460952D01*
X162519066Y-116603809D01*
X162566685Y-116794285D01*
X162614304Y-116889523D01*
X162709542Y-116984761D01*
X162852400Y-117032380D01*
X162947638Y-117032380D01*
X163090495Y-116984761D01*
X163138114Y-116937142D01*
X163138114Y-116603809D01*
X162947638Y-116603809D01*
X163566685Y-117032380D02*
X163566685Y-116032380D01*
X164138114Y-117032380D01*
X164138114Y-116032380D01*
X164614304Y-117032380D02*
X164614304Y-116032380D01*
X164852400Y-116032380D01*
X164995257Y-116080000D01*
X165090495Y-116175238D01*
X165138114Y-116270476D01*
X165185733Y-116460952D01*
X165185733Y-116603809D01*
X165138114Y-116794285D01*
X165090495Y-116889523D01*
X164995257Y-116984761D01*
X164852400Y-117032380D01*
X164614304Y-117032380D01*
X157342876Y-115341904D02*
X157342876Y-115989523D01*
X157380971Y-116065714D01*
X157419066Y-116103809D01*
X157495257Y-116141904D01*
X157647638Y-116141904D01*
X157723828Y-116103809D01*
X157761923Y-116065714D01*
X157800019Y-115989523D01*
X157800019Y-115341904D01*
X158142876Y-116103809D02*
X158257161Y-116141904D01*
X158447638Y-116141904D01*
X158523828Y-116103809D01*
X158561923Y-116065714D01*
X158600019Y-115989523D01*
X158600019Y-115913333D01*
X158561923Y-115837142D01*
X158523828Y-115799047D01*
X158447638Y-115760952D01*
X158295257Y-115722857D01*
X158219066Y-115684761D01*
X158180971Y-115646666D01*
X158142876Y-115570476D01*
X158142876Y-115494285D01*
X158180971Y-115418095D01*
X158219066Y-115380000D01*
X158295257Y-115341904D01*
X158485733Y-115341904D01*
X158600019Y-115380000D01*
X159209542Y-115722857D02*
X159323828Y-115760952D01*
X159361923Y-115799047D01*
X159400019Y-115875238D01*
X159400019Y-115989523D01*
X159361923Y-116065714D01*
X159323828Y-116103809D01*
X159247638Y-116141904D01*
X158942876Y-116141904D01*
X158942876Y-115341904D01*
X159209542Y-115341904D01*
X159285733Y-115380000D01*
X159323828Y-115418095D01*
X159361923Y-115494285D01*
X159361923Y-115570476D01*
X159323828Y-115646666D01*
X159285733Y-115684761D01*
X159209542Y-115722857D01*
X158942876Y-115722857D01*
X158047638Y-117237142D02*
X158657161Y-117237142D01*
X160042876Y-115341904D02*
X160042876Y-115989523D01*
X160080971Y-116065714D01*
X160119066Y-116103809D01*
X160195257Y-116141904D01*
X160347638Y-116141904D01*
X160423828Y-116103809D01*
X160461923Y-116065714D01*
X160500019Y-115989523D01*
X160500019Y-115341904D01*
X160842876Y-116103809D02*
X160957161Y-116141904D01*
X161147638Y-116141904D01*
X161223828Y-116103809D01*
X161261923Y-116065714D01*
X161300019Y-115989523D01*
X161300019Y-115913333D01*
X161261923Y-115837142D01*
X161223828Y-115799047D01*
X161147638Y-115760952D01*
X160995257Y-115722857D01*
X160919066Y-115684761D01*
X160880971Y-115646666D01*
X160842876Y-115570476D01*
X160842876Y-115494285D01*
X160880971Y-115418095D01*
X160919066Y-115380000D01*
X160995257Y-115341904D01*
X161185733Y-115341904D01*
X161300019Y-115380000D01*
X161909542Y-115722857D02*
X162023828Y-115760952D01*
X162061923Y-115799047D01*
X162100019Y-115875238D01*
X162100019Y-115989523D01*
X162061923Y-116065714D01*
X162023828Y-116103809D01*
X161947638Y-116141904D01*
X161642876Y-116141904D01*
X161642876Y-115341904D01*
X161909542Y-115341904D01*
X161985733Y-115380000D01*
X162023828Y-115418095D01*
X162061923Y-115494285D01*
X162061923Y-115570476D01*
X162023828Y-115646666D01*
X161985733Y-115684761D01*
X161909542Y-115722857D01*
X161642876Y-115722857D01*
X160747638Y-117237142D02*
X161357161Y-117237142D01*
X161052400Y-117541904D02*
X161052400Y-116932380D01*
D12*
%TO.C,U4*%
X157862400Y-102620000D02*
X156602400Y-102620000D01*
X151042400Y-102620000D02*
X152302400Y-102620000D01*
X157862400Y-106380000D02*
X157862400Y-102620000D01*
X151042400Y-108630000D02*
X151042400Y-102620000D01*
%TO.C,R13*%
X169217400Y-117952936D02*
X169217400Y-118407064D01*
X170687400Y-117952936D02*
X170687400Y-118407064D01*
%TO.C,D5*%
X166592400Y-116320000D02*
X166592400Y-119180000D01*
X168512400Y-116320000D02*
X166592400Y-116320000D01*
X168512400Y-119180000D02*
X168512400Y-116320000D01*
%TO.C,R12*%
X162717400Y-108452936D02*
X162717400Y-108907064D01*
X164187400Y-108452936D02*
X164187400Y-108907064D01*
%TO.C,D4*%
X159992400Y-108795000D02*
X159992400Y-111655000D01*
X161912400Y-108795000D02*
X159992400Y-108795000D01*
X161912400Y-111655000D02*
X161912400Y-108795000D01*
D13*
%TO.C,J96*%
X164852400Y-115580000D02*
X164352400Y-115580000D01*
X164852400Y-115580000D02*
X164852400Y-116080000D01*
X164852400Y-122180000D02*
X164352400Y-122180000D01*
X164852400Y-122180000D02*
X164852400Y-121680000D01*
D12*
%TO.C,U5*%
X150852400Y-120530000D02*
X150852400Y-120280000D01*
X168852400Y-120280000D02*
X168852400Y-120530000D01*
X168852400Y-140280000D02*
X168852400Y-133780000D01*
X150852400Y-140280000D02*
X150852400Y-133780000D01*
X150852400Y-134280000D02*
X168802400Y-134280000D01*
X150852400Y-120280000D02*
X168852400Y-120280000D01*
X168852400Y-140280000D02*
X150852400Y-140280000D01*
D14*
%TO.C,S1*%
X148692400Y-114640000D02*
X148692400Y-117150000D01*
X147692400Y-118420000D02*
X144612400Y-118420000D01*
X143612400Y-117120000D02*
X143612400Y-114640000D01*
X144612400Y-113340000D02*
X147692400Y-113340000D01*
X147422400Y-115880000D02*
G75*
G03*
X147422400Y-115880000I-1270000J0D01*
G01*
D12*
%TO.C,R11*%
X153517400Y-111607064D02*
X153517400Y-111152936D01*
X154987400Y-111607064D02*
X154987400Y-111152936D01*
%TO.C,C7*%
X172428648Y-122245000D02*
X172951152Y-122245000D01*
X172428648Y-123715000D02*
X172951152Y-123715000D01*
%TO.C,C6*%
X172428648Y-125715000D02*
X172951152Y-125715000D01*
X172428648Y-124245000D02*
X172951152Y-124245000D01*
%TO.C,C4*%
X159691148Y-108415000D02*
X160213652Y-108415000D01*
X159691148Y-106945000D02*
X160213652Y-106945000D01*
%TO.C,R10*%
X186017400Y-84052936D02*
X186017400Y-84507064D01*
X187487400Y-84052936D02*
X187487400Y-84507064D01*
%TO.C,D2*%
X183092400Y-82395000D02*
X183092400Y-85255000D01*
X185012400Y-82395000D02*
X183092400Y-82395000D01*
X185012400Y-85255000D02*
X185012400Y-82395000D01*
D15*
%TO.C,J90*%
X185251620Y-64229700D02*
X165752040Y-64229700D01*
X167253180Y-63980780D02*
X185251620Y-63980780D01*
X186752760Y-63729320D02*
X167253180Y-63729320D01*
X185269400Y-79965000D02*
X185251620Y-64979000D01*
X185269400Y-79990400D02*
X174169600Y-79990400D01*
X167235400Y-79990400D02*
X167253180Y-64979000D01*
X167235400Y-79990400D02*
X174220400Y-79990400D01*
X165752040Y-63980780D02*
X167253180Y-63980780D01*
X167253180Y-63980780D02*
X167253180Y-63480400D01*
X167253180Y-63480400D02*
X186752760Y-63480400D01*
X186752760Y-63980780D02*
X185251620Y-63980780D01*
X185251620Y-63980780D02*
X185251620Y-64481160D01*
X185251620Y-64481160D02*
X165752040Y-64481160D01*
X167253180Y-64979000D02*
X167753560Y-64979000D01*
X185251620Y-64979000D02*
X184751240Y-64979000D01*
X167753560Y-64481160D02*
X167753560Y-64979000D01*
X184751240Y-64979000D02*
X184751240Y-64481160D01*
X186752760Y-63480400D02*
X186752760Y-63980780D01*
X165752040Y-64481160D02*
X165752040Y-63980780D01*
D16*
%TO.C,J70*%
X122272400Y-74145000D02*
X122272400Y-87275000D01*
X122272400Y-87275000D02*
X120762400Y-87275000D01*
X116182400Y-87275000D02*
X108272400Y-87275000D01*
X108272400Y-87275000D02*
X108272400Y-74145000D01*
X108272400Y-74145000D02*
X116182400Y-74145000D01*
X120762400Y-74145000D02*
X122272400Y-74145000D01*
D10*
X123112400Y-77210000D02*
G75*
G03*
X123112400Y-77210000I-150000J0D01*
G01*
D15*
%TO.C,J40*%
X143352040Y-64581160D02*
X143352040Y-64080780D01*
X164352760Y-63580400D02*
X164352760Y-64080780D01*
X162351240Y-65079000D02*
X162351240Y-64581160D01*
X145353560Y-64581160D02*
X145353560Y-65079000D01*
X162851620Y-65079000D02*
X162351240Y-65079000D01*
X144853180Y-65079000D02*
X145353560Y-65079000D01*
X162851620Y-64581160D02*
X143352040Y-64581160D01*
X162851620Y-64080780D02*
X162851620Y-64581160D01*
X164352760Y-64080780D02*
X162851620Y-64080780D01*
X144853180Y-63580400D02*
X164352760Y-63580400D01*
X144853180Y-64080780D02*
X144853180Y-63580400D01*
X143352040Y-64080780D02*
X144853180Y-64080780D01*
X144835400Y-80090400D02*
X151820400Y-80090400D01*
X144835400Y-80090400D02*
X144853180Y-65079000D01*
X162869400Y-80090400D02*
X151769600Y-80090400D01*
X162869400Y-80065000D02*
X162851620Y-65079000D01*
X164352760Y-63829320D02*
X144853180Y-63829320D01*
X144853180Y-64080780D02*
X162851620Y-64080780D01*
X162851620Y-64329700D02*
X143352040Y-64329700D01*
D17*
%TO.C,J0*%
X183052400Y-133680000D02*
X182002400Y-133680000D01*
X177952400Y-133680000D02*
X171852400Y-133680000D01*
X171852400Y-133680000D02*
X171852400Y-127680000D01*
X171852400Y-127680000D02*
X172702400Y-127680000D01*
X179702400Y-127680000D02*
X174752400Y-127680000D01*
X181952400Y-127680000D02*
X183052400Y-127680000D01*
X183052400Y-127680000D02*
X183052400Y-128180000D01*
X183052400Y-128180000D02*
X185752400Y-128180000D01*
X185752400Y-128180000D02*
X185752400Y-133180000D01*
X185752400Y-133180000D02*
X183052400Y-133180000D01*
X183052400Y-133180000D02*
X183052400Y-133680000D01*
X181952400Y-133680000D02*
X179952400Y-133680000D01*
D13*
%TO.C,J99*%
X142752400Y-123600000D02*
X142752400Y-124100000D01*
X142752400Y-123600000D02*
X143252400Y-123600000D01*
X149352400Y-123600000D02*
X149352400Y-124100000D01*
X149352400Y-123600000D02*
X148852400Y-123600000D01*
D12*
%TO.C,R8*%
X163487400Y-82452936D02*
X163487400Y-82907064D01*
X162017400Y-82452936D02*
X162017400Y-82907064D01*
%TO.C,R7*%
X142617400Y-80752936D02*
X142617400Y-81207064D01*
X144087400Y-80752936D02*
X144087400Y-81207064D01*
%TO.C,R4*%
X178017400Y-81652936D02*
X178017400Y-82107064D01*
X179487400Y-81652936D02*
X179487400Y-82107064D01*
%TO.C,R3*%
X175517400Y-81652936D02*
X175517400Y-82107064D01*
X176987400Y-81652936D02*
X176987400Y-82107064D01*
%TO.C,R2*%
X174387400Y-81652936D02*
X174387400Y-82107064D01*
X172917400Y-81652936D02*
X172917400Y-82107064D01*
%TO.C,C2*%
X159717400Y-82941252D02*
X159717400Y-82418748D01*
X161187400Y-82941252D02*
X161187400Y-82418748D01*
%TO.C,C1*%
X180191148Y-96015000D02*
X180713652Y-96015000D01*
X180191148Y-94545000D02*
X180713652Y-94545000D01*
%TO.C,J39*%
X183856220Y-124899540D02*
X186516220Y-124899540D01*
X183856220Y-117219540D02*
X183856220Y-124899540D01*
X186516220Y-117219540D02*
X186516220Y-124899540D01*
X183856220Y-117219540D02*
X186516220Y-117219540D01*
X183856220Y-115949540D02*
X183856220Y-114619540D01*
X183856220Y-114619540D02*
X185186220Y-114619540D01*
%TO.C,J38*%
X114636140Y-100220900D02*
X117296140Y-100220900D01*
X114636140Y-92540900D02*
X114636140Y-100220900D01*
X117296140Y-92540900D02*
X117296140Y-100220900D01*
X114636140Y-92540900D02*
X117296140Y-92540900D01*
X114636140Y-91270900D02*
X114636140Y-89940900D01*
X114636140Y-89940900D02*
X115966140Y-89940900D01*
%TO.C,J37*%
X183838440Y-89986620D02*
X185168440Y-89986620D01*
X183838440Y-91316620D02*
X183838440Y-89986620D01*
X183838440Y-92586620D02*
X186498440Y-92586620D01*
X186498440Y-92586620D02*
X186498440Y-100266620D01*
X183838440Y-92586620D02*
X183838440Y-100266620D01*
X183838440Y-100266620D02*
X186498440Y-100266620D01*
%TO.C,J36*%
X114610740Y-102775520D02*
X115940740Y-102775520D01*
X114610740Y-104105520D02*
X114610740Y-102775520D01*
X114610740Y-105375520D02*
X117270740Y-105375520D01*
X117270740Y-105375520D02*
X117270740Y-113055520D01*
X114610740Y-105375520D02*
X114610740Y-113055520D01*
X114610740Y-113055520D02*
X117270740Y-113055520D01*
%TO.C,J35*%
X114577720Y-124924940D02*
X117237720Y-124924940D01*
X114577720Y-117244940D02*
X114577720Y-124924940D01*
X117237720Y-117244940D02*
X117237720Y-124924940D01*
X114577720Y-117244940D02*
X117237720Y-117244940D01*
X114577720Y-115974940D02*
X114577720Y-114644940D01*
X114577720Y-114644940D02*
X115907720Y-114644940D01*
%TO.C,J34*%
X183851140Y-102785680D02*
X185181140Y-102785680D01*
X183851140Y-104115680D02*
X183851140Y-102785680D01*
X183851140Y-105385680D02*
X186511140Y-105385680D01*
X186511140Y-105385680D02*
X186511140Y-113065680D01*
X183851140Y-105385680D02*
X183851140Y-113065680D01*
X183851140Y-113065680D02*
X186511140Y-113065680D01*
%TO.C,U3*%
X156868420Y-81461200D02*
X155218420Y-81461200D01*
X156868420Y-89201200D02*
X156868420Y-81461200D01*
X151568420Y-89201200D02*
X156868420Y-89201200D01*
X151568420Y-81461200D02*
X151568420Y-89201200D01*
X153218420Y-81461200D02*
X151568420Y-81461200D01*
X155218420Y-81461200D02*
G75*
G02*
X153218420Y-81461200I-1000000J0D01*
G01*
%TO.C,U2*%
X182682400Y-91540000D02*
X182682400Y-89890000D01*
X164782400Y-91540000D02*
X182682400Y-91540000D01*
X164782400Y-86240000D02*
X164782400Y-91540000D01*
X182682400Y-86240000D02*
X164782400Y-86240000D01*
X182682400Y-87890000D02*
X182682400Y-86240000D01*
X182682400Y-89890000D02*
G75*
G02*
X182682400Y-87890000I0J1000000D01*
G01*
D17*
%TO.C,U1*%
X133730426Y-115515000D02*
G75*
G03*
X133730426Y-115515000I-898026J0D01*
G01*
X139182400Y-95830000D02*
X126482400Y-95830000D01*
X139182400Y-108530000D02*
X139182400Y-95830000D01*
X126482400Y-108530000D02*
X139182400Y-108530000D01*
X126482400Y-95830000D02*
X126482400Y-108530000D01*
X129533200Y-81809200D02*
X126993200Y-81809200D01*
X129533200Y-79269200D02*
X129533200Y-81809200D01*
X126993200Y-79269200D02*
X129533200Y-79269200D01*
X126993200Y-91969200D02*
X126993200Y-79269200D01*
X129533200Y-91969200D02*
X126993200Y-91969200D01*
X129533200Y-79269200D02*
X129533200Y-91969200D01*
X134102400Y-113610000D02*
X134102400Y-117420000D01*
X131562400Y-113610000D02*
X134102400Y-113610000D01*
X131562400Y-117420000D02*
X131562400Y-113610000D01*
X134102400Y-117420000D02*
X131562400Y-117420000D01*
X127752400Y-132660000D02*
X127752400Y-133930000D01*
X137912400Y-132660000D02*
X127752400Y-132660000D01*
X137912400Y-133930000D02*
X137912400Y-132660000D01*
X126482400Y-121230000D02*
X126482400Y-133930000D01*
X139182400Y-121230000D02*
X126482400Y-121230000D01*
X139182400Y-133930000D02*
X139182400Y-121230000D01*
X129022400Y-72970000D02*
X129022400Y-71700000D01*
X129022400Y-71700000D02*
X136642400Y-71700000D01*
X136642400Y-71700000D02*
X136642400Y-72970000D01*
X129022400Y-78050000D02*
X136642400Y-78050000D01*
X136642400Y-78050000D02*
X136642400Y-72970000D01*
X129022400Y-78050000D02*
X129022400Y-72970000D01*
X141722400Y-72970000D02*
X141722400Y-133930000D01*
X141722400Y-133930000D02*
X123942400Y-133930000D01*
X123942400Y-133930000D02*
X123942400Y-72970000D01*
X123942400Y-72970000D02*
X141722400Y-72970000D01*
D13*
G36*
X132377400Y-105885000D02*
G01*
X132123400Y-105631000D01*
X132504400Y-105377000D01*
X132758400Y-105631000D01*
X132377400Y-105885000D01*
G37*
X132377400Y-105885000D02*
X132123400Y-105631000D01*
X132504400Y-105377000D01*
X132758400Y-105631000D01*
X132377400Y-105885000D01*
G36*
X132885400Y-105504000D02*
G01*
X132631400Y-105250000D01*
X133012400Y-104996000D01*
X133266400Y-105250000D01*
X132885400Y-105504000D01*
G37*
X132885400Y-105504000D02*
X132631400Y-105250000D01*
X133012400Y-104996000D01*
X133266400Y-105250000D01*
X132885400Y-105504000D01*
G36*
X133393400Y-105123000D02*
G01*
X133139400Y-104869000D01*
X133520400Y-104615000D01*
X133774400Y-104869000D01*
X133393400Y-105123000D01*
G37*
X133393400Y-105123000D02*
X133139400Y-104869000D01*
X133520400Y-104615000D01*
X133774400Y-104869000D01*
X133393400Y-105123000D01*
G36*
X132504400Y-105123000D02*
G01*
X132250400Y-104869000D01*
X132631400Y-104615000D01*
X132885400Y-104869000D01*
X132504400Y-105123000D01*
G37*
X132504400Y-105123000D02*
X132250400Y-104869000D01*
X132631400Y-104615000D01*
X132885400Y-104869000D01*
X132504400Y-105123000D01*
G36*
X133012400Y-104742000D02*
G01*
X132758400Y-104488000D01*
X133139400Y-104234000D01*
X133393400Y-104488000D01*
X133012400Y-104742000D01*
G37*
X133012400Y-104742000D02*
X132758400Y-104488000D01*
X133139400Y-104234000D01*
X133393400Y-104488000D01*
X133012400Y-104742000D01*
G36*
X133520400Y-104361000D02*
G01*
X133266400Y-104107000D01*
X133647400Y-103853000D01*
X133901400Y-104107000D01*
X133520400Y-104361000D01*
G37*
X133520400Y-104361000D02*
X133266400Y-104107000D01*
X133647400Y-103853000D01*
X133901400Y-104107000D01*
X133520400Y-104361000D01*
G36*
X132758400Y-106266000D02*
G01*
X132504400Y-106012000D01*
X132885400Y-105758000D01*
X133139400Y-106012000D01*
X132758400Y-106266000D01*
G37*
X132758400Y-106266000D02*
X132504400Y-106012000D01*
X132885400Y-105758000D01*
X133139400Y-106012000D01*
X132758400Y-106266000D01*
G36*
X133139400Y-106647000D02*
G01*
X132885400Y-106393000D01*
X133266400Y-106139000D01*
X133520400Y-106393000D01*
X133139400Y-106647000D01*
G37*
X133139400Y-106647000D02*
X132885400Y-106393000D01*
X133266400Y-106139000D01*
X133520400Y-106393000D01*
X133139400Y-106647000D01*
D12*
%TO.C,D1*%
X148027540Y-84364160D02*
X145787540Y-84364160D01*
X148027540Y-84604160D02*
X145787540Y-84604160D01*
X148027540Y-84484160D02*
X145787540Y-84484160D01*
X146907540Y-88654160D02*
X146907540Y-88004160D01*
X146907540Y-83114160D02*
X146907540Y-83764160D01*
X148027540Y-88004160D02*
X148027540Y-83764160D01*
X145787540Y-88004160D02*
X148027540Y-88004160D01*
X145787540Y-83764160D02*
X145787540Y-88004160D01*
X148027540Y-83764160D02*
X145787540Y-83764160D01*
%TO.C,C3*%
X153517400Y-115541252D02*
X153517400Y-115018748D01*
X154987400Y-115541252D02*
X154987400Y-115018748D01*
%TO.C,C5*%
X157287400Y-111218748D02*
X157287400Y-111741252D01*
X155817400Y-111218748D02*
X155817400Y-111741252D01*
%TO.C,U4*%
D17*
X149404780Y-105291904D02*
X150214304Y-105291904D01*
X150309542Y-105244285D01*
X150357161Y-105196666D01*
X150404780Y-105101428D01*
X150404780Y-104910952D01*
X150357161Y-104815714D01*
X150309542Y-104768095D01*
X150214304Y-104720476D01*
X149404780Y-104720476D01*
X149738114Y-103815714D02*
X150404780Y-103815714D01*
X149357161Y-104053809D02*
X150071447Y-104291904D01*
X150071447Y-103672857D01*
%TO.C,R13*%
X170504780Y-115622857D02*
X170028590Y-115956190D01*
X170504780Y-116194285D02*
X169504780Y-116194285D01*
X169504780Y-115813333D01*
X169552400Y-115718095D01*
X169600019Y-115670476D01*
X169695257Y-115622857D01*
X169838114Y-115622857D01*
X169933352Y-115670476D01*
X169980971Y-115718095D01*
X170028590Y-115813333D01*
X170028590Y-116194285D01*
X170504780Y-114670476D02*
X170504780Y-115241904D01*
X170504780Y-114956190D02*
X169504780Y-114956190D01*
X169647638Y-115051428D01*
X169742876Y-115146666D01*
X169790495Y-115241904D01*
X169504780Y-114337142D02*
X169504780Y-113718095D01*
X169885733Y-114051428D01*
X169885733Y-113908571D01*
X169933352Y-113813333D01*
X169980971Y-113765714D01*
X170076209Y-113718095D01*
X170314304Y-113718095D01*
X170409542Y-113765714D01*
X170457161Y-113813333D01*
X170504780Y-113908571D01*
X170504780Y-114194285D01*
X170457161Y-114289523D01*
X170409542Y-114337142D01*
%TO.C,D5*%
X168104780Y-116018095D02*
X167104780Y-116018095D01*
X167104780Y-115780000D01*
X167152400Y-115637142D01*
X167247638Y-115541904D01*
X167342876Y-115494285D01*
X167533352Y-115446666D01*
X167676209Y-115446666D01*
X167866685Y-115494285D01*
X167961923Y-115541904D01*
X168057161Y-115637142D01*
X168104780Y-115780000D01*
X168104780Y-116018095D01*
X167104780Y-114541904D02*
X167104780Y-115018095D01*
X167580971Y-115065714D01*
X167533352Y-115018095D01*
X167485733Y-114922857D01*
X167485733Y-114684761D01*
X167533352Y-114589523D01*
X167580971Y-114541904D01*
X167676209Y-114494285D01*
X167914304Y-114494285D01*
X168009542Y-114541904D01*
X168057161Y-114589523D01*
X168104780Y-114684761D01*
X168104780Y-114922857D01*
X168057161Y-115018095D01*
X168009542Y-115065714D01*
%TO.C,R12*%
X165554780Y-109322857D02*
X165078590Y-109656190D01*
X165554780Y-109894285D02*
X164554780Y-109894285D01*
X164554780Y-109513333D01*
X164602400Y-109418095D01*
X164650019Y-109370476D01*
X164745257Y-109322857D01*
X164888114Y-109322857D01*
X164983352Y-109370476D01*
X165030971Y-109418095D01*
X165078590Y-109513333D01*
X165078590Y-109894285D01*
X165554780Y-108370476D02*
X165554780Y-108941904D01*
X165554780Y-108656190D02*
X164554780Y-108656190D01*
X164697638Y-108751428D01*
X164792876Y-108846666D01*
X164840495Y-108941904D01*
X164650019Y-107989523D02*
X164602400Y-107941904D01*
X164554780Y-107846666D01*
X164554780Y-107608571D01*
X164602400Y-107513333D01*
X164650019Y-107465714D01*
X164745257Y-107418095D01*
X164840495Y-107418095D01*
X164983352Y-107465714D01*
X165554780Y-108037142D01*
X165554780Y-107418095D01*
%TO.C,D4*%
X163054780Y-111393095D02*
X162054780Y-111393095D01*
X162054780Y-111155000D01*
X162102400Y-111012142D01*
X162197638Y-110916904D01*
X162292876Y-110869285D01*
X162483352Y-110821666D01*
X162626209Y-110821666D01*
X162816685Y-110869285D01*
X162911923Y-110916904D01*
X163007161Y-111012142D01*
X163054780Y-111155000D01*
X163054780Y-111393095D01*
X162388114Y-109964523D02*
X163054780Y-109964523D01*
X162007161Y-110202619D02*
X162721447Y-110440714D01*
X162721447Y-109821666D01*
%TO.C,J96*%
X158412876Y-122892380D02*
X158412876Y-123606666D01*
X158365257Y-123749523D01*
X158270019Y-123844761D01*
X158127161Y-123892380D01*
X158031923Y-123892380D01*
X158936685Y-123892380D02*
X159127161Y-123892380D01*
X159222400Y-123844761D01*
X159270019Y-123797142D01*
X159365257Y-123654285D01*
X159412876Y-123463809D01*
X159412876Y-123082857D01*
X159365257Y-122987619D01*
X159317638Y-122940000D01*
X159222400Y-122892380D01*
X159031923Y-122892380D01*
X158936685Y-122940000D01*
X158889066Y-122987619D01*
X158841447Y-123082857D01*
X158841447Y-123320952D01*
X158889066Y-123416190D01*
X158936685Y-123463809D01*
X159031923Y-123511428D01*
X159222400Y-123511428D01*
X159317638Y-123463809D01*
X159365257Y-123416190D01*
X159412876Y-123320952D01*
X160270019Y-122892380D02*
X160079542Y-122892380D01*
X159984304Y-122940000D01*
X159936685Y-122987619D01*
X159841447Y-123130476D01*
X159793828Y-123320952D01*
X159793828Y-123701904D01*
X159841447Y-123797142D01*
X159889066Y-123844761D01*
X159984304Y-123892380D01*
X160174780Y-123892380D01*
X160270019Y-123844761D01*
X160317638Y-123797142D01*
X160365257Y-123701904D01*
X160365257Y-123463809D01*
X160317638Y-123368571D01*
X160270019Y-123320952D01*
X160174780Y-123273333D01*
X159984304Y-123273333D01*
X159889066Y-123320952D01*
X159841447Y-123368571D01*
X159793828Y-123463809D01*
%TO.C,U5*%
X159090495Y-141482380D02*
X159090495Y-142291904D01*
X159138114Y-142387142D01*
X159185733Y-142434761D01*
X159280971Y-142482380D01*
X159471447Y-142482380D01*
X159566685Y-142434761D01*
X159614304Y-142387142D01*
X159661923Y-142291904D01*
X159661923Y-141482380D01*
X160614304Y-141482380D02*
X160138114Y-141482380D01*
X160090495Y-141958571D01*
X160138114Y-141910952D01*
X160233352Y-141863333D01*
X160471447Y-141863333D01*
X160566685Y-141910952D01*
X160614304Y-141958571D01*
X160661923Y-142053809D01*
X160661923Y-142291904D01*
X160614304Y-142387142D01*
X160566685Y-142434761D01*
X160471447Y-142482380D01*
X160233352Y-142482380D01*
X160138114Y-142434761D01*
X160090495Y-142387142D01*
X155090495Y-137846666D02*
X155566685Y-137846666D01*
X154995257Y-138132380D02*
X155328590Y-137132380D01*
X155661923Y-138132380D01*
X155995257Y-137465714D02*
X155995257Y-138132380D01*
X155995257Y-137560952D02*
X156042876Y-137513333D01*
X156138114Y-137465714D01*
X156280971Y-137465714D01*
X156376209Y-137513333D01*
X156423828Y-137608571D01*
X156423828Y-138132380D01*
X156757161Y-137465714D02*
X157138114Y-137465714D01*
X156900019Y-137132380D02*
X156900019Y-137989523D01*
X156947638Y-138084761D01*
X157042876Y-138132380D01*
X157138114Y-138132380D01*
X157852400Y-138084761D02*
X157757161Y-138132380D01*
X157566685Y-138132380D01*
X157471447Y-138084761D01*
X157423828Y-137989523D01*
X157423828Y-137608571D01*
X157471447Y-137513333D01*
X157566685Y-137465714D01*
X157757161Y-137465714D01*
X157852400Y-137513333D01*
X157900019Y-137608571D01*
X157900019Y-137703809D01*
X157423828Y-137799047D01*
X158328590Y-137465714D02*
X158328590Y-138132380D01*
X158328590Y-137560952D02*
X158376209Y-137513333D01*
X158471447Y-137465714D01*
X158614304Y-137465714D01*
X158709542Y-137513333D01*
X158757161Y-137608571D01*
X158757161Y-138132380D01*
X159233352Y-137465714D02*
X159233352Y-138132380D01*
X159233352Y-137560952D02*
X159280971Y-137513333D01*
X159376209Y-137465714D01*
X159519066Y-137465714D01*
X159614304Y-137513333D01*
X159661923Y-137608571D01*
X159661923Y-138132380D01*
X160566685Y-138132380D02*
X160566685Y-137608571D01*
X160519066Y-137513333D01*
X160423828Y-137465714D01*
X160233352Y-137465714D01*
X160138114Y-137513333D01*
X160566685Y-138084761D02*
X160471447Y-138132380D01*
X160233352Y-138132380D01*
X160138114Y-138084761D01*
X160090495Y-137989523D01*
X160090495Y-137894285D01*
X160138114Y-137799047D01*
X160233352Y-137751428D01*
X160471447Y-137751428D01*
X160566685Y-137703809D01*
X161757161Y-137846666D02*
X162233352Y-137846666D01*
X161661923Y-138132380D02*
X161995257Y-137132380D01*
X162328590Y-138132380D01*
X162661923Y-138132380D02*
X162661923Y-137465714D01*
X162661923Y-137656190D02*
X162709542Y-137560952D01*
X162757161Y-137513333D01*
X162852400Y-137465714D01*
X162947638Y-137465714D01*
X163661923Y-138084761D02*
X163566685Y-138132380D01*
X163376209Y-138132380D01*
X163280971Y-138084761D01*
X163233352Y-137989523D01*
X163233352Y-137608571D01*
X163280971Y-137513333D01*
X163376209Y-137465714D01*
X163566685Y-137465714D01*
X163661923Y-137513333D01*
X163709542Y-137608571D01*
X163709542Y-137703809D01*
X163233352Y-137799047D01*
X164566685Y-138132380D02*
X164566685Y-137608571D01*
X164519066Y-137513333D01*
X164423828Y-137465714D01*
X164233352Y-137465714D01*
X164138114Y-137513333D01*
X164566685Y-138084761D02*
X164471447Y-138132380D01*
X164233352Y-138132380D01*
X164138114Y-138084761D01*
X164090495Y-137989523D01*
X164090495Y-137894285D01*
X164138114Y-137799047D01*
X164233352Y-137751428D01*
X164471447Y-137751428D01*
X164566685Y-137703809D01*
%TO.C,S1*%
D18*
X144732177Y-118133342D02*
X145173411Y-118298805D01*
X144732177Y-118464268D01*
X145449182Y-118519422D02*
X145449182Y-117940302D01*
X145780108Y-118519422D01*
X145780108Y-117940302D01*
X146304074Y-118519422D02*
X146304074Y-118216074D01*
X146276497Y-118160920D01*
X146221342Y-118133342D01*
X146111034Y-118133342D01*
X146055880Y-118160920D01*
X146304074Y-118491845D02*
X146248920Y-118519422D01*
X146111034Y-118519422D01*
X146055880Y-118491845D01*
X146028302Y-118436691D01*
X146028302Y-118381537D01*
X146055880Y-118326382D01*
X146111034Y-118298805D01*
X146248920Y-118298805D01*
X146304074Y-118271228D01*
X146579845Y-118519422D02*
X146579845Y-118133342D01*
X146579845Y-118188497D02*
X146607422Y-118160920D01*
X146662577Y-118133342D01*
X146745308Y-118133342D01*
X146800462Y-118160920D01*
X146828040Y-118216074D01*
X146828040Y-118519422D01*
X146828040Y-118216074D02*
X146855617Y-118160920D01*
X146910771Y-118133342D01*
X146993502Y-118133342D01*
X147048657Y-118160920D01*
X147076234Y-118216074D01*
X147076234Y-118519422D01*
X147572622Y-118491845D02*
X147517468Y-118519422D01*
X147407160Y-118519422D01*
X147352005Y-118491845D01*
X147324428Y-118436691D01*
X147324428Y-118216074D01*
X147352005Y-118160920D01*
X147407160Y-118133342D01*
X147517468Y-118133342D01*
X147572622Y-118160920D01*
X147600200Y-118216074D01*
X147600200Y-118271228D01*
X147324428Y-118326382D01*
%TO.C,R11*%
D17*
X153054780Y-112022857D02*
X152578590Y-112356190D01*
X153054780Y-112594285D02*
X152054780Y-112594285D01*
X152054780Y-112213333D01*
X152102400Y-112118095D01*
X152150019Y-112070476D01*
X152245257Y-112022857D01*
X152388114Y-112022857D01*
X152483352Y-112070476D01*
X152530971Y-112118095D01*
X152578590Y-112213333D01*
X152578590Y-112594285D01*
X153054780Y-111070476D02*
X153054780Y-111641904D01*
X153054780Y-111356190D02*
X152054780Y-111356190D01*
X152197638Y-111451428D01*
X152292876Y-111546666D01*
X152340495Y-111641904D01*
X153054780Y-110118095D02*
X153054780Y-110689523D01*
X153054780Y-110403809D02*
X152054780Y-110403809D01*
X152197638Y-110499047D01*
X152292876Y-110594285D01*
X152340495Y-110689523D01*
%TO.C,C7*%
X175660733Y-123537142D02*
X175613114Y-123584761D01*
X175470257Y-123632380D01*
X175375019Y-123632380D01*
X175232161Y-123584761D01*
X175136923Y-123489523D01*
X175089304Y-123394285D01*
X175041685Y-123203809D01*
X175041685Y-123060952D01*
X175089304Y-122870476D01*
X175136923Y-122775238D01*
X175232161Y-122680000D01*
X175375019Y-122632380D01*
X175470257Y-122632380D01*
X175613114Y-122680000D01*
X175660733Y-122727619D01*
X175994066Y-122632380D02*
X176660733Y-122632380D01*
X176232161Y-123632380D01*
%TO.C,C6*%
X175660733Y-125537142D02*
X175613114Y-125584761D01*
X175470257Y-125632380D01*
X175375019Y-125632380D01*
X175232161Y-125584761D01*
X175136923Y-125489523D01*
X175089304Y-125394285D01*
X175041685Y-125203809D01*
X175041685Y-125060952D01*
X175089304Y-124870476D01*
X175136923Y-124775238D01*
X175232161Y-124680000D01*
X175375019Y-124632380D01*
X175470257Y-124632380D01*
X175613114Y-124680000D01*
X175660733Y-124727619D01*
X176517876Y-124632380D02*
X176327400Y-124632380D01*
X176232161Y-124680000D01*
X176184542Y-124727619D01*
X176089304Y-124870476D01*
X176041685Y-125060952D01*
X176041685Y-125441904D01*
X176089304Y-125537142D01*
X176136923Y-125584761D01*
X176232161Y-125632380D01*
X176422638Y-125632380D01*
X176517876Y-125584761D01*
X176565495Y-125537142D01*
X176613114Y-125441904D01*
X176613114Y-125203809D01*
X176565495Y-125108571D01*
X176517876Y-125060952D01*
X176422638Y-125013333D01*
X176232161Y-125013333D01*
X176136923Y-125060952D01*
X176089304Y-125108571D01*
X176041685Y-125203809D01*
%TO.C,C4*%
X159785733Y-106357142D02*
X159738114Y-106404761D01*
X159595257Y-106452380D01*
X159500019Y-106452380D01*
X159357161Y-106404761D01*
X159261923Y-106309523D01*
X159214304Y-106214285D01*
X159166685Y-106023809D01*
X159166685Y-105880952D01*
X159214304Y-105690476D01*
X159261923Y-105595238D01*
X159357161Y-105500000D01*
X159500019Y-105452380D01*
X159595257Y-105452380D01*
X159738114Y-105500000D01*
X159785733Y-105547619D01*
X160642876Y-105785714D02*
X160642876Y-106452380D01*
X160404780Y-105404761D02*
X160166685Y-106119047D01*
X160785733Y-106119047D01*
%TO.C,R10*%
X186009542Y-82132380D02*
X185676209Y-81656190D01*
X185438114Y-82132380D02*
X185438114Y-81132380D01*
X185819066Y-81132380D01*
X185914304Y-81180000D01*
X185961923Y-81227619D01*
X186009542Y-81322857D01*
X186009542Y-81465714D01*
X185961923Y-81560952D01*
X185914304Y-81608571D01*
X185819066Y-81656190D01*
X185438114Y-81656190D01*
X186961923Y-82132380D02*
X186390495Y-82132380D01*
X186676209Y-82132380D02*
X186676209Y-81132380D01*
X186580971Y-81275238D01*
X186485733Y-81370476D01*
X186390495Y-81418095D01*
X187580971Y-81132380D02*
X187676209Y-81132380D01*
X187771447Y-81180000D01*
X187819066Y-81227619D01*
X187866685Y-81322857D01*
X187914304Y-81513333D01*
X187914304Y-81751428D01*
X187866685Y-81941904D01*
X187819066Y-82037142D01*
X187771447Y-82084761D01*
X187676209Y-82132380D01*
X187580971Y-82132380D01*
X187485733Y-82084761D01*
X187438114Y-82037142D01*
X187390495Y-81941904D01*
X187342876Y-81751428D01*
X187342876Y-81513333D01*
X187390495Y-81322857D01*
X187438114Y-81227619D01*
X187485733Y-81180000D01*
X187580971Y-81132380D01*
%TO.C,D2*%
X183314304Y-82107380D02*
X183314304Y-81107380D01*
X183552400Y-81107380D01*
X183695257Y-81155000D01*
X183790495Y-81250238D01*
X183838114Y-81345476D01*
X183885733Y-81535952D01*
X183885733Y-81678809D01*
X183838114Y-81869285D01*
X183790495Y-81964523D01*
X183695257Y-82059761D01*
X183552400Y-82107380D01*
X183314304Y-82107380D01*
X184266685Y-81202619D02*
X184314304Y-81155000D01*
X184409542Y-81107380D01*
X184647638Y-81107380D01*
X184742876Y-81155000D01*
X184790495Y-81202619D01*
X184838114Y-81297857D01*
X184838114Y-81393095D01*
X184790495Y-81535952D01*
X184219066Y-82107380D01*
X184838114Y-82107380D01*
%TO.C,J0*%
D19*
X184034020Y-130762926D02*
X184318863Y-130762926D01*
X184375831Y-130781916D01*
X184413810Y-130819895D01*
X184432800Y-130876863D01*
X184432800Y-130914842D01*
X184034020Y-130497073D02*
X184034020Y-130459094D01*
X184053010Y-130421115D01*
X184071999Y-130402125D01*
X184109978Y-130383136D01*
X184185936Y-130364146D01*
X184280884Y-130364146D01*
X184356842Y-130383136D01*
X184394821Y-130402125D01*
X184413810Y-130421115D01*
X184432800Y-130459094D01*
X184432800Y-130497073D01*
X184413810Y-130535052D01*
X184394821Y-130554041D01*
X184356842Y-130573031D01*
X184280884Y-130592020D01*
X184185936Y-130592020D01*
X184109978Y-130573031D01*
X184071999Y-130554041D01*
X184053010Y-130535052D01*
X184034020Y-130497073D01*
%TO.C,R8*%
D17*
X163204780Y-85946666D02*
X162728590Y-86280000D01*
X163204780Y-86518095D02*
X162204780Y-86518095D01*
X162204780Y-86137142D01*
X162252400Y-86041904D01*
X162300019Y-85994285D01*
X162395257Y-85946666D01*
X162538114Y-85946666D01*
X162633352Y-85994285D01*
X162680971Y-86041904D01*
X162728590Y-86137142D01*
X162728590Y-86518095D01*
X162633352Y-85375238D02*
X162585733Y-85470476D01*
X162538114Y-85518095D01*
X162442876Y-85565714D01*
X162395257Y-85565714D01*
X162300019Y-85518095D01*
X162252400Y-85470476D01*
X162204780Y-85375238D01*
X162204780Y-85184761D01*
X162252400Y-85089523D01*
X162300019Y-85041904D01*
X162395257Y-84994285D01*
X162442876Y-84994285D01*
X162538114Y-85041904D01*
X162585733Y-85089523D01*
X162633352Y-85184761D01*
X162633352Y-85375238D01*
X162680971Y-85470476D01*
X162728590Y-85518095D01*
X162823828Y-85565714D01*
X163014304Y-85565714D01*
X163109542Y-85518095D01*
X163157161Y-85470476D01*
X163204780Y-85375238D01*
X163204780Y-85184761D01*
X163157161Y-85089523D01*
X163109542Y-85041904D01*
X163014304Y-84994285D01*
X162823828Y-84994285D01*
X162728590Y-85041904D01*
X162680971Y-85089523D01*
X162633352Y-85184761D01*
%TO.C,R7*%
X142704780Y-78346666D02*
X142228590Y-78680000D01*
X142704780Y-78918095D02*
X141704780Y-78918095D01*
X141704780Y-78537142D01*
X141752400Y-78441904D01*
X141800019Y-78394285D01*
X141895257Y-78346666D01*
X142038114Y-78346666D01*
X142133352Y-78394285D01*
X142180971Y-78441904D01*
X142228590Y-78537142D01*
X142228590Y-78918095D01*
X141704780Y-78013333D02*
X141704780Y-77346666D01*
X142704780Y-77775238D01*
%TO.C,R4*%
X181004780Y-81746666D02*
X180528590Y-82080000D01*
X181004780Y-82318095D02*
X180004780Y-82318095D01*
X180004780Y-81937142D01*
X180052400Y-81841904D01*
X180100019Y-81794285D01*
X180195257Y-81746666D01*
X180338114Y-81746666D01*
X180433352Y-81794285D01*
X180480971Y-81841904D01*
X180528590Y-81937142D01*
X180528590Y-82318095D01*
X180338114Y-80889523D02*
X181004780Y-80889523D01*
X179957161Y-81127619D02*
X180671447Y-81365714D01*
X180671447Y-80746666D01*
%TO.C,R3*%
X176904780Y-79046666D02*
X176428590Y-79380000D01*
X176904780Y-79618095D02*
X175904780Y-79618095D01*
X175904780Y-79237142D01*
X175952400Y-79141904D01*
X176000019Y-79094285D01*
X176095257Y-79046666D01*
X176238114Y-79046666D01*
X176333352Y-79094285D01*
X176380971Y-79141904D01*
X176428590Y-79237142D01*
X176428590Y-79618095D01*
X175904780Y-78713333D02*
X175904780Y-78094285D01*
X176285733Y-78427619D01*
X176285733Y-78284761D01*
X176333352Y-78189523D01*
X176380971Y-78141904D01*
X176476209Y-78094285D01*
X176714304Y-78094285D01*
X176809542Y-78141904D01*
X176857161Y-78189523D01*
X176904780Y-78284761D01*
X176904780Y-78570476D01*
X176857161Y-78665714D01*
X176809542Y-78713333D01*
%TO.C,R2*%
X172204780Y-81946666D02*
X171728590Y-82280000D01*
X172204780Y-82518095D02*
X171204780Y-82518095D01*
X171204780Y-82137142D01*
X171252400Y-82041904D01*
X171300019Y-81994285D01*
X171395257Y-81946666D01*
X171538114Y-81946666D01*
X171633352Y-81994285D01*
X171680971Y-82041904D01*
X171728590Y-82137142D01*
X171728590Y-82518095D01*
X171300019Y-81565714D02*
X171252400Y-81518095D01*
X171204780Y-81422857D01*
X171204780Y-81184761D01*
X171252400Y-81089523D01*
X171300019Y-81041904D01*
X171395257Y-80994285D01*
X171490495Y-80994285D01*
X171633352Y-81041904D01*
X172204780Y-81613333D01*
X172204780Y-80994285D01*
%TO.C,C2*%
X160809542Y-85846666D02*
X160857161Y-85894285D01*
X160904780Y-86037142D01*
X160904780Y-86132380D01*
X160857161Y-86275238D01*
X160761923Y-86370476D01*
X160666685Y-86418095D01*
X160476209Y-86465714D01*
X160333352Y-86465714D01*
X160142876Y-86418095D01*
X160047638Y-86370476D01*
X159952400Y-86275238D01*
X159904780Y-86132380D01*
X159904780Y-86037142D01*
X159952400Y-85894285D01*
X160000019Y-85846666D01*
X160000019Y-85465714D02*
X159952400Y-85418095D01*
X159904780Y-85322857D01*
X159904780Y-85084761D01*
X159952400Y-84989523D01*
X160000019Y-84941904D01*
X160095257Y-84894285D01*
X160190495Y-84894285D01*
X160333352Y-84941904D01*
X160904780Y-85513333D01*
X160904780Y-84894285D01*
%TO.C,C1*%
X177185733Y-95637142D02*
X177138114Y-95684761D01*
X176995257Y-95732380D01*
X176900019Y-95732380D01*
X176757161Y-95684761D01*
X176661923Y-95589523D01*
X176614304Y-95494285D01*
X176566685Y-95303809D01*
X176566685Y-95160952D01*
X176614304Y-94970476D01*
X176661923Y-94875238D01*
X176757161Y-94780000D01*
X176900019Y-94732380D01*
X176995257Y-94732380D01*
X177138114Y-94780000D01*
X177185733Y-94827619D01*
X178138114Y-95732380D02*
X177566685Y-95732380D01*
X177852400Y-95732380D02*
X177852400Y-94732380D01*
X177757161Y-94875238D01*
X177661923Y-94970476D01*
X177566685Y-95018095D01*
%TO.C,J39*%
X184376696Y-113332380D02*
X184376696Y-114046666D01*
X184329077Y-114189523D01*
X184233839Y-114284761D01*
X184090981Y-114332380D01*
X183995743Y-114332380D01*
X184757648Y-113332380D02*
X185376696Y-113332380D01*
X185043362Y-113713333D01*
X185186220Y-113713333D01*
X185281458Y-113760952D01*
X185329077Y-113808571D01*
X185376696Y-113903809D01*
X185376696Y-114141904D01*
X185329077Y-114237142D01*
X185281458Y-114284761D01*
X185186220Y-114332380D01*
X184900505Y-114332380D01*
X184805267Y-114284761D01*
X184757648Y-114237142D01*
X185852886Y-114332380D02*
X186043362Y-114332380D01*
X186138600Y-114284761D01*
X186186220Y-114237142D01*
X186281458Y-114094285D01*
X186329077Y-113903809D01*
X186329077Y-113522857D01*
X186281458Y-113427619D01*
X186233839Y-113380000D01*
X186138600Y-113332380D01*
X185948124Y-113332380D01*
X185852886Y-113380000D01*
X185805267Y-113427619D01*
X185757648Y-113522857D01*
X185757648Y-113760952D01*
X185805267Y-113856190D01*
X185852886Y-113903809D01*
X185948124Y-113951428D01*
X186138600Y-113951428D01*
X186233839Y-113903809D01*
X186281458Y-113856190D01*
X186329077Y-113760952D01*
%TO.C,J38*%
X118042876Y-91032380D02*
X118042876Y-91746666D01*
X117995257Y-91889523D01*
X117900019Y-91984761D01*
X117757161Y-92032380D01*
X117661923Y-92032380D01*
X118423828Y-91032380D02*
X119042876Y-91032380D01*
X118709542Y-91413333D01*
X118852400Y-91413333D01*
X118947638Y-91460952D01*
X118995257Y-91508571D01*
X119042876Y-91603809D01*
X119042876Y-91841904D01*
X118995257Y-91937142D01*
X118947638Y-91984761D01*
X118852400Y-92032380D01*
X118566685Y-92032380D01*
X118471447Y-91984761D01*
X118423828Y-91937142D01*
X119614304Y-91460952D02*
X119519066Y-91413333D01*
X119471447Y-91365714D01*
X119423828Y-91270476D01*
X119423828Y-91222857D01*
X119471447Y-91127619D01*
X119519066Y-91080000D01*
X119614304Y-91032380D01*
X119804780Y-91032380D01*
X119900019Y-91080000D01*
X119947638Y-91127619D01*
X119995257Y-91222857D01*
X119995257Y-91270476D01*
X119947638Y-91365714D01*
X119900019Y-91413333D01*
X119804780Y-91460952D01*
X119614304Y-91460952D01*
X119519066Y-91508571D01*
X119471447Y-91556190D01*
X119423828Y-91651428D01*
X119423828Y-91841904D01*
X119471447Y-91937142D01*
X119519066Y-91984761D01*
X119614304Y-92032380D01*
X119804780Y-92032380D01*
X119900019Y-91984761D01*
X119947638Y-91937142D01*
X119995257Y-91841904D01*
X119995257Y-91651428D01*
X119947638Y-91556190D01*
X119900019Y-91508571D01*
X119804780Y-91460952D01*
%TO.C,J37*%
X185042876Y-88632380D02*
X185042876Y-89346666D01*
X184995257Y-89489523D01*
X184900019Y-89584761D01*
X184757161Y-89632380D01*
X184661923Y-89632380D01*
X185423828Y-88632380D02*
X186042876Y-88632380D01*
X185709542Y-89013333D01*
X185852400Y-89013333D01*
X185947638Y-89060952D01*
X185995257Y-89108571D01*
X186042876Y-89203809D01*
X186042876Y-89441904D01*
X185995257Y-89537142D01*
X185947638Y-89584761D01*
X185852400Y-89632380D01*
X185566685Y-89632380D01*
X185471447Y-89584761D01*
X185423828Y-89537142D01*
X186376209Y-88632380D02*
X187042876Y-88632380D01*
X186614304Y-89632380D01*
%TO.C,J36*%
X115131216Y-101227900D02*
X115131216Y-101942186D01*
X115083597Y-102085043D01*
X114988359Y-102180281D01*
X114845501Y-102227900D01*
X114750263Y-102227900D01*
X115512168Y-101227900D02*
X116131216Y-101227900D01*
X115797882Y-101608853D01*
X115940740Y-101608853D01*
X116035978Y-101656472D01*
X116083597Y-101704091D01*
X116131216Y-101799329D01*
X116131216Y-102037424D01*
X116083597Y-102132662D01*
X116035978Y-102180281D01*
X115940740Y-102227900D01*
X115655025Y-102227900D01*
X115559787Y-102180281D01*
X115512168Y-102132662D01*
X116988359Y-101227900D02*
X116797882Y-101227900D01*
X116702644Y-101275520D01*
X116655025Y-101323139D01*
X116559787Y-101465996D01*
X116512168Y-101656472D01*
X116512168Y-102037424D01*
X116559787Y-102132662D01*
X116607406Y-102180281D01*
X116702644Y-102227900D01*
X116893120Y-102227900D01*
X116988359Y-102180281D01*
X117035978Y-102132662D01*
X117083597Y-102037424D01*
X117083597Y-101799329D01*
X117035978Y-101704091D01*
X116988359Y-101656472D01*
X116893120Y-101608853D01*
X116702644Y-101608853D01*
X116607406Y-101656472D01*
X116559787Y-101704091D01*
X116512168Y-101799329D01*
%TO.C,J35*%
X115098196Y-113332380D02*
X115098196Y-114046666D01*
X115050577Y-114189523D01*
X114955339Y-114284761D01*
X114812481Y-114332380D01*
X114717243Y-114332380D01*
X115479148Y-113332380D02*
X116098196Y-113332380D01*
X115764862Y-113713333D01*
X115907720Y-113713333D01*
X116002958Y-113760952D01*
X116050577Y-113808571D01*
X116098196Y-113903809D01*
X116098196Y-114141904D01*
X116050577Y-114237142D01*
X116002958Y-114284761D01*
X115907720Y-114332380D01*
X115622005Y-114332380D01*
X115526767Y-114284761D01*
X115479148Y-114237142D01*
X117002958Y-113332380D02*
X116526767Y-113332380D01*
X116479148Y-113808571D01*
X116526767Y-113760952D01*
X116622005Y-113713333D01*
X116860100Y-113713333D01*
X116955339Y-113760952D01*
X117002958Y-113808571D01*
X117050577Y-113903809D01*
X117050577Y-114141904D01*
X117002958Y-114237142D01*
X116955339Y-114284761D01*
X116860100Y-114332380D01*
X116622005Y-114332380D01*
X116526767Y-114284761D01*
X116479148Y-114237142D01*
%TO.C,J34*%
X184371616Y-101238060D02*
X184371616Y-101952346D01*
X184323997Y-102095203D01*
X184228759Y-102190441D01*
X184085901Y-102238060D01*
X183990663Y-102238060D01*
X184752568Y-101238060D02*
X185371616Y-101238060D01*
X185038282Y-101619013D01*
X185181140Y-101619013D01*
X185276378Y-101666632D01*
X185323997Y-101714251D01*
X185371616Y-101809489D01*
X185371616Y-102047584D01*
X185323997Y-102142822D01*
X185276378Y-102190441D01*
X185181140Y-102238060D01*
X184895425Y-102238060D01*
X184800187Y-102190441D01*
X184752568Y-102142822D01*
X186228759Y-101571394D02*
X186228759Y-102238060D01*
X185990663Y-101190441D02*
X185752568Y-101904727D01*
X186371616Y-101904727D01*
%TO.C,U3*%
X153690495Y-84832380D02*
X153690495Y-85641904D01*
X153738114Y-85737142D01*
X153785733Y-85784761D01*
X153880971Y-85832380D01*
X154071447Y-85832380D01*
X154166685Y-85784761D01*
X154214304Y-85737142D01*
X154261923Y-85641904D01*
X154261923Y-84832380D01*
X154642876Y-84832380D02*
X155261923Y-84832380D01*
X154928590Y-85213333D01*
X155071447Y-85213333D01*
X155166685Y-85260952D01*
X155214304Y-85308571D01*
X155261923Y-85403809D01*
X155261923Y-85641904D01*
X155214304Y-85737142D01*
X155166685Y-85784761D01*
X155071447Y-85832380D01*
X154785733Y-85832380D01*
X154690495Y-85784761D01*
X154642876Y-85737142D01*
%TO.C,U2*%
X182804780Y-89641904D02*
X183614304Y-89641904D01*
X183709542Y-89594285D01*
X183757161Y-89546666D01*
X183804780Y-89451428D01*
X183804780Y-89260952D01*
X183757161Y-89165714D01*
X183709542Y-89118095D01*
X183614304Y-89070476D01*
X182804780Y-89070476D01*
X182900019Y-88641904D02*
X182852400Y-88594285D01*
X182804780Y-88499047D01*
X182804780Y-88260952D01*
X182852400Y-88165714D01*
X182900019Y-88118095D01*
X182995257Y-88070476D01*
X183090495Y-88070476D01*
X183233352Y-88118095D01*
X183804780Y-88689523D01*
X183804780Y-88070476D01*
%TO.C,U1*%
X132283855Y-96953700D02*
X132283855Y-97763224D01*
X132331474Y-97858462D01*
X132379093Y-97906081D01*
X132474331Y-97953700D01*
X132664807Y-97953700D01*
X132760045Y-97906081D01*
X132807664Y-97858462D01*
X132855283Y-97763224D01*
X132855283Y-96953700D01*
X133855283Y-97953700D02*
X133283855Y-97953700D01*
X133569569Y-97953700D02*
X133569569Y-96953700D01*
X133474331Y-97096558D01*
X133379093Y-97191796D01*
X133283855Y-97239415D01*
X129795580Y-88293723D02*
X130605104Y-88293723D01*
X130700342Y-88246104D01*
X130747961Y-88198485D01*
X130795580Y-88103247D01*
X130795580Y-87912771D01*
X130747961Y-87817533D01*
X130700342Y-87769914D01*
X130605104Y-87722295D01*
X129795580Y-87722295D01*
X130747961Y-87293723D02*
X130795580Y-87150866D01*
X130795580Y-86912771D01*
X130747961Y-86817533D01*
X130700342Y-86769914D01*
X130605104Y-86722295D01*
X130509866Y-86722295D01*
X130414628Y-86769914D01*
X130367009Y-86817533D01*
X130319390Y-86912771D01*
X130271771Y-87103247D01*
X130224152Y-87198485D01*
X130176533Y-87246104D01*
X130081295Y-87293723D01*
X129986057Y-87293723D01*
X129890819Y-87246104D01*
X129843200Y-87198485D01*
X129795580Y-87103247D01*
X129795580Y-86865152D01*
X129843200Y-86722295D01*
X130271771Y-85960390D02*
X130319390Y-85817533D01*
X130367009Y-85769914D01*
X130462247Y-85722295D01*
X130605104Y-85722295D01*
X130700342Y-85769914D01*
X130747961Y-85817533D01*
X130795580Y-85912771D01*
X130795580Y-86293723D01*
X129795580Y-86293723D01*
X129795580Y-85960390D01*
X129843200Y-85865152D01*
X129890819Y-85817533D01*
X129986057Y-85769914D01*
X130081295Y-85769914D01*
X130176533Y-85817533D01*
X130224152Y-85865152D01*
X130271771Y-85960390D01*
X130271771Y-86293723D01*
X130795580Y-84531819D02*
X129795580Y-84531819D01*
X130271771Y-84531819D02*
X130271771Y-83960390D01*
X130795580Y-83960390D02*
X129795580Y-83960390D01*
X130795580Y-83341342D02*
X130747961Y-83436580D01*
X130700342Y-83484200D01*
X130605104Y-83531819D01*
X130319390Y-83531819D01*
X130224152Y-83484200D01*
X130176533Y-83436580D01*
X130128914Y-83341342D01*
X130128914Y-83198485D01*
X130176533Y-83103247D01*
X130224152Y-83055628D01*
X130319390Y-83008009D01*
X130605104Y-83008009D01*
X130700342Y-83055628D01*
X130747961Y-83103247D01*
X130795580Y-83198485D01*
X130795580Y-83341342D01*
X130747961Y-82627057D02*
X130795580Y-82531819D01*
X130795580Y-82341342D01*
X130747961Y-82246104D01*
X130652723Y-82198485D01*
X130605104Y-82198485D01*
X130509866Y-82246104D01*
X130462247Y-82341342D01*
X130462247Y-82484200D01*
X130414628Y-82579438D01*
X130319390Y-82627057D01*
X130271771Y-82627057D01*
X130176533Y-82579438D01*
X130128914Y-82484200D01*
X130128914Y-82341342D01*
X130176533Y-82246104D01*
X130128914Y-81912771D02*
X130128914Y-81531819D01*
X129795580Y-81769914D02*
X130652723Y-81769914D01*
X130747961Y-81722295D01*
X130795580Y-81627057D01*
X130795580Y-81531819D01*
X131570495Y-76232380D02*
X131570495Y-77041904D01*
X131618114Y-77137142D01*
X131665733Y-77184761D01*
X131760971Y-77232380D01*
X131951447Y-77232380D01*
X132046685Y-77184761D01*
X132094304Y-77137142D01*
X132141923Y-77041904D01*
X132141923Y-76232380D01*
X132570495Y-77184761D02*
X132713352Y-77232380D01*
X132951447Y-77232380D01*
X133046685Y-77184761D01*
X133094304Y-77137142D01*
X133141923Y-77041904D01*
X133141923Y-76946666D01*
X133094304Y-76851428D01*
X133046685Y-76803809D01*
X132951447Y-76756190D01*
X132760971Y-76708571D01*
X132665733Y-76660952D01*
X132618114Y-76613333D01*
X132570495Y-76518095D01*
X132570495Y-76422857D01*
X132618114Y-76327619D01*
X132665733Y-76280000D01*
X132760971Y-76232380D01*
X132999066Y-76232380D01*
X133141923Y-76280000D01*
X133903828Y-76708571D02*
X134046685Y-76756190D01*
X134094304Y-76803809D01*
X134141923Y-76899047D01*
X134141923Y-77041904D01*
X134094304Y-77137142D01*
X134046685Y-77184761D01*
X133951447Y-77232380D01*
X133570495Y-77232380D01*
X133570495Y-76232380D01*
X133903828Y-76232380D01*
X133999066Y-76280000D01*
X134046685Y-76327619D01*
X134094304Y-76422857D01*
X134094304Y-76518095D01*
X134046685Y-76613333D01*
X133999066Y-76660952D01*
X133903828Y-76708571D01*
X133570495Y-76708571D01*
X130223892Y-125947040D02*
X130223892Y-124947040D01*
X130557225Y-125661326D01*
X130890559Y-124947040D01*
X130890559Y-125947040D01*
X131366749Y-125947040D02*
X131366749Y-125280374D01*
X131366749Y-124947040D02*
X131319130Y-124994660D01*
X131366749Y-125042279D01*
X131414368Y-124994660D01*
X131366749Y-124947040D01*
X131366749Y-125042279D01*
X132271511Y-125899421D02*
X132176273Y-125947040D01*
X131985797Y-125947040D01*
X131890559Y-125899421D01*
X131842940Y-125851802D01*
X131795320Y-125756564D01*
X131795320Y-125470850D01*
X131842940Y-125375612D01*
X131890559Y-125327993D01*
X131985797Y-125280374D01*
X132176273Y-125280374D01*
X132271511Y-125327993D01*
X132700082Y-125947040D02*
X132700082Y-125280374D01*
X132700082Y-125470850D02*
X132747701Y-125375612D01*
X132795320Y-125327993D01*
X132890559Y-125280374D01*
X132985797Y-125280374D01*
X133461987Y-125947040D02*
X133366749Y-125899421D01*
X133319130Y-125851802D01*
X133271511Y-125756564D01*
X133271511Y-125470850D01*
X133319130Y-125375612D01*
X133366749Y-125327993D01*
X133461987Y-125280374D01*
X133604844Y-125280374D01*
X133700082Y-125327993D01*
X133747701Y-125375612D01*
X133795320Y-125470850D01*
X133795320Y-125756564D01*
X133747701Y-125851802D01*
X133700082Y-125899421D01*
X133604844Y-125947040D01*
X133461987Y-125947040D01*
X134938178Y-125899421D02*
X135081035Y-125947040D01*
X135319130Y-125947040D01*
X135414368Y-125899421D01*
X135461987Y-125851802D01*
X135509606Y-125756564D01*
X135509606Y-125661326D01*
X135461987Y-125566088D01*
X135414368Y-125518469D01*
X135319130Y-125470850D01*
X135128654Y-125423231D01*
X135033416Y-125375612D01*
X134985797Y-125327993D01*
X134938178Y-125232755D01*
X134938178Y-125137517D01*
X134985797Y-125042279D01*
X135033416Y-124994660D01*
X135128654Y-124947040D01*
X135366749Y-124947040D01*
X135509606Y-124994660D01*
X135938178Y-125947040D02*
X135938178Y-124947040D01*
X136176273Y-124947040D01*
X136319130Y-124994660D01*
X136414368Y-125089898D01*
X136461987Y-125185136D01*
X136509606Y-125375612D01*
X136509606Y-125518469D01*
X136461987Y-125708945D01*
X136414368Y-125804183D01*
X136319130Y-125899421D01*
X136176273Y-125947040D01*
X135938178Y-125947040D01*
X129947186Y-100004926D02*
X129947186Y-99304926D01*
X130180520Y-99804926D01*
X130413853Y-99304926D01*
X130413853Y-100004926D01*
X130747186Y-100004926D02*
X130747186Y-99304926D01*
X131080520Y-100004926D02*
X131080520Y-99304926D01*
X131313853Y-99804926D01*
X131547186Y-99304926D01*
X131547186Y-100004926D01*
X131813853Y-99304926D02*
X132280520Y-100004926D01*
X132280520Y-99304926D02*
X131813853Y-100004926D01*
X132947186Y-100004926D02*
X132713853Y-99671593D01*
X132547186Y-100004926D02*
X132547186Y-99304926D01*
X132813853Y-99304926D01*
X132880520Y-99338260D01*
X132913853Y-99371593D01*
X132947186Y-99438260D01*
X132947186Y-99538260D01*
X132913853Y-99604926D01*
X132880520Y-99638260D01*
X132813853Y-99671593D01*
X132547186Y-99671593D01*
X133147186Y-99304926D02*
X133547186Y-99304926D01*
X133347186Y-100004926D02*
X133347186Y-99304926D01*
X134147186Y-100004926D02*
X133747186Y-100004926D01*
X133947186Y-100004926D02*
X133947186Y-99304926D01*
X133880520Y-99404926D01*
X133813853Y-99471593D01*
X133747186Y-99504926D01*
X134580520Y-99304926D02*
X134647186Y-99304926D01*
X134713853Y-99338260D01*
X134747186Y-99371593D01*
X134780520Y-99438260D01*
X134813853Y-99571593D01*
X134813853Y-99738260D01*
X134780520Y-99871593D01*
X134747186Y-99938260D01*
X134713853Y-99971593D01*
X134647186Y-100004926D01*
X134580520Y-100004926D01*
X134513853Y-99971593D01*
X134480520Y-99938260D01*
X134447186Y-99871593D01*
X134413853Y-99738260D01*
X134413853Y-99571593D01*
X134447186Y-99438260D01*
X134480520Y-99371593D01*
X134513853Y-99338260D01*
X134580520Y-99304926D01*
X135413853Y-99304926D02*
X135280520Y-99304926D01*
X135213853Y-99338260D01*
X135180520Y-99371593D01*
X135113853Y-99471593D01*
X135080520Y-99604926D01*
X135080520Y-99871593D01*
X135113853Y-99938260D01*
X135147186Y-99971593D01*
X135213853Y-100004926D01*
X135347186Y-100004926D01*
X135413853Y-99971593D01*
X135447186Y-99938260D01*
X135480520Y-99871593D01*
X135480520Y-99704926D01*
X135447186Y-99638260D01*
X135413853Y-99604926D01*
X135347186Y-99571593D01*
X135213853Y-99571593D01*
X135147186Y-99604926D01*
X135113853Y-99638260D01*
X135080520Y-99704926D01*
X135747186Y-99371593D02*
X135780520Y-99338260D01*
X135847186Y-99304926D01*
X136013853Y-99304926D01*
X136080520Y-99338260D01*
X136113853Y-99371593D01*
X136147186Y-99438260D01*
X136147186Y-99504926D01*
X136113853Y-99604926D01*
X135713853Y-100004926D01*
X136147186Y-100004926D01*
X131629066Y-99006706D02*
X131629066Y-98306706D01*
X131795733Y-98306706D01*
X131895733Y-98340040D01*
X131962400Y-98406706D01*
X131995733Y-98473373D01*
X132029066Y-98606706D01*
X132029066Y-98706706D01*
X131995733Y-98840040D01*
X131962400Y-98906706D01*
X131895733Y-98973373D01*
X131795733Y-99006706D01*
X131629066Y-99006706D01*
X132229066Y-98306706D02*
X132462400Y-99006706D01*
X132695733Y-98306706D01*
X133129066Y-98306706D02*
X133129066Y-98806706D01*
X133095733Y-98906706D01*
X133029066Y-98973373D01*
X132929066Y-99006706D01*
X132862400Y-99006706D01*
X133762400Y-98306706D02*
X133629066Y-98306706D01*
X133562400Y-98340040D01*
X133529066Y-98373373D01*
X133462400Y-98473373D01*
X133429066Y-98606706D01*
X133429066Y-98873373D01*
X133462400Y-98940040D01*
X133495733Y-98973373D01*
X133562400Y-99006706D01*
X133695733Y-99006706D01*
X133762400Y-98973373D01*
X133795733Y-98940040D01*
X133829066Y-98873373D01*
X133829066Y-98706706D01*
X133795733Y-98640040D01*
X133762400Y-98606706D01*
X133695733Y-98573373D01*
X133562400Y-98573373D01*
X133495733Y-98606706D01*
X133462400Y-98640040D01*
X133429066Y-98706706D01*
X134095733Y-98806706D02*
X134429066Y-98806706D01*
X134029066Y-99006706D02*
X134262400Y-98306706D01*
X134495733Y-99006706D01*
%TO.C,D1*%
X145304780Y-86622255D02*
X144304780Y-86622255D01*
X144304780Y-86384160D01*
X144352400Y-86241302D01*
X144447638Y-86146064D01*
X144542876Y-86098445D01*
X144733352Y-86050826D01*
X144876209Y-86050826D01*
X145066685Y-86098445D01*
X145161923Y-86146064D01*
X145257161Y-86241302D01*
X145304780Y-86384160D01*
X145304780Y-86622255D01*
X145304780Y-85098445D02*
X145304780Y-85669874D01*
X145304780Y-85384160D02*
X144304780Y-85384160D01*
X144447638Y-85479398D01*
X144542876Y-85574636D01*
X144590495Y-85669874D01*
X147404780Y-86041904D02*
X146404780Y-86041904D01*
X147404780Y-85470476D02*
X146833352Y-85899047D01*
X146404780Y-85470476D02*
X146976209Y-86041904D01*
%TO.C,C3*%
X154209542Y-112409166D02*
X154257161Y-112456785D01*
X154304780Y-112599642D01*
X154304780Y-112694880D01*
X154257161Y-112837738D01*
X154161923Y-112932976D01*
X154066685Y-112980595D01*
X153876209Y-113028214D01*
X153733352Y-113028214D01*
X153542876Y-112980595D01*
X153447638Y-112932976D01*
X153352400Y-112837738D01*
X153304780Y-112694880D01*
X153304780Y-112599642D01*
X153352400Y-112456785D01*
X153400019Y-112409166D01*
X153304780Y-112075833D02*
X153304780Y-111456785D01*
X153685733Y-111790119D01*
X153685733Y-111647261D01*
X153733352Y-111552023D01*
X153780971Y-111504404D01*
X153876209Y-111456785D01*
X154114304Y-111456785D01*
X154209542Y-111504404D01*
X154257161Y-111552023D01*
X154304780Y-111647261D01*
X154304780Y-111932976D01*
X154257161Y-112028214D01*
X154209542Y-112075833D01*
%TO.C,C5*%
X158589542Y-111646666D02*
X158637161Y-111694285D01*
X158684780Y-111837142D01*
X158684780Y-111932380D01*
X158637161Y-112075238D01*
X158541923Y-112170476D01*
X158446685Y-112218095D01*
X158256209Y-112265714D01*
X158113352Y-112265714D01*
X157922876Y-112218095D01*
X157827638Y-112170476D01*
X157732400Y-112075238D01*
X157684780Y-111932380D01*
X157684780Y-111837142D01*
X157732400Y-111694285D01*
X157780019Y-111646666D01*
X157684780Y-110741904D02*
X157684780Y-111218095D01*
X158160971Y-111265714D01*
X158113352Y-111218095D01*
X158065733Y-111122857D01*
X158065733Y-110884761D01*
X158113352Y-110789523D01*
X158160971Y-110741904D01*
X158256209Y-110694285D01*
X158494304Y-110694285D01*
X158589542Y-110741904D01*
X158637161Y-110789523D01*
X158684780Y-110884761D01*
X158684780Y-111122857D01*
X158637161Y-111218095D01*
X158589542Y-111265714D01*
%TD*%
M02*
