%TF.GenerationSoftware,KiCad,Pcbnew,(6.0.2)*%
%TF.CreationDate,2023-02-09T01:22:52-05:00*%
%TF.ProjectId,bottom,626f7474-6f6d-42e6-9b69-6361645f7063,rev?*%
%TF.SameCoordinates,Original*%
%TF.FileFunction,Profile,NP*%
%FSLAX46Y46*%
G04 Gerber Fmt 4.6, Leading zero omitted, Abs format (unit mm)*
G04 Created by KiCad (PCBNEW (6.0.2)) date 2023-02-09 01:22:52*
%MOMM*%
%LPD*%
G01*
G04 APERTURE LIST*
%TA.AperFunction,Profile*%
%ADD10C,0.100000*%
%TD*%
G04 APERTURE END LIST*
D10*
X187242972Y-120833815D02*
X187234515Y-120870269D01*
X144406244Y-58985591D02*
X144443981Y-58972742D01*
X116937761Y-137868918D02*
X116941064Y-137812613D01*
X115762359Y-67018167D02*
X115802568Y-67006256D01*
X186910654Y-121311318D02*
X186878404Y-121330302D01*
X187195415Y-68858180D02*
X187200999Y-86079999D01*
X175469000Y-112798997D02*
X175469000Y-106391001D01*
X144140050Y-59156757D02*
X144168967Y-59129237D01*
X115361820Y-67309194D02*
X115387380Y-67275882D01*
X117592317Y-138900851D02*
X117541158Y-138877162D01*
X116937388Y-137925346D02*
X116937761Y-137868918D01*
X144560661Y-58946656D02*
X183379975Y-58939000D01*
X187254276Y-120760008D02*
X187242972Y-120833815D01*
X183379975Y-58939000D02*
X183500056Y-58934011D01*
X187063496Y-68143678D02*
X187098206Y-68242097D01*
X117442739Y-138821900D02*
X117395838Y-138790521D01*
X183949708Y-59026940D02*
X184002026Y-59051691D01*
X144443981Y-58972742D02*
X144482410Y-58961939D01*
X183500056Y-58934011D02*
X183557818Y-58935087D01*
X144333174Y-59017281D02*
X144369305Y-59000438D01*
X112733186Y-121489138D02*
X112691245Y-121481363D01*
X115248071Y-67532447D02*
X115262052Y-67492966D01*
X186971979Y-121268632D02*
X186910654Y-121311318D01*
X186878404Y-121330302D02*
X186811366Y-121363183D01*
X187028634Y-121219996D02*
X186971979Y-121268632D01*
X184002026Y-59051691D02*
X184052869Y-59079124D01*
X184321590Y-59296423D02*
X184359089Y-59340440D01*
X184281778Y-59254413D02*
X184321590Y-59296423D01*
X115843294Y-66996477D02*
X115884528Y-66988832D01*
X144369305Y-59000438D02*
X144406244Y-58985591D01*
X186557844Y-121422013D02*
X186520459Y-121422959D01*
X184394208Y-59386379D02*
X184426819Y-59434066D01*
X186376360Y-67243569D02*
X186458974Y-67307420D01*
X182065636Y-138479125D02*
X182062453Y-138505696D01*
X187127738Y-68342191D02*
X187152012Y-68443689D01*
X112255714Y-121229862D02*
X112228048Y-121197464D01*
X112568812Y-121445086D02*
X112529501Y-121428800D01*
X144230964Y-59079153D02*
X144263902Y-59056696D01*
X186290573Y-67184142D02*
X186376360Y-67243569D01*
X144112700Y-59185760D02*
X144140050Y-59156757D01*
X144263902Y-59056696D02*
X144298005Y-59036052D01*
X187200999Y-86079999D02*
X187210999Y-95109998D01*
X115338097Y-67343712D02*
X115361820Y-67309194D01*
X117307280Y-138720706D02*
X117265821Y-138682425D01*
X112175221Y-85330445D02*
X112220012Y-85236130D01*
X115473864Y-67184743D02*
X115505792Y-67157473D01*
X186685163Y-67523401D02*
X186752727Y-67602939D01*
X116953831Y-138093681D02*
X116945434Y-138037880D01*
X186874994Y-67772075D02*
X186929334Y-67861171D01*
X112220012Y-85236130D02*
X112269637Y-85144325D01*
X112056756Y-120812686D02*
X112051191Y-120770395D01*
X116939948Y-137981718D02*
X116937388Y-137925346D01*
X181886362Y-138827572D02*
X181844205Y-138860522D01*
X186816052Y-67685891D02*
X186874994Y-67772075D01*
X182070999Y-138400002D02*
X182067935Y-138425769D01*
X186201804Y-67129269D02*
X186290573Y-67184142D01*
X182026626Y-138634262D02*
X182015587Y-138658696D01*
X112269637Y-85144325D02*
X112323951Y-85055276D01*
X187261000Y-120690000D02*
X187254276Y-120760008D01*
X186321000Y-108929502D02*
X187260994Y-109639897D01*
X187260994Y-109639897D02*
X187261000Y-120690000D01*
X182015587Y-138658696D02*
X181989904Y-138705636D01*
X112491048Y-121410458D02*
X112453608Y-121390129D01*
X112691245Y-121481363D02*
X112649870Y-121471427D01*
X187192694Y-68753882D02*
X187195415Y-68858180D01*
X182044859Y-138584012D02*
X182026626Y-138634262D01*
X115967964Y-66980058D02*
X116009859Y-66978960D01*
X187184538Y-68649841D02*
X187192694Y-68753882D01*
X182057913Y-138532122D02*
X182044859Y-138584012D01*
X115722828Y-67032166D02*
X115762359Y-67018167D01*
X184195892Y-59177103D02*
X184239878Y-59214639D01*
X154821000Y-106430998D02*
X154821000Y-112749002D01*
X144199288Y-59103357D02*
X144230964Y-59079153D01*
X144298005Y-59036052D02*
X144333174Y-59017281D01*
X112997139Y-84412489D02*
X113089077Y-84362221D01*
X187080115Y-121165842D02*
X187028634Y-121219996D01*
X112074451Y-120895952D02*
X112064509Y-120854525D01*
X181700872Y-138931549D02*
X181649168Y-138945125D01*
X186811366Y-121363183D02*
X186741298Y-121389134D01*
X116965117Y-138148971D02*
X116953831Y-138093681D01*
X183896252Y-59005030D02*
X183949708Y-59026940D01*
X115213245Y-67696297D02*
X115218725Y-67654667D01*
X117265821Y-138682425D02*
X117226407Y-138642041D01*
X117189145Y-138599664D02*
X117154136Y-138555407D01*
X112046930Y-85726876D02*
X112071204Y-85625380D01*
X186520459Y-121422959D02*
X182110997Y-121421000D01*
X115539020Y-67131974D02*
X115573579Y-67108219D01*
X116945434Y-138037880D02*
X116939948Y-137981718D01*
X116979261Y-138203599D02*
X116965117Y-138148971D01*
X144040591Y-59281024D02*
X144062898Y-59247984D01*
X115443446Y-67213612D02*
X115473864Y-67184743D01*
X117038397Y-138362004D02*
X117015942Y-138310235D01*
X117154136Y-138555407D02*
X117121445Y-138509348D01*
X186668965Y-121407862D02*
X186632130Y-121414463D01*
X112860000Y-121501000D02*
X112775425Y-121494700D01*
X115802568Y-67006256D02*
X115843294Y-66996477D01*
X182067935Y-138425769D02*
X182065636Y-138479125D01*
X117395838Y-138790521D02*
X117350672Y-138756780D01*
X115926157Y-66983349D02*
X115967964Y-66980058D01*
X115573579Y-67108219D02*
X115609379Y-67086279D01*
X181775297Y-138901489D02*
X181726163Y-138922802D01*
X116996224Y-138257418D02*
X116979261Y-138203599D01*
X112155730Y-121092222D02*
X112135404Y-121054780D01*
X115609379Y-67086279D02*
X115646187Y-67066293D01*
X144062898Y-59247984D02*
X144086958Y-59216199D01*
X187146445Y-121075511D02*
X187103763Y-121136839D01*
X112609021Y-121459327D02*
X112568812Y-121445086D01*
X112086564Y-120936852D02*
X112074451Y-120895952D01*
X143999004Y-59349909D02*
X144040591Y-59281024D01*
X181649168Y-138945125D02*
X181596304Y-138953392D01*
X181821925Y-138875348D02*
X181775297Y-138901489D01*
X115278098Y-67454221D02*
X115296174Y-67416322D01*
X183615495Y-58939218D02*
X183672925Y-58946401D01*
X187098206Y-68242097D02*
X187127738Y-68342191D01*
X112453608Y-121390129D02*
X112417283Y-121367868D01*
X115884528Y-66988832D02*
X115926157Y-66983349D01*
X181844205Y-138860522D02*
X181821925Y-138875348D01*
X111999000Y-86140000D02*
X112014402Y-85933023D01*
X181542824Y-138956251D02*
X117649999Y-138920999D01*
X115236146Y-67572707D02*
X115248071Y-67532447D01*
X181959620Y-138749686D02*
X181924991Y-138790475D01*
X112446186Y-84886184D02*
X112513747Y-84806647D01*
X184456891Y-59483456D02*
X184484333Y-59534415D01*
X183841663Y-58985959D02*
X183896252Y-59005030D01*
X115226369Y-67613434D02*
X115236146Y-67572707D01*
X112014402Y-85933023D02*
X112027973Y-85829551D01*
X117008995Y-121501000D02*
X112860000Y-121501000D01*
X183729791Y-58956593D02*
X183786090Y-58969788D01*
X112135404Y-121054780D02*
X112117087Y-121016373D01*
X116941064Y-137812613D02*
X117008995Y-121501000D01*
X186632130Y-121414463D02*
X186557844Y-121422013D01*
X112051191Y-120770395D02*
X112047852Y-120727922D01*
X187182680Y-121010224D02*
X187146445Y-121075511D01*
X115316185Y-67379469D02*
X115338097Y-67343712D01*
X112064509Y-120854525D02*
X112056756Y-120812686D01*
X112660878Y-84658636D02*
X112739970Y-84590634D01*
X112100784Y-120977012D02*
X112086564Y-120936852D01*
X187152012Y-68443689D02*
X187170968Y-68546367D01*
X117121445Y-138509348D02*
X117091220Y-138461695D01*
X184052869Y-59079124D02*
X184102236Y-59109235D01*
X117491253Y-138850824D02*
X117442739Y-138821900D01*
X187170968Y-68546367D02*
X187184538Y-68649841D01*
X112417283Y-121367868D02*
X112382130Y-121343706D01*
X115387380Y-67275882D02*
X115414581Y-67244033D01*
X112047852Y-120727922D02*
X112046740Y-120685359D01*
X112117087Y-121016373D02*
X112100784Y-120977012D01*
X115684037Y-67048236D02*
X115722828Y-67032166D01*
X184102236Y-59109235D02*
X184149984Y-59141944D01*
X184239878Y-59214639D02*
X184281778Y-59254413D01*
X112959000Y-95790504D02*
X111999004Y-95080093D01*
X144168967Y-59129237D02*
X144199288Y-59103357D01*
X181596304Y-138953392D02*
X181542824Y-138956251D01*
X117015942Y-138310235D02*
X116996224Y-138257418D01*
X112202146Y-121163704D02*
X112178016Y-121128593D01*
X186741298Y-121389134D02*
X186668965Y-121407862D01*
X144521315Y-58953241D02*
X144560661Y-58946656D01*
X175469000Y-106391001D02*
X154821000Y-106430998D01*
X117350672Y-138756780D02*
X117307280Y-138720706D01*
X187023702Y-68047203D02*
X187063496Y-68143678D01*
X184149984Y-59141944D02*
X184195892Y-59177103D01*
X184510999Y-67079000D02*
X186110100Y-67079005D01*
X144008998Y-66978999D02*
X143999004Y-59349909D01*
X186978932Y-67952933D02*
X187023702Y-68047203D01*
X144482410Y-58961939D02*
X144521315Y-58953241D01*
X183786090Y-58969788D02*
X183841663Y-58985959D01*
X154821000Y-112749002D02*
X175469000Y-112798997D01*
X116009859Y-66978960D02*
X144008998Y-66978999D01*
X112323951Y-85055276D02*
X112382863Y-84969136D01*
X117541158Y-138877162D02*
X117491253Y-138850824D01*
X113089077Y-84362221D02*
X113820007Y-84359000D01*
X115262052Y-67492966D02*
X115278098Y-67454221D01*
X112348332Y-121317768D02*
X112315978Y-121290131D01*
X186538105Y-67375459D02*
X186613582Y-67447531D01*
X111999004Y-95080093D02*
X111999000Y-86140000D01*
X112135429Y-85426919D02*
X112175221Y-85330445D01*
X113820007Y-84359000D02*
X115209000Y-84368992D01*
X186613582Y-67447531D02*
X186685163Y-67523401D01*
X117063513Y-138412537D02*
X117038397Y-138362004D01*
X115505792Y-67157473D02*
X115539020Y-67131974D01*
X112285038Y-121260768D02*
X112255714Y-121229862D01*
X115414581Y-67244033D02*
X115443446Y-67213612D01*
X181924991Y-138790475D02*
X181886362Y-138827572D01*
X186752727Y-67602939D02*
X186816052Y-67685891D01*
X112513747Y-84806647D02*
X112585400Y-84730703D01*
X144086958Y-59216199D02*
X144112700Y-59185760D01*
X187234515Y-120870269D02*
X187212146Y-120941561D01*
X186321000Y-95820481D02*
X186321000Y-108929502D01*
X115646187Y-67066293D02*
X115684037Y-67048236D01*
X186929334Y-67861171D02*
X186978932Y-67952933D01*
X186458974Y-67307420D02*
X186538105Y-67375459D01*
X112739970Y-84590634D02*
X112822541Y-84526816D01*
X112027973Y-85829551D02*
X112046930Y-85726876D01*
X112959000Y-108979520D02*
X112959000Y-95790504D01*
X112046740Y-120685359D02*
X112049004Y-109709900D01*
X115209956Y-67738107D02*
X115213245Y-67696297D01*
X112100721Y-85525337D02*
X112135429Y-85426919D01*
X112775425Y-121494700D02*
X112733186Y-121489138D01*
X112908370Y-84467360D02*
X112997139Y-84412489D01*
X182110997Y-121421000D02*
X182070999Y-138400002D01*
X117649999Y-138920999D02*
X117592317Y-138900851D01*
X112228048Y-121197464D02*
X112202146Y-121163704D01*
X181989904Y-138705636D02*
X181959620Y-138749686D01*
X117091220Y-138461695D02*
X117063513Y-138412537D01*
X112649870Y-121471427D02*
X112609021Y-121459327D01*
X183557818Y-58935087D02*
X183615495Y-58939218D01*
X112585400Y-84730703D02*
X112660878Y-84658636D01*
X187212146Y-120941561D02*
X187182680Y-121010224D01*
X184484333Y-59534415D02*
X184509093Y-59587084D01*
X112178016Y-121128593D02*
X112155730Y-121092222D01*
X115296174Y-67416322D02*
X115316185Y-67379469D01*
X187103763Y-121136839D02*
X187080115Y-121165842D01*
X181726163Y-138922802D02*
X181700872Y-138931549D01*
X115218725Y-67654667D02*
X115226369Y-67613434D01*
X112822541Y-84526816D02*
X112908370Y-84467360D01*
X115209000Y-84368992D02*
X115209956Y-67738107D01*
X112049004Y-109709900D02*
X112959000Y-108979520D01*
X187210999Y-95109998D02*
X186321000Y-95820481D01*
X112315978Y-121290131D02*
X112285038Y-121260768D01*
X184359089Y-59340440D02*
X184394208Y-59386379D01*
X112529501Y-121428800D02*
X112491048Y-121410458D01*
X117226407Y-138642041D02*
X117189145Y-138599664D01*
X112382863Y-84969136D02*
X112446186Y-84886184D01*
X183672925Y-58946401D02*
X183729791Y-58956593D01*
X182062453Y-138505696D02*
X182057913Y-138532122D01*
X112382130Y-121343706D02*
X112348332Y-121317768D01*
X112071204Y-85625380D02*
X112100721Y-85525337D01*
X184426819Y-59434066D02*
X184456891Y-59483456D01*
X186110100Y-67079005D02*
X186201804Y-67129269D01*
X184509093Y-59587084D02*
X184510999Y-67079000D01*
M02*
