%TF.GenerationSoftware,KiCad,Pcbnew,(6.0.2)*%
%TF.CreationDate,2022-05-28T15:24:10-04:00*%
%TF.ProjectId,bottom,626f7474-6f6d-42e6-9b69-6361645f7063,3.4*%
%TF.SameCoordinates,Original*%
%TF.FileFunction,Paste,Top*%
%TF.FilePolarity,Positive*%
%FSLAX46Y46*%
G04 Gerber Fmt 4.6, Leading zero omitted, Abs format (unit mm)*
G04 Created by KiCad (PCBNEW (6.0.2)) date 2022-05-28 15:24:10*
%MOMM*%
%LPD*%
G01*
G04 APERTURE LIST*
G04 Aperture macros list*
%AMRoundRect*
0 Rectangle with rounded corners*
0 $1 Rounding radius*
0 $2 $3 $4 $5 $6 $7 $8 $9 X,Y pos of 4 corners*
0 Add a 4 corners polygon primitive as box body*
4,1,4,$2,$3,$4,$5,$6,$7,$8,$9,$2,$3,0*
0 Add four circle primitives for the rounded corners*
1,1,$1+$1,$2,$3*
1,1,$1+$1,$4,$5*
1,1,$1+$1,$6,$7*
1,1,$1+$1,$8,$9*
0 Add four rect primitives between the rounded corners*
20,1,$1+$1,$2,$3,$4,$5,0*
20,1,$1+$1,$4,$5,$6,$7,0*
20,1,$1+$1,$6,$7,$8,$9,0*
20,1,$1+$1,$8,$9,$2,$3,0*%
G04 Aperture macros list end*
%ADD10RoundRect,0.250000X-0.450000X0.350000X-0.450000X-0.350000X0.450000X-0.350000X0.450000X0.350000X0*%
%ADD11RoundRect,0.250000X0.450000X-0.350000X0.450000X0.350000X-0.450000X0.350000X-0.450000X-0.350000X0*%
%ADD12RoundRect,0.250000X0.475000X-0.337500X0.475000X0.337500X-0.475000X0.337500X-0.475000X-0.337500X0*%
%ADD13R,1.500000X0.900000*%
%ADD14R,0.700000X0.700000*%
%ADD15RoundRect,0.250000X-0.337500X-0.475000X0.337500X-0.475000X0.337500X0.475000X-0.337500X0.475000X0*%
%ADD16R,0.600000X1.050000*%
%ADD17R,1.500000X2.000000*%
%ADD18R,3.800000X2.000000*%
%ADD19RoundRect,0.250000X-0.450000X0.325000X-0.450000X-0.325000X0.450000X-0.325000X0.450000X0.325000X0*%
%ADD20R,0.762000X1.524000*%
%ADD21RoundRect,0.250000X-0.350000X-0.450000X0.350000X-0.450000X0.350000X0.450000X-0.350000X0.450000X0*%
G04 APERTURE END LIST*
D10*
%TO.C,R10*%
X185909860Y-83680000D03*
X185909860Y-85680000D03*
%TD*%
%TO.C,R3*%
X175109860Y-83980000D03*
X175109860Y-85980000D03*
%TD*%
D11*
%TO.C,R12*%
X170009860Y-131880000D03*
X170009860Y-129880000D03*
%TD*%
D10*
%TO.C,R8*%
X161909860Y-85680000D03*
X161909860Y-87680000D03*
%TD*%
D12*
%TO.C,C2*%
X159709860Y-87717500D03*
X159709860Y-85642500D03*
%TD*%
D13*
%TO.C,U5*%
X167309860Y-134180000D03*
X167309860Y-132680000D03*
X167309860Y-131180000D03*
X167309860Y-129680000D03*
X167309860Y-128180000D03*
X167309860Y-126680000D03*
X167309860Y-125180000D03*
X167309860Y-123680000D03*
X167309860Y-122180000D03*
X149809860Y-122180000D03*
X149809860Y-123680000D03*
X149809860Y-125180000D03*
X149809860Y-126680000D03*
X149809860Y-128180000D03*
X149809860Y-129680000D03*
X149809860Y-131180000D03*
X149809860Y-132680000D03*
X149809860Y-134180000D03*
D14*
X157649860Y-129080000D03*
X157649860Y-126880000D03*
X158699860Y-126880000D03*
X157649860Y-127980000D03*
X158699860Y-129080000D03*
X156499860Y-129080000D03*
X156499860Y-127980000D03*
X158699860Y-127980000D03*
X156499860Y-126880000D03*
%TD*%
D15*
%TO.C,C8*%
X167372360Y-118680000D03*
X169447360Y-118680000D03*
%TD*%
D12*
%TO.C,C1*%
X170802400Y-88080000D03*
X170802400Y-86005000D03*
%TD*%
D16*
%TO.C,U2*%
X172752400Y-90480000D03*
X173702400Y-90480000D03*
X174652400Y-90480000D03*
X174652400Y-87780000D03*
X172752400Y-87780000D03*
%TD*%
D17*
%TO.C,U4*%
X169009860Y-114980000D03*
X171309860Y-114980000D03*
X173609860Y-114980000D03*
D18*
X171309860Y-108680000D03*
%TD*%
D12*
%TO.C,C4*%
X176209860Y-115117500D03*
X176209860Y-113042500D03*
%TD*%
D15*
%TO.C,C7*%
X171309860Y-120780000D03*
X173384860Y-120780000D03*
%TD*%
D19*
%TO.C,D2*%
X183509860Y-83730000D03*
X183509860Y-85780000D03*
%TD*%
D20*
%TO.C,S1*%
X161309860Y-115280000D03*
X161309860Y-109692000D03*
X165119860Y-115280000D03*
X165119860Y-109692000D03*
%TD*%
D10*
%TO.C,R2*%
X172709860Y-83880000D03*
X172709860Y-85880000D03*
%TD*%
D15*
%TO.C,C5*%
X171272360Y-118680000D03*
X173347360Y-118680000D03*
%TD*%
%TO.C,C6*%
X171309860Y-123080000D03*
X173384860Y-123080000D03*
%TD*%
D10*
%TO.C,R7*%
X144209860Y-86680000D03*
X144209860Y-88680000D03*
%TD*%
D21*
%TO.C,R14*%
X169309860Y-125180000D03*
X171309860Y-125180000D03*
%TD*%
M02*
