M48
; DRILL file {KiCad (6.0.2)} date Sat May 28 15:24:12 2022
; FORMAT={-:-/ absolute / metric / decimal}
; #@! TF.CreationDate,2022-05-28T15:24:12-04:00
; #@! TF.GenerationSoftware,Kicad,Pcbnew,(6.0.2)
; #@! TF.FileFunction,Plated,1,2,PTH
FMAT,2
METRIC
; #@! TA.AperFunction,Plated,PTH,ViaDrill
T1C0.400
; #@! TA.AperFunction,Plated,PTH,ComponentDrill
T2C0.800
; #@! TA.AperFunction,Plated,PTH,ComponentDrill
T3C0.900
; #@! TA.AperFunction,Plated,PTH,ComponentDrill
T4C0.920
; #@! TA.AperFunction,Plated,PTH,ComponentDrill
T5C1.000
; #@! TA.AperFunction,Plated,PTH,ComponentDrill
T6C1.020
; #@! TA.AperFunction,Plated,PTH,ComponentDrill
T7C1.100
; #@! TA.AperFunction,Plated,PTH,ComponentDrill
T8C1.397
; #@! TA.AperFunction,Plated,PTH,ComponentDrill
T9C2.300
; #@! TA.AperFunction,Plated,PTH,ComponentDrill
T10C2.700
%
G90
G05
T1
X160.702Y-124.48
X160.702Y-125.48
X160.702Y-126.48
X160.702Y-127.48
X160.702Y-128.48
X160.702Y-129.48
X160.702Y-130.48
X160.702Y-131.48
X160.702Y-132.48
X160.702Y-133.48
X160.71Y-90.98
X161.31Y-92.98
X161.702Y-124.48
X161.702Y-125.48
X161.702Y-126.48
X161.702Y-127.48
X161.702Y-128.48
X161.702Y-129.48
X161.702Y-130.48
X161.702Y-131.48
X161.702Y-132.48
X161.702Y-133.48
X162.602Y-111.13
X162.652Y-112.13
X162.702Y-124.48
X162.702Y-125.48
X162.702Y-126.48
X162.702Y-127.48
X162.702Y-128.48
X162.702Y-129.48
X162.702Y-130.48
X162.702Y-131.48
X162.702Y-132.48
X162.702Y-133.48
X163.702Y-111.08
X163.702Y-124.48
X163.702Y-125.48
X163.702Y-126.48
X163.702Y-127.48
X163.702Y-128.48
X163.702Y-129.48
X163.702Y-130.48
X163.702Y-131.48
X163.702Y-132.48
X163.702Y-133.48
X163.752Y-112.08
X164.702Y-124.48
X164.702Y-125.48
X164.702Y-126.48
X164.702Y-127.48
X164.702Y-128.48
X164.702Y-129.48
X164.702Y-130.48
X164.702Y-131.48
X164.702Y-132.48
X164.702Y-133.48
X169.352Y-127.43
X171.602Y-130.88
X172.052Y-91.88
X175.352Y-124.03
X175.402Y-118.73
X175.402Y-121.48
X183.36Y-88.73
T2
X149.666Y-86.791
X149.666Y-89.331
X149.666Y-91.871
X149.842Y-82.68
X157.286Y-86.791
X157.286Y-89.331
X157.286Y-91.871
X157.462Y-82.68
T4
X120.42Y-78.21
X120.42Y-80.71
X120.42Y-82.71
X120.42Y-85.21
T5
X115.202Y-92.28
X115.202Y-94.82
X115.202Y-97.36
X115.202Y-99.9
X115.202Y-102.44
X115.202Y-104.98
X115.202Y-107.52
X115.202Y-110.06
X115.202Y-112.6
X115.202Y-115.14
X115.202Y-117.68
X115.202Y-120.22
X115.202Y-122.76
X115.202Y-125.3
X124.37Y-77.78
X124.37Y-80.32
X124.37Y-82.86
X124.37Y-85.4
X124.37Y-87.94
X124.37Y-90.48
X124.37Y-93.02
X124.37Y-95.56
X124.37Y-98.1
X124.37Y-100.64
X124.37Y-103.18
X124.37Y-105.72
X124.37Y-108.26
X124.37Y-110.8
X124.37Y-113.34
X124.37Y-115.88
X124.37Y-118.42
X124.37Y-120.96
X124.37Y-123.5
X124.37Y-126.04
X124.37Y-128.58
X124.37Y-131.12
X124.37Y-133.66
X127.421Y-84.079
X127.421Y-86.619
X127.421Y-89.159
X127.421Y-91.699
X137.07Y-77.78
X139.61Y-75.24
X139.61Y-77.78
X139.61Y-80.32
X139.61Y-82.86
X139.61Y-85.4
X139.61Y-87.94
X139.61Y-90.48
X139.61Y-93.02
X139.61Y-95.56
X139.61Y-98.1
X139.61Y-100.64
X139.61Y-103.18
X139.61Y-105.72
X139.61Y-108.26
X139.61Y-110.8
X139.61Y-113.34
X139.61Y-115.88
X139.61Y-118.42
X139.61Y-120.96
X139.61Y-123.5
X139.61Y-126.04
X139.61Y-128.58
X139.61Y-131.12
X139.61Y-133.66
X184.402Y-92.28
X184.402Y-94.82
X184.402Y-97.36
X184.402Y-99.9
X184.402Y-102.44
X184.402Y-104.98
X184.402Y-107.52
X184.402Y-110.06
X184.402Y-112.6
X184.402Y-115.14
X184.402Y-117.68
X184.402Y-120.22
X184.402Y-122.76
X184.402Y-125.3
T6
X147.11Y-126.64
X147.11Y-129.18
X147.11Y-131.72
X147.11Y-134.26
X149.97Y-119.68
X152.51Y-119.68
X155.05Y-119.68
X157.59Y-119.68
T7
X124.37Y-75.24
X127.421Y-81.539
T8
X145.512Y-77.077
X148.014Y-79.579
X153.01Y-77.08
X158.006Y-79.579
X160.508Y-77.077
X167.912Y-76.977
X170.414Y-79.479
X175.41Y-76.98
X180.406Y-79.479
X182.908Y-76.977
T9
X117.71Y-75.14
X117.71Y-88.28
T10
X120.078Y-97.92
X120.078Y-132.92
X160.078Y-97.92
T3
G00X172.679Y-134.38
M15
G01X173.479Y-134.38
M16
G05
G00X177.847Y-129.88
M15
G01X178.647Y-129.88
M16
G05
G00X179.752Y-134.38
M15
G01X180.552Y-134.38
M16
G05
T0
M30
