%TF.GenerationSoftware,KiCad,Pcbnew,(6.0.2)*%
%TF.CreationDate,2022-05-28T15:24:10-04:00*%
%TF.ProjectId,bottom,626f7474-6f6d-42e6-9b69-6361645f7063,3.4*%
%TF.SameCoordinates,Original*%
%TF.FileFunction,Soldermask,Bot*%
%TF.FilePolarity,Negative*%
%FSLAX46Y46*%
G04 Gerber Fmt 4.6, Leading zero omitted, Abs format (unit mm)*
G04 Created by KiCad (PCBNEW (6.0.2)) date 2022-05-28 15:24:10*
%MOMM*%
%LPD*%
G01*
G04 APERTURE LIST*
%ADD10C,4.500000*%
%ADD11C,2.020000*%
%ADD12R,1.700000X1.700000*%
%ADD13O,1.700000X1.700000*%
%ADD14R,1.600000X1.600000*%
%ADD15O,1.600000X1.600000*%
%ADD16C,1.700000*%
%ADD17R,1.428000X1.428000*%
%ADD18C,1.428000*%
%ADD19C,3.316000*%
%ADD20C,2.499360*%
%ADD21C,1.200000*%
%ADD22R,3.500000X1.500000*%
%ADD23R,2.200000X1.600000*%
G04 APERTURE END LIST*
D10*
%TO.C,H2*%
X120078000Y-132920000D03*
%TD*%
%TO.C,H3*%
X120078000Y-97920000D03*
%TD*%
D11*
%TO.C,J96*%
X147109860Y-134260000D03*
X147109860Y-131720000D03*
X147109860Y-129180000D03*
X147109860Y-126640000D03*
%TD*%
D12*
%TO.C,J31*%
X184402400Y-92280000D03*
D13*
X184402400Y-94820000D03*
X184402400Y-97360000D03*
X184402400Y-99900000D03*
X184402400Y-102440000D03*
X184402400Y-104980000D03*
X184402400Y-107520000D03*
X184402400Y-110060000D03*
X184402400Y-112600000D03*
X184402400Y-115140000D03*
X184402400Y-117680000D03*
X184402400Y-120220000D03*
X184402400Y-122760000D03*
X184402400Y-125300000D03*
%TD*%
D11*
%TO.C,J99*%
X157589860Y-119680000D03*
X155049860Y-119680000D03*
X152509860Y-119680000D03*
X149969860Y-119680000D03*
%TD*%
D14*
%TO.C,U3*%
X149665880Y-86791200D03*
D15*
X149665880Y-89331200D03*
X149665880Y-91871200D03*
X157285880Y-91871200D03*
X157285880Y-89331200D03*
X157285880Y-86791200D03*
%TD*%
D14*
%TO.C,U1*%
X124369860Y-75240000D03*
D16*
X124369860Y-77780000D03*
X124369860Y-80320000D03*
X124369860Y-82860000D03*
X124369860Y-85400000D03*
X124369860Y-87940000D03*
X124369860Y-90480000D03*
X124369860Y-93020000D03*
X124369860Y-95560000D03*
X124369860Y-98100000D03*
X124369860Y-100640000D03*
X124369860Y-103180000D03*
X124369860Y-105720000D03*
X124369860Y-108260000D03*
X124369860Y-110800000D03*
X124369860Y-113340000D03*
X124369860Y-115880000D03*
X124369860Y-118420000D03*
X124369860Y-120960000D03*
X124369860Y-123500000D03*
X124369860Y-126040000D03*
X124369860Y-128580000D03*
X124369860Y-131120000D03*
X124369860Y-133660000D03*
X139609860Y-133660000D03*
X139609860Y-131120000D03*
X139609860Y-128580000D03*
X139609860Y-126040000D03*
X139609860Y-123500000D03*
X139609860Y-120960000D03*
X139609860Y-118420000D03*
X139609860Y-115880000D03*
X139609860Y-113340000D03*
X139609860Y-110800000D03*
X139609860Y-108260000D03*
X139609860Y-105720000D03*
X139609860Y-103180000D03*
X139609860Y-100640000D03*
X139609860Y-98100000D03*
X139609860Y-95560000D03*
X139609860Y-93020000D03*
X139609860Y-90480000D03*
X139609860Y-87940000D03*
X139609860Y-85400000D03*
X139609860Y-82860000D03*
X139609860Y-80320000D03*
X139609860Y-77780000D03*
X139609860Y-75240000D03*
X137069860Y-77780000D03*
D14*
X127420660Y-81539200D03*
D16*
X127420660Y-84079200D03*
X127420660Y-86619200D03*
X127420660Y-89159200D03*
X127420660Y-91699200D03*
%TD*%
D12*
%TO.C,J32*%
X115202400Y-92280000D03*
D13*
X115202400Y-94820000D03*
X115202400Y-97360000D03*
X115202400Y-99900000D03*
X115202400Y-102440000D03*
X115202400Y-104980000D03*
X115202400Y-107520000D03*
X115202400Y-110060000D03*
X115202400Y-112600000D03*
X115202400Y-115140000D03*
X115202400Y-117680000D03*
X115202400Y-120220000D03*
X115202400Y-122760000D03*
X115202400Y-125300000D03*
%TD*%
D17*
%TO.C,J70*%
X120419860Y-78210000D03*
D18*
X120419860Y-80710000D03*
X120419860Y-82710000D03*
X120419860Y-85210000D03*
D19*
X117709860Y-75140000D03*
X117709860Y-88280000D03*
%TD*%
D14*
%TO.C,D1*%
X149842400Y-82680000D03*
D15*
X157462400Y-82680000D03*
%TD*%
D20*
%TO.C,J40*%
X145511780Y-77077200D03*
X153009860Y-77079740D03*
X160507940Y-77077200D03*
X148013680Y-79579100D03*
X158006040Y-79579100D03*
%TD*%
D10*
%TO.C,H1*%
X160078000Y-97920000D03*
%TD*%
D20*
%TO.C,J90*%
X167911780Y-76977200D03*
X175409860Y-76979740D03*
X182907940Y-76977200D03*
X170413680Y-79479100D03*
X180406040Y-79479100D03*
%TD*%
D21*
%TO.C,J82*%
X153152400Y-65920000D03*
X153152400Y-71920000D03*
D22*
X156902400Y-66120000D03*
X156902400Y-73120000D03*
X149402400Y-67920000D03*
%TD*%
D21*
%TO.C,J81*%
X175852400Y-65920000D03*
X175852400Y-71920000D03*
D22*
X179602400Y-66120000D03*
X179602400Y-73120000D03*
X172102400Y-67920000D03*
%TD*%
D21*
%TO.C,J0*%
X174279400Y-132130000D03*
X180279400Y-132130000D03*
D23*
X180152400Y-134380000D03*
X173079400Y-134380000D03*
X178247400Y-129880000D03*
%TD*%
M02*
