M48
; DRILL file {KiCad (6.0.2)} date Thu Feb  9 01:22:47 2023
; FORMAT={-:-/ absolute / metric / decimal}
; #@! TF.CreationDate,2023-02-09T01:22:47-05:00
; #@! TF.GenerationSoftware,Kicad,Pcbnew,(6.0.2)
; #@! TF.FileFunction,Plated,1,4,PTH
FMAT,2
METRIC
; #@! TA.AperFunction,Plated,PTH,ViaDrill
T1C0.300
; #@! TA.AperFunction,Plated,PTH,ViaDrill
T2C0.400
; #@! TA.AperFunction,Plated,PTH,ComponentDrill
T3C0.900
; #@! TA.AperFunction,Plated,PTH,ComponentDrill
T4C0.920
; #@! TA.AperFunction,Plated,PTH,ComponentDrill
T5C1.000
; #@! TA.AperFunction,Plated,PTH,ComponentDrill
T6C1.020
; #@! TA.AperFunction,Plated,PTH,ComponentDrill
T7C1.100
; #@! TA.AperFunction,Plated,PTH,ComponentDrill
T8C1.397
; #@! TA.AperFunction,Plated,PTH,ComponentDrill
T9C2.300
%
G90
G05
T1
X142.825Y-122.943
X153.745Y-125.833
X154.605Y-126.443
X156.905Y-127.923
X157.035Y-129.324
X157.683Y-128.704
T2
X118.389Y-129.692
X118.415Y-127.609
X118.595Y-135.013
X118.625Y-137.743
X119.015Y-133.703
X119.055Y-131.383
X120.025Y-126.353
X121.825Y-126.228
X121.965Y-133.783
X122.0Y-131.353
X123.55Y-135.078
X123.605Y-136.983
X124.405Y-130.183
X125.365Y-135.103
X125.525Y-136.957
X125.835Y-131.353
X126.185Y-133.873
X126.721Y-109.728
X127.545Y-124.703
X127.955Y-133.893
X127.965Y-122.903
X128.425Y-128.303
X129.725Y-136.978
X129.743Y-135.268
X130.81Y-129.228
X130.912Y-130.777
X130.935Y-126.873
X130.975Y-122.978
X130.988Y-124.778
X132.08Y-136.931
X132.156Y-135.229
X132.275Y-90.101
X132.975Y-112.403
X132.975Y-118.853
X133.115Y-122.993
X133.145Y-125.043
X133.335Y-126.973
X133.426Y-129.228
X133.833Y-130.777
X134.061Y-90.703
X134.569Y-136.88
X134.671Y-135.179
X135.687Y-129.21
X136.327Y-75.635
X136.425Y-104.853
X137.115Y-123.003
X137.135Y-136.83
X137.165Y-124.973
X137.185Y-130.777
X137.225Y-90.303
X137.617Y-80.67
X137.93Y-126.997
X138.247Y-85.705
X138.405Y-135.204
X139.649Y-136.817
X139.825Y-133.553
X140.716Y-135.153
X141.645Y-127.433
X142.088Y-136.804
X142.443Y-133.902
X143.275Y-125.793
X143.408Y-131.064
X143.688Y-135.382
X144.715Y-124.383
X145.133Y-134.21
X145.665Y-122.433
X145.95Y-133.128
X145.975Y-106.503
X146.05Y-91.059
X146.177Y-128.346
X146.875Y-133.803
X147.479Y-135.162
X148.095Y-122.413
X148.175Y-108.553
X148.175Y-134.003
X148.717Y-136.423
X149.075Y-134.703
X149.555Y-129.692
X149.936Y-135.331
X150.645Y-122.393
X151.445Y-129.723
X152.324Y-136.131
X152.984Y-133.553
X153.797Y-97.815
X154.015Y-122.203
X155.016Y-81.127
X155.375Y-83.003
X155.965Y-133.383
X156.229Y-131.8
X156.947Y-136.576
X157.048Y-134.976
X157.185Y-131.193
X157.556Y-133.375
X159.233Y-136.525
X159.309Y-134.976
X159.385Y-133.375
X160.35Y-126.441
X160.655Y-129.794
X160.815Y-128.233
X161.722Y-133.426
X161.722Y-136.525
X161.747Y-134.976
X161.95Y-92.786
X161.95Y-93.786
X161.95Y-94.786
X162.839Y-131.8
X162.95Y-92.786
X162.95Y-93.786
X162.95Y-94.786
X163.932Y-133.375
X163.95Y-92.786
X163.95Y-93.786
X163.95Y-94.786
X164.008Y-134.976
X164.008Y-136.55
X164.77Y-131.801
X164.95Y-92.786
X164.95Y-93.786
X164.95Y-94.786
X165.786Y-134.975
X165.95Y-92.786
X165.95Y-93.786
X165.95Y-94.786
X165.964Y-133.375
X166.268Y-131.775
X166.776Y-136.525
X167.281Y-94.66
X167.281Y-95.66
X167.281Y-96.66
X167.281Y-97.66
X167.281Y-98.66
X167.281Y-99.66
X167.281Y-100.66
X167.309Y-123.049
X167.742Y-130.403
X168.281Y-94.66
X168.281Y-95.66
X168.281Y-96.66
X168.281Y-97.66
X168.281Y-98.66
X168.281Y-99.66
X168.281Y-100.66
X168.675Y-81.653
X168.986Y-136.525
X169.062Y-134.493
X169.266Y-129.184
X169.281Y-94.66
X169.281Y-95.66
X169.281Y-96.66
X169.281Y-97.66
X169.281Y-98.66
X169.281Y-99.66
X169.281Y-100.66
X170.218Y-116.078
X170.281Y-94.66
X170.281Y-95.66
X170.281Y-96.66
X170.281Y-97.66
X170.281Y-98.66
X170.281Y-99.66
X170.281Y-100.66
X170.332Y-128.041
X170.608Y-132.791
X170.79Y-134.366
X171.196Y-136.449
X171.281Y-94.66
X171.281Y-95.66
X171.281Y-96.66
X171.281Y-97.66
X171.281Y-98.66
X171.281Y-99.66
X171.281Y-100.66
X171.577Y-129.184
X171.602Y-127.635
X172.491Y-131.572
X173.126Y-133.096
X174.092Y-131.597
X175.108Y-127.635
X175.158Y-130.302
X175.26Y-136.068
X176.149Y-129.184
X176.251Y-134.391
X177.013Y-127.635
X177.013Y-136.474
X177.14Y-130.327
X178.486Y-133.934
X178.638Y-131.648
X179.381Y-100.597
X180.275Y-87.403
X180.619Y-131.648
X180.975Y-134.213
X185.953Y-81.356
T4
X120.42Y-72.21
X120.42Y-74.71
X120.42Y-76.71
X120.42Y-79.21
T5
X115.202Y-86.28
X115.202Y-88.82
X115.202Y-91.36
X115.202Y-93.9
X115.202Y-96.44
X115.202Y-98.98
X115.202Y-101.52
X115.202Y-104.06
X115.202Y-106.6
X115.202Y-109.14
X115.202Y-111.68
X115.202Y-114.22
X115.202Y-116.76
X115.202Y-119.3
X124.37Y-71.78
X124.37Y-74.32
X124.37Y-76.86
X124.37Y-79.4
X124.37Y-81.94
X124.37Y-84.48
X124.37Y-87.02
X124.37Y-89.56
X124.37Y-92.1
X124.37Y-94.64
X124.37Y-97.18
X124.37Y-99.72
X124.37Y-102.26
X124.37Y-104.8
X124.37Y-107.34
X124.37Y-109.88
X124.37Y-112.42
X124.37Y-114.96
X124.37Y-117.5
X124.37Y-120.04
X124.37Y-122.58
X124.37Y-125.12
X124.37Y-127.66
X127.421Y-78.079
X127.421Y-80.619
X127.421Y-83.159
X127.421Y-85.699
X137.07Y-71.78
X139.61Y-69.24
X139.61Y-71.78
X139.61Y-74.32
X139.61Y-76.86
X139.61Y-79.4
X139.61Y-81.94
X139.61Y-84.48
X139.61Y-87.02
X139.61Y-89.56
X139.61Y-92.1
X139.61Y-94.64
X139.61Y-97.18
X139.61Y-99.72
X139.61Y-102.26
X139.61Y-104.8
X139.61Y-107.34
X139.61Y-109.88
X139.61Y-112.42
X139.61Y-114.96
X139.61Y-117.5
X139.61Y-120.04
X139.61Y-122.58
X139.61Y-125.12
X139.61Y-127.66
X184.402Y-86.28
X184.402Y-88.82
X184.402Y-91.36
X184.402Y-93.9
X184.402Y-96.44
X184.402Y-98.98
X184.402Y-101.52
X184.402Y-104.06
X184.402Y-106.6
X184.402Y-109.14
X184.402Y-111.68
X184.402Y-114.22
X184.402Y-116.76
X184.402Y-119.3
T6
X160.205Y-88.903
X162.745Y-88.903
X165.285Y-88.903
X167.825Y-88.903
T7
X124.37Y-69.24
X127.421Y-75.539
T8
X145.512Y-71.077
X148.014Y-73.579
X153.01Y-71.08
X158.006Y-73.579
X160.508Y-71.077
X167.912Y-70.977
X170.414Y-73.479
X175.41Y-70.98
X180.406Y-73.479
X182.908Y-70.977
T9
X117.71Y-69.14
X117.71Y-82.28
T3
G00X172.562Y-126.111
M15
G01X173.362Y-126.111
M16
G05
G00X177.73Y-121.611
M15
G01X178.53Y-121.611
M16
G05
G00X179.635Y-126.111
M15
G01X180.435Y-126.111
M16
G05
T0
M30
