%TF.GenerationSoftware,KiCad,Pcbnew,(6.0.2)*%
%TF.CreationDate,2022-03-04T10:51:53-05:00*%
%TF.ProjectId,bottom,626f7474-6f6d-42e6-9b69-6361645f7063,rev?*%
%TF.SameCoordinates,Original*%
%TF.FileFunction,Soldermask,Bot*%
%TF.FilePolarity,Negative*%
%FSLAX46Y46*%
G04 Gerber Fmt 4.6, Leading zero omitted, Abs format (unit mm)*
G04 Created by KiCad (PCBNEW (6.0.2)) date 2022-03-04 10:51:53*
%MOMM*%
%LPD*%
G01*
G04 APERTURE LIST*
%ADD10R,1.600000X1.600000*%
%ADD11O,1.600000X1.600000*%
%ADD12C,1.700000*%
%ADD13C,4.500000*%
%ADD14R,1.700000X1.700000*%
%ADD15O,1.700000X1.700000*%
%ADD16C,2.020000*%
%ADD17C,2.499360*%
%ADD18R,1.428000X1.428000*%
%ADD19C,1.428000*%
%ADD20C,3.316000*%
%ADD21C,1.200000*%
%ADD22R,2.200000X1.600000*%
%ADD23R,3.500000X1.500000*%
G04 APERTURE END LIST*
D10*
%TO.C,U2*%
X178309860Y-87280000D03*
D11*
X175769860Y-87280000D03*
X173229860Y-87280000D03*
X170689860Y-87280000D03*
X168149860Y-87280000D03*
X165609860Y-87280000D03*
X163069860Y-87280000D03*
X163069860Y-94900000D03*
X165609860Y-94900000D03*
X168149860Y-94900000D03*
X170689860Y-94900000D03*
X173229860Y-94900000D03*
X175769860Y-94900000D03*
X178309860Y-94900000D03*
%TD*%
D10*
%TO.C,U3*%
X147665880Y-85791200D03*
D11*
X147665880Y-88331200D03*
X147665880Y-90871200D03*
X155285880Y-90871200D03*
X155285880Y-88331200D03*
X155285880Y-85791200D03*
%TD*%
D10*
%TO.C,D1*%
X147842400Y-81680000D03*
D11*
X155462400Y-81680000D03*
%TD*%
D10*
%TO.C,U1*%
X122369860Y-74240000D03*
D12*
X122369860Y-76780000D03*
X122369860Y-79320000D03*
X122369860Y-81860000D03*
X122369860Y-84400000D03*
X122369860Y-86940000D03*
X122369860Y-89480000D03*
X122369860Y-92020000D03*
X122369860Y-94560000D03*
X122369860Y-97100000D03*
X122369860Y-99640000D03*
X122369860Y-102180000D03*
X122369860Y-104720000D03*
X122369860Y-107260000D03*
X122369860Y-109800000D03*
X122369860Y-112340000D03*
X122369860Y-114880000D03*
X122369860Y-117420000D03*
X122369860Y-119960000D03*
X122369860Y-122500000D03*
X122369860Y-125040000D03*
X122369860Y-127580000D03*
X122369860Y-130120000D03*
X122369860Y-132660000D03*
X137609860Y-132660000D03*
X137609860Y-130120000D03*
X137609860Y-127580000D03*
X137609860Y-125040000D03*
X137609860Y-122500000D03*
X137609860Y-119960000D03*
X137609860Y-117420000D03*
X137609860Y-114880000D03*
X137609860Y-112340000D03*
X137609860Y-109800000D03*
X137609860Y-107260000D03*
X137609860Y-104720000D03*
X137609860Y-102180000D03*
X137609860Y-99640000D03*
X137609860Y-97100000D03*
X137609860Y-94560000D03*
X137609860Y-92020000D03*
X137609860Y-89480000D03*
X137609860Y-86940000D03*
X137609860Y-84400000D03*
X137609860Y-81860000D03*
X137609860Y-79320000D03*
X137609860Y-76780000D03*
X137609860Y-74240000D03*
X135069860Y-76780000D03*
D10*
X125420660Y-80539200D03*
D12*
X125420660Y-83079200D03*
X125420660Y-85619200D03*
X125420660Y-88159200D03*
X125420660Y-90699200D03*
%TD*%
D13*
%TO.C,H3*%
X118078000Y-96920000D03*
%TD*%
D14*
%TO.C,J32*%
X113202400Y-91280000D03*
D15*
X113202400Y-93820000D03*
X113202400Y-96360000D03*
X113202400Y-98900000D03*
X113202400Y-101440000D03*
X113202400Y-103980000D03*
X113202400Y-106520000D03*
X113202400Y-109060000D03*
X113202400Y-111600000D03*
X113202400Y-114140000D03*
X113202400Y-116680000D03*
X113202400Y-119220000D03*
X113202400Y-121760000D03*
X113202400Y-124300000D03*
%TD*%
D13*
%TO.C,H1*%
X158078000Y-96920000D03*
%TD*%
D14*
%TO.C,J31*%
X182402400Y-91280000D03*
D15*
X182402400Y-93820000D03*
X182402400Y-96360000D03*
X182402400Y-98900000D03*
X182402400Y-101440000D03*
X182402400Y-103980000D03*
X182402400Y-106520000D03*
X182402400Y-109060000D03*
X182402400Y-111600000D03*
X182402400Y-114140000D03*
X182402400Y-116680000D03*
X182402400Y-119220000D03*
X182402400Y-121760000D03*
X182402400Y-124300000D03*
%TD*%
D16*
%TO.C,J96*%
X145109860Y-133260000D03*
X145109860Y-130720000D03*
X145109860Y-128180000D03*
X145109860Y-125640000D03*
%TD*%
%TO.C,J99*%
X155589860Y-118680000D03*
X153049860Y-118680000D03*
X150509860Y-118680000D03*
X147969860Y-118680000D03*
%TD*%
D17*
%TO.C,J90*%
X165911780Y-75977200D03*
X173409860Y-75979740D03*
X180907940Y-75977200D03*
X168413680Y-78479100D03*
X178406040Y-78479100D03*
%TD*%
D18*
%TO.C,REF\u002A\u002A*%
X118474400Y-77160000D03*
D19*
X118474400Y-79660000D03*
X118474400Y-81660000D03*
X118474400Y-84160000D03*
D20*
X115764400Y-74090000D03*
X115764400Y-87230000D03*
%TD*%
D17*
%TO.C,J40*%
X143511780Y-76077200D03*
X151009860Y-76079740D03*
X158507940Y-76077200D03*
X146013680Y-78579100D03*
X156006040Y-78579100D03*
%TD*%
D13*
%TO.C,H2*%
X118078000Y-131920000D03*
%TD*%
D21*
%TO.C,J0*%
X172536860Y-131130000D03*
X178536860Y-131130000D03*
D22*
X178409860Y-128880000D03*
X171336860Y-128880000D03*
X176504860Y-133380000D03*
%TD*%
D21*
%TO.C,J82*%
X151152400Y-70920000D03*
X151152400Y-64920000D03*
D23*
X154902400Y-65120000D03*
X154902400Y-72120000D03*
X147402400Y-66920000D03*
%TD*%
D21*
%TO.C,J81*%
X173852400Y-70920000D03*
X173852400Y-64920000D03*
D23*
X177602400Y-65120000D03*
X177602400Y-72120000D03*
X170102400Y-66920000D03*
%TD*%
M02*
