%TF.GenerationSoftware,KiCad,Pcbnew,(6.0.2)*%
%TF.CreationDate,2023-02-09T01:22:52-05:00*%
%TF.ProjectId,bottom,626f7474-6f6d-42e6-9b69-6361645f7063,rev?*%
%TF.SameCoordinates,Original*%
%TF.FileFunction,Paste,Top*%
%TF.FilePolarity,Positive*%
%FSLAX46Y46*%
G04 Gerber Fmt 4.6, Leading zero omitted, Abs format (unit mm)*
G04 Created by KiCad (PCBNEW (6.0.2)) date 2023-02-09 01:22:52*
%MOMM*%
%LPD*%
G01*
G04 APERTURE LIST*
G04 Aperture macros list*
%AMRoundRect*
0 Rectangle with rounded corners*
0 $1 Rounding radius*
0 $2 $3 $4 $5 $6 $7 $8 $9 X,Y pos of 4 corners*
0 Add a 4 corners polygon primitive as box body*
4,1,4,$2,$3,$4,$5,$6,$7,$8,$9,$2,$3,0*
0 Add four circle primitives for the rounded corners*
1,1,$1+$1,$2,$3*
1,1,$1+$1,$4,$5*
1,1,$1+$1,$6,$7*
1,1,$1+$1,$8,$9*
0 Add four rect primitives between the rounded corners*
20,1,$1+$1,$2,$3,$4,$5,0*
20,1,$1+$1,$4,$5,$6,$7,0*
20,1,$1+$1,$6,$7,$8,$9,0*
20,1,$1+$1,$8,$9,$2,$3,0*%
G04 Aperture macros list end*
%ADD10RoundRect,0.140000X-0.140000X-0.170000X0.140000X-0.170000X0.140000X0.170000X-0.140000X0.170000X0*%
%ADD11RoundRect,0.140000X0.021213X-0.219203X0.219203X-0.021213X-0.021213X0.219203X-0.219203X0.021213X0*%
%ADD12RoundRect,0.135000X0.226274X0.035355X0.035355X0.226274X-0.226274X-0.035355X-0.035355X-0.226274X0*%
%ADD13RoundRect,0.140000X-0.219203X-0.021213X-0.021213X-0.219203X0.219203X0.021213X0.021213X0.219203X0*%
%ADD14RoundRect,0.250000X0.475000X-0.337500X0.475000X0.337500X-0.475000X0.337500X-0.475000X-0.337500X0*%
%ADD15RoundRect,0.140000X-0.021213X0.219203X-0.219203X0.021213X0.021213X-0.219203X0.219203X-0.021213X0*%
%ADD16RoundRect,0.135000X-0.035355X0.226274X-0.226274X0.035355X0.035355X-0.226274X0.226274X-0.035355X0*%
%ADD17RoundRect,0.250000X-0.350000X-0.450000X0.350000X-0.450000X0.350000X0.450000X-0.350000X0.450000X0*%
%ADD18R,1.500000X0.900000*%
%ADD19R,0.700000X0.700000*%
%ADD20R,1.676400X0.355600*%
%ADD21RoundRect,0.250000X-0.450000X0.350000X-0.450000X-0.350000X0.450000X-0.350000X0.450000X0.350000X0*%
%ADD22RoundRect,0.150000X-0.150000X0.512500X-0.150000X-0.512500X0.150000X-0.512500X0.150000X0.512500X0*%
%ADD23R,1.500000X3.500000*%
%ADD24RoundRect,0.232500X-0.328805X0.000000X0.000000X-0.328805X0.328805X0.000000X0.000000X0.328805X0*%
%ADD25RoundRect,0.062500X-0.309359X0.220971X0.220971X-0.309359X0.309359X-0.220971X-0.220971X0.309359X0*%
%ADD26RoundRect,0.062500X-0.309359X-0.220971X-0.220971X-0.309359X0.309359X0.220971X0.220971X0.309359X0*%
%ADD27R,1.520000X1.780000*%
%ADD28RoundRect,0.250000X-0.450000X0.325000X-0.450000X-0.325000X0.450000X-0.325000X0.450000X0.325000X0*%
%ADD29RoundRect,0.250000X-0.337500X-0.475000X0.337500X-0.475000X0.337500X0.475000X-0.337500X0.475000X0*%
%ADD30R,1.198880X0.701040*%
%ADD31RoundRect,0.250000X0.450000X-0.350000X0.450000X0.350000X-0.450000X0.350000X-0.450000X-0.350000X0*%
%ADD32R,0.600000X1.050000*%
G04 APERTURE END LIST*
D10*
%TO.C,C31*%
X168381800Y-121792800D03*
X169341800Y-121792800D03*
%TD*%
D11*
%TO.C,C11*%
X150628978Y-134689022D03*
X151307800Y-134010200D03*
%TD*%
D12*
%TO.C,R17*%
X151444800Y-125242800D03*
X150723552Y-124521552D03*
%TD*%
D11*
%TO.C,C33*%
X154975978Y-135191622D03*
X155654800Y-134512800D03*
%TD*%
D13*
%TO.C,C36*%
X146024600Y-129920800D03*
X146703422Y-130599622D03*
%TD*%
D12*
%TO.C,R18*%
X150574800Y-126132800D03*
X149853552Y-125411552D03*
%TD*%
D14*
%TO.C,C2*%
X159709860Y-81717500D03*
X159709860Y-79642500D03*
%TD*%
D15*
%TO.C,C35*%
X158750000Y-126720400D03*
X158071178Y-127399222D03*
%TD*%
D12*
%TO.C,R16*%
X152425400Y-124434400D03*
X151704152Y-123713152D03*
%TD*%
D15*
%TO.C,C23*%
X147553622Y-126423978D03*
X146874800Y-127102800D03*
%TD*%
%TO.C,C20*%
X158911611Y-129657589D03*
X158232789Y-130336411D03*
%TD*%
D10*
%TO.C,C30*%
X167414000Y-116083300D03*
X168374000Y-116083300D03*
%TD*%
D16*
%TO.C,R21*%
X149096048Y-131581552D03*
X148374800Y-132302800D03*
%TD*%
D17*
%TO.C,R14*%
X175888400Y-95628000D03*
X177888400Y-95628000D03*
%TD*%
D15*
%TO.C,C24*%
X149074800Y-127952800D03*
X148395978Y-128631622D03*
%TD*%
D13*
%TO.C,C37*%
X145117178Y-130816778D03*
X145796000Y-131495600D03*
%TD*%
D15*
%TO.C,C34*%
X157861000Y-125907600D03*
X157182178Y-126586422D03*
%TD*%
%TO.C,C22*%
X159740600Y-127311578D03*
X159061778Y-127990400D03*
%TD*%
D18*
%TO.C,U5*%
X173888400Y-104628000D03*
X173888400Y-103128000D03*
X173888400Y-101628000D03*
X173888400Y-100128000D03*
X173888400Y-98628000D03*
X173888400Y-97128000D03*
X173888400Y-95628000D03*
X173888400Y-94128000D03*
X173888400Y-92628000D03*
X156388400Y-92628000D03*
X156388400Y-94128000D03*
X156388400Y-95628000D03*
X156388400Y-97128000D03*
X156388400Y-98628000D03*
X156388400Y-100128000D03*
X156388400Y-101628000D03*
X156388400Y-103128000D03*
X156388400Y-104628000D03*
D19*
X165278400Y-97328000D03*
X165278400Y-99528000D03*
X165278400Y-98428000D03*
X163078400Y-98428000D03*
X163078400Y-97328000D03*
X164228400Y-99528000D03*
X164228400Y-97328000D03*
X163078400Y-99528000D03*
X164228400Y-98428000D03*
%TD*%
D12*
%TO.C,R19*%
X149814224Y-127106424D03*
X149092976Y-126385176D03*
%TD*%
D20*
%TO.C,U8*%
X143086000Y-87902800D03*
X143086000Y-88552798D03*
X143086000Y-89202800D03*
X143086000Y-89852798D03*
X143086000Y-90502797D03*
X143086000Y-91152798D03*
X143086000Y-91802797D03*
X143086000Y-92452798D03*
X148724800Y-92452798D03*
X148724800Y-91802800D03*
X148724800Y-91152798D03*
X148724800Y-90502800D03*
X148724800Y-89852801D03*
X148724800Y-89202800D03*
X148724800Y-88552801D03*
X148724800Y-87902800D03*
%TD*%
D11*
%TO.C,C9*%
X149130378Y-133114222D03*
X149809200Y-132435400D03*
%TD*%
D21*
%TO.C,R10*%
X185909860Y-77680000D03*
X185909860Y-79680000D03*
%TD*%
D22*
%TO.C,U6*%
X169354600Y-117841400D03*
X168404600Y-117841400D03*
X167454600Y-117841400D03*
X167454600Y-120116400D03*
X169354600Y-120116400D03*
%TD*%
D23*
%TO.C,J84*%
X120024800Y-136377800D03*
X127024800Y-136377800D03*
X121824800Y-128877800D03*
%TD*%
D24*
%TO.C,UNK1*%
X152272627Y-130530773D03*
X153898973Y-130530773D03*
X154712146Y-129717600D03*
X153085800Y-128091254D03*
X152272627Y-128904427D03*
X153898973Y-128904427D03*
X151459454Y-129717600D03*
X153085800Y-129717600D03*
X153085800Y-131343946D03*
D25*
X152599664Y-126756590D03*
X152246111Y-127110144D03*
X151892557Y-127463697D03*
X151539004Y-127817251D03*
X151185451Y-128170804D03*
X150831897Y-128524357D03*
X150478344Y-128877911D03*
X150124790Y-129231464D03*
D26*
X150124790Y-130203736D03*
X150478344Y-130557289D03*
X150831897Y-130910843D03*
X151185451Y-131264396D03*
X151539004Y-131617949D03*
X151892557Y-131971503D03*
X152246111Y-132325056D03*
X152599664Y-132678610D03*
D25*
X153571936Y-132678610D03*
X153925489Y-132325056D03*
X154279043Y-131971503D03*
X154632596Y-131617949D03*
X154986149Y-131264396D03*
X155339703Y-130910843D03*
X155693256Y-130557289D03*
X156046810Y-130203736D03*
D26*
X156046810Y-129231464D03*
X155693256Y-128877911D03*
X155339703Y-128524357D03*
X154986149Y-128170804D03*
X154632596Y-127817251D03*
X154279043Y-127463697D03*
X153925489Y-127110144D03*
X153571936Y-126756590D03*
%TD*%
D13*
%TO.C,C38*%
X155150178Y-125736778D03*
X155829000Y-126415600D03*
%TD*%
D12*
%TO.C,R15*%
X153268624Y-123499624D03*
X152547376Y-122778376D03*
%TD*%
D13*
%TO.C,C32*%
X155988378Y-124847778D03*
X156667200Y-125526600D03*
%TD*%
D27*
%TO.C,U3*%
X148464800Y-79702800D03*
X148464800Y-82242800D03*
X148464800Y-84782800D03*
X157474800Y-84782800D03*
X157474800Y-82242800D03*
X157474800Y-79702800D03*
%TD*%
D14*
%TO.C,C1*%
X170802400Y-82080000D03*
X170802400Y-80005000D03*
%TD*%
D22*
%TO.C,U7*%
X164493000Y-117791102D03*
X163543000Y-117791102D03*
X162593000Y-117791102D03*
X162593000Y-120066102D03*
X164493000Y-120066102D03*
%TD*%
D28*
%TO.C,D2*%
X183509860Y-77730000D03*
X183509860Y-79780000D03*
%TD*%
D15*
%TO.C,C21*%
X159632022Y-130384978D03*
X158953200Y-131063800D03*
%TD*%
D21*
%TO.C,R2*%
X172709860Y-77880000D03*
X172709860Y-79880000D03*
%TD*%
D11*
%TO.C,C15*%
X154045978Y-134291622D03*
X154724800Y-133612800D03*
%TD*%
D23*
%TO.C,J2*%
X180514400Y-129177200D03*
X173514400Y-129177200D03*
X178714400Y-136677200D03*
%TD*%
D29*
%TO.C,C7*%
X177888400Y-91228000D03*
X179963400Y-91228000D03*
%TD*%
D30*
%TO.C,D1*%
X150226560Y-76652800D03*
X153924800Y-76652800D03*
%TD*%
D29*
%TO.C,C6*%
X177888400Y-93528000D03*
X179963400Y-93528000D03*
%TD*%
D21*
%TO.C,R3*%
X175109860Y-77980000D03*
X175109860Y-79980000D03*
%TD*%
D31*
%TO.C,R12*%
X176588400Y-102328000D03*
X176588400Y-100328000D03*
%TD*%
D10*
%TO.C,C26*%
X162588000Y-116103200D03*
X163548000Y-116103200D03*
%TD*%
D16*
%TO.C,R20*%
X148296048Y-130781552D03*
X147574800Y-131502800D03*
%TD*%
D21*
%TO.C,R8*%
X161909860Y-79680000D03*
X161909860Y-81680000D03*
%TD*%
D15*
%TO.C,C25*%
X148274800Y-127202800D03*
X147595978Y-127881622D03*
%TD*%
D29*
%TO.C,C8*%
X173950900Y-89128000D03*
X176025900Y-89128000D03*
%TD*%
D10*
%TO.C,C27*%
X163022400Y-121869000D03*
X163982400Y-121869000D03*
%TD*%
D21*
%TO.C,R7*%
X145324800Y-78552800D03*
X145324800Y-80552800D03*
%TD*%
D11*
%TO.C,C12*%
X151416378Y-135501822D03*
X152095200Y-134823000D03*
%TD*%
%TO.C,C10*%
X149866978Y-133901622D03*
X150545800Y-133222800D03*
%TD*%
D32*
%TO.C,U2*%
X172752400Y-84480000D03*
X173702400Y-84480000D03*
X174652400Y-84480000D03*
X174652400Y-81780000D03*
X172752400Y-81780000D03*
%TD*%
M02*
