M48
; DRILL file {KiCad (6.0.2)} date Fri Mar  4 10:51:57 2022
; FORMAT={-:-/ absolute / metric / decimal}
; #@! TF.CreationDate,2022-03-04T10:51:57-05:00
; #@! TF.GenerationSoftware,Kicad,Pcbnew,(6.0.2)
; #@! TF.FileFunction,Plated,1,2,PTH
FMAT,2
METRIC
; #@! TA.AperFunction,Plated,PTH,ViaDrill
T1C0.400
; #@! TA.AperFunction,Plated,PTH,ComponentDrill
T2C0.800
; #@! TA.AperFunction,Plated,PTH,ComponentDrill
T3C0.900
; #@! TA.AperFunction,Plated,PTH,ComponentDrill
T4C0.920
; #@! TA.AperFunction,Plated,PTH,ComponentDrill
T5C1.000
; #@! TA.AperFunction,Plated,PTH,ComponentDrill
T6C1.020
; #@! TA.AperFunction,Plated,PTH,ComponentDrill
T7C1.100
; #@! TA.AperFunction,Plated,PTH,ComponentDrill
T8C1.397
; #@! TA.AperFunction,Plated,PTH,ComponentDrill
T9C2.300
; #@! TA.AperFunction,Plated,PTH,ComponentDrill
T10C2.700
%
G90
G05
T1
X158.71Y-89.98
X159.31Y-91.98
X170.51Y-131.08
X170.91Y-126.58
X181.36Y-87.73
T2
X147.666Y-85.791
X147.666Y-88.331
X147.666Y-90.871
X147.842Y-81.68
X155.286Y-85.791
X155.286Y-88.331
X155.286Y-90.871
X155.462Y-81.68
X163.07Y-87.28
X163.07Y-94.9
X165.61Y-87.28
X165.61Y-94.9
X168.15Y-87.28
X168.15Y-94.9
X170.69Y-87.28
X170.69Y-94.9
X173.23Y-87.28
X173.23Y-94.9
X175.77Y-87.28
X175.77Y-94.9
X178.31Y-87.28
X178.31Y-94.9
T4
X118.474Y-77.16
X118.474Y-79.66
X118.474Y-81.66
X118.474Y-84.16
T5
X113.202Y-91.28
X113.202Y-93.82
X113.202Y-96.36
X113.202Y-98.9
X113.202Y-101.44
X113.202Y-103.98
X113.202Y-106.52
X113.202Y-109.06
X113.202Y-111.6
X113.202Y-114.14
X113.202Y-116.68
X113.202Y-119.22
X113.202Y-121.76
X113.202Y-124.3
X122.37Y-76.78
X122.37Y-79.32
X122.37Y-81.86
X122.37Y-84.4
X122.37Y-86.94
X122.37Y-89.48
X122.37Y-92.02
X122.37Y-94.56
X122.37Y-97.1
X122.37Y-99.64
X122.37Y-102.18
X122.37Y-104.72
X122.37Y-107.26
X122.37Y-109.8
X122.37Y-112.34
X122.37Y-114.88
X122.37Y-117.42
X122.37Y-119.96
X122.37Y-122.5
X122.37Y-125.04
X122.37Y-127.58
X122.37Y-130.12
X122.37Y-132.66
X125.421Y-83.079
X125.421Y-85.619
X125.421Y-88.159
X125.421Y-90.699
X135.07Y-76.78
X137.61Y-74.24
X137.61Y-76.78
X137.61Y-79.32
X137.61Y-81.86
X137.61Y-84.4
X137.61Y-86.94
X137.61Y-89.48
X137.61Y-92.02
X137.61Y-94.56
X137.61Y-97.1
X137.61Y-99.64
X137.61Y-102.18
X137.61Y-104.72
X137.61Y-107.26
X137.61Y-109.8
X137.61Y-112.34
X137.61Y-114.88
X137.61Y-117.42
X137.61Y-119.96
X137.61Y-122.5
X137.61Y-125.04
X137.61Y-127.58
X137.61Y-130.12
X137.61Y-132.66
X182.402Y-91.28
X182.402Y-93.82
X182.402Y-96.36
X182.402Y-98.9
X182.402Y-101.44
X182.402Y-103.98
X182.402Y-106.52
X182.402Y-109.06
X182.402Y-111.6
X182.402Y-114.14
X182.402Y-116.68
X182.402Y-119.22
X182.402Y-121.76
X182.402Y-124.3
T6
X145.11Y-125.64
X145.11Y-128.18
X145.11Y-130.72
X145.11Y-133.26
X147.97Y-118.68
X150.51Y-118.68
X153.05Y-118.68
X155.59Y-118.68
T7
X122.37Y-74.24
X125.421Y-80.539
T8
X143.512Y-76.077
X146.014Y-78.579
X151.01Y-76.08
X156.006Y-78.579
X158.508Y-76.077
X165.912Y-75.977
X168.414Y-78.479
X173.41Y-75.98
X178.406Y-78.479
X180.908Y-75.977
T9
X115.764Y-74.09
X115.764Y-87.23
T10
X118.078Y-96.92
X118.078Y-131.92
X158.078Y-96.92
T3
G00X171.737Y-128.88
M15
G01X170.937Y-128.88
M16
G05
G00X176.905Y-133.38
M15
G01X176.105Y-133.38
M16
G05
G00X178.81Y-128.88
M15
G01X178.01Y-128.88
M16
G05
T0
M30
