%TF.GenerationSoftware,KiCad,Pcbnew,(6.0.2)*%
%TF.CreationDate,2022-05-28T15:24:10-04:00*%
%TF.ProjectId,bottom,626f7474-6f6d-42e6-9b69-6361645f7063,3.4*%
%TF.SameCoordinates,Original*%
%TF.FileFunction,Profile,NP*%
%FSLAX46Y46*%
G04 Gerber Fmt 4.6, Leading zero omitted, Abs format (unit mm)*
G04 Created by KiCad (PCBNEW (6.0.2)) date 2022-05-28 15:24:10*
%MOMM*%
%LPD*%
G01*
G04 APERTURE LIST*
%TA.AperFunction,Profile*%
%ADD10C,0.100000*%
%TD*%
G04 APERTURE END LIST*
D10*
X187192676Y-74753882D02*
X187195396Y-74858180D01*
X144040594Y-65281028D02*
X144062902Y-65247991D01*
X187023712Y-74047252D02*
X187063484Y-74143680D01*
X144062902Y-65247991D02*
X144086963Y-65216207D01*
X186910602Y-127311333D02*
X186845317Y-127347569D01*
X115843297Y-72996509D02*
X115884530Y-72988866D01*
X183672927Y-64946399D02*
X183729845Y-64956601D01*
X184426831Y-65434060D02*
X184456904Y-65483450D01*
X112269620Y-91144307D02*
X112323962Y-91055212D01*
X112315941Y-127290148D02*
X112284998Y-127260784D01*
X186290571Y-73184143D02*
X186376400Y-73243601D01*
X186595056Y-127419177D02*
X186520459Y-127422959D01*
X183557872Y-64935088D02*
X183615549Y-64939221D01*
X186321000Y-114929502D02*
X187261000Y-115640000D01*
X115505795Y-73157490D02*
X115539065Y-73131962D01*
X181619542Y-135981613D02*
X117769999Y-135981000D01*
X112056683Y-126812692D02*
X112051121Y-126770451D01*
X186845317Y-127347569D02*
X186776608Y-127377054D01*
X184195900Y-65177097D02*
X184239886Y-65214634D01*
X184456904Y-65483450D02*
X184484324Y-65534361D01*
X112100703Y-126976975D02*
X112086498Y-126936862D01*
X115473867Y-73184759D02*
X115505795Y-73157490D01*
X112049004Y-115709900D02*
X112959000Y-114979520D01*
X112609007Y-127459337D02*
X112568795Y-127445097D01*
X186458971Y-73307422D02*
X186538101Y-73375461D01*
X144112706Y-65185771D02*
X144140056Y-65156769D01*
X112739948Y-90590601D02*
X112822519Y-90526780D01*
X187028623Y-127219984D02*
X186971969Y-127268620D01*
X115684040Y-73048261D02*
X115722831Y-73032193D01*
X186941806Y-127290769D02*
X186910602Y-127311333D01*
X112860000Y-127501000D02*
X112775420Y-127494704D01*
X112027967Y-91829547D02*
X112046911Y-91726921D01*
X144263910Y-65056718D02*
X144298013Y-65036076D01*
X184484324Y-65534361D02*
X184509102Y-65586967D01*
X187146406Y-127075545D02*
X187125840Y-127106748D01*
X144560667Y-64946696D02*
X183379975Y-64939000D01*
X115573582Y-73108239D02*
X115609383Y-73086301D01*
X182103344Y-135659665D02*
X182080106Y-135707808D01*
X112959000Y-114979520D02*
X112959000Y-101790504D01*
X182140999Y-135419939D02*
X182144651Y-135450927D01*
X112219973Y-91236161D02*
X112269620Y-91144307D01*
X187127725Y-74342193D02*
X187151997Y-74443691D01*
X182128791Y-135583534D02*
X182113126Y-135634699D01*
X117769999Y-135981000D02*
X117718826Y-135963663D01*
X115361822Y-73309205D02*
X115387350Y-73275935D01*
X111999000Y-92140000D02*
X112014398Y-91933021D01*
X187234519Y-126870216D02*
X187212154Y-126941508D01*
X183786144Y-64969799D02*
X183841666Y-64985956D01*
X184359100Y-65340434D02*
X184394188Y-65386330D01*
X112117027Y-127016385D02*
X112100703Y-126976975D01*
X186685158Y-73523403D02*
X186752721Y-73602940D01*
X186538101Y-73375461D02*
X186613577Y-73447533D01*
X186978946Y-73952982D02*
X187023712Y-74047252D01*
X186201803Y-73129270D02*
X186290571Y-73184143D01*
X117005582Y-134921289D02*
X117008860Y-134865118D01*
X181802892Y-135948174D02*
X181751942Y-135964357D01*
X115262072Y-73492923D02*
X115278100Y-73454228D01*
X117337536Y-135730230D02*
X117297731Y-135690346D01*
X144482418Y-64961975D02*
X144521321Y-64953279D01*
X112453583Y-127390143D02*
X112417255Y-127367883D01*
X115967965Y-72980096D02*
X116009860Y-72979000D01*
X187063484Y-74143680D02*
X187098194Y-74242098D01*
X112155676Y-127092236D02*
X112135347Y-127054793D01*
X112691236Y-127481370D02*
X112649858Y-127471436D01*
X112064438Y-126854532D02*
X112056683Y-126812692D01*
X144230972Y-65079173D02*
X144263910Y-65056718D01*
X115646190Y-73066316D02*
X115684040Y-73048261D01*
X112086498Y-126936862D02*
X112074396Y-126896012D01*
X184509102Y-65586967D02*
X184510999Y-73079000D01*
X182052076Y-135753388D02*
X182036329Y-135775091D01*
X187261000Y-126690000D02*
X187249557Y-126797028D01*
X117564616Y-135895226D02*
X117515802Y-135867079D01*
X112047777Y-126727977D02*
X112046660Y-126685359D01*
X117718826Y-135963663D02*
X117666254Y-135943573D01*
X112046911Y-91726921D02*
X112071194Y-91625372D01*
X187098194Y-74242098D02*
X187127725Y-74342193D01*
X184321600Y-65296416D02*
X184359100Y-65340434D01*
X113820007Y-90359000D02*
X115209000Y-90368992D01*
X183615549Y-64939221D02*
X183672927Y-64946399D01*
X112649858Y-127471436D02*
X112609007Y-127459337D01*
X112529481Y-127428813D02*
X112491026Y-127410472D01*
X186520459Y-127422959D02*
X182111003Y-127421000D01*
X115414619Y-73244007D02*
X115443449Y-73213626D01*
X186752721Y-73602940D02*
X186816044Y-73685893D01*
X115213245Y-73696298D02*
X115218726Y-73654670D01*
X182144188Y-135477820D02*
X182139182Y-135531044D01*
X115926158Y-72983385D02*
X115967965Y-72980096D01*
X184281825Y-65254444D02*
X184321600Y-65296416D01*
X181673025Y-135978758D02*
X181619542Y-135981613D01*
X115296176Y-73416330D02*
X115316187Y-73379477D01*
X181920982Y-135885864D02*
X181898660Y-135900720D01*
X115884530Y-72988866D02*
X115926158Y-72983385D01*
X187261000Y-115640000D02*
X187261000Y-126690000D01*
X183379975Y-64939000D02*
X183500057Y-64934010D01*
X112513726Y-90806621D02*
X112585379Y-90730675D01*
X112051121Y-126770451D02*
X112047777Y-126727977D01*
X115338099Y-73343722D02*
X115361822Y-73309205D01*
X117423042Y-135803336D02*
X117379346Y-135767926D01*
X117379346Y-135767926D02*
X117337536Y-135730230D01*
X112228002Y-127197480D02*
X112202097Y-127163720D01*
X115236147Y-73572711D02*
X115248072Y-73532452D01*
X115226369Y-73613437D02*
X115236147Y-73572711D01*
X183729845Y-64956601D02*
X183786144Y-64969799D01*
X112014398Y-91933021D02*
X112027967Y-91829547D01*
X186971969Y-127268620D02*
X186941806Y-127290769D01*
X112135347Y-127054793D02*
X112117027Y-127016385D01*
X115209956Y-73738108D02*
X115213245Y-73696298D01*
X184239886Y-65214634D02*
X184281825Y-65254444D01*
X186705365Y-127399407D02*
X186668962Y-127407855D01*
X117468582Y-135836429D02*
X117423042Y-135803336D01*
X186321000Y-101820481D02*
X186321000Y-114929502D01*
X183949761Y-65026957D02*
X184002031Y-65051687D01*
X184102242Y-65109230D02*
X184149948Y-65141908D01*
X115802520Y-73006300D02*
X115843297Y-72996509D01*
X115443449Y-73213626D02*
X115473867Y-73184759D01*
X187200999Y-92079999D02*
X187210999Y-101109998D01*
X117065050Y-135308579D02*
X117047873Y-135255024D01*
X112733179Y-127489144D02*
X112691236Y-127481370D01*
X184510999Y-73079000D02*
X186110100Y-73079005D01*
X182001695Y-135815879D02*
X181963099Y-135852941D01*
X112568795Y-127445097D02*
X112529481Y-127428813D01*
X144168974Y-65129252D02*
X144199296Y-65103374D01*
X181725843Y-135970504D02*
X181673025Y-135978758D01*
X112202097Y-127163720D02*
X112177964Y-127128608D01*
X187195396Y-74858180D02*
X187200999Y-92079999D01*
X183896256Y-65005026D02*
X183949761Y-65026957D01*
X187151997Y-74443691D02*
X187170952Y-74546368D01*
X112177964Y-127128608D02*
X112155676Y-127092236D01*
X186776608Y-127377054D02*
X186705365Y-127399407D01*
X187080136Y-127165792D02*
X187028623Y-127219984D01*
X115387350Y-73275935D02*
X115414619Y-73244007D01*
X112046660Y-126685359D02*
X112049004Y-115709900D01*
X186929325Y-73861173D02*
X186978946Y-73952982D01*
X115248072Y-73532452D02*
X115262072Y-73492923D01*
X187182691Y-127010171D02*
X187146406Y-127075545D01*
X182139182Y-135531044D02*
X182128791Y-135583534D01*
X117005264Y-134977530D02*
X117005582Y-134921289D01*
X115316187Y-73379477D02*
X115338099Y-73343722D01*
X144140056Y-65156769D02*
X144168974Y-65129252D01*
X186668962Y-127407855D02*
X186595056Y-127419177D01*
X117515802Y-135867079D02*
X117468582Y-135836429D01*
X186874957Y-73772033D02*
X186929325Y-73861173D01*
X115218726Y-73654670D02*
X115226369Y-73613437D01*
X183500057Y-64934010D02*
X183557872Y-64935088D01*
X144086963Y-65216207D02*
X144112706Y-65185771D01*
X112959000Y-101790504D02*
X111999004Y-101080093D01*
X187210999Y-101109998D02*
X186321000Y-101820481D01*
X115722831Y-73032193D02*
X115762362Y-73018196D01*
X117260118Y-135648461D02*
X117224794Y-135604696D01*
X182144651Y-135450927D02*
X182144188Y-135477820D01*
X181751942Y-135964357D02*
X181725843Y-135970504D01*
X117047873Y-135255024D02*
X117033525Y-135200589D01*
X144333182Y-65017308D02*
X144369264Y-65000488D01*
X182113126Y-135634699D02*
X182103344Y-135659665D01*
X112175207Y-91330431D02*
X112219973Y-91236161D01*
X144008998Y-72979000D02*
X143999004Y-65349909D01*
X117666254Y-135943573D02*
X117614798Y-135920738D01*
X111999004Y-101080093D02*
X111999000Y-92140000D01*
X117133186Y-135462939D02*
X117107796Y-135412754D01*
X182036329Y-135775091D02*
X182001695Y-135815879D01*
X184394188Y-65386330D02*
X184426831Y-65434060D01*
X184052875Y-65079120D02*
X184102242Y-65109230D01*
X144443989Y-64972776D02*
X144482418Y-64961975D01*
X112074396Y-126896012D02*
X112064438Y-126854532D01*
X182111003Y-127421000D02*
X182140999Y-135419939D01*
X117085040Y-135361205D02*
X117065050Y-135308579D01*
X187184521Y-74649842D02*
X187192676Y-74753882D01*
X112071194Y-91625372D02*
X112100725Y-91525277D01*
X112908304Y-90467350D02*
X112997116Y-90412448D01*
X112284998Y-127260784D02*
X112255671Y-127229878D01*
X143999004Y-65349909D02*
X144040594Y-65281028D01*
X112491026Y-127410472D02*
X112453583Y-127390143D01*
X112775420Y-127494704D02*
X112733179Y-127489144D01*
X115278100Y-73454228D02*
X115296176Y-73416330D01*
X112348339Y-127317817D02*
X112315941Y-127290148D01*
X117008860Y-134865118D02*
X117008999Y-127501000D01*
X112446166Y-90886160D02*
X112513726Y-90806621D01*
X187125840Y-127106748D02*
X187080136Y-127165792D01*
X117013516Y-135089831D02*
X117007909Y-135033763D01*
X117008999Y-127501000D02*
X112860000Y-127501000D01*
X184002031Y-65051687D02*
X184052875Y-65079120D01*
X144199296Y-65103374D02*
X144230972Y-65079173D01*
X117614798Y-135920738D02*
X117564616Y-135895226D01*
X112822519Y-90526780D02*
X112908304Y-90467350D01*
X112135416Y-91426908D02*
X112175207Y-91330431D01*
X186110100Y-73079005D02*
X186201803Y-73129270D01*
X117007909Y-135033763D02*
X117005264Y-134977530D01*
X115209000Y-90368992D02*
X115209956Y-73738108D01*
X184149948Y-65141908D02*
X184195900Y-65177097D01*
X183841666Y-64985956D02*
X183896256Y-65005026D01*
X117297731Y-135690346D02*
X117260118Y-135648461D01*
X181851983Y-135926884D02*
X181802892Y-135948174D01*
X144406252Y-64985622D02*
X144443989Y-64972776D01*
X117107796Y-135412754D02*
X117085040Y-135361205D01*
X115539065Y-73131962D02*
X115573582Y-73108239D01*
X117224794Y-135604696D02*
X117191762Y-135559046D01*
X186613577Y-73447533D02*
X186685158Y-73523403D01*
X117191762Y-135559046D02*
X117161208Y-135511764D01*
X112382875Y-90969072D02*
X112446166Y-90886160D01*
X117022062Y-135145473D02*
X117013516Y-135089831D01*
X112255671Y-127229878D02*
X112228002Y-127197480D01*
X112323962Y-91055212D02*
X112382875Y-90969072D01*
X112100725Y-91525277D02*
X112135416Y-91426908D01*
X112382099Y-127343722D02*
X112348339Y-127317817D01*
X182080106Y-135707808D02*
X182052076Y-135753388D01*
X112997116Y-90412448D02*
X113089055Y-90362178D01*
X181898660Y-135900720D02*
X181851983Y-135926884D01*
X144521321Y-64953279D02*
X144560667Y-64946696D01*
X112660856Y-90658605D02*
X112739948Y-90590601D01*
X115762362Y-73018196D02*
X115802520Y-73006300D01*
X112585379Y-90730675D02*
X112660856Y-90658605D01*
X117033525Y-135200589D02*
X117022062Y-135145473D01*
X186816044Y-73685893D02*
X186874957Y-73772033D01*
X113089055Y-90362178D02*
X113820007Y-90359000D01*
X117161208Y-135511764D02*
X117133186Y-135462939D01*
X181963099Y-135852941D02*
X181920982Y-135885864D01*
X187249557Y-126797028D02*
X187234519Y-126870216D01*
X112417255Y-127367883D02*
X112382099Y-127343722D01*
X187170952Y-74546368D02*
X187184521Y-74649842D01*
X116009860Y-72979000D02*
X144008998Y-72979000D01*
X115609383Y-73086301D02*
X115646190Y-73066316D01*
X186376400Y-73243601D02*
X186458971Y-73307422D01*
X187212154Y-126941508D02*
X187182691Y-127010171D01*
X144369264Y-65000488D02*
X144406252Y-64985622D01*
X144298013Y-65036076D02*
X144333182Y-65017308D01*
M02*
