%TF.GenerationSoftware,KiCad,Pcbnew,(6.0.2)*%
%TF.CreationDate,2023-02-09T01:22:52-05:00*%
%TF.ProjectId,bottom,626f7474-6f6d-42e6-9b69-6361645f7063,rev?*%
%TF.SameCoordinates,Original*%
%TF.FileFunction,Legend,Bot*%
%TF.FilePolarity,Positive*%
%FSLAX46Y46*%
G04 Gerber Fmt 4.6, Leading zero omitted, Abs format (unit mm)*
G04 Created by KiCad (PCBNEW (6.0.2)) date 2023-02-09 01:22:52*
%MOMM*%
%LPD*%
G01*
G04 APERTURE LIST*
%ADD10C,0.200000*%
%ADD11C,0.150000*%
%ADD12C,0.250000*%
%ADD13C,0.300000*%
%ADD14C,0.100000*%
%ADD15C,0.125000*%
%ADD16C,0.050800*%
%ADD17C,0.120000*%
%ADD18C,2.499360*%
%ADD19C,1.200000*%
G04 APERTURE END LIST*
D10*
X141862828Y-104579535D02*
X141862828Y-105929535D01*
X142377114Y-105929535D01*
X142505685Y-105865250D01*
X142569971Y-105800964D01*
X142634257Y-105672392D01*
X142634257Y-105479535D01*
X142569971Y-105350964D01*
X142505685Y-105286678D01*
X142377114Y-105222392D01*
X141862828Y-105222392D01*
X143405685Y-104579535D02*
X143277114Y-104643821D01*
X143212828Y-104708107D01*
X143148542Y-104836678D01*
X143148542Y-105222392D01*
X143212828Y-105350964D01*
X143277114Y-105415250D01*
X143405685Y-105479535D01*
X143598542Y-105479535D01*
X143727114Y-105415250D01*
X143791400Y-105350964D01*
X143855685Y-105222392D01*
X143855685Y-104836678D01*
X143791400Y-104708107D01*
X143727114Y-104643821D01*
X143598542Y-104579535D01*
X143405685Y-104579535D01*
X145012828Y-104643821D02*
X144884257Y-104579535D01*
X144627114Y-104579535D01*
X144498542Y-104643821D01*
X144434257Y-104708107D01*
X144369971Y-104836678D01*
X144369971Y-105222392D01*
X144434257Y-105350964D01*
X144498542Y-105415250D01*
X144627114Y-105479535D01*
X144884257Y-105479535D01*
X145012828Y-105415250D01*
X145591400Y-104579535D02*
X145591400Y-105929535D01*
X145719971Y-105093821D02*
X146105685Y-104579535D01*
X146105685Y-105479535D02*
X145591400Y-104965250D01*
X147198542Y-104643821D02*
X147069971Y-104579535D01*
X146812828Y-104579535D01*
X146684257Y-104643821D01*
X146619971Y-104772392D01*
X146619971Y-105286678D01*
X146684257Y-105415250D01*
X146812828Y-105479535D01*
X147069971Y-105479535D01*
X147198542Y-105415250D01*
X147262828Y-105286678D01*
X147262828Y-105158107D01*
X146619971Y-105029535D01*
X147648542Y-105479535D02*
X148162828Y-105479535D01*
X147841400Y-105929535D02*
X147841400Y-104772392D01*
X147905685Y-104643821D01*
X148034257Y-104579535D01*
X148162828Y-104579535D01*
X149898542Y-105929535D02*
X150155685Y-105929535D01*
X150284257Y-105865250D01*
X150412828Y-105736678D01*
X150477114Y-105479535D01*
X150477114Y-105029535D01*
X150412828Y-104772392D01*
X150284257Y-104643821D01*
X150155685Y-104579535D01*
X149898542Y-104579535D01*
X149769971Y-104643821D01*
X149641400Y-104772392D01*
X149577114Y-105029535D01*
X149577114Y-105479535D01*
X149641400Y-105736678D01*
X149769971Y-105865250D01*
X149898542Y-105929535D01*
X151055685Y-105479535D02*
X151055685Y-104129535D01*
X151055685Y-105415250D02*
X151184257Y-105479535D01*
X151441400Y-105479535D01*
X151569971Y-105415250D01*
X151634257Y-105350964D01*
X151698542Y-105222392D01*
X151698542Y-104836678D01*
X151634257Y-104708107D01*
X151569971Y-104643821D01*
X151441400Y-104579535D01*
X151184257Y-104579535D01*
X151055685Y-104643821D01*
X152791400Y-104643821D02*
X152662828Y-104579535D01*
X152405685Y-104579535D01*
X152277114Y-104643821D01*
X152212828Y-104772392D01*
X152212828Y-105286678D01*
X152277114Y-105415250D01*
X152405685Y-105479535D01*
X152662828Y-105479535D01*
X152791400Y-105415250D01*
X152855685Y-105286678D01*
X152855685Y-105158107D01*
X152212828Y-105029535D01*
X153434257Y-104579535D02*
X153434257Y-105479535D01*
X153434257Y-105222392D02*
X153498542Y-105350964D01*
X153562828Y-105415250D01*
X153691400Y-105479535D01*
X153819971Y-105479535D01*
X154848542Y-104579535D02*
X154848542Y-105286678D01*
X154784257Y-105415250D01*
X154655685Y-105479535D01*
X154398542Y-105479535D01*
X154269971Y-105415250D01*
X154848542Y-104643821D02*
X154719971Y-104579535D01*
X154398542Y-104579535D01*
X154269971Y-104643821D01*
X154205685Y-104772392D01*
X154205685Y-104900964D01*
X154269971Y-105029535D01*
X154398542Y-105093821D01*
X154719971Y-105093821D01*
X154848542Y-105158107D01*
X155298542Y-105479535D02*
X155812828Y-105479535D01*
X155491400Y-105929535D02*
X155491400Y-104772392D01*
X155555685Y-104643821D01*
X155684257Y-104579535D01*
X155812828Y-104579535D01*
X156455685Y-104579535D02*
X156327114Y-104643821D01*
X156262828Y-104708107D01*
X156198542Y-104836678D01*
X156198542Y-105222392D01*
X156262828Y-105350964D01*
X156327114Y-105415250D01*
X156455685Y-105479535D01*
X156648542Y-105479535D01*
X156777114Y-105415250D01*
X156841400Y-105350964D01*
X156905685Y-105222392D01*
X156905685Y-104836678D01*
X156841400Y-104708107D01*
X156777114Y-104643821D01*
X156648542Y-104579535D01*
X156455685Y-104579535D01*
X157484257Y-104579535D02*
X157484257Y-105479535D01*
X157484257Y-105222392D02*
X157548542Y-105350964D01*
X157612828Y-105415250D01*
X157741400Y-105479535D01*
X157869971Y-105479535D01*
X159348542Y-104579535D02*
X159348542Y-105929535D01*
X159798542Y-104965250D01*
X160248542Y-105929535D01*
X160248542Y-104579535D01*
X160891400Y-104579535D02*
X160891400Y-105479535D01*
X160891400Y-105929535D02*
X160827114Y-105865250D01*
X160891400Y-105800964D01*
X160955685Y-105865250D01*
X160891400Y-105929535D01*
X160891400Y-105800964D01*
X162112828Y-104579535D02*
X162112828Y-105929535D01*
X162112828Y-104643821D02*
X161984257Y-104579535D01*
X161727114Y-104579535D01*
X161598542Y-104643821D01*
X161534257Y-104708107D01*
X161469971Y-104836678D01*
X161469971Y-105222392D01*
X161534257Y-105350964D01*
X161598542Y-105415250D01*
X161727114Y-105479535D01*
X161984257Y-105479535D01*
X162112828Y-105415250D01*
X162755685Y-104579535D02*
X162755685Y-105479535D01*
X162755685Y-105929535D02*
X162691400Y-105865250D01*
X162755685Y-105800964D01*
X162819971Y-105865250D01*
X162755685Y-105929535D01*
X162755685Y-105800964D01*
X164362828Y-104965250D02*
X165005685Y-104965250D01*
X164234257Y-104579535D02*
X164684257Y-105929535D01*
X165134257Y-104579535D01*
X166162828Y-104579535D02*
X166162828Y-105929535D01*
X166162828Y-104643821D02*
X166034257Y-104579535D01*
X165777114Y-104579535D01*
X165648542Y-104643821D01*
X165584257Y-104708107D01*
X165519971Y-104836678D01*
X165519971Y-105222392D01*
X165584257Y-105350964D01*
X165648542Y-105415250D01*
X165777114Y-105479535D01*
X166034257Y-105479535D01*
X166162828Y-105415250D01*
X167384257Y-104579535D02*
X167384257Y-105286678D01*
X167319971Y-105415250D01*
X167191400Y-105479535D01*
X166934257Y-105479535D01*
X166805685Y-105415250D01*
X167384257Y-104643821D02*
X167255685Y-104579535D01*
X166934257Y-104579535D01*
X166805685Y-104643821D01*
X166741400Y-104772392D01*
X166741400Y-104900964D01*
X166805685Y-105029535D01*
X166934257Y-105093821D01*
X167255685Y-105093821D01*
X167384257Y-105158107D01*
X168027114Y-105479535D02*
X168027114Y-104129535D01*
X168027114Y-105415250D02*
X168155685Y-105479535D01*
X168412828Y-105479535D01*
X168541400Y-105415250D01*
X168605685Y-105350964D01*
X168669971Y-105222392D01*
X168669971Y-104836678D01*
X168605685Y-104708107D01*
X168541400Y-104643821D01*
X168412828Y-104579535D01*
X168155685Y-104579535D01*
X168027114Y-104643821D01*
X169055685Y-105479535D02*
X169569971Y-105479535D01*
X169248542Y-105929535D02*
X169248542Y-104772392D01*
X169312828Y-104643821D01*
X169441400Y-104579535D01*
X169569971Y-104579535D01*
X170534257Y-104643821D02*
X170405685Y-104579535D01*
X170148542Y-104579535D01*
X170019971Y-104643821D01*
X169955685Y-104772392D01*
X169955685Y-105286678D01*
X170019971Y-105415250D01*
X170148542Y-105479535D01*
X170405685Y-105479535D01*
X170534257Y-105415250D01*
X170598542Y-105286678D01*
X170598542Y-105158107D01*
X169955685Y-105029535D01*
X171177114Y-104579535D02*
X171177114Y-105479535D01*
X171177114Y-105222392D02*
X171241400Y-105350964D01*
X171305685Y-105415250D01*
X171434257Y-105479535D01*
X171562828Y-105479535D01*
X148098542Y-102406035D02*
X148098542Y-103756035D01*
X148098542Y-103113178D02*
X148869971Y-103113178D01*
X148869971Y-102406035D02*
X148869971Y-103756035D01*
X150091400Y-102406035D02*
X150091400Y-103113178D01*
X150027114Y-103241750D01*
X149898542Y-103306035D01*
X149641400Y-103306035D01*
X149512828Y-103241750D01*
X150091400Y-102470321D02*
X149962828Y-102406035D01*
X149641400Y-102406035D01*
X149512828Y-102470321D01*
X149448542Y-102598892D01*
X149448542Y-102727464D01*
X149512828Y-102856035D01*
X149641400Y-102920321D01*
X149962828Y-102920321D01*
X150091400Y-102984607D01*
X150734257Y-103306035D02*
X150734257Y-102406035D01*
X150734257Y-103177464D02*
X150798542Y-103241750D01*
X150927114Y-103306035D01*
X151119971Y-103306035D01*
X151248542Y-103241750D01*
X151312828Y-103113178D01*
X151312828Y-102406035D01*
X151827114Y-103306035D02*
X152534257Y-103306035D01*
X151827114Y-102406035D01*
X152534257Y-102406035D01*
X153884257Y-103756035D02*
X154655685Y-103756035D01*
X154269971Y-102406035D02*
X154269971Y-103756035D01*
X155619971Y-102470321D02*
X155491400Y-102406035D01*
X155234257Y-102406035D01*
X155105685Y-102470321D01*
X155041400Y-102598892D01*
X155041400Y-103113178D01*
X155105685Y-103241750D01*
X155234257Y-103306035D01*
X155491400Y-103306035D01*
X155619971Y-103241750D01*
X155684257Y-103113178D01*
X155684257Y-102984607D01*
X155041400Y-102856035D01*
X156841400Y-102470321D02*
X156712828Y-102406035D01*
X156455685Y-102406035D01*
X156327114Y-102470321D01*
X156262828Y-102534607D01*
X156198542Y-102663178D01*
X156198542Y-103048892D01*
X156262828Y-103177464D01*
X156327114Y-103241750D01*
X156455685Y-103306035D01*
X156712828Y-103306035D01*
X156841400Y-103241750D01*
X157419971Y-102406035D02*
X157419971Y-103756035D01*
X157998542Y-102406035D02*
X157998542Y-103113178D01*
X157934257Y-103241750D01*
X157805685Y-103306035D01*
X157612828Y-103306035D01*
X157484257Y-103241750D01*
X157419971Y-103177464D01*
X159669971Y-102406035D02*
X159669971Y-103756035D01*
X160312828Y-103306035D02*
X160312828Y-102406035D01*
X160312828Y-103177464D02*
X160377114Y-103241750D01*
X160505685Y-103306035D01*
X160698542Y-103306035D01*
X160827114Y-103241750D01*
X160891400Y-103113178D01*
X160891400Y-102406035D01*
X162112828Y-102470321D02*
X161984257Y-102406035D01*
X161727114Y-102406035D01*
X161598542Y-102470321D01*
X161534257Y-102534607D01*
X161469971Y-102663178D01*
X161469971Y-103048892D01*
X161534257Y-103177464D01*
X161598542Y-103241750D01*
X161727114Y-103306035D01*
X161984257Y-103306035D01*
X162112828Y-103241750D01*
X163655685Y-103627464D02*
X163719971Y-103691750D01*
X163848542Y-103756035D01*
X164169971Y-103756035D01*
X164298542Y-103691750D01*
X164362828Y-103627464D01*
X164427114Y-103498892D01*
X164427114Y-103370321D01*
X164362828Y-103177464D01*
X163591400Y-102406035D01*
X164427114Y-102406035D01*
X165262828Y-103756035D02*
X165391400Y-103756035D01*
X165519971Y-103691750D01*
X165584257Y-103627464D01*
X165648542Y-103498892D01*
X165712828Y-103241750D01*
X165712828Y-102920321D01*
X165648542Y-102663178D01*
X165584257Y-102534607D01*
X165519971Y-102470321D01*
X165391400Y-102406035D01*
X165262828Y-102406035D01*
X165134257Y-102470321D01*
X165069971Y-102534607D01*
X165005685Y-102663178D01*
X164941400Y-102920321D01*
X164941400Y-103241750D01*
X165005685Y-103498892D01*
X165069971Y-103627464D01*
X165134257Y-103691750D01*
X165262828Y-103756035D01*
X166227114Y-103627464D02*
X166291400Y-103691750D01*
X166419971Y-103756035D01*
X166741400Y-103756035D01*
X166869971Y-103691750D01*
X166934257Y-103627464D01*
X166998542Y-103498892D01*
X166998542Y-103370321D01*
X166934257Y-103177464D01*
X166162828Y-102406035D01*
X166998542Y-102406035D01*
X167448542Y-103756035D02*
X168284257Y-103756035D01*
X167834257Y-103241750D01*
X168027114Y-103241750D01*
X168155685Y-103177464D01*
X168219971Y-103113178D01*
X168284257Y-102984607D01*
X168284257Y-102663178D01*
X168219971Y-102534607D01*
X168155685Y-102470321D01*
X168027114Y-102406035D01*
X167641400Y-102406035D01*
X167512828Y-102470321D01*
X167448542Y-102534607D01*
D11*
X157200790Y-100844219D02*
X157534123Y-99844219D01*
X157867457Y-100844219D01*
X158629361Y-100510885D02*
X158629361Y-99844219D01*
X158391266Y-100891838D02*
X158153171Y-100177552D01*
X158772219Y-100177552D01*
X159153171Y-99939457D02*
X159200790Y-99891838D01*
X159153171Y-99844219D01*
X159105552Y-99891838D01*
X159153171Y-99939457D01*
X159153171Y-99844219D01*
X159819838Y-100844219D02*
X159915076Y-100844219D01*
X160010314Y-100796600D01*
X160057933Y-100748980D01*
X160105552Y-100653742D01*
X160153171Y-100463266D01*
X160153171Y-100225171D01*
X160105552Y-100034695D01*
X160057933Y-99939457D01*
X160010314Y-99891838D01*
X159915076Y-99844219D01*
X159819838Y-99844219D01*
X159724600Y-99891838D01*
X159676980Y-99939457D01*
X159629361Y-100034695D01*
X159581742Y-100225171D01*
X159581742Y-100463266D01*
X159629361Y-100653742D01*
X159676980Y-100748980D01*
X159724600Y-100796600D01*
X159819838Y-100844219D01*
D12*
X118362240Y-72384761D02*
X117362240Y-72384761D01*
X118076526Y-72718095D01*
X117362240Y-73051428D01*
X118362240Y-73051428D01*
X118362240Y-73527619D02*
X117362240Y-73527619D01*
X118362240Y-74003809D02*
X117362240Y-74003809D01*
X117362240Y-74241904D01*
X117409860Y-74384761D01*
X117505098Y-74480000D01*
X117600336Y-74527619D01*
X117790812Y-74575238D01*
X117933669Y-74575238D01*
X118124145Y-74527619D01*
X118219383Y-74480000D01*
X118314621Y-74384761D01*
X118362240Y-74241904D01*
X118362240Y-74003809D01*
X118362240Y-75003809D02*
X117362240Y-75003809D01*
X118362240Y-76241904D02*
X117362240Y-76241904D01*
X117838431Y-76241904D02*
X117838431Y-76813333D01*
X118362240Y-76813333D02*
X117362240Y-76813333D01*
X117362240Y-77480000D02*
X117362240Y-77670476D01*
X117409860Y-77765714D01*
X117505098Y-77860952D01*
X117695574Y-77908571D01*
X118028907Y-77908571D01*
X118219383Y-77860952D01*
X118314621Y-77765714D01*
X118362240Y-77670476D01*
X118362240Y-77480000D01*
X118314621Y-77384761D01*
X118219383Y-77289523D01*
X118028907Y-77241904D01*
X117695574Y-77241904D01*
X117505098Y-77289523D01*
X117409860Y-77384761D01*
X117362240Y-77480000D01*
X118314621Y-78289523D02*
X118362240Y-78432380D01*
X118362240Y-78670476D01*
X118314621Y-78765714D01*
X118267002Y-78813333D01*
X118171764Y-78860952D01*
X118076526Y-78860952D01*
X117981288Y-78813333D01*
X117933669Y-78765714D01*
X117886050Y-78670476D01*
X117838431Y-78480000D01*
X117790812Y-78384761D01*
X117743193Y-78337142D01*
X117647955Y-78289523D01*
X117552717Y-78289523D01*
X117457479Y-78337142D01*
X117409860Y-78384761D01*
X117362240Y-78480000D01*
X117362240Y-78718095D01*
X117409860Y-78860952D01*
X117362240Y-79146666D02*
X117362240Y-79718095D01*
X118362240Y-79432380D02*
X117362240Y-79432380D01*
D13*
X177495257Y-74401071D02*
X177495257Y-72901071D01*
X176995257Y-73972500D01*
X176495257Y-72901071D01*
X176495257Y-74401071D01*
X175780971Y-74401071D02*
X175780971Y-72901071D01*
X175066685Y-74401071D02*
X175066685Y-72901071D01*
X174709542Y-72901071D01*
X174495257Y-72972500D01*
X174352400Y-73115357D01*
X174280971Y-73258214D01*
X174209542Y-73543928D01*
X174209542Y-73758214D01*
X174280971Y-74043928D01*
X174352400Y-74186785D01*
X174495257Y-74329642D01*
X174709542Y-74401071D01*
X175066685Y-74401071D01*
X173566685Y-74401071D02*
X173566685Y-72901071D01*
X177030971Y-75316071D02*
X176745257Y-75316071D01*
X176602400Y-75387500D01*
X176459542Y-75530357D01*
X176388114Y-75816071D01*
X176388114Y-76316071D01*
X176459542Y-76601785D01*
X176602400Y-76744642D01*
X176745257Y-76816071D01*
X177030971Y-76816071D01*
X177173828Y-76744642D01*
X177316685Y-76601785D01*
X177388114Y-76316071D01*
X177388114Y-75816071D01*
X177316685Y-75530357D01*
X177173828Y-75387500D01*
X177030971Y-75316071D01*
X175745257Y-75316071D02*
X175745257Y-76530357D01*
X175673828Y-76673214D01*
X175602400Y-76744642D01*
X175459542Y-76816071D01*
X175173828Y-76816071D01*
X175030971Y-76744642D01*
X174959542Y-76673214D01*
X174888114Y-76530357D01*
X174888114Y-75316071D01*
X174388114Y-75316071D02*
X173530971Y-75316071D01*
X173959542Y-76816071D02*
X173959542Y-75316071D01*
X170381942Y-133591371D02*
X171096228Y-133591371D01*
X171096228Y-132091371D01*
X169881942Y-133591371D02*
X169881942Y-132591371D01*
X169881942Y-132091371D02*
X169953371Y-132162800D01*
X169881942Y-132234228D01*
X169810514Y-132162800D01*
X169881942Y-132091371D01*
X169881942Y-132234228D01*
X169167657Y-132591371D02*
X169167657Y-133591371D01*
X169167657Y-132734228D02*
X169096228Y-132662800D01*
X168953371Y-132591371D01*
X168739085Y-132591371D01*
X168596228Y-132662800D01*
X168524800Y-132805657D01*
X168524800Y-133591371D01*
X167239085Y-133519942D02*
X167381942Y-133591371D01*
X167667657Y-133591371D01*
X167810514Y-133519942D01*
X167881942Y-133377085D01*
X167881942Y-132805657D01*
X167810514Y-132662800D01*
X167667657Y-132591371D01*
X167381942Y-132591371D01*
X167239085Y-132662800D01*
X167167657Y-132805657D01*
X167167657Y-132948514D01*
X167881942Y-133091371D01*
X165381942Y-133591371D02*
X165381942Y-132591371D01*
X165381942Y-132091371D02*
X165453371Y-132162800D01*
X165381942Y-132234228D01*
X165310514Y-132162800D01*
X165381942Y-132091371D01*
X165381942Y-132234228D01*
X164667657Y-132591371D02*
X164667657Y-133591371D01*
X164667657Y-132734228D02*
X164596228Y-132662800D01*
X164453371Y-132591371D01*
X164239085Y-132591371D01*
X164096228Y-132662800D01*
X164024800Y-132805657D01*
X164024800Y-133591371D01*
X161381942Y-133591371D02*
X162239085Y-133591371D01*
X161810514Y-133591371D02*
X161810514Y-132091371D01*
X161953371Y-132305657D01*
X162096228Y-132448514D01*
X162239085Y-132519942D01*
X170246228Y-124419942D02*
X170031942Y-124491371D01*
X169674800Y-124491371D01*
X169531942Y-124419942D01*
X169460514Y-124348514D01*
X169389085Y-124205657D01*
X169389085Y-124062800D01*
X169460514Y-123919942D01*
X169531942Y-123848514D01*
X169674800Y-123777085D01*
X169960514Y-123705657D01*
X170103371Y-123634228D01*
X170174800Y-123562800D01*
X170246228Y-123419942D01*
X170246228Y-123277085D01*
X170174800Y-123134228D01*
X170103371Y-123062800D01*
X169960514Y-122991371D01*
X169603371Y-122991371D01*
X169389085Y-123062800D01*
X168460514Y-123777085D02*
X168460514Y-124491371D01*
X168960514Y-122991371D02*
X168460514Y-123777085D01*
X167960514Y-122991371D01*
X167460514Y-124491371D02*
X167460514Y-122991371D01*
X166603371Y-124491371D01*
X166603371Y-122991371D01*
X165031942Y-124348514D02*
X165103371Y-124419942D01*
X165317657Y-124491371D01*
X165460514Y-124491371D01*
X165674800Y-124419942D01*
X165817657Y-124277085D01*
X165889085Y-124134228D01*
X165960514Y-123848514D01*
X165960514Y-123634228D01*
X165889085Y-123348514D01*
X165817657Y-123205657D01*
X165674800Y-123062800D01*
X165460514Y-122991371D01*
X165317657Y-122991371D01*
X165103371Y-123062800D01*
X165031942Y-123134228D01*
X162960514Y-122991371D02*
X162674800Y-122991371D01*
X162531942Y-123062800D01*
X162389085Y-123205657D01*
X162317657Y-123491371D01*
X162317657Y-123991371D01*
X162389085Y-124277085D01*
X162531942Y-124419942D01*
X162674800Y-124491371D01*
X162960514Y-124491371D01*
X163103371Y-124419942D01*
X163246228Y-124277085D01*
X163317657Y-123991371D01*
X163317657Y-123491371D01*
X163246228Y-123205657D01*
X163103371Y-123062800D01*
X162960514Y-122991371D01*
X161674800Y-122991371D02*
X161674800Y-124205657D01*
X161603371Y-124348514D01*
X161531942Y-124419942D01*
X161389085Y-124491371D01*
X161103371Y-124491371D01*
X160960514Y-124419942D01*
X160889085Y-124348514D01*
X160817657Y-124205657D01*
X160817657Y-122991371D01*
X160317657Y-122991371D02*
X159460514Y-122991371D01*
X159889085Y-124491371D02*
X159889085Y-122991371D01*
D12*
X133950990Y-68725180D02*
X133950990Y-67725180D01*
X133570038Y-67725180D01*
X133474800Y-67772800D01*
X133427180Y-67820419D01*
X133379561Y-67915657D01*
X133379561Y-68058514D01*
X133427180Y-68153752D01*
X133474800Y-68201371D01*
X133570038Y-68248990D01*
X133950990Y-68248990D01*
X132808133Y-68725180D02*
X132903371Y-68677561D01*
X132950990Y-68629942D01*
X132998609Y-68534704D01*
X132998609Y-68248990D01*
X132950990Y-68153752D01*
X132903371Y-68106133D01*
X132808133Y-68058514D01*
X132665276Y-68058514D01*
X132570038Y-68106133D01*
X132522419Y-68153752D01*
X132474800Y-68248990D01*
X132474800Y-68534704D01*
X132522419Y-68629942D01*
X132570038Y-68677561D01*
X132665276Y-68725180D01*
X132808133Y-68725180D01*
X132141466Y-68058514D02*
X131950990Y-68725180D01*
X131760514Y-68248990D01*
X131570038Y-68725180D01*
X131379561Y-68058514D01*
X130617657Y-68677561D02*
X130712895Y-68725180D01*
X130903371Y-68725180D01*
X130998609Y-68677561D01*
X131046228Y-68582323D01*
X131046228Y-68201371D01*
X130998609Y-68106133D01*
X130903371Y-68058514D01*
X130712895Y-68058514D01*
X130617657Y-68106133D01*
X130570038Y-68201371D01*
X130570038Y-68296609D01*
X131046228Y-68391847D01*
X130141466Y-68725180D02*
X130141466Y-68058514D01*
X130141466Y-68248990D02*
X130093847Y-68153752D01*
X130046228Y-68106133D01*
X129950990Y-68058514D01*
X129855752Y-68058514D01*
X136070038Y-70335180D02*
X136070038Y-69335180D01*
X135736704Y-70049466D01*
X135403371Y-69335180D01*
X135403371Y-70335180D01*
X134927180Y-70335180D02*
X134927180Y-69335180D01*
X134450990Y-70335180D02*
X134450990Y-69335180D01*
X134212895Y-69335180D01*
X134070038Y-69382800D01*
X133974800Y-69478038D01*
X133927180Y-69573276D01*
X133879561Y-69763752D01*
X133879561Y-69906609D01*
X133927180Y-70097085D01*
X133974800Y-70192323D01*
X134070038Y-70287561D01*
X134212895Y-70335180D01*
X134450990Y-70335180D01*
X133450990Y-70335180D02*
X133450990Y-69335180D01*
X132212895Y-70335180D02*
X132212895Y-69335180D01*
X131974800Y-69335180D01*
X131831942Y-69382800D01*
X131736704Y-69478038D01*
X131689085Y-69573276D01*
X131641466Y-69763752D01*
X131641466Y-69906609D01*
X131689085Y-70097085D01*
X131736704Y-70192323D01*
X131831942Y-70287561D01*
X131974800Y-70335180D01*
X132212895Y-70335180D01*
X130831942Y-70287561D02*
X130927180Y-70335180D01*
X131117657Y-70335180D01*
X131212895Y-70287561D01*
X131260514Y-70192323D01*
X131260514Y-69811371D01*
X131212895Y-69716133D01*
X131117657Y-69668514D01*
X130927180Y-69668514D01*
X130831942Y-69716133D01*
X130784323Y-69811371D01*
X130784323Y-69906609D01*
X131260514Y-70001847D01*
X130450990Y-69668514D02*
X130212895Y-70335180D01*
X129974800Y-69668514D01*
X129593847Y-70335180D02*
X129593847Y-69668514D01*
X129593847Y-69335180D02*
X129641466Y-69382800D01*
X129593847Y-69430419D01*
X129546228Y-69382800D01*
X129593847Y-69335180D01*
X129593847Y-69430419D01*
X128689085Y-70287561D02*
X128784323Y-70335180D01*
X128974800Y-70335180D01*
X129070038Y-70287561D01*
X129117657Y-70239942D01*
X129165276Y-70144704D01*
X129165276Y-69858990D01*
X129117657Y-69763752D01*
X129070038Y-69716133D01*
X128974800Y-69668514D01*
X128784323Y-69668514D01*
X128689085Y-69716133D01*
X127879561Y-70287561D02*
X127974800Y-70335180D01*
X128165276Y-70335180D01*
X128260514Y-70287561D01*
X128308133Y-70192323D01*
X128308133Y-69811371D01*
X128260514Y-69716133D01*
X128165276Y-69668514D01*
X127974800Y-69668514D01*
X127879561Y-69716133D01*
X127831942Y-69811371D01*
X127831942Y-69906609D01*
X128308133Y-70001847D01*
X133236704Y-70945180D02*
X133236704Y-71754704D01*
X133189085Y-71849942D01*
X133141466Y-71897561D01*
X133046228Y-71945180D01*
X132855752Y-71945180D01*
X132760514Y-71897561D01*
X132712895Y-71849942D01*
X132665276Y-71754704D01*
X132665276Y-70945180D01*
X132236704Y-71897561D02*
X132093847Y-71945180D01*
X131855752Y-71945180D01*
X131760514Y-71897561D01*
X131712895Y-71849942D01*
X131665276Y-71754704D01*
X131665276Y-71659466D01*
X131712895Y-71564228D01*
X131760514Y-71516609D01*
X131855752Y-71468990D01*
X132046228Y-71421371D01*
X132141466Y-71373752D01*
X132189085Y-71326133D01*
X132236704Y-71230895D01*
X132236704Y-71135657D01*
X132189085Y-71040419D01*
X132141466Y-70992800D01*
X132046228Y-70945180D01*
X131808133Y-70945180D01*
X131665276Y-70992800D01*
X130903371Y-71421371D02*
X130760514Y-71468990D01*
X130712895Y-71516609D01*
X130665276Y-71611847D01*
X130665276Y-71754704D01*
X130712895Y-71849942D01*
X130760514Y-71897561D01*
X130855752Y-71945180D01*
X131236704Y-71945180D01*
X131236704Y-70945180D01*
X130903371Y-70945180D01*
X130808133Y-70992800D01*
X130760514Y-71040419D01*
X130712895Y-71135657D01*
X130712895Y-71230895D01*
X130760514Y-71326133D01*
X130808133Y-71373752D01*
X130903371Y-71421371D01*
X131236704Y-71421371D01*
D13*
X139000514Y-133341371D02*
X139714800Y-133341371D01*
X139714800Y-131841371D01*
X138500514Y-133341371D02*
X138500514Y-132341371D01*
X138500514Y-131841371D02*
X138571942Y-131912800D01*
X138500514Y-131984228D01*
X138429085Y-131912800D01*
X138500514Y-131841371D01*
X138500514Y-131984228D01*
X137786228Y-132341371D02*
X137786228Y-133341371D01*
X137786228Y-132484228D02*
X137714800Y-132412800D01*
X137571942Y-132341371D01*
X137357657Y-132341371D01*
X137214800Y-132412800D01*
X137143371Y-132555657D01*
X137143371Y-133341371D01*
X135857657Y-133269942D02*
X136000514Y-133341371D01*
X136286228Y-133341371D01*
X136429085Y-133269942D01*
X136500514Y-133127085D01*
X136500514Y-132555657D01*
X136429085Y-132412800D01*
X136286228Y-132341371D01*
X136000514Y-132341371D01*
X135857657Y-132412800D01*
X135786228Y-132555657D01*
X135786228Y-132698514D01*
X136500514Y-132841371D01*
X135143371Y-132769942D02*
X134000514Y-132769942D01*
X133000514Y-131841371D02*
X132714800Y-131841371D01*
X132571942Y-131912800D01*
X132429085Y-132055657D01*
X132357657Y-132341371D01*
X132357657Y-132841371D01*
X132429085Y-133127085D01*
X132571942Y-133269942D01*
X132714800Y-133341371D01*
X133000514Y-133341371D01*
X133143371Y-133269942D01*
X133286228Y-133127085D01*
X133357657Y-132841371D01*
X133357657Y-132341371D01*
X133286228Y-132055657D01*
X133143371Y-131912800D01*
X133000514Y-131841371D01*
X131071942Y-132341371D02*
X131071942Y-133341371D01*
X131714800Y-132341371D02*
X131714800Y-133127085D01*
X131643371Y-133269942D01*
X131500514Y-133341371D01*
X131286228Y-133341371D01*
X131143371Y-133269942D01*
X131071942Y-133198514D01*
X130571942Y-132341371D02*
X130000514Y-132341371D01*
X130357657Y-131841371D02*
X130357657Y-133127085D01*
X130286228Y-133269942D01*
X130143371Y-133341371D01*
X130000514Y-133341371D01*
X154916685Y-74351071D02*
X154916685Y-72851071D01*
X154416685Y-73922500D01*
X153916685Y-72851071D01*
X153916685Y-74351071D01*
X153202400Y-74351071D02*
X153202400Y-72851071D01*
X152488114Y-74351071D02*
X152488114Y-72851071D01*
X152130971Y-72851071D01*
X151916685Y-72922500D01*
X151773828Y-73065357D01*
X151702400Y-73208214D01*
X151630971Y-73493928D01*
X151630971Y-73708214D01*
X151702400Y-73993928D01*
X151773828Y-74136785D01*
X151916685Y-74279642D01*
X152130971Y-74351071D01*
X152488114Y-74351071D01*
X150988114Y-74351071D02*
X150988114Y-72851071D01*
X153738114Y-76766071D02*
X153738114Y-75266071D01*
X153023828Y-76766071D02*
X153023828Y-75266071D01*
X152166685Y-76766071D01*
X152166685Y-75266071D01*
D10*
X153206209Y-80743809D02*
X153158590Y-80791428D01*
X153063352Y-80839047D01*
X152968114Y-80839047D01*
X152872876Y-80791428D01*
X152825257Y-80743809D01*
X152777638Y-80648571D01*
X152777638Y-80553333D01*
X152825257Y-80458095D01*
X152872876Y-80410476D01*
X152968114Y-80362857D01*
X153063352Y-80362857D01*
X153158590Y-80410476D01*
X153206209Y-80458095D01*
X153206209Y-80839047D02*
X153206209Y-80458095D01*
X153253828Y-80410476D01*
X153301447Y-80410476D01*
X153396685Y-80458095D01*
X153444304Y-80553333D01*
X153444304Y-80791428D01*
X153349066Y-80934285D01*
X153206209Y-81029523D01*
X153015733Y-81077142D01*
X152825257Y-81029523D01*
X152682400Y-80934285D01*
X152587161Y-80791428D01*
X152539542Y-80600952D01*
X152587161Y-80410476D01*
X152682400Y-80267619D01*
X152825257Y-80172380D01*
X153015733Y-80124761D01*
X153206209Y-80172380D01*
X153349066Y-80267619D01*
X153872876Y-80267619D02*
X153872876Y-81267619D01*
X154301447Y-80267619D02*
X154301447Y-80791428D01*
X154253828Y-80886666D01*
X154158590Y-80934285D01*
X154015733Y-80934285D01*
X153920495Y-80886666D01*
X153872876Y-80839047D01*
X155206209Y-80267619D02*
X155206209Y-80791428D01*
X155158590Y-80886666D01*
X155063352Y-80934285D01*
X154872876Y-80934285D01*
X154777638Y-80886666D01*
X155206209Y-80315238D02*
X155110971Y-80267619D01*
X154872876Y-80267619D01*
X154777638Y-80315238D01*
X154730019Y-80410476D01*
X154730019Y-80505714D01*
X154777638Y-80600952D01*
X154872876Y-80648571D01*
X155110971Y-80648571D01*
X155206209Y-80696190D01*
X155682400Y-80934285D02*
X155682400Y-80267619D01*
X155682400Y-80839047D02*
X155730019Y-80886666D01*
X155825257Y-80934285D01*
X155968114Y-80934285D01*
X156063352Y-80886666D01*
X156110971Y-80791428D01*
X156110971Y-80267619D01*
X156491923Y-80934285D02*
X157015733Y-80934285D01*
X156491923Y-80267619D01*
X157015733Y-80267619D01*
X157158590Y-80172380D02*
X157920495Y-80172380D01*
X158015733Y-80934285D02*
X158396685Y-80934285D01*
X158158590Y-81267619D02*
X158158590Y-80410476D01*
X158206209Y-80315238D01*
X158301447Y-80267619D01*
X158396685Y-80267619D01*
X159110971Y-80315238D02*
X159015733Y-80267619D01*
X158825257Y-80267619D01*
X158730019Y-80315238D01*
X158682400Y-80410476D01*
X158682400Y-80791428D01*
X158730019Y-80886666D01*
X158825257Y-80934285D01*
X159015733Y-80934285D01*
X159110971Y-80886666D01*
X159158590Y-80791428D01*
X159158590Y-80696190D01*
X158682400Y-80600952D01*
X160015733Y-80315238D02*
X159920495Y-80267619D01*
X159730019Y-80267619D01*
X159634780Y-80315238D01*
X159587161Y-80362857D01*
X159539542Y-80458095D01*
X159539542Y-80743809D01*
X159587161Y-80839047D01*
X159634780Y-80886666D01*
X159730019Y-80934285D01*
X159920495Y-80934285D01*
X160015733Y-80886666D01*
X160444304Y-80267619D02*
X160444304Y-81267619D01*
X160872876Y-80267619D02*
X160872876Y-80791428D01*
X160825257Y-80886666D01*
X160730019Y-80934285D01*
X160587161Y-80934285D01*
X160491923Y-80886666D01*
X160444304Y-80839047D01*
X161349066Y-80934285D02*
X161349066Y-80267619D01*
X161349066Y-80839047D02*
X161396685Y-80886666D01*
X161491923Y-80934285D01*
X161634780Y-80934285D01*
X161730019Y-80886666D01*
X161777638Y-80791428D01*
X161777638Y-80267619D01*
X162396685Y-80267619D02*
X162301447Y-80315238D01*
X162253828Y-80362857D01*
X162206209Y-80458095D01*
X162206209Y-80743809D01*
X162253828Y-80839047D01*
X162301447Y-80886666D01*
X162396685Y-80934285D01*
X162539542Y-80934285D01*
X162634780Y-80886666D01*
X162682400Y-80839047D01*
X162730019Y-80743809D01*
X162730019Y-80458095D01*
X162682400Y-80362857D01*
X162634780Y-80315238D01*
X162539542Y-80267619D01*
X162396685Y-80267619D01*
X163301447Y-80267619D02*
X163206209Y-80315238D01*
X163158590Y-80410476D01*
X163158590Y-81267619D01*
X163825257Y-80267619D02*
X163730019Y-80315238D01*
X163682400Y-80362857D01*
X163634780Y-80458095D01*
X163634780Y-80743809D01*
X163682400Y-80839047D01*
X163730019Y-80886666D01*
X163825257Y-80934285D01*
X163968114Y-80934285D01*
X164063352Y-80886666D01*
X164110971Y-80839047D01*
X164158590Y-80743809D01*
X164158590Y-80458095D01*
X164110971Y-80362857D01*
X164063352Y-80315238D01*
X163968114Y-80267619D01*
X163825257Y-80267619D01*
X165015733Y-80934285D02*
X165015733Y-80124761D01*
X164968114Y-80029523D01*
X164920495Y-79981904D01*
X164825257Y-79934285D01*
X164682400Y-79934285D01*
X164587161Y-79981904D01*
X165015733Y-80315238D02*
X164920495Y-80267619D01*
X164730019Y-80267619D01*
X164634780Y-80315238D01*
X164587161Y-80362857D01*
X164539542Y-80458095D01*
X164539542Y-80743809D01*
X164587161Y-80839047D01*
X164634780Y-80886666D01*
X164730019Y-80934285D01*
X164920495Y-80934285D01*
X165015733Y-80886666D01*
X165396685Y-80934285D02*
X165634780Y-80267619D01*
X165872876Y-80934285D02*
X165634780Y-80267619D01*
X165539542Y-80029523D01*
X165491923Y-79981904D01*
X165396685Y-79934285D01*
D11*
%TO.C,UNK1*%
X149684884Y-130377334D02*
X150257303Y-129804914D01*
X150358319Y-129771242D01*
X150425662Y-129771242D01*
X150526677Y-129804914D01*
X150661364Y-129939601D01*
X150695036Y-130040616D01*
X150695036Y-130107960D01*
X150661364Y-130208975D01*
X150088945Y-130781395D01*
X151132769Y-130411006D02*
X150425662Y-131118112D01*
X151536830Y-130815067D01*
X150829723Y-131522174D01*
X151873548Y-131151784D02*
X151166441Y-131858891D01*
X152277609Y-131555845D02*
X151570502Y-131656861D01*
X151570502Y-132262952D02*
X151570502Y-131454830D01*
X152951044Y-132229280D02*
X152546983Y-131825219D01*
X152749013Y-132027250D02*
X152041906Y-132734357D01*
X152075578Y-132565998D01*
X152075578Y-132431311D01*
X152041906Y-132330296D01*
D14*
%TO.C,R22*%
X157187455Y-127595574D02*
X156901245Y-127646082D01*
X156985424Y-127393544D02*
X156631871Y-127747097D01*
X156766558Y-127881784D01*
X156817066Y-127898620D01*
X156850737Y-127898620D01*
X156901245Y-127881784D01*
X156951753Y-127831277D01*
X156968589Y-127780769D01*
X156968589Y-127747097D01*
X156951753Y-127696590D01*
X156817066Y-127561903D01*
X157002260Y-128050143D02*
X157002260Y-128083815D01*
X157019096Y-128134322D01*
X157103276Y-128218502D01*
X157153783Y-128235338D01*
X157187455Y-128235338D01*
X157237963Y-128218502D01*
X157271634Y-128184830D01*
X157305306Y-128117487D01*
X157305306Y-127713425D01*
X157524173Y-127932292D01*
X157338978Y-128386861D02*
X157338978Y-128420532D01*
X157355814Y-128471040D01*
X157439993Y-128555219D01*
X157490501Y-128572055D01*
X157524173Y-128572055D01*
X157574680Y-128555219D01*
X157608352Y-128521548D01*
X157642024Y-128454204D01*
X157642024Y-128050143D01*
X157860890Y-128269009D01*
%TO.C,R25*%
X157323273Y-121434208D02*
X157272765Y-121147998D01*
X157525303Y-121232177D02*
X157171750Y-120878624D01*
X157037063Y-121013311D01*
X157020227Y-121063819D01*
X157020227Y-121097490D01*
X157037063Y-121147998D01*
X157087570Y-121198506D01*
X157138078Y-121215342D01*
X157171750Y-121215342D01*
X157222257Y-121198506D01*
X157356944Y-121063819D01*
X156868704Y-121249013D02*
X156835032Y-121249013D01*
X156784525Y-121265849D01*
X156700345Y-121350029D01*
X156683509Y-121400536D01*
X156683509Y-121434208D01*
X156700345Y-121484716D01*
X156734017Y-121518387D01*
X156801360Y-121552059D01*
X157205422Y-121552059D01*
X156986555Y-121770926D01*
X156313120Y-121737254D02*
X156481479Y-121568895D01*
X156666673Y-121720418D01*
X156633002Y-121720418D01*
X156582494Y-121737254D01*
X156498315Y-121821433D01*
X156481479Y-121871941D01*
X156481479Y-121905613D01*
X156498315Y-121956120D01*
X156582494Y-122040300D01*
X156633002Y-122057135D01*
X156666673Y-122057135D01*
X156717181Y-122040300D01*
X156801360Y-121956120D01*
X156818196Y-121905613D01*
X156818196Y-121871941D01*
%TO.C,R26*%
X151138856Y-128669974D02*
X150852646Y-128720482D01*
X150936825Y-128467944D02*
X150583272Y-128821497D01*
X150717959Y-128956184D01*
X150768467Y-128973020D01*
X150802138Y-128973020D01*
X150852646Y-128956184D01*
X150903154Y-128905677D01*
X150919990Y-128855169D01*
X150919990Y-128821497D01*
X150903154Y-128770990D01*
X150768467Y-128636303D01*
X150953661Y-129124543D02*
X150953661Y-129158215D01*
X150970497Y-129208722D01*
X151054677Y-129292902D01*
X151105184Y-129309738D01*
X151138856Y-129309738D01*
X151189364Y-129292902D01*
X151223035Y-129259230D01*
X151256707Y-129191887D01*
X151256707Y-128787825D01*
X151475574Y-129006692D01*
X151425066Y-129663291D02*
X151357722Y-129595948D01*
X151340887Y-129545440D01*
X151340887Y-129511768D01*
X151357722Y-129427589D01*
X151408230Y-129343409D01*
X151542917Y-129208722D01*
X151593425Y-129191887D01*
X151627096Y-129191887D01*
X151677604Y-129208722D01*
X151744948Y-129276066D01*
X151761783Y-129326574D01*
X151761783Y-129360245D01*
X151744948Y-129410753D01*
X151660768Y-129494932D01*
X151610261Y-129511768D01*
X151576589Y-129511768D01*
X151526081Y-129494932D01*
X151458738Y-129427589D01*
X151441902Y-129377081D01*
X151441902Y-129343409D01*
X151458738Y-129292902D01*
D11*
%TO.C,C28*%
X150638957Y-124226003D02*
X150638957Y-124158659D01*
X150571613Y-124023972D01*
X150504270Y-123956629D01*
X150369583Y-123889285D01*
X150234896Y-123889285D01*
X150133881Y-123922957D01*
X149965522Y-124023972D01*
X149864507Y-124124987D01*
X149763491Y-124293346D01*
X149729820Y-124394361D01*
X149729820Y-124529048D01*
X149797163Y-124663735D01*
X149864507Y-124731079D01*
X149999194Y-124798422D01*
X150066537Y-124798422D01*
X150335911Y-125067797D02*
X150335911Y-125135140D01*
X150369583Y-125236155D01*
X150537942Y-125404514D01*
X150638957Y-125438186D01*
X150706300Y-125438186D01*
X150807316Y-125404514D01*
X150874659Y-125337171D01*
X150942003Y-125202484D01*
X150942003Y-124394361D01*
X151379736Y-124832094D01*
X151379736Y-125640216D02*
X151278720Y-125606545D01*
X151211377Y-125606545D01*
X151110362Y-125640216D01*
X151076690Y-125673888D01*
X151043018Y-125774903D01*
X151043018Y-125842247D01*
X151076690Y-125943262D01*
X151211377Y-126077949D01*
X151312392Y-126111621D01*
X151379736Y-126111621D01*
X151480751Y-126077949D01*
X151514423Y-126044277D01*
X151548094Y-125943262D01*
X151548094Y-125875919D01*
X151514423Y-125774903D01*
X151379736Y-125640216D01*
X151346064Y-125539201D01*
X151346064Y-125471858D01*
X151379736Y-125370842D01*
X151514423Y-125236155D01*
X151615438Y-125202484D01*
X151682781Y-125202484D01*
X151783797Y-125236155D01*
X151918484Y-125370842D01*
X151952155Y-125471858D01*
X151952155Y-125539201D01*
X151918484Y-125640216D01*
X151783797Y-125774903D01*
X151682781Y-125808575D01*
X151615438Y-125808575D01*
X151514423Y-125774903D01*
D14*
%TO.C,R23*%
X160649964Y-129282147D02*
X160599456Y-128995937D01*
X160851994Y-129080116D02*
X160498441Y-128726563D01*
X160363754Y-128861250D01*
X160346918Y-128911758D01*
X160346918Y-128945429D01*
X160363754Y-128995937D01*
X160414261Y-129046445D01*
X160464769Y-129063281D01*
X160498441Y-129063281D01*
X160548948Y-129046445D01*
X160683635Y-128911758D01*
X160195395Y-129096952D02*
X160161723Y-129096952D01*
X160111216Y-129113788D01*
X160027036Y-129197968D01*
X160010200Y-129248475D01*
X160010200Y-129282147D01*
X160027036Y-129332655D01*
X160060708Y-129366326D01*
X160128051Y-129399998D01*
X160532113Y-129399998D01*
X160313246Y-129618865D01*
X159841842Y-129383162D02*
X159622975Y-129602029D01*
X159875513Y-129618865D01*
X159825006Y-129669372D01*
X159808170Y-129719880D01*
X159808170Y-129753552D01*
X159825006Y-129804059D01*
X159909185Y-129888239D01*
X159959693Y-129905074D01*
X159993364Y-129905074D01*
X160043872Y-129888239D01*
X160144887Y-129787223D01*
X160161723Y-129736716D01*
X160161723Y-129703044D01*
D15*
%TO.C,C18*%
X157703784Y-123339246D02*
X157703784Y-123305574D01*
X157670112Y-123238231D01*
X157636441Y-123204559D01*
X157569097Y-123170887D01*
X157501754Y-123170887D01*
X157451246Y-123187723D01*
X157367067Y-123238231D01*
X157316559Y-123288738D01*
X157266051Y-123372918D01*
X157249216Y-123423425D01*
X157249216Y-123490769D01*
X157282887Y-123558112D01*
X157316559Y-123591784D01*
X157383903Y-123625456D01*
X157417574Y-123625456D01*
X158074174Y-123642292D02*
X157872143Y-123440261D01*
X157973158Y-123541277D02*
X157619605Y-123894830D01*
X157636441Y-123810651D01*
X157636441Y-123743307D01*
X157619605Y-123692800D01*
X158074174Y-124046353D02*
X158023666Y-124029517D01*
X157989994Y-124029517D01*
X157939487Y-124046353D01*
X157922651Y-124063189D01*
X157905815Y-124113696D01*
X157905815Y-124147368D01*
X157922651Y-124197876D01*
X157989994Y-124265219D01*
X158040502Y-124282055D01*
X158074174Y-124282055D01*
X158124681Y-124265219D01*
X158141517Y-124248383D01*
X158158353Y-124197876D01*
X158158353Y-124164204D01*
X158141517Y-124113696D01*
X158074174Y-124046353D01*
X158057338Y-123995845D01*
X158057338Y-123962174D01*
X158074174Y-123911666D01*
X158141517Y-123844322D01*
X158192025Y-123827487D01*
X158225696Y-123827487D01*
X158276204Y-123844322D01*
X158343548Y-123911666D01*
X158360383Y-123962174D01*
X158360383Y-123995845D01*
X158343548Y-124046353D01*
X158276204Y-124113696D01*
X158225696Y-124130532D01*
X158192025Y-124130532D01*
X158141517Y-124113696D01*
D16*
%TO.C,J0*%
X183243820Y-123777873D02*
X183528663Y-123777873D01*
X183585631Y-123758883D01*
X183623610Y-123720904D01*
X183642600Y-123663936D01*
X183642600Y-123625957D01*
X183243820Y-124043726D02*
X183243820Y-124081705D01*
X183262810Y-124119684D01*
X183281799Y-124138674D01*
X183319778Y-124157663D01*
X183395736Y-124176653D01*
X183490684Y-124176653D01*
X183566642Y-124157663D01*
X183604621Y-124138674D01*
X183623610Y-124119684D01*
X183642600Y-124081705D01*
X183642600Y-124043726D01*
X183623610Y-124005747D01*
X183604621Y-123986758D01*
X183566642Y-123967768D01*
X183490684Y-123948779D01*
X183395736Y-123948779D01*
X183319778Y-123967768D01*
X183281799Y-123986758D01*
X183262810Y-124005747D01*
X183243820Y-124043726D01*
%TO.C,J83*%
X116325420Y-132249578D02*
X116610263Y-132249578D01*
X116667231Y-132230588D01*
X116705210Y-132192609D01*
X116724200Y-132135640D01*
X116724200Y-132097661D01*
X116496326Y-132496441D02*
X116477336Y-132458462D01*
X116458347Y-132439473D01*
X116420368Y-132420483D01*
X116401378Y-132420483D01*
X116363399Y-132439473D01*
X116344410Y-132458462D01*
X116325420Y-132496441D01*
X116325420Y-132572400D01*
X116344410Y-132610379D01*
X116363399Y-132629368D01*
X116401378Y-132648358D01*
X116420368Y-132648358D01*
X116458347Y-132629368D01*
X116477336Y-132610379D01*
X116496326Y-132572400D01*
X116496326Y-132496441D01*
X116515315Y-132458462D01*
X116534305Y-132439473D01*
X116572284Y-132420483D01*
X116648242Y-132420483D01*
X116686221Y-132439473D01*
X116705210Y-132458462D01*
X116724200Y-132496441D01*
X116724200Y-132572400D01*
X116705210Y-132610379D01*
X116686221Y-132629368D01*
X116648242Y-132648358D01*
X116572284Y-132648358D01*
X116534305Y-132629368D01*
X116515315Y-132610379D01*
X116496326Y-132572400D01*
X116325420Y-132781284D02*
X116325420Y-133028148D01*
X116477336Y-132895221D01*
X116477336Y-132952190D01*
X116496326Y-132990169D01*
X116515315Y-133009159D01*
X116553294Y-133028148D01*
X116648242Y-133028148D01*
X116686221Y-133009159D01*
X116705210Y-132990169D01*
X116724200Y-132952190D01*
X116724200Y-132838253D01*
X116705210Y-132800274D01*
X116686221Y-132781284D01*
D14*
%TO.C,R24*%
X153390777Y-123856704D02*
X153340269Y-123570494D01*
X153592807Y-123654673D02*
X153239254Y-123301120D01*
X153104567Y-123435807D01*
X153087731Y-123486315D01*
X153087731Y-123519986D01*
X153104567Y-123570494D01*
X153155074Y-123621002D01*
X153205582Y-123637838D01*
X153239254Y-123637838D01*
X153289761Y-123621002D01*
X153424448Y-123486315D01*
X152936208Y-123671509D02*
X152902536Y-123671509D01*
X152852029Y-123688345D01*
X152767849Y-123772525D01*
X152751013Y-123823032D01*
X152751013Y-123856704D01*
X152767849Y-123907212D01*
X152801521Y-123940883D01*
X152868864Y-123974555D01*
X153272926Y-123974555D01*
X153054059Y-124193422D01*
X152515311Y-124260765D02*
X152751013Y-124496467D01*
X152464803Y-124041899D02*
X152801521Y-124210257D01*
X152582655Y-124429124D01*
D15*
%TO.C,C19*%
X154443784Y-126439246D02*
X154443784Y-126405574D01*
X154410112Y-126338231D01*
X154376441Y-126304559D01*
X154309097Y-126270887D01*
X154241754Y-126270887D01*
X154191246Y-126287723D01*
X154107067Y-126338231D01*
X154056559Y-126388738D01*
X154006051Y-126472918D01*
X153989216Y-126523425D01*
X153989216Y-126590769D01*
X154022887Y-126658112D01*
X154056559Y-126691784D01*
X154123903Y-126725456D01*
X154157574Y-126725456D01*
X154814174Y-126742292D02*
X154612143Y-126540261D01*
X154713158Y-126641277D02*
X154359605Y-126994830D01*
X154376441Y-126910651D01*
X154376441Y-126843307D01*
X154359605Y-126792800D01*
X154982532Y-126910651D02*
X155049876Y-126977994D01*
X155066712Y-127028502D01*
X155066712Y-127062174D01*
X155049876Y-127146353D01*
X154999368Y-127230532D01*
X154864681Y-127365219D01*
X154814174Y-127382055D01*
X154780502Y-127382055D01*
X154729994Y-127365219D01*
X154662651Y-127297876D01*
X154645815Y-127247368D01*
X154645815Y-127213696D01*
X154662651Y-127163189D01*
X154746830Y-127079009D01*
X154797338Y-127062174D01*
X154831009Y-127062174D01*
X154881517Y-127079009D01*
X154948861Y-127146353D01*
X154965696Y-127196861D01*
X154965696Y-127230532D01*
X154948861Y-127281040D01*
D11*
%TO.C,C29*%
X146563079Y-128451881D02*
X146563079Y-128384537D01*
X146495735Y-128249850D01*
X146428392Y-128182507D01*
X146293705Y-128115163D01*
X146159018Y-128115163D01*
X146058003Y-128148835D01*
X145889644Y-128249850D01*
X145788629Y-128350865D01*
X145687613Y-128519224D01*
X145653942Y-128620239D01*
X145653942Y-128754926D01*
X145721285Y-128889613D01*
X145788629Y-128956957D01*
X145923316Y-129024300D01*
X145990659Y-129024300D01*
X146260033Y-129293675D02*
X146260033Y-129361018D01*
X146293705Y-129462033D01*
X146462064Y-129630392D01*
X146563079Y-129664064D01*
X146630422Y-129664064D01*
X146731438Y-129630392D01*
X146798781Y-129563049D01*
X146866125Y-129428362D01*
X146866125Y-128620239D01*
X147303858Y-129057972D01*
X147640575Y-129394690D02*
X147775262Y-129529377D01*
X147808934Y-129630392D01*
X147808934Y-129697736D01*
X147775262Y-129866094D01*
X147674247Y-130034453D01*
X147404873Y-130303827D01*
X147303858Y-130337499D01*
X147236514Y-130337499D01*
X147135499Y-130303827D01*
X147000812Y-130169140D01*
X146967140Y-130068125D01*
X146967140Y-130000781D01*
X147000812Y-129899766D01*
X147169171Y-129731407D01*
X147270186Y-129697736D01*
X147337529Y-129697736D01*
X147438545Y-129731407D01*
X147573232Y-129866094D01*
X147606903Y-129967110D01*
X147606903Y-130034453D01*
X147573232Y-130135468D01*
D14*
%TO.C,C17*%
X154940584Y-127890846D02*
X154940584Y-127857174D01*
X154906912Y-127789831D01*
X154873241Y-127756159D01*
X154805897Y-127722487D01*
X154738554Y-127722487D01*
X154688046Y-127739323D01*
X154603867Y-127789831D01*
X154553359Y-127840338D01*
X154502851Y-127924518D01*
X154486016Y-127975025D01*
X154486016Y-128042369D01*
X154519687Y-128109712D01*
X154553359Y-128143384D01*
X154620703Y-128177056D01*
X154654374Y-128177056D01*
X155310974Y-128193892D02*
X155108943Y-127991861D01*
X155209958Y-128092877D02*
X154856405Y-128446430D01*
X154873241Y-128362251D01*
X154873241Y-128294907D01*
X154856405Y-128244400D01*
X155075271Y-128665296D02*
X155310974Y-128900999D01*
X155513004Y-128395922D01*
D16*
%TO.C,J1*%
X183850220Y-132869673D02*
X184135063Y-132869673D01*
X184192031Y-132850683D01*
X184230010Y-132812704D01*
X184249000Y-132755736D01*
X184249000Y-132717757D01*
X184249000Y-133268453D02*
X184249000Y-133040579D01*
X184249000Y-133154516D02*
X183850220Y-133154516D01*
X183907189Y-133116537D01*
X183945168Y-133078558D01*
X183964157Y-133040579D01*
%TO.C,J82*%
X153425221Y-63911620D02*
X153425221Y-64196463D01*
X153444211Y-64253431D01*
X153482190Y-64291410D01*
X153539159Y-64310400D01*
X153577138Y-64310400D01*
X153178358Y-64082526D02*
X153216337Y-64063536D01*
X153235326Y-64044547D01*
X153254316Y-64006568D01*
X153254316Y-63987578D01*
X153235326Y-63949599D01*
X153216337Y-63930610D01*
X153178358Y-63911620D01*
X153102400Y-63911620D01*
X153064420Y-63930610D01*
X153045431Y-63949599D01*
X153026441Y-63987578D01*
X153026441Y-64006568D01*
X153045431Y-64044547D01*
X153064420Y-64063536D01*
X153102400Y-64082526D01*
X153178358Y-64082526D01*
X153216337Y-64101515D01*
X153235326Y-64120505D01*
X153254316Y-64158484D01*
X153254316Y-64234442D01*
X153235326Y-64272421D01*
X153216337Y-64291410D01*
X153178358Y-64310400D01*
X153102400Y-64310400D01*
X153064420Y-64291410D01*
X153045431Y-64272421D01*
X153026441Y-64234442D01*
X153026441Y-64158484D01*
X153045431Y-64120505D01*
X153064420Y-64101515D01*
X153102400Y-64082526D01*
X152874525Y-63949599D02*
X152855536Y-63930610D01*
X152817557Y-63911620D01*
X152722609Y-63911620D01*
X152684630Y-63930610D01*
X152665640Y-63949599D01*
X152646651Y-63987578D01*
X152646651Y-64025557D01*
X152665640Y-64082526D01*
X152893515Y-64310400D01*
X152646651Y-64310400D01*
D14*
%TO.C,R27*%
X153429042Y-126333174D02*
X153142832Y-126383682D01*
X153227011Y-126131144D02*
X152873458Y-126484697D01*
X153008145Y-126619384D01*
X153058653Y-126636220D01*
X153092324Y-126636220D01*
X153142832Y-126619384D01*
X153193340Y-126568877D01*
X153210176Y-126518369D01*
X153210176Y-126484697D01*
X153193340Y-126434190D01*
X153058653Y-126299503D01*
X153243847Y-126787743D02*
X153243847Y-126821415D01*
X153260683Y-126871922D01*
X153344863Y-126956102D01*
X153395370Y-126972938D01*
X153429042Y-126972938D01*
X153479550Y-126956102D01*
X153513221Y-126922430D01*
X153546893Y-126855087D01*
X153546893Y-126451025D01*
X153765760Y-126669892D01*
X153530057Y-127141296D02*
X153765760Y-127376999D01*
X153967790Y-126871922D01*
%TO.C,C16*%
X152603784Y-130202246D02*
X152603784Y-130168574D01*
X152570112Y-130101231D01*
X152536441Y-130067559D01*
X152469097Y-130033887D01*
X152401754Y-130033887D01*
X152351246Y-130050723D01*
X152267067Y-130101231D01*
X152216559Y-130151738D01*
X152166051Y-130235918D01*
X152149216Y-130286425D01*
X152149216Y-130353769D01*
X152182887Y-130421112D01*
X152216559Y-130454784D01*
X152283903Y-130488456D01*
X152317574Y-130488456D01*
X152974174Y-130505292D02*
X152772143Y-130303261D01*
X152873158Y-130404277D02*
X152519605Y-130757830D01*
X152536441Y-130673651D01*
X152536441Y-130606307D01*
X152519605Y-130555800D01*
X152923666Y-131161891D02*
X152856322Y-131094548D01*
X152839487Y-131044040D01*
X152839487Y-131010368D01*
X152856322Y-130926189D01*
X152906830Y-130842009D01*
X153041517Y-130707322D01*
X153092025Y-130690487D01*
X153125696Y-130690487D01*
X153176204Y-130707322D01*
X153243548Y-130774666D01*
X153260383Y-130825174D01*
X153260383Y-130858845D01*
X153243548Y-130909353D01*
X153159368Y-130993532D01*
X153108861Y-131010368D01*
X153075189Y-131010368D01*
X153024681Y-130993532D01*
X152957338Y-130926189D01*
X152940502Y-130875681D01*
X152940502Y-130842009D01*
X152957338Y-130791502D01*
D16*
%TO.C,J81*%
X176125221Y-64111620D02*
X176125221Y-64396463D01*
X176144211Y-64453431D01*
X176182190Y-64491410D01*
X176239159Y-64510400D01*
X176277138Y-64510400D01*
X175878358Y-64282526D02*
X175916337Y-64263536D01*
X175935326Y-64244547D01*
X175954316Y-64206568D01*
X175954316Y-64187578D01*
X175935326Y-64149599D01*
X175916337Y-64130610D01*
X175878358Y-64111620D01*
X175802400Y-64111620D01*
X175764420Y-64130610D01*
X175745431Y-64149599D01*
X175726441Y-64187578D01*
X175726441Y-64206568D01*
X175745431Y-64244547D01*
X175764420Y-64263536D01*
X175802400Y-64282526D01*
X175878358Y-64282526D01*
X175916337Y-64301515D01*
X175935326Y-64320505D01*
X175954316Y-64358484D01*
X175954316Y-64434442D01*
X175935326Y-64472421D01*
X175916337Y-64491410D01*
X175878358Y-64510400D01*
X175802400Y-64510400D01*
X175764420Y-64491410D01*
X175745431Y-64472421D01*
X175726441Y-64434442D01*
X175726441Y-64358484D01*
X175745431Y-64320505D01*
X175764420Y-64301515D01*
X175802400Y-64282526D01*
X175346651Y-64510400D02*
X175574525Y-64510400D01*
X175460588Y-64510400D02*
X175460588Y-64111620D01*
X175498567Y-64168589D01*
X175536546Y-64206568D01*
X175574525Y-64225557D01*
D17*
%TO.C,R22*%
X157734116Y-128029517D02*
X157516835Y-127812236D01*
X158271517Y-127492116D02*
X158054236Y-127274835D01*
%TO.C,R25*%
X155752765Y-123072236D02*
X155535484Y-123289517D01*
X155215364Y-122534835D02*
X154998083Y-122752116D01*
%TO.C,R26*%
X151701516Y-128718317D02*
X151484235Y-128501036D01*
X152238917Y-128180916D02*
X152021636Y-127963635D01*
%TO.C,C28*%
X150357506Y-125786059D02*
X149988039Y-125416592D01*
X149318059Y-126825506D02*
X148948592Y-126456039D01*
%TO.C,R23*%
X159058083Y-128362116D02*
X159275364Y-128144835D01*
X159595484Y-128899517D02*
X159812765Y-128682236D01*
%TO.C,C18*%
X156698059Y-125265506D02*
X156328592Y-124896039D01*
X157737506Y-124226059D02*
X157368039Y-123856592D01*
D11*
%TO.C,J0*%
X171062200Y-120860800D02*
X171062200Y-126860800D01*
X178912200Y-126860800D02*
X173962200Y-126860800D01*
X184962200Y-121360800D02*
X182262200Y-121360800D01*
X184962200Y-126360800D02*
X184962200Y-121360800D01*
X182262200Y-126360800D02*
X184962200Y-126360800D01*
X171062200Y-126860800D02*
X171912200Y-126860800D01*
X182262200Y-126860800D02*
X182262200Y-126360800D01*
X181162200Y-120860800D02*
X179162200Y-120860800D01*
X182262200Y-120860800D02*
X181212200Y-120860800D01*
X177162200Y-120860800D02*
X171062200Y-120860800D01*
X182262200Y-121360800D02*
X182262200Y-120860800D01*
X181162200Y-126860800D02*
X182262200Y-126860800D01*
%TO.C,J83*%
X118843800Y-135622400D02*
X120843800Y-135622400D01*
X128943800Y-129622400D02*
X128093800Y-129622400D01*
X128943800Y-135622400D02*
X128943800Y-129622400D01*
X122843800Y-135622400D02*
X128943800Y-135622400D01*
X121093800Y-129622400D02*
X126043800Y-129622400D01*
D17*
%TO.C,R24*%
X153476835Y-124193364D02*
X153694116Y-123976083D01*
X154014236Y-124730765D02*
X154231517Y-124513484D01*
%TO.C,C19*%
X155268059Y-126585506D02*
X154898592Y-126216039D01*
X156307506Y-125546059D02*
X155938039Y-125176592D01*
%TO.C,C29*%
X147248592Y-128306039D02*
X147618059Y-128675506D01*
X148288039Y-127266592D02*
X148657506Y-127636059D01*
%TO.C,C17*%
X154219082Y-129429599D02*
X154066579Y-129277096D01*
X154728199Y-128920482D02*
X154575696Y-128767979D01*
D11*
%TO.C,J1*%
X179518600Y-135952600D02*
X174568600Y-135952600D01*
X171668600Y-129952600D02*
X171668600Y-135952600D01*
X171668600Y-135952600D02*
X172518600Y-135952600D01*
X181768600Y-129952600D02*
X179768600Y-129952600D01*
X177768600Y-129952600D02*
X171668600Y-129952600D01*
%TO.C,J82*%
X150152400Y-69020000D02*
X156152400Y-69020000D01*
X150152400Y-58920000D02*
X150152400Y-60920000D01*
X150152400Y-62920000D02*
X150152400Y-69020000D01*
X156152400Y-61170000D02*
X156152400Y-66120000D01*
X156152400Y-69020000D02*
X156152400Y-68170000D01*
D17*
%TO.C,R27*%
X152590516Y-127854717D02*
X152373235Y-127637436D01*
X153127917Y-127317316D02*
X152910636Y-127100035D01*
%TO.C,C16*%
X153313893Y-130277010D02*
X153161390Y-130124507D01*
X153823010Y-129767893D02*
X153670507Y-129615390D01*
D11*
%TO.C,J81*%
X178852400Y-69020000D02*
X178852400Y-68170000D01*
X172852400Y-58920000D02*
X172852400Y-60920000D01*
X178852400Y-61170000D02*
X178852400Y-66120000D01*
X172852400Y-69020000D02*
X178852400Y-69020000D01*
X172852400Y-62920000D02*
X172852400Y-69020000D01*
%TD*%
D18*
%TO.C,J40*%
X145511780Y-71077200D03*
X153009860Y-71079740D03*
X160507940Y-71077200D03*
X148013680Y-73579100D03*
X158006040Y-73579100D03*
%TD*%
%TO.C,J90*%
X167911780Y-70977200D03*
X175409860Y-70979740D03*
X182907940Y-70977200D03*
X170413680Y-73479100D03*
X180406040Y-73479100D03*
%TD*%
D19*
%TO.C,J0*%
X174162200Y-123860800D03*
X180162200Y-123860800D03*
%TD*%
%TO.C,J83*%
X119843800Y-132622400D03*
X125843800Y-132622400D03*
%TD*%
%TO.C,J82*%
X153152400Y-65920000D03*
X153152400Y-59920000D03*
%TD*%
%TO.C,J81*%
X175852400Y-59920000D03*
X175852400Y-65920000D03*
%TD*%
M02*
