%TF.GenerationSoftware,KiCad,Pcbnew,(6.0.2)*%
%TF.CreationDate,2022-03-04T10:51:53-05:00*%
%TF.ProjectId,bottom,626f7474-6f6d-42e6-9b69-6361645f7063,rev?*%
%TF.SameCoordinates,Original*%
%TF.FileFunction,Paste,Top*%
%TF.FilePolarity,Positive*%
%FSLAX46Y46*%
G04 Gerber Fmt 4.6, Leading zero omitted, Abs format (unit mm)*
G04 Created by KiCad (PCBNEW (6.0.2)) date 2022-03-04 10:51:53*
%MOMM*%
%LPD*%
G01*
G04 APERTURE LIST*
G04 Aperture macros list*
%AMRoundRect*
0 Rectangle with rounded corners*
0 $1 Rounding radius*
0 $2 $3 $4 $5 $6 $7 $8 $9 X,Y pos of 4 corners*
0 Add a 4 corners polygon primitive as box body*
4,1,4,$2,$3,$4,$5,$6,$7,$8,$9,$2,$3,0*
0 Add four circle primitives for the rounded corners*
1,1,$1+$1,$2,$3*
1,1,$1+$1,$4,$5*
1,1,$1+$1,$6,$7*
1,1,$1+$1,$8,$9*
0 Add four rect primitives between the rounded corners*
20,1,$1+$1,$2,$3,$4,$5,0*
20,1,$1+$1,$4,$5,$6,$7,0*
20,1,$1+$1,$6,$7,$8,$9,0*
20,1,$1+$1,$8,$9,$2,$3,0*%
G04 Aperture macros list end*
%ADD10R,1.500000X2.000000*%
%ADD11R,3.800000X2.000000*%
%ADD12RoundRect,0.250000X-0.450000X0.350000X-0.450000X-0.350000X0.450000X-0.350000X0.450000X0.350000X0*%
%ADD13R,0.762000X1.524000*%
%ADD14RoundRect,0.250000X0.450000X-0.350000X0.450000X0.350000X-0.450000X0.350000X-0.450000X-0.350000X0*%
%ADD15RoundRect,0.250000X0.475000X-0.337500X0.475000X0.337500X-0.475000X0.337500X-0.475000X-0.337500X0*%
%ADD16RoundRect,0.250000X-0.337500X-0.475000X0.337500X-0.475000X0.337500X0.475000X-0.337500X0.475000X0*%
%ADD17RoundRect,0.250000X-0.450000X0.325000X-0.450000X-0.325000X0.450000X-0.325000X0.450000X0.325000X0*%
%ADD18R,1.500000X0.900000*%
%ADD19R,0.700000X0.700000*%
%ADD20RoundRect,0.250000X-0.350000X-0.450000X0.350000X-0.450000X0.350000X0.450000X-0.350000X0.450000X0*%
G04 APERTURE END LIST*
D10*
%TO.C,U4*%
X167009860Y-113980000D03*
X169309860Y-113980000D03*
X171609860Y-113980000D03*
D11*
X169309860Y-107680000D03*
%TD*%
D12*
%TO.C,R3*%
X173109860Y-82980000D03*
X173109860Y-84980000D03*
%TD*%
D13*
%TO.C,S1*%
X159309860Y-114280000D03*
X159309860Y-108692000D03*
X163119860Y-114280000D03*
X163119860Y-108692000D03*
%TD*%
D14*
%TO.C,R12*%
X168009860Y-130880000D03*
X168009860Y-128880000D03*
%TD*%
D15*
%TO.C,C2*%
X157709860Y-86717500D03*
X157709860Y-84642500D03*
%TD*%
D12*
%TO.C,R10*%
X183909860Y-82680000D03*
X183909860Y-84680000D03*
%TD*%
D15*
%TO.C,C4*%
X174209860Y-114117500D03*
X174209860Y-112042500D03*
%TD*%
D16*
%TO.C,C6*%
X169309860Y-122080000D03*
X171384860Y-122080000D03*
%TD*%
D12*
%TO.C,R4*%
X175709860Y-82980000D03*
X175709860Y-84980000D03*
%TD*%
D17*
%TO.C,D2*%
X181509860Y-82730000D03*
X181509860Y-84780000D03*
%TD*%
D18*
%TO.C,U5*%
X165309860Y-133180000D03*
X165309860Y-131680000D03*
X165309860Y-130180000D03*
X165309860Y-128680000D03*
X165309860Y-127180000D03*
X165309860Y-125680000D03*
X165309860Y-124180000D03*
X165309860Y-122680000D03*
X165309860Y-121180000D03*
X147809860Y-121180000D03*
X147809860Y-122680000D03*
X147809860Y-124180000D03*
X147809860Y-125680000D03*
X147809860Y-127180000D03*
X147809860Y-128680000D03*
X147809860Y-130180000D03*
X147809860Y-131680000D03*
X147809860Y-133180000D03*
D19*
X156699860Y-126980000D03*
X156699860Y-128080000D03*
X154499860Y-128080000D03*
X155649860Y-125880000D03*
X154499860Y-126980000D03*
X154499860Y-125880000D03*
X155649860Y-126980000D03*
X155649860Y-128080000D03*
X156699860Y-125880000D03*
%TD*%
D20*
%TO.C,R14*%
X167309860Y-124180000D03*
X169309860Y-124180000D03*
%TD*%
D12*
%TO.C,R7*%
X142209860Y-85680000D03*
X142209860Y-87680000D03*
%TD*%
D16*
%TO.C,C5*%
X169272360Y-117680000D03*
X171347360Y-117680000D03*
%TD*%
D20*
%TO.C,R11*%
X167309860Y-126480000D03*
X169309860Y-126480000D03*
%TD*%
D12*
%TO.C,R8*%
X159909860Y-84680000D03*
X159909860Y-86680000D03*
%TD*%
D16*
%TO.C,C8*%
X165372360Y-117680000D03*
X167447360Y-117680000D03*
%TD*%
%TO.C,C7*%
X169309860Y-119780000D03*
X171384860Y-119780000D03*
%TD*%
D12*
%TO.C,R2*%
X170709860Y-82880000D03*
X170709860Y-84880000D03*
%TD*%
D16*
%TO.C,C1*%
X174134860Y-97180000D03*
X176209860Y-97180000D03*
%TD*%
M02*
