M48
; DRILL file {KiCad (6.0.2)} date Wed Feb 23 01:18:00 2022
; FORMAT={-:-/ absolute / metric / decimal}
; #@! TF.CreationDate,2022-02-23T01:18:00-05:00
; #@! TF.GenerationSoftware,Kicad,Pcbnew,(6.0.2)
; #@! TF.FileFunction,Plated,1,2,PTH
FMAT,2
METRIC
; #@! TA.AperFunction,Plated,PTH,ViaDrill
T1C0.400
; #@! TA.AperFunction,Plated,PTH,ComponentDrill
T2C0.800
; #@! TA.AperFunction,Plated,PTH,ComponentDrill
T3C0.900
; #@! TA.AperFunction,Plated,PTH,ComponentDrill
T4C0.920
; #@! TA.AperFunction,Plated,PTH,ComponentDrill
T5C1.000
; #@! TA.AperFunction,Plated,PTH,ComponentDrill
T6C1.020
; #@! TA.AperFunction,Plated,PTH,ComponentDrill
T7C1.100
; #@! TA.AperFunction,Plated,PTH,ComponentDrill
T8C1.397
; #@! TA.AperFunction,Plated,PTH,ComponentDrill
T9C2.300
%
G90
G05
T1
X161.552Y-89.98
X162.152Y-91.98
X173.352Y-131.08
X173.752Y-126.58
X184.202Y-87.73
T2
X147.752Y-85.18
X147.752Y-92.8
X150.508Y-85.791
X150.508Y-88.331
X150.508Y-90.871
X158.128Y-85.791
X158.128Y-88.331
X158.128Y-90.871
X165.912Y-87.28
X165.912Y-94.9
X168.452Y-87.28
X168.452Y-94.9
X170.992Y-87.28
X170.992Y-94.9
X173.532Y-87.28
X173.532Y-94.9
X176.072Y-87.28
X176.072Y-94.9
X178.612Y-87.28
X178.612Y-94.9
X181.152Y-87.28
X181.152Y-94.9
T4
X121.262Y-77.21
X121.262Y-79.71
X121.262Y-81.71
X121.262Y-84.21
T5
X115.908Y-115.975
X115.908Y-118.515
X115.908Y-121.055
X115.908Y-123.595
X115.941Y-104.106
X115.941Y-106.646
X115.941Y-109.186
X115.941Y-111.726
X115.966Y-91.271
X115.966Y-93.811
X115.966Y-96.351
X115.966Y-98.891
X125.212Y-76.78
X125.212Y-79.32
X125.212Y-81.86
X125.212Y-84.4
X125.212Y-86.94
X125.212Y-89.48
X125.212Y-92.02
X125.212Y-94.56
X125.212Y-97.1
X125.212Y-99.64
X125.212Y-102.18
X125.212Y-104.72
X125.212Y-107.26
X125.212Y-109.8
X125.212Y-112.34
X125.212Y-114.88
X125.212Y-117.42
X125.212Y-119.96
X125.212Y-122.5
X125.212Y-125.04
X125.212Y-127.58
X125.212Y-130.12
X125.212Y-132.66
X128.263Y-83.079
X128.263Y-85.619
X128.263Y-88.159
X128.263Y-90.699
X137.912Y-76.78
X140.452Y-74.24
X140.452Y-76.78
X140.452Y-79.32
X140.452Y-81.86
X140.452Y-84.4
X140.452Y-86.94
X140.452Y-89.48
X140.452Y-92.02
X140.452Y-94.56
X140.452Y-97.1
X140.452Y-99.64
X140.452Y-102.18
X140.452Y-104.72
X140.452Y-107.26
X140.452Y-109.8
X140.452Y-112.34
X140.452Y-114.88
X140.452Y-117.42
X140.452Y-119.96
X140.452Y-122.5
X140.452Y-125.04
X140.452Y-127.58
X140.452Y-130.12
X140.452Y-132.66
X185.168Y-91.317
X185.168Y-93.857
X185.168Y-96.397
X185.168Y-98.937
X185.181Y-104.116
X185.181Y-106.656
X185.181Y-109.196
X185.181Y-111.736
X185.186Y-115.95
X185.186Y-118.49
X185.186Y-121.03
X185.186Y-123.57
T6
X147.952Y-125.64
X147.952Y-128.18
X147.952Y-130.72
X147.952Y-133.26
X150.812Y-118.68
X153.352Y-118.68
X155.892Y-118.68
X158.432Y-118.68
T7
X125.212Y-74.24
X128.263Y-80.539
T8
X146.354Y-76.077
X148.856Y-78.579
X153.852Y-76.08
X158.849Y-78.579
X161.35Y-76.077
X168.754Y-75.977
X171.256Y-78.479
X176.252Y-75.98
X181.249Y-78.479
X183.75Y-75.977
T9
X118.552Y-74.14
X118.552Y-87.28
T3
G00X152.102Y-72.307
M15
G01X152.102Y-73.107
M16
G05
G00X152.102Y-79.38
M15
G01X152.102Y-80.18
M16
G05
G00X156.602Y-74.212
M15
G01X156.602Y-75.012
M16
G05
G00X174.579Y-128.88
M15
G01X173.779Y-128.88
M16
G05
G00X174.352Y-72.275
M15
G01X174.352Y-73.075
M16
G05
G00X174.352Y-79.348
M15
G01X174.352Y-80.148
M16
G05
G00X178.852Y-74.18
M15
G01X178.852Y-74.98
M16
G05
G00X179.747Y-133.38
M15
G01X178.947Y-133.38
M16
G05
G00X181.652Y-128.88
M15
G01X180.852Y-128.88
M16
G05
T0
M30
