M48
; DRILL file {KiCad (5.1.10)-1} date 12/11/21 23:56:22
; FORMAT={-:-/ absolute / metric / decimal}
; #@! TF.CreationDate,2021-12-11T23:56:22-05:00
; #@! TF.GenerationSoftware,Kicad,Pcbnew,(5.1.10)-1
; #@! TF.FileFunction,Plated,1,2,PTH
FMAT,2
METRIC
T1C0.400
T2C0.800
T3C0.900
T4C0.920
T5C1.000
T6C1.020
T7C1.100
T8C1.397
T9C2.300
%
G90
G05
T1
X148.452Y-123.58
X148.952Y-119.38
X160.652Y-88.98
X162.052Y-90.18
X170.352Y-120.68
X178.352Y-97.18
X182.952Y-87.68
T2
X146.908Y-82.074
X146.908Y-89.694
X150.408Y-82.791
X150.408Y-85.331
X150.408Y-87.871
X158.028Y-82.791
X158.028Y-85.331
X158.028Y-87.871
X166.112Y-85.08
X166.112Y-92.7
X168.652Y-85.08
X168.652Y-92.7
X171.192Y-85.08
X171.192Y-92.7
X173.732Y-85.08
X173.732Y-92.7
X176.272Y-85.08
X176.272Y-92.7
X178.812Y-85.08
X178.812Y-92.7
X181.352Y-85.08
X181.352Y-92.7
T4
X121.262Y-77.21
X121.262Y-79.71
X121.262Y-81.71
X121.262Y-84.21
T5
X115.908Y-115.975
X115.908Y-118.515
X115.908Y-121.055
X115.908Y-123.595
X115.941Y-104.106
X115.941Y-106.646
X115.941Y-109.186
X115.941Y-111.726
X115.966Y-91.271
X115.966Y-93.811
X115.966Y-96.351
X115.966Y-98.891
X125.212Y-76.78
X125.212Y-79.32
X125.212Y-81.86
X125.212Y-84.4
X125.212Y-86.94
X125.212Y-89.48
X125.212Y-92.02
X125.212Y-94.56
X125.212Y-97.1
X125.212Y-99.64
X125.212Y-102.18
X125.212Y-104.72
X125.212Y-107.26
X125.212Y-109.8
X125.212Y-112.34
X125.212Y-114.88
X125.212Y-117.42
X125.212Y-119.96
X125.212Y-122.5
X125.212Y-125.04
X125.212Y-127.58
X125.212Y-130.12
X125.212Y-132.66
X128.263Y-83.079
X128.263Y-85.619
X128.263Y-88.159
X128.263Y-90.699
X137.912Y-76.78
X140.452Y-74.24
X140.452Y-76.78
X140.452Y-79.32
X140.452Y-81.86
X140.452Y-84.4
X140.452Y-86.94
X140.452Y-89.48
X140.452Y-92.02
X140.452Y-94.56
X140.452Y-97.1
X140.452Y-99.64
X140.452Y-102.18
X140.452Y-104.72
X140.452Y-107.26
X140.452Y-109.8
X140.452Y-112.34
X140.452Y-114.88
X140.452Y-117.42
X140.452Y-119.96
X140.452Y-122.5
X140.452Y-125.04
X140.452Y-127.58
X140.452Y-130.12
X140.452Y-132.66
X185.168Y-91.317
X185.168Y-93.857
X185.168Y-96.397
X185.168Y-98.937
X185.181Y-104.116
X185.181Y-106.656
X185.181Y-109.196
X185.181Y-111.736
X185.186Y-115.95
X185.186Y-118.49
X185.186Y-121.03
X185.186Y-123.57
T6
X146.052Y-124.9
X146.052Y-127.44
X146.052Y-129.98
X146.052Y-132.52
X155.932Y-118.88
X158.472Y-118.88
X161.012Y-118.88
X163.552Y-118.88
T7
X125.212Y-74.24
X128.263Y-80.539
T8
X146.354Y-76.077
X148.856Y-78.579
X153.852Y-76.08
X158.849Y-78.579
X161.35Y-76.077
X168.754Y-75.977
X171.256Y-78.479
X176.252Y-75.98
X181.249Y-78.479
X183.75Y-75.977
T9
X118.552Y-74.14
X118.552Y-87.28
T3
G00X174.152Y-128.43
M15
G01X173.352Y-128.43
M16
G05
G00X179.32Y-132.93
M15
G01X178.52Y-132.93
M16
G05
G00X181.225Y-128.43
M15
G01X180.425Y-128.43
M16
G05
T0
M30
