%TF.GenerationSoftware,KiCad,Pcbnew,(6.0.2)*%
%TF.CreationDate,2022-02-23T01:17:56-05:00*%
%TF.ProjectId,bottom,626f7474-6f6d-42e6-9b69-6361645f7063,rev?*%
%TF.SameCoordinates,Original*%
%TF.FileFunction,Soldermask,Bot*%
%TF.FilePolarity,Negative*%
%FSLAX46Y46*%
G04 Gerber Fmt 4.6, Leading zero omitted, Abs format (unit mm)*
G04 Created by KiCad (PCBNEW (6.0.2)) date 2022-02-23 01:17:56*
%MOMM*%
%LPD*%
G01*
G04 APERTURE LIST*
%ADD10C,2.499360*%
%ADD11C,1.200000*%
%ADD12R,1.600000X2.200000*%
%ADD13R,1.428000X1.428000*%
%ADD14C,1.428000*%
%ADD15C,3.316000*%
%ADD16R,1.700000X1.700000*%
%ADD17O,1.700000X1.700000*%
%ADD18R,1.600000X1.600000*%
%ADD19O,1.600000X1.600000*%
%ADD20C,1.700000*%
%ADD21C,2.020000*%
%ADD22R,2.200000X1.600000*%
G04 APERTURE END LIST*
D10*
%TO.C,J40*%
X146354320Y-76077200D03*
X153852400Y-76079740D03*
X161350480Y-76077200D03*
X148856220Y-78579100D03*
X158848580Y-78579100D03*
%TD*%
D11*
%TO.C,J82*%
X154352400Y-78580000D03*
X154352400Y-72580000D03*
D12*
X152102400Y-72707000D03*
X152102400Y-79780000D03*
X156602400Y-74612000D03*
%TD*%
D13*
%TO.C,J70*%
X121262400Y-77210000D03*
D14*
X121262400Y-79710000D03*
X121262400Y-81710000D03*
X121262400Y-84210000D03*
D15*
X118552400Y-74140000D03*
X118552400Y-87280000D03*
%TD*%
D11*
%TO.C,J81*%
X176602400Y-72548000D03*
X176602400Y-78548000D03*
D12*
X174352400Y-72675000D03*
X174352400Y-79748000D03*
X178852400Y-74580000D03*
%TD*%
D16*
%TO.C,J36*%
X115940740Y-104105520D03*
D17*
X115940740Y-106645520D03*
X115940740Y-109185520D03*
X115940740Y-111725520D03*
%TD*%
D10*
%TO.C,J90*%
X168754320Y-75977200D03*
X176252400Y-75979740D03*
X183750480Y-75977200D03*
X171256220Y-78479100D03*
X181248580Y-78479100D03*
%TD*%
D18*
%TO.C,U2*%
X181152400Y-87280000D03*
D19*
X178612400Y-87280000D03*
X176072400Y-87280000D03*
X173532400Y-87280000D03*
X170992400Y-87280000D03*
X168452400Y-87280000D03*
X165912400Y-87280000D03*
X165912400Y-94900000D03*
X168452400Y-94900000D03*
X170992400Y-94900000D03*
X173532400Y-94900000D03*
X176072400Y-94900000D03*
X178612400Y-94900000D03*
X181152400Y-94900000D03*
%TD*%
D18*
%TO.C,U1*%
X125212400Y-74240000D03*
D20*
X125212400Y-76780000D03*
X125212400Y-79320000D03*
X125212400Y-81860000D03*
X125212400Y-84400000D03*
X125212400Y-86940000D03*
X125212400Y-89480000D03*
X125212400Y-92020000D03*
X125212400Y-94560000D03*
X125212400Y-97100000D03*
X125212400Y-99640000D03*
X125212400Y-102180000D03*
X125212400Y-104720000D03*
X125212400Y-107260000D03*
X125212400Y-109800000D03*
X125212400Y-112340000D03*
X125212400Y-114880000D03*
X125212400Y-117420000D03*
X125212400Y-119960000D03*
X125212400Y-122500000D03*
X125212400Y-125040000D03*
X125212400Y-127580000D03*
X125212400Y-130120000D03*
X125212400Y-132660000D03*
X140452400Y-132660000D03*
X140452400Y-130120000D03*
X140452400Y-127580000D03*
X140452400Y-125040000D03*
X140452400Y-122500000D03*
X140452400Y-119960000D03*
X140452400Y-117420000D03*
X140452400Y-114880000D03*
X140452400Y-112340000D03*
X140452400Y-109800000D03*
X140452400Y-107260000D03*
X140452400Y-104720000D03*
X140452400Y-102180000D03*
X140452400Y-99640000D03*
X140452400Y-97100000D03*
X140452400Y-94560000D03*
X140452400Y-92020000D03*
X140452400Y-89480000D03*
X140452400Y-86940000D03*
X140452400Y-84400000D03*
X140452400Y-81860000D03*
X140452400Y-79320000D03*
X140452400Y-76780000D03*
X140452400Y-74240000D03*
X137912400Y-76780000D03*
D18*
X128263200Y-80539200D03*
D20*
X128263200Y-83079200D03*
X128263200Y-85619200D03*
X128263200Y-88159200D03*
X128263200Y-90699200D03*
%TD*%
D16*
%TO.C,J34*%
X185181140Y-104115680D03*
D17*
X185181140Y-106655680D03*
X185181140Y-109195680D03*
X185181140Y-111735680D03*
%TD*%
D16*
%TO.C,J39*%
X185186220Y-115949540D03*
D17*
X185186220Y-118489540D03*
X185186220Y-121029540D03*
X185186220Y-123569540D03*
%TD*%
D16*
%TO.C,J38*%
X115966140Y-91270900D03*
D17*
X115966140Y-93810900D03*
X115966140Y-96350900D03*
X115966140Y-98890900D03*
%TD*%
D16*
%TO.C,J35*%
X115907720Y-115974940D03*
D17*
X115907720Y-118514940D03*
X115907720Y-121054940D03*
X115907720Y-123594940D03*
%TD*%
D21*
%TO.C,J96*%
X147952400Y-133260000D03*
X147952400Y-130720000D03*
X147952400Y-128180000D03*
X147952400Y-125640000D03*
%TD*%
D18*
%TO.C,U3*%
X150508420Y-85791200D03*
D19*
X150508420Y-88331200D03*
X150508420Y-90871200D03*
X158128420Y-90871200D03*
X158128420Y-88331200D03*
X158128420Y-85791200D03*
%TD*%
D11*
%TO.C,J0*%
X175379400Y-131130000D03*
X181379400Y-131130000D03*
D22*
X181252400Y-128880000D03*
X174179400Y-128880000D03*
X179347400Y-133380000D03*
%TD*%
D18*
%TO.C,D1*%
X147752400Y-85180000D03*
D19*
X147752400Y-92800000D03*
%TD*%
D21*
%TO.C,J99*%
X158432400Y-118680000D03*
X155892400Y-118680000D03*
X153352400Y-118680000D03*
X150812400Y-118680000D03*
%TD*%
D16*
%TO.C,J37*%
X185168440Y-91316620D03*
D17*
X185168440Y-93856620D03*
X185168440Y-96396620D03*
X185168440Y-98936620D03*
%TD*%
M02*
