%TF.GenerationSoftware,KiCad,Pcbnew,(6.0.2)*%
%TF.CreationDate,2022-03-04T10:51:53-05:00*%
%TF.ProjectId,bottom,626f7474-6f6d-42e6-9b69-6361645f7063,rev?*%
%TF.SameCoordinates,Original*%
%TF.FileFunction,Profile,NP*%
%FSLAX46Y46*%
G04 Gerber Fmt 4.6, Leading zero omitted, Abs format (unit mm)*
G04 Created by KiCad (PCBNEW (6.0.2)) date 2022-03-04 10:51:53*
%MOMM*%
%LPD*%
G01*
G04 APERTURE LIST*
%TA.AperFunction,Profile*%
%ADD10C,0.100000*%
%TD*%
G04 APERTURE END LIST*
D10*
X113802520Y-72006300D02*
X113843297Y-71996509D01*
X110660856Y-89658605D02*
X110739948Y-89590601D01*
X142112706Y-64185771D02*
X142140056Y-64156769D01*
X110453583Y-126390143D02*
X110417255Y-126367883D01*
X182359100Y-64340434D02*
X182394188Y-64386330D01*
X110417255Y-126367883D02*
X110382099Y-126343722D01*
X185182691Y-126010171D02*
X185146406Y-126075545D01*
X184776608Y-126377054D02*
X184705365Y-126399407D01*
X110733179Y-126489144D02*
X110691236Y-126481370D01*
X184668962Y-126407855D02*
X184595056Y-126419177D01*
X110049004Y-114709900D02*
X110959000Y-113979520D01*
X184321000Y-100820481D02*
X184321000Y-113929502D01*
X185098194Y-73242098D02*
X185127725Y-73342193D01*
X110997116Y-89412448D02*
X111089055Y-89362178D01*
X182195900Y-64177097D02*
X182239886Y-64214634D01*
X179963099Y-134852941D02*
X179920982Y-134885864D01*
X142560667Y-63946696D02*
X181379975Y-63939000D01*
X185212154Y-125941508D02*
X185182691Y-126010171D01*
X110047777Y-125727977D02*
X110046660Y-125685359D01*
X115022062Y-134145473D02*
X115013516Y-134089831D01*
X113967965Y-71980096D02*
X114009860Y-71979000D01*
X113262072Y-72492923D02*
X113278100Y-72454228D01*
X113278100Y-72454228D02*
X113296176Y-72416330D01*
X184458971Y-72307422D02*
X184538101Y-72375461D01*
X184538101Y-72375461D02*
X184613577Y-72447533D01*
X115033525Y-134200589D02*
X115022062Y-134145473D01*
X185195396Y-73858180D02*
X185200999Y-91079999D01*
X142333182Y-64017308D02*
X142369264Y-64000488D01*
X110348339Y-126317817D02*
X110315941Y-126290148D01*
X179673025Y-134978758D02*
X179619542Y-134981613D01*
X181615549Y-63939221D02*
X181672927Y-63946399D01*
X115008860Y-133865118D02*
X115008999Y-126501000D01*
X142406252Y-63985622D02*
X142443989Y-63972776D01*
X185080136Y-126165792D02*
X185028623Y-126219984D01*
X185146406Y-126075545D02*
X185125840Y-126106748D01*
X142263910Y-64056718D02*
X142298013Y-64036076D01*
X113505795Y-72157490D02*
X113539065Y-72131962D01*
X180128791Y-134583534D02*
X180113126Y-134634699D01*
X110202097Y-126163720D02*
X110177964Y-126128608D01*
X142443989Y-63972776D02*
X142482418Y-63961975D01*
X111089055Y-89362178D02*
X111820007Y-89359000D01*
X110071194Y-90625372D02*
X110100725Y-90525277D01*
X110064438Y-125854532D02*
X110056683Y-125812692D01*
X110323962Y-90055212D02*
X110382875Y-89969072D01*
X115007909Y-134033763D02*
X115005264Y-133977530D01*
X113387350Y-72275935D02*
X113414619Y-72244007D01*
X185184521Y-73649842D02*
X185192676Y-73753882D01*
X180001695Y-134815879D02*
X179963099Y-134852941D01*
X115107796Y-134412754D02*
X115085040Y-134361205D01*
X109999000Y-91140000D02*
X110014398Y-90933021D01*
X180144188Y-134477820D02*
X180139182Y-134531044D01*
X184816044Y-72685893D02*
X184874957Y-72772033D01*
X110959000Y-100790504D02*
X109999004Y-100080093D01*
X184595056Y-126419177D02*
X184520459Y-126422959D01*
X181379975Y-63939000D02*
X181500057Y-63934010D01*
X113443449Y-72213626D02*
X113473867Y-72184759D01*
X142062902Y-64247991D02*
X142086963Y-64216207D01*
X113218726Y-72654670D02*
X113226369Y-72613437D01*
X110046911Y-90726921D02*
X110071194Y-90625372D01*
X182510999Y-72079000D02*
X184110100Y-72079005D01*
X142008998Y-71979000D02*
X141999004Y-64349909D01*
X142086963Y-64216207D02*
X142112706Y-64185771D01*
X115260118Y-134648461D02*
X115224794Y-134604696D01*
X110175207Y-90330431D02*
X110219973Y-90236161D01*
X110086498Y-125936862D02*
X110074396Y-125896012D01*
X110609007Y-126459337D02*
X110568795Y-126445097D01*
X185125840Y-126106748D02*
X185080136Y-126165792D01*
X142199296Y-64103374D02*
X142230972Y-64079173D01*
X180111003Y-126421000D02*
X180140999Y-134419939D01*
X184705365Y-126399407D02*
X184668962Y-126407855D01*
X142369264Y-64000488D02*
X142406252Y-63985622D01*
X113236147Y-72572711D02*
X113248072Y-72532452D01*
X181841666Y-63985956D02*
X181896256Y-64005026D01*
X113473867Y-72184759D02*
X113505795Y-72157490D01*
X142230972Y-64079173D02*
X142263910Y-64056718D01*
X110228002Y-126197480D02*
X110202097Y-126163720D01*
X184201803Y-72129270D02*
X184290571Y-72184143D01*
X115005582Y-133921289D02*
X115008860Y-133865118D01*
X110382875Y-89969072D02*
X110446166Y-89886160D01*
X110014398Y-90933021D02*
X110027967Y-90829547D01*
X110585379Y-89730675D02*
X110660856Y-89658605D01*
X180113126Y-134634699D02*
X180103344Y-134659665D01*
X182321600Y-64296416D02*
X182359100Y-64340434D01*
X115614798Y-134920738D02*
X115564616Y-134895226D01*
X110046660Y-125685359D02*
X110049004Y-114709900D01*
X182456904Y-64483450D02*
X182484324Y-64534361D01*
X115065050Y-134308579D02*
X115047873Y-134255024D01*
X113316187Y-72379477D02*
X113338099Y-72343722D01*
X185170952Y-73546368D02*
X185184521Y-73649842D01*
X184752721Y-72602940D02*
X184816044Y-72685893D01*
X115468582Y-134836429D02*
X115423042Y-134803336D01*
X182281825Y-64254444D02*
X182321600Y-64296416D01*
X181949761Y-64026957D02*
X182002031Y-64051687D01*
X110649858Y-126471436D02*
X110609007Y-126459337D01*
X110269620Y-90144307D02*
X110323962Y-90055212D01*
X184941806Y-126290769D02*
X184910602Y-126311333D01*
X115191762Y-134559046D02*
X115161208Y-134511764D01*
X180140999Y-134419939D02*
X180144651Y-134450927D01*
X114009860Y-71979000D02*
X142008998Y-71979000D01*
X182426831Y-64434060D02*
X182456904Y-64483450D01*
X110691236Y-126481370D02*
X110649858Y-126471436D01*
X110056683Y-125812692D02*
X110051121Y-125770451D01*
X179802892Y-134948174D02*
X179751942Y-134964357D01*
X181672927Y-63946399D02*
X181729845Y-63956601D01*
X115133186Y-134462939D02*
X115107796Y-134412754D01*
X115337536Y-134730230D02*
X115297731Y-134690346D01*
X115379346Y-134767926D02*
X115337536Y-134730230D01*
X110959000Y-113979520D02*
X110959000Y-100790504D01*
X180139182Y-134531044D02*
X180128791Y-134583534D01*
X180144651Y-134450927D02*
X180144188Y-134477820D01*
X113209956Y-72738108D02*
X113213245Y-72696298D01*
X115515802Y-134867079D02*
X115468582Y-134836429D01*
X182149948Y-64141908D02*
X182195900Y-64177097D01*
X110775420Y-126494704D02*
X110733179Y-126489144D01*
X181729845Y-63956601D02*
X181786144Y-63969799D01*
X115047873Y-134255024D02*
X115033525Y-134200589D01*
X184520459Y-126422959D02*
X180111003Y-126421000D01*
X184874957Y-72772033D02*
X184929325Y-72861173D01*
X181896256Y-64005026D02*
X181949761Y-64026957D01*
X110908304Y-89467350D02*
X110997116Y-89412448D01*
X110284998Y-126260784D02*
X110255671Y-126229878D01*
X182052875Y-64079120D02*
X182102242Y-64109230D01*
X185249557Y-125797028D02*
X185234519Y-125870216D01*
X184685158Y-72523403D02*
X184752721Y-72602940D01*
X184613577Y-72447533D02*
X184685158Y-72523403D01*
X185261000Y-114640000D02*
X185261000Y-125690000D01*
X113226369Y-72613437D02*
X113236147Y-72572711D01*
X185192676Y-73753882D02*
X185195396Y-73858180D01*
X182002031Y-64051687D02*
X182052875Y-64079120D01*
X110135416Y-90426908D02*
X110175207Y-90330431D01*
X113539065Y-72131962D02*
X113573582Y-72108239D01*
X110027967Y-90829547D02*
X110046911Y-90726921D01*
X115085040Y-134361205D02*
X115065050Y-134308579D01*
X185210999Y-100109998D02*
X184321000Y-100820481D01*
X113338099Y-72343722D02*
X113361822Y-72309205D01*
X115297731Y-134690346D02*
X115260118Y-134648461D01*
X113646190Y-72066316D02*
X113684040Y-72048261D01*
X115161208Y-134511764D02*
X115133186Y-134462939D01*
X110315941Y-126290148D02*
X110284998Y-126260784D01*
X115423042Y-134803336D02*
X115379346Y-134767926D01*
X110051121Y-125770451D02*
X110047777Y-125727977D01*
X110382099Y-126343722D02*
X110348339Y-126317817D01*
X185200999Y-91079999D02*
X185210999Y-100109998D01*
X113213245Y-72696298D02*
X113218726Y-72654670D01*
X115008999Y-126501000D02*
X110860000Y-126501000D01*
X110155676Y-126092236D02*
X110135347Y-126054793D01*
X184971969Y-126268620D02*
X184941806Y-126290769D01*
X185261000Y-125690000D02*
X185249557Y-125797028D01*
X184978946Y-72952982D02*
X185023712Y-73047252D01*
X184321000Y-113929502D02*
X185261000Y-114640000D01*
X180036329Y-134775091D02*
X180001695Y-134815879D01*
X185127725Y-73342193D02*
X185151997Y-73443691D01*
X110219973Y-90236161D02*
X110269620Y-90144307D01*
X110529481Y-126428813D02*
X110491026Y-126410472D01*
X110513726Y-89806621D02*
X110585379Y-89730675D01*
X113296176Y-72416330D02*
X113316187Y-72379477D01*
X184845317Y-126347569D02*
X184776608Y-126377054D01*
X113762362Y-72018196D02*
X113802520Y-72006300D01*
X182394188Y-64386330D02*
X182426831Y-64434060D01*
X184110100Y-72079005D02*
X184201803Y-72129270D01*
X142482418Y-63961975D02*
X142521321Y-63953279D01*
X110100703Y-125976975D02*
X110086498Y-125936862D01*
X113684040Y-72048261D02*
X113722831Y-72032193D01*
X141999004Y-64349909D02*
X142040594Y-64281028D01*
X180103344Y-134659665D02*
X180080106Y-134707808D01*
X115769999Y-134981000D02*
X115718826Y-134963663D01*
X113722831Y-72032193D02*
X113762362Y-72018196D01*
X113414619Y-72244007D02*
X113443449Y-72213626D01*
X184929325Y-72861173D02*
X184978946Y-72952982D01*
X110491026Y-126410472D02*
X110453583Y-126390143D01*
X113209000Y-89368992D02*
X113209956Y-72738108D01*
X110446166Y-89886160D02*
X110513726Y-89806621D01*
X110100725Y-90525277D02*
X110135416Y-90426908D01*
X115224794Y-134604696D02*
X115191762Y-134559046D01*
X184910602Y-126311333D02*
X184845317Y-126347569D01*
X179851983Y-134926884D02*
X179802892Y-134948174D01*
X110739948Y-89590601D02*
X110822519Y-89526780D01*
X185234519Y-125870216D02*
X185212154Y-125941508D01*
X113573582Y-72108239D02*
X113609383Y-72086301D01*
X113609383Y-72086301D02*
X113646190Y-72066316D01*
X110255671Y-126229878D02*
X110228002Y-126197480D01*
X179619542Y-134981613D02*
X115769999Y-134981000D01*
X182484324Y-64534361D02*
X182509102Y-64586967D01*
X182509102Y-64586967D02*
X182510999Y-72079000D01*
X180052076Y-134753388D02*
X180036329Y-134775091D01*
X115564616Y-134895226D02*
X115515802Y-134867079D01*
X142140056Y-64156769D02*
X142168974Y-64129252D01*
X109999004Y-100080093D02*
X109999000Y-91140000D01*
X110117027Y-126016385D02*
X110100703Y-125976975D01*
X113926158Y-71983385D02*
X113967965Y-71980096D01*
X115013516Y-134089831D02*
X115007909Y-134033763D01*
X185028623Y-126219984D02*
X184971969Y-126268620D01*
X179898660Y-134900720D02*
X179851983Y-134926884D01*
X111820007Y-89359000D02*
X113209000Y-89368992D01*
X179920982Y-134885864D02*
X179898660Y-134900720D01*
X113361822Y-72309205D02*
X113387350Y-72275935D01*
X110822519Y-89526780D02*
X110908304Y-89467350D01*
X180080106Y-134707808D02*
X180052076Y-134753388D01*
X184376400Y-72243601D02*
X184458971Y-72307422D01*
X115718826Y-134963663D02*
X115666254Y-134943573D01*
X113248072Y-72532452D02*
X113262072Y-72492923D01*
X113843297Y-71996509D02*
X113884530Y-71988866D01*
X110074396Y-125896012D02*
X110064438Y-125854532D01*
X179725843Y-134970504D02*
X179673025Y-134978758D01*
X110860000Y-126501000D02*
X110775420Y-126494704D01*
X185023712Y-73047252D02*
X185063484Y-73143680D01*
X181786144Y-63969799D02*
X181841666Y-63985956D01*
X179751942Y-134964357D02*
X179725843Y-134970504D01*
X181557872Y-63935088D02*
X181615549Y-63939221D01*
X181500057Y-63934010D02*
X181557872Y-63935088D01*
X142040594Y-64281028D02*
X142062902Y-64247991D01*
X115666254Y-134943573D02*
X115614798Y-134920738D01*
X142168974Y-64129252D02*
X142199296Y-64103374D01*
X182239886Y-64214634D02*
X182281825Y-64254444D01*
X142521321Y-63953279D02*
X142560667Y-63946696D01*
X185151997Y-73443691D02*
X185170952Y-73546368D01*
X185063484Y-73143680D02*
X185098194Y-73242098D01*
X142298013Y-64036076D02*
X142333182Y-64017308D01*
X182102242Y-64109230D02*
X182149948Y-64141908D01*
X184290571Y-72184143D02*
X184376400Y-72243601D01*
X110568795Y-126445097D02*
X110529481Y-126428813D01*
X115005264Y-133977530D02*
X115005582Y-133921289D01*
X113884530Y-71988866D02*
X113926158Y-71983385D01*
X110135347Y-126054793D02*
X110117027Y-126016385D01*
X110177964Y-126128608D02*
X110155676Y-126092236D01*
M02*
