%TF.GenerationSoftware,KiCad,Pcbnew,(5.1.10)-1*%
%TF.CreationDate,2021-12-11T23:56:17-05:00*%
%TF.ProjectId,bottom,626f7474-6f6d-42e6-9b69-6361645f7063,rev?*%
%TF.SameCoordinates,Original*%
%TF.FileFunction,Profile,NP*%
%FSLAX46Y46*%
G04 Gerber Fmt 4.6, Leading zero omitted, Abs format (unit mm)*
G04 Created by KiCad (PCBNEW (5.1.10)-1) date 2021-12-11 23:56:17*
%MOMM*%
%LPD*%
G01*
G04 APERTURE LIST*
%TA.AperFunction,Profile*%
%ADD10C,0.100000*%
%TD*%
G04 APERTURE END LIST*
D10*
X112840000Y-100080000D02*
X112850000Y-91040000D01*
X113800000Y-100790000D02*
X112840000Y-100080000D01*
X113800000Y-113980000D02*
X113800000Y-100790000D01*
X112890000Y-114710000D02*
X113800000Y-113980000D01*
X112890000Y-125690000D02*
X112890000Y-114710000D01*
X112890000Y-125730000D02*
X112890000Y-125690000D01*
X112890000Y-125770000D02*
X112890000Y-125730000D01*
X112900000Y-125810000D02*
X112890000Y-125770000D01*
X112910000Y-125850000D02*
X112900000Y-125810000D01*
X112920000Y-125890000D02*
X112910000Y-125850000D01*
X112930000Y-125930000D02*
X112920000Y-125890000D01*
X112940000Y-125970000D02*
X112930000Y-125930000D01*
X112960000Y-126010000D02*
X112940000Y-125970000D01*
X112970000Y-126040000D02*
X112960000Y-126010000D01*
X112990000Y-126080000D02*
X112970000Y-126040000D01*
X113010000Y-126120000D02*
X112990000Y-126080000D01*
X113040000Y-126150000D02*
X113010000Y-126120000D01*
X113060000Y-126180000D02*
X113040000Y-126150000D01*
X113090000Y-126220000D02*
X113060000Y-126180000D01*
X113110000Y-126250000D02*
X113090000Y-126220000D01*
X113140000Y-126280000D02*
X113110000Y-126250000D01*
X113170000Y-126300000D02*
X113140000Y-126280000D01*
X113200000Y-126330000D02*
X113170000Y-126300000D01*
X113240000Y-126350000D02*
X113200000Y-126330000D01*
X113270000Y-126380000D02*
X113240000Y-126350000D01*
X113310000Y-126400000D02*
X113270000Y-126380000D01*
X113340000Y-126420000D02*
X113310000Y-126400000D01*
X113380000Y-126430000D02*
X113340000Y-126420000D01*
X113420000Y-126450000D02*
X113380000Y-126430000D01*
X113460000Y-126460000D02*
X113420000Y-126450000D01*
X113500000Y-126470000D02*
X113460000Y-126460000D01*
X113540000Y-126480000D02*
X113500000Y-126470000D01*
X113580000Y-126490000D02*
X113540000Y-126480000D01*
X113620000Y-126490000D02*
X113580000Y-126490000D01*
X113700000Y-126500000D02*
X113620000Y-126490000D01*
X117850000Y-126500000D02*
X113700000Y-126500000D01*
X117850000Y-133870000D02*
X117850000Y-126500000D01*
X117850000Y-133920000D02*
X117850000Y-133870000D01*
X117850000Y-133970000D02*
X117850000Y-133920000D01*
X117850000Y-134030000D02*
X117850000Y-133970000D01*
X117860000Y-134080000D02*
X117850000Y-134030000D01*
X117860000Y-134140000D02*
X117860000Y-134080000D01*
X117870000Y-134190000D02*
X117860000Y-134140000D01*
X117890000Y-134240000D02*
X117870000Y-134190000D01*
X117900000Y-134290000D02*
X117890000Y-134240000D01*
X117920000Y-134340000D02*
X117900000Y-134290000D01*
X117940000Y-134390000D02*
X117920000Y-134340000D01*
X117970000Y-134440000D02*
X117940000Y-134390000D01*
X117990000Y-134490000D02*
X117970000Y-134440000D01*
X118020000Y-134540000D02*
X117990000Y-134490000D01*
X118050000Y-134580000D02*
X118020000Y-134540000D01*
X118080000Y-134620000D02*
X118050000Y-134580000D01*
X118120000Y-134670000D02*
X118080000Y-134620000D01*
X118150000Y-134710000D02*
X118120000Y-134670000D01*
X118190000Y-134740000D02*
X118150000Y-134710000D01*
X118230000Y-134780000D02*
X118190000Y-134740000D01*
X118280000Y-134810000D02*
X118230000Y-134780000D01*
X118320000Y-134840000D02*
X118280000Y-134810000D01*
X118370000Y-134870000D02*
X118320000Y-134840000D01*
X118410000Y-134900000D02*
X118370000Y-134870000D01*
X118460000Y-134920000D02*
X118410000Y-134900000D01*
X118510000Y-134950000D02*
X118460000Y-134920000D01*
X118560000Y-134960000D02*
X118510000Y-134950000D01*
X118620000Y-134980000D02*
X118560000Y-134960000D01*
X182460000Y-134980000D02*
X118620000Y-134980000D01*
X182490000Y-134980000D02*
X182460000Y-134980000D01*
X182540000Y-134980000D02*
X182490000Y-134980000D01*
X182590000Y-134970000D02*
X182540000Y-134980000D01*
X182640000Y-134950000D02*
X182590000Y-134970000D01*
X182690000Y-134930000D02*
X182640000Y-134950000D01*
X182710000Y-134920000D02*
X182690000Y-134930000D01*
X182760000Y-134890000D02*
X182710000Y-134920000D01*
X182800000Y-134860000D02*
X182760000Y-134890000D01*
X182830000Y-134830000D02*
X182800000Y-134860000D01*
X182870000Y-134790000D02*
X182830000Y-134830000D01*
X182890000Y-134770000D02*
X182870000Y-134790000D01*
X182910000Y-134720000D02*
X182890000Y-134770000D01*
X182940000Y-134680000D02*
X182910000Y-134720000D01*
X182960000Y-134630000D02*
X182940000Y-134680000D01*
X182970000Y-134580000D02*
X182960000Y-134630000D01*
X182980000Y-134530000D02*
X182970000Y-134580000D01*
X182990000Y-134500000D02*
X182980000Y-134530000D01*
X182990000Y-134450000D02*
X182990000Y-134500000D01*
X182990000Y-134420000D02*
X182990000Y-134450000D01*
X182950000Y-126420000D02*
X182990000Y-134420000D01*
X187360000Y-126420000D02*
X182950000Y-126420000D01*
X187440000Y-126420000D02*
X187360000Y-126420000D01*
X187510000Y-126410000D02*
X187440000Y-126420000D01*
X187550000Y-126400000D02*
X187510000Y-126410000D01*
X187620000Y-126380000D02*
X187550000Y-126400000D01*
X187690000Y-126350000D02*
X187620000Y-126380000D01*
X187750000Y-126310000D02*
X187690000Y-126350000D01*
X187780000Y-126290000D02*
X187750000Y-126310000D01*
X187810000Y-126270000D02*
X187780000Y-126290000D01*
X187870000Y-126220000D02*
X187810000Y-126270000D01*
X187920000Y-126170000D02*
X187870000Y-126220000D01*
X187950000Y-126140000D02*
X187920000Y-126170000D01*
X187990000Y-126080000D02*
X187950000Y-126140000D01*
X188030000Y-126010000D02*
X187990000Y-126080000D01*
X188050000Y-125940000D02*
X188030000Y-126010000D01*
X188080000Y-125870000D02*
X188050000Y-125940000D01*
X188090000Y-125800000D02*
X188080000Y-125870000D01*
X188100000Y-125760000D02*
X188090000Y-125800000D01*
X188100000Y-125690000D02*
X188100000Y-125760000D01*
X188100000Y-114640000D02*
X188100000Y-125690000D01*
X187160000Y-113930000D02*
X188100000Y-114640000D01*
X187160000Y-100820000D02*
X187160000Y-113930000D01*
X188050000Y-100110000D02*
X187160000Y-100820000D01*
X188040000Y-91080000D02*
X188050000Y-100110000D01*
X188040000Y-73860000D02*
X188040000Y-91080000D01*
X188040000Y-73760000D02*
X188040000Y-73860000D01*
X188030000Y-73660000D02*
X188040000Y-73760000D01*
X188020000Y-73560000D02*
X188030000Y-73660000D01*
X188000000Y-73460000D02*
X188020000Y-73560000D01*
X187980000Y-73370000D02*
X188000000Y-73460000D01*
X187950000Y-73270000D02*
X187980000Y-73370000D01*
X187920000Y-73170000D02*
X187950000Y-73270000D01*
X187880000Y-73080000D02*
X187920000Y-73170000D01*
X187840000Y-72990000D02*
X187880000Y-73080000D01*
X187800000Y-72900000D02*
X187840000Y-72990000D01*
X187750000Y-72820000D02*
X187800000Y-72900000D01*
X187690000Y-72730000D02*
X187750000Y-72820000D01*
X187630000Y-72650000D02*
X187690000Y-72730000D01*
X187570000Y-72570000D02*
X187630000Y-72650000D01*
X187510000Y-72500000D02*
X187570000Y-72570000D01*
X187440000Y-72430000D02*
X187510000Y-72500000D01*
X187360000Y-72360000D02*
X187440000Y-72430000D01*
X187290000Y-72300000D02*
X187360000Y-72360000D01*
X187210000Y-72240000D02*
X187290000Y-72300000D01*
X187130000Y-72180000D02*
X187210000Y-72240000D01*
X187040000Y-72130000D02*
X187130000Y-72180000D01*
X186950000Y-72080000D02*
X187040000Y-72130000D01*
X162950000Y-72050000D02*
X186950000Y-72080000D01*
X116850000Y-71980000D02*
X162950000Y-72050000D01*
X116810000Y-71980000D02*
X116850000Y-71980000D01*
X116770000Y-71980000D02*
X116810000Y-71980000D01*
X116730000Y-71990000D02*
X116770000Y-71980000D01*
X116690000Y-72000000D02*
X116730000Y-71990000D01*
X116650000Y-72000000D02*
X116690000Y-72000000D01*
X116610000Y-72020000D02*
X116650000Y-72000000D01*
X116570000Y-72030000D02*
X116610000Y-72020000D01*
X116540000Y-72040000D02*
X116570000Y-72030000D01*
X116500000Y-72060000D02*
X116540000Y-72040000D01*
X116460000Y-72080000D02*
X116500000Y-72060000D01*
X116430000Y-72100000D02*
X116460000Y-72080000D01*
X116390000Y-72120000D02*
X116430000Y-72100000D01*
X116360000Y-72150000D02*
X116390000Y-72120000D01*
X116330000Y-72170000D02*
X116360000Y-72150000D01*
X116300000Y-72200000D02*
X116330000Y-72170000D01*
X116270000Y-72230000D02*
X116300000Y-72200000D01*
X116240000Y-72260000D02*
X116270000Y-72230000D01*
X116220000Y-72290000D02*
X116240000Y-72260000D01*
X116190000Y-72320000D02*
X116220000Y-72290000D01*
X116170000Y-72360000D02*
X116190000Y-72320000D01*
X116150000Y-72390000D02*
X116170000Y-72360000D01*
X116130000Y-72430000D02*
X116150000Y-72390000D01*
X116120000Y-72460000D02*
X116130000Y-72430000D01*
X116100000Y-72500000D02*
X116120000Y-72460000D01*
X116090000Y-72540000D02*
X116100000Y-72500000D01*
X116080000Y-72580000D02*
X116090000Y-72540000D01*
X116070000Y-72620000D02*
X116080000Y-72580000D01*
X116060000Y-72660000D02*
X116070000Y-72620000D01*
X116060000Y-72700000D02*
X116060000Y-72660000D01*
X116050000Y-72780000D02*
X116060000Y-72700000D01*
X116050000Y-89370000D02*
X116050000Y-72780000D01*
X114660000Y-89360000D02*
X116050000Y-89370000D01*
X113930000Y-89360000D02*
X114660000Y-89360000D01*
X113840000Y-89410000D02*
X113930000Y-89360000D01*
X113750000Y-89470000D02*
X113840000Y-89410000D01*
X113670000Y-89530000D02*
X113750000Y-89470000D01*
X113580000Y-89590000D02*
X113670000Y-89530000D01*
X113500000Y-89660000D02*
X113580000Y-89590000D01*
X113430000Y-89730000D02*
X113500000Y-89660000D01*
X113360000Y-89810000D02*
X113430000Y-89730000D01*
X113290000Y-89890000D02*
X113360000Y-89810000D01*
X113230000Y-89970000D02*
X113290000Y-89890000D01*
X113170000Y-90060000D02*
X113230000Y-89970000D01*
X113110000Y-90140000D02*
X113170000Y-90060000D01*
X113060000Y-90240000D02*
X113110000Y-90140000D01*
X113020000Y-90330000D02*
X113060000Y-90240000D01*
X112980000Y-90430000D02*
X113020000Y-90330000D01*
X112940000Y-90530000D02*
X112980000Y-90430000D01*
X112910000Y-90630000D02*
X112940000Y-90530000D01*
X112890000Y-90730000D02*
X112910000Y-90630000D01*
X112870000Y-90830000D02*
X112890000Y-90730000D01*
X112860000Y-90930000D02*
X112870000Y-90830000D01*
X112850000Y-91040000D02*
X112860000Y-90930000D01*
M02*
