0
SECTION
2
HEADER
9
$INSUNITS
70
4
9
$ACADVER
1
AC1014
9
$HANDSEED
5
FFFF
0
ENDSEC
0
SECTION
2
TABLES
0
TABLE
2
VPORT
5
8
100
AcDbSymbolTable
0
ENDTAB
0
TABLE
2
LTYPE
5
5
100
AcDbSymbolTable
0
LTYPE
5
14
100
AcDbSymbolTableRecord
100
AcDbLinetypeTableRecord
2
BYBLOCK
70
0
0
LTYPE
5
15
100
AcDbSymbolTableRecord
100
AcDbLinetypeTableRecord
2
BYLAYER
70
0
0
ENDTAB
0
TABLE
2
LAYER
5
2
100
AcDbSymbolTable
70
2
0
LAYER
5
50
100
AcDbSymbolTableRecord
100
AcDbLayerTableRecord
2
0
70
0
6
CONTINUOUS
0
ENDTAB
0
TABLE
2
STYLE
5
3
100
AcDbSymbolTable
70
1
0
STYLE
5
11
100
AcDbSymbolTableRecord
100
AcDbTextStyleTableRecord
2
STANDARD
70
0
0
ENDTAB
0
TABLE
2
VIEW
5
6
100
AcDbSymbolTable
70
0
0
ENDTAB
0
TABLE
2
UCS
5
7
100
AcDbSymbolTable
70
0
0
ENDTAB
0
TABLE
2
APPID
5
9
100
AcDbSymbolTable
70
2
0
APPID
5
12
100
AcDbSymbolTableRecord
100
AcDbRegAppTableRecord
2
ACAD
70
0
0
ENDTAB
0
TABLE
2
DIMSTYLE
5
A
100
AcDbSymbolTable
70
1
0
ENDTAB
0
TABLE
2
BLOCK_RECORD
5
1
100
AcDbSymbolTable
70
1
0
BLOCK_RECORD
5
1F
100
AcDbSymbolTableRecord
100
AcDbBlockTableRecord
2
*MODEL_SPACE
0
BLOCK_RECORD
5
1B
100
AcDbSymbolTableRecord
100
AcDbBlockTableRecord
2
*PAPER_SPACE
0
ENDTAB
0
ENDSEC
0
SECTION
2
BLOCKS
0
BLOCK
5
20
100
AcDbEntity
100
AcDbBlockBegin
2
*MODEL_SPACE
0
ENDBLK
5
21
100
AcDbEntity
100
AcDbBlockEnd
0
BLOCK
5
1C
100
AcDbEntity
100
AcDbBlockBegin
2
*PAPER_SPACE
0
ENDBLK
5
1D
100
AcDbEntity
100
AcDbBlockEnd
0
ENDSEC
0
SECTION
2
ENTITIES
0
LWPOLYLINE
5
100
100
AcDbEntity
8
0
100
AcDbPolyline
90
36
70
1
43
0.0
10
-30.000000000000007
20
-18.500000000000007
10
-28.500000000000007
20
-18.500000000000007
42
-0.99999999999999989
10
-28.500000000000007
20
-20.499999999999989
10
-30.000000000000007
20
-20.499999999999989
10
-30.000000000000007
20
-22.499999999999996
10
-28.500000000000007
20
-22.5
42
-0.41421356237309503
10
-27.500000000000004
20
-23.5
10
-27.499999999999986
20
-24.749999999999993
42
-0.41421356237309503
10
-28.500000000000007
20
-25.750000000000011
10
-30.000000000000007
20
-25.750000000000011
10
-29.999999999999996
20
-50.500000000000007
42
0.41421356237309503
10
-27.999999999999989
20
-52.500000000000007
10
-10.500000000000009
20
-52.500000000000014
42
-0.99999999999999989
10
-10.499999999999996
20
-54.500000000000014
10
-13.499999999999998
20
-54.500000000000028
42
0.99999999999999989
10
-13.499999999999998
20
-71.500000000000043
10
13.500000000000004
20
-71.500000000000028
42
0.99999999999999989
10
13.500000000000005
20
-54.500000000000014
10
10.499999999999998
20
-54.500000000000014
42
-0.99999999999999989
10
10.499999999999998
20
-52.500000000000014
10
28.000000000000007
20
-52.500000000000007
42
0.41421356237309503
10
30.000000000000007
20
-50.500000000000007
10
30.000000000000007
20
-25.750000000000011
10
28.500000000000007
20
-25.750000000000011
42
-0.41421356237309503
10
27.499999999999986
20
-24.749999999999993
10
27.500000000000004
20
-23.5
42
-0.41421356237309503
10
28.500000000000007
20
-22.5
10
30.000000000000007
20
-22.499999999999996
10
30.000000000000007
20
-20.499999999999989
10
28.500000000000007
20
-20.499999999999989
42
-0.99999999999999989
10
28.500000000000007
20
-18.500000000000004
10
30.000000000000007
20
-18.500000000000007
10
29.999999999999996
20
50.499999999999986
42
0.41421356237309503
10
27.999999999999989
20
52.499999999999993
10
-28.000000000000007
20
52.5
42
0.41421356237309503
10
-30.000000000000007
20
50.499999999999986
0
LWPOLYLINE
5
101
100
AcDbEntity
8
0
100
AcDbPolyline
90
6
70
1
43
0.0
10
13.5
20
-66
42
0.99999999999999989
10
13.500000000000004
20
-60.000000000000028
10
-13.499999999999998
20
-60.000000000000043
42
0.99999999999999989
10
-13.5
20
-66.000000000000014
10
-2.9995037260636623
20
-66.000000000000014
42
0.98197393187691784
10
2.9995037260636614
20
-66.000000000000014
0
LINE
5
102
100
AcDbEntity
8
0
100
AcDbLine
10
22.350000000000012
20
33.650000000000006
30
0
11
21.650000000000013
21
33.650000000000006
31
0
0
ARC
5
103
100
AcDbEntity
8
0
100
AcDbCircle
10
21.650000000000013
20
33.899999999999999
30
0
40
0.24999999999999911
210
0
220
0
230
1
100
AcDbArc
50
180
51
270
0
LINE
5
104
100
AcDbEntity
8
0
100
AcDbLine
10
21.400000000000013
20
33.899999999999999
30
0
11
21.400000000000013
21
34.549999999999997
31
0
0
ARC
5
105
100
AcDbEntity
8
0
100
AcDbCircle
10
21.650000000000013
20
34.549999999999997
30
0
40
0.24999999999999467
210
0
220
-0
230
1
100
AcDbArc
50
90
51
180
0
ARC
5
106
100
AcDbEntity
8
0
100
AcDbCircle
10
22.350000000000012
20
34.549999999999997
30
0
40
0.24999999999999911
210
0
220
0
230
1
100
AcDbArc
50
0
51
90
0
LINE
5
107
100
AcDbEntity
8
0
100
AcDbLine
10
22.600000000000012
20
34.549999999999997
30
0
11
22.600000000000012
21
33.899999999999999
31
0
0
ARC
5
108
100
AcDbEntity
8
0
100
AcDbCircle
10
22.350000000000012
20
33.899999999999999
30
0
40
0.24999999999999911
210
0
220
0
230
1
100
AcDbArc
50
-90
51
0
0
LINE
5
109
100
AcDbEntity
8
0
100
AcDbLine
10
19.150000000000013
20
26.34999999999998
30
0
11
19.150000000000013
21
26.999999999999993
31
0
0
ARC
5
110
100
AcDbEntity
8
0
100
AcDbCircle
10
19.400000000000013
20
26.999999999999993
30
0
40
0.24999999999999911
210
0
220
-0
230
1
100
AcDbArc
50
90
51
180
0
LINE
5
111
100
AcDbEntity
8
0
100
AcDbLine
10
19.400000000000013
20
27.249999999999993
30
0
11
20.100000000000012
21
27.249999999999986
31
0
0
ARC
5
112
100
AcDbEntity
8
0
100
AcDbCircle
10
20.100000000000012
20
26.999999999999989
30
0
40
0.24999999999999911
210
0
220
0
230
1
100
AcDbArc
50
0
51
90
0
LINE
5
113
100
AcDbEntity
8
0
100
AcDbLine
10
20.350000000000009
20
26.999999999999989
30
0
11
20.350000000000016
21
26.34999999999998
31
0
0
ARC
5
114
100
AcDbEntity
8
0
100
AcDbCircle
10
20.100000000000012
20
26.34999999999998
30
0
40
0.24999999999999911
210
0
220
0
230
1
100
AcDbArc
50
-90
51
0
0
ARC
5
115
100
AcDbEntity
8
0
100
AcDbCircle
10
19.400000000000013
20
26.34999999999998
30
0
40
0.24999999999999911
210
0
220
0
230
1
100
AcDbArc
50
180
51
270
0
LINE
5
116
100
AcDbEntity
8
0
100
AcDbLine
10
20.100000000000019
20
21.149999999999988
30
0
11
19.400000000000016
21
21.149999999999988
31
0
0
ARC
5
117
100
AcDbEntity
8
0
100
AcDbCircle
10
19.400000000000016
20
21.399999999999988
30
0
40
0.24999999999999911
210
0
220
0
230
1
100
AcDbArc
50
180
51
270
0
LINE
5
118
100
AcDbEntity
8
0
100
AcDbLine
10
19.15000000000002
20
21.399999999999988
30
0
11
19.15000000000002
21
22.050000000000001
31
0
0
ARC
5
119
100
AcDbEntity
8
0
100
AcDbCircle
10
19.400000000000016
20
22.050000000000001
30
0
40
0.24999999999999467
210
0
220
-0
230
1
100
AcDbArc
50
90
51
180
0
ARC
5
120
100
AcDbEntity
8
0
100
AcDbCircle
10
20.100000000000016
20
22.049999999999997
30
0
40
0.24999999999999911
210
0
220
0
230
1
100
AcDbArc
50
0
51
90
0
LINE
5
121
100
AcDbEntity
8
0
100
AcDbLine
10
20.350000000000016
20
22.049999999999997
30
0
11
20.350000000000016
21
21.399999999999988
31
0
0
ARC
5
122
100
AcDbEntity
8
0
100
AcDbCircle
10
20.100000000000019
20
21.399999999999988
30
0
40
0.24999999999999911
210
0
220
0
230
1
100
AcDbArc
50
-90
51
0
0
LWPOLYLINE
5
123
100
AcDbEntity
8
0
100
AcDbPolyline
90
8
70
1
43
0.0
10
23.650000000000016
20
21.399999999999988
10
23.650000000000016
20
22.049999999999997
42
-0.41421356237309503
10
23.900000000000013
20
22.299999999999997
10
24.600000000000012
20
22.299999999999997
42
-0.41421356237309503
10
24.850000000000012
20
22.049999999999997
10
24.850000000000012
20
21.399999999999988
42
-0.41421356237309503
10
24.600000000000012
20
21.149999999999988
10
23.900000000000013
20
21.149999999999988
42
-0.41421356237309503
0
ARC
5
124
100
AcDbEntity
8
0
100
AcDbCircle
10
23.90000000000002
20
13.84999999999998
30
0
40
0.24999999999999911
210
0
220
0
230
1
100
AcDbArc
50
180
51
270
0
LINE
5
125
100
AcDbEntity
8
0
100
AcDbLine
10
23.65000000000002
20
13.84999999999998
30
0
11
23.650000000000016
21
14.499999999999986
31
0
0
ARC
5
126
100
AcDbEntity
8
0
100
AcDbCircle
10
23.90000000000002
20
14.499999999999986
30
0
40
0.25000000000000133
210
0
220
-0
230
1
100
AcDbArc
50
90
51
180
0
LINE
5
127
100
AcDbEntity
8
0
100
AcDbLine
10
23.90000000000002
20
14.749999999999988
30
0
11
24.600000000000016
21
14.749999999999988
31
0
0
ARC
5
128
100
AcDbEntity
8
0
100
AcDbCircle
10
24.600000000000016
20
14.499999999999986
30
0
40
0.24999999999999911
210
0
220
0
230
1
100
AcDbArc
50
0
51
90
0
LINE
5
129
100
AcDbEntity
8
0
100
AcDbLine
10
24.850000000000016
20
14.499999999999986
30
0
11
24.850000000000016
21
13.84999999999998
31
0
0
ARC
5
130
100
AcDbEntity
8
0
100
AcDbCircle
10
24.600000000000016
20
13.84999999999998
30
0
40
0.24999999999999911
210
0
220
0
230
1
100
AcDbArc
50
-90
51
0
0
LINE
5
131
100
AcDbEntity
8
0
100
AcDbLine
10
22.350000000000016
20
8.6499999999999915
30
0
11
21.65000000000002
21
8.6499999999999915
31
0
0
ARC
5
132
100
AcDbEntity
8
0
100
AcDbCircle
10
21.65000000000002
20
8.8999999999999915
30
0
40
0.25000000000000355
210
0
220
0
230
1
100
AcDbArc
50
180
51
270
0
LINE
5
133
100
AcDbEntity
8
0
100
AcDbLine
10
21.400000000000013
20
8.8999999999999915
30
0
11
21.40000000000002
21
9.5499999999999972
31
0
0
ARC
5
134
100
AcDbEntity
8
0
100
AcDbCircle
10
21.65000000000002
20
9.5499999999999972
30
0
40
0.24999999999999356
210
0
220
-0
230
1
100
AcDbArc
50
90
51
180
0
ARC
5
135
100
AcDbEntity
8
0
100
AcDbCircle
10
22.350000000000016
20
9.5499999999999883
30
0
40
0.24999999999999911
210
0
220
0
230
1
100
AcDbArc
50
0
51
90
0
LINE
5
136
100
AcDbEntity
8
0
100
AcDbLine
10
22.600000000000016
20
9.5499999999999883
30
0
11
22.600000000000016
21
8.8999999999999915
31
0
0
ARC
5
137
100
AcDbEntity
8
0
100
AcDbCircle
10
22.350000000000016
20
8.8999999999999915
30
0
40
0.25000000000000022
210
0
220
0
230
1
100
AcDbArc
50
-90
51
0
0
LINE
5
138
100
AcDbEntity
8
0
100
AcDbLine
10
19.15000000000002
20
1.3499999999999761
30
0
11
19.15000000000002
21
1.9999999999999882
31
0
0
ARC
5
139
100
AcDbEntity
8
0
100
AcDbCircle
10
19.400000000000016
20
1.9999999999999882
30
0
40
0.25000000000000022
210
0
220
-0
230
1
100
AcDbArc
50
90
51
180
0
LINE
5
140
100
AcDbEntity
8
0
100
AcDbLine
10
19.400000000000016
20
2.2499999999999885
30
0
11
20.100000000000016
21
2.2499999999999813
31
0
0
ARC
5
141
100
AcDbEntity
8
0
100
AcDbCircle
10
20.100000000000016
20
1.9999999999999809
30
0
40
0.24999999999999911
210
0
220
0
230
1
100
AcDbArc
50
0
51
90
0
LINE
5
142
100
AcDbEntity
8
0
100
AcDbLine
10
20.350000000000016
20
1.9999999999999809
30
0
11
20.350000000000016
21
1.3499999999999761
31
0
0
ARC
5
143
100
AcDbEntity
8
0
100
AcDbCircle
10
20.100000000000016
20
1.3499999999999761
30
0
40
0.25000000000000022
210
0
220
0
230
1
100
AcDbArc
50
-90
51
0
0
ARC
5
144
100
AcDbEntity
8
0
100
AcDbCircle
10
19.400000000000016
20
1.3499999999999761
30
0
40
0.24999999999999911
210
0
220
0
230
1
100
AcDbArc
50
180
51
270
0
LINE
5
145
100
AcDbEntity
8
0
100
AcDbLine
10
20.10000000000003
20
-3.8500000000000134
30
0
11
19.400000000000023
21
-3.8500000000000134
31
0
0
ARC
5
146
100
AcDbEntity
8
0
100
AcDbCircle
10
19.400000000000023
20
-3.600000000000013
30
0
40
0.25000000000000133
210
0
220
0
230
1
100
AcDbArc
50
180
51
270
0
LINE
5
147
100
AcDbEntity
8
0
100
AcDbLine
10
19.150000000000023
20
-3.600000000000013
30
0
11
19.150000000000027
21
-2.9500000000000011
31
0
0
ARC
5
148
100
AcDbEntity
8
0
100
AcDbCircle
10
19.400000000000023
20
-2.9500000000000011
30
0
40
0.24999999999999134
210
0
220
-0
230
1
100
AcDbArc
50
90
51
180
0
ARC
5
149
100
AcDbEntity
8
0
100
AcDbCircle
10
20.100000000000023
20
-2.9500000000000082
30
0
40
0.25000000000000355
210
0
220
0
230
1
100
AcDbArc
50
0
51
90
0
LINE
5
150
100
AcDbEntity
8
0
100
AcDbLine
10
20.35000000000003
20
-2.9500000000000082
30
0
11
20.350000000000023
21
-3.600000000000013
31
0
0
ARC
5
151
100
AcDbEntity
8
0
100
AcDbCircle
10
20.10000000000003
20
-3.600000000000013
30
0
40
0.25000000000000022
210
0
220
0
230
1
100
AcDbArc
50
-90
51
0
0
ARC
5
152
100
AcDbEntity
8
0
100
AcDbCircle
10
23.900000000000023
20
-11.150000000000022
30
0
40
0.24999999999999911
210
0
220
0
230
1
100
AcDbArc
50
180
51
270
0
LINE
5
153
100
AcDbEntity
8
0
100
AcDbLine
10
23.650000000000023
20
-11.150000000000022
30
0
11
23.650000000000023
21
-10.500000000000016
31
0
0
ARC
5
154
100
AcDbEntity
8
0
100
AcDbCircle
10
23.900000000000023
20
-10.500000000000016
30
0
40
0.24999999999999911
210
0
220
-0
230
1
100
AcDbArc
50
90
51
180
0
LINE
5
155
100
AcDbEntity
8
0
100
AcDbLine
10
23.900000000000023
20
-10.250000000000018
30
0
11
24.600000000000026
21
-10.250000000000018
31
0
0
ARC
5
156
100
AcDbEntity
8
0
100
AcDbCircle
10
24.600000000000026
20
-10.500000000000016
30
0
40
0.24999999999999911
210
0
220
0
230
1
100
AcDbArc
50
0
51
90
0
LINE
5
157
100
AcDbEntity
8
0
100
AcDbLine
10
24.850000000000026
20
-10.500000000000016
30
0
11
24.850000000000026
21
-11.150000000000022
31
0
0
ARC
5
158
100
AcDbEntity
8
0
100
AcDbCircle
10
24.600000000000026
20
-11.150000000000022
30
0
40
0.24999999999999911
210
0
220
0
230
1
100
AcDbArc
50
-90
51
0
0
LINE
5
159
100
AcDbEntity
8
0
100
AcDbLine
10
11.350000000000009
20
46.150000000000006
30
0
11
10.650000000000011
21
46.150000000000006
31
0
0
ARC
5
160
100
AcDbEntity
8
0
100
AcDbCircle
10
10.650000000000011
20
46.399999999999999
30
0
40
0.25000000000000133
210
0
220
0
230
1
100
AcDbArc
50
180
51
270
0
LINE
5
161
100
AcDbEntity
8
0
100
AcDbLine
10
10.400000000000009
20
46.399999999999999
30
0
11
10.400000000000009
21
47.050000000000011
31
0
0
ARC
5
162
100
AcDbEntity
8
0
100
AcDbCircle
10
10.650000000000011
20
47.050000000000011
30
0
40
0.24999999999999467
210
0
220
-0
230
1
100
AcDbArc
50
90
51
180
0
ARC
5
163
100
AcDbEntity
8
0
100
AcDbCircle
10
11.350000000000009
20
47.049999999999997
30
0
40
0.25000000000000133
210
0
220
0
230
1
100
AcDbArc
50
0
51
90
0
LINE
5
164
100
AcDbEntity
8
0
100
AcDbLine
10
11.60000000000001
20
47.049999999999997
30
0
11
11.60000000000001
21
46.399999999999999
31
0
0
ARC
5
165
100
AcDbEntity
8
0
100
AcDbCircle
10
11.350000000000009
20
46.399999999999999
30
0
40
0.24999999999999467
210
0
220
0
230
1
100
AcDbArc
50
-90
51
0
0
LINE
5
166
100
AcDbEntity
8
0
100
AcDbLine
10
8.150000000000011
20
38.84999999999998
30
0
11
8.150000000000011
21
39.499999999999993
31
0
0
ARC
5
167
100
AcDbEntity
8
0
100
AcDbCircle
10
8.4000000000000128
20
39.499999999999993
30
0
40
0.24999999999999911
210
0
220
-0
230
1
100
AcDbArc
50
90
51
180
0
LINE
5
168
100
AcDbEntity
8
0
100
AcDbLine
10
8.4000000000000128
20
39.749999999999993
30
0
11
9.1000000000000103
21
39.749999999999986
31
0
0
ARC
5
169
100
AcDbEntity
8
0
100
AcDbCircle
10
9.1000000000000103
20
39.499999999999986
30
0
40
0.25000000000000022
210
0
220
0
230
1
100
AcDbArc
50
0
51
90
0
LINE
5
170
100
AcDbEntity
8
0
100
AcDbLine
10
9.3500000000000103
20
39.499999999999986
30
0
11
9.3500000000000103
21
38.84999999999998
31
0
0
ARC
5
171
100
AcDbEntity
8
0
100
AcDbCircle
10
9.1000000000000103
20
38.84999999999998
30
0
40
0.24999999999999911
210
0
220
0
230
1
100
AcDbArc
50
-90
51
0
0
ARC
5
172
100
AcDbEntity
8
0
100
AcDbCircle
10
8.4000000000000128
20
38.84999999999998
30
0
40
0.25000000000000022
210
0
220
0
230
1
100
AcDbArc
50
180
51
270
0
LINE
5
173
100
AcDbEntity
8
0
100
AcDbLine
10
9.1000000000000192
20
33.649999999999984
30
0
11
8.4000000000000163
21
33.649999999999984
31
0
0
ARC
5
174
100
AcDbEntity
8
0
100
AcDbCircle
10
8.4000000000000163
20
33.899999999999991
30
0
40
0.25000000000000022
210
0
220
0
230
1
100
AcDbArc
50
180
51
270
0
LINE
5
175
100
AcDbEntity
8
0
100
AcDbLine
10
8.1500000000000163
20
33.899999999999991
30
0
11
8.1500000000000199
21
34.549999999999997
31
0
0
ARC
5
176
100
AcDbEntity
8
0
100
AcDbCircle
10
8.4000000000000163
20
34.549999999999997
30
0
40
0.24999999999999467
210
0
220
-0
230
1
100
AcDbArc
50
90
51
180
0
ARC
5
177
100
AcDbEntity
8
0
100
AcDbCircle
10
9.1000000000000156
20
34.549999999999997
30
0
40
0.25000000000000022
210
0
220
0
230
1
100
AcDbArc
50
0
51
90
0
LINE
5
178
100
AcDbEntity
8
0
100
AcDbLine
10
9.3500000000000156
20
34.549999999999997
30
0
11
9.3500000000000156
21
33.899999999999991
31
0
0
ARC
5
179
100
AcDbEntity
8
0
100
AcDbCircle
10
9.1000000000000192
20
33.899999999999991
30
0
40
0.25000000000000355
210
0
220
0
230
1
100
AcDbArc
50
-90
51
0
0
LWPOLYLINE
5
180
100
AcDbEntity
8
0
100
AcDbPolyline
90
8
70
1
43
0.0
10
12.650000000000013
20
33.899999999999991
10
12.650000000000013
20
34.549999999999997
42
-0.41421356237309503
10
12.900000000000011
20
34.799999999999997
10
13.600000000000012
20
34.799999999999997
42
-0.41421356237309503
10
13.850000000000012
20
34.549999999999997
10
13.850000000000012
20
33.899999999999991
42
-0.41421356237309503
10
13.600000000000012
20
33.649999999999991
10
12.900000000000011
20
33.649999999999991
42
-0.41421356237309503
0
ARC
5
181
100
AcDbEntity
8
0
100
AcDbCircle
10
12.900000000000016
20
26.34999999999998
30
0
40
0.25000000000000133
210
0
220
0
230
1
100
AcDbArc
50
180
51
270
0
LINE
5
182
100
AcDbEntity
8
0
100
AcDbLine
10
12.650000000000015
20
26.34999999999998
30
0
11
12.650000000000015
21
26.999999999999989
31
0
0
ARC
5
183
100
AcDbEntity
8
0
100
AcDbCircle
10
12.900000000000016
20
26.999999999999989
30
0
40
0.24999999999999911
210
0
220
-0
230
1
100
AcDbArc
50
90
51
180
0
LINE
5
184
100
AcDbEntity
8
0
100
AcDbLine
10
12.900000000000016
20
27.249999999999986
30
0
11
13.600000000000014
21
27.249999999999986
31
0
0
ARC
5
185
100
AcDbEntity
8
0
100
AcDbCircle
10
13.600000000000014
20
26.999999999999989
30
0
40
0.25000000000000133
210
0
220
0
230
1
100
AcDbArc
50
0
51
90
0
LINE
5
186
100
AcDbEntity
8
0
100
AcDbLine
10
13.850000000000016
20
26.999999999999989
30
0
11
13.850000000000016
21
26.34999999999998
31
0
0
ARC
5
187
100
AcDbEntity
8
0
100
AcDbCircle
10
13.600000000000014
20
26.34999999999998
30
0
40
0.24999999999999911
210
0
220
0
230
1
100
AcDbArc
50
-90
51
0
0
LINE
5
188
100
AcDbEntity
8
0
100
AcDbLine
10
11.350000000000014
20
21.149999999999999
30
0
11
10.650000000000015
21
21.149999999999999
31
0
0
ARC
5
189
100
AcDbEntity
8
0
100
AcDbCircle
10
10.650000000000015
20
21.399999999999999
30
0
40
0.25000000000000133
210
0
220
0
230
1
100
AcDbArc
50
180
51
270
0
LINE
5
190
100
AcDbEntity
8
0
100
AcDbLine
10
10.400000000000013
20
21.399999999999999
30
0
11
10.400000000000016
21
22.050000000000001
31
0
0
ARC
5
191
100
AcDbEntity
8
0
100
AcDbCircle
10
10.650000000000015
20
22.050000000000001
30
0
40
0.24999999999999467
210
0
220
-0
230
1
100
AcDbArc
50
90
51
180
0
ARC
5
192
100
AcDbEntity
8
0
100
AcDbCircle
10
11.350000000000014
20
22.049999999999997
30
0
40
0.25000000000000133
210
0
220
0
230
1
100
AcDbArc
50
0
51
90
0
LINE
5
193
100
AcDbEntity
8
0
100
AcDbLine
10
11.600000000000016
20
22.049999999999997
30
0
11
11.600000000000017
21
21.399999999999999
31
0
0
ARC
5
194
100
AcDbEntity
8
0
100
AcDbCircle
10
11.350000000000014
20
21.399999999999999
30
0
40
0.24999999999999911
210
0
220
0
230
1
100
AcDbArc
50
-90
51
0
0
LINE
5
195
100
AcDbEntity
8
0
100
AcDbLine
10
8.1500000000000163
20
13.84999999999998
30
0
11
8.1500000000000163
21
14.499999999999993
31
0
0
ARC
5
196
100
AcDbEntity
8
0
100
AcDbCircle
10
8.4000000000000163
20
14.499999999999993
30
0
40
0.24999999999999911
210
0
220
-0
230
1
100
AcDbArc
50
90
51
180
0
LINE
5
197
100
AcDbEntity
8
0
100
AcDbLine
10
8.4000000000000163
20
14.749999999999993
30
0
11
9.1000000000000156
21
14.749999999999988
31
0
0
ARC
5
198
100
AcDbEntity
8
0
100
AcDbCircle
10
9.1000000000000156
20
14.499999999999986
30
0
40
0.25000000000000022
210
0
220
0
230
1
100
AcDbArc
50
0
51
90
0
LINE
5
199
100
AcDbEntity
8
0
100
AcDbLine
10
9.3500000000000156
20
14.499999999999986
30
0
11
9.3500000000000156
21
13.84999999999998
31
0
0
ARC
5
200
100
AcDbEntity
8
0
100
AcDbCircle
10
9.1000000000000156
20
13.84999999999998
30
0
40
0.24999999999999911
210
0
220
0
230
1
100
AcDbArc
50
-90
51
0
0
ARC
5
201
100
AcDbEntity
8
0
100
AcDbCircle
10
8.4000000000000163
20
13.84999999999998
30
0
40
0.24999999999999911
210
0
220
0
230
1
100
AcDbArc
50
180
51
270
0
LINE
5
202
100
AcDbEntity
8
0
100
AcDbLine
10
9.1000000000000245
20
8.6499999999999844
30
0
11
8.4000000000000217
21
8.6499999999999844
31
0
0
ARC
5
203
100
AcDbEntity
8
0
100
AcDbCircle
10
8.4000000000000217
20
8.8999999999999844
30
0
40
0.25000000000000022
210
0
220
0
230
1
100
AcDbArc
50
180
51
270
0
LINE
5
204
100
AcDbEntity
8
0
100
AcDbLine
10
8.1500000000000217
20
8.8999999999999844
30
0
11
8.150000000000027
21
9.5499999999999972
31
0
0
ARC
5
205
100
AcDbEntity
8
0
100
AcDbCircle
10
8.4000000000000217
20
9.5499999999999972
30
0
40
0.24999999999999134
210
0
220
-0
230
1
100
AcDbArc
50
90
51
180
0
ARC
5
206
100
AcDbEntity
8
0
100
AcDbCircle
10
9.100000000000021
20
9.5499999999999883
30
0
40
0.25000000000000244
210
0
220
0
230
1
100
AcDbArc
50
0
51
90
0
LINE
5
207
100
AcDbEntity
8
0
100
AcDbLine
10
9.3500000000000245
20
9.5499999999999883
30
0
11
9.350000000000021
21
8.8999999999999844
31
0
0
ARC
5
208
100
AcDbEntity
8
0
100
AcDbCircle
10
9.1000000000000245
20
8.8999999999999844
30
0
40
0.25000000000000022
210
0
220
0
230
1
100
AcDbArc
50
-90
51
0
0
LWPOLYLINE
5
209
100
AcDbEntity
8
0
100
AcDbPolyline
90
8
70
1
43
0.0
10
12.650000000000015
20
8.8999999999999844
10
12.65000000000002
20
9.5499999999999883
42
-0.41421356237309503
10
12.900000000000018
20
9.7999999999999883
10
13.600000000000016
20
9.7999999999999883
42
-0.41421356237309503
10
13.850000000000016
20
9.5499999999999883
10
13.850000000000016
20
8.8999999999999844
42
-0.41421356237309503
10
13.600000000000016
20
8.6499999999999844
10
12.900000000000018
20
8.6499999999999808
42
-0.41421356237309503
0
ARC
5
210
100
AcDbEntity
8
0
100
AcDbCircle
10
12.90000000000002
20
1.3499999999999761
30
0
40
0.25000000000000133
210
0
220
0
230
1
100
AcDbArc
50
180
51
270
0
LINE
5
211
100
AcDbEntity
8
0
100
AcDbLine
10
12.65000000000002
20
1.3499999999999761
30
0
11
12.65000000000002
21
1.9999999999999809
31
0
0
ARC
5
212
100
AcDbEntity
8
0
100
AcDbCircle
10
12.90000000000002
20
1.9999999999999809
30
0
40
0.25000000000000022
210
0
220
-0
230
1
100
AcDbArc
50
90
51
180
0
LINE
5
213
100
AcDbEntity
8
0
100
AcDbLine
10
12.90000000000002
20
2.2499999999999813
30
0
11
13.600000000000021
21
2.2499999999999813
31
0
0
ARC
5
214
100
AcDbEntity
8
0
100
AcDbCircle
10
13.600000000000021
20
1.9999999999999809
30
0
40
0.24999999999999911
210
0
220
0
230
1
100
AcDbArc
50
0
51
90
0
LINE
5
215
100
AcDbEntity
8
0
100
AcDbLine
10
13.850000000000019
20
1.9999999999999809
30
0
11
13.850000000000019
21
1.3499999999999761
31
0
0
ARC
5
216
100
AcDbEntity
8
0
100
AcDbCircle
10
13.600000000000021
20
1.3499999999999761
30
0
40
0.25000000000000011
210
0
220
0
230
1
100
AcDbArc
50
-90
51
0
0
LINE
5
217
100
AcDbEntity
8
0
100
AcDbLine
10
11.350000000000019
20
-3.8500000000000068
30
0
11
10.65000000000002
21
-3.8500000000000068
31
0
0
ARC
5
218
100
AcDbEntity
8
0
100
AcDbCircle
10
10.65000000000002
20
-3.6000000000000059
30
0
40
0.25000000000000133
210
0
220
0
230
1
100
AcDbArc
50
180
51
270
0
LINE
5
219
100
AcDbEntity
8
0
100
AcDbLine
10
10.400000000000018
20
-3.6000000000000059
30
0
11
10.40000000000002
21
-2.9500000000000011
31
0
0
ARC
5
220
100
AcDbEntity
8
0
100
AcDbCircle
10
10.65000000000002
20
-2.9500000000000011
30
0
40
0.24999999999999301
210
0
220
-0
230
1
100
AcDbArc
50
90
51
180
0
ARC
5
221
100
AcDbEntity
8
0
100
AcDbCircle
10
11.350000000000019
20
-2.9500000000000082
30
0
40
0.24999999999999911
210
0
220
0
230
1
100
AcDbArc
50
0
51
90
0
LINE
5
222
100
AcDbEntity
8
0
100
AcDbLine
10
11.600000000000019
20
-2.9500000000000082
30
0
11
11.600000000000019
21
-3.6000000000000059
31
0
0
ARC
5
223
100
AcDbEntity
8
0
100
AcDbCircle
10
11.350000000000019
20
-3.6000000000000059
30
0
40
0.25000000000000078
210
0
220
0
230
1
100
AcDbArc
50
-90
51
0
0
LINE
5
224
100
AcDbEntity
8
0
100
AcDbLine
10
8.1500000000000217
20
-11.150000000000022
30
0
11
8.1500000000000217
21
-10.500000000000009
31
0
0
ARC
5
225
100
AcDbEntity
8
0
100
AcDbCircle
10
8.4000000000000217
20
-10.500000000000009
30
0
40
0.25000000000000133
210
0
220
-0
230
1
100
AcDbArc
50
90
51
180
0
LINE
5
226
100
AcDbEntity
8
0
100
AcDbLine
10
8.4000000000000217
20
-10.250000000000007
30
0
11
9.100000000000021
21
-10.250000000000018
31
0
0
ARC
5
227
100
AcDbEntity
8
0
100
AcDbCircle
10
9.100000000000021
20
-10.500000000000016
30
0
40
0.25000000000000022
210
0
220
0
230
1
100
AcDbArc
50
0
51
90
0
LINE
5
228
100
AcDbEntity
8
0
100
AcDbLine
10
9.350000000000021
20
-10.500000000000016
30
0
11
9.350000000000021
21
-11.150000000000022
31
0
0
ARC
5
229
100
AcDbEntity
8
0
100
AcDbCircle
10
9.100000000000021
20
-11.150000000000022
30
0
40
0.25000000000000133
210
0
220
0
230
1
100
AcDbArc
50
-90
51
0
0
ARC
5
230
100
AcDbEntity
8
0
100
AcDbCircle
10
8.4000000000000217
20
-11.150000000000022
30
0
40
0.25000000000000022
210
0
220
0
230
1
100
AcDbArc
50
180
51
270
0
LINE
5
231
100
AcDbEntity
8
0
100
AcDbLine
10
-1.8999999999999817
20
46.149999999999991
30
0
11
-2.5999999999999841
21
46.149999999999991
31
0
0
ARC
5
232
100
AcDbEntity
8
0
100
AcDbCircle
10
-2.5999999999999841
20
46.399999999999999
30
0
40
0.25000000000000022
210
0
220
0
230
1
100
AcDbArc
50
180
51
270
0
LINE
5
233
100
AcDbEntity
8
0
100
AcDbLine
10
-2.8499999999999841
20
46.399999999999999
30
0
11
-2.849999999999981
21
47.050000000000011
31
0
0
ARC
5
234
100
AcDbEntity
8
0
100
AcDbCircle
10
-2.5999999999999841
20
47.050000000000011
30
0
40
0.24999999999999467
210
0
220
-0
230
1
100
AcDbArc
50
90
51
180
0
ARC
5
235
100
AcDbEntity
8
0
100
AcDbCircle
10
-1.899999999999985
20
47.049999999999997
30
0
40
0.25000000000000022
210
0
220
0
230
1
100
AcDbArc
50
0
51
90
0
LINE
5
236
100
AcDbEntity
8
0
100
AcDbLine
10
-1.6499999999999848
20
47.049999999999997
30
0
11
-1.6499999999999848
21
46.399999999999999
31
0
0
ARC
5
237
100
AcDbEntity
8
0
100
AcDbCircle
10
-1.8999999999999817
20
46.399999999999999
30
0
40
0.25000000000000355
210
0
220
0
230
1
100
AcDbArc
50
-90
51
0
0
LWPOLYLINE
5
238
100
AcDbEntity
8
0
100
AcDbPolyline
90
8
70
1
43
0.0
10
1.6500000000000092
20
46.399999999999999
10
1.6500000000000059
20
47.049999999999997
42
-0.41421356237309503
10
1.9000000000000095
20
47.300000000000004
10
2.6000000000000085
20
47.300000000000004
42
-0.41421356237309503
10
2.8500000000000085
20
47.049999999999997
10
2.8500000000000121
20
46.399999999999999
42
-0.41421356237309503
10
2.6000000000000085
20
46.149999999999991
10
1.9000000000000095
20
46.149999999999991
42
-0.41421356237309503
0
ARC
5
239
100
AcDbEntity
8
0
100
AcDbCircle
10
1.9000000000000128
20
38.84999999999998
30
0
40
0.25000000000000022
210
0
220
0
230
1
100
AcDbArc
50
180
51
270
0
LINE
5
240
100
AcDbEntity
8
0
100
AcDbLine
10
1.6500000000000126
20
38.84999999999998
30
0
11
1.6500000000000126
21
39.499999999999986
31
0
0
ARC
5
241
100
AcDbEntity
8
0
100
AcDbCircle
10
1.9000000000000128
20
39.499999999999986
30
0
40
0.24999999999999911
210
0
220
-0
230
1
100
AcDbArc
50
90
51
180
0
LINE
5
242
100
AcDbEntity
8
0
100
AcDbLine
10
1.9000000000000128
20
39.749999999999986
30
0
11
2.6000000000000121
21
39.749999999999986
31
0
0
ARC
5
243
100
AcDbEntity
8
0
100
AcDbCircle
10
2.6000000000000121
20
39.499999999999986
30
0
40
0.25000000000000022
210
0
220
0
230
1
100
AcDbArc
50
0
51
90
0
LINE
5
244
100
AcDbEntity
8
0
100
AcDbLine
10
2.8500000000000125
20
39.499999999999986
30
0
11
2.8500000000000121
21
38.84999999999998
31
0
0
ARC
5
245
100
AcDbEntity
8
0
100
AcDbCircle
10
2.6000000000000121
20
38.84999999999998
30
0
40
0.24999999999999911
210
0
220
0
230
1
100
AcDbArc
50
-90
51
0
0
LINE
5
246
100
AcDbEntity
8
0
100
AcDbLine
10
0.35000000000001358
20
33.650000000000006
30
0
11
-0.34999999999998582
21
33.650000000000006
31
0
0
ARC
5
247
100
AcDbEntity
8
0
100
AcDbCircle
10
-0.34999999999998582
20
33.899999999999999
30
0
40
0.25000000000000022
210
0
220
0
230
1
100
AcDbArc
50
180
51
270
0
LINE
5
248
100
AcDbEntity
8
0
100
AcDbLine
10
-0.59999999999998599
20
33.899999999999999
30
0
11
-0.59999999999998599
21
34.549999999999997
31
0
0
ARC
5
249
100
AcDbEntity
8
0
100
AcDbCircle
10
-0.34999999999998582
20
34.549999999999997
30
0
40
0.24999999999999467
210
0
220
-0
230
1
100
AcDbArc
50
90
51
180
0
ARC
5
250
100
AcDbEntity
8
0
100
AcDbCircle
10
0.35000000000001358
20
34.549999999999997
30
0
40
0.25000000000000022
210
0
220
0
230
1
100
AcDbArc
50
0
51
90
0
LINE
5
251
100
AcDbEntity
8
0
100
AcDbLine
10
0.60000000000001374
20
34.549999999999997
30
0
11
0.60000000000001374
21
33.899999999999999
31
0
0
ARC
5
252
100
AcDbEntity
8
0
100
AcDbCircle
10
0.35000000000001358
20
33.899999999999999
30
0
40
0.24999999999999911
210
0
220
0
230
1
100
AcDbArc
50
-90
51
0
0
LINE
5
253
100
AcDbEntity
8
0
100
AcDbLine
10
-2.8499999999999845
20
26.34999999999998
30
0
11
-2.8499999999999845
21
26.999999999999993
31
0
0
ARC
5
254
100
AcDbEntity
8
0
100
AcDbCircle
10
-2.5999999999999841
20
26.999999999999993
30
0
40
0.24999999999999911
210
0
220
-0
230
1
100
AcDbArc
50
90
51
180
0
LINE
5
255
100
AcDbEntity
8
0
100
AcDbLine
10
-2.5999999999999841
20
27.249999999999993
30
0
11
-1.899999999999985
21
27.249999999999986
31
0
0
ARC
5
256
100
AcDbEntity
8
0
100
AcDbCircle
10
-1.899999999999985
20
26.999999999999989
30
0
40
0.25000000000000022
210
0
220
0
230
1
100
AcDbArc
50
0
51
90
0
LINE
5
257
100
AcDbEntity
8
0
100
AcDbLine
10
-1.6499999999999848
20
26.999999999999989
30
0
11
-1.6499999999999848
21
26.34999999999998
31
0
0
ARC
5
258
100
AcDbEntity
8
0
100
AcDbCircle
10
-1.899999999999985
20
26.34999999999998
30
0
40
0.24999999999999911
210
0
220
0
230
1
100
AcDbArc
50
-90
51
0
0
ARC
5
259
100
AcDbEntity
8
0
100
AcDbCircle
10
-2.5999999999999841
20
26.34999999999998
30
0
40
0.25000000000000078
210
0
220
0
230
1
100
AcDbArc
50
180
51
270
0
LINE
5
260
100
AcDbEntity
8
0
100
AcDbLine
10
-1.8999999999999784
20
21.149999999999988
30
0
11
-2.599999999999981
21
21.149999999999988
31
0
0
ARC
5
261
100
AcDbEntity
8
0
100
AcDbCircle
10
-2.599999999999981
20
21.399999999999988
30
0
40
0.25000000000000022
210
0
220
0
230
1
100
AcDbArc
50
180
51
270
0
LINE
5
262
100
AcDbEntity
8
0
100
AcDbLine
10
-2.8499999999999814
20
21.399999999999988
30
0
11
-2.8499999999999774
21
22.050000000000001
31
0
0
ARC
5
263
100
AcDbEntity
8
0
100
AcDbCircle
10
-2.599999999999981
20
22.050000000000001
30
0
40
0.24999999999999467
210
0
220
-0
230
1
100
AcDbArc
50
90
51
180
0
ARC
5
264
100
AcDbEntity
8
0
100
AcDbCircle
10
-1.8999999999999817
20
22.049999999999997
30
0
40
0.25000000000000022
210
0
220
0
230
1
100
AcDbArc
50
0
51
90
0
LINE
5
265
100
AcDbEntity
8
0
100
AcDbLine
10
-1.6499999999999815
20
22.049999999999997
30
0
11
-1.6499999999999815
21
21.399999999999988
31
0
0
ARC
5
266
100
AcDbEntity
8
0
100
AcDbCircle
10
-1.8999999999999784
20
21.399999999999988
30
0
40
0.24999999999999911
210
0
220
0
230
1
100
AcDbArc
50
-90
51
0
0
LWPOLYLINE
5
267
100
AcDbEntity
8
0
100
AcDbPolyline
90
8
70
1
43
0.0
10
1.6500000000000126
20
21.399999999999988
10
1.6500000000000137
20
22.049999999999997
42
-0.41421356237309503
10
1.9000000000000128
20
22.299999999999997
10
2.6000000000000121
20
22.299999999999997
42
-0.41421356237309503
10
2.8500000000000125
20
22.049999999999997
10
2.8500000000000112
20
21.399999999999988
42
-0.41421356237309503
10
2.6000000000000121
20
21.149999999999988
10
1.9000000000000128
20
21.149999999999988
42
-0.41421356237309503
0
ARC
5
268
100
AcDbEntity
8
0
100
AcDbCircle
10
1.9000000000000163
20
13.84999999999998
30
0
40
0.25000000000000022
210
0
220
0
230
1
100
AcDbArc
50
180
51
270
0
LINE
5
269
100
AcDbEntity
8
0
100
AcDbLine
10
1.6500000000000161
20
13.84999999999998
30
0
11
1.6500000000000161
21
14.499999999999986
31
0
0
ARC
5
270
100
AcDbEntity
8
0
100
AcDbCircle
10
1.9000000000000163
20
14.499999999999986
30
0
40
0.25000000000000133
210
0
220
-0
230
1
100
AcDbArc
50
90
51
180
0
LINE
5
271
100
AcDbEntity
8
0
100
AcDbLine
10
1.9000000000000163
20
14.749999999999988
30
0
11
2.6000000000000156
21
14.749999999999988
31
0
0
ARC
5
272
100
AcDbEntity
8
0
100
AcDbCircle
10
2.6000000000000156
20
14.499999999999986
30
0
40
0.25000000000000022
210
0
220
0
230
1
100
AcDbArc
50
0
51
90
0
LINE
5
273
100
AcDbEntity
8
0
100
AcDbLine
10
2.8500000000000156
20
14.499999999999986
30
0
11
2.8500000000000156
21
13.84999999999998
31
0
0
ARC
5
274
100
AcDbEntity
8
0
100
AcDbCircle
10
2.6000000000000156
20
13.84999999999998
30
0
40
0.24999999999999911
210
0
220
0
230
1
100
AcDbArc
50
-90
51
0
0
LINE
5
275
100
AcDbEntity
8
0
100
AcDbLine
10
0.35000000000001696
20
8.6499999999999915
30
0
11
-0.34999999999998227
21
8.6499999999999915
31
0
0
ARC
5
276
100
AcDbEntity
8
0
100
AcDbCircle
10
-0.34999999999998227
20
8.8999999999999915
30
0
40
0.25000000000000194
210
0
220
0
230
1
100
AcDbArc
50
180
51
270
0
LINE
5
277
100
AcDbEntity
8
0
100
AcDbLine
10
-0.59999999999998421
20
8.8999999999999915
30
0
11
-0.59999999999998255
21
9.5499999999999972
31
0
0
ARC
5
278
100
AcDbEntity
8
0
100
AcDbCircle
10
-0.34999999999998227
20
9.5499999999999972
30
0
40
0.24999999999999356
210
0
220
-0
230
1
100
AcDbArc
50
90
51
180
0
ARC
5
279
100
AcDbEntity
8
0
100
AcDbCircle
10
0.35000000000001696
20
9.5499999999999883
30
0
40
0.25000000000000022
210
0
220
0
230
1
100
AcDbArc
50
0
51
90
0
LINE
5
280
100
AcDbEntity
8
0
100
AcDbLine
10
0.60000000000001719
20
9.5499999999999883
30
0
11
0.60000000000001719
21
8.8999999999999915
31
0
0
ARC
5
281
100
AcDbEntity
8
0
100
AcDbCircle
10
0.35000000000001696
20
8.8999999999999915
30
0
40
0.25000000000000022
210
0
220
0
230
1
100
AcDbArc
50
-90
51
0
0
LINE
5
282
100
AcDbEntity
8
0
100
AcDbLine
10
-2.849999999999981
20
1.3499999999999761
30
0
11
-2.849999999999981
21
1.9999999999999882
31
0
0
ARC
5
283
100
AcDbEntity
8
0
100
AcDbCircle
10
-2.599999999999981
20
1.9999999999999882
30
0
40
0.25000000000000022
210
0
220
-0
230
1
100
AcDbArc
50
90
51
180
0
LINE
5
284
100
AcDbEntity
8
0
100
AcDbLine
10
-2.599999999999981
20
2.2499999999999885
30
0
11
-1.8999999999999817
21
2.2499999999999813
31
0
0
ARC
5
285
100
AcDbEntity
8
0
100
AcDbCircle
10
-1.8999999999999817
20
1.9999999999999809
30
0
40
0.25000000000000022
210
0
220
0
230
1
100
AcDbArc
50
0
51
90
0
LINE
5
286
100
AcDbEntity
8
0
100
AcDbLine
10
-1.6499999999999815
20
1.9999999999999809
30
0
11
-1.6499999999999815
21
1.3499999999999761
31
0
0
ARC
5
287
100
AcDbEntity
8
0
100
AcDbCircle
10
-1.8999999999999817
20
1.3499999999999761
30
0
40
0.25000000000000022
210
0
220
0
230
1
100
AcDbArc
50
-90
51
0
0
ARC
5
288
100
AcDbEntity
8
0
100
AcDbCircle
10
-2.599999999999981
20
1.3499999999999761
30
0
40
0.24999999999999967
210
0
220
0
230
1
100
AcDbArc
50
180
51
270
0
LINE
5
289
100
AcDbEntity
8
0
100
AcDbLine
10
-1.899999999999971
20
-3.8500000000000134
30
0
11
-2.5999999999999739
21
-3.8500000000000134
31
0
0
ARC
5
290
100
AcDbEntity
8
0
100
AcDbCircle
10
-2.5999999999999739
20
-3.600000000000013
30
0
40
0.25000000000000022
210
0
220
0
230
1
100
AcDbArc
50
180
51
270
0
LINE
5
291
100
AcDbEntity
8
0
100
AcDbLine
10
-2.8499999999999743
20
-3.600000000000013
30
0
11
-2.8499999999999708
21
-2.9500000000000011
31
0
0
ARC
5
292
100
AcDbEntity
8
0
100
AcDbCircle
10
-2.5999999999999739
20
-2.9500000000000011
30
0
40
0.24999999999999134
210
0
220
-0
230
1
100
AcDbArc
50
90
51
180
0
ARC
5
293
100
AcDbEntity
8
0
100
AcDbCircle
10
-1.8999999999999748
20
-2.9500000000000082
30
0
40
0.25000000000000189
210
0
220
0
230
1
100
AcDbArc
50
0
51
90
0
LINE
5
294
100
AcDbEntity
8
0
100
AcDbLine
10
-1.6499999999999728
20
-2.9500000000000082
30
0
11
-1.6499999999999746
21
-3.600000000000013
31
0
0
ARC
5
295
100
AcDbEntity
8
0
100
AcDbCircle
10
-1.899999999999971
20
-3.600000000000013
30
0
40
0.25000000000000022
210
0
220
0
230
1
100
AcDbArc
50
-90
51
0
0
LWPOLYLINE
5
296
100
AcDbEntity
8
0
100
AcDbPolyline
90
8
70
1
43
0.0
10
1.6500000000000195
20
-3.600000000000013
10
1.6500000000000195
20
-2.9500000000000082
42
-0.41421356237309503
10
1.9000000000000197
20
-2.7000000000000082
10
2.6000000000000196
20
-2.7000000000000082
42
-0.41421356237309503
10
2.8500000000000196
20
-2.9500000000000082
10
2.8500000000000196
20
-3.600000000000013
42
-0.41421356237309503
10
2.6000000000000196
20
-3.8500000000000134
10
1.9000000000000197
20
-3.8500000000000134
42
-0.41421356237309503
0
ARC
5
297
100
AcDbEntity
8
0
100
AcDbCircle
10
1.9000000000000234
20
-11.150000000000022
30
0
40
0.25000000000000022
210
0
220
0
230
1
100
AcDbArc
50
180
51
270
0
LINE
5
298
100
AcDbEntity
8
0
100
AcDbLine
10
1.650000000000023
20
-11.150000000000022
30
0
11
1.650000000000023
21
-10.500000000000016
31
0
0
ARC
5
299
100
AcDbEntity
8
0
100
AcDbCircle
10
1.9000000000000234
20
-10.500000000000016
30
0
40
0.24999999999999911
210
0
220
-0
230
1
100
AcDbArc
50
90
51
180
0
LINE
5
300
100
AcDbEntity
8
0
100
AcDbLine
10
1.9000000000000234
20
-10.250000000000018
30
0
11
2.6000000000000223
21
-10.250000000000018
31
0
0
ARC
5
301
100
AcDbEntity
8
0
100
AcDbCircle
10
2.6000000000000223
20
-10.500000000000016
30
0
40
0.25000000000000022
210
0
220
0
230
1
100
AcDbArc
50
0
51
90
0
LINE
5
302
100
AcDbEntity
8
0
100
AcDbLine
10
2.8500000000000227
20
-10.500000000000016
30
0
11
2.8500000000000232
21
-11.150000000000022
31
0
0
ARC
5
303
100
AcDbEntity
8
0
100
AcDbCircle
10
2.6000000000000223
20
-11.150000000000022
30
0
40
0.24999999999999911
210
0
220
0
230
1
100
AcDbArc
50
-90
51
0
0
LINE
5
304
100
AcDbEntity
8
0
100
AcDbLine
10
-10.649999999999993
20
46.150000000000006
30
0
11
-11.349999999999994
21
46.150000000000006
31
0
0
ARC
5
305
100
AcDbEntity
8
0
100
AcDbCircle
10
-11.349999999999994
20
46.399999999999999
30
0
40
0.24999999999999911
210
0
220
0
230
1
100
AcDbArc
50
180
51
270
0
LINE
5
306
100
AcDbEntity
8
0
100
AcDbLine
10
-11.599999999999993
20
46.399999999999999
30
0
11
-11.599999999999993
21
47.050000000000011
31
0
0
ARC
5
307
100
AcDbEntity
8
0
100
AcDbCircle
10
-11.349999999999994
20
47.050000000000011
30
0
40
0.24999999999999467
210
0
220
-0
230
1
100
AcDbArc
50
90
51
180
0
ARC
5
308
100
AcDbEntity
8
0
100
AcDbCircle
10
-10.649999999999993
20
47.049999999999997
30
0
40
0.25000000000000133
210
0
220
0
230
1
100
AcDbArc
50
0
51
90
0
LINE
5
309
100
AcDbEntity
8
0
100
AcDbLine
10
-10.399999999999991
20
47.049999999999997
30
0
11
-10.399999999999993
21
46.399999999999999
31
0
0
ARC
5
310
100
AcDbEntity
8
0
100
AcDbCircle
10
-10.649999999999993
20
46.399999999999999
30
0
40
0.24999999999999467
210
0
220
0
230
1
100
AcDbArc
50
-90
51
0
0
LINE
5
311
100
AcDbEntity
8
0
100
AcDbLine
10
-13.849999999999991
20
38.84999999999998
30
0
11
-13.849999999999991
21
39.499999999999993
31
0
0
ARC
5
312
100
AcDbEntity
8
0
100
AcDbCircle
10
-13.599999999999993
20
39.499999999999993
30
0
40
0.24999999999999911
210
0
220
-0
230
1
100
AcDbArc
50
90
51
180
0
LINE
5
313
100
AcDbEntity
8
0
100
AcDbLine
10
-13.599999999999993
20
39.749999999999993
30
0
11
-12.899999999999991
21
39.749999999999986
31
0
0
ARC
5
314
100
AcDbEntity
8
0
100
AcDbCircle
10
-12.899999999999991
20
39.499999999999986
30
0
40
0.24999999999999911
210
0
220
0
230
1
100
AcDbArc
50
0
51
90
0
LINE
5
315
100
AcDbEntity
8
0
100
AcDbLine
10
-12.649999999999991
20
39.499999999999986
30
0
11
-12.649999999999991
21
38.84999999999998
31
0
0
ARC
5
316
100
AcDbEntity
8
0
100
AcDbCircle
10
-12.899999999999991
20
38.84999999999998
30
0
40
0.24999999999999911
210
0
220
0
230
1
100
AcDbArc
50
-90
51
0
0
ARC
5
317
100
AcDbEntity
8
0
100
AcDbCircle
10
-13.599999999999993
20
38.84999999999998
30
0
40
0.24999999999999911
210
0
220
0
230
1
100
AcDbArc
50
180
51
270
0
LINE
5
318
100
AcDbEntity
8
0
100
AcDbLine
10
-12.899999999999984
20
33.649999999999984
30
0
11
-13.599999999999987
21
33.649999999999984
31
0
0
ARC
5
319
100
AcDbEntity
8
0
100
AcDbCircle
10
-13.599999999999987
20
33.899999999999991
30
0
40
0.25000000000000133
210
0
220
0
230
1
100
AcDbArc
50
180
51
270
0
LINE
5
320
100
AcDbEntity
8
0
100
AcDbLine
10
-13.849999999999989
20
33.899999999999991
30
0
11
-13.849999999999984
21
34.549999999999997
31
0
0
ARC
5
321
100
AcDbEntity
8
0
100
AcDbCircle
10
-13.599999999999987
20
34.549999999999997
30
0
40
0.24999999999999467
210
0
220
-0
230
1
100
AcDbArc
50
90
51
180
0
ARC
5
322
100
AcDbEntity
8
0
100
AcDbCircle
10
-12.89999999999999
20
34.549999999999997
30
0
40
0.25000000000000133
210
0
220
0
230
1
100
AcDbArc
50
0
51
90
0
LINE
5
323
100
AcDbEntity
8
0
100
AcDbLine
10
-12.649999999999988
20
34.549999999999997
30
0
11
-12.649999999999988
21
33.899999999999991
31
0
0
ARC
5
324
100
AcDbEntity
8
0
100
AcDbCircle
10
-12.899999999999984
20
33.899999999999991
30
0
40
0.25000000000000355
210
0
220
0
230
1
100
AcDbArc
50
-90
51
0
0
LWPOLYLINE
5
325
100
AcDbEntity
8
0
100
AcDbPolyline
90
8
70
1
43
0.0
10
-9.3499999999999943
20
33.899999999999991
10
-9.3499999999999943
20
34.549999999999997
42
-0.41421356237309503
10
-9.0999999999999943
20
34.799999999999997
10
-8.399999999999995
20
34.799999999999997
42
-0.41421356237309503
10
-8.149999999999995
20
34.549999999999997
10
-8.1499999999999968
20
33.899999999999991
42
-0.41421356237309503
10
-8.399999999999995
20
33.649999999999991
10
-9.0999999999999943
20
33.649999999999991
42
-0.41421356237309503
0
ARC
5
326
100
AcDbEntity
8
0
100
AcDbCircle
10
-9.0999999999999908
20
26.34999999999998
30
0
40
0.25000000000000022
210
0
220
0
230
1
100
AcDbArc
50
180
51
270
0
LINE
5
327
100
AcDbEntity
8
0
100
AcDbLine
10
-9.3499999999999908
20
26.34999999999998
30
0
11
-9.3499999999999908
21
26.999999999999989
31
0
0
ARC
5
328
100
AcDbEntity
8
0
100
AcDbCircle
10
-9.0999999999999908
20
26.999999999999989
30
0
40
0.24999999999999911
210
0
220
-0
230
1
100
AcDbArc
50
90
51
180
0
LINE
5
329
100
AcDbEntity
8
0
100
AcDbLine
10
-9.0999999999999908
20
27.249999999999986
30
0
11
-8.3999999999999915
21
27.249999999999986
31
0
0
ARC
5
330
100
AcDbEntity
8
0
100
AcDbCircle
10
-8.3999999999999915
20
26.999999999999989
30
0
40
0.25000000000000022
210
0
220
0
230
1
100
AcDbArc
50
0
51
90
0
LINE
5
331
100
AcDbEntity
8
0
100
AcDbLine
10
-8.1499999999999915
20
26.999999999999989
30
0
11
-8.1499999999999915
21
26.34999999999998
31
0
0
ARC
5
332
100
AcDbEntity
8
0
100
AcDbCircle
10
-8.3999999999999915
20
26.34999999999998
30
0
40
0.24999999999999911
210
0
220
0
230
1
100
AcDbArc
50
-90
51
0
0
LINE
5
333
100
AcDbEntity
8
0
100
AcDbLine
10
-10.649999999999986
20
21.149999999999999
30
0
11
-11.349999999999987
21
21.149999999999999
31
0
0
ARC
5
334
100
AcDbEntity
8
0
100
AcDbCircle
10
-11.349999999999987
20
21.399999999999999
30
0
40
0.25000000000000133
210
0
220
0
230
1
100
AcDbArc
50
180
51
270
0
LINE
5
335
100
AcDbEntity
8
0
100
AcDbLine
10
-11.599999999999987
20
21.399999999999999
30
0
11
-11.599999999999985
21
22.050000000000001
31
0
0
ARC
5
336
100
AcDbEntity
8
0
100
AcDbCircle
10
-11.349999999999987
20
22.050000000000001
30
0
40
0.24999999999999467
210
0
220
-0
230
1
100
AcDbArc
50
90
51
180
0
ARC
5
337
100
AcDbEntity
8
0
100
AcDbCircle
10
-10.649999999999986
20
22.049999999999997
30
0
40
0.24999999999999911
210
0
220
0
230
1
100
AcDbArc
50
0
51
90
0
LINE
5
338
100
AcDbEntity
8
0
100
AcDbLine
10
-10.399999999999988
20
22.049999999999997
30
0
11
-10.399999999999988
21
21.399999999999999
31
0
0
ARC
5
339
100
AcDbEntity
8
0
100
AcDbCircle
10
-10.649999999999986
20
21.399999999999999
30
0
40
0.24999999999999911
210
0
220
0
230
1
100
AcDbArc
50
-90
51
0
0
LINE
5
340
100
AcDbEntity
8
0
100
AcDbLine
10
-13.849999999999984
20
13.84999999999998
30
0
11
-13.849999999999984
21
14.499999999999993
31
0
0
ARC
5
341
100
AcDbEntity
8
0
100
AcDbCircle
10
-13.599999999999985
20
14.499999999999993
30
0
40
0.24999999999999911
210
0
220
-0
230
1
100
AcDbArc
50
90
51
180
0
LINE
5
342
100
AcDbEntity
8
0
100
AcDbLine
10
-13.599999999999985
20
14.749999999999993
30
0
11
-12.899999999999984
21
14.749999999999988
31
0
0
ARC
5
343
100
AcDbEntity
8
0
100
AcDbCircle
10
-12.899999999999984
20
14.499999999999986
30
0
40
0.25000000000000133
210
0
220
0
230
1
100
AcDbArc
50
0
51
90
0
LINE
5
344
100
AcDbEntity
8
0
100
AcDbLine
10
-12.649999999999984
20
14.499999999999986
30
0
11
-12.649999999999986
21
13.84999999999998
31
0
0
ARC
5
345
100
AcDbEntity
8
0
100
AcDbCircle
10
-12.899999999999984
20
13.84999999999998
30
0
40
0.24999999999999911
210
0
220
0
230
1
100
AcDbArc
50
-90
51
0
0
ARC
5
346
100
AcDbEntity
8
0
100
AcDbCircle
10
-13.599999999999985
20
13.84999999999998
30
0
40
0.24999999999999911
210
0
220
0
230
1
100
AcDbArc
50
180
51
270
0
LINE
5
347
100
AcDbEntity
8
0
100
AcDbLine
10
-12.899999999999977
20
8.6499999999999844
30
0
11
-13.59999999999998
21
8.6499999999999844
31
0
0
ARC
5
348
100
AcDbEntity
8
0
100
AcDbCircle
10
-13.59999999999998
20
8.8999999999999844
30
0
40
0.24999999999999911
210
0
220
0
230
1
100
AcDbArc
50
180
51
270
0
LINE
5
349
100
AcDbEntity
8
0
100
AcDbLine
10
-13.84999999999998
20
8.8999999999999844
30
0
11
-13.849999999999978
21
9.5499999999999972
31
0
0
ARC
5
350
100
AcDbEntity
8
0
100
AcDbCircle
10
-13.59999999999998
20
9.5499999999999972
30
0
40
0.24999999999999134
210
0
220
-0
230
1
100
AcDbArc
50
90
51
180
0
ARC
5
351
100
AcDbEntity
8
0
100
AcDbCircle
10
-12.899999999999983
20
9.5499999999999883
30
0
40
0.25000000000000133
210
0
220
0
230
1
100
AcDbArc
50
0
51
90
0
LINE
5
352
100
AcDbEntity
8
0
100
AcDbLine
10
-12.649999999999981
20
9.5499999999999883
30
0
11
-12.649999999999981
21
8.8999999999999844
31
0
0
ARC
5
353
100
AcDbEntity
8
0
100
AcDbCircle
10
-12.899999999999977
20
8.8999999999999844
30
0
40
0.25000000000000022
210
0
220
0
230
1
100
AcDbArc
50
-90
51
0
0
LWPOLYLINE
5
354
100
AcDbEntity
8
0
100
AcDbPolyline
90
8
70
1
43
0.0
10
-9.3499999999999872
20
8.8999999999999844
10
-9.349999999999989
20
9.5499999999999883
42
-0.41421356237309503
10
-9.0999999999999872
20
9.7999999999999883
10
-8.3999999999999879
20
9.7999999999999883
42
-0.41421356237309503
10
-8.1499999999999879
20
9.5499999999999883
10
-8.1499999999999879
20
8.8999999999999844
42
-0.41421356237309503
10
-8.3999999999999879
20
8.6499999999999844
10
-9.0999999999999872
20
8.6499999999999861
42
-0.41421356237309503
0
ARC
5
355
100
AcDbEntity
8
0
100
AcDbCircle
10
-9.0999999999999837
20
1.3499999999999761
30
0
40
0.25000000000000022
210
0
220
0
230
1
100
AcDbArc
50
180
51
270
0
LINE
5
356
100
AcDbEntity
8
0
100
AcDbLine
10
-9.3499999999999837
20
1.3499999999999761
30
0
11
-9.3499999999999837
21
1.9999999999999809
31
0
0
ARC
5
357
100
AcDbEntity
8
0
100
AcDbCircle
10
-9.0999999999999837
20
1.9999999999999809
30
0
40
0.25000000000000022
210
0
220
-0
230
1
100
AcDbArc
50
90
51
180
0
LINE
5
358
100
AcDbEntity
8
0
100
AcDbLine
10
-9.0999999999999837
20
2.2499999999999813
30
0
11
-8.3999999999999844
21
2.2499999999999813
31
0
0
ARC
5
359
100
AcDbEntity
8
0
100
AcDbCircle
10
-8.3999999999999844
20
1.9999999999999809
30
0
40
0.25000000000000022
210
0
220
0
230
1
100
AcDbArc
50
0
51
90
0
LINE
5
360
100
AcDbEntity
8
0
100
AcDbLine
10
-8.1499999999999844
20
1.9999999999999809
30
0
11
-8.1499999999999844
21
1.3499999999999761
31
0
0
ARC
5
361
100
AcDbEntity
8
0
100
AcDbCircle
10
-8.3999999999999844
20
1.3499999999999761
30
0
40
0.25000000000000011
210
0
220
0
230
1
100
AcDbArc
50
-90
51
0
0
LWPOLYLINE
5
362
100
AcDbEntity
8
0
100
AcDbPolyline
90
8
70
1
43
0.0
10
-21.649999999999988
20
46.150000000000006
10
-22.349999999999991
20
46.150000000000006
42
-0.41421356237309503
10
-22.599999999999987
20
46.399999999999999
10
-22.599999999999984
20
47.050000000000011
42
-0.41421356237309503
10
-22.349999999999991
20
47.300000000000004
10
-21.649999999999988
20
47.300000000000004
42
-0.41421356237309503
10
-21.399999999999988
20
47.049999999999997
10
-21.399999999999991
20
46.399999999999999
42
-0.41421356237309503
0
LINE
5
363
100
AcDbEntity
8
0
100
AcDbLine
10
-24.849999999999991
20
38.84999999999998
30
0
11
-24.849999999999991
21
39.499999999999993
31
0
0
ARC
5
364
100
AcDbEntity
8
0
100
AcDbCircle
10
-24.599999999999991
20
39.499999999999993
30
0
40
0.24999999999999911
210
0
220
-0
230
1
100
AcDbArc
50
90
51
180
0
LINE
5
365
100
AcDbEntity
8
0
100
AcDbLine
10
-24.599999999999991
20
39.749999999999993
30
0
11
-23.899999999999988
21
39.749999999999986
31
0
0
ARC
5
366
100
AcDbEntity
8
0
100
AcDbCircle
10
-23.899999999999988
20
39.499999999999986
30
0
40
0.24999999999999911
210
0
220
0
230
1
100
AcDbArc
50
0
51
90
0
LINE
5
367
100
AcDbEntity
8
0
100
AcDbLine
10
-23.649999999999988
20
39.499999999999986
30
0
11
-23.649999999999988
21
38.84999999999998
31
0
0
ARC
5
368
100
AcDbEntity
8
0
100
AcDbCircle
10
-23.899999999999988
20
38.84999999999998
30
0
40
0.24999999999999911
210
0
220
0
230
1
100
AcDbArc
50
-90
51
0
0
ARC
5
369
100
AcDbEntity
8
0
100
AcDbCircle
10
-24.599999999999991
20
38.84999999999998
30
0
40
0.24999999999999911
210
0
220
0
230
1
100
AcDbArc
50
180
51
270
0
LINE
5
370
100
AcDbEntity
8
0
100
AcDbLine
10
-23.899999999999984
20
33.649999999999984
30
0
11
-24.599999999999987
21
33.649999999999984
31
0
0
ARC
5
371
100
AcDbEntity
8
0
100
AcDbCircle
10
-24.599999999999987
20
33.899999999999991
30
0
40
0.24999999999999911
210
0
220
0
230
1
100
AcDbArc
50
180
51
270
0
LINE
5
372
100
AcDbEntity
8
0
100
AcDbLine
10
-24.849999999999987
20
33.899999999999991
30
0
11
-24.84999999999998
21
34.549999999999997
31
0
0
ARC
5
373
100
AcDbEntity
8
0
100
AcDbCircle
10
-24.599999999999987
20
34.549999999999997
30
0
40
0.24999999999999467
210
0
220
-0
230
1
100
AcDbArc
50
90
51
180
0
ARC
5
374
100
AcDbEntity
8
0
100
AcDbCircle
10
-23.899999999999984
20
34.549999999999997
30
0
40
0.24999999999999911
210
0
220
0
230
1
100
AcDbArc
50
0
51
90
0
LINE
5
375
100
AcDbEntity
8
0
100
AcDbLine
10
-23.649999999999984
20
34.549999999999997
30
0
11
-23.649999999999984
21
33.899999999999991
31
0
0
ARC
5
376
100
AcDbEntity
8
0
100
AcDbCircle
10
-23.899999999999984
20
33.899999999999991
30
0
40
0.25000000000000355
210
0
220
0
230
1
100
AcDbArc
50
-90
51
0
0
LWPOLYLINE
5
377
100
AcDbEntity
8
0
100
AcDbPolyline
90
8
70
1
43
0.0
10
-20.349999999999994
20
33.899999999999991
10
-20.349999999999994
20
34.549999999999997
42
-0.41421356237309503
10
-20.099999999999994
20
34.799999999999997
10
-19.399999999999991
20
34.800000000000004
42
-0.41421356237309503
10
-19.149999999999991
20
34.549999999999997
10
-19.149999999999995
20
33.899999999999991
42
-0.41421356237309503
10
-19.399999999999991
20
33.649999999999991
10
-20.099999999999994
20
33.649999999999991
42
-0.41421356237309503
0
ARC
5
378
100
AcDbEntity
8
0
100
AcDbCircle
10
-20.099999999999987
20
26.34999999999998
30
0
40
0.24999999999999911
210
0
220
0
230
1
100
AcDbArc
50
180
51
270
0
LINE
5
379
100
AcDbEntity
8
0
100
AcDbLine
10
-20.349999999999987
20
26.34999999999998
30
0
11
-20.349999999999987
21
26.999999999999989
31
0
0
ARC
5
380
100
AcDbEntity
8
0
100
AcDbCircle
10
-20.099999999999987
20
26.999999999999989
30
0
40
0.24999999999999911
210
0
220
-0
230
1
100
AcDbArc
50
90
51
180
0
LINE
5
381
100
AcDbEntity
8
0
100
AcDbLine
10
-20.099999999999987
20
27.249999999999986
30
0
11
-19.399999999999988
21
27.249999999999986
31
0
0
ARC
5
382
100
AcDbEntity
8
0
100
AcDbCircle
10
-19.399999999999988
20
26.999999999999989
30
0
40
0.25000000000000133
210
0
220
0
230
1
100
AcDbArc
50
0
51
90
0
LINE
5
383
100
AcDbEntity
8
0
100
AcDbLine
10
-19.149999999999988
20
26.999999999999989
30
0
11
-19.149999999999988
21
26.34999999999998
31
0
0
ARC
5
384
100
AcDbEntity
8
0
100
AcDbCircle
10
-19.399999999999988
20
26.34999999999998
30
0
40
0.24999999999999911
210
0
220
0
230
1
100
AcDbArc
50
-90
51
0
0
LINE
5
385
100
AcDbEntity
8
0
100
AcDbLine
10
-21.649999999999984
20
21.149999999999999
30
0
11
-22.34999999999998
21
21.149999999999999
31
0
0
ARC
5
386
100
AcDbEntity
8
0
100
AcDbCircle
10
-22.34999999999998
20
21.399999999999999
30
0
40
0.24999999999999911
210
0
220
0
230
1
100
AcDbArc
50
180
51
270
0
LINE
5
387
100
AcDbEntity
8
0
100
AcDbLine
10
-22.59999999999998
20
21.399999999999999
30
0
11
-22.59999999999998
21
22.050000000000001
31
0
0
ARC
5
388
100
AcDbEntity
8
0
100
AcDbCircle
10
-22.34999999999998
20
22.050000000000001
30
0
40
0.24999999999999467
210
0
220
-0
230
1
100
AcDbArc
50
90
51
180
0
ARC
5
389
100
AcDbEntity
8
0
100
AcDbCircle
10
-21.649999999999984
20
22.049999999999997
30
0
40
0.24999999999999911
210
0
220
0
230
1
100
AcDbArc
50
0
51
90
0
LINE
5
390
100
AcDbEntity
8
0
100
AcDbLine
10
-21.399999999999984
20
22.049999999999997
30
0
11
-21.399999999999984
21
21.399999999999999
31
0
0
ARC
5
391
100
AcDbEntity
8
0
100
AcDbCircle
10
-21.649999999999984
20
21.399999999999999
30
0
40
0.24999999999999911
210
0
220
0
230
1
100
AcDbArc
50
-90
51
0
0
LINE
5
392
100
AcDbEntity
8
0
100
AcDbLine
10
-24.84999999999998
20
13.84999999999998
30
0
11
-24.84999999999998
21
14.499999999999993
31
0
0
ARC
5
393
100
AcDbEntity
8
0
100
AcDbCircle
10
-24.59999999999998
20
14.499999999999993
30
0
40
0.24999999999999911
210
0
220
-0
230
1
100
AcDbArc
50
90
51
180
0
LINE
5
394
100
AcDbEntity
8
0
100
AcDbLine
10
-24.59999999999998
20
14.749999999999993
30
0
11
-23.899999999999984
21
14.749999999999988
31
0
0
ARC
5
395
100
AcDbEntity
8
0
100
AcDbCircle
10
-23.899999999999984
20
14.499999999999986
30
0
40
0.24999999999999911
210
0
220
0
230
1
100
AcDbArc
50
0
51
90
0
LINE
5
396
100
AcDbEntity
8
0
100
AcDbLine
10
-23.649999999999984
20
14.499999999999986
30
0
11
-23.649999999999981
21
13.84999999999998
31
0
0
ARC
5
397
100
AcDbEntity
8
0
100
AcDbCircle
10
-23.899999999999984
20
13.84999999999998
30
0
40
0.24999999999999911
210
0
220
0
230
1
100
AcDbArc
50
-90
51
0
0
ARC
5
398
100
AcDbEntity
8
0
100
AcDbCircle
10
-24.59999999999998
20
13.84999999999998
30
0
40
0.24999999999999911
210
0
220
0
230
1
100
AcDbArc
50
180
51
270
0
LINE
5
399
100
AcDbEntity
8
0
100
AcDbLine
10
-23.899999999999974
20
8.6499999999999844
30
0
11
-24.599999999999977
21
8.6499999999999844
31
0
0
ARC
5
400
100
AcDbEntity
8
0
100
AcDbCircle
10
-24.599999999999977
20
8.8999999999999844
30
0
40
0.24999999999999911
210
0
220
0
230
1
100
AcDbArc
50
180
51
270
0
LINE
5
401
100
AcDbEntity
8
0
100
AcDbLine
10
-24.849999999999977
20
8.8999999999999844
30
0
11
-24.849999999999977
21
9.5499999999999972
31
0
0
ARC
5
402
100
AcDbEntity
8
0
100
AcDbCircle
10
-24.599999999999977
20
9.5499999999999972
30
0
40
0.24999999999999134
210
0
220
-0
230
1
100
AcDbArc
50
90
51
180
0
ARC
5
403
100
AcDbEntity
8
0
100
AcDbCircle
10
-23.899999999999977
20
9.5499999999999883
30
0
40
0.25000000000000355
210
0
220
0
230
1
100
AcDbArc
50
0
51
90
0
LINE
5
404
100
AcDbEntity
8
0
100
AcDbLine
10
-23.649999999999977
20
9.5499999999999883
30
0
11
-23.649999999999981
21
8.8999999999999844
31
0
0
ARC
5
405
100
AcDbEntity
8
0
100
AcDbCircle
10
-23.899999999999974
20
8.8999999999999844
30
0
40
0.25000000000000022
210
0
220
0
230
1
100
AcDbArc
50
-90
51
0
0
LWPOLYLINE
5
406
100
AcDbEntity
8
0
100
AcDbPolyline
90
8
70
1
43
0.0
10
-20.349999999999984
20
8.8999999999999844
10
-20.349999999999984
20
9.5499999999999883
42
-0.41421356237309503
10
-20.099999999999984
20
9.7999999999999883
10
-19.399999999999984
20
9.7999999999999883
42
-0.41421356237309503
10
-19.149999999999988
20
9.5499999999999883
10
-19.149999999999988
20
8.8999999999999844
42
-0.41421356237309503
10
-19.399999999999984
20
8.6499999999999844
10
-20.099999999999984
20
8.6499999999999861
42
-0.41421356237309503
0
ARC
5
407
100
AcDbEntity
8
0
100
AcDbCircle
10
-20.09999999999998
20
1.3499999999999761
30
0
40
0.24999999999999911
210
0
220
0
230
1
100
AcDbArc
50
180
51
270
0
LINE
5
408
100
AcDbEntity
8
0
100
AcDbLine
10
-20.34999999999998
20
1.3499999999999761
30
0
11
-20.34999999999998
21
1.9999999999999809
31
0
0
ARC
5
409
100
AcDbEntity
8
0
100
AcDbCircle
10
-20.09999999999998
20
1.9999999999999809
30
0
40
0.25000000000000022
210
0
220
-0
230
1
100
AcDbArc
50
90
51
180
0
LINE
5
410
100
AcDbEntity
8
0
100
AcDbLine
10
-20.09999999999998
20
2.2499999999999813
30
0
11
-19.399999999999981
21
2.2499999999999813
31
0
0
ARC
5
411
100
AcDbEntity
8
0
100
AcDbCircle
10
-19.399999999999981
20
1.9999999999999809
30
0
40
0.24999999999999911
210
0
220
0
230
1
100
AcDbArc
50
0
51
90
0
LINE
5
412
100
AcDbEntity
8
0
100
AcDbLine
10
-19.149999999999984
20
1.9999999999999809
30
0
11
-19.149999999999984
21
1.3499999999999761
31
0
0
ARC
5
413
100
AcDbEntity
8
0
100
AcDbCircle
10
-19.399999999999981
20
1.3499999999999761
30
0
40
0.25000000000000011
210
0
220
0
230
1
100
AcDbArc
50
-90
51
0
0
LWPOLYLINE
5
414
100
AcDbEntity
8
0
100
AcDbPolyline
90
4
70
1
43
0.0
10
21.800000000000011
20
26.199999999999989
10
21.300000000000008
20
26.199999999999989
10
21.300000000000008
20
26.799999999999997
10
21.800000000000011
20
26.799999999999997
0
LWPOLYLINE
5
415
100
AcDbEntity
8
0
100
AcDbPolyline
90
4
70
1
43
0.0
10
21.800000000000011
20
13.699999999999983
10
21.300000000000008
20
13.699999999999983
10
21.300000000000008
20
14.299999999999995
10
21.800000000000011
20
14.299999999999995
0
LWPOLYLINE
5
416
100
AcDbEntity
8
0
100
AcDbPolyline
90
4
70
1
43
0.0
10
21.800000000000011
20
1.1999999999999789
10
21.300000000000011
20
1.1999999999999789
10
21.300000000000011
20
1.7999999999999894
10
21.800000000000011
20
1.7999999999999894
0
LWPOLYLINE
5
417
100
AcDbEntity
8
0
100
AcDbPolyline
90
4
70
1
43
0.0
10
10.800000000000004
20
38.699999999999982
10
10.300000000000004
20
38.699999999999982
10
10.300000000000004
20
39.299999999999997
10
10.800000000000004
20
39.299999999999997
0
LWPOLYLINE
5
418
100
AcDbEntity
8
0
100
AcDbPolyline
90
4
70
1
43
0.0
10
10.800000000000008
20
26.199999999999989
10
10.300000000000008
20
26.199999999999989
10
10.300000000000008
20
26.799999999999997
10
10.800000000000008
20
26.799999999999997
0
LWPOLYLINE
5
419
100
AcDbEntity
8
0
100
AcDbPolyline
90
4
70
1
43
0.0
10
10.80000000000001
20
13.699999999999983
10
10.30000000000001
20
13.699999999999983
10
10.30000000000001
20
14.299999999999995
10
10.80000000000001
20
14.299999999999995
0
LWPOLYLINE
5
420
100
AcDbEntity
8
0
100
AcDbPolyline
90
4
70
1
43
0.0
10
10.800000000000011
20
1.1999999999999789
10
10.300000000000011
20
1.1999999999999789
10
10.300000000000011
20
1.7999999999999894
10
10.800000000000011
20
1.7999999999999894
0
LWPOLYLINE
5
421
100
AcDbEntity
8
0
100
AcDbPolyline
90
4
70
1
43
0.0
10
-0.19999999999999532
20
38.699999999999982
10
-0.69999999999999574
20
38.699999999999982
10
-0.69999999999999574
20
39.299999999999997
10
-0.19999999999999532
20
39.299999999999997
0
LWPOLYLINE
5
422
100
AcDbEntity
8
0
100
AcDbPolyline
90
4
70
1
43
0.0
10
-0.19999999999999185
20
26.199999999999989
10
-0.6999999999999923
20
26.199999999999989
10
-0.6999999999999923
20
26.799999999999997
10
-0.19999999999999185
20
26.799999999999997
0
LWPOLYLINE
5
423
100
AcDbEntity
8
0
100
AcDbPolyline
90
4
70
1
43
0.0
10
-0.19999999999999185
20
13.699999999999983
10
-0.6999999999999923
20
13.699999999999983
10
-0.6999999999999923
20
14.299999999999995
10
-0.19999999999999185
20
14.299999999999995
0
LWPOLYLINE
5
424
100
AcDbEntity
8
0
100
AcDbPolyline
90
4
70
1
43
0.0
10
-0.19999999999998838
20
1.1999999999999789
10
-0.69999999999998885
20
1.1999999999999789
10
-0.69999999999998885
20
1.7999999999999894
10
-0.19999999999998838
20
1.7999999999999894
0
LWPOLYLINE
5
425
100
AcDbEntity
8
0
100
AcDbPolyline
90
4
70
1
43
0.0
10
-11.199999999999999
20
38.699999999999982
10
-11.699999999999999
20
38.699999999999982
10
-11.699999999999999
20
39.299999999999997
10
-11.199999999999999
20
39.299999999999997
0
LWPOLYLINE
5
426
100
AcDbEntity
8
0
100
AcDbPolyline
90
4
70
1
43
0.0
10
-11.199999999999999
20
26.199999999999989
10
-11.699999999999999
20
26.199999999999989
10
-11.699999999999999
20
26.799999999999997
10
-11.199999999999999
20
26.799999999999997
0
LWPOLYLINE
5
427
100
AcDbEntity
8
0
100
AcDbPolyline
90
4
70
1
43
0.0
10
-11.19999999999999
20
13.699999999999983
10
-11.699999999999992
20
13.699999999999983
10
-11.699999999999992
20
14.299999999999995
10
-11.19999999999999
20
14.299999999999995
0
LWPOLYLINE
5
428
100
AcDbEntity
8
0
100
AcDbPolyline
90
4
70
1
43
0.0
10
-11.19999999999999
20
1.1999999999999789
10
-11.699999999999992
20
1.1999999999999789
10
-11.699999999999992
20
1.7999999999999894
10
-11.19999999999999
20
1.7999999999999894
0
LWPOLYLINE
5
429
100
AcDbEntity
8
0
100
AcDbPolyline
90
4
70
1
43
0.0
10
-22.199999999999996
20
38.699999999999982
10
-22.699999999999996
20
38.699999999999982
10
-22.699999999999996
20
39.299999999999997
10
-22.199999999999996
20
39.299999999999997
0
LWPOLYLINE
5
430
100
AcDbEntity
8
0
100
AcDbPolyline
90
4
70
1
43
0.0
10
-22.199999999999996
20
26.199999999999989
10
-22.699999999999996
20
26.199999999999989
10
-22.699999999999996
20
26.799999999999997
10
-22.199999999999996
20
26.799999999999997
0
LWPOLYLINE
5
431
100
AcDbEntity
8
0
100
AcDbPolyline
90
4
70
1
43
0.0
10
-21.299999999999994
20
26.199999999999989
10
-21.799999999999994
20
26.199999999999989
10
-21.799999999999994
20
26.799999999999997
10
-21.299999999999997
20
26.799999999999997
0
LWPOLYLINE
5
432
100
AcDbEntity
8
0
100
AcDbPolyline
90
4
70
1
43
0.0
10
-21.299999999999994
20
38.699999999999982
10
-21.799999999999994
20
38.699999999999982
10
-21.799999999999994
20
39.299999999999997
10
-21.299999999999997
20
39.299999999999997
0
LWPOLYLINE
5
433
100
AcDbEntity
8
0
100
AcDbPolyline
90
4
70
1
43
0.0
10
-10.299999999999992
20
1.1999999999999789
10
-10.79999999999999
20
1.1999999999999789
10
-10.79999999999999
20
1.7999999999999894
10
-10.299999999999994
20
1.7999999999999894
0
LWPOLYLINE
5
434
100
AcDbEntity
8
0
100
AcDbPolyline
90
4
70
1
43
0.0
10
-10.299999999999992
20
13.699999999999983
10
-10.79999999999999
20
13.699999999999983
10
-10.79999999999999
20
14.299999999999995
10
-10.299999999999994
20
14.299999999999995
0
LWPOLYLINE
5
435
100
AcDbEntity
8
0
100
AcDbPolyline
90
4
70
1
43
0.0
10
-10.299999999999997
20
26.199999999999989
10
-10.799999999999999
20
26.199999999999989
10
-10.799999999999999
20
26.799999999999997
10
-10.300000000000001
20
26.799999999999997
0
LWPOLYLINE
5
436
100
AcDbEntity
8
0
100
AcDbPolyline
90
4
70
1
43
0.0
10
-10.299999999999997
20
38.699999999999982
10
-10.799999999999999
20
38.699999999999982
10
-10.799999999999999
20
39.299999999999997
10
-10.300000000000001
20
39.299999999999997
0
LWPOLYLINE
5
437
100
AcDbEntity
8
0
100
AcDbPolyline
90
4
70
1
43
0.0
10
0.70000000000001306
20
1.1999999999999789
10
0.20000000000001267
20
1.1999999999999789
10
0.20000000000001267
20
1.7999999999999894
10
0.70000000000000961
20
1.7999999999999894
0
LWPOLYLINE
5
438
100
AcDbEntity
8
0
100
AcDbPolyline
90
4
70
1
43
0.0
10
0.70000000000000961
20
13.699999999999983
10
0.2000000000000092
20
13.699999999999983
10
0.2000000000000092
20
14.299999999999995
10
0.70000000000000617
20
14.299999999999995
0
LWPOLYLINE
5
439
100
AcDbEntity
8
0
100
AcDbPolyline
90
4
70
1
43
0.0
10
0.70000000000000961
20
26.199999999999989
10
0.2000000000000092
20
26.199999999999989
10
0.2000000000000092
20
26.799999999999997
10
0.70000000000000617
20
26.799999999999997
0
LWPOLYLINE
5
440
100
AcDbEntity
8
0
100
AcDbPolyline
90
4
70
1
43
0.0
10
0.70000000000000617
20
38.699999999999982
10
0.20000000000000573
20
38.699999999999982
10
0.20000000000000573
20
39.299999999999997
10
0.70000000000000273
20
39.299999999999997
0
LWPOLYLINE
5
441
100
AcDbEntity
8
0
100
AcDbPolyline
90
4
70
1
43
0.0
10
11.700000000000014
20
1.1999999999999789
10
11.200000000000012
20
1.1999999999999789
10
11.200000000000012
20
1.7999999999999894
10
11.700000000000008
20
1.7999999999999894
0
LWPOLYLINE
5
442
100
AcDbEntity
8
0
100
AcDbPolyline
90
4
70
1
43
0.0
10
11.70000000000001
20
13.699999999999983
10
11.20000000000001
20
13.699999999999983
10
11.20000000000001
20
14.299999999999995
10
11.700000000000006
20
14.299999999999995
0
LWPOLYLINE
5
443
100
AcDbEntity
8
0
100
AcDbPolyline
90
4
70
1
43
0.0
10
11.700000000000006
20
26.199999999999989
10
11.200000000000008
20
26.199999999999989
10
11.200000000000008
20
26.799999999999997
10
11.700000000000006
20
26.799999999999997
0
LWPOLYLINE
5
444
100
AcDbEntity
8
0
100
AcDbPolyline
90
4
70
1
43
0.0
10
11.700000000000006
20
38.699999999999982
10
11.200000000000006
20
38.699999999999982
10
11.200000000000006
20
39.299999999999997
10
11.700000000000003
20
39.299999999999997
0
LWPOLYLINE
5
445
100
AcDbEntity
8
0
100
AcDbPolyline
90
4
70
1
43
0.0
10
22.700000000000014
20
1.1999999999999789
10
22.20000000000001
20
1.1999999999999789
10
22.20000000000001
20
1.7999999999999894
10
22.70000000000001
20
1.7999999999999894
0
LWPOLYLINE
5
446
100
AcDbEntity
8
0
100
AcDbPolyline
90
4
70
1
43
0.0
10
22.70000000000001
20
13.699999999999983
10
22.200000000000006
20
13.699999999999983
10
22.200000000000006
20
14.299999999999995
10
22.70000000000001
20
14.299999999999995
0
LWPOLYLINE
5
447
100
AcDbEntity
8
0
100
AcDbPolyline
90
4
70
1
43
0.0
10
22.70000000000001
20
26.199999999999989
10
22.200000000000006
20
26.199999999999989
10
22.200000000000006
20
26.799999999999997
10
22.70000000000001
20
26.799999999999997
0
LINE
5
448
100
AcDbEntity
8
0
100
AcDbLine
10
-24.84999999999998
20
1.3499999999999761
30
0
11
-24.84999999999998
21
1.9999999999999882
31
0
0
ARC
5
449
100
AcDbEntity
8
0
100
AcDbCircle
10
-24.59999999999998
20
1.9999999999999882
30
0
40
0.25000000000000022
210
0
220
-0
230
1
100
AcDbArc
50
90
51
180
0
LINE
5
450
100
AcDbEntity
8
0
100
AcDbLine
10
-24.59999999999998
20
2.2499999999999885
30
0
11
-23.899999999999984
21
2.2499999999999813
31
0
0
ARC
5
451
100
AcDbEntity
8
0
100
AcDbCircle
10
-23.899999999999984
20
1.9999999999999809
30
0
40
0.24999999999999911
210
0
220
0
230
1
100
AcDbArc
50
0
51
90
0
LINE
5
452
100
AcDbEntity
8
0
100
AcDbLine
10
-23.649999999999984
20
1.9999999999999809
30
0
11
-23.649999999999981
21
1.3499999999999761
31
0
0
ARC
5
453
100
AcDbEntity
8
0
100
AcDbCircle
10
-23.899999999999984
20
1.3499999999999761
30
0
40
0.25000000000000022
210
0
220
0
230
1
100
AcDbArc
50
-90
51
0
0
ARC
5
454
100
AcDbEntity
8
0
100
AcDbCircle
10
-24.59999999999998
20
1.3499999999999761
30
0
40
0.24999999999999911
210
0
220
0
230
1
100
AcDbArc
50
180
51
270
0
LINE
5
455
100
AcDbEntity
8
0
100
AcDbLine
10
-21.649999999999984
20
8.6499999999999915
30
0
11
-22.34999999999998
21
8.6499999999999915
31
0
0
ARC
5
456
100
AcDbEntity
8
0
100
AcDbCircle
10
-22.34999999999998
20
8.8999999999999915
30
0
40
0.25000000000000355
210
0
220
0
230
1
100
AcDbArc
50
180
51
270
0
LINE
5
457
100
AcDbEntity
8
0
100
AcDbLine
10
-22.599999999999984
20
8.8999999999999915
30
0
11
-22.59999999999998
21
9.5499999999999972
31
0
0
ARC
5
458
100
AcDbEntity
8
0
100
AcDbCircle
10
-22.34999999999998
20
9.5499999999999972
30
0
40
0.24999999999999356
210
0
220
-0
230
1
100
AcDbArc
50
90
51
180
0
ARC
5
459
100
AcDbEntity
8
0
100
AcDbCircle
10
-21.649999999999984
20
9.5499999999999883
30
0
40
0.24999999999999911
210
0
220
0
230
1
100
AcDbArc
50
0
51
90
0
LINE
5
460
100
AcDbEntity
8
0
100
AcDbLine
10
-21.399999999999984
20
9.5499999999999883
30
0
11
-21.399999999999984
21
8.8999999999999915
31
0
0
ARC
5
461
100
AcDbEntity
8
0
100
AcDbCircle
10
-21.649999999999984
20
8.8999999999999915
30
0
40
0.25000000000000022
210
0
220
0
230
1
100
AcDbArc
50
-90
51
0
0
ARC
5
462
100
AcDbEntity
8
0
100
AcDbCircle
10
-20.09999999999998
20
13.84999999999998
30
0
40
0.24999999999999911
210
0
220
0
230
1
100
AcDbArc
50
180
51
270
0
LINE
5
463
100
AcDbEntity
8
0
100
AcDbLine
10
-20.34999999999998
20
13.84999999999998
30
0
11
-20.34999999999998
21
14.499999999999986
31
0
0
ARC
5
464
100
AcDbEntity
8
0
100
AcDbCircle
10
-20.09999999999998
20
14.499999999999986
30
0
40
0.25000000000000133
210
0
220
-0
230
1
100
AcDbArc
50
90
51
180
0
LINE
5
465
100
AcDbEntity
8
0
100
AcDbLine
10
-20.09999999999998
20
14.749999999999988
30
0
11
-19.399999999999981
21
14.749999999999988
31
0
0
ARC
5
466
100
AcDbEntity
8
0
100
AcDbCircle
10
-19.399999999999981
20
14.499999999999986
30
0
40
0.24999999999999911
210
0
220
0
230
1
100
AcDbArc
50
0
51
90
0
LINE
5
467
100
AcDbEntity
8
0
100
AcDbLine
10
-19.149999999999984
20
14.499999999999986
30
0
11
-19.149999999999984
21
13.84999999999998
31
0
0
ARC
5
468
100
AcDbEntity
8
0
100
AcDbCircle
10
-19.399999999999981
20
13.84999999999998
30
0
40
0.24999999999999911
210
0
220
0
230
1
100
AcDbArc
50
-90
51
0
0
LWPOLYLINE
5
469
100
AcDbEntity
8
0
100
AcDbPolyline
90
8
70
1
43
0.0
10
-20.349999999999984
20
21.399999999999988
10
-20.349999999999984
20
22.049999999999997
42
-0.41421356237309503
10
-20.099999999999984
20
22.299999999999997
10
-19.399999999999984
20
22.299999999999997
42
-0.41421356237309503
10
-19.149999999999988
20
22.049999999999997
10
-19.149999999999988
20
21.399999999999988
42
-0.41421356237309503
10
-19.399999999999984
20
21.149999999999988
10
-20.099999999999984
20
21.149999999999988
42
-0.41421356237309503
0
LINE
5
470
100
AcDbEntity
8
0
100
AcDbLine
10
-23.899999999999974
20
21.149999999999988
30
0
11
-24.599999999999977
21
21.149999999999988
31
0
0
ARC
5
471
100
AcDbEntity
8
0
100
AcDbCircle
10
-24.599999999999977
20
21.399999999999988
30
0
40
0.24999999999999911
210
0
220
0
230
1
100
AcDbArc
50
180
51
270
0
LINE
5
472
100
AcDbEntity
8
0
100
AcDbLine
10
-24.849999999999977
20
21.399999999999988
30
0
11
-24.849999999999977
21
22.050000000000001
31
0
0
ARC
5
473
100
AcDbEntity
8
0
100
AcDbCircle
10
-24.599999999999977
20
22.050000000000001
30
0
40
0.24999999999999467
210
0
220
-0
230
1
100
AcDbArc
50
90
51
180
0
ARC
5
474
100
AcDbEntity
8
0
100
AcDbCircle
10
-23.899999999999977
20
22.049999999999997
30
0
40
0.24999999999999911
210
0
220
0
230
1
100
AcDbArc
50
0
51
90
0
LINE
5
475
100
AcDbEntity
8
0
100
AcDbLine
10
-23.649999999999981
20
22.049999999999997
30
0
11
-23.649999999999981
21
21.399999999999988
31
0
0
ARC
5
476
100
AcDbEntity
8
0
100
AcDbCircle
10
-23.899999999999974
20
21.399999999999988
30
0
40
0.24999999999999911
210
0
220
0
230
1
100
AcDbArc
50
-90
51
0
0
LINE
5
477
100
AcDbEntity
8
0
100
AcDbLine
10
-24.849999999999991
20
26.34999999999998
30
0
11
-24.849999999999991
21
26.999999999999993
31
0
0
ARC
5
478
100
AcDbEntity
8
0
100
AcDbCircle
10
-24.599999999999991
20
26.999999999999993
30
0
40
0.24999999999999911
210
0
220
-0
230
1
100
AcDbArc
50
90
51
180
0
LINE
5
479
100
AcDbEntity
8
0
100
AcDbLine
10
-24.599999999999991
20
27.249999999999993
30
0
11
-23.899999999999988
21
27.249999999999986
31
0
0
ARC
5
480
100
AcDbEntity
8
0
100
AcDbCircle
10
-23.899999999999988
20
26.999999999999989
30
0
40
0.24999999999999911
210
0
220
0
230
1
100
AcDbArc
50
0
51
90
0
LINE
5
481
100
AcDbEntity
8
0
100
AcDbLine
10
-23.649999999999988
20
26.999999999999989
30
0
11
-23.649999999999988
21
26.34999999999998
31
0
0
ARC
5
482
100
AcDbEntity
8
0
100
AcDbCircle
10
-23.899999999999988
20
26.34999999999998
30
0
40
0.24999999999999911
210
0
220
0
230
1
100
AcDbArc
50
-90
51
0
0
ARC
5
483
100
AcDbEntity
8
0
100
AcDbCircle
10
-24.599999999999991
20
26.34999999999998
30
0
40
0.24999999999999911
210
0
220
0
230
1
100
AcDbArc
50
180
51
270
0
LINE
5
484
100
AcDbEntity
8
0
100
AcDbLine
10
-21.649999999999988
20
33.650000000000006
30
0
11
-22.349999999999991
21
33.650000000000006
31
0
0
ARC
5
485
100
AcDbEntity
8
0
100
AcDbCircle
10
-22.349999999999991
20
33.899999999999999
30
0
40
0.24999999999999911
210
0
220
0
230
1
100
AcDbArc
50
180
51
270
0
LINE
5
486
100
AcDbEntity
8
0
100
AcDbLine
10
-22.599999999999987
20
33.899999999999999
30
0
11
-22.599999999999987
21
34.549999999999997
31
0
0
ARC
5
487
100
AcDbEntity
8
0
100
AcDbCircle
10
-22.349999999999991
20
34.549999999999997
30
0
40
0.24999999999999467
210
0
220
-0
230
1
100
AcDbArc
50
90
51
180
0
ARC
5
488
100
AcDbEntity
8
0
100
AcDbCircle
10
-21.649999999999988
20
34.549999999999997
30
0
40
0.24999999999999911
210
0
220
0
230
1
100
AcDbArc
50
0
51
90
0
LINE
5
489
100
AcDbEntity
8
0
100
AcDbLine
10
-21.399999999999988
20
34.549999999999997
30
0
11
-21.399999999999988
21
33.899999999999999
31
0
0
ARC
5
490
100
AcDbEntity
8
0
100
AcDbCircle
10
-21.649999999999988
20
33.899999999999999
30
0
40
0.24999999999999911
210
0
220
0
230
1
100
AcDbArc
50
-90
51
0
0
ARC
5
491
100
AcDbEntity
8
0
100
AcDbCircle
10
-20.099999999999987
20
38.84999999999998
30
0
40
0.24999999999999911
210
0
220
0
230
1
100
AcDbArc
50
180
51
270
0
LINE
5
492
100
AcDbEntity
8
0
100
AcDbLine
10
-20.349999999999987
20
38.84999999999998
30
0
11
-20.349999999999987
21
39.499999999999986
31
0
0
ARC
5
493
100
AcDbEntity
8
0
100
AcDbCircle
10
-20.099999999999987
20
39.499999999999986
30
0
40
0.24999999999999911
210
0
220
-0
230
1
100
AcDbArc
50
90
51
180
0
LINE
5
494
100
AcDbEntity
8
0
100
AcDbLine
10
-20.099999999999987
20
39.749999999999986
30
0
11
-19.399999999999988
21
39.749999999999986
31
0
0
ARC
5
495
100
AcDbEntity
8
0
100
AcDbCircle
10
-19.399999999999988
20
39.499999999999986
30
0
40
0.25000000000000133
210
0
220
0
230
1
100
AcDbArc
50
0
51
90
0
LINE
5
496
100
AcDbEntity
8
0
100
AcDbLine
10
-19.149999999999988
20
39.499999999999986
30
0
11
-19.149999999999988
21
38.84999999999998
31
0
0
ARC
5
497
100
AcDbEntity
8
0
100
AcDbCircle
10
-19.399999999999988
20
38.84999999999998
30
0
40
0.24999999999999911
210
0
220
0
230
1
100
AcDbArc
50
-90
51
0
0
LWPOLYLINE
5
498
100
AcDbEntity
8
0
100
AcDbPolyline
90
8
70
1
43
0.0
10
-20.349999999999994
20
46.399999999999999
10
-20.349999999999998
20
47.049999999999997
42
-0.41421356237309503
10
-20.099999999999994
20
47.300000000000004
10
-19.399999999999991
20
47.300000000000004
42
-0.41421356237309503
10
-19.149999999999991
20
47.049999999999997
10
-19.149999999999988
20
46.399999999999999
42
-0.41421356237309503
10
-19.399999999999991
20
46.149999999999991
10
-20.099999999999994
20
46.150000000000006
42
-0.41421356237309503
0
LINE
5
499
100
AcDbEntity
8
0
100
AcDbLine
10
-23.899999999999984
20
46.149999999999991
30
0
11
-24.599999999999987
21
46.149999999999991
31
0
0
ARC
5
500
100
AcDbEntity
8
0
100
AcDbCircle
10
-24.599999999999987
20
46.399999999999999
30
0
40
0.24999999999999911
210
0
220
0
230
1
100
AcDbArc
50
180
51
270
0
LINE
5
501
100
AcDbEntity
8
0
100
AcDbLine
10
-24.849999999999987
20
46.399999999999999
30
0
11
-24.84999999999998
21
47.050000000000011
31
0
0
ARC
5
502
100
AcDbEntity
8
0
100
AcDbCircle
10
-24.599999999999987
20
47.050000000000011
30
0
40
0.24999999999999467
210
0
220
-0
230
1
100
AcDbArc
50
90
51
180
0
ARC
5
503
100
AcDbEntity
8
0
100
AcDbCircle
10
-23.899999999999984
20
47.049999999999997
30
0
40
0.24999999999999911
210
0
220
0
230
1
100
AcDbArc
50
0
51
90
0
LINE
5
504
100
AcDbEntity
8
0
100
AcDbLine
10
-23.649999999999984
20
47.049999999999997
30
0
11
-23.649999999999984
21
46.399999999999999
31
0
0
ARC
5
505
100
AcDbEntity
8
0
100
AcDbCircle
10
-23.899999999999984
20
46.399999999999999
30
0
40
0.25000000000000355
210
0
220
0
230
1
100
AcDbArc
50
-90
51
0
0
LINE
5
506
100
AcDbEntity
8
0
100
AcDbLine
10
-13.849999999999984
20
1.3499999999999761
30
0
11
-13.849999999999984
21
1.9999999999999882
31
0
0
ARC
5
507
100
AcDbEntity
8
0
100
AcDbCircle
10
-13.599999999999985
20
1.9999999999999882
30
0
40
0.25000000000000022
210
0
220
-0
230
1
100
AcDbArc
50
90
51
180
0
LINE
5
508
100
AcDbEntity
8
0
100
AcDbLine
10
-13.599999999999985
20
2.2499999999999885
30
0
11
-12.899999999999984
21
2.2499999999999813
31
0
0
ARC
5
509
100
AcDbEntity
8
0
100
AcDbCircle
10
-12.899999999999984
20
1.9999999999999809
30
0
40
0.25000000000000133
210
0
220
0
230
1
100
AcDbArc
50
0
51
90
0
LINE
5
510
100
AcDbEntity
8
0
100
AcDbLine
10
-12.649999999999984
20
1.9999999999999809
30
0
11
-12.649999999999986
21
1.3499999999999761
31
0
0
ARC
5
511
100
AcDbEntity
8
0
100
AcDbCircle
10
-12.899999999999984
20
1.3499999999999761
30
0
40
0.25000000000000022
210
0
220
0
230
1
100
AcDbArc
50
-90
51
0
0
ARC
5
512
100
AcDbEntity
8
0
100
AcDbCircle
10
-13.599999999999985
20
1.3499999999999761
30
0
40
0.24999999999999911
210
0
220
0
230
1
100
AcDbArc
50
180
51
270
0
LINE
5
513
100
AcDbEntity
8
0
100
AcDbLine
10
-10.649999999999986
20
8.6499999999999915
30
0
11
-11.349999999999987
21
8.6499999999999915
31
0
0
ARC
5
514
100
AcDbEntity
8
0
100
AcDbCircle
10
-11.349999999999987
20
8.8999999999999915
30
0
40
0.25000000000000133
210
0
220
0
230
1
100
AcDbArc
50
180
51
270
0
LINE
5
515
100
AcDbEntity
8
0
100
AcDbLine
10
-11.599999999999987
20
8.8999999999999915
30
0
11
-11.599999999999985
21
9.5499999999999972
31
0
0
ARC
5
516
100
AcDbEntity
8
0
100
AcDbCircle
10
-11.349999999999987
20
9.5499999999999972
30
0
40
0.24999999999999356
210
0
220
-0
230
1
100
AcDbArc
50
90
51
180
0
ARC
5
517
100
AcDbEntity
8
0
100
AcDbCircle
10
-10.649999999999986
20
9.5499999999999883
30
0
40
0.24999999999999911
210
0
220
0
230
1
100
AcDbArc
50
0
51
90
0
LINE
5
518
100
AcDbEntity
8
0
100
AcDbLine
10
-10.399999999999988
20
9.5499999999999883
30
0
11
-10.399999999999988
21
8.8999999999999915
31
0
0
ARC
5
519
100
AcDbEntity
8
0
100
AcDbCircle
10
-10.649999999999986
20
8.8999999999999915
30
0
40
0.25000000000000022
210
0
220
0
230
1
100
AcDbArc
50
-90
51
0
0
ARC
5
520
100
AcDbEntity
8
0
100
AcDbCircle
10
-9.0999999999999837
20
13.84999999999998
30
0
40
0.25000000000000022
210
0
220
0
230
1
100
AcDbArc
50
180
51
270
0
LINE
5
521
100
AcDbEntity
8
0
100
AcDbLine
10
-9.3499999999999837
20
13.84999999999998
30
0
11
-9.3499999999999837
21
14.499999999999986
31
0
0
ARC
5
522
100
AcDbEntity
8
0
100
AcDbCircle
10
-9.0999999999999837
20
14.499999999999986
30
0
40
0.25000000000000133
210
0
220
-0
230
1
100
AcDbArc
50
90
51
180
0
LINE
5
523
100
AcDbEntity
8
0
100
AcDbLine
10
-9.0999999999999837
20
14.749999999999988
30
0
11
-8.3999999999999844
21
14.749999999999988
31
0
0
ARC
5
524
100
AcDbEntity
8
0
100
AcDbCircle
10
-8.3999999999999844
20
14.499999999999986
30
0
40
0.25000000000000022
210
0
220
0
230
1
100
AcDbArc
50
0
51
90
0
LINE
5
525
100
AcDbEntity
8
0
100
AcDbLine
10
-8.1499999999999844
20
14.499999999999986
30
0
11
-8.1499999999999844
21
13.84999999999998
31
0
0
ARC
5
526
100
AcDbEntity
8
0
100
AcDbCircle
10
-8.3999999999999844
20
13.84999999999998
30
0
40
0.24999999999999911
210
0
220
0
230
1
100
AcDbArc
50
-90
51
0
0
LWPOLYLINE
5
527
100
AcDbEntity
8
0
100
AcDbPolyline
90
8
70
1
43
0.0
10
-9.3499999999999872
20
21.399999999999988
10
-9.3499999999999872
20
22.049999999999997
42
-0.41421356237309503
10
-9.0999999999999872
20
22.299999999999997
10
-8.3999999999999879
20
22.299999999999997
42
-0.41421356237309503
10
-8.1499999999999879
20
22.049999999999997
10
-8.1499999999999897
20
21.399999999999988
42
-0.41421356237309503
10
-8.3999999999999879
20
21.149999999999988
10
-9.0999999999999872
20
21.149999999999988
42
-0.41421356237309503
0
LINE
5
528
100
AcDbEntity
8
0
100
AcDbLine
10
-12.899999999999977
20
21.149999999999988
30
0
11
-13.59999999999998
21
21.149999999999988
31
0
0
ARC
5
529
100
AcDbEntity
8
0
100
AcDbCircle
10
-13.59999999999998
20
21.399999999999988
30
0
40
0.24999999999999911
210
0
220
0
230
1
100
AcDbArc
50
180
51
270
0
LINE
5
530
100
AcDbEntity
8
0
100
AcDbLine
10
-13.84999999999998
20
21.399999999999988
30
0
11
-13.849999999999978
21
22.050000000000001
31
0
0
ARC
5
531
100
AcDbEntity
8
0
100
AcDbCircle
10
-13.59999999999998
20
22.050000000000001
30
0
40
0.24999999999999467
210
0
220
-0
230
1
100
AcDbArc
50
90
51
180
0
ARC
5
532
100
AcDbEntity
8
0
100
AcDbCircle
10
-12.899999999999983
20
22.049999999999997
30
0
40
0.24999999999999911
210
0
220
0
230
1
100
AcDbArc
50
0
51
90
0
LINE
5
533
100
AcDbEntity
8
0
100
AcDbLine
10
-12.649999999999984
20
22.049999999999997
30
0
11
-12.649999999999981
21
21.399999999999988
31
0
0
ARC
5
534
100
AcDbEntity
8
0
100
AcDbCircle
10
-12.899999999999977
20
21.399999999999988
30
0
40
0.24999999999999911
210
0
220
0
230
1
100
AcDbArc
50
-90
51
0
0
LINE
5
535
100
AcDbEntity
8
0
100
AcDbLine
10
-13.849999999999991
20
26.34999999999998
30
0
11
-13.849999999999991
21
26.999999999999993
31
0
0
ARC
5
536
100
AcDbEntity
8
0
100
AcDbCircle
10
-13.599999999999993
20
26.999999999999993
30
0
40
0.24999999999999911
210
0
220
-0
230
1
100
AcDbArc
50
90
51
180
0
LINE
5
537
100
AcDbEntity
8
0
100
AcDbLine
10
-13.599999999999993
20
27.249999999999993
30
0
11
-12.899999999999991
21
27.249999999999986
31
0
0
ARC
5
538
100
AcDbEntity
8
0
100
AcDbCircle
10
-12.899999999999991
20
26.999999999999989
30
0
40
0.24999999999999911
210
0
220
0
230
1
100
AcDbArc
50
0
51
90
0
LINE
5
539
100
AcDbEntity
8
0
100
AcDbLine
10
-12.649999999999991
20
26.999999999999989
30
0
11
-12.649999999999991
21
26.34999999999998
31
0
0
ARC
5
540
100
AcDbEntity
8
0
100
AcDbCircle
10
-12.899999999999991
20
26.34999999999998
30
0
40
0.24999999999999911
210
0
220
0
230
1
100
AcDbArc
50
-90
51
0
0
ARC
5
541
100
AcDbEntity
8
0
100
AcDbCircle
10
-13.599999999999993
20
26.34999999999998
30
0
40
0.24999999999999911
210
0
220
0
230
1
100
AcDbArc
50
180
51
270
0
LINE
5
542
100
AcDbEntity
8
0
100
AcDbLine
10
-10.649999999999993
20
33.650000000000006
30
0
11
-11.349999999999994
21
33.650000000000006
31
0
0
ARC
5
543
100
AcDbEntity
8
0
100
AcDbCircle
10
-11.349999999999994
20
33.899999999999999
30
0
40
0.24999999999999911
210
0
220
0
230
1
100
AcDbArc
50
180
51
270
0
LINE
5
544
100
AcDbEntity
8
0
100
AcDbLine
10
-11.599999999999993
20
33.899999999999999
30
0
11
-11.599999999999993
21
34.549999999999997
31
0
0
ARC
5
545
100
AcDbEntity
8
0
100
AcDbCircle
10
-11.349999999999994
20
34.549999999999997
30
0
40
0.24999999999999467
210
0
220
-0
230
1
100
AcDbArc
50
90
51
180
0
ARC
5
546
100
AcDbEntity
8
0
100
AcDbCircle
10
-10.649999999999993
20
34.549999999999997
30
0
40
0.25000000000000133
210
0
220
0
230
1
100
AcDbArc
50
0
51
90
0
LINE
5
547
100
AcDbEntity
8
0
100
AcDbLine
10
-10.399999999999991
20
34.549999999999997
30
0
11
-10.399999999999993
21
33.899999999999999
31
0
0
ARC
5
548
100
AcDbEntity
8
0
100
AcDbCircle
10
-10.649999999999993
20
33.899999999999999
30
0
40
0.24999999999999911
210
0
220
0
230
1
100
AcDbArc
50
-90
51
0
0
ARC
5
549
100
AcDbEntity
8
0
100
AcDbCircle
10
-9.0999999999999908
20
38.84999999999998
30
0
40
0.25000000000000022
210
0
220
0
230
1
100
AcDbArc
50
180
51
270
0
LINE
5
550
100
AcDbEntity
8
0
100
AcDbLine
10
-9.3499999999999908
20
38.84999999999998
30
0
11
-9.3499999999999908
21
39.499999999999986
31
0
0
ARC
5
551
100
AcDbEntity
8
0
100
AcDbCircle
10
-9.0999999999999908
20
39.499999999999986
30
0
40
0.24999999999999911
210
0
220
-0
230
1
100
AcDbArc
50
90
51
180
0
LINE
5
552
100
AcDbEntity
8
0
100
AcDbLine
10
-9.0999999999999908
20
39.749999999999986
30
0
11
-8.3999999999999915
21
39.749999999999986
31
0
0
ARC
5
553
100
AcDbEntity
8
0
100
AcDbCircle
10
-8.3999999999999915
20
39.499999999999986
30
0
40
0.25000000000000022
210
0
220
0
230
1
100
AcDbArc
50
0
51
90
0
LINE
5
554
100
AcDbEntity
8
0
100
AcDbLine
10
-8.1499999999999915
20
39.499999999999986
30
0
11
-8.1499999999999915
21
38.84999999999998
31
0
0
ARC
5
555
100
AcDbEntity
8
0
100
AcDbCircle
10
-8.3999999999999915
20
38.84999999999998
30
0
40
0.24999999999999911
210
0
220
0
230
1
100
AcDbArc
50
-90
51
0
0
LWPOLYLINE
5
556
100
AcDbEntity
8
0
100
AcDbPolyline
90
8
70
1
43
0.0
10
-9.3499999999999943
20
46.399999999999999
10
-9.3499999999999979
20
47.049999999999997
42
-0.41421356237309503
10
-9.0999999999999943
20
47.300000000000004
10
-8.399999999999995
20
47.300000000000004
42
-0.41421356237309503
10
-8.149999999999995
20
47.049999999999997
10
-8.1499999999999915
20
46.399999999999999
42
-0.41421356237309503
10
-8.399999999999995
20
46.149999999999991
10
-9.0999999999999943
20
46.149999999999991
42
-0.41421356237309503
0
LINE
5
557
100
AcDbEntity
8
0
100
AcDbLine
10
-12.899999999999984
20
46.149999999999991
30
0
11
-13.599999999999987
21
46.149999999999991
31
0
0
ARC
5
558
100
AcDbEntity
8
0
100
AcDbCircle
10
-13.599999999999987
20
46.399999999999999
30
0
40
0.25000000000000133
210
0
220
0
230
1
100
AcDbArc
50
180
51
270
0
LINE
5
559
100
AcDbEntity
8
0
100
AcDbLine
10
-13.849999999999989
20
46.399999999999999
30
0
11
-13.849999999999984
21
47.050000000000011
31
0
0
ARC
5
560
100
AcDbEntity
8
0
100
AcDbCircle
10
-13.599999999999987
20
47.050000000000011
30
0
40
0.24999999999999467
210
0
220
-0
230
1
100
AcDbArc
50
90
51
180
0
ARC
5
561
100
AcDbEntity
8
0
100
AcDbCircle
10
-12.89999999999999
20
47.049999999999997
30
0
40
0.25000000000000133
210
0
220
0
230
1
100
AcDbArc
50
0
51
90
0
LINE
5
562
100
AcDbEntity
8
0
100
AcDbLine
10
-12.649999999999988
20
47.049999999999997
30
0
11
-12.649999999999988
21
46.399999999999999
31
0
0
ARC
5
563
100
AcDbEntity
8
0
100
AcDbCircle
10
-12.899999999999984
20
46.399999999999999
30
0
40
0.25000000000000355
210
0
220
0
230
1
100
AcDbArc
50
-90
51
0
0
LINE
5
564
100
AcDbEntity
8
0
100
AcDbLine
10
-2.8499999999999774
20
-11.150000000000022
30
0
11
-2.8499999999999774
21
-10.500000000000009
31
0
0
ARC
5
565
100
AcDbEntity
8
0
100
AcDbCircle
10
-2.5999999999999774
20
-10.500000000000009
30
0
40
0.25000000000000133
210
0
220
-0
230
1
100
AcDbArc
50
90
51
180
0
LINE
5
566
100
AcDbEntity
8
0
100
AcDbLine
10
-2.5999999999999774
20
-10.250000000000007
30
0
11
-1.8999999999999784
21
-10.250000000000018
31
0
0
ARC
5
567
100
AcDbEntity
8
0
100
AcDbCircle
10
-1.8999999999999784
20
-10.500000000000016
30
0
40
0.25000000000000022
210
0
220
0
230
1
100
AcDbArc
50
0
51
90
0
LINE
5
568
100
AcDbEntity
8
0
100
AcDbLine
10
-1.6499999999999782
20
-10.500000000000016
30
0
11
-1.6499999999999782
21
-11.150000000000022
31
0
0
ARC
5
569
100
AcDbEntity
8
0
100
AcDbCircle
10
-1.8999999999999784
20
-11.150000000000022
30
0
40
0.25000000000000133
210
0
220
0
230
1
100
AcDbArc
50
-90
51
0
0
ARC
5
570
100
AcDbEntity
8
0
100
AcDbCircle
10
-2.5999999999999774
20
-11.150000000000022
30
0
40
0.25000000000000022
210
0
220
0
230
1
100
AcDbArc
50
180
51
270
0
LINE
5
571
100
AcDbEntity
8
0
100
AcDbLine
10
0.35000000000002041
20
-3.8500000000000068
30
0
11
-0.34999999999997877
21
-3.8500000000000068
31
0
0
ARC
5
572
100
AcDbEntity
8
0
100
AcDbCircle
10
-0.34999999999997877
20
-3.6000000000000059
30
0
40
0.25000000000000194
210
0
220
0
230
1
100
AcDbArc
50
180
51
270
0
LINE
5
573
100
AcDbEntity
8
0
100
AcDbLine
10
-0.59999999999998077
20
-3.6000000000000059
30
0
11
-0.59999999999997899
21
-2.9500000000000011
31
0
0
ARC
5
574
100
AcDbEntity
8
0
100
AcDbCircle
10
-0.34999999999997877
20
-2.9500000000000011
30
0
40
0.24999999999999301
210
0
220
-0
230
1
100
AcDbArc
50
90
51
180
0
ARC
5
575
100
AcDbEntity
8
0
100
AcDbCircle
10
0.35000000000002041
20
-2.9500000000000082
30
0
40
0.25000000000000022
210
0
220
0
230
1
100
AcDbArc
50
0
51
90
0
LINE
5
576
100
AcDbEntity
8
0
100
AcDbLine
10
0.60000000000002063
20
-2.9500000000000082
30
0
11
0.60000000000002063
21
-3.6000000000000059
31
0
0
ARC
5
577
100
AcDbEntity
8
0
100
AcDbCircle
10
0.35000000000002041
20
-3.6000000000000059
30
0
40
0.25000000000000078
210
0
220
0
230
1
100
AcDbArc
50
-90
51
0
0
ARC
5
578
100
AcDbEntity
8
0
100
AcDbCircle
10
1.9000000000000197
20
1.3499999999999761
30
0
40
0.25000000000000022
210
0
220
0
230
1
100
AcDbArc
50
180
51
270
0
LINE
5
579
100
AcDbEntity
8
0
100
AcDbLine
10
1.6500000000000195
20
1.3499999999999761
30
0
11
1.6500000000000195
21
1.9999999999999809
31
0
0
ARC
5
580
100
AcDbEntity
8
0
100
AcDbCircle
10
1.9000000000000197
20
1.9999999999999809
30
0
40
0.25000000000000022
210
0
220
-0
230
1
100
AcDbArc
50
90
51
180
0
LINE
5
581
100
AcDbEntity
8
0
100
AcDbLine
10
1.9000000000000197
20
2.2499999999999813
30
0
11
2.6000000000000196
21
2.2499999999999813
31
0
0
ARC
5
582
100
AcDbEntity
8
0
100
AcDbCircle
10
2.6000000000000196
20
1.9999999999999809
30
0
40
0.25000000000000022
210
0
220
0
230
1
100
AcDbArc
50
0
51
90
0
LINE
5
583
100
AcDbEntity
8
0
100
AcDbLine
10
2.8500000000000196
20
1.9999999999999809
30
0
11
2.8500000000000192
21
1.3499999999999761
31
0
0
ARC
5
584
100
AcDbEntity
8
0
100
AcDbCircle
10
2.6000000000000196
20
1.3499999999999761
30
0
40
0.25000000000000011
210
0
220
0
230
1
100
AcDbArc
50
-90
51
0
0
LWPOLYLINE
5
585
100
AcDbEntity
8
0
100
AcDbPolyline
90
8
70
1
43
0.0
10
1.6500000000000161
20
8.8999999999999844
10
1.6500000000000161
20
9.5499999999999883
42
-0.41421356237309503
10
1.9000000000000163
20
9.7999999999999883
10
2.6000000000000156
20
9.7999999999999883
42
-0.41421356237309503
10
2.8500000000000156
20
9.5499999999999883
10
2.8500000000000156
20
8.8999999999999844
42
-0.41421356237309503
10
2.6000000000000156
20
8.6499999999999844
10
1.9000000000000163
20
8.6499999999999844
42
-0.41421356237309503
0
LINE
5
586
100
AcDbEntity
8
0
100
AcDbLine
10
-1.8999999999999748
20
8.6499999999999844
30
0
11
-2.5999999999999774
21
8.6499999999999844
31
0
0
ARC
5
587
100
AcDbEntity
8
0
100
AcDbCircle
10
-2.5999999999999774
20
8.8999999999999844
30
0
40
0.25000000000000022
210
0
220
0
230
1
100
AcDbArc
50
180
51
270
0
LINE
5
588
100
AcDbEntity
8
0
100
AcDbLine
10
-2.8499999999999774
20
8.8999999999999844
30
0
11
-2.8499999999999743
21
9.5499999999999972
31
0
0
ARC
5
589
100
AcDbEntity
8
0
100
AcDbCircle
10
-2.5999999999999774
20
9.5499999999999972
30
0
40
0.24999999999999134
210
0
220
-0
230
1
100
AcDbArc
50
90
51
180
0
ARC
5
590
100
AcDbEntity
8
0
100
AcDbCircle
10
-1.8999999999999784
20
9.5499999999999883
30
0
40
0.25000000000000189
210
0
220
0
230
1
100
AcDbArc
50
0
51
90
0
LINE
5
591
100
AcDbEntity
8
0
100
AcDbLine
10
-1.6499999999999764
20
9.5499999999999883
30
0
11
-1.6499999999999782
21
8.8999999999999844
31
0
0
ARC
5
592
100
AcDbEntity
8
0
100
AcDbCircle
10
-1.8999999999999748
20
8.8999999999999844
30
0
40
0.25000000000000022
210
0
220
0
230
1
100
AcDbArc
50
-90
51
0
0
LINE
5
593
100
AcDbEntity
8
0
100
AcDbLine
10
-2.8499999999999845
20
13.84999999999998
30
0
11
-2.8499999999999845
21
14.499999999999993
31
0
0
ARC
5
594
100
AcDbEntity
8
0
100
AcDbCircle
10
-2.5999999999999841
20
14.499999999999993
30
0
40
0.24999999999999911
210
0
220
-0
230
1
100
AcDbArc
50
90
51
180
0
LINE
5
595
100
AcDbEntity
8
0
100
AcDbLine
10
-2.5999999999999841
20
14.749999999999993
30
0
11
-1.899999999999985
21
14.749999999999988
31
0
0
ARC
5
596
100
AcDbEntity
8
0
100
AcDbCircle
10
-1.899999999999985
20
14.499999999999986
30
0
40
0.25000000000000022
210
0
220
0
230
1
100
AcDbArc
50
0
51
90
0
LINE
5
597
100
AcDbEntity
8
0
100
AcDbLine
10
-1.6499999999999848
20
14.499999999999986
30
0
11
-1.6499999999999848
21
13.84999999999998
31
0
0
ARC
5
598
100
AcDbEntity
8
0
100
AcDbCircle
10
-1.899999999999985
20
13.84999999999998
30
0
40
0.24999999999999911
210
0
220
0
230
1
100
AcDbArc
50
-90
51
0
0
ARC
5
599
100
AcDbEntity
8
0
100
AcDbCircle
10
-2.5999999999999841
20
13.84999999999998
30
0
40
0.25000000000000078
210
0
220
0
230
1
100
AcDbArc
50
180
51
270
0
LINE
5
600
100
AcDbEntity
8
0
100
AcDbLine
10
0.35000000000001358
20
21.149999999999999
30
0
11
-0.34999999999998582
21
21.149999999999999
31
0
0
ARC
5
601
100
AcDbEntity
8
0
100
AcDbCircle
10
-0.34999999999998582
20
21.399999999999999
30
0
40
0.25000000000000022
210
0
220
0
230
1
100
AcDbArc
50
180
51
270
0
LINE
5
602
100
AcDbEntity
8
0
100
AcDbLine
10
-0.59999999999998599
20
21.399999999999999
30
0
11
-0.59999999999998599
21
22.050000000000001
31
0
0
ARC
5
603
100
AcDbEntity
8
0
100
AcDbCircle
10
-0.34999999999998582
20
22.050000000000001
30
0
40
0.24999999999999467
210
0
220
-0
230
1
100
AcDbArc
50
90
51
180
0
ARC
5
604
100
AcDbEntity
8
0
100
AcDbCircle
10
0.35000000000001358
20
22.049999999999997
30
0
40
0.25000000000000022
210
0
220
0
230
1
100
AcDbArc
50
0
51
90
0
LINE
5
605
100
AcDbEntity
8
0
100
AcDbLine
10
0.60000000000001374
20
22.049999999999997
30
0
11
0.60000000000001374
21
21.399999999999999
31
0
0
ARC
5
606
100
AcDbEntity
8
0
100
AcDbCircle
10
0.35000000000001358
20
21.399999999999999
30
0
40
0.24999999999999911
210
0
220
0
230
1
100
AcDbArc
50
-90
51
0
0
ARC
5
607
100
AcDbEntity
8
0
100
AcDbCircle
10
1.9000000000000163
20
26.34999999999998
30
0
40
0.25000000000000022
210
0
220
0
230
1
100
AcDbArc
50
180
51
270
0
LINE
5
608
100
AcDbEntity
8
0
100
AcDbLine
10
1.6500000000000161
20
26.34999999999998
30
0
11
1.6500000000000161
21
26.999999999999989
31
0
0
ARC
5
609
100
AcDbEntity
8
0
100
AcDbCircle
10
1.9000000000000163
20
26.999999999999989
30
0
40
0.24999999999999911
210
0
220
-0
230
1
100
AcDbArc
50
90
51
180
0
LINE
5
610
100
AcDbEntity
8
0
100
AcDbLine
10
1.9000000000000163
20
27.249999999999986
30
0
11
2.6000000000000156
21
27.249999999999986
31
0
0
ARC
5
611
100
AcDbEntity
8
0
100
AcDbCircle
10
2.6000000000000156
20
26.999999999999989
30
0
40
0.25000000000000022
210
0
220
0
230
1
100
AcDbArc
50
0
51
90
0
LINE
5
612
100
AcDbEntity
8
0
100
AcDbLine
10
2.8500000000000156
20
26.999999999999989
30
0
11
2.8500000000000156
21
26.34999999999998
31
0
0
ARC
5
613
100
AcDbEntity
8
0
100
AcDbCircle
10
2.6000000000000156
20
26.34999999999998
30
0
40
0.24999999999999911
210
0
220
0
230
1
100
AcDbArc
50
-90
51
0
0
LWPOLYLINE
5
614
100
AcDbEntity
8
0
100
AcDbPolyline
90
8
70
1
43
0.0
10
1.6500000000000126
20
33.899999999999991
10
1.6500000000000137
20
34.549999999999997
42
-0.41421356237309503
10
1.9000000000000128
20
34.799999999999997
10
2.6000000000000121
20
34.799999999999997
42
-0.41421356237309503
10
2.8500000000000125
20
34.549999999999997
10
2.8500000000000112
20
33.899999999999991
42
-0.41421356237309503
10
2.6000000000000121
20
33.649999999999991
10
1.9000000000000128
20
33.649999999999991
42
-0.41421356237309503
0
LINE
5
615
100
AcDbEntity
8
0
100
AcDbLine
10
-1.8999999999999784
20
33.649999999999984
30
0
11
-2.599999999999981
21
33.649999999999984
31
0
0
ARC
5
616
100
AcDbEntity
8
0
100
AcDbCircle
10
-2.599999999999981
20
33.899999999999991
30
0
40
0.25000000000000022
210
0
220
0
230
1
100
AcDbArc
50
180
51
270
0
LINE
5
617
100
AcDbEntity
8
0
100
AcDbLine
10
-2.8499999999999814
20
33.899999999999991
30
0
11
-2.8499999999999774
21
34.549999999999997
31
0
0
ARC
5
618
100
AcDbEntity
8
0
100
AcDbCircle
10
-2.599999999999981
20
34.549999999999997
30
0
40
0.24999999999999467
210
0
220
-0
230
1
100
AcDbArc
50
90
51
180
0
ARC
5
619
100
AcDbEntity
8
0
100
AcDbCircle
10
-1.8999999999999817
20
34.549999999999997
30
0
40
0.25000000000000022
210
0
220
0
230
1
100
AcDbArc
50
0
51
90
0
LINE
5
620
100
AcDbEntity
8
0
100
AcDbLine
10
-1.6499999999999815
20
34.549999999999997
30
0
11
-1.6499999999999815
21
33.899999999999991
31
0
0
ARC
5
621
100
AcDbEntity
8
0
100
AcDbCircle
10
-1.8999999999999784
20
33.899999999999991
30
0
40
0.25000000000000355
210
0
220
0
230
1
100
AcDbArc
50
-90
51
0
0
LINE
5
622
100
AcDbEntity
8
0
100
AcDbLine
10
-2.8499999999999881
20
38.84999999999998
30
0
11
-2.8499999999999881
21
39.499999999999993
31
0
0
ARC
5
623
100
AcDbEntity
8
0
100
AcDbCircle
10
-2.5999999999999881
20
39.499999999999993
30
0
40
0.24999999999999911
210
0
220
-0
230
1
100
AcDbArc
50
90
51
180
0
LINE
5
624
100
AcDbEntity
8
0
100
AcDbLine
10
-2.5999999999999881
20
39.749999999999993
30
0
11
-1.8999999999999886
21
39.749999999999986
31
0
0
ARC
5
625
100
AcDbEntity
8
0
100
AcDbCircle
10
-1.8999999999999886
20
39.499999999999986
30
0
40
0.25000000000000022
210
0
220
0
230
1
100
AcDbArc
50
0
51
90
0
LINE
5
626
100
AcDbEntity
8
0
100
AcDbLine
10
-1.6499999999999884
20
39.499999999999986
30
0
11
-1.6499999999999884
21
38.84999999999998
31
0
0
ARC
5
627
100
AcDbEntity
8
0
100
AcDbCircle
10
-1.8999999999999886
20
38.84999999999998
30
0
40
0.24999999999999911
210
0
220
0
230
1
100
AcDbArc
50
-90
51
0
0
ARC
5
628
100
AcDbEntity
8
0
100
AcDbCircle
10
-2.5999999999999881
20
38.84999999999998
30
0
40
0.25000000000000022
210
0
220
0
230
1
100
AcDbArc
50
180
51
270
0
LINE
5
629
100
AcDbEntity
8
0
100
AcDbLine
10
0.35000000000001003
20
46.150000000000006
30
0
11
-0.34999999999998921
21
46.150000000000006
31
0
0
ARC
5
630
100
AcDbEntity
8
0
100
AcDbCircle
10
-0.34999999999998921
20
46.399999999999999
30
0
40
0.25000000000000022
210
0
220
0
230
1
100
AcDbArc
50
180
51
270
0
LINE
5
631
100
AcDbEntity
8
0
100
AcDbLine
10
-0.59999999999998943
20
46.399999999999999
30
0
11
-0.59999999999998943
21
47.050000000000011
31
0
0
ARC
5
632
100
AcDbEntity
8
0
100
AcDbCircle
10
-0.34999999999998921
20
47.050000000000011
30
0
40
0.24999999999999467
210
0
220
-0
230
1
100
AcDbArc
50
90
51
180
0
ARC
5
633
100
AcDbEntity
8
0
100
AcDbCircle
10
0.35000000000001003
20
47.049999999999997
30
0
40
0.25000000000000022
210
0
220
0
230
1
100
AcDbArc
50
0
51
90
0
LINE
5
634
100
AcDbEntity
8
0
100
AcDbLine
10
0.6000000000000103
20
47.049999999999997
30
0
11
0.6000000000000103
21
46.399999999999999
31
0
0
ARC
5
635
100
AcDbEntity
8
0
100
AcDbCircle
10
0.35000000000001003
20
46.399999999999999
30
0
40
0.24999999999999467
210
0
220
0
230
1
100
AcDbArc
50
-90
51
0
0
ARC
5
636
100
AcDbEntity
8
0
100
AcDbCircle
10
12.900000000000025
20
-11.150000000000022
30
0
40
0.25000000000000133
210
0
220
0
230
1
100
AcDbArc
50
180
51
270
0
LINE
5
637
100
AcDbEntity
8
0
100
AcDbLine
10
12.650000000000023
20
-11.150000000000022
30
0
11
12.650000000000023
21
-10.500000000000016
31
0
0
ARC
5
638
100
AcDbEntity
8
0
100
AcDbCircle
10
12.900000000000025
20
-10.500000000000016
30
0
40
0.24999999999999911
210
0
220
-0
230
1
100
AcDbArc
50
90
51
180
0
LINE
5
639
100
AcDbEntity
8
0
100
AcDbLine
10
12.900000000000025
20
-10.250000000000018
30
0
11
13.600000000000021
21
-10.250000000000018
31
0
0
ARC
5
640
100
AcDbEntity
8
0
100
AcDbCircle
10
13.600000000000021
20
-10.500000000000016
30
0
40
0.24999999999999911
210
0
220
0
230
1
100
AcDbArc
50
0
51
90
0
LINE
5
641
100
AcDbEntity
8
0
100
AcDbLine
10
13.850000000000019
20
-10.500000000000016
30
0
11
13.850000000000025
21
-11.150000000000022
31
0
0
ARC
5
642
100
AcDbEntity
8
0
100
AcDbCircle
10
13.600000000000021
20
-11.150000000000022
30
0
40
0.24999999999999911
210
0
220
0
230
1
100
AcDbArc
50
-90
51
0
0
LWPOLYLINE
5
643
100
AcDbEntity
8
0
100
AcDbPolyline
90
8
70
1
43
0.0
10
12.65000000000002
20
-3.600000000000013
10
12.65000000000002
20
-2.9500000000000082
42
-0.41421356237309503
10
12.90000000000002
20
-2.7000000000000082
10
13.600000000000021
20
-2.7000000000000091
42
-0.41421356237309503
10
13.850000000000019
20
-2.9500000000000082
10
13.850000000000019
20
-3.600000000000013
42
-0.41421356237309503
10
13.600000000000021
20
-3.8500000000000134
10
12.90000000000002
20
-3.8500000000000147
42
-0.41421356237309503
0
LINE
5
644
100
AcDbEntity
8
0
100
AcDbLine
10
9.1000000000000281
20
-3.8500000000000134
30
0
11
8.4000000000000252
21
-3.8500000000000134
31
0
0
ARC
5
645
100
AcDbEntity
8
0
100
AcDbCircle
10
8.4000000000000252
20
-3.600000000000013
30
0
40
0.25000000000000022
210
0
220
0
230
1
100
AcDbArc
50
180
51
270
0
LINE
5
646
100
AcDbEntity
8
0
100
AcDbLine
10
8.1500000000000252
20
-3.600000000000013
30
0
11
8.1500000000000288
21
-2.9500000000000011
31
0
0
ARC
5
647
100
AcDbEntity
8
0
100
AcDbCircle
10
8.4000000000000252
20
-2.9500000000000011
30
0
40
0.24999999999999134
210
0
220
-0
230
1
100
AcDbArc
50
90
51
180
0
ARC
5
648
100
AcDbEntity
8
0
100
AcDbCircle
10
9.1000000000000245
20
-2.9500000000000082
30
0
40
0.25000000000000244
210
0
220
0
230
1
100
AcDbArc
50
0
51
90
0
LINE
5
649
100
AcDbEntity
8
0
100
AcDbLine
10
9.3500000000000263
20
-2.9500000000000082
30
0
11
9.3500000000000245
21
-3.600000000000013
31
0
0
ARC
5
650
100
AcDbEntity
8
0
100
AcDbCircle
10
9.1000000000000281
20
-3.600000000000013
30
0
40
0.25000000000000022
210
0
220
0
230
1
100
AcDbArc
50
-90
51
0
0
LINE
5
651
100
AcDbEntity
8
0
100
AcDbLine
10
8.1500000000000181
20
1.3499999999999761
30
0
11
8.1500000000000181
21
1.9999999999999882
31
0
0
ARC
5
652
100
AcDbEntity
8
0
100
AcDbCircle
10
8.4000000000000181
20
1.9999999999999882
30
0
40
0.25000000000000022
210
0
220
-0
230
1
100
AcDbArc
50
90
51
180
0
LINE
5
653
100
AcDbEntity
8
0
100
AcDbLine
10
8.4000000000000181
20
2.2499999999999885
30
0
11
9.1000000000000174
21
2.2499999999999813
31
0
0
ARC
5
654
100
AcDbEntity
8
0
100
AcDbCircle
10
9.1000000000000174
20
1.9999999999999809
30
0
40
0.25000000000000022
210
0
220
0
230
1
100
AcDbArc
50
0
51
90
0
LINE
5
655
100
AcDbEntity
8
0
100
AcDbLine
10
9.3500000000000192
20
1.9999999999999809
30
0
11
9.3500000000000192
21
1.3499999999999761
31
0
0
ARC
5
656
100
AcDbEntity
8
0
100
AcDbCircle
10
9.1000000000000174
20
1.3499999999999761
30
0
40
0.25000000000000022
210
0
220
0
230
1
100
AcDbArc
50
-90
51
0
0
ARC
5
657
100
AcDbEntity
8
0
100
AcDbCircle
10
8.4000000000000181
20
1.3499999999999761
30
0
40
0.25000000000000022
210
0
220
0
230
1
100
AcDbArc
50
180
51
270
0
LINE
5
658
100
AcDbEntity
8
0
100
AcDbLine
10
11.350000000000016
20
8.6499999999999915
30
0
11
10.650000000000016
21
8.6499999999999915
31
0
0
ARC
5
659
100
AcDbEntity
8
0
100
AcDbCircle
10
10.650000000000016
20
8.8999999999999915
30
0
40
0.25000000000000133
210
0
220
0
230
1
100
AcDbArc
50
180
51
270
0
LINE
5
660
100
AcDbEntity
8
0
100
AcDbLine
10
10.400000000000016
20
8.8999999999999915
30
0
11
10.400000000000016
21
9.5499999999999972
31
0
0
ARC
5
661
100
AcDbEntity
8
0
100
AcDbCircle
10
10.650000000000016
20
9.5499999999999972
30
0
40
0.24999999999999356
210
0
220
-0
230
1
100
AcDbArc
50
90
51
180
0
ARC
5
662
100
AcDbEntity
8
0
100
AcDbCircle
10
11.350000000000016
20
9.5499999999999883
30
0
40
0.24999999999999911
210
0
220
0
230
1
100
AcDbArc
50
0
51
90
0
LINE
5
663
100
AcDbEntity
8
0
100
AcDbLine
10
11.600000000000016
20
9.5499999999999883
30
0
11
11.600000000000017
21
8.8999999999999915
31
0
0
ARC
5
664
100
AcDbEntity
8
0
100
AcDbCircle
10
11.350000000000016
20
8.8999999999999915
30
0
40
0.25000000000000022
210
0
220
0
230
1
100
AcDbArc
50
-90
51
0
0
ARC
5
665
100
AcDbEntity
8
0
100
AcDbCircle
10
12.900000000000018
20
13.84999999999998
30
0
40
0.24999999999999911
210
0
220
0
230
1
100
AcDbArc
50
180
51
270
0
LINE
5
666
100
AcDbEntity
8
0
100
AcDbLine
10
12.65000000000002
20
13.84999999999998
30
0
11
12.650000000000016
21
14.499999999999986
31
0
0
ARC
5
667
100
AcDbEntity
8
0
100
AcDbCircle
10
12.900000000000018
20
14.499999999999986
30
0
40
0.25000000000000133
210
0
220
-0
230
1
100
AcDbArc
50
90
51
180
0
LINE
5
668
100
AcDbEntity
8
0
100
AcDbLine
10
12.900000000000018
20
14.749999999999988
30
0
11
13.600000000000019
21
14.749999999999988
31
0
0
ARC
5
669
100
AcDbEntity
8
0
100
AcDbCircle
10
13.600000000000019
20
14.499999999999986
30
0
40
0.25000000000000133
210
0
220
0
230
1
100
AcDbArc
50
0
51
90
0
LINE
5
670
100
AcDbEntity
8
0
100
AcDbLine
10
13.850000000000019
20
14.499999999999986
30
0
11
13.850000000000017
21
13.84999999999998
31
0
0
ARC
5
671
100
AcDbEntity
8
0
100
AcDbCircle
10
13.600000000000019
20
13.84999999999998
30
0
40
0.24999999999999911
210
0
220
0
230
1
100
AcDbArc
50
-90
51
0
0
LWPOLYLINE
5
672
100
AcDbEntity
8
0
100
AcDbPolyline
90
8
70
1
43
0.0
10
12.650000000000015
20
21.399999999999988
10
12.650000000000016
20
22.049999999999997
42
-0.41421356237309503
10
12.900000000000016
20
22.299999999999997
10
13.600000000000014
20
22.299999999999997
42
-0.41421356237309503
10
13.850000000000016
20
22.049999999999997
10
13.850000000000014
20
21.399999999999988
42
-0.41421356237309503
10
13.600000000000014
20
21.149999999999988
10
12.900000000000016
20
21.149999999999984
42
-0.41421356237309503
0
LINE
5
673
100
AcDbEntity
8
0
100
AcDbLine
10
9.1000000000000227
20
21.149999999999988
30
0
11
8.4000000000000199
21
21.149999999999988
31
0
0
ARC
5
674
100
AcDbEntity
8
0
100
AcDbCircle
10
8.4000000000000199
20
21.399999999999988
30
0
40
0.25000000000000022
210
0
220
0
230
1
100
AcDbArc
50
180
51
270
0
LINE
5
675
100
AcDbEntity
8
0
100
AcDbLine
10
8.1500000000000199
20
21.399999999999988
30
0
11
8.1500000000000234
21
22.050000000000001
31
0
0
ARC
5
676
100
AcDbEntity
8
0
100
AcDbCircle
10
8.4000000000000199
20
22.050000000000001
30
0
40
0.24999999999999467
210
0
220
-0
230
1
100
AcDbArc
50
90
51
180
0
ARC
5
677
100
AcDbEntity
8
0
100
AcDbCircle
10
9.1000000000000192
20
22.049999999999997
30
0
40
0.25000000000000022
210
0
220
0
230
1
100
AcDbArc
50
0
51
90
0
LINE
5
678
100
AcDbEntity
8
0
100
AcDbLine
10
9.3500000000000192
20
22.049999999999997
30
0
11
9.3500000000000192
21
21.399999999999988
31
0
0
ARC
5
679
100
AcDbEntity
8
0
100
AcDbCircle
10
9.1000000000000227
20
21.399999999999988
30
0
40
0.24999999999999911
210
0
220
0
230
1
100
AcDbArc
50
-90
51
0
0
LINE
5
680
100
AcDbEntity
8
0
100
AcDbLine
10
8.1500000000000128
20
26.34999999999998
30
0
11
8.1500000000000128
21
26.999999999999993
31
0
0
ARC
5
681
100
AcDbEntity
8
0
100
AcDbCircle
10
8.4000000000000128
20
26.999999999999993
30
0
40
0.24999999999999911
210
0
220
-0
230
1
100
AcDbArc
50
90
51
180
0
LINE
5
682
100
AcDbEntity
8
0
100
AcDbLine
10
8.4000000000000128
20
27.249999999999993
30
0
11
9.1000000000000121
21
27.249999999999986
31
0
0
ARC
5
683
100
AcDbEntity
8
0
100
AcDbCircle
10
9.1000000000000121
20
26.999999999999989
30
0
40
0.25000000000000022
210
0
220
0
230
1
100
AcDbArc
50
0
51
90
0
LINE
5
684
100
AcDbEntity
8
0
100
AcDbLine
10
9.3500000000000121
20
26.999999999999989
30
0
11
9.3500000000000121
21
26.34999999999998
31
0
0
ARC
5
685
100
AcDbEntity
8
0
100
AcDbCircle
10
9.1000000000000121
20
26.34999999999998
30
0
40
0.24999999999999911
210
0
220
0
230
1
100
AcDbArc
50
-90
51
0
0
LINE
5
686
100
AcDbEntity
8
0
100
AcDbLine
10
9.1000000000000121
20
26.09999999999998
30
0
11
8.4000000000000128
21
26.09999999999998
31
0
0
LINE
5
687
100
AcDbEntity
8
0
100
AcDbLine
10
11.350000000000012
20
33.650000000000006
30
0
11
10.650000000000011
21
33.650000000000006
31
0
0
ARC
5
688
100
AcDbEntity
8
0
100
AcDbCircle
10
10.650000000000011
20
33.899999999999999
30
0
40
0.25000000000000133
210
0
220
0
230
1
100
AcDbArc
50
180
51
270
0
LINE
5
689
100
AcDbEntity
8
0
100
AcDbLine
10
10.400000000000009
20
33.899999999999999
30
0
11
10.400000000000011
21
34.549999999999997
31
0
0
ARC
5
690
100
AcDbEntity
8
0
100
AcDbCircle
10
10.650000000000011
20
34.549999999999997
30
0
40
0.24999999999999467
210
0
220
-0
230
1
100
AcDbArc
50
90
51
180
0
ARC
5
691
100
AcDbEntity
8
0
100
AcDbCircle
10
11.350000000000012
20
34.549999999999997
30
0
40
0.24999999999999911
210
0
220
0
230
1
100
AcDbArc
50
0
51
90
0
LINE
5
692
100
AcDbEntity
8
0
100
AcDbLine
10
11.60000000000001
20
34.549999999999997
30
0
11
11.600000000000012
21
33.899999999999999
31
0
0
ARC
5
693
100
AcDbEntity
8
0
100
AcDbCircle
10
11.350000000000012
20
33.899999999999999
30
0
40
0.24999999999999911
210
0
220
0
230
1
100
AcDbArc
50
-90
51
0
0
ARC
5
694
100
AcDbEntity
8
0
100
AcDbCircle
10
12.900000000000013
20
38.84999999999998
30
0
40
0.24999999999999911
210
0
220
0
230
1
100
AcDbArc
50
180
51
270
0
LINE
5
695
100
AcDbEntity
8
0
100
AcDbLine
10
12.650000000000015
20
38.84999999999998
30
0
11
12.650000000000015
21
39.499999999999986
31
0
0
ARC
5
696
100
AcDbEntity
8
0
100
AcDbCircle
10
12.900000000000013
20
39.499999999999986
30
0
40
0.24999999999999911
210
0
220
-0
230
1
100
AcDbArc
50
90
51
180
0
LINE
5
697
100
AcDbEntity
8
0
100
AcDbLine
10
12.900000000000013
20
39.749999999999986
30
0
11
13.600000000000012
21
39.749999999999986
31
0
0
ARC
5
698
100
AcDbEntity
8
0
100
AcDbCircle
10
13.600000000000012
20
39.499999999999986
30
0
40
0.24999999999999911
210
0
220
0
230
1
100
AcDbArc
50
0
51
90
0
LINE
5
699
100
AcDbEntity
8
0
100
AcDbLine
10
13.850000000000012
20
39.499999999999986
30
0
11
13.850000000000014
21
38.84999999999998
31
0
0
ARC
5
700
100
AcDbEntity
8
0
100
AcDbCircle
10
13.600000000000012
20
38.84999999999998
30
0
40
0.24999999999999911
210
0
220
0
230
1
100
AcDbArc
50
-90
51
0
0
LWPOLYLINE
5
701
100
AcDbEntity
8
0
100
AcDbPolyline
90
8
70
1
43
0.0
10
12.650000000000009
20
46.399999999999999
10
12.650000000000006
20
47.049999999999997
42
-0.41421356237309503
10
12.900000000000009
20
47.300000000000004
10
13.60000000000001
20
47.300000000000004
42
-0.41421356237309503
10
13.850000000000012
20
47.049999999999997
10
13.850000000000014
20
46.399999999999999
42
-0.41421356237309503
10
13.60000000000001
20
46.149999999999991
10
12.900000000000009
20
46.150000000000006
42
-0.41421356237309503
0
LINE
5
702
100
AcDbEntity
8
0
100
AcDbLine
10
9.1000000000000174
20
46.149999999999991
30
0
11
8.4000000000000146
21
46.149999999999991
31
0
0
ARC
5
703
100
AcDbEntity
8
0
100
AcDbCircle
10
8.4000000000000146
20
46.399999999999999
30
0
40
0.25000000000000022
210
0
220
0
230
1
100
AcDbArc
50
180
51
270
0
LINE
5
704
100
AcDbEntity
8
0
100
AcDbLine
10
8.1500000000000146
20
46.399999999999999
30
0
11
8.1500000000000181
21
47.050000000000011
31
0
0
ARC
5
705
100
AcDbEntity
8
0
100
AcDbCircle
10
8.4000000000000146
20
47.050000000000011
30
0
40
0.24999999999999467
210
0
220
-0
230
1
100
AcDbArc
50
90
51
180
0
ARC
5
706
100
AcDbEntity
8
0
100
AcDbCircle
10
9.1000000000000156
20
47.049999999999997
30
0
40
0.25000000000000022
210
0
220
0
230
1
100
AcDbArc
50
0
51
90
0
LINE
5
707
100
AcDbEntity
8
0
100
AcDbLine
10
9.3500000000000156
20
47.049999999999997
30
0
11
9.3500000000000139
21
46.399999999999999
31
0
0
ARC
5
708
100
AcDbEntity
8
0
100
AcDbCircle
10
9.1000000000000174
20
46.399999999999999
30
0
40
0.25000000000000355
210
0
220
0
230
1
100
AcDbArc
50
-90
51
0
0
LINE
5
709
100
AcDbEntity
8
0
100
AcDbLine
10
19.15000000000002
20
-11.150000000000022
30
0
11
19.15000000000002
21
-10.500000000000009
31
0
0
ARC
5
710
100
AcDbEntity
8
0
100
AcDbCircle
10
19.40000000000002
20
-10.500000000000009
30
0
40
0.25000000000000133
210
0
220
-0
230
1
100
AcDbArc
50
90
51
180
0
LINE
5
711
100
AcDbEntity
8
0
100
AcDbLine
10
19.40000000000002
20
-10.250000000000007
30
0
11
20.100000000000019
21
-10.250000000000018
31
0
0
ARC
5
712
100
AcDbEntity
8
0
100
AcDbCircle
10
20.100000000000019
20
-10.500000000000016
30
0
40
0.24999999999999911
210
0
220
0
230
1
100
AcDbArc
50
0
51
90
0
LINE
5
713
100
AcDbEntity
8
0
100
AcDbLine
10
20.350000000000019
20
-10.500000000000016
30
0
11
20.350000000000019
21
-11.150000000000022
31
0
0
ARC
5
714
100
AcDbEntity
8
0
100
AcDbCircle
10
20.100000000000019
20
-11.150000000000022
30
0
40
0.25000000000000133
210
0
220
0
230
1
100
AcDbArc
50
-90
51
0
0
ARC
5
715
100
AcDbEntity
8
0
100
AcDbCircle
10
19.40000000000002
20
-11.150000000000022
30
0
40
0.25000000000000133
210
0
220
0
230
1
100
AcDbArc
50
180
51
270
0
LINE
5
716
100
AcDbEntity
8
0
100
AcDbLine
10
22.350000000000023
20
-3.8500000000000068
30
0
11
21.650000000000023
21
-3.8500000000000068
31
0
0
ARC
5
717
100
AcDbEntity
8
0
100
AcDbCircle
10
21.650000000000023
20
-3.6000000000000059
30
0
40
0.25000000000000355
210
0
220
0
230
1
100
AcDbArc
50
180
51
270
0
LINE
5
718
100
AcDbEntity
8
0
100
AcDbLine
10
21.40000000000002
20
-3.6000000000000059
30
0
11
21.40000000000002
21
-2.9500000000000011
31
0
0
ARC
5
719
100
AcDbEntity
8
0
100
AcDbCircle
10
21.650000000000023
20
-2.9500000000000011
30
0
40
0.24999999999999301
210
0
220
-0
230
1
100
AcDbArc
50
90
51
180
0
ARC
5
720
100
AcDbEntity
8
0
100
AcDbCircle
10
22.350000000000023
20
-2.9500000000000082
30
0
40
0.24999999999999911
210
0
220
0
230
1
100
AcDbArc
50
0
51
90
0
LINE
5
721
100
AcDbEntity
8
0
100
AcDbLine
10
22.600000000000019
20
-2.9500000000000082
30
0
11
22.600000000000019
21
-3.6000000000000059
31
0
0
ARC
5
722
100
AcDbEntity
8
0
100
AcDbCircle
10
22.350000000000023
20
-3.6000000000000059
30
0
40
0.25000000000000078
210
0
220
0
230
1
100
AcDbArc
50
-90
51
0
0
ARC
5
723
100
AcDbEntity
8
0
100
AcDbCircle
10
23.90000000000002
20
1.3499999999999761
30
0
40
0.24999999999999911
210
0
220
0
230
1
100
AcDbArc
50
180
51
270
0
LINE
5
724
100
AcDbEntity
8
0
100
AcDbLine
10
23.65000000000002
20
1.3499999999999761
30
0
11
23.65000000000002
21
1.9999999999999809
31
0
0
ARC
5
725
100
AcDbEntity
8
0
100
AcDbCircle
10
23.90000000000002
20
1.9999999999999809
30
0
40
0.25000000000000022
210
0
220
-0
230
1
100
AcDbArc
50
90
51
180
0
LINE
5
726
100
AcDbEntity
8
0
100
AcDbLine
10
23.90000000000002
20
2.2499999999999813
30
0
11
24.600000000000023
21
2.2499999999999813
31
0
0
ARC
5
727
100
AcDbEntity
8
0
100
AcDbCircle
10
24.600000000000023
20
1.9999999999999809
30
0
40
0.24999999999999911
210
0
220
0
230
1
100
AcDbArc
50
0
51
90
0
LINE
5
728
100
AcDbEntity
8
0
100
AcDbLine
10
24.850000000000023
20
1.9999999999999809
30
0
11
24.850000000000023
21
1.3499999999999761
31
0
0
ARC
5
729
100
AcDbEntity
8
0
100
AcDbCircle
10
24.600000000000023
20
1.3499999999999761
30
0
40
0.25000000000000011
210
0
220
0
230
1
100
AcDbArc
50
-90
51
0
0
LWPOLYLINE
5
730
100
AcDbEntity
8
0
100
AcDbPolyline
90
8
70
1
43
0.0
10
23.650000000000016
20
8.8999999999999844
10
23.65000000000002
20
9.5499999999999883
42
-0.41421356237309503
10
23.90000000000002
20
9.7999999999999883
10
24.600000000000016
20
9.7999999999999883
42
-0.41421356237309503
10
24.850000000000016
20
9.5499999999999883
10
24.850000000000016
20
8.8999999999999844
42
-0.41421356237309503
10
24.600000000000016
20
8.6499999999999844
10
23.90000000000002
20
8.6499999999999808
42
-0.41421356237309503
0
LINE
5
731
100
AcDbEntity
8
0
100
AcDbLine
10
20.100000000000023
20
8.6499999999999844
30
0
11
19.40000000000002
21
8.6499999999999844
31
0
0
ARC
5
732
100
AcDbEntity
8
0
100
AcDbCircle
10
19.40000000000002
20
8.8999999999999844
30
0
40
0.24999999999999911
210
0
220
0
230
1
100
AcDbArc
50
180
51
270
0
LINE
5
733
100
AcDbEntity
8
0
100
AcDbLine
10
19.150000000000023
20
8.8999999999999844
30
0
11
19.150000000000023
21
9.5499999999999972
31
0
0
ARC
5
734
100
AcDbEntity
8
0
100
AcDbCircle
10
19.40000000000002
20
9.5499999999999972
30
0
40
0.24999999999999134
210
0
220
-0
230
1
100
AcDbArc
50
90
51
180
0
ARC
5
735
100
AcDbEntity
8
0
100
AcDbCircle
10
20.100000000000019
20
9.5499999999999883
30
0
40
0.25000000000000355
210
0
220
0
230
1
100
AcDbArc
50
0
51
90
0
LINE
5
736
100
AcDbEntity
8
0
100
AcDbLine
10
20.350000000000023
20
9.5499999999999883
30
0
11
20.350000000000019
21
8.8999999999999844
31
0
0
ARC
5
737
100
AcDbEntity
8
0
100
AcDbCircle
10
20.100000000000023
20
8.8999999999999844
30
0
40
0.25000000000000022
210
0
220
0
230
1
100
AcDbArc
50
-90
51
0
0
LINE
5
738
100
AcDbEntity
8
0
100
AcDbLine
10
19.150000000000013
20
13.84999999999998
30
0
11
19.150000000000013
21
14.499999999999993
31
0
0
ARC
5
739
100
AcDbEntity
8
0
100
AcDbCircle
10
19.400000000000013
20
14.499999999999993
30
0
40
0.24999999999999911
210
0
220
-0
230
1
100
AcDbArc
50
90
51
180
0
LINE
5
740
100
AcDbEntity
8
0
100
AcDbLine
10
19.400000000000013
20
14.749999999999993
30
0
11
20.100000000000012
21
14.749999999999988
31
0
0
ARC
5
741
100
AcDbEntity
8
0
100
AcDbCircle
10
20.100000000000012
20
14.499999999999986
30
0
40
0.24999999999999911
210
0
220
0
230
1
100
AcDbArc
50
0
51
90
0
LINE
5
742
100
AcDbEntity
8
0
100
AcDbLine
10
20.350000000000009
20
14.499999999999986
30
0
11
20.350000000000016
21
13.84999999999998
31
0
0
ARC
5
743
100
AcDbEntity
8
0
100
AcDbCircle
10
20.100000000000012
20
13.84999999999998
30
0
40
0.24999999999999911
210
0
220
0
230
1
100
AcDbArc
50
-90
51
0
0
ARC
5
744
100
AcDbEntity
8
0
100
AcDbCircle
10
19.400000000000013
20
13.84999999999998
30
0
40
0.24999999999999911
210
0
220
0
230
1
100
AcDbArc
50
180
51
270
0
LINE
5
745
100
AcDbEntity
8
0
100
AcDbLine
10
22.350000000000012
20
21.149999999999999
30
0
11
21.650000000000013
21
21.149999999999999
31
0
0
ARC
5
746
100
AcDbEntity
8
0
100
AcDbCircle
10
21.650000000000013
20
21.399999999999999
30
0
40
0.24999999999999911
210
0
220
0
230
1
100
AcDbArc
50
180
51
270
0
LINE
5
747
100
AcDbEntity
8
0
100
AcDbLine
10
21.400000000000013
20
21.399999999999999
30
0
11
21.400000000000013
21
22.050000000000001
31
0
0
ARC
5
748
100
AcDbEntity
8
0
100
AcDbCircle
10
21.650000000000013
20
22.050000000000001
30
0
40
0.24999999999999467
210
0
220
-0
230
1
100
AcDbArc
50
90
51
180
0
ARC
5
749
100
AcDbEntity
8
0
100
AcDbCircle
10
22.350000000000012
20
22.049999999999997
30
0
40
0.24999999999999911
210
0
220
0
230
1
100
AcDbArc
50
0
51
90
0
LINE
5
750
100
AcDbEntity
8
0
100
AcDbLine
10
22.600000000000012
20
22.049999999999997
30
0
11
22.600000000000012
21
21.399999999999999
31
0
0
ARC
5
751
100
AcDbEntity
8
0
100
AcDbCircle
10
22.350000000000012
20
21.399999999999999
30
0
40
0.24999999999999911
210
0
220
0
230
1
100
AcDbArc
50
-90
51
0
0
ARC
5
752
100
AcDbEntity
8
0
100
AcDbCircle
10
23.90000000000002
20
26.34999999999998
30
0
40
0.24999999999999911
210
0
220
0
230
1
100
AcDbArc
50
180
51
270
0
LINE
5
753
100
AcDbEntity
8
0
100
AcDbLine
10
23.65000000000002
20
26.34999999999998
30
0
11
23.650000000000016
21
26.999999999999989
31
0
0
ARC
5
754
100
AcDbEntity
8
0
100
AcDbCircle
10
23.90000000000002
20
26.999999999999989
30
0
40
0.24999999999999911
210
0
220
-0
230
1
100
AcDbArc
50
90
51
180
0
LINE
5
755
100
AcDbEntity
8
0
100
AcDbLine
10
23.90000000000002
20
27.249999999999986
30
0
11
24.600000000000016
21
27.249999999999986
31
0
0
ARC
5
756
100
AcDbEntity
8
0
100
AcDbCircle
10
24.600000000000016
20
26.999999999999989
30
0
40
0.24999999999999911
210
0
220
0
230
1
100
AcDbArc
50
0
51
90
0
LINE
5
757
100
AcDbEntity
8
0
100
AcDbLine
10
24.850000000000016
20
26.999999999999989
30
0
11
24.850000000000016
21
26.34999999999998
31
0
0
ARC
5
758
100
AcDbEntity
8
0
100
AcDbCircle
10
24.600000000000016
20
26.34999999999998
30
0
40
0.24999999999999911
210
0
220
0
230
1
100
AcDbArc
50
-90
51
0
0
LWPOLYLINE
5
759
100
AcDbEntity
8
0
100
AcDbPolyline
90
8
70
1
43
0.0
10
23.650000000000016
20
33.899999999999991
10
23.650000000000016
20
34.549999999999997
42
-0.41421356237309503
10
23.900000000000013
20
34.799999999999997
10
24.600000000000012
20
34.799999999999997
42
-0.41421356237309503
10
24.850000000000012
20
34.549999999999997
10
24.850000000000012
20
33.899999999999991
42
-0.41421356237309503
10
24.600000000000012
20
33.649999999999991
10
23.900000000000013
20
33.649999999999991
42
-0.41421356237309503
0
LINE
5
760
100
AcDbEntity
8
0
100
AcDbLine
10
20.100000000000019
20
33.649999999999984
30
0
11
19.400000000000016
21
33.649999999999984
31
0
0
ARC
5
761
100
AcDbEntity
8
0
100
AcDbCircle
10
19.400000000000016
20
33.899999999999991
30
0
40
0.24999999999999911
210
0
220
0
230
1
100
AcDbArc
50
180
51
270
0
LINE
5
762
100
AcDbEntity
8
0
100
AcDbLine
10
19.15000000000002
20
33.899999999999991
30
0
11
19.15000000000002
21
34.549999999999997
31
0
0
ARC
5
763
100
AcDbEntity
8
0
100
AcDbCircle
10
19.400000000000016
20
34.549999999999997
30
0
40
0.24999999999999467
210
0
220
-0
230
1
100
AcDbArc
50
90
51
180
0
ARC
5
764
100
AcDbEntity
8
0
100
AcDbCircle
10
20.100000000000016
20
34.549999999999997
30
0
40
0.24999999999999911
210
0
220
0
230
1
100
AcDbArc
50
0
51
90
0
LINE
5
765
100
AcDbEntity
8
0
100
AcDbLine
10
20.350000000000016
20
34.549999999999997
30
0
11
20.350000000000016
21
33.899999999999991
31
0
0
ARC
5
766
100
AcDbEntity
8
0
100
AcDbCircle
10
20.100000000000019
20
33.899999999999991
30
0
40
0.25000000000000355
210
0
220
0
230
1
100
AcDbArc
50
-90
51
0
0
LWPOLYLINE
5
767
100
AcDbEntity
8
0
100
AcDbPolyline
90
4
70
1
43
0.0
10
-25.489942225808466
20
-6.4500000000000002
10
-25.489942225808466
20
-8.5500000000000007
10
-27.289942225808463
20
-8.5500000000000007
10
-27.289942225808463
20
-6.4500000000000011
0
LWPOLYLINE
5
768
100
AcDbEntity
8
0
100
AcDbPolyline
90
4
70
1
43
0.0
10
-16.689942225808466
20
-6.4500000000000011
10
-16.689942225808466
20
-8.5500000000000007
10
-18.489942225808459
20
-8.5500000000000007
10
-18.489942225808459
20
-6.4500000000000002
0
LWPOLYLINE
5
769
100
AcDbEntity
8
0
100
AcDbPolyline
90
4
70
1
43
0.0
10
-14.480178844856798
20
-6.4500000000000011
10
-14.480178844856798
20
-8.5500000000000007
10
-16.280178844856799
20
-8.5500000000000007
10
-16.280178844856799
20
-6.4500000000000002
0
LWPOLYLINE
5
770
100
AcDbEntity
8
0
100
AcDbPolyline
90
4
70
1
43
0.0
10
-5.6801788448568002
20
-6.4500000000000002
10
-5.6801788448568002
20
-8.5500000000000007
10
-7.480178844856793
20
-8.5500000000000007
10
-7.480178844856793
20
-6.4500000000000011
0
LWPOLYLINE
5
771
100
AcDbEntity
8
0
100
AcDbPolyline
90
4
70
1
43
0.0
10
7.5
20
-54.500000000000021
42
0.99999999999999989
10
7.5
20
-52.500000000000007
10
-7.5
20
-52.500000000000007
42
0.99999999999999989
10
-7.5
20
-54.500000000000021
0
CIRCLE
5
772
100
AcDbEntity
8
0
100
AcDbCircle
10
-10.311977256990248
20
-24.090163116001371
30
0
40
0.74999999999999722
210
0
220
0
230
-1
0
CIRCLE
5
773
100
AcDbEntity
8
0
100
AcDbCircle
10
-12.311977256990252
20
-24.090163116001371
30
0
40
0.75000000000000067
210
0
220
0
230
-1
0
CIRCLE
5
774
100
AcDbEntity
8
0
100
AcDbCircle
10
-14.311977256990254
20
-24.090163116001367
30
0
40
0.75000000000000067
210
0
220
0
230
-1
0
CIRCLE
5
775
100
AcDbEntity
8
0
100
AcDbCircle
10
-10.311977256990252
20
-26.090163116001367
30
0
40
0.75000000000000067
210
0
220
0
230
-1
0
CIRCLE
5
776
100
AcDbEntity
8
0
100
AcDbCircle
10
-12.311977256990254
20
-26.090163116001367
30
0
40
0.75000000000000067
210
0
220
0
230
-1
0
CIRCLE
5
777
100
AcDbEntity
8
0
100
AcDbCircle
10
-14.311977256990254
20
-26.090163116001364
30
0
40
0.75000000000000067
210
0
220
0
230
-1
0
CIRCLE
5
778
100
AcDbEntity
8
0
100
AcDbCircle
10
-10.311977256990257
20
-28.090163116001374
30
0
40
0.74999999999999722
210
0
220
0
230
-1
0
CIRCLE
5
779
100
AcDbEntity
8
0
100
AcDbCircle
10
-12.311977256990259
20
-28.090163116001374
30
0
40
0.75000000000000067
210
0
220
0
230
-1
0
CIRCLE
5
780
100
AcDbEntity
8
0
100
AcDbCircle
10
-14.311977256990255
20
-28.090163116001364
30
0
40
0.75000000000000067
210
0
220
0
230
-1
0
CIRCLE
5
781
100
AcDbEntity
8
0
100
AcDbCircle
10
-10.311977256990264
20
-30.090163116001371
30
0
40
0.75000000000000067
210
0
220
0
230
-1
0
CIRCLE
5
782
100
AcDbEntity
8
0
100
AcDbCircle
10
-12.311977256990259
20
-30.090163116001367
30
0
40
0.75000000000000067
210
0
220
0
230
-1
0
CIRCLE
5
783
100
AcDbEntity
8
0
100
AcDbCircle
10
-14.311977256990261
20
-30.090163116001367
30
0
40
0.75000000000000067
210
0
220
0
230
-1
0
CIRCLE
5
784
100
AcDbEntity
8
0
100
AcDbCircle
10
-10.311977256990264
20
-32.090163116001371
30
0
40
0.75000000000000067
210
0
220
0
230
-1
0
CIRCLE
5
785
100
AcDbEntity
8
0
100
AcDbCircle
10
-12.311977256990261
20
-32.090163116001364
30
0
40
0.75000000000000067
210
0
220
0
230
-1
0
CIRCLE
5
786
100
AcDbEntity
8
0
100
AcDbCircle
10
-14.311977256990263
20
-32.090163116001364
30
0
40
0.75000000000000067
210
0
220
0
230
-1
0
CIRCLE
5
787
100
AcDbEntity
8
0
100
AcDbCircle
10
21.989942225808463
20
-0.49999999999999961
30
0
40
0.50000000000000278
210
0
220
0
230
-1
0
CIRCLE
5
788
100
AcDbEntity
8
0
100
AcDbCircle
10
10.980178844856797
20
-0.49999999999999961
30
0
40
0.50000000000000078
210
0
220
0
230
-1
0
CIRCLE
5
789
100
AcDbEntity
8
0
100
AcDbCircle
10
20.5
20
-36.200000000000017
30
0
40
0.54503891936907167
210
0
220
0
230
-1
0
CIRCLE
5
790
100
AcDbEntity
8
0
100
AcDbCircle
10
20.5
20
-30.199999999999999
30
0
40
0.54503891936907511
210
0
220
0
230
-1
0
CIRCLE
5
791
100
AcDbEntity
8
0
100
AcDbCircle
10
20.500000000000004
20
-25.600000000000019
30
0
40
0.54503891936907167
210
0
220
0
230
-1
0
CIRCLE
5
792
100
AcDbEntity
8
0
100
AcDbCircle
10
20.500000000000004
20
-19.600000000000012
30
0
40
0.54503891936907167
210
0
220
0
230
-1
0
CIRCLE
5
793
100
AcDbEntity
8
0
100
AcDbCircle
10
-20.5
20
-19.600000000000005
30
0
40
0.54503891936907511
210
0
220
0
230
-1
0
CIRCLE
5
794
100
AcDbEntity
8
0
100
AcDbCircle
10
-20.5
20
-25.600000000000016
30
0
40
0.54503891936907511
210
0
220
0
230
-1
0
CIRCLE
5
795
100
AcDbEntity
8
0
100
AcDbCircle
10
-20.5
20
-30.200000000000003
30
0
40
0.54503891936907511
210
0
220
0
230
-1
0
CIRCLE
5
796
100
AcDbEntity
8
0
100
AcDbCircle
10
-20.5
20
-36.20000000000001
30
0
40
0.54503891936907167
210
0
220
0
230
-1
0
CIRCLE
5
797
100
AcDbEntity
8
0
100
AcDbCircle
10
4.5
20
-18.900000000000006
30
0
40
0.59999999999999987
210
0
220
0
230
-1
0
CIRCLE
5
798
100
AcDbEntity
8
0
100
AcDbCircle
10
-4.5
20
-18.900000000000006
30
0
40
0.59999999999999987
210
0
220
0
230
-1
0
CIRCLE
5
799
100
AcDbEntity
8
0
100
AcDbCircle
10
4.5
20
-36.900000000000006
30
0
40
0.6000000000000103
210
0
220
0
230
-1
0
CIRCLE
5
800
100
AcDbEntity
8
0
100
AcDbCircle
10
-4.5
20
-36.900000000000006
30
0
40
0.6000000000000103
210
0
220
0
230
-1
0
CIRCLE
5
801
100
AcDbEntity
8
0
100
AcDbCircle
10
-17.999999999999719
20
-14.300000000000013
30
0
40
0.49999999999999878
210
0
220
0
230
-1
0
CIRCLE
5
802
100
AcDbEntity
8
0
100
AcDbCircle
10
18.000000000000284
20
-14.300000000000013
30
0
40
0.49999999999999878
210
0
220
0
230
-1
0
CIRCLE
5
803
100
AcDbEntity
8
0
100
AcDbCircle
10
16.000000000000281
20
-14.300000000000013
30
0
40
0.49999999999999878
210
0
220
0
230
-1
0
CIRCLE
5
804
100
AcDbEntity
8
0
100
AcDbCircle
10
14.000000000000279
20
-14.300000000000013
30
0
40
0.49999999999999878
210
0
220
0
230
-1
0
CIRCLE
5
805
100
AcDbEntity
8
0
100
AcDbCircle
10
12.000000000000277
20
-14.300000000000013
30
0
40
0.49999999999999878
210
0
220
0
230
-1
0
CIRCLE
5
806
100
AcDbEntity
8
0
100
AcDbCircle
10
10.000000000000281
20
-14.300000000000013
30
0
40
0.49999999999999878
210
0
220
0
230
-1
0
CIRCLE
5
807
100
AcDbEntity
8
0
100
AcDbCircle
10
8.0000000000002807
20
-14.300000000000013
30
0
40
0.49999999999999878
210
0
220
0
230
-1
0
CIRCLE
5
808
100
AcDbEntity
8
0
100
AcDbCircle
10
6.0000000000002807
20
-14.300000000000013
30
0
40
0.49999999999999878
210
0
220
0
230
-1
0
CIRCLE
5
809
100
AcDbEntity
8
0
100
AcDbCircle
10
4.000000000000278
20
-14.300000000000013
30
0
40
0.49999999999999878
210
0
220
0
230
-1
0
CIRCLE
5
810
100
AcDbEntity
8
0
100
AcDbCircle
10
2.0000000000002793
20
-14.300000000000013
30
0
40
0.49999999999999878
210
0
220
0
230
-1
0
CIRCLE
5
811
100
AcDbEntity
8
0
100
AcDbCircle
10
2.8102520310824275e-13
20
-14.300000000000013
30
0
40
0.49999999999999878
210
0
220
0
230
-1
0
CIRCLE
5
812
100
AcDbEntity
8
0
100
AcDbCircle
10
-1.9999999999997209
20
-14.300000000000013
30
0
40
0.49999999999999878
210
0
220
0
230
-1
0
CIRCLE
5
813
100
AcDbEntity
8
0
100
AcDbCircle
10
-3.9999999999997211
20
-14.300000000000013
30
0
40
0.49999999999999878
210
0
220
0
230
-1
0
CIRCLE
5
814
100
AcDbEntity
8
0
100
AcDbCircle
10
-5.9999999999997211
20
-14.300000000000013
30
0
40
0.49999999999999878
210
0
220
0
230
-1
0
CIRCLE
5
815
100
AcDbEntity
8
0
100
AcDbCircle
10
-7.999999999999722
20
-14.300000000000013
30
0
40
0.49999999999999878
210
0
220
0
230
-1
0
CIRCLE
5
816
100
AcDbEntity
8
0
100
AcDbCircle
10
-9.9999999999997211
20
-14.300000000000013
30
0
40
0.49999999999999878
210
0
220
0
230
-1
0
CIRCLE
5
817
100
AcDbEntity
8
0
100
AcDbCircle
10
-11.999999999999723
20
-14.300000000000013
30
0
40
0.49999999999999878
210
0
220
0
230
-1
0
CIRCLE
5
818
100
AcDbEntity
8
0
100
AcDbCircle
10
-13.999999999999721
20
-14.300000000000013
30
0
40
0.49999999999999878
210
0
220
0
230
-1
0
CIRCLE
5
819
100
AcDbEntity
8
0
100
AcDbCircle
10
-15.999999999999721
20
-14.300000000000013
30
0
40
0.49999999999999878
210
0
220
0
230
-1
0
CIRCLE
5
820
100
AcDbEntity
8
0
100
AcDbCircle
10
18
20
-41.500000000000014
30
0
40
0.50000000000000044
210
0
220
0
230
-1
0
CIRCLE
5
821
100
AcDbEntity
8
0
100
AcDbCircle
10
15.999999999999996
20
-41.500000000000014
30
0
40
0.50000000000000044
210
0
220
0
230
-1
0
CIRCLE
5
822
100
AcDbEntity
8
0
100
AcDbCircle
10
13.999999999999995
20
-41.500000000000014
30
0
40
0.50000000000000044
210
0
220
0
230
-1
0
CIRCLE
5
823
100
AcDbEntity
8
0
100
AcDbCircle
10
11.999999999999993
20
-41.500000000000014
30
0
40
0.50000000000000044
210
0
220
0
230
-1
0
CIRCLE
5
824
100
AcDbEntity
8
0
100
AcDbCircle
10
9.9999999999999964
20
-41.500000000000014
30
0
40
0.50000000000000044
210
0
220
0
230
-1
0
CIRCLE
5
825
100
AcDbEntity
8
0
100
AcDbCircle
10
7.9999999999999973
20
-41.500000000000014
30
0
40
0.50000000000000044
210
0
220
0
230
-1
0
CIRCLE
5
826
100
AcDbEntity
8
0
100
AcDbCircle
10
5.9999999999999956
20
-41.500000000000014
30
0
40
0.50000000000000044
210
0
220
0
230
-1
0
CIRCLE
5
827
100
AcDbEntity
8
0
100
AcDbCircle
10
3.9999999999999938
20
-41.500000000000014
30
0
40
0.50000000000000044
210
0
220
0
230
-1
0
CIRCLE
5
828
100
AcDbEntity
8
0
100
AcDbCircle
10
1.9999999999999951
20
-41.500000000000014
30
0
40
0.50000000000000044
210
0
220
0
230
-1
0
CIRCLE
5
829
100
AcDbEntity
8
0
100
AcDbCircle
10
-3.4694469519536142e-15
20
-41.500000000000014
30
0
40
0.50000000000000044
210
0
220
0
230
-1
0
CIRCLE
5
830
100
AcDbEntity
8
0
100
AcDbCircle
10
-2.0000000000000053
20
-41.500000000000014
30
0
40
0.50000000000000044
210
0
220
0
230
-1
0
CIRCLE
5
831
100
AcDbEntity
8
0
100
AcDbCircle
10
-4.0000000000000053
20
-41.500000000000014
30
0
40
0.50000000000000044
210
0
220
0
230
-1
0
CIRCLE
5
832
100
AcDbEntity
8
0
100
AcDbCircle
10
-6.0000000000000053
20
-41.500000000000014
30
0
40
0.50000000000000044
210
0
220
0
230
-1
0
CIRCLE
5
833
100
AcDbEntity
8
0
100
AcDbCircle
10
-8.0000000000000053
20
-41.500000000000014
30
0
40
0.50000000000000044
210
0
220
0
230
-1
0
CIRCLE
5
834
100
AcDbEntity
8
0
100
AcDbCircle
10
-10.000000000000007
20
-41.500000000000014
30
0
40
0.50000000000000044
210
0
220
0
230
-1
0
CIRCLE
5
835
100
AcDbEntity
8
0
100
AcDbCircle
10
-12.000000000000007
20
-41.500000000000014
30
0
40
0.50000000000000044
210
0
220
0
230
-1
0
CIRCLE
5
836
100
AcDbEntity
8
0
100
AcDbCircle
10
-14.000000000000005
20
-41.500000000000014
30
0
40
0.50000000000000044
210
0
220
0
230
-1
0
CIRCLE
5
837
100
AcDbEntity
8
0
100
AcDbCircle
10
-16.000000000000007
20
-41.500000000000014
30
0
40
0.50000000000000044
210
0
220
0
230
-1
0
CIRCLE
5
838
100
AcDbEntity
8
0
100
AcDbCircle
10
-18.000000000000007
20
-41.500000000000014
30
0
40
0.50000000000000044
210
0
220
0
230
-1
0
LWPOLYLINE
5
839
100
AcDbEntity
8
0
100
AcDbPolyline
90
8
70
1
43
0.0
10
30
20
-11.953824931521142
10
-4.9653058649936943
20
-11.953824931521149
10
-4.9653058649935558
20
-1.010295898029816
10
-30.000000000000007
20
-1.010295898029816
10
-30.000000000000018
20
50.499999999999986
42
-0.41421356237309503
10
-28.000000000000007
20
52.5
10
27.999999999999989
20
52.5
42
-0.41421356237309503
10
29.999999999999996
20
50.499999999999986
0
LINE
5
840
100
AcDbEntity
8
0
100
AcDbLine
10
22.20000000000001
20
1.1999999999999789
30
0
11
21.800000000000011
21
1.1999999999999789
31
0
0
LINE
5
841
100
AcDbEntity
8
0
100
AcDbLine
10
22.20000000000001
20
1.7999999999999894
30
0
11
21.800000000000011
21
1.7999999999999894
31
0
0
LINE
5
842
100
AcDbEntity
8
0
100
AcDbLine
10
11.200000000000012
20
1.1999999999999789
30
0
11
10.800000000000011
21
1.1999999999999789
31
0
0
LINE
5
843
100
AcDbEntity
8
0
100
AcDbLine
10
11.200000000000012
20
1.7999999999999894
30
0
11
10.800000000000011
21
1.7999999999999894
31
0
0
LINE
5
844
100
AcDbEntity
8
0
100
AcDbLine
10
0.20000000000001267
20
1.1999999999999789
30
0
11
-0.19999999999998838
21
1.1999999999999789
31
0
0
LINE
5
845
100
AcDbEntity
8
0
100
AcDbLine
10
0.20000000000001267
20
1.7999999999999894
30
0
11
-0.19999999999998838
21
1.7999999999999894
31
0
0
LINE
5
846
100
AcDbEntity
8
0
100
AcDbLine
10
-10.79999999999999
20
1.1999999999999789
30
0
11
-11.19999999999999
21
1.1999999999999789
31
0
0
LINE
5
847
100
AcDbEntity
8
0
100
AcDbLine
10
-10.79999999999999
20
1.7999999999999894
30
0
11
-11.19999999999999
21
1.7999999999999894
31
0
0
LWPOLYLINE
5
848
100
AcDbEntity
8
0
100
AcDbPolyline
90
8
70
1
43
0.0
10
24.850000000000012
20
47.049999999999997
10
24.850000000000012
20
46.399999999999999
42
-0.41421356237309503
10
24.600000000000009
20
46.149999999999991
10
23.900000000000009
20
46.150000000000006
42
-0.41421356237309503
10
23.650000000000013
20
46.399999999999999
10
23.650000000000006
20
47.049999999999997
42
-0.41421356237309503
10
23.900000000000009
20
47.300000000000004
10
24.600000000000009
20
47.300000000000004
42
-0.41421356237309503
0
LWPOLYLINE
5
849
100
AcDbEntity
8
0
100
AcDbPolyline
90
4
70
1
43
0.0
10
22.697370568725464
20
38.716724835602264
10
21.311476444037893
20
38.716724835602264
10
21.311476444037893
20
39.31867884935545
10
22.697370568725464
20
39.31867884935545
0
LWPOLYLINE
5
850
100
AcDbEntity
8
0
100
AcDbPolyline
90
4
70
1
43
0.0
10
22.200000000000006
20
26.199999999999989
10
21.800000000000011
20
26.199999999999989
10
21.800000000000011
20
26.799999999999997
10
22.200000000000006
20
26.799999999999997
0
LWPOLYLINE
5
851
100
AcDbEntity
8
0
100
AcDbPolyline
90
4
70
1
43
0.0
10
11.200000000000008
20
26.199999999999989
10
10.800000000000008
20
26.199999999999989
10
10.800000000000008
20
26.799999999999997
10
11.200000000000008
20
26.799999999999997
0
LWPOLYLINE
5
852
100
AcDbEntity
8
0
100
AcDbPolyline
90
4
70
1
43
0.0
10
0.70000000000000961
20
26.199999999999989
10
-0.69999999999999218
20
26.199999999999989
10
-0.6999999999999923
20
26.799999999999997
10
0.70000000000000961
20
26.799999999999997
0
LWPOLYLINE
5
853
100
AcDbEntity
8
0
100
AcDbPolyline
90
4
70
1
43
0.0
10
-10.299999999999997
20
26.199999999999989
10
-11.699999999999999
20
26.199999999999989
10
-11.699999999999999
20
26.799999999999997
10
-10.299999999999997
20
26.799999999999997
0
LWPOLYLINE
5
854
100
AcDbEntity
8
0
100
AcDbPolyline
90
4
70
1
43
0.0
10
-21.299999999999994
20
26.199999999999989
10
-22.699999999999996
20
26.199999999999989
10
-22.699999999999996
20
26.799999999999997
10
-21.299999999999994
20
26.799999999999997
0
LWPOLYLINE
5
855
100
AcDbEntity
8
0
100
AcDbPolyline
90
4
70
1
43
0.0
10
-10.299999999999997
20
38.699999999999982
10
-11.699999999999999
20
38.699999999999982
10
-11.699999999999999
20
39.299999999999997
10
-10.299999999999997
20
39.299999999999997
0
LWPOLYLINE
5
856
100
AcDbEntity
8
0
100
AcDbPolyline
90
4
70
1
43
0.0
10
-21.299999999999994
20
38.699999999999982
10
-22.699999999999996
20
38.699999999999982
10
-22.699999999999996
20
39.299999999999997
10
-21.299999999999994
20
39.299999999999997
0
LWPOLYLINE
5
857
100
AcDbEntity
8
0
100
AcDbPolyline
90
4
70
1
43
0.0
10
0.70000000000000617
20
38.699999999999982
10
-0.69999999999999563
20
38.699999999999982
10
-0.69999999999999574
20
39.299999999999997
10
0.70000000000000617
20
39.299999999999997
0
LWPOLYLINE
5
858
100
AcDbEntity
8
0
100
AcDbPolyline
90
4
70
1
43
0.0
10
11.700000000000006
20
38.699999999999982
10
10.300000000000004
20
38.699999999999982
10
10.300000000000004
20
39.299999999999997
10
11.700000000000006
20
39.299999999999997
0
LWPOLYLINE
5
859
100
AcDbEntity
8
0
100
AcDbPolyline
90
4
70
1
43
0.0
10
22.70000000000001
20
13.699999999999983
10
21.300000000000008
20
13.699999999999983
10
21.300000000000008
20
14.299999999999995
10
22.70000000000001
20
14.299999999999995
0
LWPOLYLINE
5
860
100
AcDbEntity
8
0
100
AcDbPolyline
90
4
70
1
43
0.0
10
11.70000000000001
20
13.699999999999983
10
10.30000000000001
20
13.699999999999983
10
10.30000000000001
20
14.299999999999995
10
11.70000000000001
20
14.299999999999995
0
LWPOLYLINE
5
861
100
AcDbEntity
8
0
100
AcDbPolyline
90
4
70
1
43
0.0
10
0.70000000000000961
20
13.699999999999983
10
-0.69999999999999218
20
13.699999999999983
10
-0.6999999999999923
20
14.299999999999995
10
0.70000000000000961
20
14.299999999999995
0
LWPOLYLINE
5
862
100
AcDbEntity
8
0
100
AcDbPolyline
90
4
70
1
43
0.0
10
-10.299999999999992
20
13.699999999999983
10
-11.699999999999992
20
13.699999999999983
10
-11.699999999999992
20
14.299999999999995
10
-10.299999999999992
20
14.299999999999995
0
LINE
5
863
100
AcDbEntity
8
0
100
AcDbLine
10
24.850000000000023
20
-3.2750000000000106
30
0
11
23.65000000000002
21
-3.2750000000000106
31
0
0
LINE
5
864
100
AcDbEntity
8
0
100
AcDbLine
10
24.250000000000021
20
-2.7000000000000082
30
0
11
24.250000000000021
21
-3.8500000000000134
31
0
0
LWPOLYLINE
5
865
100
AcDbEntity
8
0
100
AcDbPolyline
90
8
70
1
43
0.0
10
24.850000000000023
20
-2.9500000000000082
10
24.850000000000023
20
-3.600000000000013
42
-0.41421356237309503
10
24.600000000000023
20
-3.8500000000000134
10
23.900000000000023
20
-3.8500000000000165
42
-0.41421356237309503
10
23.65000000000002
20
-3.600000000000013
10
23.650000000000023
20
-2.9500000000000082
42
-0.41421356237309503
10
23.900000000000023
20
-2.7000000000000082
10
24.600000000000023
20
-2.7000000000000091
42
-0.41421356237309503
0
CIRCLE
5
866
100
AcDbEntity
8
0
100
AcDbCircle
10
-10.976853146061709
20
-0.20540861226262835
30
0
40
0.78019743163017574
210
0
220
0
230
1
0
CIRCLE
5
867
100
AcDbEntity
8
0
100
AcDbCircle
10
-21.989942225808463
20
-0.20540861226262835
30
0
40
0.7896703859295684
210
0
220
0
230
1
0
ENDSEC
0
SECTION
2
OBJECTS
0
DICTIONARY
5
C
100
AcDbDictionary
3
ACAD_GROUP
350
D
3
ACAD_MLINESTYLE
350
17
0
DICTIONARY
5
D
100
AcDbDictionary
0
DICTIONARY
5
1A
330
C
100
AcDbDictionary
0
DICTIONARY
5
17
100
AcDbDictionary
0
ENDSEC
0
EOF
