  0
SECTION
  2
HEADER
  9
$ANGBASE
  50
0.0
  9
$ANGDIR
  70
1
  9
$MEASUREMENT
  70
1
  0
ENDSEC
  0
SECTION
  2
TABLES
  0
TABLE
  2
LTYPE
  70
4
  0
LTYPE
  5
40F
  2
CONTINUOUS
  70
0
  3
Solid line
  72
65
  73
0
  40
0.0
  0
LTYPE
  5
410
  2
DASHDOT
 70
0
  3
Dash Dot ____ _ ____ _
 72
65
 73
4
 40
2.0
 49
1.25
 49
-0.25
 49
0.25
 49
-0.25
  0
LTYPE
  5
411
  2
DASHED
 70
0
  3
Dashed __ __ __ __ __
 72
65
 73
2
 40
0.75
 49
0.5
 49
-0.25
  0
LTYPE
  5
43B
  2
DOTTED
 70
0
  3
Dotted .  .  .  .
 72
65
 73
2
 40
0.2
 49
0.0
 49
-0.2
  0
ENDTAB
  0
TABLE
  2
STYLE
  70
4
  0
STYLE
  2
KICAD
  70
0
  40
0
  41
1
  42
1
  50
0
  71
0
  3
isocp.shx
  0
STYLE
  2
KICADB
  70
0
  40
0
  41
1
  42
1
  50
0
  71
0
  3
isocp.shx
  0
STYLE
  2
KICADI
  70
0
  40
0
  41
1
  42
1
  50
15
  71
0
  3
isocp.shx
  0
STYLE
  2
KICADBI
  70
0
  40
0
  41
1
  42
1
  50
15
  71
0
  3
isocp.shx
  0
ENDTAB
  0
TABLE
  2
LAYER
  70
1
  0
LAYER
  2
BLACK
  70
0
  62
7
  6
CONTINUOUS
  0
ENDTAB
  0
ENDSEC
  0
SECTION
  2
ENTITIES
0
CIRCLE
8
BLACK
10
17.9504
20
31.8059
40
2.075
0
CIRCLE
8
BLACK
10
28.9486
20
31.8059
40
2.075
0
CIRCLE
8
BLACK
10
39.9454
20
31.8008
40
2.075
0
CIRCLE
8
BLACK
10
28.9472
20
56.8058
40
2.075
0
LINE
8
BLACK
6
CONTINUOUS
10
52.0446
20
16.002
11
49.8856
21
16.002
0
LINE
8
BLACK
6
CONTINUOUS
10
60.4527
20
15.5956
11
60.452
21
14.9352
0
ARC
8
BLACK
10
38.8874
20
15.5702
40
0.4318
50
90
51
176.634
0
ARC
8
BLACK
10
30.0228
20
14.9352
40
0.4318
50
-90
51
-3.36646
0
ARC
8
BLACK
10
30.0228
20
15.5709
40
0.4318
50
-0
51
86.6335
0
ARC
8
BLACK
10
41.021
20
15.5709
40
0.4318
50
-0
51
86.6335
0
ARC
8
BLACK
10
38.8874
20
14.9352
40
0.4318
50
180
51
266.634
0
ARC
8
BLACK
10
27.8892
20
15.5702
40
0.4318
50
90
51
176.634
0
ARC
8
BLACK
10
41.021
20
14.9352
40
0.4318
50
-90
51
-3.36646
0
ARC
8
BLACK
10
27.8892
20
14.9352
40
0.4318
50
180
51
266.634
0
ARC
8
BLACK
10
60.8838
20
15.5702
40
0.4318
50
90
51
176.634
0
ARC
8
BLACK
10
63.0174
20
15.5709
40
0.4318
50
-0
51
86.6335
0
ARC
8
BLACK
10
60.8838
20
14.9352
40
0.4318
50
180
51
266.634
0
ARC
8
BLACK
10
63.0174
20
14.9352
40
0.4318
50
-90
51
-3.36646
0
ARC
8
BLACK
10
49.8856
20
14.9352
40
0.4318
50
180
51
266.634
0
ARC
8
BLACK
10
52.0192
20
14.9352
40
0.4318
50
-90
51
-3.36646
0
ARC
8
BLACK
10
52.0192
20
15.5709
40
0.4318
50
-0
51
86.6335
0
ARC
8
BLACK
10
49.8856
20
15.5702
40
0.4318
50
90
51
176.634
0
LINE
8
BLACK
6
CONTINUOUS
10
38.862
20
14.5041
11
41.021
21
14.5034
0
LINE
8
BLACK
6
CONTINUOUS
10
38.4563
20
15.5956
11
38.4556
21
14.9352
0
LINE
8
BLACK
6
CONTINUOUS
10
41.4521
20
14.9098
11
41.4528
21
15.5709
0
LINE
8
BLACK
6
CONTINUOUS
10
27.8638
20
14.5041
11
30.0228
21
14.5034
0
LINE
8
BLACK
6
CONTINUOUS
10
41.0464
20
16.002
11
38.8874
21
16.002
0
LINE
8
BLACK
6
CONTINUOUS
10
30.4539
20
14.9098
11
30.4546
21
15.5709
0
LINE
8
BLACK
6
CONTINUOUS
10
30.0482
20
16.002
11
27.8892
21
16.002
0
LINE
8
BLACK
6
CONTINUOUS
10
27.4581
20
15.5956
11
27.4574
21
14.9352
0
LINE
8
BLACK
6
CONTINUOUS
10
60.8584
20
14.5041
11
63.0174
21
14.5034
0
LINE
8
BLACK
6
CONTINUOUS
10
63.0428
20
16.002
11
60.8838
21
16.002
0
LINE
8
BLACK
6
CONTINUOUS
10
63.4485
20
14.9098
11
63.4492
21
15.5709
0
LINE
8
BLACK
6
CONTINUOUS
10
49.8602
20
14.5041
11
52.0192
21
14.5034
0
LINE
8
BLACK
6
CONTINUOUS
10
52.4503
20
14.9098
11
52.451
21
15.5709
0
LINE
8
BLACK
6
CONTINUOUS
10
49.4545
20
15.5956
11
49.4538
21
14.9352
0
LINE
8
BLACK
6
CONTINUOUS
10
52.07
20
28.4734
11
49.911
21
28.4734
0
LINE
8
BLACK
6
CONTINUOUS
10
60.4781
20
28.067
11
60.4774
21
27.4066
0
ARC
8
BLACK
10
38.9128
20
28.0416
40
0.4318
50
90
51
176.634
0
ARC
8
BLACK
10
30.0482
20
27.4066
40
0.4318
50
-90
51
-3.36646
0
ARC
8
BLACK
10
30.0482
20
28.0423
40
0.4318
50
-0
51
86.6335
0
ARC
8
BLACK
10
41.0464
20
28.0423
40
0.4318
50
-0
51
86.6335
0
ARC
8
BLACK
10
38.9128
20
27.4066
40
0.4318
50
180
51
266.634
0
ARC
8
BLACK
10
27.9146
20
28.0416
40
0.4318
50
90
51
176.634
0
ARC
8
BLACK
10
41.0464
20
27.4066
40
0.4318
50
-90
51
-3.36646
0
ARC
8
BLACK
10
27.9146
20
27.4066
40
0.4318
50
180
51
266.634
0
ARC
8
BLACK
10
60.9092
20
28.0416
40
0.4318
50
90
51
176.634
0
ARC
8
BLACK
10
63.0428
20
28.0423
40
0.4318
50
-0
51
86.6335
0
ARC
8
BLACK
10
60.9092
20
27.4066
40
0.4318
50
180
51
266.634
0
ARC
8
BLACK
10
63.0428
20
27.4066
40
0.4318
50
-90
51
-3.36646
0
ARC
8
BLACK
10
49.911
20
27.4066
40
0.4318
50
180
51
266.634
0
ARC
8
BLACK
10
52.0446
20
27.4066
40
0.4318
50
-90
51
-3.36646
0
ARC
8
BLACK
10
52.0446
20
28.0423
40
0.4318
50
-0
51
86.6335
0
ARC
8
BLACK
10
49.911
20
28.0416
40
0.4318
50
90
51
176.634
0
LINE
8
BLACK
6
CONTINUOUS
10
38.8874
20
26.9755
11
41.0464
21
26.9748
0
LINE
8
BLACK
6
CONTINUOUS
10
38.4817
20
28.067
11
38.481
21
27.4066
0
LINE
8
BLACK
6
CONTINUOUS
10
41.4775
20
27.3812
11
41.4782
21
28.0423
0
LINE
8
BLACK
6
CONTINUOUS
10
27.8892
20
26.9755
11
30.0482
21
26.9748
0
LINE
8
BLACK
6
CONTINUOUS
10
41.0718
20
28.4734
11
38.9128
21
28.4734
0
LINE
8
BLACK
6
CONTINUOUS
10
30.4793
20
27.3812
11
30.48
21
28.0423
0
LINE
8
BLACK
6
CONTINUOUS
10
30.0736
20
28.4734
11
27.9146
21
28.4734
0
LINE
8
BLACK
6
CONTINUOUS
10
27.4835
20
28.067
11
27.4828
21
27.4066
0
LINE
8
BLACK
6
CONTINUOUS
10
60.8838
20
26.9755
11
63.0428
21
26.9748
0
LINE
8
BLACK
6
CONTINUOUS
10
63.0682
20
28.4734
11
60.9092
21
28.4734
0
LINE
8
BLACK
6
CONTINUOUS
10
63.4739
20
27.3812
11
63.4746
21
28.0423
0
LINE
8
BLACK
6
CONTINUOUS
10
49.8856
20
26.9755
11
52.0446
21
26.9748
0
LINE
8
BLACK
6
CONTINUOUS
10
52.4757
20
27.3812
11
52.4764
21
28.0423
0
LINE
8
BLACK
6
CONTINUOUS
10
49.4799
20
28.067
11
49.4792
21
27.4066
0
LINE
8
BLACK
6
CONTINUOUS
10
52.07
20
40.9956
11
49.911
21
40.9956
0
LINE
8
BLACK
6
CONTINUOUS
10
60.4781
20
40.5892
11
60.4774
21
39.9288
0
ARC
8
BLACK
10
38.9128
20
40.5638
40
0.4318
50
90
51
176.634
0
ARC
8
BLACK
10
30.0482
20
39.9288
40
0.4318
50
-90
51
-3.36646
0
ARC
8
BLACK
10
30.0482
20
40.5645
40
0.4318
50
-0
51
86.6335
0
ARC
8
BLACK
10
41.0464
20
40.5645
40
0.4318
50
-0
51
86.6335
0
ARC
8
BLACK
10
38.9128
20
39.9288
40
0.4318
50
180
51
266.634
0
ARC
8
BLACK
10
27.9146
20
40.5638
40
0.4318
50
90
51
176.634
0
ARC
8
BLACK
10
41.0464
20
39.9288
40
0.4318
50
-90
51
-3.36646
0
ARC
8
BLACK
10
27.9146
20
39.9288
40
0.4318
50
180
51
266.634
0
ARC
8
BLACK
10
60.9092
20
40.5638
40
0.4318
50
90
51
176.634
0
ARC
8
BLACK
10
63.0428
20
40.5645
40
0.4318
50
-0
51
86.6335
0
ARC
8
BLACK
10
60.9092
20
39.9288
40
0.4318
50
180
51
266.634
0
ARC
8
BLACK
10
63.0428
20
39.9288
40
0.4318
50
-90
51
-3.36646
0
ARC
8
BLACK
10
49.911
20
39.9288
40
0.4318
50
180
51
266.634
0
ARC
8
BLACK
10
52.0446
20
39.9288
40
0.4318
50
-90
51
-3.36646
0
ARC
8
BLACK
10
52.0446
20
40.5645
40
0.4318
50
-0
51
86.6335
0
ARC
8
BLACK
10
49.911
20
40.5638
40
0.4318
50
90
51
176.634
0
LINE
8
BLACK
6
CONTINUOUS
10
38.8874
20
39.4977
11
41.0464
21
39.497
0
LINE
8
BLACK
6
CONTINUOUS
10
38.4817
20
40.5892
11
38.481
21
39.9288
0
LINE
8
BLACK
6
CONTINUOUS
10
41.4775
20
39.9034
11
41.4782
21
40.5645
0
LINE
8
BLACK
6
CONTINUOUS
10
27.8892
20
39.4977
11
30.0482
21
39.497
0
LINE
8
BLACK
6
CONTINUOUS
10
41.0718
20
40.9956
11
38.9128
21
40.9956
0
LINE
8
BLACK
6
CONTINUOUS
10
30.4793
20
39.9034
11
30.48
21
40.5645
0
LINE
8
BLACK
6
CONTINUOUS
10
30.0736
20
40.9956
11
27.9146
21
40.9956
0
LINE
8
BLACK
6
CONTINUOUS
10
27.4835
20
40.5892
11
27.4828
21
39.9288
0
LINE
8
BLACK
6
CONTINUOUS
10
60.8838
20
39.4977
11
63.0428
21
39.497
0
LINE
8
BLACK
6
CONTINUOUS
10
63.0682
20
40.9956
11
60.9092
21
40.9956
0
LINE
8
BLACK
6
CONTINUOUS
10
63.4739
20
39.9034
11
63.4746
21
40.5645
0
LINE
8
BLACK
6
CONTINUOUS
10
49.8856
20
39.4977
11
52.0446
21
39.497
0
LINE
8
BLACK
6
CONTINUOUS
10
52.4757
20
39.9034
11
52.4764
21
40.5645
0
LINE
8
BLACK
6
CONTINUOUS
10
49.4799
20
40.5892
11
49.4792
21
39.9288
0
ARC
8
BLACK
10
38.8874
20
53.1114
40
0.4318
50
90
51
176.634
0
ARC
8
BLACK
10
41.021
20
53.1121
40
0.4318
50
-0
51
86.6335
0
ARC
8
BLACK
10
38.8874
20
52.4764
40
0.4318
50
180
51
266.634
0
ARC
8
BLACK
10
41.021
20
52.4764
40
0.4318
50
-90
51
-3.36646
0
ARC
8
BLACK
10
27.8892
20
52.4764
40
0.4318
50
180
51
266.634
0
ARC
8
BLACK
10
30.0228
20
52.4764
40
0.4318
50
-90
51
-3.36646
0
ARC
8
BLACK
10
30.0228
20
53.1121
40
0.4318
50
-0
51
86.6335
0
ARC
8
BLACK
10
27.8892
20
53.1114
40
0.4318
50
90
51
176.634
0
ARC
8
BLACK
10
60.8838
20
52.4764
40
0.4318
50
180
51
266.634
0
ARC
8
BLACK
10
63.0174
20
52.4764
40
0.4318
50
-90
51
-3.36646
0
ARC
8
BLACK
10
63.0174
20
53.1121
40
0.4318
50
-0
51
86.6335
0
ARC
8
BLACK
10
60.8838
20
53.1114
40
0.4318
50
90
51
176.634
0
ARC
8
BLACK
10
49.8856
20
52.4764
40
0.4318
50
180
51
266.634
0
ARC
8
BLACK
10
52.0192
20
52.4764
40
0.4318
50
-90
51
-3.36646
0
ARC
8
BLACK
10
49.8856
20
53.1114
40
0.4318
50
90
51
176.634
0
ARC
8
BLACK
10
52.0192
20
53.1121
40
0.4318
50
-0
51
86.6335
0
ARC
8
BLACK
10
3.3274
20
21.6154
40
0.8128
50
180
51
270
0
ARC
8
BLACK
10
76.9874
20
21.6154
40
0.7366
50
-90
51
-0
0
LINE
8
BLACK
6
CONTINUOUS
10
75.9714
20
57.9374
11
76.6572
21
57.9374
0
LINE
8
BLACK
6
CONTINUOUS
10
2.5146
20
32.5882
11
2.5146
21
21.6154
0
LINE
8
BLACK
6
CONTINUOUS
10
2.4638
20
47.2186
11
2.47146
21
56.1594
0
LINE
8
BLACK
6
CONTINUOUS
10
2.4638
20
47.2186
11
3.429
21
46.5074
0
LINE
8
BLACK
6
CONTINUOUS
10
3.429
20
46.5074
11
3.429
21
33.3248
0
LINE
8
BLACK
6
CONTINUOUS
10
2.5146
20
32.5882
11
3.429
21
33.3248
0
LINE
8
BLACK
6
CONTINUOUS
10
77.7494
20
47.1932
11
76.7842
21
46.482
0
LINE
8
BLACK
6
CONTINUOUS
10
77.724
20
21.6154
11
77.724
21
32.6644
0
LINE
8
BLACK
6
CONTINUOUS
10
77.724
20
32.6644
11
76.7842
21
33.3756
0
LINE
8
BLACK
6
CONTINUOUS
10
76.7842
20
46.482
11
76.7842
21
33.3756
0
ARC
8
BLACK
10
69.596
20
2.0574
40
0.510534
50
-95.7106
51
2.50036e-09
0
ARC
8
BLACK
10
72.0852
20
8.4582
40
0.525414
50
-92.7709
51
3.36642
0
ARC
8
BLACK
10
35.5854
20
2.0574
40
0.508
50
180
51
272.862
0
ARC
8
BLACK
10
8.64991
20
14.3397
40
1.06794
50
175.15
51
253.612
0
LINE
8
BLACK
6
CONTINUOUS
10
7.5864
20
57.9334
11
3.6068
21
57.9374
0
LINE
8
BLACK
6
CONTINUOUS
10
7.5946
20
20.8026
11
7.5858
21
14.43
0
LINE
8
BLACK
6
CONTINUOUS
10
3.3274
20
20.8026
11
7.5946
21
20.8026
0
ARC
8
BLACK
10
4.47146
20
56.1338
40
2.00016
50
115.614
51
179.267
0
LINE
8
BLACK
6
CONTINUOUS
10
72.6097
20
8.48905
11
72.6694
21
20.8788
0
ARC
8
BLACK
10
75.7417
20
56.1592
40
2
50
-0
51
62.7592
0
LINE
8
BLACK
6
CONTINUOUS
10
76.9874
20
20.8788
11
72.6694
21
20.8788
0
LINE
8
BLACK
6
CONTINUOUS
10
77.7417
20
56.1592
11
77.7494
21
47.1932
0
LINE
8
BLACK
6
CONTINUOUS
10
70.0862
20
57.9334
11
75.9714
21
57.9374
0
LINE
8
BLACK
6
CONTINUOUS
10
30.0482
20
53.5432
11
27.8892
21
53.5432
0
LINE
8
BLACK
6
CONTINUOUS
10
30.4539
20
52.451
11
30.4546
21
53.1121
0
LINE
8
BLACK
6
CONTINUOUS
10
41.0464
20
53.5432
11
38.8874
21
53.5432
0
LINE
8
BLACK
6
CONTINUOUS
10
27.8638
20
52.0453
11
30.0228
21
52.0446
0
LINE
8
BLACK
6
CONTINUOUS
10
27.4581
20
53.1368
11
27.4574
21
52.4764
0
LINE
8
BLACK
6
CONTINUOUS
10
7.5864
20
57.9334
11
10.0862
21
57.9334
0
LINE
8
BLACK
6
CONTINUOUS
10
69.5452
20
1.5494
11
35.6108
21
1.55003
0
LINE
8
BLACK
6
CONTINUOUS
10
70.104
20
7.9502
11
70.1065
21
2.0574
0
LINE
8
BLACK
6
CONTINUOUS
10
35.0774
20
2.0574
11
35.0774
21
13.3096
0
LINE
8
BLACK
6
CONTINUOUS
10
38.862
20
52.0453
11
41.021
21
52.0446
0
LINE
8
BLACK
6
CONTINUOUS
10
41.4521
20
52.451
11
41.4528
21
53.1121
0
LINE
8
BLACK
6
CONTINUOUS
10
72.0598
20
7.9334
11
70.104
21
7.9502
0
LINE
8
BLACK
6
CONTINUOUS
10
70.0862
20
64.3146
11
70.0862
21
57.9334
0
ARC
8
BLACK
10
68.0862
20
64.3146
40
2
50
-0
51
65.0337
0
LINE
8
BLACK
6
CONTINUOUS
10
10.0862
20
64.3146
11
10.2993
21
65.2129
0
LINE
8
BLACK
6
CONTINUOUS
10
38.4563
20
53.1368
11
38.4556
21
52.4764
0
LINE
8
BLACK
6
CONTINUOUS
10
35.0774
20
13.3096
11
8.34861
21
13.3151
0
LINE
8
BLACK
6
CONTINUOUS
10
10.0862
20
57.9334
11
10.0862
21
64.3146
0
LINE
8
BLACK
6
CONTINUOUS
10
68.0862
20
66.3146
11
68.9304
21
66.1277
0
ARC
8
BLACK
10
12.0862
20
64.3146
40
2
50
90
51
153.311
0
LINE
8
BLACK
6
CONTINUOUS
10
12.0862
20
66.3146
11
68.0862
21
66.3146
0
CIRCLE
8
BLACK
10
50.949
20
31.8058
40
2.075
0
CIRCLE
8
BLACK
10
61.9739
20
6.81042
40
2.075
0
CIRCLE
8
BLACK
10
61.949
20
56.8058
40
2.075
0
CIRCLE
8
BLACK
10
17.949
20
19.3058
40
2.075
0
CIRCLE
8
BLACK
10
61.949
20
19.3058
40
2.075
0
CIRCLE
8
BLACK
10
17.949
20
44.3058
40
2.075
0
CIRCLE
8
BLACK
10
61.949
20
44.3058
40
2.075
0
CIRCLE
8
BLACK
10
39.949
20
19.3058
40
2.075
0
CIRCLE
8
BLACK
10
28.949
20
44.3058
40
2.075
0
LINE
8
BLACK
6
CONTINUOUS
10
52.4503
20
52.451
11
52.451
21
53.1121
0
CIRCLE
8
BLACK
10
28.949
20
19.3058
40
2.075
0
CIRCLE
8
BLACK
10
61.949
20
31.8058
40
2.075
0
CIRCLE
8
BLACK
10
39.9739
20
6.81042
40
2.075
0
LINE
8
BLACK
6
CONTINUOUS
10
49.8602
20
52.0453
11
52.0192
21
52.0446
0
LINE
8
BLACK
6
CONTINUOUS
10
49.4545
20
53.1368
11
49.4538
21
52.4764
0
CIRCLE
8
BLACK
10
50.949
20
44.3058
40
2.075
0
LINE
8
BLACK
6
CONTINUOUS
10
63.4485
20
52.451
11
63.4492
21
53.1121
0
LINE
8
BLACK
6
CONTINUOUS
10
60.8584
20
52.0453
11
63.0174
21
52.0446
0
LINE
8
BLACK
6
CONTINUOUS
10
63.0428
20
53.5432
11
60.8838
21
53.5432
0
CIRCLE
8
BLACK
10
17.949
20
56.8058
40
2.075
0
CIRCLE
8
BLACK
10
39.949
20
44.3058
40
2.075
0
LINE
8
BLACK
6
CONTINUOUS
10
52.0446
20
53.5432
11
49.8856
21
53.5432
0
CIRCLE
8
BLACK
10
50.949
20
56.8058
40
2.075
0
CIRCLE
8
BLACK
10
50.9739
20
6.81042
40
2.075
0
CIRCLE
8
BLACK
10
39.949
20
56.8058
40
2.075
0
LINE
8
BLACK
6
CONTINUOUS
10
60.4527
20
53.1368
11
60.452
21
52.4764
0
CIRCLE
8
BLACK
10
50.949
20
19.3058
40
2.075
  0
ENDSEC
  0
EOF
