<?xml version="1.0" standalone="no"?>
 <!DOCTYPE svg PUBLIC "-//W3C//DTD SVG 1.1//EN" 
 "http://www.w3.org/Graphics/SVG/1.1/DTD/svg11.dtd"> 
<svg
  xmlns:svg="http://www.w3.org/2000/svg"
  xmlns="http://www.w3.org/2000/svg"
  xmlns:xlink="http://www.w3.org/1999/xlink"
  version="1.1"
  width="27.940000cm" height="21.590000cm" viewBox="0 0 110000 85000">
<title>SVG Picture created as po_midi_adapter-Edge_Cuts.svg date 2021/11/29 23:28:45 </title>
  <desc>Picture generated by PCBNEW </desc>
<g style="fill:#000000; fill-opacity:1;stroke:#000000; stroke-opacity:1;
stroke-linecap:round; stroke-linejoin:round;"
 transform="translate(0 0) scale(1 1)">
</g>
<g style="fill:#000000; fill-opacity:0.0; 
stroke:#000000; stroke-width:-0.000393701; stroke-opacity:1; 
stroke-linecap:round; stroke-linejoin:round;">
</g>
<g style="fill:#000000; fill-opacity:0.0; 
stroke:#000000; stroke-width:78.7402; stroke-opacity:1; 
stroke-linecap:round; stroke-linejoin:round;">
<circle cx="46427.1" cy="36478" r="816.929" /> 
<circle cx="50757.1" cy="36478" r="816.929" /> 
<circle cx="55086.5" cy="36480" r="816.929" /> 
<circle cx="50756.5" cy="26635.5" r="816.929" /> 
<path d="M59850 42700
L59000 42700
" />
<path d="M63160 42860
L63160 43120
" />
<path d="M54670 42700 A170 170 0.0 0 0 54500.3 42860" />
<path d="M51180 43290 A170 170 0.0 0 0 51349.7 43130" />
<path d="M51350 42869.7 A170 170 0.0 0 0 51190 42700" />
<path d="M55680 42869.7 A170 170 0.0 0 0 55520 42700" />
<path d="M54500 43120 A170 170 0.0 0 0 54660 43289.7" />
<path d="M50340 42700 A170 170 0.0 0 0 50170.3 42860" />
<path d="M55510 43290 A170 170 0.0 0 0 55679.7 43130" />
<path d="M50170 43120 A170 170 0.0 0 0 50330 43289.7" />
<path d="M63330 42700 A170 170 0.0 0 0 63160.3 42860" />
<path d="M64340 42869.7 A170 170 0.0 0 0 64180 42700" />
<path d="M63160 43120 A170 170 0.0 0 0 63320 43289.7" />
<path d="M64170 43290 A170 170 0.0 0 0 64339.7 43130" />
<path d="M58830 43120 A170 170 0.0 0 0 58990 43289.7" />
<path d="M59840 43290 A170 170 0.0 0 0 60009.7 43130" />
<path d="M60010 42869.7 A170 170 0.0 0 0 59850 42700" />
<path d="M59000 42700 A170 170 0.0 0 0 58830.3 42860" />
<path d="M54660 43289
L55510 43290
" />
<path d="M54500 42860
L54500 43120
" />
<path d="M55679 43129
L55680 42869
" />
<path d="M50330 43289
L51180 43290
" />
<path d="M55520 42700
L54670 42700
" />
<path d="M51349 43129
L51350 42869
" />
<path d="M51190 42700
L50340 42700
" />
<path d="M50170 42860
L50170 43120
" />
<path d="M63320 43289
L64170 43290
" />
<path d="M64180 42700
L63330 42700
" />
<path d="M64339 43129
L64340 42869
" />
<path d="M58990 43289
L59840 43290
" />
<path d="M60009 43129
L60010 42869
" />
<path d="M58830 42860
L58830 43120
" />
<path d="M59860 37790
L59010 37790
" />
<path d="M63170 37950
L63170 38210
" />
<path d="M54680 37790 A170 170 0.0 0 0 54510.3 37950" />
<path d="M51190 38380 A170 170 0.0 0 0 51359.7 38220" />
<path d="M51360 37959.7 A170 170 0.0 0 0 51200 37790" />
<path d="M55690 37959.7 A170 170 0.0 0 0 55530 37790" />
<path d="M54510 38210 A170 170 0.0 0 0 54670 38379.7" />
<path d="M50350 37790 A170 170 0.0 0 0 50180.3 37950" />
<path d="M55520 38380 A170 170 0.0 0 0 55689.7 38220" />
<path d="M50180 38210 A170 170 0.0 0 0 50340 38379.7" />
<path d="M63340 37790 A170 170 0.0 0 0 63170.3 37950" />
<path d="M64350 37959.7 A170 170 0.0 0 0 64190 37790" />
<path d="M63170 38210 A170 170 0.0 0 0 63330 38379.7" />
<path d="M64180 38380 A170 170 0.0 0 0 64349.7 38220" />
<path d="M58840 38210 A170 170 0.0 0 0 59000 38379.7" />
<path d="M59850 38380 A170 170 0.0 0 0 60019.7 38220" />
<path d="M60020 37959.7 A170 170 0.0 0 0 59860 37790" />
<path d="M59010 37790 A170 170 0.0 0 0 58840.3 37950" />
<path d="M54670 38379
L55520 38380
" />
<path d="M54510 37950
L54510 38210
" />
<path d="M55689 38219
L55690 37959
" />
<path d="M50340 38379
L51190 38380
" />
<path d="M55530 37790
L54680 37790
" />
<path d="M51359 38219
L51360 37959
" />
<path d="M51200 37790
L50350 37790
" />
<path d="M50180 37950
L50180 38210
" />
<path d="M63330 38379
L64180 38380
" />
<path d="M64190 37790
L63340 37790
" />
<path d="M64349 38219
L64350 37959
" />
<path d="M59000 38379
L59850 38380
" />
<path d="M60019 38219
L60020 37959
" />
<path d="M58840 37950
L58840 38210
" />
<path d="M59860 32860
L59010 32860
" />
<path d="M63170 33020
L63170 33280
" />
<path d="M54680 32860 A170 170 0.0 0 0 54510.3 33020" />
<path d="M51190 33450 A170 170 0.0 0 0 51359.7 33290" />
<path d="M51360 33029.7 A170 170 0.0 0 0 51200 32860" />
<path d="M55690 33029.7 A170 170 0.0 0 0 55530 32860" />
<path d="M54510 33280 A170 170 0.0 0 0 54670 33449.7" />
<path d="M50350 32860 A170 170 0.0 0 0 50180.3 33020" />
<path d="M55520 33450 A170 170 0.0 0 0 55689.7 33290" />
<path d="M50180 33280 A170 170 0.0 0 0 50340 33449.7" />
<path d="M63340 32860 A170 170 0.0 0 0 63170.3 33020" />
<path d="M64350 33029.7 A170 170 0.0 0 0 64190 32860" />
<path d="M63170 33280 A170 170 0.0 0 0 63330 33449.7" />
<path d="M64180 33450 A170 170 0.0 0 0 64349.7 33290" />
<path d="M58840 33280 A170 170 0.0 0 0 59000 33449.7" />
<path d="M59850 33450 A170 170 0.0 0 0 60019.7 33290" />
<path d="M60020 33029.7 A170 170 0.0 0 0 59860 32860" />
<path d="M59010 32860 A170 170 0.0 0 0 58840.3 33020" />
<path d="M54670 33449
L55520 33450
" />
<path d="M54510 33020
L54510 33280
" />
<path d="M55689 33289
L55690 33029
" />
<path d="M50340 33449
L51190 33450
" />
<path d="M55530 32860
L54680 32860
" />
<path d="M51359 33289
L51360 33029
" />
<path d="M51200 32860
L50350 32860
" />
<path d="M50180 33020
L50180 33280
" />
<path d="M63330 33449
L64180 33450
" />
<path d="M64190 32860
L63340 32860
" />
<path d="M64349 33289
L64350 33029
" />
<path d="M59000 33449
L59850 33450
" />
<path d="M60019 33289
L60020 33029
" />
<path d="M58840 33020
L58840 33280
" />
<path d="M54670 27920 A170 170 0.0 0 0 54500.3 28080" />
<path d="M55680 28089.7 A170 170 0.0 0 0 55520 27920" />
<path d="M54500 28340 A170 170 0.0 0 0 54660 28509.7" />
<path d="M55510 28510 A170 170 0.0 0 0 55679.7 28350" />
<path d="M50170 28340 A170 170 0.0 0 0 50330 28509.7" />
<path d="M51180 28510 A170 170 0.0 0 0 51349.7 28350" />
<path d="M51350 28089.7 A170 170 0.0 0 0 51190 27920" />
<path d="M50340 27920 A170 170 0.0 0 0 50170.3 28080" />
<path d="M63160 28340 A170 170 0.0 0 0 63320 28509.7" />
<path d="M64170 28510 A170 170 0.0 0 0 64339.7 28350" />
<path d="M64340 28089.7 A170 170 0.0 0 0 64180 27920" />
<path d="M63330 27920 A170 170 0.0 0 0 63160.3 28080" />
<path d="M58830 28340 A170 170 0.0 0 0 58990 28509.7" />
<path d="M59840 28510 A170 170 0.0 0 0 60009.7 28350" />
<path d="M59000 27920 A170 170 0.0 0 0 58830.3 28080" />
<path d="M60010 28089.7 A170 170 0.0 0 0 59850 27920" />
<path d="M40350 40490 A320 320 0.0 0 0 40670 40810" />
<path d="M69670 40780 A290 290 0.0 0 0 69960 40490" />
<path d="M69270 26190
L69540 26190
" />
<path d="M40350 36170
L40350 40490
" />
<path d="M40330 30410
L40333 26890
" />
<path d="M40330 30410
L40710 30690
" />
<path d="M40710 30690
L40710 35880
" />
<path d="M40350 36170
L40710 35880
" />
<path d="M69970 30420
L69590 30700
" />
<path d="M69960 40490
L69960 36140
" />
<path d="M69960 36140
L69590 35860
" />
<path d="M69590 30700
L69590 35860
" />
<path d="M66740 48390 A200.998 200.998 0.0 0 0 66961 48190" />
<path d="M67730 45876.6 A206.856 206.856 0.0 0 0 67946.5 45657.9" />
<path d="M53170 48190 A200 200 0.0 0 0 53380 48389.8" />
<path d="M42346.5 43318.9 A420.448 420.448 0.0 0 0 42646.9 43757.8" />
<path d="M42346 26191
L40780 26190
" />
<path d="M42350 40810
L42346 43318
" />
<path d="M40670 40810
L42350 40810
" />
<path d="M40780 26190 A787.466 787.466 0.0 0 0 40333 26890" />
<path d="M67946 45657
L67970 40780
" />
<path d="M69967 26890.1 A787.402 787.402 0.0 0 0 69540 26190" />
<path d="M69670 40780
L67970 40780
" />
<path d="M69966 26890
L69970 30420
" />
<path d="M66952 26191
L69270 26190
" />
<path d="M51190 27920
L50340 27920
" />
<path d="M51349 28349
L51350 28089
" />
<path d="M55520 27920
L54670 27920
" />
<path d="M50330 28509
L51180 28510
" />
<path d="M50170 28080
L50170 28340
" />
<path d="M42346 26191
L43330 26191
" />
<path d="M66740 48390
L53379 48389
" />
<path d="M66960 45870
L66960 48190
" />
<path d="M53170 48190
L53170 43760
" />
<path d="M54660 28509
L55510 28510
" />
<path d="M55679 28349
L55680 28089
" />
<path d="M67730 45876
L66960 45870
" />
<path d="M66952 23679
L66952 26191
" />
<path d="M66953 23679.3 A787.402 787.402 0.0 0 0 66497.9 22965.5" />
<path d="M43330 23679
L43414 23325
" />
<path d="M54500 28080
L54500 28340
" />
<path d="M53170 43760
L42646 43757
" />
<path d="M43330 26191
L43330 23679
" />
<path d="M66165 22891
L66497 22965
" />
<path d="M44118.3 22891.9 A787.402 787.402 0.0 0 0 43414.8 23325.6" />
<path d="M44118 22891
L66165 22891
" />
<circle cx="59418.7" cy="36478" r="816.929" /> 
<circle cx="63759.2" cy="46318.7" r="816.929" /> 
<circle cx="63749.4" cy="26635.5" r="816.929" /> 
<circle cx="46426.5" cy="41399.3" r="816.929" /> 
<circle cx="63749.4" cy="41399.3" r="816.929" /> 
<circle cx="46426.5" cy="31556.8" r="816.929" /> 
<circle cx="63749.4" cy="31556.8" r="816.929" /> 
<circle cx="55088" cy="41399.3" r="816.929" /> 
<circle cx="50757.3" cy="31556.8" r="816.929" /> 
<path d="M60009 28349
L60010 28089
" />
<circle cx="50757.3" cy="41399.3" r="816.929" /> 
<circle cx="63749.4" cy="36478" r="816.929" /> 
<circle cx="55097.8" cy="46318.7" r="816.929" /> 
<path d="M58990 28509
L59840 28510
" />
<path d="M58830 28080
L58830 28340
" />
<circle cx="59418.7" cy="31556.8" r="816.929" /> 
<path d="M64339 28349
L64340 28089
" />
<path d="M63320 28509
L64170 28510
" />
<path d="M64180 27920
L63330 27920
" />
<circle cx="46426.5" cy="26635.5" r="816.929" /> 
<circle cx="55088" cy="31556.8" r="816.929" /> 
<path d="M59850 27920
L59000 27920
" />
<circle cx="59418.7" cy="26635.5" r="816.929" /> 
<circle cx="59428.5" cy="46318.7" r="816.929" /> 
<circle cx="55088" cy="26635.5" r="816.929" /> 
<path d="M63160 28080
L63160 28340
" />
<circle cx="59418.7" cy="41399.3" r="816.929" /> 
<g >
</g>
<g >
</g>
<g >
</g>
<g >
</g>
<g >
</g>
<g >
</g>
<g >
</g>
<g >
</g>
<g >
</g>
<g >
</g>
<g >
</g>
<g >
</g>
<g >
</g>
<g >
</g>
<g >
</g>
<g >
</g>
<g >
</g>
<g >
</g>
<g >
</g>
<g >
</g>
<g >
</g>
<g >
</g>
<g >
</g>
<g >
</g>
<g >
</g>
<g >
</g>
<g >
</g>
<g >
</g>
<g >
</g>
<g >
</g>
<g >
</g>
</g> 
</svg>
