<?xml version="1.0" standalone="no"?>
 <!DOCTYPE svg PUBLIC "-//W3C//DTD SVG 1.1//EN" 
 "http://www.w3.org/Graphics/SVG/1.1/DTD/svg11.dtd"> 
<svg
  xmlns:svg="http://www.w3.org/2000/svg"
  xmlns="http://www.w3.org/2000/svg"
  xmlns:xlink="http://www.w3.org/1999/xlink"
  version="1.1"
  width="27.940000cm" height="21.590000cm" viewBox="0 0 110000 85000">
<title>SVG Picture created as po_midi_adapter-F_SilkS.svg date 2021/11/29 23:28:45 </title>
  <desc>Picture generated by PCBNEW </desc>
<g style="fill:#000000; fill-opacity:1;stroke:#000000; stroke-opacity:1;
stroke-linecap:round; stroke-linejoin:round;"
 transform="translate(0 0) scale(1 1)">
</g>
<g style="fill:#000000; fill-opacity:0.0; 
stroke:#000000; stroke-width:-0.000393701; stroke-opacity:1; 
stroke-linecap:round; stroke-linejoin:round;">
</g>
<g style="fill:#000000; fill-opacity:0.0; 
stroke:#000000; stroke-width:78.7402; stroke-opacity:1; 
stroke-linecap:round; stroke-linejoin:round;">
<circle cx="46427.1" cy="26634" r="816.929" /> 
</g>
<g style="fill:#000000; fill-opacity:0.0; 
stroke:#000000; stroke-width:47.2441; stroke-opacity:1; 
stroke-linecap:round; stroke-linejoin:round;">
<circle cx="51660" cy="25160" r="511.811" /> 
<circle cx="56000" cy="30090" r="511.811" /> 
<circle cx="47340" cy="30080" r="511.811" /> 
<circle cx="47330" cy="35010" r="511.811" /> 
<circle cx="51660" cy="39930" r="511.811" /> 
<circle cx="56000" cy="44840" r="511.811" /> 
<circle cx="60320" cy="44850" r="511.811" /> 
<circle cx="64660" cy="44850" r="511.811" /> 
<circle cx="64660" cy="25160" r="511.811" /> 
<circle cx="60320" cy="25150" r="511.811" /> 
<circle cx="51670" cy="30080" r="511.811" /> 
<circle cx="60328" cy="30090" r="511.811" /> 
<circle cx="64650" cy="30090" r="511.811" /> 
<circle cx="51660" cy="35010" r="511.811" /> 
<circle cx="56000" cy="34990" r="511.811" /> 
<circle cx="60330" cy="35010" r="511.811" /> 
<circle cx="64650" cy="35015" r="511.811" /> 
<circle cx="64660" cy="39920" r="511.811" /> 
<circle cx="60330" cy="39930" r="511.811" /> 
<circle cx="56100" cy="39940" r="511.811" /> 
<circle cx="56050" cy="25190" r="511.811" /> 
<circle cx="47400" cy="39940" r="511.811" /> 
<circle cx="47350" cy="25160" r="492.52" /> 
<circle cx="66710" cy="33840" r="492.52" /> 
<path d="M68810 36136
L69333 36136
" />
<path d="M69333 36136
L69333 36660
" />
<path d="M69333 37160
L69333 40183
" />
<path d="M68286 40183
L69333 40183
" />
<path d="M68286 37160
L68286 40183
" />
<path d="M68286 37160
L69333 37160
" />
<path d="M68286 32490
L69333 32490
" />
<path d="M68286 32490
L68286 35513
" />
<path d="M68286 35513
L69333 35513
" />
<path d="M69333 32490
L69333 35513
" />
<path d="M69333 31466
L69333 31990
" />
<path d="M68810 31466
L69333 31466
" />
<path d="M41550 31466
L42073 31466
" />
<path d="M42073 31466
L42073 31990
" />
<path d="M42073 32490
L42073 35513
" />
<path d="M41026 35513
L42073 35513
" />
<path d="M41026 32490
L41026 35513
" />
<path d="M41026 32490
L42073 32490
" />
<path d="M68810 26436
L69333 26436
" />
<path d="M69333 26436
L69333 26960
" />
<path d="M69333 27460
L69333 30483
" />
<path d="M68286 30483
L69333 30483
" />
<path d="M68286 27460
L68286 30483
" />
<path d="M68286 27460
L69333 27460
" />
<path d="M41036 27440
L42083 27440
" />
<path d="M41036 27440
L41036 30463
" />
<path d="M41036 30463
L42083 30463
" />
<path d="M42083 27440
L42083 30463
" />
<path d="M42083 26416
L42083 26940
" />
<path d="M41560 26416
L42083 26416
" />
<path d="M41540 36146
L42063 36146
" />
<path d="M42063 36146
L42063 36670
" />
<path d="M42063 37170
L42063 40193
" />
<path d="M41016 40193
L42063 40193
" />
<path d="M41016 37170
L41016 40193
" />
<path d="M41016 37170
L42063 37170
" />
</g>
<g style="fill:#000000; fill-opacity:0.0; 
stroke:#000000; stroke-width:59.0551; stroke-opacity:1; 
stroke-linecap:round; stroke-linejoin:round;">
<text x="51660" y="26242.7"
textLength="1049.87" font-size="524.934" lengthAdjust="spacingAndGlyphs"
text-anchor="middle" opacity="0">J25</text>
<path d="M51341 25830
L51341 26111
L51322 26167
L51285 26205
L51228 26223
L51191 26223
" />
<path d="M51510 25867
L51528 25848
L51566 25830
L51660 25830
L51697 25848
L51716 25867
L51734 25905
L51734 25942
L51716 25998
L51491 26223
L51734 26223
" />
<path d="M52091 25830
L51903 25830
L51884 26017
L51903 25998
L51941 25980
L52034 25980
L52072 25998
L52091 26017
L52109 26055
L52109 26148
L52091 26186
L52072 26205
L52034 26223
L51941 26223
L51903 26205
L51884 26186
" />
<text x="56030" y="31186.9"
textLength="1126.64" font-size="524.934" lengthAdjust="spacingAndGlyphs"
text-anchor="middle" opacity="0">J28</text>
<path d="M55711 30774
L55711 31055
L55692 31111
L55655 31149
L55598 31168
L55561 31168
" />
<path d="M55880 30811
L55898 30793
L55936 30774
L56030 30774
L56067 30793
L56086 30811
L56104 30849
L56104 30886
L56086 30943
L55861 31168
L56104 31168
" />
<path d="M56329 30943
L56292 30924
L56273 30905
L56254 30868
L56254 30849
L56273 30811
L56292 30793
L56329 30774
L56404 30774
L56442 30793
L56461 30811
L56479 30849
L56479 30868
L56461 30905
L56442 30924
L56404 30943
L56329 30943
L56292 30961
L56273 30980
L56254 31018
L56254 31093
L56273 31130
L56292 31149
L56329 31168
L56404 31168
L56442 31149
L56461 31130
L56479 31093
L56479 31018
L56461 30980
L56442 30961
L56404 30943
" />
<text x="47550" y="31206.9"
textLength="1126.64" font-size="524.934" lengthAdjust="spacingAndGlyphs"
text-anchor="middle" opacity="0">J24</text>
<path d="M47231 30794
L47231 31075
L47212 31131
L47175 31169
L47118 31188
L47081 31188
" />
<path d="M47400 30831
L47418 30813
L47456 30794
L47550 30794
L47587 30813
L47606 30831
L47624 30869
L47624 30906
L47606 30963
L47381 31188
L47624 31188
" />
<path d="M47962 30925
L47962 31188
" />
<path d="M47868 30775
L47774 31056
L48018 31056
" />
<text x="48530" y="35426.9"
textLength="1126.64" font-size="524.934" lengthAdjust="spacingAndGlyphs"
text-anchor="middle" opacity="0">J23</text>
<path d="M48211 35014
L48211 35295
L48192 35351
L48155 35389
L48098 35408
L48061 35408
" />
<path d="M48380 35051
L48398 35033
L48436 35014
L48530 35014
L48567 35033
L48586 35051
L48604 35089
L48604 35126
L48586 35183
L48361 35408
L48604 35408
" />
<path d="M48736 35014
L48979 35014
L48848 35164
L48904 35164
L48942 35183
L48961 35201
L48979 35239
L48979 35333
L48961 35370
L48942 35389
L48904 35408
L48792 35408
L48754 35389
L48736 35370
" />
<text x="51987" y="39340.9"
textLength="1126.64" font-size="524.934" lengthAdjust="spacingAndGlyphs"
text-anchor="middle" opacity="0">J22</text>
<path d="M51668 38928
L51668 39209
L51649 39265
L51612 39303
L51555 39322
L51518 39322
" />
<path d="M51837 38965
L51855 38947
L51893 38928
L51987 38928
L52024 38947
L52043 38965
L52061 39003
L52061 39040
L52043 39097
L51818 39322
L52061 39322
" />
<path d="M52211 38965
L52230 38947
L52268 38928
L52361 38928
L52399 38947
L52418 38965
L52436 39003
L52436 39040
L52418 39097
L52193 39322
L52436 39322
" />
<text x="56154" y="44135.9"
textLength="1126.64" font-size="524.934" lengthAdjust="spacingAndGlyphs"
text-anchor="middle" opacity="0">J21</text>
<path d="M55835 43723
L55835 44004
L55816 44060
L55779 44098
L55722 44117
L55685 44117
" />
<path d="M56004 43760
L56022 43742
L56060 43723
L56154 43723
L56191 43742
L56210 43760
L56228 43798
L56228 43835
L56210 43892
L55985 44117
L56228 44117
" />
<path d="M56603 44117
L56378 44117
" />
<path d="M56491 44117
L56491 43723
L56453 43779
L56416 43817
L56378 43835
" />
<text x="60320" y="44146.9"
textLength="1126.64" font-size="524.934" lengthAdjust="spacingAndGlyphs"
text-anchor="middle" opacity="0">J20</text>
<path d="M60001 43734
L60001 44015
L59982 44071
L59945 44109
L59888 44128
L59851 44128
" />
<path d="M60170 43771
L60188 43753
L60226 43734
L60320 43734
L60357 43753
L60376 43771
L60394 43809
L60394 43846
L60376 43903
L60151 44128
L60394 44128
" />
<path d="M60638 43734
L60676 43734
L60713 43753
L60732 43771
L60751 43809
L60769 43884
L60769 43978
L60751 44053
L60732 44090
L60713 44109
L60676 44128
L60638 44128
L60601 44109
L60582 44090
L60563 44053
L60544 43978
L60544 43884
L60563 43809
L60582 43771
L60601 43753
L60638 43734
" />
<text x="64620" y="45946.9"
textLength="1126.64" font-size="524.934" lengthAdjust="spacingAndGlyphs"
text-anchor="middle" opacity="0">J19</text>
<path d="M64301 45534
L64301 45815
L64282 45871
L64245 45909
L64188 45928
L64151 45928
" />
<path d="M64694 45928
L64470 45928
" />
<path d="M64582 45928
L64582 45534
L64545 45590
L64507 45628
L64470 45646
" />
<path d="M64882 45928
L64957 45928
L64994 45909
L65013 45890
L65051 45834
L65069 45759
L65069 45609
L65051 45571
L65032 45553
L64994 45534
L64919 45534
L64882 45553
L64863 45571
L64844 45609
L64844 45703
L64863 45740
L64882 45759
L64919 45778
L64994 45778
L65032 45759
L65051 45740
L65069 45703
" />
<text x="64660" y="26242.7"
textLength="1126.64" font-size="524.934" lengthAdjust="spacingAndGlyphs"
text-anchor="middle" opacity="0">J17</text>
<path d="M64341 25830
L64341 26111
L64322 26167
L64285 26205
L64228 26223
L64191 26223
" />
<path d="M64734 26223
L64510 26223
" />
<path d="M64622 26223
L64622 25830
L64585 25886
L64547 25923
L64510 25942
" />
<path d="M64866 25830
L65128 25830
L64959 26223
" />
<text x="59120" y="25346.9"
textLength="1126.64" font-size="524.934" lengthAdjust="spacingAndGlyphs"
text-anchor="middle" opacity="0">J16</text>
<path d="M58801 24934
L58801 25215
L58782 25271
L58745 25309
L58688 25328
L58651 25328
" />
<path d="M59194 25328
L58970 25328
" />
<path d="M59082 25328
L59082 24934
L59045 24990
L59007 25028
L58970 25046
" />
<path d="M59532 24934
L59457 24934
L59419 24953
L59401 24971
L59363 25028
L59344 25103
L59344 25253
L59363 25290
L59382 25309
L59419 25328
L59494 25328
L59532 25309
L59551 25290
L59569 25253
L59569 25159
L59551 25121
L59532 25103
L59494 25084
L59419 25084
L59382 25103
L59363 25121
L59344 25159
" />
<text x="50440" y="30213.9"
textLength="1126.64" font-size="524.934" lengthAdjust="spacingAndGlyphs"
text-anchor="middle" opacity="0">J14</text>
<path d="M50121 29801
L50121 30082
L50102 30138
L50065 30176
L50008 30195
L49971 30195
" />
<path d="M50514 30195
L50290 30195
" />
<path d="M50402 30195
L50402 29801
L50365 29857
L50327 29895
L50290 29913
" />
<path d="M50852 29932
L50852 30195
" />
<path d="M50758 29782
L50664 30063
L50908 30063
" />
<text x="59131" y="30314.9"
textLength="1126.64" font-size="524.934" lengthAdjust="spacingAndGlyphs"
text-anchor="middle" opacity="0">J13</text>
<path d="M58812 29902
L58812 30183
L58793 30239
L58756 30277
L58699 30296
L58662 30296
" />
<path d="M59205 30296
L58981 30296
" />
<path d="M59093 30296
L59093 29902
L59056 29958
L59018 29996
L58981 30014
" />
<path d="M59337 29902
L59580 29902
L59449 30052
L59505 30052
L59543 30071
L59562 30089
L59580 30127
L59580 30221
L59562 30258
L59543 30277
L59505 30296
L59393 30296
L59355 30277
L59337 30258
" />
<text x="64650" y="31172.7"
textLength="1126.64" font-size="524.934" lengthAdjust="spacingAndGlyphs"
text-anchor="middle" opacity="0">J12</text>
<path d="M64331 30760
L64331 31041
L64312 31097
L64275 31135
L64218 31153
L64181 31153
" />
<path d="M64724 31153
L64500 31153
" />
<path d="M64612 31153
L64612 30760
L64575 30816
L64537 30853
L64500 30872
" />
<path d="M64874 30797
L64893 30778
L64931 30760
L65024 30760
L65062 30778
L65081 30797
L65099 30835
L65099 30872
L65081 30928
L64856 31153
L65099 31153
" />
<text x="51520" y="36106.9"
textLength="1126.64" font-size="524.934" lengthAdjust="spacingAndGlyphs"
text-anchor="middle" opacity="0">J11</text>
<path d="M51201 35694
L51201 35975
L51182 36031
L51145 36069
L51088 36088
L51051 36088
" />
<path d="M51594 36088
L51370 36088
" />
<path d="M51482 36088
L51482 35694
L51445 35750
L51407 35788
L51370 35806
" />
<path d="M51969 36088
L51744 36088
" />
<path d="M51857 36088
L51857 35694
L51819 35750
L51782 35788
L51744 35806
" />
<text x="56270" y="36116.9"
textLength="1126.64" font-size="524.934" lengthAdjust="spacingAndGlyphs"
text-anchor="middle" opacity="0">J10</text>
<path d="M55951 35704
L55951 35985
L55932 36041
L55895 36079
L55838 36098
L55801 36098
" />
<path d="M56344 36098
L56120 36098
" />
<path d="M56232 36098
L56232 35704
L56195 35760
L56157 35798
L56120 35816
" />
<path d="M56588 35704
L56626 35704
L56663 35723
L56682 35741
L56701 35779
L56719 35854
L56719 35948
L56701 36023
L56682 36060
L56663 36079
L56626 36098
L56588 36098
L56551 36079
L56532 36060
L56513 36023
L56494 35948
L56494 35854
L56513 35779
L56532 35741
L56551 35723
L56588 35704
" />
<text x="60369" y="34328.9"
textLength="751.687" font-size="524.934" lengthAdjust="spacingAndGlyphs"
text-anchor="middle" opacity="0">J9</text>
<path d="M60237 33916
L60237 34197
L60219 34253
L60181 34291
L60125 34310
L60087 34310
" />
<path d="M60443 34310
L60518 34310
L60556 34291
L60575 34272
L60612 34216
L60631 34141
L60631 33991
L60612 33953
L60593 33935
L60556 33916
L60481 33916
L60443 33935
L60425 33953
L60406 33991
L60406 34085
L60425 34122
L60443 34141
L60481 34160
L60556 34160
L60593 34141
L60612 34122
L60631 34085
" />
<text x="64446" y="34336.9"
textLength="751.687" font-size="524.934" lengthAdjust="spacingAndGlyphs"
text-anchor="middle" opacity="0">J8</text>
<path d="M64314 33924
L64314 34205
L64296 34261
L64258 34299
L64202 34318
L64164 34318
" />
<path d="M64558 34093
L64520 34074
L64502 34055
L64483 34018
L64483 33999
L64502 33961
L64520 33943
L64558 33924
L64633 33924
L64670 33943
L64689 33961
L64708 33999
L64708 34018
L64689 34055
L64670 34074
L64633 34093
L64558 34093
L64520 34111
L64502 34130
L64483 34168
L64483 34243
L64502 34280
L64520 34299
L64558 34318
L64633 34318
L64670 34299
L64689 34280
L64708 34243
L64708 34168
L64689 34130
L64670 34111
L64633 34093
" />
<text x="64660" y="41002.7"
textLength="751.687" font-size="524.934" lengthAdjust="spacingAndGlyphs"
text-anchor="middle" opacity="0">J6</text>
<path d="M64528 40590
L64528 40871
L64510 40927
L64472 40965
L64416 40983
L64378 40983
" />
<path d="M64884 40590
L64809 40590
L64772 40608
L64753 40627
L64716 40683
L64697 40758
L64697 40908
L64716 40946
L64734 40965
L64772 40983
L64847 40983
L64884 40965
L64903 40946
L64922 40908
L64922 40815
L64903 40777
L64884 40758
L64847 40740
L64772 40740
L64734 40758
L64716 40777
L64697 40815
" />
<text x="60330" y="41012.7"
textLength="751.687" font-size="524.934" lengthAdjust="spacingAndGlyphs"
text-anchor="middle" opacity="0">J5</text>
<path d="M60198 40600
L60198 40881
L60180 40937
L60142 40975
L60086 40993
L60048 40993
" />
<path d="M60573 40600
L60386 40600
L60367 40787
L60386 40768
L60423 40750
L60517 40750
L60554 40768
L60573 40787
L60592 40825
L60592 40918
L60573 40956
L60554 40975
L60517 40993
L60423 40993
L60386 40975
L60367 40956
" />
<text x="56220" y="39176.9"
textLength="751.687" font-size="524.934" lengthAdjust="spacingAndGlyphs"
text-anchor="middle" opacity="0">J4</text>
<path d="M56088 38764
L56088 39045
L56070 39101
L56032 39139
L55976 39158
L55938 39158
" />
<path d="M56444 38895
L56444 39158
" />
<path d="M56351 38745
L56257 39026
L56501 39026
" />
<text x="56010" y="26316.9"
textLength="751.687" font-size="524.934" lengthAdjust="spacingAndGlyphs"
text-anchor="middle" opacity="0">J7</text>
<path d="M55878 25904
L55878 26185
L55860 26241
L55822 26279
L55766 26298
L55728 26298
" />
<path d="M56028 25904
L56291 25904
L56122 26298
" />
<text x="47674" y="41001.9"
textLength="1126.64" font-size="524.934" lengthAdjust="spacingAndGlyphs"
text-anchor="middle" opacity="0">J15</text>
<path d="M47355 40589
L47355 40870
L47336 40926
L47299 40964
L47242 40983
L47205 40983
" />
<path d="M47748 40983
L47524 40983
" />
<path d="M47636 40983
L47636 40589
L47599 40645
L47561 40683
L47524 40701
" />
<path d="M48105 40589
L47917 40589
L47898 40776
L47917 40758
L47955 40739
L48048 40739
L48086 40758
L48105 40776
L48123 40814
L48123 40908
L48105 40945
L48086 40964
L48048 40983
L47955 40983
L47917 40964
L47898 40945
" />
<text x="47350" y="26242.7"
textLength="1126.64" font-size="524.934" lengthAdjust="spacingAndGlyphs"
text-anchor="middle" opacity="0">J18</text>
<path d="M47031 25830
L47031 26111
L47012 26167
L46975 26205
L46918 26223
L46881 26223
" />
<path d="M47424 26223
L47200 26223
" />
<path d="M47312 26223
L47312 25830
L47275 25886
L47237 25923
L47200 25942
" />
<path d="M47649 25998
L47612 25980
L47593 25961
L47574 25923
L47574 25905
L47593 25867
L47612 25848
L47649 25830
L47724 25830
L47762 25848
L47781 25867
L47799 25905
L47799 25923
L47781 25961
L47762 25980
L47724 25998
L47649 25998
L47612 26017
L47593 26036
L47574 26073
L47574 26148
L47593 26186
L47612 26205
L47649 26223
L47724 26223
L47762 26205
L47781 26186
L47799 26148
L47799 26073
L47781 26036
L47762 26017
L47724 25998
" />
<text x="66710" y="34922.7"
textLength="1126.64" font-size="524.934" lengthAdjust="spacingAndGlyphs"
text-anchor="middle" opacity="0">J31</text>
<path d="M66391 34510
L66391 34791
L66372 34847
L66335 34885
L66278 34903
L66241 34903
" />
<path d="M66541 34510
L66784 34510
L66653 34660
L66710 34660
L66747 34678
L66766 34697
L66784 34735
L66784 34828
L66766 34866
L66747 34885
L66710 34903
L66597 34903
L66560 34885
L66541 34866
" />
<path d="M67159 34903
L66934 34903
" />
<path d="M67047 34903
L67047 34510
L67009 34566
L66972 34603
L66934 34622
" />
<text x="68810" y="35976.9"
textLength="1126.64" font-size="524.934" lengthAdjust="spacingAndGlyphs"
text-anchor="middle" opacity="0">J26</text>
<path d="M68491 35564
L68491 35845
L68472 35901
L68435 35939
L68378 35958
L68341 35958
" />
<path d="M68660 35601
L68678 35583
L68716 35564
L68810 35564
L68847 35583
L68866 35601
L68884 35639
L68884 35676
L68866 35733
L68641 35958
L68884 35958
" />
<path d="M69222 35564
L69147 35564
L69109 35583
L69091 35601
L69053 35658
L69034 35733
L69034 35883
L69053 35920
L69072 35939
L69109 35958
L69184 35958
L69222 35939
L69241 35920
L69259 35883
L69259 35789
L69241 35751
L69222 35733
L69184 35714
L69109 35714
L69072 35733
L69053 35751
L69034 35789
" />
<text x="68780" y="31366.9"
textLength="1126.64" font-size="524.934" lengthAdjust="spacingAndGlyphs"
text-anchor="middle" opacity="0">J27</text>
<path d="M68461 30954
L68461 31235
L68442 31291
L68405 31329
L68348 31348
L68311 31348
" />
<path d="M68630 30991
L68648 30973
L68686 30954
L68780 30954
L68817 30973
L68836 30991
L68854 31029
L68854 31066
L68836 31123
L68611 31348
L68854 31348
" />
<path d="M68986 30954
L69248 30954
L69079 31348
" />
<text x="41570" y="31326.9"
textLength="1126.64" font-size="524.934" lengthAdjust="spacingAndGlyphs"
text-anchor="middle" opacity="0">J29</text>
<path d="M41251 30914
L41251 31195
L41232 31251
L41195 31289
L41138 31308
L41101 31308
" />
<path d="M41420 30951
L41438 30933
L41476 30914
L41570 30914
L41607 30933
L41626 30951
L41644 30989
L41644 31026
L41626 31083
L41401 31308
L41644 31308
" />
<path d="M41832 31308
L41907 31308
L41944 31289
L41963 31270
L42001 31214
L42019 31139
L42019 30989
L42001 30951
L41982 30933
L41944 30914
L41869 30914
L41832 30933
L41813 30951
L41794 30989
L41794 31083
L41813 31120
L41832 31139
L41869 31158
L41944 31158
L41982 31139
L42001 31120
L42019 31083
" />
<text x="67800" y="26826.9"
textLength="1126.64" font-size="524.934" lengthAdjust="spacingAndGlyphs"
text-anchor="middle" opacity="0">J30</text>
<path d="M67481 26414
L67481 26695
L67462 26751
L67425 26789
L67368 26808
L67331 26808
" />
<path d="M67631 26414
L67874 26414
L67743 26564
L67800 26564
L67837 26583
L67856 26601
L67874 26639
L67874 26733
L67856 26770
L67837 26789
L67800 26808
L67687 26808
L67650 26789
L67631 26770
" />
<path d="M68118 26414
L68156 26414
L68193 26433
L68212 26451
L68231 26489
L68249 26564
L68249 26658
L68231 26733
L68212 26770
L68193 26789
L68156 26808
L68118 26808
L68081 26789
L68062 26770
L68043 26733
L68024 26658
L68024 26564
L68043 26489
L68062 26451
L68081 26433
L68118 26414
" />
<text x="42590" y="27286.9"
textLength="1126.64" font-size="524.934" lengthAdjust="spacingAndGlyphs"
text-anchor="middle" opacity="0">J32</text>
<path d="M42271 26874
L42271 27155
L42252 27211
L42215 27249
L42158 27268
L42121 27268
" />
<path d="M42421 26874
L42664 26874
L42533 27024
L42590 27024
L42627 27043
L42646 27061
L42664 27099
L42664 27193
L42646 27230
L42627 27249
L42590 27268
L42477 27268
L42440 27249
L42421 27230
" />
<path d="M42814 26911
L42833 26893
L42871 26874
L42964 26874
L43002 26893
L43021 26911
L43039 26949
L43039 26986
L43021 27043
L42796 27268
L43039 27268
" />
<text x="41540" y="35976.9"
textLength="1126.64" font-size="524.934" lengthAdjust="spacingAndGlyphs"
text-anchor="middle" opacity="0">J33</text>
<path d="M41221 35564
L41221 35845
L41202 35901
L41165 35939
L41108 35958
L41071 35958
" />
<path d="M41371 35564
L41614 35564
L41483 35714
L41540 35714
L41577 35733
L41596 35751
L41614 35789
L41614 35883
L41596 35920
L41577 35939
L41540 35958
L41427 35958
L41390 35939
L41371 35920
" />
<path d="M41746 35564
L41989 35564
L41858 35714
L41914 35714
L41952 35733
L41971 35751
L41989 35789
L41989 35883
L41971 35920
L41952 35939
L41914 35958
L41802 35958
L41764 35939
L41746 35920
" />
<g >
</g>
</g> 
</svg>
