G04 #@! TF.GenerationSoftware,KiCad,Pcbnew,(5.1.10)-1*
G04 #@! TF.CreationDate,2021-10-13T01:32:21-04:00*
G04 #@! TF.ProjectId,po_midi_adapter,706f5f6d-6964-4695-9f61-646170746572,rev?*
G04 #@! TF.SameCoordinates,PX5f57d00PY76b1be0*
G04 #@! TF.FileFunction,Profile,NP*
%FSLAX46Y46*%
G04 Gerber Fmt 4.6, Leading zero omitted, Abs format (unit mm)*
G04 Created by KiCad (PCBNEW (5.1.10)-1) date 2021-10-13 01:32:21*
%MOMM*%
%LPD*%
G01*
G04 APERTURE LIST*
G04 #@! TA.AperFunction,Profile*
%ADD10C,0.200000*%
G04 #@! TD*
G04 APERTURE END LIST*
D10*
X52044600Y16002000D02*
X49885600Y16002000D01*
X60452745Y15595556D02*
X60452000Y14935200D01*
X38456345Y15595556D02*
G75*
G02*
X38887400Y16002000I431055J-25356D01*
G01*
X30453855Y14909844D02*
G75*
G02*
X30022800Y14503400I-431055J25356D01*
G01*
X30048200Y16002000D02*
G75*
G02*
X30454644Y15570945I-25356J-431055D01*
G01*
X41046400Y16002000D02*
G75*
G02*
X41452844Y15570945I-25356J-431055D01*
G01*
X38862044Y14504145D02*
G75*
G02*
X38455600Y14935200I25356J431055D01*
G01*
X27458145Y15595556D02*
G75*
G02*
X27889200Y16002000I431055J-25356D01*
G01*
X41452055Y14909844D02*
G75*
G02*
X41021000Y14503400I-431055J25356D01*
G01*
X27863844Y14504145D02*
G75*
G02*
X27457400Y14935200I25356J431055D01*
G01*
X60452745Y15595556D02*
G75*
G02*
X60883800Y16002000I431055J-25356D01*
G01*
X63042800Y16002000D02*
G75*
G02*
X63449244Y15570945I-25356J-431055D01*
G01*
X60858444Y14504145D02*
G75*
G02*
X60452000Y14935200I25356J431055D01*
G01*
X63448455Y14909844D02*
G75*
G02*
X63017400Y14503400I-431055J25356D01*
G01*
X49860244Y14504145D02*
G75*
G02*
X49453800Y14935200I25356J431055D01*
G01*
X52450255Y14909844D02*
G75*
G02*
X52019200Y14503400I-431055J25356D01*
G01*
X52044600Y16002000D02*
G75*
G02*
X52451044Y15570945I-25356J-431055D01*
G01*
X49454545Y15595556D02*
G75*
G02*
X49885600Y16002000I431055J-25356D01*
G01*
X38862044Y14504145D02*
X41021000Y14503400D01*
X38456345Y15595556D02*
X38455600Y14935200D01*
X41452055Y14909844D02*
X41452844Y15570945D01*
X27863844Y14504145D02*
X30022800Y14503400D01*
X41046400Y16002000D02*
X38887400Y16002000D01*
X30453855Y14909844D02*
X30454644Y15570945D01*
X30048200Y16002000D02*
X27889200Y16002000D01*
X27458145Y15595556D02*
X27457400Y14935200D01*
X60858444Y14504145D02*
X63017400Y14503400D01*
X63042800Y16002000D02*
X60883800Y16002000D01*
X63448455Y14909844D02*
X63449244Y15570945D01*
X49860244Y14504145D02*
X52019200Y14503400D01*
X52450255Y14909844D02*
X52451044Y15570945D01*
X49454545Y15595556D02*
X49453800Y14935200D01*
X52070000Y28473400D02*
X49911000Y28473400D01*
X60478145Y28066956D02*
X60477400Y27406600D01*
X38481745Y28066956D02*
G75*
G02*
X38912800Y28473400I431055J-25356D01*
G01*
X30479255Y27381244D02*
G75*
G02*
X30048200Y26974800I-431055J25356D01*
G01*
X30073600Y28473400D02*
G75*
G02*
X30480044Y28042345I-25356J-431055D01*
G01*
X41071800Y28473400D02*
G75*
G02*
X41478244Y28042345I-25356J-431055D01*
G01*
X38887444Y26975545D02*
G75*
G02*
X38481000Y27406600I25356J431055D01*
G01*
X27483545Y28066956D02*
G75*
G02*
X27914600Y28473400I431055J-25356D01*
G01*
X41477455Y27381244D02*
G75*
G02*
X41046400Y26974800I-431055J25356D01*
G01*
X27889244Y26975545D02*
G75*
G02*
X27482800Y27406600I25356J431055D01*
G01*
X60478145Y28066956D02*
G75*
G02*
X60909200Y28473400I431055J-25356D01*
G01*
X63068200Y28473400D02*
G75*
G02*
X63474644Y28042345I-25356J-431055D01*
G01*
X60883844Y26975545D02*
G75*
G02*
X60477400Y27406600I25356J431055D01*
G01*
X63473855Y27381244D02*
G75*
G02*
X63042800Y26974800I-431055J25356D01*
G01*
X49885644Y26975545D02*
G75*
G02*
X49479200Y27406600I25356J431055D01*
G01*
X52475655Y27381244D02*
G75*
G02*
X52044600Y26974800I-431055J25356D01*
G01*
X52070000Y28473400D02*
G75*
G02*
X52476444Y28042345I-25356J-431055D01*
G01*
X49479945Y28066956D02*
G75*
G02*
X49911000Y28473400I431055J-25356D01*
G01*
X38887444Y26975545D02*
X41046400Y26974800D01*
X38481745Y28066956D02*
X38481000Y27406600D01*
X41477455Y27381244D02*
X41478244Y28042345D01*
X27889244Y26975545D02*
X30048200Y26974800D01*
X41071800Y28473400D02*
X38912800Y28473400D01*
X30479255Y27381244D02*
X30480044Y28042345D01*
X30073600Y28473400D02*
X27914600Y28473400D01*
X27483545Y28066956D02*
X27482800Y27406600D01*
X60883844Y26975545D02*
X63042800Y26974800D01*
X63068200Y28473400D02*
X60909200Y28473400D01*
X63473855Y27381244D02*
X63474644Y28042345D01*
X49885644Y26975545D02*
X52044600Y26974800D01*
X52475655Y27381244D02*
X52476444Y28042345D01*
X49479945Y28066956D02*
X49479200Y27406600D01*
X52070000Y40995600D02*
X49911000Y40995600D01*
X60478145Y40589156D02*
X60477400Y39928800D01*
X38481745Y40589156D02*
G75*
G02*
X38912800Y40995600I431055J-25356D01*
G01*
X30479255Y39903444D02*
G75*
G02*
X30048200Y39497000I-431055J25356D01*
G01*
X30073600Y40995600D02*
G75*
G02*
X30480044Y40564545I-25356J-431055D01*
G01*
X41071800Y40995600D02*
G75*
G02*
X41478244Y40564545I-25356J-431055D01*
G01*
X38887444Y39497745D02*
G75*
G02*
X38481000Y39928800I25356J431055D01*
G01*
X27483545Y40589156D02*
G75*
G02*
X27914600Y40995600I431055J-25356D01*
G01*
X41477455Y39903444D02*
G75*
G02*
X41046400Y39497000I-431055J25356D01*
G01*
X27889244Y39497745D02*
G75*
G02*
X27482800Y39928800I25356J431055D01*
G01*
X60478145Y40589156D02*
G75*
G02*
X60909200Y40995600I431055J-25356D01*
G01*
X63068200Y40995600D02*
G75*
G02*
X63474644Y40564545I-25356J-431055D01*
G01*
X60883844Y39497745D02*
G75*
G02*
X60477400Y39928800I25356J431055D01*
G01*
X63473855Y39903444D02*
G75*
G02*
X63042800Y39497000I-431055J25356D01*
G01*
X49885644Y39497745D02*
G75*
G02*
X49479200Y39928800I25356J431055D01*
G01*
X52475655Y39903444D02*
G75*
G02*
X52044600Y39497000I-431055J25356D01*
G01*
X52070000Y40995600D02*
G75*
G02*
X52476444Y40564545I-25356J-431055D01*
G01*
X49479945Y40589156D02*
G75*
G02*
X49911000Y40995600I431055J-25356D01*
G01*
X38887444Y39497745D02*
X41046400Y39497000D01*
X38481745Y40589156D02*
X38481000Y39928800D01*
X41477455Y39903444D02*
X41478244Y40564545D01*
X27889244Y39497745D02*
X30048200Y39497000D01*
X41071800Y40995600D02*
X38912800Y40995600D01*
X30479255Y39903444D02*
X30480044Y40564545D01*
X30073600Y40995600D02*
X27914600Y40995600D01*
X27483545Y40589156D02*
X27482800Y39928800D01*
X60883844Y39497745D02*
X63042800Y39497000D01*
X63068200Y40995600D02*
X60909200Y40995600D01*
X63473855Y39903444D02*
X63474644Y40564545D01*
X49885644Y39497745D02*
X52044600Y39497000D01*
X52475655Y39903444D02*
X52476444Y40564545D01*
X49479945Y40589156D02*
X49479200Y39928800D01*
X38456345Y53136756D02*
G75*
G02*
X38887400Y53543200I431055J-25356D01*
G01*
X41046400Y53543200D02*
G75*
G02*
X41452844Y53112145I-25356J-431055D01*
G01*
X38862044Y52045345D02*
G75*
G02*
X38455600Y52476400I25356J431055D01*
G01*
X41452055Y52451044D02*
G75*
G02*
X41021000Y52044600I-431055J25356D01*
G01*
X27863844Y52045345D02*
G75*
G02*
X27457400Y52476400I25356J431055D01*
G01*
X30453855Y52451044D02*
G75*
G02*
X30022800Y52044600I-431055J25356D01*
G01*
X30048200Y53543200D02*
G75*
G02*
X30454644Y53112145I-25356J-431055D01*
G01*
X27458145Y53136756D02*
G75*
G02*
X27889200Y53543200I431055J-25356D01*
G01*
X60858444Y52045345D02*
G75*
G02*
X60452000Y52476400I25356J431055D01*
G01*
X63448455Y52451044D02*
G75*
G02*
X63017400Y52044600I-431055J25356D01*
G01*
X63042800Y53543200D02*
G75*
G02*
X63449244Y53112145I-25356J-431055D01*
G01*
X60452745Y53136756D02*
G75*
G02*
X60883800Y53543200I431055J-25356D01*
G01*
X49860244Y52045345D02*
G75*
G02*
X49453800Y52476400I25356J431055D01*
G01*
X52450255Y52451044D02*
G75*
G02*
X52019200Y52044600I-431055J25356D01*
G01*
X49454545Y53136756D02*
G75*
G02*
X49885600Y53543200I431055J-25356D01*
G01*
X52044600Y53543200D02*
G75*
G02*
X52451044Y53112145I-25356J-431055D01*
G01*
X3327400Y20802600D02*
G75*
G02*
X2514600Y21615400I0J812800D01*
G01*
X77724000Y21615400D02*
G75*
G02*
X76987400Y20878800I-736600J0D01*
G01*
X75971400Y57937400D02*
X76657200Y57937400D01*
X2489200Y32613600D02*
X2514600Y21615400D01*
X2463800Y47218600D02*
X2471463Y56159400D01*
X2463800Y47218600D02*
X3429000Y46507400D01*
X3429000Y46507400D02*
X3429000Y33324800D01*
X2489200Y32613600D02*
X3429000Y33324800D01*
X77749400Y47193200D02*
X76784200Y46482000D01*
X77724000Y21615400D02*
X77724000Y32664400D01*
X77724000Y32664400D02*
X76784200Y33375600D01*
X76784200Y46482000D02*
X76784200Y33375600D01*
X70106534Y2057400D02*
G75*
G02*
X69545200Y1549400I-510534J0D01*
G01*
X72609707Y8489053D02*
G75*
G02*
X72059800Y7933400I-524507J-30853D01*
G01*
X35610768Y1550034D02*
G75*
G02*
X35077400Y2057400I-25368J507366D01*
G01*
X8357409Y12220148D02*
G75*
G02*
X7594600Y13335000I301304J1024552D01*
G01*
X7586396Y57933399D02*
X3606800Y57937400D01*
X7594600Y20777200D02*
X7594600Y13335000D01*
X3327400Y20802600D02*
X7594600Y20777200D01*
X3606788Y57937425D02*
G75*
G03*
X2471463Y56159400I864675J-1803606D01*
G01*
X72609708Y8489053D02*
X72669400Y20904200D01*
X76657200Y57937400D02*
G75*
G02*
X77741737Y56159219I-915463J-1778181D01*
G01*
X76987400Y20878800D02*
X72669400Y20904200D01*
X77741737Y56159219D02*
X77749400Y47193200D01*
X70086199Y57933399D02*
X75971400Y57937400D01*
X30048200Y53543200D02*
X27889200Y53543200D01*
X31449033Y56805796D02*
G75*
G03*
X31449033Y56805796I-2500000J0D01*
G01*
X30453855Y52451044D02*
X30454644Y53112145D01*
X41046400Y53543200D02*
X38887400Y53543200D01*
X27863844Y52045345D02*
X30022800Y52044600D01*
X27458145Y53136756D02*
X27457400Y52476400D01*
X7586396Y57933399D02*
X10086200Y57933399D01*
X69545200Y1549400D02*
X35610768Y1550034D01*
X70086200Y7933400D02*
X70106534Y2057400D01*
X35077400Y2057400D02*
X35086201Y12214602D01*
X38862044Y52045345D02*
X41021000Y52044600D01*
X20449033Y31805796D02*
G75*
G03*
X20449033Y31805796I-2500000J0D01*
G01*
X41452055Y52451044D02*
X41452844Y53112145D01*
X72059800Y7933400D02*
X70086200Y7933400D01*
X70086199Y64314600D02*
X70086199Y57933399D01*
X68930369Y66127713D02*
G75*
G02*
X70086199Y64314600I-844170J-1813113D01*
G01*
X10086200Y64314600D02*
X10299288Y65212900D01*
X38456345Y53136756D02*
X38455600Y52476400D01*
X35086201Y12214602D02*
X8357409Y12220148D01*
X10086200Y57933399D02*
X10086200Y64314600D01*
X68086199Y66314600D02*
X68930369Y66127713D01*
X10299286Y65212900D02*
G75*
G02*
X12086200Y66314601I1786914J-898300D01*
G01*
X12086200Y66314601D02*
X68086199Y66314600D01*
X53024032Y31805796D02*
G75*
G03*
X53024032Y31805796I-2075000J0D01*
G01*
X64048925Y6810423D02*
G75*
G03*
X64048925Y6810423I-2075000J0D01*
G01*
X64024032Y56805796D02*
G75*
G03*
X64024032Y56805796I-2075000J0D01*
G01*
X20024033Y19305796D02*
G75*
G03*
X20024033Y19305796I-2075000J0D01*
G01*
X64024032Y19305796D02*
G75*
G03*
X64024032Y19305796I-2075000J0D01*
G01*
X20024033Y44305796D02*
G75*
G03*
X20024033Y44305796I-2075000J0D01*
G01*
X64024032Y44305796D02*
G75*
G03*
X64024032Y44305796I-2075000J0D01*
G01*
X42024032Y19305796D02*
G75*
G03*
X42024032Y19305796I-2074999J0D01*
G01*
X31024033Y44305796D02*
G75*
G03*
X31024033Y44305796I-2075000J0D01*
G01*
X52450255Y52451044D02*
X52451044Y53112145D01*
X31024033Y19305796D02*
G75*
G03*
X31024033Y19305796I-2075000J0D01*
G01*
X42449032Y31805796D02*
G75*
G03*
X42449032Y31805796I-2499999J0D01*
G01*
X64024032Y31805796D02*
G75*
G03*
X64024032Y31805796I-2075000J0D01*
G01*
X42048925Y6810423D02*
G75*
G03*
X42048925Y6810423I-2074999J0D01*
G01*
X49860244Y52045345D02*
X52019200Y52044600D01*
X49454545Y53136756D02*
X49453800Y52476400D01*
X53024032Y44305796D02*
G75*
G03*
X53024032Y44305796I-2075000J0D01*
G01*
X31449033Y31805796D02*
G75*
G03*
X31449033Y31805796I-2500000J0D01*
G01*
X63448455Y52451044D02*
X63449244Y53112145D01*
X60858444Y52045345D02*
X63017400Y52044600D01*
X63042800Y53543200D02*
X60883800Y53543200D01*
X20024033Y56805796D02*
G75*
G03*
X20024033Y56805796I-2075000J0D01*
G01*
X42024032Y44305796D02*
G75*
G03*
X42024032Y44305796I-2074999J0D01*
G01*
X52044600Y53543200D02*
X49885600Y53543200D01*
X53024032Y56805796D02*
G75*
G03*
X53024032Y56805796I-2075000J0D01*
G01*
X53048925Y6810423D02*
G75*
G03*
X53048925Y6810423I-2075000J0D01*
G01*
X42024032Y56805796D02*
G75*
G03*
X42024032Y56805796I-2074999J0D01*
G01*
X60452745Y53136756D02*
X60452000Y52476400D01*
X53024032Y19305796D02*
G75*
G03*
X53024032Y19305796I-2075000J0D01*
G01*
M02*
