<?xml version="1.0" encoding="UTF-8" standalone="no"?>
<svg
   xmlns:dc="http://purl.org/dc/elements/1.1/"
   xmlns:cc="http://creativecommons.org/ns#"
   xmlns:rdf="http://www.w3.org/1999/02/22-rdf-syntax-ns#"
   xmlns:svg="http://www.w3.org/2000/svg"
   xmlns="http://www.w3.org/2000/svg"
   xmlns:sodipodi="http://sodipodi.sourceforge.net/DTD/sodipodi-0.dtd"
   xmlns:inkscape="http://www.inkscape.org/namespaces/inkscape"
   width="10.0mm"
   height="10.0mm"
   viewBox="0 0 10.0 10.0"
   version="1.1"
   id="svg8"
   sodipodi:docname="logo_inkspace.svg"
   inkscape:version="1.0.2-2 (e86c870879, 2021-01-15)">
  <defs
     id="defs2" />
  <sodipodi:namedview
     id="base"
     pagecolor="#ffffff"
     bordercolor="#666666"
     borderopacity="1.0"
     inkscape:pageopacity="0.0"
     inkscape:pageshadow="2"
     inkscape:zoom="15.839192"
     inkscape:cx="18.527981"
     inkscape:cy="17.915478"
     inkscape:document-units="mm"
     inkscape:current-layer="g1143"
     inkscape:document-rotation="0"
     showgrid="true"
     inkscape:window-width="2560"
     inkscape:window-height="1017"
     inkscape:window-x="222"
     inkscape:window-y="-8"
     inkscape:window-maximized="1"
     borderlayer="true">
    <inkscape:grid
       spacingx="2.54"
       spacingy="2.54"
       empspacing="1"
       type="xygrid"
       units="mm"
       id="grid883" />
  </sodipodi:namedview>
  <metadata
     id="metadata5">
    <rdf:RDF>
      <cc:Work
         rdf:about="">
        <dc:format>image/svg+xml</dc:format>
        <dc:type
           rdf:resource="http://purl.org/dc/dcmitype/StillImage" />
        <dc:title />
      </cc:Work>
    </rdf:RDF>
  </metadata>
  <g
     inkscape:label="[fixed] BG"
     inkscape:groupmode="layer"
     sodipodi:insensitive="true"
     id="g838">
    <rect
       x="0"
       y="0"
       width="5.0"
       height="5.0"
       style="fill:#FFFFFF;fill-opacity:1;stroke:none"
       id="rect836" />
  </g>
  <g
     inkscape:label="B.Cu"
     inkscape:groupmode="layer"
     id="g840" />
  <g
     inkscape:label="B.Mask"
     inkscape:groupmode="layer"
     id="g842" />
  <g
     inkscape:label="B.SilkS"
     inkscape:groupmode="layer"
     id="g844" />
  <g
     inkscape:label="F.SilkS"
     inkscape:groupmode="layer"
     id="g846">
    <g
       id="g1143"
       transform="matrix(0.00491722,0,0,0.00491722,-1.3420454,-0.58228175)">
      <rect
         class="st0"
         width="1594.9"
         height="1594.9"
         id="rect857"
         x="0"
         y="0" />
      <g
         id="g1026" />
      <g
         id="g1028" />
      <g
         id="g1030" />
      <g
         id="g1032" />
      <g
         id="g1034" />
      <g
         id="g1242"
         transform="matrix(3.0385504,0,0,2.8154482,364.35601,256.77149)">
        <g
           id="g1193">
          <g
             id="g1191">
            <g
               id="g1147">
              <path
                 d="m 619.5,56.4 v 0 c 0,6 -4.9,10.9 -10.9,10.9 H 342.1 c -4.4,0 -7.9,-3.5 -7.9,-7.9 v 0 h -103 v 0 c 0,4.4 -3.5,7.9 -7.9,7.9 h -81.6 c -4.4,0 -7.9,-3.5 -7.9,-7.9 v 0 H 34.7 c -2.2,0 -3.9,-1.8 -3.9,-3.9 v 0 c 0,-2.2 1.8,-3.9 3.9,-3.9 h 99.1 v 0 c 0,-4.4 3.5,-7.9 7.9,-7.9 h 81.6 c 4.4,0 7.9,3.5 7.9,7.9 v 0 h 103 v 0 c 0,-3.3 2.6,-5.9 5.9,-5.9 h 268.6 c 6,-0.2 10.8,4.7 10.8,10.7 z"
                 id="path1145" />
            </g>
            <g
               id="g1151">
              <path
                 d="m 619.5,83.5 v 2 c 0,6 -4.9,10.9 -10.9,10.9 H 342.1 c -4.4,0 -7.9,-3.5 -7.9,-7.9 v 0 h -103 v 0 c 0,4.4 -3.5,7.9 -7.9,7.9 h -81.6 c -4.4,0 -7.9,-3.5 -7.9,-7.9 v 0 H 34.7 c -2.2,0 -3.9,-1.8 -3.9,-3.9 v 0 c 0,-2.2 1.8,-3.9 3.9,-3.9 h 99.1 v 0 c 0,-4.4 3.5,-7.9 7.9,-7.9 h 81.6 c 4.4,0 7.9,3.5 7.9,7.9 v 0 h 103 v 0 c 0,-4.4 3.5,-7.9 7.9,-7.9 h 266.6 c 6,-0.1 10.8,4.7 10.8,10.7 z"
                 id="path1149" />
            </g>
            <g
               id="g1155">
              <path
                 d="m 619.5,112.7 v 2 c 0,6 -4.9,10.9 -10.9,10.9 H 342.1 c -4.4,0 -7.9,-3.5 -7.9,-7.9 v 0 h -103 v 0 c 0,4.4 -3.5,7.9 -7.9,7.9 h -81.6 c -4.4,0 -7.9,-3.5 -7.9,-7.9 v 0 H 34.7 c -2.2,0 -3.9,-1.8 -3.9,-3.9 v 0 c 0,-2.2 1.8,-3.9 3.9,-3.9 h 99.1 v 0 c 0,-4.4 3.5,-7.9 7.9,-7.9 h 81.6 c 4.4,0 7.9,3.5 7.9,7.9 v 0 h 103 v 0 c 0,-4.4 3.5,-7.9 7.9,-7.9 h 266.6 c 6,-0.2 10.8,4.7 10.8,10.7 z"
                 id="path1153" />
            </g>
            <path
               d="m 330.3,138.9 h -99.1 v 0 c 0,-4.4 -3.5,-7.9 -7.9,-7.9 h -81.6 c -4.4,0 -7.9,3.5 -7.9,7.9 v 0 h -99 c -2.2,0 -4,1.7 -4.1,3.8 -0.1,2.2 1.7,4.1 3.9,4.1 h 99.1 c 0,2 0,5.8 8.3,5.8 h 81.3 c 7.1,0 7.9,-3 7.9,-5.8 h 99.1 c 2.2,0 3.9,-1.8 3.9,-3.9 v 0 c 0,-2.2 -1.7,-4 -3.9,-4 z"
               id="path1157" />
            <path
               d="M 330.3,168 H 34.7 c -2.2,0 -3.9,1.8 -3.9,3.9 v 0 c 0,2.2 1.8,3.9 3.9,3.9 h 295.6 c 2.2,0 3.9,-1.8 3.9,-3.9 v 0 c 0,-2.1 -1.7,-3.9 -3.9,-3.9 z"
               id="path1159" />
            <path
               d="M 330.3,197.2 H 34.7 c -2.2,0 -3.9,1.8 -3.9,3.9 v 0 c 0,2.2 1.8,3.9 3.9,3.9 h 295.6 c 2.2,0 3.9,-1.8 3.9,-3.9 v 0 c 0,-2.1 -1.7,-3.9 -3.9,-3.9 z"
               id="path1161" />
            <path
               d="M 330.3,226.4 H 34.7 c -2.2,0 -3.9,1.8 -3.9,3.9 v 0 c 0,2.2 1.8,3.9 3.9,3.9 h 295.6 c 2.2,0 3.9,-1.8 3.9,-3.9 v 0 c 0,-2.2 -1.7,-3.9 -3.9,-3.9 z"
               id="path1163" />
            <path
               d="m 334.2,259.4 c 0,-2.2 -1.8,-3.9 -3.9,-3.9 h -99.1 0.9 c 0,-4.4 -3.5,-7.9 -7.9,-7.9 h -82.6 c -4.4,0 -7.9,3.5 -7.9,7.9 v 0 h -99 c -2.2,0 -3.9,1.8 -3.9,3.9 v 0 c 0,2.2 1.8,3.9 3.9,3.9 h 99.1 c 0,4.4 3.5,7.9 7.9,7.9 h 82.6 c 4.4,0 7.9,-3.5 7.9,-7.9 h 98.2 c 2.1,0.1 3.8,-1.6 3.8,-3.9 z"
               id="path1165" />
            <path
               d="m 334.2,288.6 v 0 c 0,-2.2 -1.8,-4 -3.9,-4 h -99.1 0.9 c 0,-4.4 -3.5,-7.9 -7.9,-7.9 h -82.6 c -4.4,0 -7.9,3.5 -7.9,7.9 v 0 h -99 c -2.2,0 -3.9,1.8 -3.9,3.9 v 0 c 0,2.2 1.8,3.9 3.9,3.9 h 99.1 v 0 c 0,4.4 3.5,7.9 7.9,7.9 h 82.6 c 4.4,0 7.9,-3.5 7.9,-7.9 h -0.9 99.1 c 2.1,0.2 3.8,-1.6 3.8,-3.8 z"
               id="path1167" />
            <path
               d="m 334.2,317.8 c 0,-2.2 -1.8,-3.9 -3.9,-3.9 h -99.1 0.9 c 0,-4.4 -3.5,-7.9 -7.9,-7.9 h -82.6 c -4.4,0 -7.9,3.5 -7.9,7.9 v 0 h -99 c -2.2,0 -3.9,1.8 -3.9,3.9 v 0 c 0,2.2 1.8,3.9 3.9,3.9 h 99.1 c 0,4.4 3.5,7.9 7.9,7.9 h 82.6 c 4.4,0 7.9,-3.5 7.9,-7.9 h 98.2 c 2.1,0 3.8,-1.7 3.8,-3.9 z"
               id="path1169" />
            <path
               d="m 334.2,346.9 c 0,-2.2 -1.8,-3.9 -3.9,-3.9 h -99.1 0.9 c 0,-4.4 -3.5,-7.9 -7.9,-7.9 h -82.6 c -4.4,0 -7.9,3.5 -7.9,7.9 v 0 h -99 c -2.2,0 -3.9,1.8 -3.9,3.9 v 0 c 0,2.2 1.8,3.9 3.9,3.9 h 99.1 c 0,4.4 3.5,7.9 7.9,7.9 h 82.6 c 4.4,0 7.9,-3.5 7.9,-7.9 h 98.2 c 2.1,0.1 3.8,-1.7 3.8,-3.9 z"
               id="path1171" />
            <g
               id="g1189">
              <path
                 d="M 515.7,131 H 475.4 474.9 437 c -6.6,0 -11.9,5.3 -11.9,11.9 v 0 c 0,6.6 5.3,11.9 11.9,11.9 h 37.9 0.5 40.3 c 6.6,0 11.9,-5.3 11.9,-11.9 v 0 c 0,-6.6 -5.3,-11.9 -11.9,-11.9 z"
                 id="path1173" />
              <path
                 d="M 515.7,160.1 H 475.4 474.9 437 c -6.6,0 -11.9,5.3 -11.9,11.9 v 0 c 0,6.6 5.3,11.9 11.9,11.9 h 37.9 0.5 40.3 c 6.6,0 11.9,-5.3 11.9,-11.9 v 0 c 0,-6.6 -5.3,-11.9 -11.9,-11.9 z"
                 id="path1175" />
              <path
                 d="M 515.7,189.3 H 475.4 474.9 437 c -6.6,0 -11.9,5.3 -11.9,11.9 v 0 c 0,6.6 5.3,11.9 11.9,11.9 h 37.9 0.5 40.3 c 6.6,0 11.9,-5.3 11.9,-11.9 v 0 c 0,-6.6 -5.3,-11.9 -11.9,-11.9 z"
                 id="path1177" />
              <path
                 d="M 515.7,218.4 H 475.4 474.9 437 c -6.6,0 -11.9,5.3 -11.9,11.9 v 0 c 0,6.6 5.3,11.9 11.9,11.9 h 37.9 0.5 40.3 c 6.6,0 11.9,-5.3 11.9,-11.9 v 0 c 0,-6.6 -5.3,-11.9 -11.9,-11.9 z"
                 id="path1179" />
              <path
                 d="M 515.7,247.6 H 475.4 474.9 437 c -6.6,0 -11.9,5.3 -11.9,11.9 0,6.6 5.3,11.9 11.9,11.9 h 37.9 0.5 40.3 c 6.6,0 11.9,-5.3 11.9,-11.9 0,-6.6 -5.3,-11.9 -11.9,-11.9 z"
                 id="path1181" />
              <path
                 d="M 515.7,276.7 H 475.4 474.9 437 c -6.6,0 -11.9,5.3 -11.9,11.9 v 0 c 0,6.6 5.3,11.9 11.9,11.9 h 37.9 0.5 40.3 c 6.6,0 11.9,-5.3 11.9,-11.9 v 0 c 0,-6.6 -5.3,-11.9 -11.9,-11.9 z"
                 id="path1183" />
              <path
                 d="M 515.7,305.9 H 475.4 474.9 437 c -6.6,0 -11.9,5.3 -11.9,11.9 v 0 c 0,6.6 5.3,11.9 11.9,11.9 h 37.9 0.5 40.3 c 6.6,0 11.9,-5.3 11.9,-11.9 v 0 c 0,-6.6 -5.3,-11.9 -11.9,-11.9 z"
                 id="path1185" />
              <path
                 d="M 515.7,335 H 475.4 474.9 437 c -6.6,0 -11.9,5.3 -11.9,11.9 v 0 c 0,6.6 5.3,11.9 11.9,11.9 h 37.9 0.5 40.3 c 6.6,0 11.9,-5.3 11.9,-11.9 v 0 c 0,-6.5 -5.3,-11.9 -11.9,-11.9 z"
                 id="path1187" />
            </g>
          </g>
        </g>
        <g
           id="g1195" />
        <g
           id="g1197" />
        <g
           id="g1199" />
        <g
           id="g1201" />
        <g
           id="g1203" />
      </g>
    </g>
  </g>
  <style
     type="text/css"
     id="style855">
	.st0{fill:none;}
	.st1{fill:#FFFFFF;}
	.st2{fill:url(#SVGID_1_);}
	.st3{fill:url(#SVGID_2_);}
	.st4{fill:url(#SVGID_3_);}
	.st5{fill:url(#SVGID_4_);}
	.st6{fill:url(#SVGID_5_);}
	.st7{fill:url(#SVGID_6_);}
	.st8{fill:url(#SVGID_7_);}
	.st9{fill:url(#SVGID_8_);}
	.st10{fill:url(#SVGID_9_);}
	.st11{fill:url(#SVGID_10_);}
	.st12{fill:url(#SVGID_11_);}
	.st13{fill:url(#SVGID_12_);}
	.st14{fill:url(#SVGID_13_);}
	.st15{fill:url(#SVGID_14_);}
	.st16{fill:url(#SVGID_15_);}
	.st17{fill:url(#SVGID_16_);}
	.st18{fill:url(#SVGID_17_);}
	.st19{fill:url(#SVGID_18_);}
	.st20{fill:url(#SVGID_19_);}
</style>
</svg>
