0
SECTION
2
HEADER
9
$INSUNITS
70
4
9
$ACADVER
1
AC1014
9
$HANDSEED
5
FFFF
0
ENDSEC
0
SECTION
2
TABLES
0
TABLE
2
VPORT
5
8
100
AcDbSymbolTable
0
ENDTAB
0
TABLE
2
LTYPE
5
5
100
AcDbSymbolTable
0
LTYPE
5
14
100
AcDbSymbolTableRecord
100
AcDbLinetypeTableRecord
2
BYBLOCK
70
0
0
LTYPE
5
15
100
AcDbSymbolTableRecord
100
AcDbLinetypeTableRecord
2
BYLAYER
70
0
0
ENDTAB
0
TABLE
2
LAYER
5
2
100
AcDbSymbolTable
70
2
0
LAYER
5
50
100
AcDbSymbolTableRecord
100
AcDbLayerTableRecord
2
0
70
0
6
CONTINUOUS
0
ENDTAB
0
TABLE
2
STYLE
5
3
100
AcDbSymbolTable
70
1
0
STYLE
5
11
100
AcDbSymbolTableRecord
100
AcDbTextStyleTableRecord
2
STANDARD
70
0
0
ENDTAB
0
TABLE
2
VIEW
5
6
100
AcDbSymbolTable
70
0
0
ENDTAB
0
TABLE
2
UCS
5
7
100
AcDbSymbolTable
70
0
0
ENDTAB
0
TABLE
2
APPID
5
9
100
AcDbSymbolTable
70
2
0
APPID
5
12
100
AcDbSymbolTableRecord
100
AcDbRegAppTableRecord
2
ACAD
70
0
0
ENDTAB
0
TABLE
2
DIMSTYLE
5
A
100
AcDbSymbolTable
70
1
0
ENDTAB
0
TABLE
2
BLOCK_RECORD
5
1
100
AcDbSymbolTable
70
1
0
BLOCK_RECORD
5
1F
100
AcDbSymbolTableRecord
100
AcDbBlockTableRecord
2
*MODEL_SPACE
0
BLOCK_RECORD
5
1B
100
AcDbSymbolTableRecord
100
AcDbBlockTableRecord
2
*PAPER_SPACE
0
ENDTAB
0
ENDSEC
0
SECTION
2
BLOCKS
0
BLOCK
5
20
100
AcDbEntity
100
AcDbBlockBegin
2
*MODEL_SPACE
0
ENDBLK
5
21
100
AcDbEntity
100
AcDbBlockEnd
0
BLOCK
5
1C
100
AcDbEntity
100
AcDbBlockBegin
2
*PAPER_SPACE
0
ENDBLK
5
1D
100
AcDbEntity
100
AcDbBlockEnd
0
ENDSEC
0
SECTION
2
ENTITIES
0
CIRCLE
5
100
100
AcDbEntity
8
0
100
AcDbCircle
10
21.964432770998528
20
42.991195896312959
30
0
40
2.0750000000000002
210
0
220
-0
230
1
0
CIRCLE
5
101
100
AcDbEntity
8
0
100
AcDbCircle
10
-22.035567229001476
20
30.491195896312959
30
0
40
2.0750000000000002
210
0
220
-0
230
1
0
CIRCLE
5
102
100
AcDbEntity
8
0
100
AcDbCircle
10
21.964432770998528
20
30.491195896312959
30
0
40
2.0750000000000002
210
0
220
-0
230
1
0
CIRCLE
5
103
100
AcDbEntity
8
0
100
AcDbCircle
10
21.964432770998528
20
5.4911958963129592
30
0
40
2.0750000000000002
210
0
220
-0
230
1
0
CIRCLE
5
104
100
AcDbEntity
8
0
100
AcDbCircle
10
-0.035567229001474132
20
5.4911958963129592
30
0
40
2.0750000000000002
210
0
220
-0
230
1
0
CIRCLE
5
105
100
AcDbEntity
8
0
100
AcDbCircle
10
-22.035567229001476
20
5.4911958963129592
30
0
40
2.0750000000000002
210
0
220
-0
230
1
0
CIRCLE
5
106
100
AcDbEntity
8
0
100
AcDbCircle
10
21.963925387420158
20
-7.0295782487836433
30
0
40
2.0750000000000002
210
0
220
-0
230
1
0
CIRCLE
5
107
100
AcDbEntity
8
0
100
AcDbCircle
10
10.964432770998528
20
17.991195896312959
30
0
40
2.0750000000000002
210
0
220
-0
230
1
0
CIRCLE
5
108
100
AcDbEntity
8
0
100
AcDbCircle
10
-11.035567229001476
20
30.491195896312959
30
0
40
2.0750000000000002
210
0
220
-0
230
1
0
CIRCLE
5
109
100
AcDbEntity
8
0
100
AcDbCircle
10
10.964432770998528
20
42.991195896312959
30
0
40
2.0750000000000002
210
0
220
-0
230
1
0
CIRCLE
5
110
100
AcDbEntity
8
0
100
AcDbCircle
10
-22.035567229001476
20
42.991195896312959
30
0
40
2.0750000000000002
210
0
220
-0
230
1
0
CIRCLE
5
111
100
AcDbEntity
8
0
100
AcDbCircle
10
10.964432770998528
20
30.491195896312959
30
0
40
2.0750000000000002
210
0
220
-0
230
1
0
CIRCLE
5
112
100
AcDbEntity
8
0
100
AcDbCircle
10
10.964432770998528
20
5.4911958963129592
30
0
40
2.0750000000000002
210
0
220
-0
230
1
0
CIRCLE
5
113
100
AcDbEntity
8
0
100
AcDbCircle
10
-0.036074612579843901
20
-7.0295782487836433
30
0
40
2.0750000000000002
210
0
220
-0
230
1
0
CIRCLE
5
114
100
AcDbEntity
8
0
100
AcDbCircle
10
-11.035567229001476
20
5.4911958963129592
30
0
40
2.0750000000000002
210
0
220
-0
230
1
0
CIRCLE
5
115
100
AcDbEntity
8
0
100
AcDbCircle
10
10.963925387420158
20
-7.0295782487836433
30
0
40
2.0750000000000002
210
0
220
-0
230
1
0
CIRCLE
5
116
100
AcDbEntity
8
0
100
AcDbCircle
10
21.964432770998528
20
17.991195896312959
30
0
40
2.0750000000000002
210
0
220
-0
230
1
0
CIRCLE
5
117
100
AcDbEntity
8
0
100
AcDbCircle
10
-0.035567229001474132
20
30.491195896312959
30
0
40
2.0750000000000002
210
0
220
-0
230
1
0
CIRCLE
5
118
100
AcDbEntity
8
0
100
AcDbCircle
10
-0.035567229001474132
20
42.991195896312959
30
0
40
2.0750000000000002
210
0
220
-0
230
1
0
LWPOLYLINE
5
119
100
AcDbEntity
8
0
100
AcDbPolyline
90
4
70
1
43
0.0
10
12.470710548833086
20
14.728271392503647
10
9.4707105488331145
20
14.7282713925037
10
9.4707105488330967
20
13.228271392503679
10
12.470710548833068
20
13.228271392503625
0
CIRCLE
5
120
100
AcDbEntity
8
0
100
AcDbCircle
10
-0.035567229001820522
20
17.991195896312639
30
0
40
2.5
210
0
220
-0
230
1
0
LWPOLYLINE
5
121
100
AcDbEntity
8
0
100
AcDbPolyline
90
4
70
1
43
0.0
10
1.4707105488332495
20
27.228271392503807
10
-1.5292894511667221
20
27.22827139250386
10
-1.5292894511667399
20
25.728271392503839
10
1.4707105488332317
20
25.728271392503785
0
LWPOLYLINE
5
122
100
AcDbEntity
8
0
100
AcDbPolyline
90
4
70
1
43
0.0
10
23.470710548833456
20
39.728271392503501
10
20.470710548833484
20
39.728271392503551
10
20.470710548833448
20
38.22827139250353
10
23.47071054883342
20
38.228271392503487
0
LWPOLYLINE
5
123
100
AcDbEntity
8
0
100
AcDbPolyline
90
4
70
1
43
0.0
10
12.470710548833459
20
39.728271392503665
10
9.4707105488334875
20
39.7282713925037
10
9.470710548833452
20
38.228271392503679
10
12.470710548833424
20
38.228271392503643
0
LWPOLYLINE
5
124
100
AcDbEntity
8
0
100
AcDbPolyline
90
4
70
1
43
0.0
10
12.470710548833264
20
27.228271392503647
10
9.4707105488332921
20
27.2282713925037
10
9.4707105488332743
20
25.728271392503679
10
12.470710548833246
20
25.728271392503625
0
CIRCLE
5
125
100
AcDbEntity
8
0
100
AcDbCircle
10
-11.035567229001817
20
17.991195896312799
30
0
40
2.5
210
0
220
-0
230
1
0
LWPOLYLINE
5
126
100
AcDbEntity
8
0
100
AcDbPolyline
90
4
70
1
43
0.0
10
23.4707105488331
20
14.728271392503487
10
20.470710548833111
20
14.72827139250354
10
20.470710548833093
20
13.228271392503519
10
23.470710548833065
20
13.228271392503466
0
LWPOLYLINE
5
127
100
AcDbEntity
8
0
100
AcDbPolyline
90
4
70
1
43
0.0
10
1.4707105488328942
20
2.2282713925038067
10
-1.5292894511670774
20
2.22827139250386
10
-1.5292894511670951
20
0.72827139250383865
10
1.4707105488328764
20
0.72827139250378536
0
LWPOLYLINE
5
128
100
AcDbEntity
8
0
100
AcDbPolyline
90
4
70
1
43
0.0
10
20.470710548832933
20
2.2282713925035402
10
20.470710548832916
20
0.72827139250351891
10
23.470710548832887
20
0.72827139250346562
10
23.470710548832923
20
2.2282713925034869
0
LWPOLYLINE
5
129
100
AcDbEntity
8
0
100
AcDbPolyline
90
4
70
1
43
0.0
10
12.470710548832908
20
2.2282713925036468
10
9.4707105488329368
20
2.2282713925037001
10
9.4707105488329191
20
0.72827139250367878
10
12.470710548832891
20
0.72827139250362549
0
LWPOLYLINE
5
130
100
AcDbEntity
8
0
100
AcDbPolyline
90
4
70
1
43
0.0
10
-9.5292894511671022
20
2.2282713925039666
10
-12.529289451167074
20
2.2282713925040198
10
-12.529289451167092
20
0.72827139250399853
10
-9.52928945116712
20
0.72827139250394524
0
LWPOLYLINE
5
131
100
AcDbEntity
8
0
100
AcDbPolyline
90
4
70
1
43
0.0
10
1.4707105488330718
20
14.728271392503807
10
-1.5292894511668997
20
14.72827139250386
10
-1.5292894511669175
20
13.228271392503839
10
1.4707105488330541
20
13.228271392503785
0
LWPOLYLINE
5
132
100
AcDbEntity
8
0
100
AcDbPolyline
90
4
70
1
43
0.0
10
-9.529289451166747
20
27.228271392503967
10
-12.529289451166719
20
27.22827139250402
10
-12.529289451166736
20
25.728271392503999
10
-9.5292894511667647
20
25.728271392503945
0
LWPOLYLINE
5
133
100
AcDbEntity
8
0
100
AcDbPolyline
90
4
70
1
43
0.0
10
-9.5292894511665516
20
39.728271392503977
10
-12.529289451166523
20
39.72827139250402
10
-12.529289451166559
20
38.228271392503999
10
-9.5292894511665871
20
38.228271392503956
0
CIRCLE
5
134
100
AcDbEntity
8
0
100
AcDbCircle
10
-11.035567229001462
20
42.991195896312803
30
0
40
2.5
210
0
220
-0
230
1
0
LWPOLYLINE
5
135
100
AcDbEntity
8
0
100
AcDbPolyline
90
4
70
1
43
0.0
10
1.4707105488334449
20
39.728271392503828
10
-1.5292894511665267
20
39.728271392503856
10
-1.5292894511665622
20
38.228271392503842
10
1.4707105488334093
20
38.2282713925038
0
LWPOLYLINE
5
136
100
AcDbEntity
8
0
100
AcDbPolyline
90
4
70
1
43
0.0
10
23.470710548833278
20
27.228271392503487
10
20.470710548833289
20
27.22827139250354
10
20.470710548833271
20
25.728271392503519
10
23.470710548833242
20
25.728271392503466
0
CIRCLE
5
137
100
AcDbEntity
8
0
100
AcDbCircle
10
-22.035567229001831
20
17.991195896312959
30
0
40
2.5
210
0
220
-0
230
1
0
LWPOLYLINE
5
138
100
AcDbEntity
8
0
100
AcDbPolyline
90
4
70
1
43
0.0
10
-9.5292894511669246
20
14.728271392503967
10
-12.529289451166896
20
14.72827139250402
10
-12.529289451166914
20
13.228271392503999
10
-9.5292894511669424
20
13.228271392503945
0
LWPOLYLINE
5
139
100
AcDbEntity
8
0
100
AcDbPolyline
90
16
70
1
43
0.0
10
-5
20
-12.26240370532059
10
-4.99999999999996
20
-1.5999999850988389
10
-32.499804180903425
20
-1.5999999850988367
10
-32.499804180903425
20
44.118798147339703
10
-30.000000000000007
20
44.118798147339703
10
-30.000000000000014
20
50.499999999999986
10
-29.786912755519879
20
51.39829995222108
42
-0.28349390344854414
10
-28.000000000000007
20
52.5
10
27.999999999999989
20
52.499999999999993
10
28.844169865659577
20
52.31311258280126
42
-0.29163301886559984
10
29.999999999999993
20
50.499999999999986
10
29.999999999999993
20
44.118798147339703
10
32.500000484287739
20
44.118798147339703
10
32.500000484287739
20
-5.8812018526602916
10
30
20
-5.8812018526602898
10
30
20
-12.262403705320581
0
LWPOLYLINE
5
140
100
AcDbEntity
8
0
100
AcDbPolyline
90
8
70
1
43
0.0
10
23.900000000000013
20
45.849999999999994
10
24.600000000000016
20
45.84999999999998
42
0.41421356237309742
10
25.150000000000023
20
46.399999999999991
10
25.15000000000002
20
47.04999999999999
42
0.41421356237309742
10
24.600000000000016
20
47.599999999999987
10
23.900000000000013
20
47.599999999999987
42
0.41421356237309742
10
23.350000000000016
20
47.049999999999983
10
23.350000000000023
20
46.399999999999977
42
0.41421356237308793
0
LWPOLYLINE
5
141
100
AcDbEntity
8
0
100
AcDbPolyline
90
8
70
1
43
0.0
10
1.9000000000000172
20
45.849999999999994
10
2.6000000000000201
20
45.84999999999998
42
0.41421356237309503
10
3.1500000000000217
20
46.399999999999991
10
3.1500000000000172
20
47.04999999999999
42
0.41421356237309503
10
2.6000000000000201
20
47.599999999999987
10
1.9000000000000172
20
47.599999999999987
42
0.41421356237309975
10
1.3500000000000156
20
47.049999999999983
10
1.3500000000000201
20
46.399999999999977
42
0.41421356237309037
0
LWPOLYLINE
5
142
100
AcDbEntity
8
0
100
AcDbPolyline
90
8
70
1
43
0.0
10
-20.099999999999984
20
45.849999999999994
10
-19.399999999999981
20
45.84999999999998
42
0.41421356237309503
10
-18.84999999999998
20
46.399999999999991
10
-18.849999999999984
20
47.04999999999999
42
0.41421356237309503
10
-19.399999999999981
20
47.599999999999987
10
-20.099999999999984
20
47.599999999999987
42
0.41421356237309975
10
-20.649999999999984
20
47.049999999999983
10
-20.649999999999981
20
46.399999999999977
42
0.41421356237309037
0
LWPOLYLINE
5
143
100
AcDbEntity
8
0
100
AcDbPolyline
90
8
70
1
43
0.0
10
1.9000000000000172
20
20.849999999999987
10
2.6000000000000201
20
20.849999999999987
42
0.41421356237309742
10
3.1500000000000217
20
21.399999999999991
10
3.1500000000000172
20
22.049999999999997
42
0.4142135623730927
10
2.6000000000000201
20
22.599999999999994
10
1.9000000000000172
20
22.599999999999994
42
0.41421356237309742
10
1.3500000000000156
20
22.049999999999986
10
1.3500000000000201
20
21.399999999999984
42
0.4142135623730927
0
LWPOLYLINE
5
144
100
AcDbEntity
8
0
100
AcDbPolyline
90
8
70
1
43
0.0
10
-20.099999999999984
20
20.849999999999987
10
-19.399999999999981
20
20.849999999999987
42
0.41421356237309742
10
-18.84999999999998
20
21.399999999999991
10
-18.849999999999984
20
22.049999999999997
42
0.4142135623730927
10
-19.399999999999981
20
22.599999999999994
10
-20.099999999999984
20
22.599999999999994
42
0.41421356237309742
10
-20.649999999999984
20
22.049999999999986
10
-20.649999999999981
20
21.399999999999984
42
0.4142135623730927
0
LWPOLYLINE
5
145
100
AcDbEntity
8
0
100
AcDbPolyline
90
8
70
1
43
0.0
10
12.900000000000018
20
-4.1500000000000128
10
13.600000000000021
20
-4.1500000000000137
42
0.41421356237309709
10
14.150000000000023
20
-3.6000000000000081
10
14.150000000000018
20
-2.9500000000000042
42
0.41421356237309293
10
13.600000000000021
20
-2.4000000000000092
10
12.900000000000018
20
-2.4000000000000079
42
0.41421356237309709
10
12.350000000000016
20
-2.9500000000000131
10
12.350000000000021
20
-3.600000000000017
42
0.41421356237309293
0
LWPOLYLINE
5
146
100
AcDbEntity
8
0
100
AcDbPolyline
90
8
70
1
43
0.0
10
23.900000000000013
20
8.3499999999999872
10
24.600000000000016
20
8.3499999999999872
42
0.41421356237309975
10
25.150000000000023
20
8.8999999999999915
10
25.15000000000002
20
9.5499999999999972
42
0.41421356237309442
10
24.600000000000016
20
10.099999999999989
10
23.900000000000013
20
10.099999999999994
42
0.41421356237309387
10
23.350000000000016
20
9.5499999999999883
10
23.350000000000023
20
8.8999999999999844
42
0.41421356237309093
0
LWPOLYLINE
5
147
100
AcDbEntity
8
0
100
AcDbPolyline
90
8
70
1
43
0.0
10
1.9000000000000172
20
8.3499999999999872
10
2.6000000000000201
20
8.3499999999999872
42
0.41421356237309742
10
3.1500000000000217
20
8.8999999999999915
10
3.1500000000000172
20
9.5499999999999972
42
0.41421356237309209
10
2.6000000000000201
20
10.099999999999989
10
1.9000000000000172
20
10.099999999999994
42
0.4142135623730962
10
1.3500000000000156
20
9.5499999999999883
10
1.3500000000000201
20
8.8999999999999844
42
0.41421356237309326
0
LWPOLYLINE
5
148
100
AcDbEntity
8
0
100
AcDbPolyline
90
8
70
1
43
0.0
10
-20.099999999999984
20
8.3499999999999872
10
-19.399999999999981
20
8.3499999999999872
42
0.41421356237309742
10
-18.84999999999998
20
8.8999999999999915
10
-18.849999999999984
20
9.5499999999999972
42
0.41421356237309209
10
-19.399999999999981
20
10.099999999999989
10
-20.099999999999984
20
10.099999999999994
42
0.4142135623730962
10
-20.649999999999984
20
9.5499999999999883
10
-20.649999999999981
20
8.8999999999999844
42
0.41421356237309326
0
LWPOLYLINE
5
149
100
AcDbEntity
8
0
100
AcDbPolyline
90
8
70
1
43
0.0
10
23.900000000000013
20
33.349999999999987
10
24.600000000000016
20
33.349999999999987
42
0.41421356237309975
10
25.150000000000023
20
33.899999999999991
10
25.15000000000002
20
34.549999999999997
42
0.41421356237309503
10
24.600000000000016
20
35.099999999999994
10
23.900000000000013
20
35.099999999999994
42
0.41421356237309503
10
23.350000000000016
20
34.54999999999999
10
23.350000000000023
20
33.899999999999984
42
0.41421356237309037
0
LWPOLYLINE
5
150
100
AcDbEntity
8
0
100
AcDbPolyline
90
8
70
1
43
0.0
10
1.9000000000000172
20
33.349999999999987
10
2.6000000000000201
20
33.349999999999987
42
0.41421356237309742
10
3.1500000000000217
20
33.899999999999991
10
3.1500000000000172
20
34.549999999999997
42
0.4142135623730927
10
2.6000000000000201
20
35.099999999999994
10
1.9000000000000172
20
35.099999999999994
42
0.41421356237309742
10
1.3500000000000156
20
34.54999999999999
10
1.3500000000000201
20
33.899999999999984
42
0.4142135623730927
0
LWPOLYLINE
5
151
100
AcDbEntity
8
0
100
AcDbPolyline
90
8
70
1
43
0.0
10
-20.099999999999984
20
33.349999999999987
10
-19.399999999999981
20
33.349999999999987
42
0.41421356237309742
10
-18.84999999999998
20
33.899999999999991
10
-18.849999999999984
20
34.549999999999997
42
0.4142135623730927
10
-19.399999999999981
20
35.099999999999994
10
-20.099999999999984
20
35.099999999999994
42
0.41421356237309742
10
-20.649999999999984
20
34.54999999999999
10
-20.649999999999981
20
33.899999999999984
42
0.4142135623730927
0
LWPOLYLINE
5
152
100
AcDbEntity
8
0
100
AcDbPolyline
90
8
70
1
43
0.0
10
-9.0999999999999837
20
33.349999999999987
10
-8.3999999999999808
20
33.349999999999987
42
0.41421356237309742
10
-7.8499999999999792
20
33.899999999999991
10
-7.8499999999999837
20
34.549999999999997
42
0.4142135623730927
10
-8.3999999999999808
20
35.099999999999994
10
-9.0999999999999837
20
35.099999999999994
42
0.41421356237309742
10
-9.6499999999999844
20
34.54999999999999
10
-9.6499999999999808
20
33.899999999999984
42
0.4142135623730927
0
LWPOLYLINE
5
153
100
AcDbEntity
8
0
100
AcDbPolyline
90
8
70
1
43
0.0
10
12.900000000000018
20
33.349999999999987
10
13.600000000000021
20
33.349999999999987
42
0.41421356237309742
10
14.150000000000023
20
33.899999999999991
10
14.150000000000018
20
34.549999999999997
42
0.4142135623730927
10
13.600000000000021
20
35.099999999999994
10
12.900000000000018
20
35.099999999999994
42
0.41421356237309742
10
12.350000000000016
20
34.54999999999999
10
12.350000000000021
20
33.899999999999984
42
0.4142135623730927
0
LWPOLYLINE
5
154
100
AcDbEntity
8
0
100
AcDbPolyline
90
8
70
1
43
0.0
10
23.900000000000013
20
20.849999999999987
10
24.600000000000016
20
20.849999999999987
42
0.41421356237309975
10
25.150000000000023
20
21.399999999999991
10
25.15000000000002
20
22.049999999999997
42
0.41421356237309503
10
24.600000000000016
20
22.599999999999994
10
23.900000000000013
20
22.599999999999994
42
0.41421356237309503
10
23.350000000000016
20
22.049999999999986
10
23.350000000000023
20
21.399999999999984
42
0.41421356237309037
0
LWPOLYLINE
5
155
100
AcDbEntity
8
0
100
AcDbPolyline
90
8
70
1
43
0.0
10
-9.0999999999999837
20
8.3499999999999872
10
-8.3999999999999808
20
8.3499999999999872
42
0.41421356237309742
10
-7.8499999999999792
20
8.8999999999999915
10
-7.8499999999999837
20
9.5499999999999972
42
0.41421356237309209
10
-8.3999999999999808
20
10.099999999999989
10
-9.0999999999999837
20
10.099999999999994
42
0.4142135623730962
10
-9.6499999999999844
20
9.5499999999999883
10
-9.6499999999999808
20
8.8999999999999844
42
0.41421356237309326
0
LWPOLYLINE
5
156
100
AcDbEntity
8
0
100
AcDbPolyline
90
8
70
1
43
0.0
10
12.900000000000018
20
8.3499999999999872
10
13.600000000000021
20
8.3499999999999872
42
0.41421356237309742
10
14.150000000000023
20
8.8999999999999915
10
14.150000000000018
20
9.5499999999999972
42
0.41421356237309209
10
13.600000000000021
20
10.099999999999989
10
12.900000000000018
20
10.099999999999994
42
0.4142135623730962
10
12.350000000000016
20
9.5499999999999883
10
12.350000000000021
20
8.8999999999999844
42
0.41421356237309326
0
LWPOLYLINE
5
157
100
AcDbEntity
8
0
100
AcDbPolyline
90
8
70
1
43
0.0
10
1.9000000000000172
20
-4.1500000000000128
10
2.6000000000000201
20
-4.1500000000000137
42
0.41421356237309709
10
3.1500000000000217
20
-3.6000000000000081
10
3.1500000000000172
20
-2.9500000000000042
42
0.41421356237309293
10
2.6000000000000201
20
-2.4000000000000092
10
1.9000000000000172
20
-2.4000000000000079
42
0.41421356237309709
10
1.3500000000000156
20
-2.9500000000000131
10
1.3500000000000201
20
-3.600000000000017
42
0.41421356237309293
0
LWPOLYLINE
5
158
100
AcDbEntity
8
0
100
AcDbPolyline
90
8
70
1
43
0.0
10
23.350000000000016
20
-2.9500000000000131
10
23.350000000000016
20
-3.600000000000017
42
0.41421356237309059
10
23.900000000000013
20
-4.1500000000000128
10
24.600000000000016
20
-4.1500000000000137
42
0.41421356237309948
10
25.150000000000023
20
-3.6000000000000081
10
25.15000000000002
20
-2.9500000000000042
42
0.41421356237309537
10
24.600000000000016
20
-2.4000000000000092
10
23.900000000000013
20
-2.4000000000000079
42
0.41421356237309476
0
LWPOLYLINE
5
159
100
AcDbEntity
8
0
100
AcDbPolyline
90
8
70
1
43
0.0
10
-9.0999999999999837
20
20.849999999999987
10
-8.3999999999999808
20
20.849999999999987
42
0.41421356237309742
10
-7.8499999999999792
20
21.399999999999991
10
-7.8499999999999837
20
22.049999999999997
42
0.4142135623730927
10
-8.3999999999999808
20
22.599999999999994
10
-9.0999999999999837
20
22.599999999999994
42
0.41421356237309742
10
-9.6499999999999844
20
22.049999999999986
10
-9.6499999999999808
20
21.399999999999984
42
0.4142135623730927
0
LWPOLYLINE
5
160
100
AcDbEntity
8
0
100
AcDbPolyline
90
8
70
1
43
0.0
10
12.900000000000018
20
20.849999999999987
10
13.600000000000021
20
20.849999999999987
42
0.41421356237309742
10
14.150000000000023
20
21.399999999999991
10
14.150000000000018
20
22.049999999999997
42
0.4142135623730927
10
13.600000000000021
20
22.599999999999994
10
12.900000000000018
20
22.599999999999994
42
0.41421356237309742
10
12.350000000000016
20
22.049999999999986
10
12.350000000000021
20
21.399999999999984
42
0.4142135623730927
0
LWPOLYLINE
5
161
100
AcDbEntity
8
0
100
AcDbPolyline
90
8
70
1
43
0.0
10
-9.0999999999999837
20
45.849999999999994
10
-8.3999999999999808
20
45.84999999999998
42
0.41421356237309503
10
-7.8499999999999792
20
46.399999999999991
10
-7.8499999999999837
20
47.04999999999999
42
0.41421356237309503
10
-8.3999999999999808
20
47.599999999999987
10
-9.0999999999999837
20
47.599999999999987
42
0.41421356237309975
10
-9.6499999999999844
20
47.049999999999983
10
-9.6499999999999808
20
46.399999999999977
42
0.41421356237309037
0
LWPOLYLINE
5
162
100
AcDbEntity
8
0
100
AcDbPolyline
90
8
70
1
43
0.0
10
12.900000000000018
20
45.849999999999994
10
13.600000000000021
20
45.84999999999998
42
0.41421356237309503
10
14.150000000000023
20
46.399999999999991
10
14.150000000000018
20
47.04999999999999
42
0.41421356237309503
10
13.600000000000021
20
47.599999999999987
10
12.900000000000018
20
47.599999999999987
42
0.41421356237309975
10
12.350000000000016
20
47.049999999999983
10
12.350000000000021
20
46.399999999999977
42
0.41421356237309037
0
ENDSEC
0
SECTION
2
OBJECTS
0
DICTIONARY
5
C
100
AcDbDictionary
3
ACAD_GROUP
350
D
3
ACAD_MLINESTYLE
350
17
0
DICTIONARY
5
D
100
AcDbDictionary
0
DICTIONARY
5
1A
330
C
100
AcDbDictionary
0
DICTIONARY
5
17
100
AcDbDictionary
0
ENDSEC
0
EOF
